<svg width="22" height="22" viewBox="0 0 22 22" fill="none" xmlns="http://www.w3.org/2000/svg">
<path fill-rule="evenodd" clip-rule="evenodd" d="M4.95956 17.7361C4.82454 17.6335 1.64791 15.1721 1.64791 10.405C1.64791 5.63786 4.82454 3.17473 4.95999 3.07206C5.28913 2.82402 5.35556 2.35641 5.10881 2.02641C4.86121 1.69555 4.3923 1.62826 4.06144 1.87586C3.90183 1.99535 0.152344 4.86528 0.152344 10.405C0.152344 15.9446 3.90227 18.8133 4.06187 18.9328C4.1956 19.0333 4.35305 19.0816 4.50791 19.0816C4.73525 19.0816 4.95956 18.9785 5.10666 18.7831C5.3547 18.4535 5.28827 17.985 4.95956 17.7361ZM3.0818 10.4026C3.0818 6.00907 6.65659 2.43428 11.0501 2.43428C15.4436 2.43428 19.018 6.00907 19.018 10.4026C19.018 14.7966 15.4436 18.3709 11.0501 18.3709C6.65659 18.3709 3.0818 14.7966 3.0818 10.4026ZM4.5778 10.4026C4.5778 13.9713 7.48137 16.8749 11.0501 16.8749C14.6189 16.8749 17.522 13.9713 17.522 10.4026C17.522 6.83385 14.6189 3.93028 11.0501 3.93028C7.48137 3.93028 4.5778 6.83385 4.5778 10.4026ZM14.9419 9.77236C14.3375 9.52734 14.0714 9.31683 14.0714 8.88848C14.0714 8.57573 14.2987 8.2013 14.8961 8.2013C15.2926 8.2013 15.5851 8.33762 15.7278 8.41915L15.8836 7.93601C15.689 7.8273 15.3573 7.7186 14.9156 7.7186C14.0645 7.7186 13.4998 8.24918 13.4998 8.9562C13.4998 9.5955 13.9415 9.99667 14.6494 10.2551C15.2473 10.4932 15.4807 10.7382 15.4807 11.1666C15.4807 11.6294 15.1429 11.9491 14.5653 11.9491C14.1749 11.9491 13.8052 11.8128 13.5516 11.6493L13.4023 12.1458C13.6361 12.3093 14.0977 12.4456 14.5265 12.4456C15.5587 12.4456 16.0591 11.8266 16.0591 11.1191C16.0591 10.4457 15.6821 10.0786 14.9419 9.77236ZM11.9665 9.90477V9.91814C12.3824 10.0273 12.8694 10.3806 12.8694 11.0746C12.8694 11.462 12.7266 11.7614 12.4928 11.9857C12.1939 12.2786 11.6999 12.4145 10.9856 12.4145C10.5896 12.4145 10.2971 12.3873 10.1021 12.3601V7.85057C10.3554 7.79622 10.7518 7.75567 11.1413 7.75567C11.7068 7.75567 12.0705 7.85747 12.3366 8.08869C12.5709 8.26555 12.7068 8.53775 12.7068 8.89837C12.7068 9.3401 12.4212 9.73481 11.9665 9.90477ZM11.1741 8.2112C10.914 8.2112 10.7647 8.23147 10.6737 8.25218V9.73481H11.1866C11.7785 9.73481 12.1356 9.40135 12.1356 8.9592C12.1356 8.42214 11.7452 8.2112 11.1741 8.2112ZM10.6737 11.9249C10.791 11.9452 10.9399 11.9521 11.1482 11.9521C11.7327 11.9521 12.2784 11.7273 12.2784 11.0677C12.2784 10.4354 11.7586 10.1765 11.1413 10.1765H10.6737V11.9249ZM5.80105 12.3736L7.29489 7.78937H7.97042L9.4647 12.3736H8.86077L8.39274 10.9315H6.84023L6.39203 12.3736H5.80105ZM7.38591 9.14302L6.95713 10.4691H8.27583L7.84705 9.14992C7.75232 8.85772 7.68758 8.59182 7.62437 8.33217L7.61972 8.31306H7.6003C7.54164 8.58525 7.47046 8.86435 7.38591 9.14302ZM16.9937 2.02498C17.2413 1.69585 17.7081 1.62855 18.0381 1.8753C18.1977 1.99522 21.9485 4.86341 21.9485 10.4031C21.9485 15.9428 18.1981 18.8127 18.0381 18.9326C17.9044 19.0331 17.7469 19.0819 17.5907 19.0819C17.363 19.0819 17.1378 18.9784 16.9911 18.7821C16.744 18.4516 16.8108 17.984 17.14 17.736C17.2754 17.6333 20.452 15.1706 20.452 10.4031C20.452 5.636 17.2758 3.17502 17.14 3.07236C16.8117 2.82345 16.7453 2.35455 16.9937 2.02498Z" fill="#FFC000"/>
</svg>
