<svg width="60" height="60" viewBox="0 0 60 60" fill="none" xmlns="http://www.w3.org/2000/svg">
<circle cx="30" cy="30" r="30" fill="#C1ECFB"/>
<path d="M44.0428 17.8538C43.7866 17.7745 43.5146 17.7344 43.2267 17.7344H16.7733C16.4853 17.7344 16.2134 17.7745 15.9571 17.8538C14.8166 18.1974 14 19.2459 14 20.5078V39.4944C14 40.2618 14.3022 40.9501 14.7953 41.4492C14.8126 41.4749 14.8316 41.4993 14.8533 41.5211C14.9918 41.6456 15.1411 41.7555 15.2983 41.8504C15.6893 42.0935 16.1469 42.2419 16.6411 42.2644C16.6851 42.2666 16.7292 42.2677 16.7733 42.2677H43.2266C43.2706 42.2677 43.3147 42.2666 43.3587 42.2644C44.8426 42.1969 46 40.9967 46 39.4944V20.5078C46 19.2459 45.1834 18.1974 44.0428 17.8538ZM33.1538 30.4744L44.7244 19.6751C44.8579 19.9198 44.9334 20.2029 44.9334 20.5077V39.4944C44.9334 39.8335 44.8399 40.1458 44.677 40.4081L33.1538 30.4744ZM43.2267 18.8011C43.2581 18.8011 43.2886 18.8019 43.3185 18.8034C43.3334 18.8042 43.3481 18.8056 43.3629 18.8067C43.379 18.8079 43.3952 18.8089 43.411 18.8106C43.4187 18.8114 43.4262 18.8125 43.4338 18.8134C43.6094 18.8346 43.7649 18.8835 43.92 18.9611L32.1731 29.9453C32.1037 29.9698 32.0362 30.0073 31.9734 30.0544L31.5467 30.4278C30.64 31.2811 29.2534 31.2811 28.3467 30.4278L28.289 30.3773L16.08 18.9611C16.2351 18.8835 16.3906 18.8345 16.5662 18.8133C16.5738 18.8124 16.5813 18.8113 16.589 18.8105C16.6047 18.8088 16.621 18.8079 16.6371 18.8066C16.6519 18.8055 16.6666 18.8041 16.6816 18.8034C16.7115 18.8019 16.742 18.801 16.7734 18.801H43.2267V18.8011ZM15.2871 40.3472C15.1466 40.0979 15.0667 39.8076 15.0667 39.4944V20.5078C15.0667 20.203 15.1422 19.9199 15.2756 19.6752L26.795 30.4266L15.2871 40.3472ZM16.7733 41.2011C16.6003 41.2011 16.4273 41.1659 16.2543 41.1242C16.2167 41.1127 16.1799 41.0996 16.1436 41.0856L27.6236 31.2001L27.6534 31.2278C27.8731 31.4138 28.1036 31.5727 28.3431 31.7033C29.6031 32.4255 31.2621 32.2673 32.3468 31.2278L32.4021 31.1762L43.8566 41.0856C43.8202 41.0996 43.7834 41.1127 43.7458 41.1243C43.5728 41.1659 43.3998 41.2011 43.2267 41.2011H16.7733V41.2011Z" fill="#356799"/>
</svg>
