<svg width="22" height="22" viewBox="0 0 22 22" fill="none" xmlns="http://www.w3.org/2000/svg">
<path fill-rule="evenodd" clip-rule="evenodd" d="M6.03593 0.890625C9.21306 0.890625 11.7881 3.46623 11.7881 6.64336C11.7881 9.82048 9.21306 12.3956 6.03593 12.3956C2.85881 12.3956 0.283203 9.82048 0.283203 6.64336C0.283203 3.46623 2.85881 0.890625 6.03593 0.890625ZM16.314 1.65332C17.9489 1.65332 19.2748 2.97869 19.2748 4.6142C19.2748 6.24971 17.9489 7.57508 16.314 7.57508C14.6779 7.57508 13.3531 6.24971 13.3531 4.6142C13.3531 2.97869 14.6779 1.65332 16.314 1.65332ZM17.0436 17.5299C16.3401 16.5737 15.6377 15.6175 14.9364 14.6608C14.2265 13.6933 13.516 12.7269 12.8045 11.7595C12.7128 11.6345 12.6065 11.5282 12.4933 11.4418C12.0426 11.0909 11.4609 11.034 11.0419 11.327C10.611 11.6296 10.1704 11.9172 9.72132 12.1936C9.44658 12.3615 9.27595 12.6438 9.21961 12.9684C9.16434 13.2893 9.2239 13.652 9.41546 13.9826C9.75319 14.5622 10.0912 15.1415 10.4293 15.721L10.4359 15.7323L10.4361 15.7327L10.4363 15.733L10.8122 16.3773C11.3016 17.2138 11.7902 18.051 12.2792 18.8886L13.0256 20.1672C13.4082 20.8337 14.3043 21.0553 15.0024 20.626C15.5712 20.2772 16.1298 19.9108 16.6771 19.5266C17.3478 19.056 17.5007 18.1465 17.0436 17.5299ZM15.1212 14.4254L13.0012 11.537C12.8831 11.3798 12.7441 11.2446 12.5917 11.1324C13.3075 9.6713 14.5996 7.5051 15.9127 7.7031C17.6705 7.96764 16.6558 12.1884 15.1212 14.4254ZM8.8912 12.9272C8.35354 12.953 7.71607 13.0072 7.19988 13.1134C6.07842 13.3458 2.32554 19.0878 2.32554 19.0878C1.90754 19.5922 1.97837 20.3396 2.48276 20.756L2.90612 21.1064C3.40998 21.5244 4.15637 21.4531 4.57383 20.9492L4.70207 20.7936L4.71978 20.7732L7.08129 17.9186C7.08845 17.9107 7.09417 17.9028 7.0999 17.895L7.10866 17.8831L8.47534 16.2299C8.47534 16.2299 9.35212 16.3877 10.479 16.3877L9.13051 14.0766C8.91534 13.7042 8.84129 13.2964 8.8912 12.9272ZM18.1635 10.7119L20.9043 9.21479C21.3599 8.96581 21.5273 8.39542 21.2783 7.93879L21.0685 7.5562C20.8201 7.10118 20.2497 6.93377 19.7942 7.18274L17.1059 8.64923C17.2513 9.15147 17.2314 9.84045 17.0941 10.5917C17.3817 10.8455 17.8077 10.9066 18.1635 10.7119Z" fill="#EB2F00"/>
</svg>
