<svg width="195" height="160" viewBox="0 0 195 160" fill="none" xmlns="http://www.w3.org/2000/svg">
<g clip-path="url(#clip0_3_47)">
<path d="M154 49.0001L161 66.5001C125.427 79.4093 106.496 88.3893 74.5 107.5L72 101C80.8233 94.4368 88 78 83 75.5C78 73 61.2687 94.9298 63.5 89.5C63.652 89.13 56.8333 76 53.5 69C82.8485 46.5558 105.448 37.8707 143.5 27C144.5 30.1667 146.731 35.5022 147 36.0001C147.786 37.4581 132.854 41.6306 125 42.0001C123.191 44.0376 122.736 45.2646 122.5 47.5001C125.574 55.2214 135.246 53.3993 154 49.0001Z" fill="#FFC000"/>
<path fill-rule="evenodd" clip-rule="evenodd" d="M152.022 97.9347C152.39 97.3955 153.124 97.2796 153.661 97.6759C154.904 98.5944 156.836 100.062 158.597 101.485C159.477 102.196 160.322 102.903 161.022 103.529C161.696 104.132 162.31 104.728 162.663 105.201C163.065 105.74 162.975 106.499 162.463 106.895C161.951 107.291 161.21 107.175 160.808 106.635C160.624 106.388 160.186 105.943 159.506 105.334C158.851 104.747 158.041 104.069 157.177 103.371C155.452 101.977 153.549 100.532 152.326 99.6287C151.79 99.2324 151.653 98.474 152.022 97.9347Z" fill="#FFC000"/>
<path fill-rule="evenodd" clip-rule="evenodd" d="M148.867 101.272C149.43 101.25 149.94 101.724 150.007 102.331C150.193 104.035 152.162 109.349 158.926 114.688C159.399 115.062 159.531 115.754 159.219 116.233C158.908 116.712 158.271 116.797 157.797 116.423C150.673 110.799 148.244 104.93 147.968 102.412C147.901 101.805 148.304 101.295 148.867 101.272Z" fill="#FFC000"/>
<path fill-rule="evenodd" clip-rule="evenodd" d="M139.782 103.765C140.324 104.006 140.59 104.649 140.376 105.2C139.705 106.93 138.756 109.743 138.103 112.529C137.776 113.923 137.528 115.287 137.422 116.493C137.314 117.721 137.362 118.686 137.553 119.33C137.726 119.912 137.414 120.51 136.858 120.666C136.301 120.823 135.71 120.479 135.537 119.898C135.223 118.84 135.203 117.538 135.32 116.215C135.439 114.868 135.71 113.395 136.05 111.942C136.731 109.037 137.713 106.127 138.413 104.325C138.627 103.774 139.24 103.523 139.782 103.765Z" fill="#FFC000"/>
<path fill-rule="evenodd" clip-rule="evenodd" d="M86.1015 38.2583C85.4723 38.0819 85.0985 37.4276 85.2666 36.7968C85.7942 34.8176 86.4935 31.6216 86.87 28.5005C87.0583 26.9398 87.1627 25.4233 87.1308 24.1006C87.0982 22.7527 86.9254 21.7157 86.6338 21.0474C86.371 20.4451 86.641 19.7482 87.2369 19.4909C87.8328 19.2336 88.5289 19.5132 88.7918 20.1155C89.2701 21.2117 89.4535 22.6187 89.4886 24.0704C89.5242 25.5473 89.4077 27.1863 89.2114 28.813C88.8189 32.0668 88.0948 35.3736 87.5452 37.4357C87.3771 38.0664 86.7307 38.4348 86.1015 38.2583Z" fill="#FFC000"/>
<path fill-rule="evenodd" clip-rule="evenodd" d="M79.1942 40.8846C78.6483 40.9575 78.0699 40.5148 77.9022 39.8958C77.4317 38.1597 74.6109 32.8654 67.1046 27.9716C66.5789 27.6289 66.3336 26.9291 66.5566 26.4084C66.7796 25.8878 67.3865 25.7435 67.9122 26.0862C75.8189 31.241 79.1832 37.0648 79.8787 39.6317C80.0465 40.2507 79.74 40.8117 79.1942 40.8846Z" fill="#FFC000"/>
<path fill-rule="evenodd" clip-rule="evenodd" d="M76.5964 44.4707C76.3108 45.0309 75.6244 45.2317 75.0633 44.9192C73.7627 44.195 71.7374 43.0311 69.8815 41.8889C68.9542 41.3182 68.0596 40.747 67.3152 40.2351C66.5971 39.7414 65.9373 39.2485 65.5423 38.8398C65.0922 38.3741 65.0843 37.639 65.5247 37.1979C65.965 36.7568 66.6868 36.7768 67.1369 37.2425C67.3429 37.4557 67.8163 37.8272 68.5405 38.3252C69.2384 38.805 70.0952 39.3527 71.0054 39.9128C72.8245 41.0324 74.8186 42.1785 76.0974 42.8906C76.6585 43.2031 76.8819 43.9105 76.5964 44.4707Z" fill="#FFC000"/>
<path d="M112.703 117.759L112.535 117.786C98.8081 122.122 88.5653 124.124 79.3273 124.285C75.1345 124.359 71.0837 124.065 66.1908 123.334C66.1152 123.321 66.0462 123.319 65.9823 123.318C65.5573 123.325 65.3821 123.593 65.3604 123.84C65.327 124.195 65.5772 124.654 65.9582 124.73C68.1481 125.175 70.5528 125.499 73.1116 125.69C70.4199 130.625 68.1867 135.044 66.3473 139.492C66.1256 140.996 67.3701 140.952 67.7805 140.083C67.8838 139.809 67.9672 139.526 68.0738 139.252C69.829 134.812 71.3219 131.485 72.9181 128.479C73.1542 128.033 74.0729 126.587 74.5336 125.783C76.2158 125.876 77.9519 125.906 79.6965 125.875L79.6979 125.875C90.2708 125.69 101.476 123.358 113.001 118.937C113.253 118.84 113.38 118.594 113.326 118.313C113.273 118.04 113.036 117.754 112.703 117.759Z" fill="#356799"/>
<path d="M119.197 116.066C118.94 116.072 118.711 115.894 118.625 115.625C118.539 115.352 118.634 115.081 118.874 114.917C119.668 114.382 120.464 113.854 121.259 113.331C123.392 111.924 125.595 110.47 127.654 108.845C128.135 108.463 128.632 108.105 129.125 107.746C129.902 107.187 130.704 106.603 131.445 105.936C131.846 105.574 132.016 105.146 131.89 104.823C131.776 104.54 131.45 104.375 131.017 104.383C130.84 104.385 130.648 104.416 130.443 104.473C129.407 104.774 128.491 105.234 127.734 105.643C127.64 105.694 127.544 105.723 127.44 105.721C127.172 105.726 126.914 105.553 126.809 105.295C126.712 105.058 126.771 104.808 126.962 104.627C127.849 103.786 129.472 102.795 131.128 102.766C131.655 102.755 132.143 102.847 132.581 103.037C133.214 103.309 133.961 103.953 134.097 104.713C134.181 105.175 134.021 105.614 133.638 105.985C129.652 109.819 124.873 112.716 120.252 115.52L119.508 115.97C119.408 116.032 119.303 116.062 119.197 116.066Z" fill="#356799"/>
<path d="M174.49 44.3723L174.326 44.3964C172.923 44.7861 171.403 44.9836 169.541 45.0161C168.288 45.0378 167.006 44.9826 165.762 44.9297C164.509 44.877 163.211 44.8229 161.935 44.843C161.572 44.8509 161.212 44.8624 160.85 44.8823C160.57 44.8957 160.281 44.9166 159.986 44.9445L159.794 44.9583L159.465 45.0056C157.353 45.2687 154.863 45.8718 152.455 46.4559C150.958 46.8189 149.468 47.1814 148.079 47.4607C147.001 47.6759 146.012 47.9081 145.058 48.1315C142.941 48.6225 140.936 49.0904 138.458 49.2803C137.959 49.312 137.51 49.3495 137.081 49.3883C136.365 49.4502 135.702 49.5059 134.935 49.5189C134.6 49.525 134.241 49.5236 133.848 49.5077C129.484 49.3994 126.129 47.2081 125.521 45.2404C125.215 44.2388 125.592 43.321 126.534 42.6139C138.04 41.9626 147.915 37.8862 156.87 33.5829C157.106 33.4673 157.217 33.2197 157.15 32.9515C157.094 32.709 156.883 32.4674 156.596 32.4707L156.44 32.4971L154.873 33.0859C152.671 33.9163 150.477 34.7405 148.274 35.551C147.242 32.833 146.035 29.8162 144.263 26.1553C144.149 25.9316 143.939 25.8057 143.687 25.8109L143.496 25.8367C138.075 27.2142 132.801 28.9451 124.035 32.2226C115.661 35.3548 107.506 38.9984 99.1941 42.7707C96.3739 44.0489 93.5794 45.2718 90.8172 46.4803C77.0209 52.5165 63.9935 58.2184 52.4937 68.8354C52.2674 69.0454 52.2412 69.3457 52.4207 69.5733C53.8603 72.0139 54.8513 74.0489 55.8992 76.2037C56.7047 77.8552 57.5368 79.5656 58.6074 81.5174C60.6114 85.1724 61.6682 86.9275 62.9411 89.0074C63.0459 89.1757 63.1988 89.2684 63.3742 89.265C63.5714 89.2618 63.7714 89.1368 63.8992 88.9376C64.032 88.7306 64.0561 88.4867 63.9662 88.2808C62.6664 85.3178 62.2848 84.6629 61.2675 82.9143C60.9322 82.3394 60.5266 81.6463 59.9977 80.7093C59.1292 79.171 58.4528 77.9241 57.7982 76.7176C56.6569 74.6107 55.5799 72.6225 53.6561 69.4277C65.0673 60.1705 76.8513 54.9269 89.3244 49.3781C92.8294 47.818 96.4541 46.2055 100.155 44.4677C109.622 40.0228 117.455 36.7352 124.812 34.1161C127.301 33.2315 135.11 30.4062 143.454 27.2984C144.581 30.1074 145.662 32.9011 146.853 36.0599L146.394 36.2267C144.897 36.7712 143.406 37.3152 141.883 37.8206C139.445 38.6287 136.789 39.0925 134.221 39.5414C131.359 40.0409 128.4 40.5567 125.726 41.5597C124.111 42.3296 123.303 43.6301 123.503 45.1256C123.809 47.3838 126.5 50.2369 131.688 51.1664C133.422 51.4757 135.331 51.6158 137.368 51.5786C141.462 51.5108 146.182 50.7479 151.784 49.2503C154.059 55.1417 156.343 60.5324 159.182 66.69C155.92 67.765 153.439 68.667 150.578 69.7101C148.962 70.2985 147.239 70.9262 145.206 71.6467C137.739 74.287 130.383 77.4974 123.271 80.6036L122.93 80.7557C105.45 88.3874 90.0434 96.6449 75.8396 105.989C75.4766 105.262 75.4263 105.188 74.8253 104.303L74.6643 104.065C73.8924 102.932 73.3381 102.114 72.2317 100.627L72.4428 100.422C75.8515 97.1247 79.0719 94.0085 81.4729 88.6677C82.8038 85.7051 84.6569 78.777 83.134 75.411C82.7222 74.5032 82.0941 73.915 81.2648 73.6583C80.9944 73.5752 80.7081 73.5628 80.5155 73.5659C80.2845 73.57 80.0613 73.6007 79.9303 73.6476C78.6769 74.0861 78.2095 74.6692 76.9588 76.2253C76.6077 76.6613 76.19 77.1777 75.6767 77.7938C73.5091 80.3891 68.4996 86.0084 63.4747 90.6028C58.038 95.5783 51.8021 101.445 46.6068 108.103C41.8611 114.189 37.9131 122.907 35.1342 129.12C35.1021 129.193 35.0633 129.278 35.029 129.353C34.8017 130.29 35.9725 130.808 36.4249 129.877C36.4308 129.867 36.4366 129.853 36.4411 129.844C39.8763 122.317 44.7829 112.569 51.5038 104.545C54.9056 100.484 59.0141 96.926 62.9892 93.4835C68.4945 88.7151 74.1856 83.7848 78.0932 77.4082C78.6423 76.676 79.324 75.7676 80.2308 75.7512C80.3669 75.7506 80.506 75.7675 80.5913 75.7767C82.0779 76.8625 82.3235 79.8682 81.2805 84.2401L81.2385 84.4188C80.391 88.1514 78.1883 91.3615 76.144 94.0087C73.2046 97.8162 71.9975 99.1759 69.6894 101.271C68.3379 102.317 67.7899 103.907 68.188 105.639C68.4949 106.969 69.7663 108.306 71.416 109.04C73.7056 110.301 76.555 110.884 80.1262 110.823C84.0298 110.754 88.3233 109.928 92.7455 109.017C102.335 107.038 114.049 102.452 124.949 96.3824C125.391 96.1643 125.823 95.9436 126.57 95.5286C127.283 95.1394 128.087 94.9135 128.836 94.9007C129.889 94.8817 130.733 95.2758 131.041 95.9237C131.393 96.6586 131.077 97.6696 130.155 98.7775C127.952 101.411 124.48 103.524 121.421 105.39C120.774 105.783 120.142 106.167 119.537 106.545C116.227 108.625 112.699 110.485 109.288 112.285C105.921 114.061 102.438 115.898 99.1621 117.946C98.9111 118.103 98.8021 118.41 98.8888 118.705C98.9731 118.989 99.2113 119.176 99.4803 119.17L99.6803 119.135C104.32 117.568 108.531 115.022 112.603 112.561C114.034 111.696 115.466 110.833 116.919 110.005L117.238 109.818L117.014 110.079C116.553 110.61 116.095 111.142 115.624 111.663C115.305 112.021 115.002 112.389 114.699 112.758C114.039 113.559 113.356 114.387 112.516 115.041C112.292 115.216 112.21 115.504 112.305 115.774C112.394 116.026 112.602 116.185 112.834 116.179C112.945 116.181 113.055 116.14 113.159 116.067C114.244 115.294 115.134 114.306 115.992 113.348L116.349 112.955C117.39 111.804 119.068 109.651 120.039 108.201C121.281 107.475 122.414 106.78 123.487 106.086C123.388 106.261 123.292 106.437 123.198 106.614C122.75 107.441 122.287 108.297 121.612 109.138C119.95 111.211 118.375 112.703 115.997 114.466C115.779 114.625 115.695 114.901 115.785 115.166C115.868 115.41 116.075 115.572 116.305 115.568C116.411 115.565 116.518 115.529 116.618 115.46C120.886 112.443 123.676 109.246 126.549 103.967C128.973 102.158 130.883 100.369 132.391 98.5037C132.897 97.8733 133.483 96.2188 133.279 94.954C133.177 94.3384 132.91 93.8887 132.481 93.6098C131.761 93.1523 130.93 92.9257 130.012 92.9413C129.03 92.9591 127.949 93.2386 126.647 93.8133C126.715 93.7185 126.779 93.6252 126.847 93.5318C127.361 92.8134 127.847 92.1383 128.137 91.2465C128.266 90.8501 128.316 90.4162 128.261 90.0742C128.426 89.9103 128.779 89.7942 129.124 89.7893C129.365 89.7819 129.565 89.8352 129.675 89.927C129.939 90.1485 130.026 90.698 130.102 91.186C130.138 91.4167 130.171 91.633 130.222 91.7981C130.3 92.0671 130.549 92.2444 130.835 92.2397C131.115 92.2342 131.341 92.0585 131.409 91.7901C131.695 90.6516 131.538 89.1908 130.231 88.5016C129.986 88.371 129.662 88.3081 129.294 88.3114C128.825 88.3204 128.342 88.4459 127.965 88.6521C127.638 87.9257 127.097 87.3555 126.43 87.033C126.186 86.9131 125.912 86.8547 125.617 86.859C124.321 86.8831 122.887 88.1061 121.937 88.9184L121.61 89.1893C119.145 91.2385 117.008 93.6918 115.592 96.1058C115.472 96.31 115.465 96.5341 115.571 96.7158C115.687 96.9126 115.916 97.0378 116.157 97.0336C116.364 97.0299 116.549 96.9333 116.679 96.7582C118.468 94.3528 120.768 92.1889 122.784 90.3944C123.397 89.8443 124.072 89.3722 125.039 88.8176C125.332 88.648 125.584 88.5608 125.793 88.5566C126.026 88.5535 126.201 88.6524 126.327 88.8658C126.782 89.6194 126.474 91.379 126.21 91.8654L125.994 92.2577C125.718 92.7715 125.421 93.319 125.081 93.8317C124.73 94.3561 124.337 94.8995 124.223 95.0582L123.535 95.4527C120.908 96.469 117.937 97.7387 114.79 99.0823C110.245 101.019 105.096 103.218 100.063 105.049C98.5877 105.24 97.2833 105.343 96.0747 105.365C93.5848 105.408 91.3558 105.114 89.0605 104.44C88.2939 104.213 87.8535 104.077 87.4515 103.95C86.8809 103.769 86.3865 103.612 85.1566 103.272C85.0879 103.252 85.0216 103.244 84.9549 103.244C84.6591 103.249 84.4731 103.459 84.4412 103.662C84.4067 103.889 84.5386 104.087 84.7789 104.168L85.9446 104.564C89.6259 105.823 91.9374 106.611 95.3644 106.652C89.5518 108.491 84.7711 109.423 80.7749 109.492C76.6237 109.566 73.2781 108.672 70.8441 106.846C70.2456 106.334 69.8582 105.819 69.6292 105.229C69.2538 104.265 69.6655 103.346 69.9203 102.914C70.3994 102.423 70.8773 101.946 71.3516 101.482C71.7867 102.233 72.1199 102.788 72.4369 103.261C72.7256 103.692 72.9789 104.133 73.2359 104.585L73.492 105.034C73.9855 105.882 74.5082 106.73 74.9493 107.118C75.038 107.347 75.242 107.494 75.4711 107.489C75.5286 107.489 75.5859 107.48 75.762 107.416C92.7636 97.423 107.212 89.8149 121.238 83.4701C123.844 82.2874 126.656 81.082 130.25 79.5592C133.062 80.4109 136.101 81.1918 139.269 81.1379C139.792 81.1273 140.315 81.0949 140.844 81.0388C142.469 80.8637 143.097 80.1194 143.336 79.5255C143.738 78.5407 143.373 77.2263 142.363 76.0142C142.248 75.8757 142.09 75.8035 141.915 75.805C141.714 75.8096 141.508 75.9199 141.383 76.0931C141.264 76.2551 141.225 76.45 141.279 76.6341C141.519 77.4481 141.485 78.0735 141.18 78.4872C140.807 78.9929 140.036 79.2378 138.742 79.2596C138.264 79.2688 137.773 79.2466 137.312 79.2264C137.035 79.2139 136.768 79.2026 136.524 79.197C135.27 79.1758 134.048 78.8953 132.865 78.6246L132.703 78.5862C137.023 76.8306 141.368 75.1316 145.727 73.4246C147.596 72.6939 149.162 72.0977 150.643 71.5339C153.659 70.3864 156.264 69.3935 160.407 67.651L160.558 67.546C160.602 67.5076 160.637 67.4678 160.728 67.2936C160.782 67.1527 160.788 67.011 160.736 66.8787C158.377 60.5457 156.984 57.0184 153.462 48.7936C155.563 48.1982 157.751 47.5198 160.466 46.6127L161.816 46.7463C163.853 46.954 165.96 47.1697 168.051 47.1337C170.839 47.086 173.053 46.5768 174.821 45.576C175.077 45.4286 175.192 45.1518 175.114 44.8642C175.034 44.5698 174.777 44.369 174.49 44.3723Z" fill="#356799"/>
<path d="M178.412 30.665C183.446 32.6375 188.566 34.641 193.76 36.1834C195.039 36.4655 195.551 34.4943 194.21 33.9981C189.608 32.5141 185.085 30.8108 180.636 29.1284C168.473 24.531 155.898 19.7771 142.532 20.0081C141.997 20.0184 141.46 20.0352 140.91 20.0614C136.942 20.5657 131.555 22.7803 126.127 26.1371L125.11 26.7664C122.591 28.3199 121.204 29.1747 118.52 31.1977C117.958 31.6213 116.608 32.716 116.02 33.3315C115.838 33.5466 115.79 33.8032 115.891 34.0224C115.984 34.2241 116.193 34.3454 116.429 34.3394C116.578 34.3377 116.727 34.2906 116.883 34.1916C119.294 32.4694 121.875 30.7088 125.005 28.6492C130.466 25.0549 135.132 22.2254 141.235 21.2114C153.41 21.4159 163.33 24.858 174.118 28.9938C175.535 29.5382 176.969 30.1001 178.412 30.665Z" fill="#356799"/>
<path d="M188.88 65.8869C189.333 66.0229 189.788 66.1599 190.244 66.2963C191.405 66.5807 191.92 64.833 190.384 64.4103C189.772 64.2428 189.204 64.0891 188.731 63.9631C187.586 63.6623 186.456 63.3146 185.32 62.9688C182.771 62.1901 180.135 61.386 177.443 61.1219C178.063 60.5449 178.597 60.0082 179.076 59.4846C179.255 59.2862 179.296 59.0024 179.179 58.744C179.066 58.4967 178.838 58.3368 178.595 58.3419C178.478 58.3437 178.361 58.3825 178.254 58.4569C177.124 59.2338 176.008 60.029 174.892 60.8229C169.834 64.4232 164.605 68.1462 158.435 69.9379C158.109 70.0351 157.997 70.3235 158.032 70.5652C158.073 70.8221 158.282 71.0767 158.604 71.0707L158.746 71.051C164.816 69.5652 171.03 66.46 175.678 62.5723C179.443 63.057 184.025 64.4332 188.88 65.8869Z" fill="#356799"/>
<path d="M118.122 48.7605C117.363 48.9706 116.441 49.2261 115.385 49.5188C114.342 49.8428 113.178 50.2548 111.905 50.7018C110.64 51.1658 109.243 51.6059 107.82 52.2084C106.388 52.7771 104.895 53.4299 103.34 54.0751C101.788 54.7299 100.222 55.4905 98.6226 56.2408C97.0224 56.993 95.3991 57.7593 93.8105 58.5989C92.2115 59.4126 90.6129 60.2277 89.0377 61.0301C87.4885 61.8761 85.9619 62.7112 84.4864 63.5194C83.008 64.3192 81.5831 65.1037 80.2649 65.9054C78.9387 66.6929 77.6842 67.4369 76.5253 68.1215C74.2089 69.4902 72.3567 70.7541 71.0239 71.581C69.7016 72.4245 68.9455 72.9077 68.9455 72.9077C68.9281 72.9199 68.9218 72.9422 68.9332 72.9615C68.944 72.9795 68.9691 72.9847 68.987 72.9739C68.987 72.9739 69.7535 72.5072 71.0937 71.6932C72.4444 70.8957 74.3263 69.6727 76.6687 68.3569C79.0244 67.0613 81.7111 65.4467 84.7035 63.9183C86.19 63.1374 87.7266 62.3313 89.2877 61.5106C90.871 60.7364 92.4797 59.9503 94.0892 59.1624C95.6894 58.3607 97.3232 57.6294 98.9332 56.9142C100.551 56.2118 102.104 55.4403 103.652 54.7929C105.196 54.1376 106.702 53.5328 108.105 52.9093C109.504 52.2655 110.876 51.7891 112.123 51.2877C113.377 50.8118 114.506 50.3159 115.532 49.9468C116.564 49.5882 117.46 49.2779 118.2 49.0217C119.676 48.4969 120.524 48.1973 120.524 48.1973C120.544 48.1888 120.559 48.1682 120.551 48.1475C120.544 48.1267 120.525 48.1149 120.503 48.1193C120.503 48.1193 119.636 48.3529 118.122 48.7605Z" fill="#356799"/>
<path d="M123.417 56.5923C124.253 56.3013 124.984 56.0484 125.585 55.8387C126.785 55.4097 127.471 55.1629 127.471 55.1629C127.489 55.1567 127.503 55.1348 127.497 55.1168C127.492 55.0937 127.469 55.0829 127.449 55.0882C127.449 55.0882 126.743 55.2676 125.508 55.579C124.274 55.9052 122.49 56.3168 120.426 57.034C119.386 57.3835 118.263 57.7626 117.077 58.1623C115.889 58.569 114.68 59.1037 113.404 59.598C112.137 60.106 110.816 60.6175 109.518 61.231C108.211 61.8229 106.882 62.4224 105.554 63.0228C102.933 64.2987 100.281 65.5079 97.8668 66.7866C95.4251 68.0127 93.1838 69.2269 91.2789 70.2983C89.3536 71.3334 87.8048 72.2878 86.7028 72.9264C85.605 73.5728 84.9777 73.9402 84.9777 73.9402C84.9584 73.9515 84.9527 73.9752 84.964 73.9945C84.9735 74.0129 84.999 74.0196 85.0169 74.0087C85.0169 74.0087 85.6546 73.6579 86.7694 73.0427C87.8861 72.4331 89.4637 71.5215 91.4122 70.5403C93.3419 69.5223 95.6117 68.3773 98.0705 67.1963C100.504 65.9697 103.177 64.8154 105.813 63.5976C108.498 62.4793 111.159 61.3122 113.696 60.3257C116.221 59.3013 118.586 58.382 120.628 57.6257C121.647 57.239 122.571 56.8571 123.417 56.5923Z" fill="#356799"/>
<path d="M111.362 70.7876C110.507 71.1952 109.605 71.6282 108.673 72.0764C106.817 72.9945 104.862 74.0151 102.939 75.0941C99.0671 77.1997 95.199 79.3085 92.3207 80.929C89.4339 82.5386 87.5085 83.6093 87.5085 83.6093C87.4906 83.6202 87.4835 83.6443 87.493 83.6627C87.5024 83.6812 87.5271 83.6897 87.545 83.6788L103.231 75.6533C105.185 74.6359 107.177 73.702 109.035 72.8126C110.89 71.9209 112.561 70.9508 114.078 70.3125C117.067 68.931 119.031 67.9089 119.031 67.9089C119.05 67.9008 119.061 67.8798 119.054 67.8605C119.047 67.8383 119.025 67.8289 119.002 67.8365C119.005 67.8356 116.916 68.5387 113.826 69.7413C113.052 70.0419 112.215 70.3718 111.362 70.7876Z" fill="#356799"/>
<path d="M135.471 68.6989C136.82 68.1996 138.236 67.6319 139.704 67.1595C142.625 66.2089 145.521 65.1956 147.673 64.3658C149.824 63.5374 151.231 62.8893 151.231 62.8893C151.246 62.8826 151.258 62.863 151.254 62.8441C151.25 62.8224 151.23 62.8092 151.208 62.8136C151.208 62.8136 149.696 63.1388 147.476 63.7708C146.37 64.1057 145.064 64.4521 143.706 64.9469C142.358 65.4647 140.921 66.0164 139.484 66.5681C138.04 67.0957 136.624 67.7268 135.291 68.2796C133.966 68.862 132.694 69.3238 131.682 69.8771C129.625 70.9192 128.253 71.6155 128.253 71.6155C128.235 71.6231 128.225 71.6469 128.235 71.6667C128.244 71.6851 128.269 71.6936 128.289 71.6836C128.289 71.6836 129.692 71.0601 131.804 70.1248C132.845 69.6235 134.137 69.2318 135.471 68.6989Z" fill="#356799"/>
<path d="M152.429 48.1506L156.286 57.3596C159.613 55.3714 163.668 51.1238 163.668 51.1238C169.931 49.8806 174.516 47.1303 175.13 45.0898C170.674 45.8094 162.26 46.0864 160.305 45.7593C156.706 46.001 152.429 48.1506 152.429 48.1506Z" fill="#356799"/>
<path d="M156.596 32.4707C153 32.3879 149.315 33.0241 149.315 33.0241C148.332 30.1852 146.687 26.4029 146.687 26.4029L144.052 27.4216L147.797 36.699L156.596 32.4707Z" fill="#356799"/>
<path d="M89.2883 104.539C86.8074 105.204 82.5337 110.057 82.5337 110.057C78.2702 111.726 69.5971 108.739 68.8057 105.334C68.0143 101.928 71.3516 101.482 71.3516 101.482C73.0143 103.269 76.0264 106.385 76.0264 106.385C79.1212 105.103 83.4504 102.259 83.4504 102.259C85.4324 103.509 89.2883 104.539 89.2883 104.539Z" fill="#356799"/>
<path d="M158.105 54.2598C159.542 58.4102 163.053 66.8773 163.053 66.8773C160.173 68.139 153.083 70.5218 153.083 70.5218C158.663 67.6221 160.736 66.8787 160.736 66.8787L155.99 56.541L158.105 54.2598Z" fill="#356799"/>
<path d="M74.1192 125.192C74.1192 125.192 67.2483 124.533 65.3664 123.975C65.5447 126.003 71.4586 130.498 71.4586 130.498C72.0282 128.658 74.1192 125.192 74.1192 125.192Z" fill="#356799"/>
<path d="M82.7096 76.6928C84.5481 74.4911 88.5767 79.1031 82.7596 89.1513C78.5932 96.351 69.9625 102.435 69.9625 102.435C74.0746 97.964 79.6403 92.6628 81.304 87.4095C82.967 82.1541 83.0483 80.8188 82.7096 76.6928Z" fill="#356799"/>
<path d="M124.224 44.7544C120.731 44.8759 122.763 51.922 130.169 52.8936C137.137 53.8083 149.439 50.4379 154.081 47.7453C141.563 50.8541 126.516 53.3415 124.224 44.7544Z" fill="#356799"/>
<path d="M63.7743 89.0902C63.6578 89.1998 63.5153 89.2644 63.3742 89.2667C63.1987 89.2701 63.0458 89.1774 62.9411 89.0091C61.6681 86.9292 60.6114 85.1741 58.6074 81.5191C57.5555 79.6015 56.7338 77.9167 55.9414 76.292L55.8991 76.2054C54.8512 74.0507 53.8603 72.0156 52.4207 69.575C52.2412 69.3475 52.2674 69.0471 52.4937 68.8371C63.9934 58.2201 77.0209 52.5182 90.8172 46.482C93.5794 45.2735 96.3738 44.0507 99.1941 42.7724C107.506 39.0001 115.661 35.3565 124.035 32.2243C132.801 28.9468 138.075 27.2159 143.496 25.8385L143.687 25.8127C143.939 25.8074 144.149 25.9333 144.263 26.157C144.427 26.4958 144.586 26.829 144.741 27.157L146.687 26.4046C146.687 26.4046 148.332 30.1869 149.315 33.0258C149.315 33.0258 149.554 32.9844 149.971 32.9242C149.981 32.9503 149.99 32.9762 150 33.0019L147 36.0019L146.826 35.9885C145.646 32.8597 144.572 30.0874 143.454 27.3001C135.11 30.4079 127.301 33.2332 124.812 34.1178C117.455 36.7369 109.622 40.0246 100.155 44.4694C96.4946 46.1882 92.9087 47.7844 89.4395 49.3286L89.3244 49.3798C76.8512 54.9286 65.0672 60.1722 53.6561 69.4294C55.5796 72.6238 56.6566 74.6119 57.7977 76.7185L57.81 76.7412C58.4608 77.9407 59.1345 79.1822 59.9977 80.711C60.4905 81.5842 60.8763 82.2455 61.198 82.7968L61.2675 82.916L61.2716 82.9231C62.2858 84.6664 62.6682 85.3235 63.9662 88.2825C64.0353 88.441 64.037 88.622 63.9735 88.7914L63.7743 89.0902Z" fill="#FFC000"/>
<path d="M84.3761 102.77C84.1023 102.921 83.9707 103.002 84 103.002C84.4 103.002 77.8333 107.002 74.5 109.002C70.6814 107.039 70.05 105.662 70 103.002L72.5 101.002H72.508C73.4059 102.219 73.925 102.982 74.5961 103.967L74.8253 104.304L74.8281 104.308C75.4264 105.19 75.4772 105.265 75.8396 105.99C90.0434 96.6466 105.45 88.3891 122.93 80.7574L123.271 80.6053C130.383 77.4991 137.739 74.2888 145.206 71.6484C147.239 70.9279 148.962 70.3002 150.578 69.7118C153.439 68.6688 155.92 67.7667 159.182 66.6917C156.343 60.5342 154.059 55.1434 151.784 49.252C151.119 49.4298 150.467 49.5972 149.826 49.7544L152 49.0019H155.5L159.434 57.8528C161.036 62.0148 163.053 66.879 163.053 66.879C161.06 67.7521 157.051 69.162 154.771 69.9477C153.354 70.5039 152.043 71.0031 150.643 71.5357C149.162 72.0994 147.596 72.6956 145.727 73.4264L145.261 73.6089L145.259 73.6094C141.058 75.2548 136.868 76.8952 132.703 78.5879L132.766 78.6028C132.059 78.9087 131.102 79.3366 130.507 79.6384C130.421 79.6126 130.335 79.5868 130.25 79.561C126.656 81.0837 123.844 82.2891 121.237 83.4718C109.551 88.7586 97.5707 94.9224 84.0646 102.612C84.166 102.665 84.27 102.718 84.3761 102.77Z" fill="#FFC000"/>
<path d="M115.643 49.4492C116.592 49.1862 117.425 48.9551 118.122 48.7623L120.503 48.1211C120.525 48.1166 120.544 48.1285 120.551 48.1492C120.559 48.17 120.544 48.1905 120.524 48.1991C120.524 48.1991 119.676 48.4986 118.2 49.0234C117.46 49.2796 116.563 49.5899 115.532 49.9485C114.972 50.15 114.381 50.3893 113.756 50.6425L113.755 50.6429C113.235 50.8534 112.692 51.0735 112.123 51.2895C111.728 51.4483 111.32 51.6047 110.903 51.7647C110.004 52.1096 109.061 52.4712 108.105 52.9111C107.207 53.3102 106.266 53.7016 105.301 54.1036L105.3 54.104C104.758 54.3298 104.207 54.559 103.652 54.7946C102.797 55.152 101.941 55.5473 101.073 55.9478L101.072 55.9484C100.369 56.2731 99.657 56.6016 98.9331 56.9159C97.3232 57.6311 95.6894 58.3624 94.0892 59.1641C92.91 59.7414 91.7312 60.3176 90.5625 60.889L89.2876 61.5123C88.3679 61.9958 87.4566 62.4743 86.5591 62.9456L86.4976 62.9778C85.8927 63.2954 85.2941 63.6097 84.7034 63.92C82.7126 64.9369 80.857 65.9919 79.1442 66.9658C78.2826 67.4557 77.4571 67.925 76.6687 68.3586C75.1252 69.2257 73.7816 70.0524 72.6582 70.7437C72.0768 71.1015 71.5543 71.4229 71.0937 71.6949C69.7534 72.5089 68.987 72.9756 68.987 72.9756C68.9691 72.9864 68.944 72.9812 68.9331 72.9632C68.9218 72.9439 68.928 72.9216 68.9455 72.9094C68.9455 72.9094 69.7016 72.4262 71.0239 71.5827C71.479 71.3004 71.9946 70.9671 72.5686 70.5961C73.6756 69.8805 74.9999 69.0246 76.5253 68.1232C77.6841 67.4386 78.9386 66.6946 80.2649 65.9071C81.5831 65.1054 83.0079 64.321 84.4864 63.5211C85.9619 62.713 87.4885 61.8778 89.0377 61.0318L90.6867 60.1916C91.7235 59.6633 92.7669 59.1317 93.8105 58.6006C95.3991 57.7611 97.0224 56.9947 98.6226 56.2426C98.9542 56.087 99.2844 55.931 99.6133 55.7756C100.871 55.1814 102.11 54.5959 103.34 54.0768C103.91 53.8403 104.472 53.6028 105.025 53.3688L105.027 53.3682L105.028 53.3678L105.029 53.367C105.984 52.9633 106.914 52.5697 107.82 52.2101C108.796 51.7968 109.76 51.46 110.678 51.1393C111.097 50.9926 111.508 50.8492 111.905 50.7035L112.185 50.605C113.349 50.1962 114.419 49.8205 115.385 49.5205L115.643 49.4492Z" fill="#FFC000"/>
<path d="M123.417 56.5941C123.802 56.46 124.165 56.3341 124.503 56.2168C124.899 56.0793 125.261 55.9536 125.585 55.8405C126.785 55.4114 127.471 55.1647 127.471 55.1647C127.489 55.1584 127.503 55.1365 127.496 55.1185C127.492 55.0954 127.469 55.0846 127.449 55.0899C127.449 55.0899 126.743 55.2693 125.508 55.5807C125.271 55.6432 125.015 55.7089 124.739 55.7793C123.58 56.076 122.094 56.4561 120.426 57.0358C119.699 57.2801 118.931 57.5389 118.13 57.8091L117.077 58.164C116.318 58.4239 115.55 58.7361 114.761 59.0566C114.316 59.2376 113.864 59.4213 113.404 59.5997C113.224 59.6716 113.044 59.7436 112.863 59.8159L112.862 59.8164C111.763 60.2549 110.632 60.7063 109.518 61.2327C108.769 61.5718 108.013 61.9134 107.254 62.2563L107.207 62.2773C106.657 62.5259 106.105 62.7751 105.554 63.0245C104.746 63.4177 103.936 63.8045 103.13 64.189C101.321 65.0522 99.5369 65.9037 97.8667 66.7883C95.4251 68.0145 93.1838 69.2286 91.2789 70.3001C89.8644 71.0605 88.6532 71.7773 87.673 72.3574C87.3191 72.5669 86.9951 72.7587 86.7027 72.9281C85.605 73.5745 84.9777 73.9419 84.9777 73.9419C84.9584 73.9532 84.9526 73.9769 84.964 73.9962C84.9734 74.0146 84.999 74.0213 85.0169 74.0104C85.0169 74.0104 85.6546 73.6596 86.7693 73.0445C87.0488 72.8919 87.357 72.7205 87.6927 72.5338L87.695 72.5325C88.7006 71.9733 89.9523 71.2772 91.4122 70.5421C93.3418 69.5241 95.6117 68.379 98.0705 67.198C99.7581 66.3475 101.56 65.5317 103.386 64.7054C104.193 64.3401 105.005 63.9727 105.813 63.5994C106.659 63.247 107.503 62.8898 108.341 62.5349L108.346 62.533L108.347 62.5326C110.166 61.762 111.96 61.0024 113.696 60.3274C116.221 59.303 118.586 58.3838 120.628 57.6275C120.901 57.5239 121.167 57.4207 121.426 57.32L121.43 57.3188C122.138 57.0439 122.799 56.7876 123.417 56.5941Z" fill="#FFC000"/>
<path d="M108.673 72.0781C109.605 71.6299 110.507 71.1969 111.362 70.7894C112.215 70.3736 113.052 70.0436 113.826 69.743C116.916 68.5404 119.005 67.8373 119.002 67.8383C119.025 67.8306 119.046 67.8401 119.054 67.8622C119.061 67.8816 119.05 67.9025 119.031 67.9106C119.031 67.9106 117.067 68.9327 114.078 70.3143C113.181 70.6916 112.23 71.1848 111.22 71.7093C110.521 72.0721 109.793 72.4497 109.034 72.8143C108.74 72.9553 108.442 73.0974 108.141 73.2408C106.546 74.0019 104.875 74.7991 103.231 75.655L87.545 83.6805C87.527 83.6914 87.5024 83.6829 87.4929 83.6645C87.4835 83.6461 87.4906 83.6219 87.5085 83.611C87.5085 83.611 89.4338 82.5403 92.3206 80.9308C95.199 79.3102 99.0671 77.2014 102.939 75.0958C104.862 74.0168 106.817 72.9962 108.673 72.0781Z" fill="#FFC000"/>
<path d="M136.582 68.283L136.583 68.2826C137.592 67.9004 138.634 67.5056 139.704 67.1613C142.625 66.2106 145.521 65.1973 147.673 64.3675C149.824 63.5391 151.231 62.891 151.231 62.891C151.246 62.8843 151.258 62.8648 151.254 62.8458C151.25 62.8241 151.23 62.8109 151.208 62.8153C151.208 62.8153 149.696 63.1405 147.476 63.7725C147.189 63.8593 146.889 63.9469 146.578 64.0376C145.689 64.2969 144.712 64.5821 143.706 64.9486C142.358 65.4664 140.921 66.0181 139.484 66.5698C138.433 66.9537 137.397 67.3924 136.397 67.8158C136.023 67.9743 135.654 68.1307 135.29 68.2813C134.852 68.4742 134.419 68.6539 133.999 68.828C133.152 69.1796 132.359 69.5087 131.682 69.8788C129.625 70.9209 128.253 71.6172 128.253 71.6172C128.235 71.6249 128.225 71.6486 128.235 71.6684C128.244 71.6868 128.269 71.6953 128.289 71.6854C128.289 71.6854 129.692 71.0618 131.804 70.1265C132.443 69.8187 133.177 69.5522 133.957 69.269C134.448 69.0909 134.956 68.9063 135.471 68.7006C135.835 68.566 136.203 68.4264 136.576 68.285L136.582 68.283Z" fill="#FFC000"/>
<path d="M112.703 117.759L112.535 117.786C98.8081 122.122 88.5653 124.124 79.3273 124.285C75.1345 124.359 71.0837 124.065 66.1908 123.334C66.1152 123.321 66.0462 123.319 65.9823 123.318C65.5573 123.325 65.3821 123.593 65.3604 123.84C65.327 124.195 65.5772 124.654 65.9582 124.73C68.1481 125.175 70.5528 125.499 73.1116 125.69C70.4199 130.625 68.1867 135.044 66.3473 139.492C66.1256 140.996 67.3701 140.952 67.7805 140.083C67.8838 139.809 67.9672 139.526 68.0738 139.252C69.829 134.812 71.3219 131.485 72.9181 128.479C73.1542 128.033 74.0729 126.587 74.5336 125.783C76.2158 125.876 77.9519 125.906 79.6965 125.875L79.6979 125.875C90.2708 125.69 101.476 123.358 113.001 118.937C113.253 118.84 113.38 118.594 113.326 118.313C113.273 118.04 113.036 117.754 112.703 117.759Z" fill="#356799"/>
<path d="M119.197 116.066C118.94 116.072 118.711 115.894 118.625 115.625C118.539 115.352 118.634 115.081 118.874 114.917C119.668 114.382 120.464 113.854 121.259 113.331C123.392 111.924 125.595 110.47 127.654 108.845C128.135 108.463 128.632 108.105 129.125 107.746C129.902 107.187 130.704 106.603 131.445 105.936C131.846 105.574 132.016 105.146 131.89 104.823C131.776 104.54 131.45 104.375 131.017 104.383C130.84 104.385 130.648 104.416 130.443 104.473C129.407 104.774 128.491 105.234 127.734 105.643C127.64 105.694 127.544 105.723 127.44 105.721C127.172 105.726 126.914 105.553 126.809 105.295C126.712 105.058 126.771 104.808 126.962 104.627C127.849 103.786 129.472 102.795 131.128 102.766C131.655 102.755 132.143 102.847 132.581 103.037C133.214 103.309 133.961 103.953 134.097 104.713C134.181 105.175 134.021 105.614 133.638 105.985C129.652 109.819 124.873 112.716 120.252 115.52L119.508 115.97C119.408 116.032 119.303 116.062 119.197 116.066Z" fill="#356799"/>
<path d="M174.49 44.3723L174.326 44.3964C172.923 44.7861 171.403 44.9836 169.541 45.0161C168.288 45.0378 167.006 44.9826 165.762 44.9297C164.509 44.877 163.211 44.8229 161.935 44.843C161.572 44.8509 161.212 44.8624 160.85 44.8823C160.57 44.8957 160.281 44.9166 159.986 44.9445L159.794 44.9583L159.465 45.0056C157.353 45.2687 154.863 45.8718 152.455 46.4559C150.958 46.8189 149.468 47.1814 148.079 47.4607C147.001 47.6759 146.012 47.9081 145.058 48.1315C142.941 48.6225 140.936 49.0904 138.458 49.2803C137.959 49.312 137.51 49.3495 137.081 49.3883C136.365 49.4502 135.702 49.5059 134.935 49.5189C134.6 49.525 134.241 49.5236 133.848 49.5077C129.484 49.3994 126.129 47.2081 125.521 45.2404C125.215 44.2388 125.592 43.321 126.534 42.6139C138.04 41.9626 147.915 37.8862 156.87 33.5829C157.106 33.4673 157.217 33.2197 157.15 32.9515C157.094 32.709 156.883 32.4674 156.596 32.4707L156.44 32.4971L154.873 33.0859C152.671 33.9163 150.477 34.7405 148.274 35.551C147.242 32.833 146.035 29.8162 144.263 26.1553C144.149 25.9316 143.939 25.8057 143.687 25.8109L143.496 25.8367C138.075 27.2142 132.801 28.9451 124.035 32.2226C115.661 35.3548 107.506 38.9984 99.1941 42.7707C96.3739 44.0489 93.5794 45.2718 90.8172 46.4803C77.0209 52.5165 63.9935 58.2184 52.4937 68.8354C52.2674 69.0454 52.2412 69.3457 52.4207 69.5733C53.8603 72.0139 54.8513 74.0489 55.8992 76.2037C56.7047 77.8552 57.5368 79.5656 58.6074 81.5174C60.6114 85.1724 61.6682 86.9275 62.9411 89.0074C63.0459 89.1757 63.1988 89.2684 63.3742 89.265C63.5714 89.2618 63.7714 89.1368 63.8992 88.9376C64.032 88.7306 64.0561 88.4867 63.9662 88.2808C62.6664 85.3178 62.2848 84.6629 61.2675 82.9143C60.9322 82.3394 60.5266 81.6463 59.9977 80.7093C59.1292 79.171 58.4528 77.9241 57.7982 76.7176C56.6569 74.6107 55.5799 72.6225 53.6561 69.4277C65.0673 60.1705 76.8513 54.9269 89.3244 49.3781C92.8294 47.818 96.4541 46.2055 100.155 44.4677C109.622 40.0228 117.455 36.7352 124.812 34.1161C127.301 33.2315 135.11 30.4062 143.454 27.2984C144.581 30.1074 145.662 32.9011 146.853 36.0599L146.394 36.2267C144.897 36.7712 143.406 37.3152 141.883 37.8206C139.445 38.6287 136.789 39.0925 134.221 39.5414C131.359 40.0409 128.4 40.5567 125.726 41.5597C124.111 42.3296 123.303 43.6301 123.503 45.1256C123.809 47.3838 126.5 50.2369 131.688 51.1664C133.422 51.4757 135.331 51.6158 137.368 51.5786C141.462 51.5108 146.182 50.7479 151.784 49.2503C154.059 55.1417 156.343 60.5324 159.182 66.69C155.92 67.765 153.439 68.667 150.578 69.7101C148.962 70.2985 147.239 70.9262 145.206 71.6467C137.739 74.287 130.383 77.4974 123.271 80.6036L122.93 80.7557C105.45 88.3874 90.0434 96.6449 75.8396 105.989C75.4766 105.262 75.4263 105.188 74.8253 104.303L74.6643 104.065C73.8924 102.932 73.3381 102.114 72.2317 100.627L72.4428 100.422C75.8515 97.1247 79.0719 94.0085 81.4729 88.6677C82.8038 85.7051 84.6569 78.777 83.134 75.411C82.7222 74.5032 82.0941 73.915 81.2648 73.6583C80.9944 73.5752 80.7081 73.5628 80.5155 73.5659C80.2845 73.57 80.0613 73.6007 79.9303 73.6476C78.6769 74.0861 78.2095 74.6692 76.9588 76.2253C76.6077 76.6613 76.19 77.1777 75.6767 77.7938C73.5091 80.3891 68.4996 86.0084 63.4747 90.6028C58.038 95.5783 51.8021 101.445 46.6068 108.103C41.8611 114.189 37.9131 122.907 35.1342 129.12C35.1021 129.193 35.0633 129.278 35.029 129.353C34.8017 130.29 35.9725 130.808 36.4249 129.877C36.4308 129.867 36.4366 129.853 36.4411 129.844C39.8763 122.317 44.7829 112.569 51.5038 104.545C54.9056 100.484 59.0141 96.926 62.9892 93.4835C68.4945 88.7151 74.1856 83.7848 78.0932 77.4082C78.6423 76.676 79.324 75.7676 80.2308 75.7512C80.3669 75.7506 80.506 75.7675 80.5913 75.7767C82.0779 76.8625 82.3235 79.8682 81.2805 84.2401L81.2385 84.4188C80.391 88.1514 78.1883 91.3615 76.144 94.0087C73.2046 97.8162 71.9975 99.1759 69.6894 101.271C68.3379 102.317 67.7899 103.907 68.188 105.639C68.4949 106.969 69.7663 108.306 71.416 109.04C73.7056 110.301 76.555 110.884 80.1262 110.823C84.0298 110.754 88.3233 109.928 92.7455 109.017C102.335 107.038 114.049 102.452 124.949 96.3824C125.391 96.1643 125.823 95.9436 126.57 95.5286C127.283 95.1394 128.087 94.9135 128.836 94.9007C129.889 94.8817 130.733 95.2758 131.041 95.9237C131.393 96.6586 131.077 97.6696 130.155 98.7775C127.952 101.411 124.48 103.524 121.421 105.39C120.774 105.783 120.142 106.167 119.537 106.545C116.227 108.625 112.699 110.485 109.288 112.285C105.921 114.061 102.438 115.898 99.1621 117.946C98.9111 118.103 98.8021 118.41 98.8888 118.705C98.9731 118.989 99.2113 119.176 99.4803 119.17L99.6803 119.135C104.32 117.568 108.531 115.022 112.603 112.561C114.034 111.696 115.466 110.833 116.919 110.005L117.238 109.818L117.014 110.079C116.553 110.61 116.095 111.142 115.624 111.663C115.305 112.021 115.002 112.389 114.699 112.758C114.039 113.559 113.356 114.387 112.516 115.041C112.292 115.216 112.21 115.504 112.305 115.774C112.394 116.026 112.602 116.185 112.834 116.179C112.945 116.181 113.055 116.14 113.159 116.067C114.244 115.294 115.134 114.306 115.992 113.348L116.349 112.955C117.39 111.804 119.068 109.651 120.039 108.201C121.281 107.475 122.414 106.78 123.487 106.086C123.388 106.261 123.292 106.437 123.198 106.614C122.75 107.441 122.287 108.297 121.612 109.138C119.95 111.211 118.375 112.703 115.997 114.466C115.779 114.625 115.695 114.901 115.785 115.166C115.868 115.41 116.075 115.572 116.305 115.568C116.411 115.565 116.518 115.529 116.618 115.46C120.886 112.443 123.676 109.246 126.549 103.967C128.973 102.158 130.883 100.369 132.391 98.5037C132.897 97.8733 133.483 96.2188 133.279 94.954C133.177 94.3384 132.91 93.8887 132.481 93.6098C131.761 93.1523 130.93 92.9257 130.012 92.9413C129.03 92.9591 127.949 93.2386 126.647 93.8133C126.715 93.7185 126.779 93.6252 126.847 93.5318C127.361 92.8134 127.847 92.1383 128.137 91.2465C128.266 90.8501 128.316 90.4162 128.261 90.0742C128.426 89.9103 128.779 89.7942 129.124 89.7893C129.365 89.7819 129.565 89.8352 129.675 89.927C129.939 90.1485 130.026 90.698 130.102 91.186C130.138 91.4167 130.171 91.633 130.222 91.7981C130.3 92.0671 130.549 92.2444 130.835 92.2397C131.115 92.2342 131.341 92.0585 131.409 91.7901C131.695 90.6516 131.538 89.1908 130.231 88.5016C129.986 88.371 129.662 88.3081 129.294 88.3114C128.825 88.3204 128.342 88.4459 127.965 88.6521C127.638 87.9257 127.097 87.3555 126.43 87.033C126.186 86.9131 125.912 86.8547 125.617 86.859C124.321 86.8831 122.887 88.1061 121.937 88.9184L121.61 89.1893C119.145 91.2385 117.008 93.6918 115.592 96.1058C115.472 96.31 115.465 96.5341 115.571 96.7158C115.687 96.9126 115.916 97.0378 116.157 97.0336C116.364 97.0299 116.549 96.9333 116.679 96.7582C118.468 94.3528 120.768 92.1889 122.784 90.3944C123.397 89.8443 124.072 89.3722 125.039 88.8176C125.332 88.648 125.584 88.5608 125.793 88.5566C126.026 88.5535 126.201 88.6524 126.327 88.8658C126.782 89.6194 126.474 91.379 126.21 91.8654L125.994 92.2577C125.718 92.7715 125.421 93.319 125.081 93.8317C124.73 94.3561 124.337 94.8995 124.223 95.0582L123.535 95.4527C120.908 96.469 117.937 97.7387 114.79 99.0823C110.245 101.019 105.096 103.218 100.063 105.049C98.5877 105.24 97.2833 105.343 96.0747 105.365C93.5848 105.408 91.3558 105.114 89.0605 104.44C88.2939 104.213 87.8535 104.077 87.4515 103.95C86.8809 103.769 86.3865 103.612 85.1566 103.272C85.0879 103.252 85.0216 103.244 84.9549 103.244C84.6591 103.249 84.4731 103.459 84.4412 103.662C84.4067 103.889 84.5386 104.087 84.7789 104.168L85.9446 104.564C89.6259 105.823 91.9374 106.611 95.3644 106.652C89.5518 108.491 84.7711 109.423 80.7749 109.492C76.6237 109.566 73.2781 108.672 70.8441 106.846C70.2456 106.334 69.8582 105.819 69.6292 105.229C69.2538 104.265 69.6655 103.346 69.9203 102.914C70.3994 102.423 70.8773 101.946 71.3516 101.482C71.7867 102.233 72.1199 102.788 72.4369 103.261C72.7256 103.692 72.9789 104.133 73.2359 104.585L73.492 105.034C73.9855 105.882 74.5082 106.73 74.9493 107.118C75.038 107.347 75.242 107.494 75.4711 107.489C75.5286 107.489 75.5859 107.48 75.762 107.416C92.7636 97.423 107.212 89.8149 121.238 83.4701C123.844 82.2874 126.656 81.082 130.25 79.5592C133.062 80.4109 136.101 81.1918 139.269 81.1379C139.792 81.1273 140.315 81.0949 140.844 81.0388C142.469 80.8637 143.097 80.1194 143.336 79.5255C143.738 78.5407 143.373 77.2263 142.363 76.0142C142.248 75.8757 142.09 75.8035 141.915 75.805C141.714 75.8096 141.508 75.9199 141.383 76.0931C141.264 76.2551 141.225 76.45 141.279 76.6341C141.519 77.4481 141.485 78.0735 141.18 78.4872C140.807 78.9929 140.036 79.2378 138.742 79.2596C138.264 79.2688 137.773 79.2466 137.312 79.2264C137.035 79.2139 136.768 79.2026 136.524 79.197C135.27 79.1758 134.048 78.8953 132.865 78.6246L132.703 78.5862C137.023 76.8306 141.368 75.1316 145.727 73.4246C147.596 72.6939 149.162 72.0977 150.643 71.5339C153.659 70.3864 156.264 69.3935 160.407 67.651L160.558 67.546C160.602 67.5076 160.637 67.4678 160.728 67.2936C160.782 67.1527 160.788 67.011 160.736 66.8787C158.377 60.5457 156.984 57.0184 153.462 48.7936C155.563 48.1982 157.751 47.5198 160.466 46.6127L161.816 46.7463C163.853 46.954 165.96 47.1697 168.051 47.1337C170.839 47.086 173.053 46.5768 174.821 45.576C175.077 45.4286 175.192 45.1518 175.114 44.8642C175.034 44.5698 174.777 44.369 174.49 44.3723Z" fill="#356799"/>
<path d="M178.412 30.665C183.446 32.6375 188.566 34.641 193.76 36.1834C195.039 36.4655 195.551 34.4943 194.21 33.9981C189.608 32.5141 185.085 30.8108 180.636 29.1284C168.473 24.531 155.898 19.7771 142.532 20.0081C141.997 20.0184 141.46 20.0352 140.91 20.0614C136.942 20.5657 131.555 22.7803 126.127 26.1371L125.11 26.7664C122.591 28.3199 121.204 29.1747 118.52 31.1977C117.958 31.6213 116.608 32.716 116.02 33.3315C115.838 33.5466 115.79 33.8032 115.891 34.0224C115.984 34.2241 116.193 34.3454 116.429 34.3394C116.578 34.3377 116.727 34.2906 116.883 34.1916C119.294 32.4694 121.875 30.7088 125.005 28.6492C130.466 25.0549 135.132 22.2254 141.235 21.2114C153.41 21.4159 163.33 24.858 174.118 28.9938C175.535 29.5382 176.969 30.1001 178.412 30.665Z" fill="#356799"/>
<path d="M188.88 65.8869C189.333 66.0229 189.788 66.1599 190.244 66.2963C191.405 66.5807 191.92 64.833 190.384 64.4103C189.772 64.2428 189.204 64.0891 188.731 63.9631C187.586 63.6623 186.456 63.3146 185.32 62.9688C182.771 62.1901 180.135 61.386 177.443 61.1219C178.063 60.5449 178.597 60.0082 179.076 59.4846C179.255 59.2862 179.296 59.0024 179.179 58.744C179.066 58.4967 178.838 58.3368 178.595 58.3419C178.478 58.3437 178.361 58.3825 178.254 58.4569C177.124 59.2338 176.008 60.029 174.892 60.8229C169.834 64.4232 164.605 68.1462 158.435 69.9379C158.109 70.0351 157.997 70.3235 158.032 70.5652C158.073 70.8221 158.282 71.0767 158.604 71.0707L158.746 71.051C164.816 69.5652 171.03 66.46 175.678 62.5723C179.443 63.057 184.025 64.4332 188.88 65.8869Z" fill="#356799"/>
<path d="M118.122 48.7605C117.363 48.9706 116.441 49.2261 115.385 49.5188C114.342 49.8428 113.178 50.2548 111.905 50.7018C110.64 51.1658 109.243 51.6059 107.82 52.2084C106.388 52.7771 104.895 53.4299 103.34 54.0751C101.788 54.7299 100.222 55.4905 98.6226 56.2408C97.0224 56.993 95.3991 57.7593 93.8105 58.5989C92.2115 59.4126 90.6129 60.2277 89.0377 61.0301C87.4885 61.8761 85.9619 62.7112 84.4864 63.5194C83.008 64.3192 81.5831 65.1037 80.2649 65.9054C78.9387 66.6929 77.6842 67.4369 76.5253 68.1215C74.2089 69.4902 72.3567 70.7541 71.0239 71.581C69.7016 72.4245 68.9455 72.9077 68.9455 72.9077C68.9281 72.9199 68.9218 72.9422 68.9332 72.9615C68.944 72.9795 68.9691 72.9847 68.987 72.9739C68.987 72.9739 69.7535 72.5072 71.0937 71.6932C72.4444 70.8957 74.3263 69.6727 76.6687 68.3569C79.0244 67.0613 81.7111 65.4467 84.7035 63.9183C86.19 63.1374 87.7266 62.3313 89.2877 61.5106C90.871 60.7364 92.4797 59.9503 94.0892 59.1624C95.6894 58.3607 97.3232 57.6294 98.9332 56.9142C100.551 56.2118 102.104 55.4403 103.652 54.7929C105.196 54.1376 106.702 53.5328 108.105 52.9093C109.504 52.2655 110.876 51.7891 112.123 51.2877C113.377 50.8118 114.506 50.3159 115.532 49.9468C116.564 49.5882 117.46 49.2779 118.2 49.0217C119.676 48.4969 120.524 48.1973 120.524 48.1973C120.544 48.1888 120.559 48.1682 120.551 48.1475C120.544 48.1267 120.525 48.1149 120.503 48.1193C120.503 48.1193 119.636 48.3529 118.122 48.7605Z" fill="#356799"/>
<path d="M111.362 70.7876C110.507 71.1952 109.605 71.6282 108.673 72.0764C106.817 72.9945 104.862 74.0151 102.939 75.0941C99.0671 77.1997 95.199 79.3085 92.3207 80.929C89.4339 82.5386 87.5085 83.6093 87.5085 83.6093C87.4906 83.6202 87.4835 83.6443 87.493 83.6627C87.5024 83.6812 87.5271 83.6897 87.545 83.6788L103.231 75.6533C105.185 74.6359 107.177 73.702 109.035 72.8126C110.89 71.9209 112.561 70.9508 114.078 70.3125C117.067 68.931 119.031 67.9089 119.031 67.9089C119.05 67.9008 119.061 67.8798 119.054 67.8605C119.047 67.8383 119.025 67.8289 119.002 67.8365C119.005 67.8356 116.916 68.5387 113.826 69.7413C113.052 70.0419 112.215 70.3718 111.362 70.7876Z" fill="#356799"/>
<path d="M135.471 68.6989C136.82 68.1996 138.236 67.6319 139.704 67.1595C142.625 66.2089 145.521 65.1956 147.673 64.3658C149.824 63.5374 151.231 62.8893 151.231 62.8893C151.246 62.8826 151.258 62.863 151.254 62.8441C151.25 62.8224 151.23 62.8092 151.208 62.8136C151.208 62.8136 149.696 63.1388 147.476 63.7708C146.37 64.1057 145.064 64.4521 143.706 64.9469C142.358 65.4647 140.921 66.0164 139.484 66.5681C138.04 67.0957 136.624 67.7268 135.291 68.2796C133.966 68.862 132.694 69.3238 131.682 69.8771C129.625 70.9192 128.253 71.6155 128.253 71.6155C128.235 71.6231 128.225 71.6469 128.235 71.6667C128.244 71.6851 128.269 71.6936 128.289 71.6836C128.289 71.6836 129.692 71.0601 131.804 70.1248C132.845 69.6235 134.137 69.2318 135.471 68.6989Z" fill="#356799"/>
<path d="M152.429 48.1506L156.286 57.3596C159.613 55.3714 163.668 51.1238 163.668 51.1238C169.931 49.8806 174.516 47.1303 175.13 45.0898C170.674 45.8094 162.26 46.0864 160.305 45.7593C156.706 46.001 152.429 48.1506 152.429 48.1506Z" fill="#356799"/>
<path d="M156.596 32.4707C153 32.3879 149.315 33.0241 149.315 33.0241C148.332 30.1852 146.687 26.4029 146.687 26.4029L144.052 27.4216L147.797 36.699L156.596 32.4707Z" fill="#356799"/>
<path d="M89.2883 104.539C86.8074 105.204 82.5337 110.057 82.5337 110.057C78.2702 111.726 69.5971 108.739 68.8057 105.334C68.0143 101.928 71.3516 101.482 71.3516 101.482C73.0143 103.269 76.0264 106.385 76.0264 106.385C79.1212 105.103 83.4504 102.259 83.4504 102.259C85.4324 103.509 89.2883 104.539 89.2883 104.539Z" fill="#356799"/>
<path d="M158.105 54.2598C159.542 58.4102 163.053 66.8773 163.053 66.8773C160.173 68.139 153.083 70.5218 153.083 70.5218C158.663 67.6221 160.736 66.8787 160.736 66.8787L155.99 56.541L158.105 54.2598Z" fill="#356799"/>
<path d="M74.1192 125.192C74.1192 125.192 67.2483 124.533 65.3664 123.975C65.5447 126.003 71.4586 130.498 71.4586 130.498C72.0282 128.658 74.1192 125.192 74.1192 125.192Z" fill="#356799"/>
<path d="M82.7096 76.6928C84.5481 74.4911 88.5767 79.1031 82.7596 89.1513C78.5932 96.351 69.9625 102.435 69.9625 102.435C74.0746 97.964 79.6403 92.6628 81.304 87.4095C82.967 82.1541 83.0483 80.8188 82.7096 76.6928Z" fill="#356799"/>
<path d="M124.224 44.7544C120.731 44.8759 122.763 51.922 130.169 52.8936C137.137 53.8083 149.439 50.4379 154.081 47.7453C141.563 50.8541 126.516 53.3415 124.224 44.7544Z" fill="#356799"/>
<path d="M126.702 73.0742C126.524 72.7647 126.301 72.3344 126.125 72.0249C126.322 71.9792 126.441 71.969 126.558 72.0008C126.999 72.1196 127.09 72.6481 126.702 73.0742ZM123.852 70.9483C122.952 70.9849 122.548 70.0608 122.966 69.3279C122.975 69.3121 122.986 69.2977 122.995 69.2823C123.314 69.8405 123.643 70.3928 123.972 70.9391C123.932 70.942 123.892 70.9467 123.852 70.9483ZM128.449 76.0123C128.462 75.9736 128.449 75.9407 128.425 75.9156C128.171 75.5121 127.924 75.1075 127.68 74.7027C128.097 74.2487 128.505 73.756 128.639 73.0197C128.82 72.0293 128.183 70.7415 127.242 70.4243C126.586 70.203 125.904 70.4833 125.336 70.6413C124.901 69.8787 124.464 69.1176 124.012 68.3606C124.441 68.1255 124.918 67.9638 125.359 67.8157C125.427 67.7926 125.425 67.7093 125.38 67.6775C125.326 67.5492 125.274 67.4304 125.196 67.2608C125.128 67.1114 125.047 66.9325 124.967 66.7874C124.944 66.747 124.916 66.7284 124.887 66.7233C124.877 66.7151 124.869 66.7055 124.854 66.7023C124.285 66.5831 123.758 66.8672 123.241 67.1392C123.002 66.7592 122.76 66.38 122.509 66.003C122.48 65.9586 122.434 65.9607 122.404 65.9844C122.403 65.9847 122.402 65.9842 122.4 65.9848C122.1 66.083 121.837 66.3622 121.574 66.5197C121.561 66.5271 121.551 66.5395 121.543 66.5536C121.524 66.5713 121.513 66.5978 121.528 66.6303C121.529 66.6334 121.531 66.6366 121.532 66.6398C121.534 66.6485 121.537 66.6554 121.543 66.6626C121.734 67.0849 121.996 67.4549 122.213 67.8731C121.735 68.2849 121.365 68.6913 121.199 69.4743C121.018 70.4865 121.38 71.8806 122.78 72.5151C123.368 72.7815 124.205 72.5473 124.81 72.4094C124.823 72.4062 124.836 72.405 124.849 72.4021C125.126 72.8705 125.402 73.3408 125.675 73.8123C125.641 73.8335 125.607 73.853 125.572 73.8697C125.046 74.1192 124.501 74.1504 123.929 74.1558C123.925 74.156 123.922 74.1579 123.917 74.1583C123.897 74.1558 123.878 74.1656 123.863 74.1833C123.859 74.1875 123.856 74.1922 123.852 74.1969C123.85 74.2009 123.847 74.2019 123.845 74.2069C123.844 74.2089 123.844 74.2108 123.843 74.213C123.841 74.2191 123.839 74.2252 123.838 74.2317C123.775 74.4398 123.841 74.5275 123.873 74.7558C123.924 75.1167 123.946 75.4729 124.081 75.8169C124.104 75.8756 124.158 75.8827 124.196 75.8598C124.941 76.119 125.968 75.8115 126.642 75.4652C126.875 75.8564 127.112 76.2448 127.355 76.6287C127.374 76.6588 127.4 76.6749 127.427 76.6802C127.45 76.6909 127.477 76.6936 127.504 76.6812C127.675 76.6023 127.844 76.4932 127.999 76.3865C128.125 76.3 128.263 76.2151 128.374 76.1066C128.413 76.0879 128.442 76.0542 128.449 76.0123Z" fill="#356799"/>
<path d="M112.8 117.898L112.631 117.923C98.8527 122.021 88.5872 123.835 79.3497 123.809C75.157 123.798 71.111 123.418 66.2288 122.581C66.1533 122.566 66.0844 122.563 66.0205 122.56C65.5956 122.559 65.417 122.826 65.3922 123.074C65.3542 123.433 65.5985 123.901 65.9784 123.985C68.1621 124.48 70.5621 124.856 73.1178 125.101C70.3641 130.029 68.0752 134.447 66.1798 138.901C65.9391 140.414 67.1837 140.396 67.6051 139.527C67.7119 139.252 67.7988 138.968 67.9089 138.694C69.7201 134.246 71.2549 130.916 72.8889 127.913C73.1306 127.468 74.0674 126.026 74.5382 125.224C76.2187 125.352 77.954 125.418 79.6985 125.422L79.6999 125.422C90.2724 125.451 101.504 123.324 113.082 119.094C113.335 119.002 113.465 118.755 113.415 118.471C113.366 118.194 113.132 117.9 112.8 117.898Z" fill="#356799"/>
<path d="M119.313 116.322C119.056 116.322 118.83 116.138 118.746 115.864C118.665 115.587 118.763 115.315 119.005 115.155C119.805 114.631 120.608 114.114 121.409 113.602C123.559 112.224 125.78 110.801 127.859 109.202C128.345 108.826 128.847 108.475 129.344 108.122C130.129 107.573 130.937 107 131.686 106.341C132.092 105.984 132.267 105.556 132.145 105.226C132.036 104.938 131.711 104.766 131.279 104.764C131.101 104.763 130.909 104.79 130.703 104.844C129.664 105.127 128.742 105.572 127.98 105.97C127.886 106.02 127.79 106.047 127.686 106.043C127.418 106.042 127.162 105.863 127.06 105.6C126.966 105.359 127.028 105.107 127.222 104.929C128.118 104.097 129.754 103.13 131.41 103.134C131.936 103.134 132.424 103.236 132.859 103.438C133.489 103.725 134.227 104.39 134.353 105.16C134.431 105.629 134.266 106.069 133.879 106.436C129.844 110.226 125.03 113.054 120.375 115.792L119.625 116.231C119.525 116.291 119.419 116.32 119.313 116.322Z" fill="#356799"/>
<path d="M175.502 45.0509L175.338 45.0719C173.93 45.4369 172.409 45.6054 170.547 45.6002C169.294 45.5967 168.013 45.5148 166.77 45.4361C165.518 45.3573 164.221 45.2762 162.945 45.2706C162.582 45.2711 162.222 45.2754 161.86 45.2882C161.58 45.296 161.291 45.3112 160.995 45.3334L160.803 45.3434L160.473 45.3844C158.359 45.6071 155.862 46.1654 153.447 46.7062C151.946 47.0422 150.452 47.3779 149.059 47.6317C147.979 47.827 146.987 48.0413 146.03 48.2475C143.908 48.7001 141.897 49.1318 139.418 49.2732C138.919 49.295 138.469 49.3237 138.039 49.3541C137.323 49.402 136.66 49.4448 135.893 49.4423C135.557 49.4417 135.199 49.4329 134.807 49.4089C130.445 49.2106 127.119 46.9295 126.536 44.9301C126.242 43.9124 126.632 42.9933 127.582 42.2984C139.092 41.8751 149.017 37.96 158.024 33.7969C158.261 33.6849 158.376 33.4371 158.313 33.1649C158.26 32.919 158.052 32.6707 157.765 32.6682L157.608 32.6916L156.034 33.2543C153.822 34.0479 151.619 34.8356 149.406 35.6091C148.409 32.8435 147.241 29.7725 145.516 26.0396C145.404 25.8114 145.196 25.68 144.944 25.6801L144.753 25.7023C139.316 26.9828 134.021 28.6233 125.215 31.7543C116.804 34.7467 108.605 38.2599 100.247 41.8999C97.4116 43.1332 94.6023 44.3111 91.8255 45.4752C77.9561 51.2896 64.8597 56.782 53.2281 67.2689C52.9992 67.4764 52.9692 67.7791 53.1457 68.0126C54.5539 70.5064 55.5188 72.5816 56.539 74.7788C57.3233 76.4629 58.1335 78.2071 59.179 80.1997C61.136 83.9314 62.1701 85.7253 63.4163 87.8515C63.5189 88.0236 63.6706 88.1203 63.846 88.1204C64.0432 88.1212 64.2447 87.9991 64.375 87.8006C64.5104 87.5942 64.5376 87.3485 64.4503 87.1387C63.1886 84.1201 62.8154 83.451 61.8206 81.6645C61.4927 81.0772 61.096 80.369 60.5792 79.412C59.7304 77.841 59.0701 76.5681 58.431 75.3364C57.3167 73.1856 56.2653 71.1559 54.3827 67.8907C65.9084 58.7752 77.7559 53.7202 90.2962 48.3711C93.8201 46.867 97.4644 45.3126 101.186 43.6331C110.707 39.3375 118.58 36.1772 125.969 33.6822C128.468 32.8397 136.311 30.1458 144.692 27.1774C145.783 30.0369 146.829 32.8801 147.979 36.0941L147.517 36.2532C146.014 36.7725 144.516 37.2915 142.987 37.7708C140.54 38.5372 137.879 38.9514 135.306 39.3524C132.438 39.7985 129.474 40.2591 126.788 41.2174C125.163 41.962 124.339 43.2588 124.52 44.773C124.797 47.0596 127.451 49.9955 132.626 51.0398C134.355 51.3874 136.262 51.5679 138.299 51.5718C142.393 51.5867 147.121 50.9125 152.741 49.5143C154.94 55.5098 157.155 60.9999 159.915 67.2757C156.64 68.2947 154.148 69.1551 151.274 70.1501C149.652 70.7114 147.921 71.3101 145.88 71.9963C138.381 74.5104 130.987 77.6025 123.837 80.5942L123.494 80.7408C105.922 88.0913 90.4142 96.116 76.0955 105.262C75.7418 104.521 75.6924 104.445 75.1029 103.539L74.9449 103.296C74.1877 102.136 73.6439 101.298 72.5567 99.7743L72.7703 99.5718C76.22 96.3114 79.4792 93.2302 81.9474 87.886C83.3156 84.9214 85.2563 77.9632 83.7766 74.5331C83.3764 73.608 82.756 73.0012 81.9301 72.7251C81.6608 72.6358 81.3748 72.6174 81.1823 72.6166C80.9513 72.616 80.7277 72.6425 80.5962 72.6872C79.3376 73.1044 78.8629 73.6838 77.5927 75.2296C77.2362 75.6627 76.812 76.1757 76.291 76.7874C74.091 79.364 69.0114 84.9363 63.9295 89.4734C58.4309 94.3869 52.1222 100.185 46.8437 106.802C42.0218 112.851 37.9641 121.573 35.1069 127.791C35.074 127.864 35.0341 127.949 34.9988 128.025C34.7597 128.966 35.9236 129.513 36.3877 128.582C36.3937 128.572 36.3997 128.558 36.4044 128.548C39.9343 121.018 44.9635 111.274 51.7846 103.308C55.2371 99.2773 59.3897 95.7677 63.4075 92.3725C68.9719 87.6694 74.7241 82.8067 78.7118 76.4472C79.27 75.719 79.9631 74.8156 80.8699 74.8175C81.0059 74.8197 81.1448 74.8396 81.2299 74.8506C82.7023 75.9774 82.9096 79.0175 81.8113 83.411L81.7671 83.5906C80.8724 87.3426 78.6295 90.5393 76.5521 93.1708C73.5651 96.9557 72.341 98.3042 70.0069 100.373C68.6425 101.402 68.0744 102.996 68.4504 104.753C68.7403 106.103 69.9944 107.478 71.6343 108.253C73.9072 109.574 76.7484 110.22 80.3195 110.231C84.2229 110.241 88.5258 109.495 92.9583 108.665C102.57 106.862 114.34 102.47 125.314 96.5619C125.758 96.3507 126.193 96.1367 126.945 95.7328C127.663 95.3543 128.47 95.1425 129.219 95.1449C130.272 95.1472 131.111 95.5623 131.41 96.2228C131.753 96.9721 131.424 97.9866 130.487 99.0865C128.252 101.701 124.755 103.764 121.672 105.586C121.021 105.969 120.384 106.345 119.774 106.714C116.439 108.747 112.888 110.553 109.455 112.301C106.066 114.026 102.561 115.811 99.2596 117.812C99.0067 117.965 98.8939 118.273 98.9768 118.573C99.0574 118.861 99.2933 119.055 99.5622 119.054L99.7627 119.023C104.421 117.535 108.664 115.05 112.765 112.648C114.207 111.803 115.649 110.961 117.112 110.154L117.434 109.972L117.207 110.231C116.74 110.758 116.274 111.286 115.797 111.802C115.474 112.157 115.166 112.523 114.858 112.889C114.188 113.685 113.495 114.507 112.647 115.15C112.42 115.322 112.335 115.612 112.427 115.886C112.512 116.143 112.719 116.307 112.951 116.306C113.061 116.31 113.171 116.271 113.277 116.199C114.372 115.441 115.274 114.462 116.144 113.511L116.505 113.122C117.561 111.981 119.265 109.841 120.255 108.397C121.506 107.689 122.648 107.009 123.728 106.331C123.627 106.506 123.529 106.681 123.433 106.858C122.975 107.684 122.501 108.539 121.815 109.375C120.127 111.434 118.534 112.909 116.134 114.641C115.914 114.797 115.826 115.074 115.913 115.343C115.993 115.591 116.199 115.759 116.428 115.76C116.534 115.759 116.641 115.724 116.742 115.657C121.047 112.697 123.877 109.526 126.816 104.253C129.263 102.476 131.196 100.708 132.727 98.8556C133.24 98.2294 133.847 96.5706 133.66 95.2892C133.566 94.6656 133.305 94.206 132.879 93.9156C132.165 93.4389 131.337 93.1932 130.419 93.1902C129.437 93.1881 128.353 93.4484 127.044 94.0022C127.113 93.9079 127.178 93.8149 127.248 93.722C127.77 93.007 128.265 92.3353 128.566 91.4406C128.7 91.043 128.755 90.6058 128.705 90.2593C128.872 90.0972 129.226 89.9871 129.572 89.9892C129.812 89.9867 130.011 90.0445 130.121 90.1395C130.382 90.3686 130.462 90.9252 130.531 91.4196C130.565 91.6532 130.595 91.8723 130.644 92.0401C130.718 92.3134 130.965 92.4974 131.251 92.4985C131.531 92.4987 131.759 92.3258 131.831 92.0562C132.131 90.9123 131.993 89.434 130.694 88.7114C130.451 88.5746 130.128 88.5044 129.76 88.5003C129.291 88.4999 128.806 88.6167 128.427 88.8172C128.109 88.0771 127.576 87.4902 126.914 87.151C126.671 87.025 126.397 86.9604 126.103 86.9587C124.807 86.9567 123.358 88.1624 122.397 88.9634L122.068 89.2303C119.577 91.2493 117.409 93.6832 115.963 96.092C115.841 96.2957 115.83 96.522 115.934 96.7076C116.048 96.9087 116.275 97.0397 116.515 97.0405C116.723 97.0409 116.909 96.9471 117.042 96.7729C118.86 94.3805 121.187 92.2421 123.225 90.4711C123.846 89.9281 124.526 89.4651 125.5 88.9247C125.795 88.7595 126.048 88.6766 126.257 88.6766C126.49 88.6781 126.664 88.7816 126.787 88.9996C127.232 89.7699 126.902 91.5405 126.632 92.0263L126.411 92.4181C126.128 92.9313 125.825 93.4781 125.478 93.9889C125.12 94.5113 124.72 95.052 124.605 95.21L123.912 95.5943C121.272 96.567 118.287 97.7887 115.123 99.0813C110.555 100.945 105.38 103.06 100.324 104.806C98.847 104.969 97.5416 105.047 96.333 105.044C93.8432 105.038 91.6186 104.695 89.3325 103.967C88.569 103.722 88.1304 103.576 87.7302 103.439C87.162 103.246 86.6697 103.077 85.4445 102.709C85.376 102.687 85.3098 102.678 85.2432 102.676C84.9474 102.675 84.7588 102.883 84.7243 103.088C84.687 103.317 84.8163 103.519 85.0555 103.606L86.2159 104.029C89.8801 105.375 92.181 106.218 95.6066 106.329C89.7722 108.069 84.9809 108.912 80.9849 108.9C76.8339 108.89 73.5005 107.92 71.0904 106.026C70.4986 105.497 70.1178 104.969 69.8964 104.368C69.5333 103.387 69.9566 102.468 70.2168 102.037C70.7021 101.551 71.1859 101.079 71.666 100.619C72.0913 101.387 72.4174 101.954 72.7283 102.438C73.0115 102.88 73.2591 103.33 73.5103 103.791L73.7606 104.25C74.2432 105.117 74.755 105.983 75.191 106.384C75.2768 106.618 75.4789 106.77 75.708 106.769C75.7654 106.771 75.8228 106.763 75.9997 106.702C93.1238 96.9571 107.665 89.5688 121.767 83.4474C124.389 82.3062 127.215 81.1462 130.827 79.6818C133.627 80.599 136.655 81.4495 139.823 81.4596C140.346 81.4596 140.87 81.4375 141.399 81.3917C143.026 81.2479 143.664 80.5092 143.911 79.9143C144.324 78.928 143.976 77.5933 142.982 76.3487C142.869 76.2065 142.712 76.1304 142.537 76.1283C142.336 76.1289 142.128 76.236 142.001 76.4084C141.88 76.5696 141.838 76.7656 141.891 76.9526C142.12 77.7794 142.078 78.4103 141.768 78.8218C141.388 79.3249 140.615 79.5565 139.321 79.5522C138.843 79.5517 138.352 79.5193 137.891 79.4896C137.615 79.4712 137.348 79.4544 137.104 79.4438C135.85 79.3968 134.632 79.0887 133.453 78.7912L133.292 78.7491C137.633 77.0643 141.998 75.4372 146.378 73.8023C148.256 73.1025 149.829 72.5323 151.317 71.9932C154.347 70.8958 156.963 69.9462 161.128 68.2711L161.28 68.1682C161.325 68.1302 161.359 68.0908 161.453 67.9167C161.508 67.7755 161.517 67.6325 161.467 67.4979C159.188 61.0547 157.841 57.4645 154.424 49.0872C156.532 48.5288 158.728 47.8884 161.454 47.0277L162.802 47.1901C164.835 47.4413 166.939 47.702 169.03 47.7083C171.818 47.7169 174.038 47.2478 175.818 46.2732C176.076 46.1296 176.194 45.8524 176.12 45.5604C176.044 45.2614 175.789 45.0535 175.502 45.0509Z" fill="#356799"/>
<path d="M179.597 31.2892C184.605 33.3836 189.698 35.511 194.871 37.1743C196.147 37.4853 196.684 35.5051 195.349 34.9767C190.767 33.3845 186.267 31.5723 181.84 29.7828C169.739 24.8925 157.228 19.8359 143.863 19.7969C143.328 19.7964 142.791 19.8024 142.241 19.8177C138.267 20.2461 132.854 22.3727 127.384 25.6519L126.359 26.2666C123.821 27.784 122.424 28.619 119.715 30.6071C119.148 31.0234 117.784 32.1013 117.189 32.711C117.003 32.9244 116.953 33.1825 117.05 33.406C117.141 33.6116 117.349 33.7382 117.585 33.737C117.733 33.7383 117.883 33.6938 118.041 33.597C120.473 31.9071 123.075 30.1817 126.231 28.1657C131.736 24.6475 136.437 21.8852 142.551 20.9856C154.72 21.4401 164.593 25.118 175.326 29.5141C176.736 30.0928 178.162 30.6893 179.597 31.2892Z" fill="#356799"/>
<path d="M189.615 67.0697C190.066 67.2162 190.519 67.3638 190.974 67.5108C192.131 67.8217 192.668 66.0674 191.138 65.6092C190.528 65.4276 189.962 65.2608 189.491 65.1239C188.35 64.7969 187.224 64.4227 186.093 64.0504C183.555 63.2121 180.93 62.3465 178.242 62.025C178.869 61.4549 179.41 60.9238 179.895 60.4049C180.077 60.2082 180.122 59.9224 180.008 59.6591C179.897 59.4071 179.672 59.241 179.429 59.2412C179.312 59.2406 179.195 59.2774 179.087 59.3504C177.947 60.1118 176.821 60.8921 175.695 61.671C170.593 65.2036 165.318 68.8566 159.127 70.5402C158.8 70.6317 158.684 70.9206 158.717 71.1654C158.754 71.4257 158.96 71.6871 159.282 71.6875L159.424 71.6706C165.511 70.2938 171.763 67.2848 176.459 63.4536C180.217 64.0197 184.78 65.5028 189.615 67.0697Z" fill="#356799"/>
<path d="M119.094 48.3341C118.332 48.5308 117.408 48.77 116.348 49.044C115.301 49.35 114.133 49.7423 112.854 50.1677C111.583 50.6106 110.181 51.0265 108.751 51.6059C107.311 52.1511 105.811 52.7799 104.249 53.3997C102.689 54.0293 101.113 54.7655 99.5047 55.4906C97.8953 56.2175 96.2628 56.9583 94.6639 57.7737C93.0549 58.5628 91.4464 59.3534 89.8615 60.1315C88.3019 60.9543 86.7651 61.7665 85.2797 62.5525C83.7915 63.3301 82.3571 64.0932 81.029 64.8759C79.6932 65.6441 78.4296 66.3699 77.2623 67.0376C74.9291 68.3726 73.0613 69.6111 71.7184 70.419C70.3857 71.2437 69.6237 71.7163 69.6237 71.7163C69.6061 71.7283 69.5996 71.7507 69.6107 71.7704C69.6213 71.7888 69.6463 71.7946 69.6643 71.784C69.6643 71.784 70.4365 71.3284 71.7868 70.5337C73.1472 69.7559 75.0442 68.5592 77.4027 67.2782C79.7742 66.0179 82.4807 64.4422 85.4917 62.9598C86.9877 62.2014 88.5342 61.4188 90.1053 60.6218C91.698 59.8723 93.3162 59.1113 94.9354 58.3484C96.5453 57.5714 98.188 56.8663 99.8066 56.1768C101.433 55.5005 102.995 54.753 104.551 54.1308C106.103 53.5006 107.616 52.9206 109.027 52.3195C110.434 51.6979 111.811 51.2447 113.064 50.7639C114.324 50.3088 115.459 49.8311 116.489 49.4792C117.525 49.1381 118.425 48.843 119.169 48.5994C120.651 48.0995 121.502 47.8143 121.502 47.8143C121.522 47.8061 121.537 47.7856 121.53 47.7645C121.523 47.7434 121.504 47.7311 121.482 47.7351C121.482 47.7351 120.612 47.9533 119.094 48.3341Z" fill="#356799"/>
<path d="M124.288 56.3505C125.128 56.0736 125.861 55.8332 126.465 55.6337C127.67 55.2249 128.359 54.9897 128.359 54.9897C128.377 54.9838 128.391 54.9619 128.385 54.9436C128.381 54.9202 128.358 54.9088 128.338 54.9138C128.338 54.9138 127.63 55.0805 126.391 55.3698C125.154 55.6741 123.364 56.0534 121.293 56.7356C120.248 57.0673 119.121 57.4273 117.93 57.8067C116.737 58.1932 115.521 58.7085 114.239 59.1817C112.967 59.6689 111.639 60.1585 110.334 60.7516C109.019 61.3226 107.683 61.9009 106.348 62.4802C103.712 63.7153 101.045 64.8822 98.6151 66.1243C96.1585 67.3127 93.9024 68.4932 91.9843 69.5363C90.0464 70.5423 88.4859 71.4745 87.376 72.0969C86.2704 72.7273 85.6386 73.0855 85.6386 73.0855C85.6191 73.0965 85.6131 73.1203 85.6242 73.1401C85.6334 73.1588 85.6588 73.1661 85.6769 73.1555C85.6769 73.1555 86.3189 72.8142 87.4412 72.2157C88.5653 71.6229 90.154 70.7345 92.1146 69.7834C94.0566 68.7947 96.3404 67.6847 98.8136 66.5422C101.262 65.3531 103.949 64.242 106.6 63.066C109.299 61.9914 111.973 60.867 114.522 59.9225C117.06 58.9395 119.436 58.0594 121.487 57.3373C122.51 56.9675 123.439 56.6007 124.288 56.3505Z" fill="#356799"/>
<path d="M112.056 70.4394C111.196 70.8335 110.289 71.2524 109.351 71.6861C107.484 72.5753 105.516 73.5661 103.581 74.6166C99.6827 76.6639 95.7888 78.7146 92.8906 80.2924C89.9842 81.8589 88.0457 82.901 88.0457 82.901C88.0277 82.9115 88.0202 82.9358 88.0295 82.9546C88.0387 82.9734 88.0632 82.9825 88.0813 82.9719L103.865 75.1872C105.832 74.1996 107.834 73.2971 109.703 72.4368C111.57 71.5742 113.252 70.6286 114.777 70.015C117.783 68.6808 119.759 67.6887 119.759 67.6887C119.778 67.6809 119.79 67.6599 119.783 67.6402C119.776 67.6177 119.754 67.6077 119.732 67.615C119.734 67.6141 117.636 68.2816 114.532 69.433C113.754 69.7208 112.913 70.0369 112.056 70.4394Z" fill="#356799"/>
<path d="M136.185 68.8214C137.54 68.3447 138.963 67.8003 140.436 67.3532C143.369 66.4527 146.277 65.4884 148.438 64.6943C150.6 63.9016 152.015 63.2758 152.015 63.2758C152.03 63.2694 152.042 63.2499 152.039 63.2307C152.034 63.2087 152.015 63.1949 151.993 63.1989C151.993 63.1989 150.476 63.4965 148.249 64.0895C147.139 64.4051 145.83 64.7284 144.466 65.2003C143.111 65.6958 141.667 66.2236 140.223 66.7514C138.773 67.2548 137.35 67.8632 136.01 68.3943C134.678 68.9554 133.401 69.3958 132.382 69.9339C130.312 70.9444 128.932 71.6196 128.932 71.6196C128.914 71.6269 128.903 71.6507 128.913 71.6708C128.922 71.6896 128.947 71.6987 128.967 71.6891C128.967 71.6891 130.377 71.088 132.5 70.1865C133.548 69.7015 134.845 69.3323 136.185 68.8214Z" fill="#356799"/>
<path d="M153.4 48.4169L157.138 57.7948C160.49 55.8549 164.597 51.6482 164.597 51.6482C170.875 50.5205 175.494 47.8365 176.133 45.7886C171.67 46.4245 163.254 46.5328 161.304 46.1626C157.703 46.3334 153.4 48.4169 153.4 48.4169Z" fill="#356799"/>
<path d="M157.765 32.6682C154.171 32.5113 150.478 33.0786 150.478 33.0786C149.532 30.1919 147.935 26.339 147.935 26.339L145.289 27.314L148.914 36.7587L157.765 32.6682Z" fill="#356799"/>
<path d="M89.559 104.072C87.0703 104.693 82.736 109.507 82.736 109.507C78.4524 111.106 69.8196 107.912 69.0718 104.457C68.3239 101.002 71.6663 100.62 71.6663 100.62C73.3058 102.459 76.2772 105.666 76.2772 105.666C79.3874 104.435 83.7516 101.651 83.7516 101.651C85.7172 102.954 89.559 104.072 89.559 104.072Z" fill="#356799"/>
<path d="M158.996 54.7017C160.38 58.922 163.783 67.5437 163.783 67.5437C160.887 68.7592 153.769 71.0209 153.769 71.0209C159.385 68.2064 161.467 67.4979 161.467 67.4979L156.853 56.9622L158.996 54.7017Z" fill="#356799"/>
<path d="M74.1314 124.618C74.1314 124.618 67.2708 123.814 65.3965 123.211C65.549 125.263 71.4041 129.923 71.4041 129.923C71.997 128.076 74.1314 124.618 74.1314 124.618Z" fill="#356799"/>
<path d="M83.336 75.8189C85.202 73.633 89.1709 78.3724 83.2276 88.4006C78.9708 95.586 70.2651 101.553 70.2651 101.553C74.433 97.1227 80.0645 91.883 81.7945 86.612C83.5239 81.339 83.6221 79.9923 83.336 75.8189Z" fill="#356799"/>
<path d="M125.246 44.4129C121.752 44.4645 123.693 51.621 131.086 52.753C138.039 53.8186 150.381 50.6658 155.056 48.0413C142.502 50.9257 127.428 53.1309 125.246 44.4129Z" fill="#356799"/>
</g>
<rect x="3" y="3" width="70" height="70" rx="35" fill="#FFF7E6"/>
<path d="M31.0328 49V46.62L36.7448 40.516C37.8648 39.3213 38.7421 38.36 39.3768 37.632C40.0301 36.8853 40.4968 36.232 40.7768 35.672C41.0755 35.112 41.2248 34.524 41.2248 33.908C41.2248 32.9 40.9168 32.1253 40.3008 31.584C39.6848 31.024 38.8915 30.744 37.9208 30.744C36.9128 30.744 36.0448 31.0333 35.3168 31.612C34.5888 32.172 34.0848 32.9933 33.8048 34.076L30.8928 33.236C31.1168 32.1347 31.5648 31.1827 32.2368 30.38C32.9088 29.5587 33.7301 28.924 34.7008 28.476C35.6901 28.028 36.7541 27.804 37.8928 27.804C39.2181 27.804 40.3755 28.056 41.3648 28.56C42.3541 29.0453 43.1195 29.7267 43.6608 30.604C44.2208 31.4813 44.5008 32.4987 44.5008 33.656C44.5008 34.4213 44.3515 35.168 44.0528 35.896C43.7728 36.6053 43.3341 37.3613 42.7368 38.164C42.1395 38.948 41.3741 39.8347 40.4408 40.824L35.4008 46.2H44.8928V49H31.0328Z" fill="#CC9900"/>
<rect x="3" y="3" width="70" height="70" rx="35" stroke="white" stroke-width="6"/>
<defs>
<clipPath id="clip0_3_47">
<rect width="160" height="160" fill="white" transform="translate(35)"/>
</clipPath>
</defs>
</svg>
