<svg width="195" height="160" viewBox="0 0 195 160" fill="none" xmlns="http://www.w3.org/2000/svg">
<path d="M106.323 69.6505C103.918 69.868 99.9902 70.9688 97.8136 69.395C97.4493 69.1316 97.123 69.7134 97.4585 69.9807C98.5278 70.8299 99.9745 70.9072 101.291 70.9373C103.02 70.978 104.961 71.2846 106.498 70.3332C106.781 70.1589 106.709 69.6151 106.323 69.6505Z" fill="#356799"/>
<path d="M103.376 73.386C102.389 73.3048 101.38 73.3782 100.385 73.3782C100.294 73.2733 100.134 73.2353 99.9988 73.255L99.8416 73.2786C99.552 73.3244 99.5192 73.749 99.738 73.8932C99.7708 74.0176 99.835 74.1277 99.9818 74.1644C101.107 74.4488 102.359 74.5654 103.469 74.167C103.891 74.0137 103.834 73.4214 103.376 73.386Z" fill="#356799"/>
<path d="M113.247 47.8885L113.235 47.8396C113.226 47.8032 113.218 47.7668 113.209 47.7304C113.226 47.7822 113.238 47.8349 113.247 47.8885ZM98.0873 30.6387C98.4126 31.8158 98.7431 32.9894 99.0764 34.1588C98.5344 33.6508 98.2087 33.0183 98.0681 32.352C97.9545 31.8139 97.9573 31.2282 98.0873 30.6387ZM110.049 35.586C109.098 31.9895 108.131 28.3895 107.117 24.788C109.073 24.4585 111.103 24.3336 113.097 24.2178L113.101 24.2176C113.916 24.168 114.536 23.6475 114.784 22.9835C114.945 22.5537 114.956 22.0406 114.763 21.573C114.671 20.9212 114.57 20.2799 114.426 19.4159L114.426 19.4144C114.417 19.3609 114.408 19.3064 114.398 19.251C114.262 18.4403 114.093 17.4281 113.876 16.5648L113.875 16.5602C113.757 16.0972 113.507 15.6758 113.127 15.3765C113.005 15.2451 112.841 15.1064 112.622 14.997C109.762 13.567 106.64 14.0177 103.963 14.5792C103.383 12.7371 102.785 10.891 102.157 9.04286C101.981 8.52319 101.596 8.08375 101.051 7.87401C100.682 7.73244 100.312 7.72286 99.9864 7.79083C98.9259 7.86756 97.918 8.21809 97.0823 8.54258C96.8073 8.64932 96.5545 8.75134 96.3172 8.84709C95.7295 9.08426 95.2369 9.28302 94.7387 9.42016L94.7387 9.42014L94.7314 9.42219C94.4386 9.5044 94.2011 9.64878 94.0189 9.80039C93.8298 9.93318 93.636 10.1199 93.4851 10.377C93.2643 10.7529 93.1948 11.1798 93.2579 11.5909C93.2662 11.6897 93.2833 11.7963 93.3139 11.9083C93.5288 13.1647 93.8495 14.3632 94.169 15.5049C94.2209 15.6902 94.2726 15.8737 94.3239 16.0558C94.4942 16.6599 94.66 17.2482 94.8124 17.838C92.0515 19.2468 89.6157 21.0402 87.6886 24.7338L87.678 24.7541L87.6681 24.7748C85.0689 30.1508 84.9457 38.5794 92.0083 44.2996L92.0088 44.2999C93.6665 45.6415 95.8323 46.2265 97.8486 46.519C99.5239 46.762 101.265 46.8221 102.729 46.872C103.263 48.7684 103.788 50.6676 104.309 52.5693C101.92 52.79 99.5927 52.3116 96.9896 51.6452L96.9664 51.6392L96.943 51.634C96.895 51.6233 96.849 51.6156 96.8065 51.61C96.2551 51.4948 95.7635 51.6689 95.4394 51.8741C95.3695 51.9172 95.3141 51.9581 95.2755 51.988C95.2452 52.0088 95.212 52.0331 95.1776 52.0609C95.0663 52.1506 94.9604 52.2612 94.8691 52.3946C94.8552 52.4148 94.8428 52.434 94.8319 52.4513C94.7909 52.5117 94.7595 52.5649 94.7396 52.6005C94.3142 53.2842 94.1521 53.8765 94.0896 54.4774C94.0671 54.6936 94.0572 54.9207 94.049 55.1073C94.0474 55.1444 94.0458 55.1799 94.0443 55.2133C94.0339 55.4343 94.0208 55.6484 93.9896 55.8919L93.9894 55.8935C93.947 56.2288 93.8965 56.5779 93.8444 56.9386C93.6242 58.4622 93.3742 60.192 93.57 61.951C93.6347 62.533 93.9422 63.0801 94.4808 63.406C94.6958 63.5362 94.9222 63.6157 95.1474 63.6537C97.1463 64.8628 99.6018 65.3903 101.966 65.5422C103.977 65.6714 106.014 65.5347 107.823 65.2535C108.371 67.1449 108.937 69.0317 109.528 70.9104C109.687 71.419 110.015 71.8292 110.445 72.0868C110.823 72.3473 111.326 72.5052 111.89 72.418L111.899 72.4167L111.907 72.4152C113.036 72.2273 114.166 71.8689 115.139 71.5357L115.14 71.5353C115.257 71.495 115.385 71.4528 115.52 71.4079C116.117 71.2101 116.868 70.9617 117.55 70.6127C118.046 70.4554 118.532 70.118 118.825 69.5703C119.208 68.9339 119.154 68.264 118.937 67.7595C118.312 65.7544 117.711 63.7506 117.125 61.7473C119.69 60.0933 122.363 58.011 124.083 54.4751C125.43 51.7089 125.638 48.2859 124.942 45.1939C124.246 42.1065 122.594 39.1201 119.954 37.3867C118.107 36.1736 116.06 35.7477 114.155 35.6071C112.839 35.5101 111.466 35.5475 110.26 35.5803C110.189 35.5822 110.119 35.5841 110.049 35.586ZM93.276 11.6887C93.276 11.6889 93.276 11.6889 93.276 11.6887L93.276 11.6887Z" fill="#356799" stroke="#356799" stroke-width="3"/>
<path d="M113.578 49.417C113.087 47.5903 112.535 45.0861 112.053 43.262C113.142 43.3013 113.78 43.4153 114.342 43.739C116.468 44.9551 116.199 47.779 113.578 49.417ZM101.741 34.6212C97.0056 33.5624 96.2076 28.2867 99.422 25.1259C99.4915 25.0578 99.5662 24.9988 99.6369 24.9333C100.51 28.2238 101.44 31.4972 102.38 34.7404C102.167 34.6998 101.952 34.6684 101.741 34.6212ZM118.52 66.8284C118.642 66.6489 118.623 66.4642 118.536 66.303C117.782 63.8918 117.065 61.4846 116.37 59.0813C119.178 57.3411 121.996 55.3912 123.734 51.819C126.074 47.015 124.579 39.5614 120.13 36.6405C117.027 34.6028 113.08 35.089 109.9 35.1087C108.714 30.6153 107.514 26.1258 106.232 21.6376C108.794 21.0309 111.505 20.8658 114.01 20.7203C114.397 20.6968 114.506 20.2696 114.314 20.0442C114.214 19.3143 114.109 18.6355 113.947 17.6632C113.802 16.8061 113.635 15.7814 113.421 14.9296C113.361 14.6925 113.238 14.5575 113.095 14.492C113.057 14.4369 113.028 14.3766 112.951 14.3386C110.16 12.9431 107.016 13.6638 103.942 14.336C103.235 12.0664 102.508 9.79545 101.736 7.52451C101.646 7.25718 101.405 7.20477 101.213 7.28339C101.207 7.28339 101.203 7.27946 101.195 7.28077C99.4915 7.36595 97.7316 8.42738 96.1368 8.86637C96.0621 8.88733 95.9901 8.93582 95.9311 8.99741C95.8079 9.06162 95.7109 9.18087 95.7411 9.36694C95.745 9.38529 95.7489 9.40364 95.7516 9.42198C95.7503 9.46916 95.7555 9.50847 95.7752 9.55302C96.1761 11.9734 97.0174 14.2246 97.5521 16.6581C94.4831 18.0982 91.9841 19.6602 90.0185 23.4277C87.6427 28.3417 87.5615 35.9578 93.9524 41.1339C96.6387 43.3079 101.325 43.2712 104.669 43.4049C104.74 43.4062 104.808 43.418 104.879 43.4206C105.664 46.196 106.431 48.9767 107.189 51.7613C106.983 51.8229 106.777 51.8754 106.573 51.912C103.482 52.4572 100.601 51.8623 97.6176 51.0983C97.594 51.093 97.5757 51.0983 97.5521 51.0943C97.4499 51.0537 97.3372 51.0773 97.2336 51.1468C97.2061 51.1625 97.1838 51.1821 97.1603 51.2018C97.1432 51.2188 97.1223 51.2188 97.1065 51.2424C97.1 51.2516 97.0961 51.2608 97.0895 51.2713C97.0672 51.2988 97.0515 51.3276 97.0345 51.3591C96.4146 52.334 96.6322 52.8726 96.4775 54.0821C96.2351 55.9953 95.8446 57.843 96.0608 59.785C96.0975 60.1165 96.3688 60.2279 96.5994 60.1637C100.11 62.5172 105.893 62.3704 109.89 61.5357C110.551 63.8551 111.237 66.1654 111.959 68.4612C112.015 68.6408 112.126 68.7587 112.258 68.8229C112.362 68.9094 112.5 68.9605 112.661 68.9356C113.661 68.7692 114.692 68.4455 115.653 68.1166C116.431 67.8493 117.269 67.6068 118 67.2072C118.228 67.1652 118.424 67.0329 118.52 66.8284Z" fill="#FFC000"/>
<path fill-rule="evenodd" clip-rule="evenodd" d="M128.851 76.3749C129.15 75.9378 129.745 75.8438 130.18 76.1651C131.188 76.9096 132.754 78.0992 134.181 79.2525C134.894 79.8288 135.58 80.4019 136.147 80.9093C136.693 81.3988 137.191 81.8813 137.477 82.2651C137.803 82.7023 137.731 83.317 137.315 83.6381C136.9 83.9591 136.3 83.8649 135.974 83.4276C135.825 83.2274 135.469 82.8663 134.918 82.3726C134.387 81.8969 133.73 81.3475 133.03 80.7819C131.632 79.6514 130.09 78.4801 129.098 77.748C128.663 77.4268 128.553 76.812 128.851 76.3749Z" fill="#FFC000"/>
<path fill-rule="evenodd" clip-rule="evenodd" d="M126.295 79.0794C126.751 79.0614 127.165 79.4458 127.219 79.938C127.37 81.3186 128.966 85.6266 134.449 89.9546C134.832 90.2577 134.939 90.8182 134.686 91.2065C134.434 91.5948 133.918 91.6639 133.534 91.3609C127.759 86.802 125.79 82.0446 125.566 80.0034C125.512 79.5112 125.838 79.0975 126.295 79.0794Z" fill="#FFC000"/>
<path fill-rule="evenodd" clip-rule="evenodd" d="M118.929 81.104C119.369 81.3 119.585 81.8211 119.411 82.2679C118.867 83.67 118.098 85.9501 117.568 88.2089C117.303 89.3384 117.103 90.4441 117.016 91.4215C116.929 92.4175 116.968 93.1993 117.123 93.722C117.263 94.1931 117.01 94.6779 116.559 94.8048C116.107 94.9318 115.628 94.6528 115.488 94.1816C115.234 93.3242 115.218 92.2689 115.312 91.1962C115.409 90.1049 115.628 88.9102 115.904 87.7329C116.457 85.3781 117.252 83.019 117.82 81.5583C117.993 81.1114 118.49 80.9081 118.929 81.104Z" fill="#FFC000"/>
<path fill-rule="evenodd" clip-rule="evenodd" d="M81.4481 25.8441C81.3951 26.327 80.9541 26.66 80.4631 26.5878C79.3252 26.4206 77.5433 26.134 75.8897 25.8168C75.0634 25.6582 74.2606 25.4904 73.5826 25.3244C72.9287 25.1642 72.317 24.9887 71.9197 24.8015C71.467 24.5882 71.2601 24.0593 71.4575 23.62C71.6549 23.1808 72.1819 22.9976 72.6346 23.2109C72.8418 23.3086 73.2856 23.4474 73.9452 23.6089C74.5807 23.7646 75.3498 23.9258 76.1607 24.0814C77.7816 24.3923 79.5361 24.6745 80.655 24.839C81.146 24.9111 81.5011 25.3611 81.4481 25.8441Z" fill="#FFC000"/>
<path fill-rule="evenodd" clip-rule="evenodd" d="M82.3492 22.545C81.9875 22.7568 81.4865 22.6242 81.2302 22.249C80.5113 21.1966 77.3584 18.3979 71.0496 17.2624C70.6078 17.1829 70.2794 16.7752 70.3161 16.3517C70.3528 15.9282 70.7407 15.6493 71.1825 15.7289C77.8278 16.9249 81.4771 19.9261 82.54 21.4821C82.7963 21.8573 82.7109 22.3332 82.3492 22.545Z" fill="#FFC000"/>
<path fill-rule="evenodd" clip-rule="evenodd" d="M87.4396 17.7274C86.9991 17.7586 86.5994 17.4299 86.5468 16.9932C86.3818 15.6229 86.0193 13.4447 85.4724 11.3871C85.1989 10.3582 84.8837 9.37623 84.5313 8.54761C84.1722 7.70325 83.8029 7.08718 83.4514 6.73102C83.1347 6.41001 83.1296 5.90842 83.4402 5.61067C83.7508 5.31293 84.2594 5.33179 84.5761 5.65279C85.1527 6.23701 85.6216 7.08448 86.0083 7.99391C86.4018 8.91908 86.7401 9.98116 87.0251 11.0536C87.5953 13.1987 87.9701 15.4525 88.142 16.8802C88.1945 17.3169 87.8801 17.6962 87.4396 17.7274Z" fill="#FFC000"/>
<path d="M137.24 41.4652C136.1 41.059 135.035 40.394 133.837 39.5726L133.817 39.5591L133.797 39.5461C133.765 39.5258 133.734 39.5075 133.704 39.4912C133.258 39.2177 132.778 39.2142 132.441 39.2859C132.374 39.2997 132.318 39.3155 132.276 39.3284C132.246 39.3365 132.213 39.3464 132.178 39.3583C132.042 39.4044 131.904 39.4724 131.773 39.5672C131.759 39.5775 131.745 39.5874 131.733 39.5967C131.689 39.6293 131.652 39.659 131.627 39.6803C131.156 40.0505 130.882 40.4351 130.682 40.8452C130.613 40.9864 130.549 41.1394 130.504 41.2487C130.495 41.2692 130.487 41.2881 130.48 41.3052C130.428 41.4306 130.379 41.5409 130.317 41.6613L130.316 41.6627C130.225 41.8391 130.124 42.0266 130.017 42.2242C129.549 43.0913 128.976 44.153 128.689 45.3268C128.689 45.3271 128.689 45.3275 128.689 45.3278L130.146 45.6839M137.24 41.4652L129.426 47.2378M137.24 41.4652C137.314 40.5651 137.387 39.6653 137.456 38.7657C136.667 38.4438 135.76 38.0606 134.916 37.6052C133.74 36.971 132.465 36.087 131.689 34.7922L131.689 34.7917C128.544 29.5384 130.584 24.2343 133.458 21.448L133.475 21.432L133.492 21.4166C135.423 19.6558 137.265 19.039 139.148 18.7613C139.169 18.5204 139.187 18.2759 139.207 18.0247C139.216 17.9034 139.225 17.7804 139.235 17.6556C139.293 16.9051 139.365 16.0996 139.514 15.2763C139.523 15.1847 139.54 15.1001 139.56 15.0228C139.638 14.6544 139.834 14.3078 140.146 14.0508C140.354 13.879 140.575 13.7789 140.775 13.7226C140.974 13.6544 141.216 13.6082 141.489 13.6292L141.497 13.6298L141.497 13.6298C141.794 13.6542 142.089 13.6444 142.477 13.6316C142.645 13.6261 142.831 13.6199 143.042 13.6158C143.613 13.6045 144.351 13.612 145.078 13.8138C145.369 13.8628 145.672 13.9875 145.938 14.219C146.35 14.579 146.542 15.0858 146.531 15.5832L137.24 41.4652ZM130.146 45.6839C130.095 45.8911 130.234 46.0175 130.387 46.0296M130.146 45.6839C130.236 45.3175 130.357 44.9683 130.497 44.6292C130.51 44.5985 130.523 44.5678 130.536 44.5372L130.146 45.6839ZM130.387 46.0296L129.174 46.9129C129.255 47.0238 129.339 47.1321 129.426 47.2378M130.387 46.0296L130.268 47.5249C129.988 47.5028 129.692 47.4119 129.426 47.2378M130.387 46.0296C131.978 48.2138 135.482 49.3956 138.066 49.7721M129.426 47.2378C130.434 48.4584 131.85 49.3355 133.25 49.9516C134.311 50.4187 135.426 50.7643 136.477 51.001M138.066 49.7721L136.57 49.6632C136.537 50.1089 136.506 50.5548 136.477 51.001M138.066 49.7721L137.849 51.2564C137.413 51.1927 136.951 51.108 136.477 51.001M138.066 49.7721C137.954 51.3102 137.858 52.848 137.787 54.3852L136.477 51.001M136.477 51.001C136.403 52.1046 136.34 53.2096 136.289 54.3155C136.267 54.782 136.412 55.2257 136.691 55.5764M136.477 51.001L136.691 55.5764M136.691 55.5764C136.933 55.9092 137.309 56.1949 137.811 56.2951L137.819 56.2969L137.828 56.2985C138.594 56.4423 139.388 56.4754 140.05 56.4891L140.052 56.4892C140.121 56.4905 140.199 56.493 140.285 56.4957C140.673 56.508 141.212 56.5251 141.736 56.4654C142.174 56.4739 142.657 56.3418 143.056 55.9908C143.566 55.5749 143.731 55.0015 143.713 54.518C143.771 53.3224 143.84 52.1312 143.917 50.9426C145.753 50.4988 147.769 49.7798 149.554 48.0572C151.076 46.5906 151.996 44.459 152.269 42.3529C152.542 40.2514 152.198 37.9418 150.886 36.1771C149.967 34.9406 148.741 34.1874 147.583 33.6647C146.896 33.3544 146.146 33.0921 145.478 32.8665C145.664 30.8402 145.843 28.8081 146.003 26.7672C147.019 26.9899 148.042 27.2943 149.07 27.6041L149.074 27.6053C149.79 27.8188 150.495 27.5656 150.922 27.0676C151.181 26.7653 151.349 26.3548 151.35 25.9151C151.434 25.5186 151.513 25.1205 151.611 24.5942L151.611 24.5927C151.618 24.5575 151.625 24.5215 151.631 24.4846C151.727 23.9723 151.851 23.307 151.913 22.7185L151.914 22.7138C151.954 22.3172 151.882 21.9001 151.668 21.5345C151.602 21.3888 151.505 21.227 151.358 21.0724C149.965 19.5968 148.066 19.0974 146.421 18.8303C146.467 17.7543 146.506 16.6726 146.531 15.5843C146.531 15.5846 146.531 15.585 146.531 15.5854L136.691 55.5764ZM145.67 14.0897L145.658 14.081C145.662 14.0834 145.664 14.0853 145.666 14.0865C145.667 14.0876 145.669 14.0889 145.67 14.0897Z" fill="#356799" stroke="#356799" stroke-width="3"/>
<path d="M66.8426 47.6548C66.3137 47.6873 65.7382 47.6608 65.077 47.6093L65.053 47.6075L65.029 47.6064C64.9999 47.605 64.9718 47.6046 64.9449 47.6049C64.4463 47.592 64.0505 47.8161 63.81 48.0299C63.7626 48.0717 63.7246 48.1102 63.6967 48.14C63.6767 48.1603 63.6558 48.1826 63.6344 48.207C63.5387 48.3162 63.4524 48.4463 63.386 48.597C63.3814 48.6075 63.3771 48.6176 63.3731 48.6272C63.3554 48.6676 63.3417 48.7028 63.3321 48.7292C63.1575 49.1702 63.1196 49.5553 63.145 49.9217C63.1534 50.0426 63.1702 50.1705 63.1801 50.2459C63.1818 50.2589 63.1833 50.2704 63.1845 50.28C63.1951 50.364 63.2019 50.4274 63.2051 50.4966L63.2051 50.4982C63.2106 50.6136 63.2141 50.7426 63.218 50.8824C63.236 51.5304 63.2605 52.4115 63.5042 53.2477L66.8426 47.6548ZM66.8426 47.6548C66.7416 47.4421 66.6405 47.2295 66.5392 47.017C66.0636 47.0775 65.5373 47.1324 65.0196 47.1474C64.1071 47.1738 62.9755 47.0912 61.9847 46.5404L61.9841 46.5401C58.1965 44.4325 57.5786 40.4534 58.3497 37.7447L58.356 37.7227L58.3629 37.7008C58.868 36.1124 59.666 35.1136 60.5742 34.3313C60.5621 34.306 60.5499 34.2805 60.5375 34.2549C60.5025 34.1818 60.4667 34.1073 60.4301 34.0308C60.2174 33.5858 59.9855 33.088 59.7909 32.5484C59.7606 32.4784 59.7371 32.4104 59.7188 32.3458C59.6118 32.0092 59.6088 31.632 59.7436 31.2715C59.8322 31.0345 59.9633 30.8494 60.0976 30.7093C60.2257 30.5644 60.3999 30.416 60.6299 30.3058L60.6367 30.3025L60.6368 30.3026C60.7871 30.2315 60.9194 30.1491 61.1194 30.0246C61.2167 29.964 61.3301 29.8934 61.4694 29.8093C61.7929 29.6139 62.2613 29.3458 62.8108 29.1996C63.067 29.1089 63.3665 29.0719 63.6856 29.1345C64.201 29.2357 64.5997 29.5647 64.8237 29.9743M66.8426 47.6548L68.482 37.1047M68.482 37.1047C68.9186 38.0257 69.3477 38.9469 69.7728 39.8669C70.1354 39.799 70.5232 39.735 70.8935 39.6981C71.7726 39.6104 72.8196 39.6323 73.8633 40.0835C75.3504 40.7263 76.3876 42.0547 76.9598 43.4289C77.5339 44.8073 77.7338 46.449 77.31 47.9217C76.8694 49.4555 76.0194 50.5456 75.1719 51.396C75.4633 51.9828 75.7585 52.5684 76.0593 53.1529C76.2886 53.5329 76.4157 54.0668 76.2037 54.6322C76.0493 55.0815 75.7398 55.4004 75.4037 55.5947C75.0923 55.821 74.7494 56.0041 74.5342 56.1191C74.4891 56.1432 74.4496 56.1643 74.4171 56.1822L74.416 56.1828C74.029 56.3957 73.5333 56.6562 73.0063 56.8414L72.998 56.8443L72.9897 56.8471C72.5399 56.9993 72.1035 56.9464 71.7536 56.7937C71.3672 56.639 71.047 56.3493 70.8505 55.9697L68.482 37.1047ZM68.482 37.1047C68.9419 36.9773 69.4198 36.8633 69.911 36.7478L69.915 36.7469C70.6006 36.5837 71.0619 36.0408 71.1766 35.4276C71.2426 35.0748 71.195 34.6791 71.0094 34.3288C70.9297 34.0852 70.8454 33.8389 70.7342 33.5233L70.7337 33.5218C70.7256 33.4988 70.7172 33.4751 70.7086 33.4506C70.5954 33.1297 70.4404 32.69 70.2729 32.3136L70.2709 32.3093C70.1267 31.988 69.8843 31.691 69.5499 31.4944C69.4292 31.4106 69.2779 31.3299 69.0939 31.2749C67.8415 30.9003 66.6256 31.1437 65.6302 31.4797C65.3666 30.9783 65.0983 30.4762 64.8237 29.9743M64.8237 29.9743C64.8241 29.9749 64.8244 29.9756 64.8248 29.9762L63.5078 30.6942L64.8237 29.9743ZM63.5045 53.2486C63.6415 53.7183 63.9837 54.1489 64.5066 54.3524C64.6502 54.4083 64.7942 54.442 64.9355 54.4569C65.9989 54.8371 67.1594 54.8623 68.1817 54.7506C68.8236 54.6805 69.4575 54.5512 70.0493 54.3884C70.3118 54.9169 70.5784 55.444 70.8501 55.969L63.5045 53.2486ZM63.4544 29.1433L63.4394 29.1416C63.4435 29.142 63.4468 29.1424 63.4489 29.1427C63.4527 29.1431 63.4578 29.1438 63.4544 29.1433Z" fill="#356799" stroke="#356799" stroke-width="3"/>
<path d="M143.982 42.3207C144.088 41.1159 144.307 39.491 144.418 38.2898C145.063 38.5525 145.421 38.7611 145.688 39.079C146.697 40.2759 145.916 41.9127 143.982 42.3207ZM140.124 30.8366C137.512 29.1608 138.192 25.8175 140.816 24.6255C140.873 24.5998 140.93 24.5808 140.987 24.557C140.789 26.7245 140.629 28.8945 140.481 31.0483C140.362 30.9773 140.24 30.9112 140.124 30.8366ZM143.126 53.8612C143.238 53.7802 143.268 53.6652 143.251 53.5491C143.328 51.9358 143.426 50.3329 143.536 48.7369C145.604 48.3087 147.725 47.7568 149.553 45.9933C152.013 43.6226 152.752 38.8185 150.722 36.0875C149.307 34.1825 146.83 33.6076 144.916 32.921C145.19 29.9623 145.455 27.0029 145.671 24.0264C147.343 24.2246 149.007 24.7209 150.543 25.1835C150.781 25.2545 150.94 25.0219 150.874 24.8442C150.975 24.3841 151.061 23.9534 151.177 23.3339C151.278 22.7876 151.403 22.1354 151.461 21.5771C151.477 21.4214 151.433 21.3133 151.362 21.2426C151.351 21.2012 151.347 21.1587 151.309 21.1189C149.939 19.6679 147.893 19.4103 145.9 19.1388C145.974 17.6209 146.036 16.0975 146.071 14.5643C146.075 14.3839 145.942 14.2995 145.81 14.3047C145.806 14.3033 145.805 14.3 145.8 14.2991C144.758 13.9761 143.468 14.227 142.414 14.1404C142.365 14.1366 142.311 14.1499 142.262 14.1739C142.174 14.1854 142.089 14.2357 142.066 14.3541C142.065 14.366 142.063 14.3779 142.061 14.3894C142.05 14.4175 142.044 14.4422 142.046 14.4733C141.755 16.0147 141.766 17.5514 141.553 19.13C139.394 19.3208 137.55 19.71 135.542 21.5406C133.037 23.9697 131.315 28.5252 134.016 33.0369C135.152 34.9322 137.974 35.9393 139.953 36.7539C139.995 36.7703 140.033 36.7923 140.075 36.8094C139.937 38.6484 139.787 40.4868 139.631 42.3253C139.493 42.3171 139.358 42.3034 139.228 42.2805C137.252 41.929 135.653 40.9392 134.029 39.8252C134.016 39.8169 134.004 39.816 133.99 39.8085C133.938 39.7616 133.865 39.751 133.788 39.77C133.768 39.7734 133.75 39.7803 133.731 39.7869C133.717 39.7934 133.705 39.7888 133.69 39.7995C133.684 39.8036 133.68 39.8082 133.674 39.8131C133.654 39.8247 133.638 39.8386 133.621 39.8537C133.035 40.3031 133.047 40.6742 132.689 41.3666C132.123 42.4622 131.483 43.4859 131.186 44.6996C131.136 44.9067 131.274 45.0332 131.427 45.0452C133.018 47.2294 136.523 48.4113 139.106 48.7877C138.994 50.3258 138.898 51.8636 138.827 53.4008C138.822 53.521 138.863 53.6163 138.927 53.6836C138.971 53.7585 139.043 53.8194 139.145 53.8399C139.782 53.9595 140.472 53.9916 141.121 54.0051C141.647 54.0155 142.203 54.0538 142.73 53.9744C142.876 53.9993 143.024 53.963 143.126 53.8612Z" fill="#FFC000"/>
<path d="M71.7431 46.3483C71.4062 45.6247 70.995 44.6239 70.6621 43.9008C71.1176 43.838 71.3911 43.8391 71.6483 43.9328C72.6201 44.2838 72.7135 45.4771 71.7431 46.3483ZM65.7485 41.0581C63.7031 40.962 62.9883 38.8271 64.0948 37.2799C64.1187 37.2465 64.1455 37.2166 64.1701 37.1842C64.7719 38.4885 65.3963 39.7815 66.0224 41.0614C65.9312 41.0599 65.8396 41.0624 65.7485 41.0581ZM75.0617 53.2265C75.0993 53.143 75.0783 53.0675 75.0301 53.0069C74.5418 52.0594 74.069 51.1109 73.6052 50.1625C74.6461 49.2353 75.676 48.2201 76.1388 46.6091C76.7627 44.4423 75.5999 41.4528 73.5385 40.5619C72.1008 39.9403 70.4955 40.429 69.175 40.6682C68.3557 38.8866 67.5308 37.1078 66.6721 35.3354C67.6929 34.8971 68.8078 34.6316 69.8381 34.3892C69.9976 34.3512 70.0118 34.1658 69.9153 34.0861C69.8209 33.7899 69.7281 33.5154 69.5899 33.1231C69.4677 32.7773 69.3236 32.3636 69.173 32.025C69.1307 31.9308 69.0697 31.8837 69.0055 31.8668C68.9858 31.8467 68.9694 31.8237 68.9345 31.8136C67.673 31.4362 66.4187 31.9641 65.1897 32.4668C64.7313 31.5747 64.264 30.6836 63.7783 29.7958C63.7213 29.6912 63.6173 29.687 63.5434 29.7335C63.5407 29.734 63.5388 29.7327 63.5356 29.7338C62.8337 29.8929 62.1793 30.4619 61.5484 30.7602C61.5188 30.7744 61.4924 30.7997 61.4724 30.8296C61.4258 30.8653 61.3942 30.9219 61.4202 30.997C61.4232 31.0044 61.4262 31.0117 61.4286 31.0191C61.4315 31.0388 61.4365 31.0548 61.4479 31.0719C61.7904 32.0488 62.3035 32.9234 62.7025 33.896C61.5315 34.7175 60.6062 35.5483 60.0629 37.257C59.4323 39.4721 59.9517 42.6436 62.984 44.3309C64.2585 45.0394 66.2035 44.6838 67.6033 44.4965C67.6328 44.4919 67.6619 44.4918 67.6915 44.4878C68.2194 45.5844 68.7405 46.6844 69.2576 47.7868C69.1766 47.8273 69.0948 47.8641 69.0125 47.8942C67.7673 48.3453 66.5269 48.3072 65.2311 48.2064C65.221 48.2059 65.2137 48.2094 65.2036 48.2095C65.1582 48.2 65.1131 48.218 65.0751 48.2544C65.0648 48.2629 65.057 48.2727 65.0486 48.2826C65.0427 48.2909 65.034 48.2924 65.0292 48.3034C65.0271 48.3077 65.0262 48.3118 65.0242 48.3166C65.0169 48.3297 65.0125 48.3428 65.0077 48.3571C64.8209 48.8074 64.9504 49.0154 64.974 49.5294C65.0122 50.3422 64.9841 51.1386 65.215 51.9301C65.2543 52.0652 65.3752 52.0918 65.4664 52.0484C67.0965 52.7716 69.4895 52.2906 71.0901 51.6534C71.5336 52.5694 71.9863 53.4798 72.4531 54.3817C72.4896 54.4522 72.5444 54.4931 72.6036 54.5103C72.6534 54.5386 72.7143 54.5499 72.7795 54.5278C73.183 54.386 73.5882 54.1766 73.9635 53.9701C74.2676 53.8025 74.5981 53.6409 74.873 53.4217C74.9647 53.3877 75.0368 53.3184 75.0617 53.2265Z" fill="#FFC000"/>
<path d="M129.075 139.232C131.844 135.617 135.425 132.593 138.603 129.326C141.398 126.455 144.77 123.246 147.185 119.99C143.613 113.85 146.461 103.128 149.475 96.2134C151.373 89.8579 153 79.7337 151.165 69.7418C150.904 68.3266 148.744 64.7819 149.762 63.06C149.737 62.9749 149.709 62.8884 149.73 62.794C150.822 57.4921 158.355 61.9855 160.56 63.7336C167.655 69.3539 165.992 79.8556 164.778 87.4966C164.704 87.9565 163.992 87.8438 163.986 87.4009C163.893 81.318 165.283 77.1247 163.446 71.0732C162.214 67.0253 155.286 58.4998 150.809 63.1256C150.807 63.1308 150.809 63.1347 150.807 63.1387C150.211 63.9708 152.265 68.3082 152.578 69.329C153.618 72.7099 153.673 76.2244 153.889 79.718C154.321 86.6776 152.504 90.7438 150.366 97.2578C150.313 97.419 149.563 99.3584 149.333 100.257C147.659 106.756 147.397 113.584 148.455 120.212C148.5 120.486 143.745 127.188 141.98 129.196C138.522 133.136 134.534 137.734 129.754 140.083C129.172 140.368 128.696 139.728 129.075 139.232Z" fill="#356799"/>
<path d="M167.397 110.533C170.322 106.338 174.658 102.46 179.229 100.895C183.319 99.4911 188.412 99.2513 192.008 101.935C192.992 97.7797 192.282 92.7582 187.5 91.3089C184.524 90.406 179.984 91.8973 177.459 93.0871C174.728 94.3779 160.405 109.294 167.397 110.533ZM171.221 83.5997C174.462 80.992 179.897 77.8313 184.317 78.9753C190.083 80.4731 191.189 84.2379 190.866 89.6578C190.834 90.1806 190.112 90.1885 190.061 89.6709C189.415 83.3232 186.204 78.1209 178.375 81.9499C175.833 83.1909 173.818 84.6192 171.477 86.269C165.839 90.2344 157.827 99.9576 165.01 102.858C167.475 98.0274 171.876 93.8734 176.396 91.3325C180.469 89.0419 186.514 88.3814 190.622 90.7454C194.533 92.9954 194.562 99.1307 192.99 102.844C195.312 105.557 194.438 109.808 193.097 113.064C193.619 113.65 194.079 114.318 194.444 115.098C196.067 118.586 192.367 122.982 190.542 125.546C187.742 129.482 183.394 132.487 179.114 134.579C177.512 135.358 174.489 136.446 172.239 136.306C171.764 136.818 170.953 138.146 170.811 138.392C169.965 139.845 168.738 141.274 167.733 142.643C166.328 144.555 165.191 147.206 163.128 148.502C162.734 148.749 162.274 148.282 162.494 147.887C164.108 144.977 166.141 142.42 167.943 139.617C168.654 138.51 169.594 137.412 170.536 136.502C170.681 136.362 170.797 136.201 170.912 136.042C170.901 136.037 170.888 136.037 170.878 136.032C170.141 135.717 170.687 134.719 171.364 134.824C174.723 135.333 179.473 132.415 182.081 130.775C186.419 128.046 189.997 123.828 192.196 119.232C196.942 109.305 180.794 112.386 176.965 114.541C174.812 115.751 172.744 117.56 171.264 119.544C169.667 121.502 169.991 125.691 174.484 124.571C176.468 124.059 178.208 122.619 179.741 121.351C180.198 120.97 180.808 121.535 180.41 121.999C178.139 124.647 175.728 126.555 172.137 126.623C169.554 126.672 168.332 124.33 168.408 122.155C168.678 114.459 179.723 110.664 185.781 110.328C188.27 110.189 190.547 110.83 192.279 112.278C193.112 109.703 193.378 107.23 191.922 104.109C190.263 100.556 184.1 101.572 181.157 102.281C176.264 103.463 161.033 116.343 167.792 120.726C168.23 121.011 167.819 121.76 167.29 121.623C163.553 120.642 164.127 116.317 165.524 113.583C165.831 112.982 166.181 112.378 166.555 111.779C164.006 111.843 162.709 109.883 163.474 106.857C163.73 105.849 164.091 104.859 164.518 103.889C161.186 103.739 159.884 100.992 160.29 97.9894C161.127 91.8331 166.737 87.2112 171.221 83.5997Z" fill="#356799"/>
<path d="M186.086 135.673C189.363 134.666 191.945 132.418 194.3 130.066C194.68 129.684 195.237 130.237 194.892 130.638C192.65 133.249 190.347 134.674 187.488 136.556C185.951 137.566 183.532 137.994 181.851 138.809C181.075 139.182 180.451 139.193 179.634 139.072C179.269 139.018 179.189 138.434 179.517 138.275C181.636 137.262 183.84 136.363 186.086 135.673Z" fill="#356799"/>
<path d="M187.501 139.16C189.059 138.514 190.406 137.737 191.655 136.589C192.073 136.202 192.692 136.787 192.292 137.208C191.003 138.556 189.504 139.647 187.612 139.893C187.161 139.95 187.146 139.306 187.501 139.16Z" fill="#356799"/>
<path d="M171.617 134.88C169.037 134.451 162.751 134.061 158.657 127.483C157.829 126.343 158.199 137.048 168.873 138.914C171.383 136.602 171.617 134.88 171.617 134.88Z" fill="#356799"/>
<path d="M161.421 97.3125C159.108 100.676 158.39 105.011 161.666 106.485C160.009 110.734 161.258 113.939 164.206 114.594C161.34 120.245 163.946 123.712 166.908 124.504C166.335 127.042 168.55 129.575 173.215 128.435C177.88 127.295 180.409 122.002 180.409 122.002C175.344 125.978 170.506 127.483 169.365 121.473C166.827 120.49 163.842 118.262 167.675 111.527C165.498 110.697 163.218 108.003 165.706 103.443C163.528 103.027 159.762 102.494 161.421 97.3125Z" fill="#356799"/>
<path d="M100.925 139.232C98.1562 135.617 94.5748 132.593 91.3971 129.326C88.602 126.455 85.2303 123.246 82.8152 119.99C86.3874 113.85 83.5386 103.128 80.5246 96.2134C78.6271 89.8579 76.9996 79.7337 78.8355 69.7418C79.0963 68.3266 81.2558 64.7819 80.2376 63.06C80.2625 62.9749 80.2914 62.8884 80.2704 62.794C79.1775 57.4921 71.6453 61.9855 69.4398 63.7336C62.3453 69.3539 64.0082 79.8556 65.2216 87.4966C65.2963 87.9565 66.0079 87.8438 66.0144 87.4009C66.1075 81.318 64.7171 77.1247 66.5543 71.0732C67.7861 67.0253 74.7142 58.4998 79.1906 63.1256C79.1932 63.1308 79.1906 63.1347 79.1932 63.1387C79.7895 63.9708 77.7347 68.3082 77.4216 69.329C76.3824 72.7099 76.3274 76.2244 76.1111 79.718C75.6787 86.6776 77.4963 90.7438 79.6335 97.2578C79.6873 97.419 80.4368 99.3584 80.6674 100.257C82.3408 106.756 82.6029 113.584 81.5454 120.212C81.4996 120.486 86.255 127.188 88.0202 129.196C91.4783 133.136 95.4659 137.734 100.246 140.083C100.828 140.368 101.304 139.728 100.925 139.232Z" fill="#356799"/>
<path d="M62.6026 110.533C59.6778 106.338 55.3416 102.46 50.7709 100.895C46.6811 99.4911 41.5875 99.2513 37.9918 101.935C37.0076 97.7797 37.7179 92.7582 42.4996 91.3089C45.4755 90.406 50.0161 91.8973 52.5413 93.0871C55.2722 94.3779 69.5949 109.294 62.6026 110.533ZM58.7788 83.5997C55.5382 80.992 50.1026 77.8313 45.6826 78.9753C39.9168 80.4731 38.8108 84.2379 39.1344 89.6578C39.1659 90.1806 39.8879 90.1885 39.939 89.6709C40.5851 83.3232 43.7956 78.1209 51.6253 81.9499C54.1675 83.1909 56.1816 84.6192 58.5233 86.269C64.1607 90.2344 72.1725 99.9576 64.9902 102.858C62.5253 98.0274 58.1236 93.8734 53.604 91.3325C49.5312 89.0419 43.4863 88.3814 39.3782 90.7454C35.4666 92.9954 35.4378 99.1307 37.0103 102.844C34.6882 105.557 35.5623 109.808 36.9028 113.064C36.3813 113.65 35.9213 114.318 35.5557 115.098C33.9334 118.586 37.6327 122.982 39.4581 125.546C42.2585 129.482 46.6064 132.487 50.8862 134.579C52.4875 135.358 55.5106 136.446 57.7606 136.306C58.2363 136.818 59.0474 138.146 59.189 138.392C60.0355 139.845 61.262 141.274 62.2671 142.643C63.6719 144.555 64.8093 147.206 66.8719 148.502C67.2663 148.749 67.7263 148.282 67.5061 147.887C65.8917 144.977 63.8593 142.42 62.0575 139.617C61.3459 138.51 60.4063 137.412 59.4642 136.502C59.3187 136.362 59.2034 136.201 59.0881 136.042C59.0986 136.037 59.1117 136.037 59.1221 136.032C59.8586 135.717 59.3135 134.719 58.636 134.824C55.2774 135.333 50.5272 132.415 47.9194 130.775C43.5807 128.046 40.0032 123.828 37.8044 119.232C33.0581 109.305 49.2063 112.386 53.0353 114.541C55.1883 115.751 57.2561 117.56 58.7356 119.544C60.333 121.502 60.0093 125.691 55.5159 124.571C53.5319 124.059 51.7917 122.619 50.2585 121.351C49.8025 120.97 49.1918 121.535 49.5902 121.999C51.8612 124.647 54.2723 126.555 57.8628 126.623C60.4457 126.672 61.6683 124.33 61.5923 122.155C61.3223 114.459 50.2769 110.664 44.2188 110.328C41.7304 110.189 39.4529 110.83 37.7205 112.278C36.8884 109.703 36.6224 107.23 38.0783 104.109C39.7372 100.556 45.9001 101.572 48.8433 102.281C53.7364 103.463 68.9673 116.343 62.2082 120.726C61.7705 121.011 62.1806 121.76 62.71 121.623C66.4473 120.642 65.8734 116.317 64.4765 113.583C64.1685 112.982 63.8187 112.378 63.4452 111.779C65.9939 111.843 67.2912 109.883 66.526 106.857C66.2704 105.849 65.9088 104.859 65.4816 103.889C68.8139 103.739 70.1165 100.992 69.7103 97.9894C68.8729 91.8331 63.263 87.2112 58.7788 83.5997Z" fill="#356799"/>
<path d="M43.914 135.673C40.6367 134.666 38.0552 132.418 35.7003 130.066C35.3203 129.684 34.7634 130.237 35.108 130.638C37.3502 133.249 39.6525 134.674 42.5119 136.556C44.049 137.566 46.468 137.994 48.1492 138.809C48.925 139.182 49.5488 139.193 50.3665 139.072C50.7308 139.018 50.8107 138.434 50.4831 138.275C48.3642 137.262 46.16 136.363 43.914 135.673Z" fill="#356799"/>
<path d="M42.499 139.16C40.9412 138.514 39.5937 137.737 38.3453 136.589C37.9271 136.202 37.3079 136.787 37.7081 137.208C38.9966 138.556 40.4963 139.647 42.3884 139.893C42.8394 139.95 42.8541 139.306 42.499 139.16Z" fill="#356799"/>
<path d="M58.3828 134.88C60.963 134.451 67.2491 134.061 71.3428 127.483C72.171 126.343 71.8014 137.048 61.1268 138.914C58.6174 136.602 58.3828 134.88 58.3828 134.88Z" fill="#356799"/>
<path d="M68.5787 97.3125C70.8915 100.676 71.6097 105.011 68.3336 106.485C69.9913 110.734 68.7425 113.939 65.794 114.594C68.6599 120.245 66.0535 123.712 63.092 124.504C63.6646 127.042 61.45 129.575 56.785 128.435C52.1199 127.295 49.5908 122.002 49.5908 122.002C54.6556 125.978 59.4936 127.483 60.635 121.473C63.1732 120.49 66.1583 118.262 62.3254 111.527C64.502 110.697 66.7821 108.003 64.2936 103.443C66.4715 103.027 70.2377 102.494 68.5787 97.3125Z" fill="#356799"/>
<rect x="3" y="3" width="70" height="70" rx="35" fill="#FFF7E6"/>
<path d="M37.6454 49.336C36.5254 49.336 35.4707 49.1307 34.4814 48.72C33.5107 48.3093 32.6707 47.7307 31.9614 46.984C31.2707 46.2373 30.7761 45.36 30.4774 44.352L33.2774 43.288C33.6507 44.2773 34.2201 45.0427 34.9854 45.584C35.7507 46.1253 36.6374 46.396 37.6454 46.396C38.4667 46.396 39.1761 46.2373 39.7734 45.92C40.3894 45.6027 40.8654 45.1547 41.2014 44.576C41.5561 43.9973 41.7334 43.2973 41.7334 42.476C41.7334 41.6733 41.5561 40.9827 41.2014 40.404C40.8654 39.8253 40.3894 39.3867 39.7734 39.088C39.1761 38.7893 38.4667 38.64 37.6454 38.64C37.3094 38.64 36.9641 38.668 36.6094 38.724C36.2734 38.78 35.9747 38.8547 35.7134 38.948L34.9854 37.408L40.4734 30.94H31.5974V28.14H44.1694V30.8L38.7934 37.24L38.7094 36.176C39.9601 36.1947 41.0614 36.4747 42.0134 37.016C42.9654 37.5387 43.7027 38.2667 44.2254 39.2C44.7667 40.1147 45.0374 41.1787 45.0374 42.392C45.0374 43.6987 44.7201 44.884 44.0854 45.948C43.4507 46.9933 42.5734 47.824 41.4534 48.44C40.3521 49.0373 39.0827 49.336 37.6454 49.336Z" fill="#CC9900"/>
<rect x="3" y="3" width="70" height="70" rx="35" stroke="white" stroke-width="6"/>
</svg>
