<svg width="195" height="161" viewBox="0 0 195 161" fill="none" xmlns="http://www.w3.org/2000/svg">
<path d="M48.2498 99.5004L49.4998 102C54.4998 88.2504 63.2498 98.2504 61.9998 109.5L93.2498 112C94.4998 84.5004 109.5 93.2504 108.25 114.5H184.5C185.493 110.909 185.577 108.767 184.5 104.5H183.25V80.7504C181.609 72.289 179.191 68.2066 169.5 63.2504V55.7504C168.172 54.5221 167.077 54.541 165.75 55.7504L163.25 42.0004C157.169 35.6377 153.617 34.3751 147 34.5004H98.2498L94.4998 38.2504L93.2498 87.0004L44.4998 84.5004L43.2498 93.2504H49.4998L48.2498 99.5004Z" fill="#FFC000"/>
<path d="M147.67 87.7142C152.075 87.4554 156.35 87.4467 160.765 87.5667C165.282 87.6879 169.907 87.3929 174.401 87.7654C174.622 87.7842 174.552 88.0229 174.37 88.0479C169.935 88.6341 165.3 88.4629 160.818 88.4929C156.415 88.5216 151.968 88.5979 147.63 88.0779C147.358 88.0467 147.415 87.7292 147.67 87.7142Z" fill="#356799" stroke="#356799"/>
<path d="M147.67 91.8782C152.075 91.6195 156.35 91.6107 160.765 91.7307C165.282 91.852 169.907 91.557 174.401 91.9295C174.622 91.9482 174.552 92.187 174.37 92.212C169.935 92.7982 165.3 92.627 160.818 92.657C156.415 92.6857 151.968 92.762 147.63 92.242C147.358 92.2107 147.415 91.8932 147.67 91.8782Z" fill="#356799" stroke="#356799"/>
<path d="M148.471 96.0501C152.611 95.7913 156.627 95.7826 160.776 95.9026C165.021 96.0238 169.368 95.7288 173.591 96.1013C173.8 96.1201 173.732 96.3588 173.561 96.3838C169.393 96.9701 165.038 96.7988 160.827 96.8288C156.688 96.8576 152.511 96.9338 148.433 96.4138C148.18 96.3826 148.232 96.0651 148.471 96.0501Z" fill="#356799" stroke="#356799"/>
<path d="M160.809 100.067C164.403 100.189 168.083 99.8929 171.658 100.265C171.834 100.284 171.778 100.523 171.633 100.548C168.104 101.134 164.418 100.963 160.853 100.993C157.349 101.023 153.813 101.098 150.36 100.578C150.145 100.547 150.189 100.229 150.393 100.214C153.898 99.9554 157.296 99.9467 160.809 100.067Z" fill="#356799" stroke="#356799"/>
<path d="M155.21 39.1437C150.169 38.195 145.722 38.4875 138.262 38.4875H124.981C123.887 38.4875 121.96 38.4362 120.355 38.4225C120.066 38.42 120.051 37.9162 120.346 37.8625C121.491 37.655 124.367 37.7012 126.304 37.7537C129.117 37.8312 131.895 37.8862 134.715 37.855C141.379 37.7825 150.757 37.2112 155.349 38.7025C159.236 39.7275 161.481 47.2362 162.074 50.4162C162.75 54.0425 162.637 59.3737 162.535 61.6825C162.515 62.1487 161.982 62.2462 161.96 61.77C161.804 58.4362 161.804 57.4462 161.595 54.0612C161.369 50.3787 159.866 40.6737 155.21 39.1437Z" fill="#356799" stroke="#356799"/>
<path d="M98.04 105.236C97.96 105.4 97.6725 105.287 97.7413 105.113C98.335 103.595 99.3788 103.158 100.636 104.208C103.035 106.212 103.066 110.952 102.598 113.677C102.343 115.155 101.116 120.148 98.9975 120.181C96.6138 120.217 96.4175 114.392 96.4588 113.126C96.4675 112.878 96.8075 112.883 96.8375 113.122C97.0888 115.082 97.3775 118.23 98.4588 118.986C99.0963 119.167 99.6588 118.672 99.9963 118.198C100.998 117.003 101.445 115.831 101.801 114.351C102.301 112.275 102.211 109.935 101.834 107.853C101.603 106.576 99.46 102.358 98.04 105.236Z" fill="#356799" stroke="#356799"/>
<path d="M52.8754 102.36C52.8179 102.49 52.6117 102.399 52.6617 102.26C53.0879 101.039 53.8354 100.689 54.7342 101.534C56.4517 103.143 56.4754 106.951 56.1392 109.141C55.9567 110.328 55.0779 114.341 53.5604 114.365C51.8554 114.396 51.7129 109.716 51.7429 108.698C51.7492 108.5 51.9917 108.503 52.0142 108.694C52.1942 110.269 52.3242 112.929 53.1742 113.406C53.4704 113.529 54.0342 113.154 54.2754 112.773C54.9929 111.813 55.3117 110.87 55.5679 109.681C55.9267 108.014 55.8629 106.134 55.5917 104.461C55.4267 103.435 53.8917 100.046 52.8754 102.36Z" fill="#356799" stroke="#356799"/>
<path d="M81.0053 80.7643C80.3903 80.5105 80.2753 79.9568 80.219 79.4268C80.144 78.7093 80.4828 79.0618 80.5265 79.2405C80.8853 80.7018 82.0378 80.468 82.404 79.5855C82.7415 78.733 82.7928 77.7805 82.799 76.878C82.8015 76.4755 82.709 76.0805 82.6053 75.6943C82.519 75.3743 82.3778 75.073 82.164 74.8193C81.3953 73.9068 80.7728 75.8955 80.729 76.138C80.6928 76.338 80.349 76.2993 80.3715 76.0955C80.4753 75.1993 81.029 74.028 82.104 74.2055C82.9628 74.3455 83.1965 75.8718 83.2853 76.5193C83.4278 77.5718 83.349 79.9655 82.339 80.6843C81.899 80.998 81.4978 80.9668 81.0053 80.7643Z" fill="#356799" stroke="#356799"/>
<path d="M55.6843 80.1863C55.2905 80.0651 55.043 79.4326 54.988 78.8588C54.9293 78.2338 55.1893 78.3113 55.2418 78.6863C55.3755 79.6476 56.3093 80.1351 56.788 79.0063C57.0655 78.2163 57.1093 77.3326 57.1143 76.4951C57.1168 76.1226 57.0405 75.7563 56.9543 75.3988C56.8843 75.1026 56.7668 74.8226 56.5918 74.5876C55.9568 73.7401 55.4455 75.5851 55.408 75.8088C55.378 75.9938 55.0943 75.9588 55.113 75.7701C55.198 74.9388 55.6543 73.8538 56.5418 74.0163C57.2493 74.1476 57.4405 75.5626 57.5155 76.1626C57.633 77.1388 57.568 79.3588 56.7355 80.0238C56.3718 80.3163 56.1118 80.3163 55.6843 80.1863Z" fill="#356799" stroke="#356799"/>
<path d="M76.2406 41.7316C76.4518 41.7129 76.5056 42.0404 76.2956 42.0754C74.7668 42.3354 75.2406 48.2066 75.1306 50.4779C75.0131 52.9241 75.1356 55.3941 75.2093 57.8441C75.2406 58.9066 75.0943 59.1266 76.1931 59.2354C77.6893 59.3854 79.0718 59.4579 80.5156 59.4841C80.5343 59.1966 80.5931 58.9004 80.7143 58.6016C81.4481 56.7941 84.0206 56.6141 85.6043 57.6091C85.7106 56.7179 85.6468 55.7529 85.6481 55.2054C85.6593 51.1279 84.0031 42.4791 78.6681 41.5991C78.4043 41.5554 78.5118 41.1929 78.7706 41.2291C84.4231 42.0016 86.2856 50.8679 86.2981 55.1954C86.3018 56.2154 86.3506 57.2291 86.2006 58.0804C86.5318 58.4266 86.7681 58.8516 86.8543 59.3466C86.8918 59.5629 86.5793 59.6654 86.5206 59.4441C86.0331 57.6291 83.1093 56.9441 81.8118 58.2979C80.8081 59.3454 81.4081 60.7866 82.6343 61.2404C83.6756 61.6254 85.1643 61.6479 86.3656 60.7704C86.5568 60.6304 86.8243 60.9241 86.6356 61.1104C86.1156 61.6279 85.2981 62.1504 84.4993 62.1941C83.6481 62.2404 82.7768 62.3179 81.9968 61.9104C81.2343 61.5116 80.7456 60.8979 80.5768 60.1879C78.5831 60.1216 76.5606 59.9066 75.3531 59.6929C74.8368 59.6016 74.4706 59.1991 74.5156 58.0616C74.6531 54.5854 74.6406 50.1554 74.8281 46.1791C74.8831 45.0079 74.5393 41.8741 76.2406 41.7316Z" fill="#356799" stroke="#356799"/>
<path d="M67.5352 45.5832C65.4415 49.0307 64.2152 52.4607 63.8215 56.8344C63.7065 58.1132 63.9227 59.0307 65.0202 59.1582C65.509 59.2144 69.079 59.1232 69.649 59.0607C72.3165 58.7669 72.3352 58.5882 72.5652 56.5994C72.7765 54.7819 72.769 51.9319 72.8865 50.1219C73.029 47.9307 73.0627 46.4657 73.0765 44.5307C73.0927 41.6719 72.4327 42.0007 70.6327 42.5757C70.4552 42.6319 70.3865 42.3182 70.5552 42.2369C71.4677 41.7907 72.2665 41.0282 73.1677 41.8219C73.8615 42.4332 73.489 46.8969 73.489 48.4969C73.489 51.2094 73.3377 54.8432 73.119 56.7469C72.9065 58.5944 73.0552 59.3082 71.3615 59.5644C69.9265 59.7807 68.7227 59.8832 67.2602 59.8832C66.6227 59.8832 65.0602 59.9244 64.4102 59.7257C63.5115 59.4507 63.3302 58.9094 63.229 58.2619C62.5802 54.1282 64.8952 47.7457 67.3377 45.2757C67.4927 45.1207 67.6352 45.4182 67.5352 45.5832Z" fill="#356799" stroke="#356799"/>
<path d="M57.9095 84.515C57.8057 84.64 57.6257 84.8063 57.4145 84.9675C58.4595 85.0113 59.5045 85.0563 60.5495 85.0925C61.8757 84.3788 62.617 82.905 62.9845 80.7613C62.0057 80.6913 61.1795 80.6163 60.7995 80.5463C60.572 80.5925 60.3557 80.4425 60.347 80.2113C60.2995 78.8588 60.5582 77.4088 60.5782 76.0225C60.5945 74.7063 60.9182 72.3588 59.5257 70.4663C59.2795 70.1313 59.542 69.98 59.7082 70.1513C60.5932 71.055 60.8782 72.36 60.9845 73.41C61.1382 74.9238 60.9832 79.02 61.1732 79.8225C66.0545 80.1075 71.0807 80.755 78.1845 80.6888C77.8845 78.6913 78.0282 76.5775 78.322 74.6813C78.752 71.905 80.202 68.32 83.482 69.705C86.8295 71.1175 86.2795 77.5375 85.9507 79.1363C85.9045 79.3588 85.572 79.3738 85.5932 79.1413C85.772 77.3025 85.777 74.885 85.302 73.0625C85.047 72.0838 84.4495 71.115 83.647 70.5075C80.6332 68.2288 79.6057 72.5238 79.1795 73.9788C78.3795 76.7025 78.5595 79.535 79.357 82.2213C80.0282 84.4788 82.262 86.655 84.0307 83.8288C84.5595 82.9825 84.812 82.2663 85.2145 80.9913C85.2932 80.7388 85.6295 80.9325 85.6032 81.1488C85.3932 82.8975 84.9795 84.2288 83.7657 85.5313C83.6495 85.655 83.4582 85.8175 83.232 85.9775C84.4357 86.0113 85.6495 86.045 86.8807 86.0738C86.8907 86.0675 86.8907 86.0613 86.902 86.055C88.2707 85.3975 89.4857 83.8463 89.6932 82.3238C89.387 82.31 89.0795 82.2988 88.7682 82.29C87.977 82.2663 86.922 82.305 86.7682 81.8413C86.4445 80.8638 86.8282 79.5388 86.8708 78.4963C86.9657 76.1625 87.0207 73.4363 86.1407 71.2513C86.0682 71.0725 86.372 70.94 86.4507 71.115C87.6645 73.815 87.3682 76.9213 87.4007 79.82C87.412 80.8238 87.0845 81.4538 88.362 81.5388C90.402 81.6763 91.4245 81.7163 93.072 81.72C93.0845 81.3388 93.0932 80.97 93.1032 80.6175C93.2395 75.3525 93.477 70.0863 93.497 64.8225C93.5007 64.0038 93.5057 63.2325 93.512 62.4838C92.1307 61.68 90.6545 60.9363 89.1695 60.3675C88.9482 60.2825 88.7595 60.1125 88.7657 59.8538C88.8245 57.0025 88.4207 54.17 88.0457 51.3488C87.5182 47.3725 85.102 40.1163 80.512 39.2288C80.3257 39.1925 80.3595 38.8763 80.552 38.8925C85.1482 39.3 87.8682 46.605 88.6057 50.3713C89.137 53.0863 89.3682 55.785 89.7357 58.5088C89.962 60.17 92.1995 60.4488 93.5207 61.6013C93.607 54.6163 93.872 50.375 94.2145 43.6563C94.1507 42.7275 94.1157 41.8013 94.1095 40.875C91.1032 40.8188 88.3145 40.8063 85.1257 40.5625C84.9132 40.5463 84.9432 40.1813 85.1732 40.1763C87.8682 40.1138 91.6682 40.4475 94.1045 40.495C94.1095 39.8125 94.132 39.13 94.192 38.4488C86.0732 38.1738 79.4445 36.855 71.9995 39.4925C67.392 41.1275 64.3607 45.6525 62.8982 50.04C61.8882 53.0738 60.3982 57.305 59.9995 60.305C59.9632 60.5825 59.7757 60.8663 59.4695 60.8513C59.447 60.85 59.427 60.85 59.4057 60.8488C56.2395 61.305 53.8107 62.1013 52.4457 65.4388C51.5707 67.5788 51.067 69.9463 50.8707 72.3163C50.712 74.225 50.5145 76.655 50.812 78.595C51.6307 78.7188 52.3945 78.825 53.2107 78.9775C53.1157 77.4475 53.227 75.8838 53.4245 74.4525C53.7782 71.88 54.9732 68.555 57.6757 69.8388C60.4357 71.1488 60.0607 76.7975 59.722 78.4913C59.6807 78.6963 59.4107 78.71 59.4282 78.495C59.617 76.095 59.5682 74.6425 59.1782 72.9525C58.967 72.0438 58.4757 71.1463 57.8132 70.5838C55.3295 68.47 54.4832 72.4538 54.132 73.8025C53.4707 76.3275 53.6195 78.9538 54.2782 81.445C54.8307 83.5375 56.6757 85.4863 58.1332 82.8663C58.5682 82.0825 58.8457 81.6425 59.097 80.47C59.1757 80.1063 59.4457 80.25 59.4257 80.45C59.252 82.0725 58.6545 83.6213 57.9095 84.515ZM67.097 85.3488C69.7707 85.4788 72.3782 85.5913 74.977 85.6938C74.5007 85.3913 74.1982 84.9038 73.952 84.2888C73.732 83.7413 73.5307 83.1888 73.4507 82.6075C73.3695 82.0238 73.292 81.65 73.3945 81.2338C71.417 81.1563 69.5657 81.0663 67.592 81.0025C66.5745 80.97 64.9007 80.89 63.4407 80.7913C63.2457 82.7788 62.6907 84.0025 62.0782 84.7663C61.9695 84.9013 61.847 85.025 61.7182 85.135C63.5107 85.1988 65.3045 85.2625 67.097 85.3488ZM78.5495 82.2775C78.4382 83.5788 77.9257 85.1725 76.9057 85.7688C78.1432 85.8138 79.382 85.8563 80.6282 85.8963C79.5945 84.8738 78.947 83.625 78.5495 82.2775ZM77.0995 81.3438C77.0557 81.905 76.772 82.8488 76.242 83.1475C75.6445 83.485 75.3007 82.7913 75.1095 82.3113C75.0282 82.1113 75.322 82.0188 75.4332 82.1688C75.6007 82.3975 75.872 82.9725 76.1832 82.6475C76.4895 82.3288 76.737 81.78 76.7895 81.3388C75.7732 81.3175 74.8157 81.2863 73.892 81.2538C73.9457 82.4575 74.327 84.3388 75.1632 85.2088C76.1482 86.2325 77.4082 84.64 77.7157 83.8163C77.9882 83.0825 78.2095 82.1613 78.1707 81.3625C77.8045 81.3575 77.4507 81.3513 77.0995 81.3438ZM92.9257 86.1975C92.9657 84.8863 93.0095 83.6288 93.047 82.4638C92.0132 82.4338 91.0607 82.3838 90.122 82.3425C90.0382 83.485 89.5107 84.7225 88.8945 85.47C88.7032 85.7025 88.517 85.93 88.3157 86.105C89.822 86.14 91.3545 86.17 92.9257 86.1975ZM182.503 95.0263C182.505 94.26 182.517 93.4875 182.532 92.7125C180.224 93.5725 177.703 94.9738 176.34 96.9175C174.967 98.87 174.727 101.669 174.497 104.021C177.169 104.065 179.87 104.158 182.607 104.305C182.108 101.318 182.497 98.0275 182.503 95.0263ZM166.02 105.45C159.836 105.231 153.655 105.628 147.468 105.641C142.302 105.654 137.137 105.65 131.966 105.649C132.006 107.149 132.021 108.651 132.044 110.151C132.059 111.128 132.149 112.095 132.177 113.071C132.189 113.508 132.096 113.824 132.012 114.161C136.465 114.168 140.917 114.174 145.37 114.18C148.596 114.186 178.973 115.198 183.918 114.376C184.911 113.503 184.806 111.42 184.817 111.053C184.901 108.433 184.821 106.548 184.898 105.379C178.337 105.764 172.608 105.683 166.02 105.45ZM146.908 104.029C146.732 100.083 145.791 97.5725 142.586 95.1338C141.043 93.9613 139.408 93.3975 137.762 92.8425C137.176 92.645 136.628 92.5413 136.072 92.3538C136.051 96.2563 135.946 104.169 135.538 104.105C135.566 104.11 135.586 104.125 135.611 104.133C139.384 104.133 143.158 104.133 146.933 104.139C146.927 104.101 146.909 104.073 146.908 104.029ZM150.437 121.065C151.84 120.521 152.321 118.814 152.683 117.444C152.703 117.366 152.588 117.318 152.567 117.395C152.223 118.683 151.089 120.795 149.341 120.54C148.118 120.363 147.198 119.065 146.851 117.918C146.827 117.839 146.717 117.881 146.733 117.961C147.103 119.815 148.446 121.839 150.437 121.065ZM88.8145 113.656C88.7345 114.364 88.0445 115.363 87.1032 115.231C86.282 115.118 86.237 114.341 85.7607 113.761C85.7532 113.755 85.737 113.759 85.7357 113.769C85.6095 114.708 86.3532 115.886 87.4182 115.751C88.4157 115.625 88.8382 114.565 88.9357 113.681C88.9445 113.603 88.822 113.576 88.8145 113.656ZM43.4632 89.1788C43.5332 87.2263 43.5732 86.2225 43.7307 84.895C43.727 84.8013 43.7383 84.7125 43.762 84.6325V84.63C43.762 84.63 43.7632 84.63 43.7632 84.6288C43.7995 84.5013 43.8645 84.405 43.9595 84.4038C45.8457 84.375 49.2045 84.4763 52.682 84.715C53.5832 84.7775 54.4845 84.8225 55.3857 84.8688C54.1407 83.5038 53.5232 81.7225 53.2982 79.8225C52.9357 79.825 52.4457 79.7863 51.8457 79.7563C51.287 79.7288 50.5545 79.6625 50.267 79.575C50.007 79.495 49.8945 79.3 49.8882 79.1C49.3857 78.0663 49.5807 75.7338 49.617 74.8838C49.7732 71.2113 50.1507 69.2875 50.8432 67.075C52.2432 62.6025 54.442 60.565 59.0332 60.1838C59.0657 60.0213 59.522 58 59.5782 57.7738C59.9295 56.3675 61.0232 52.6275 61.8545 50.135C63.0782 46.4675 64.9557 42.92 68.1657 40.6038C75.5395 35.28 85.872 37.2013 94.3545 37.2488C94.387 37.0425 94.377 36.83 94.442 36.63C95.5407 33.2513 101.903 33.1225 104.492 33.125C109.244 33.13 113.959 33.2463 118.704 33.3863C128.807 33.6838 138.508 33.4913 148.591 33.85C148.754 33.795 152.096 34.18 152.68 34.3225C154.243 34.7013 155.751 35.3888 157.227 35.9838C160.185 37.1763 162.255 39.6388 163.442 42.34C164.848 45.5388 165.015 48.6975 165.702 52.025C166.396 55.3875 166.56 59.3425 166.496 62.2163C167.091 62.4463 168.035 62.8538 168.762 63.175C168.952 61.425 169.08 59.7163 169.146 57.9475C169.16 57.585 169.143 55.7688 168.967 55.5113C168.667 55.075 167.848 54.805 167.514 55.6475C167.436 55.8463 167.087 55.8538 167.105 55.5988C167.182 54.4925 169.253 54.1763 169.681 55.1838C170.747 57.6963 170.254 61.0988 169.979 63.71C169.978 63.7175 169.975 63.7225 169.973 63.7288C172.103 64.7563 173.992 65.8938 176.055 67.0563C179.346 68.9125 181.563 72.0188 182.682 75.5575C184.085 79.9963 184.157 84.595 184.17 89.23C184.185 94.145 184.613 99.2788 184.186 104.165C184.18 104.24 184.162 104.316 184.141 104.39C184.471 104.41 184.793 104.423 185.123 104.444C185.476 104.469 185.617 104.808 185.553 105.069C185.56 105.078 185.567 105.083 185.568 105.095C185.742 106.566 185.751 108.08 185.799 109.559C185.817 110.14 185.658 114.636 185.152 115.159C184.812 115.509 184.403 115.54 183.983 115.484C180.261 116.026 175.142 115.848 170.216 115.793C170.05 116.644 169.875 117.411 169.682 118.258C169.378 119.604 168.731 120.824 168.075 121.996C167.2 123.56 164.981 125.413 163.093 125.834C163.08 125.839 163.075 125.849 163.058 125.854C161.24 126.35 156.637 126.094 153.694 126.045C156.427 124.554 158.213 120.979 158.117 116.43C158.116 116.35 158.003 116.385 157.997 116.465C157.701 120.38 156.182 123.708 153.479 125.22C152.156 125.961 150.278 125.956 149.656 125.784C147.623 125.399 145.497 123.255 144.781 121.736C143.868 119.801 143.513 117.706 143.356 115.609C136.878 115.615 130.401 115.631 123.923 115.638C122.573 115.639 121.124 115.62 119.663 115.583C119.653 116.59 119.407 117.723 119.271 118.648C119.049 120.163 118.487 121.583 117.894 123.003C117.034 125.061 114.005 127.668 112.888 128.008C112.868 128.018 112.862 128.035 112.836 128.041C112.788 128.053 112.734 128.059 112.686 128.07C112.682 128.07 112.676 128.075 112.672 128.075C112.669 128.075 112.668 128.074 112.666 128.074C109.877 128.681 106.046 128.5 103.206 128.518C102.267 128.524 100.691 128.481 99.5382 128.104C97.5782 127.703 95.527 125.216 94.6245 123.148C94.1407 122.039 93.7857 121.088 93.562 119.893C92.122 120.029 90.3595 119.96 88.907 119.849C89.1445 119.679 89.3732 119.495 89.572 119.285C90.9907 117.798 92.3232 115.749 91.9682 113.089C91.957 113.009 91.8395 113.016 91.8432 113.096C91.9507 114.908 90.9407 117.009 89.5032 118.18C88.4295 119.055 86.9995 119.503 86.1095 119.259C86.0832 119.24 86.0457 119.23 86.022 119.211C84.8282 118.578 83.7307 117.096 83.2107 115.839C82.582 114.318 82.2107 112.66 82.0782 110.986C79.0032 110.821 76.0282 110.654 72.817 110.42C71.6245 110.333 70.322 110.246 69.007 110.159C69.0907 111.026 69.1032 112.215 68.987 113.133C68.7745 114.811 68.5757 115.394 68.1795 116.559C67.6057 118.243 66.192 119.878 64.9295 120.578C64.8782 120.618 64.8245 120.653 64.7795 120.666C63.5695 121.044 58.467 120.853 56.312 120.868C55.752 120.871 55.002 120.876 54.342 120.738C52.7632 120.74 50.997 118.36 50.432 116.746C49.4707 114.006 49.3545 110.931 49.317 108.011C49.2845 105.493 49.4557 103.105 50.172 100.714C50.7357 98.8275 51.6832 96.915 53.467 96.3963C55.1595 95.905 56.8145 98.4975 57.4982 99.7988C58.8757 102.425 59.2057 105.969 58.9545 108.953C58.7782 111.03 58.7307 113.419 57.1645 116.991C57.0957 117.151 56.9282 116.963 56.987 116.798C57.872 114.319 58.0282 112.601 58.2907 110.708C58.6557 108.075 58.547 105.833 58.1582 103.24C57.832 101.055 55.3582 94.715 52.3232 97.57C51.117 98.7063 50.2745 101.741 50.132 103.403C49.8257 106.985 49.7695 109.755 50.2995 112.79C50.617 114.613 50.832 116.695 51.9345 118.153C52.2045 118.51 52.897 119.564 53.9082 119.868C54.0557 119.886 54.2257 119.905 54.412 119.925C55.1245 119.856 55.6495 119.176 55.847 118.879C55.997 118.651 56.307 118.831 56.1932 119.099C56.0245 119.495 55.8357 119.791 55.637 120.035C58.5882 120.268 63.452 120.165 64.632 119.96C64.692 119.951 64.752 119.934 64.812 119.918C65.872 118.808 66.5795 117.64 67.1882 116.148C67.687 114.918 67.9182 113.563 68.0995 112.239C68.197 111.541 68.177 110.876 68.1232 110.099C66.4282 109.985 64.7345 109.866 63.2107 109.74C61.9207 109.631 61.477 109.561 61.5032 109.239C61.502 109.23 61.492 109.229 61.492 109.22C61.5957 106.146 62.4432 99.71 57.967 96.4063C57.7882 96.2738 57.9407 95.9725 58.1432 96.0963C59.9782 97.2263 60.8845 98.3075 61.5445 100.314C62.3182 102.666 62.4982 105.708 62.1057 108.835C65.6282 108.685 89.602 110.773 93.0657 111.266C93.0857 108.499 93.3695 105.846 94.262 103.19C95.0507 100.844 96.372 98.4638 98.867 97.8188C101.228 97.2075 103.541 100.431 104.494 102.05C106.419 105.321 106.882 109.733 106.529 113.446C106.284 116.031 106.048 120.189 103.992 123.399C103.871 123.59 103.648 123.36 103.743 123.158C105.032 120.424 105.209 117.544 105.602 115.63C106.269 112.378 105.958 109.561 105.417 106.336C104.961 103.618 101.507 95.7263 97.267 99.28C95.582 100.691 94.2495 104.463 94.207 106.538C94.1282 110.345 93.702 114.445 94.4408 118.224C94.997 121.065 95.7282 124.198 97.7807 125.86C98.602 126.524 98.9295 126.76 99.6245 127.075C100.477 127.461 101.863 126.236 102.187 125.801C102.398 125.516 102.832 125.743 102.673 126.075C102.411 126.629 102.117 127.048 101.804 127.369C105.426 127.615 111.398 127.378 112.937 127.21C114.959 125.541 115.478 124.783 116.522 122.848C117.346 121.318 117.848 119.896 118.189 117.535C118.282 116.895 118.297 116.196 118.291 115.539C113.657 115.375 109.169 115.003 107.586 114.376C107.538 114.358 107.512 114.32 107.482 114.285C107.407 114.245 107.346 114.181 107.352 114.064C107.598 109.615 107.869 109 107.391 105.665C106.786 101.439 104.224 91.8925 97.6707 96.2338C97.517 96.3363 97.3332 96.1075 97.4682 95.9813C101.164 92.5413 105.062 95.9638 106.667 99.55C108.816 104.351 108.867 108.799 107.942 113.855C113.727 113.995 118.056 114.143 123.901 114.149C126.278 114.151 128.657 114.156 131.034 114.16C131.114 112.829 131.232 111.513 131.253 110.164C131.276 108.659 131.292 107.153 131.331 105.649C130.262 105.649 129.196 105.65 128.125 105.65H119.041C116.939 105.65 111.321 105.843 109.399 104.936C109.061 104.776 109.251 104.318 109.564 104.286C114.825 103.779 124.009 104.129 129.296 104.129C131.006 104.129 132.708 104.131 134.416 104.131C134.258 100.651 134.707 97.2175 134.666 93.7188C134.617 89.68 134.567 85.685 134.41 81.6588C134.232 77.1113 132.551 72.6388 129.617 69.2563C127.631 66.97 124.353 64.3738 121.664 62.9263C121.263 62.71 121.206 62.5725 121.152 62.3625C120.881 61.8338 120.992 59.9375 120.998 58.5475C121.008 55.7613 120.88 52.3925 120.503 49.48C119.794 44.0063 117.843 39.1175 113.146 35.6475C113.001 35.54 113.189 35.3025 113.34 35.4025C122.168 41.3588 121.887 52.4738 122.022 61.6388C124.038 61.5425 127.587 61.5375 129.93 61.5638C133.053 61.5988 135.729 61.4938 138.852 61.5575C145.479 61.6925 152.106 61.8863 158.733 62.01C158.957 62.015 158.963 62.3625 158.738 62.3663C152.507 62.4763 146.272 62.5625 140.04 62.5875C136.917 62.6 133.794 62.5988 130.669 62.5963C127.767 62.5938 126.373 62.5538 122.144 62.3713C122.679 62.8225 124.004 63.5225 124.304 63.7513C125.789 64.8813 127.441 65.8988 128.894 67.12C132.122 69.8325 133.943 73.3113 135.012 77.3813C136.121 81.6025 136.061 86.0488 136.078 90.3788C136.078 90.5838 136.078 90.9988 136.077 91.5488C137.193 91.5838 138.296 91.7725 139.376 92.0913C141.258 92.645 143.726 93.8413 144.52 94.4638C147.407 96.7275 148.638 100.27 148.473 104.004C148.471 104.055 148.451 104.093 148.442 104.14H148.46C156.905 104.16 164.884 103.913 173.018 104.003C173.301 101.095 173.785 98.075 175.568 95.685C176.956 93.8275 180.112 92.4025 182.545 92.0425C182.622 88.2925 182.731 84.4825 182.158 80.8138C181.443 76.2325 180.408 72.44 176.763 69.2875C175.138 67.8813 173.013 66.54 171.136 65.5238C170.467 65.1638 169.773 64.7263 169.063 64.295C168.977 64.2688 168.903 64.2238 168.843 64.1625C167.775 63.52 166.672 62.9063 165.568 62.6025C165.447 62.5688 165.332 62.4488 165.342 62.315C165.344 62.2938 165.346 62.2738 165.347 62.2513C165.194 59.445 165.202 56.8825 164.773 53.8675C164.409 51.31 163.751 48.3738 163.147 45.8688C161.518 39.1063 156.492 35.4175 147.742 34.5063C147.741 34.5063 147.737 34.5063 147.736 34.505C138.327 34.8063 129.313 34.58 119.871 34.6688C115.112 34.7138 110.342 34.5475 105.576 34.4625C95.9582 34.2938 95.532 37.0925 95.307 38.0675C94.8995 39.8438 94.927 41.7938 94.8957 43.6888C95.0445 51.3613 94.6182 55.7838 94.6657 64.8063C94.6945 70.0663 94.452 75.3363 94.3432 80.5988C94.237 85.8275 94.6282 94.2725 94.012 99.4663C93.9482 100.008 93.1895 100.033 93.1232 99.4813C92.727 96.1538 92.7757 91.4938 92.8957 87.2013C88.927 87.3563 85.9245 87.22 82.4395 87.19C77.3395 87.145 72.212 86.9875 67.1182 86.7125C61.9145 86.4313 56.7032 86.3525 51.5032 85.995C49.0007 85.8225 45.9945 85.6513 44.4832 85.4363C44.4807 86.2238 44.467 86.9638 44.3995 88.3288C44.3382 89.6063 44.2457 91.2313 44.2345 92.6175C46.8495 92.7188 49.552 92.965 52.4195 93.0975C56.567 93.29 60.772 93.6163 64.9007 94.0838C69.5645 94.6125 74.2345 94.9063 78.9195 95.2225C83.217 95.5138 85.8145 95.6263 91.9582 96.2363C92.182 96.2588 92.177 96.5775 91.9632 96.5775C86.2307 96.5638 83.2082 96.2588 78.9332 96.1063C73.8557 95.9288 68.8182 95.7313 63.7657 95.2138C59.7245 94.8013 55.6007 94.5425 51.542 94.365C50.8407 94.3338 50.0732 94.2863 49.2882 94.2275C49.3995 96.1125 49.3245 98.0688 49.092 99.91C49.067 100.113 48.7345 100.196 48.652 100.035C48.367 99.48 48.2407 98.8125 48.3145 97.8663C48.442 96.2638 48.527 95.27 48.6532 94.1763C47.8195 94.1025 46.9695 94.015 46.1432 93.8988C45.1257 93.7575 44.177 93.7313 43.677 93.5563C43.4407 93.5513 43.2145 93.3725 43.2032 92.9788C43.1657 91.645 43.4207 90.37 43.4632 89.1788Z" fill="#356799" stroke="#356799"/>
<path d="M114.777 62.2334C111.364 62.2622 108.317 62.1559 104.199 62.0809C102.891 62.0572 100.116 62.1972 99.4885 61.9422C99.1635 61.8822 98.8935 61.6384 98.8935 61.2597C98.8935 54.2272 98.5423 45.8697 99.3135 38.8397C99.3398 38.5897 99.706 38.5672 99.7135 38.8334C99.8135 42.1897 99.5585 45.8022 99.6685 49.1647C99.7848 52.6997 99.6273 57.5859 99.961 61.0147C100.035 61.0122 100.116 61.0159 100.207 61.0334C100.727 61.1309 104.556 61.0847 105.646 61.1447C108.885 61.3234 112.071 61.4509 114.774 61.5134C114.775 59.9572 114.791 58.4009 114.725 56.8472C114.667 55.4847 115.052 54.8472 116.279 54.4234C116.91 54.2059 117.417 54.1909 117.844 54.3022C117.751 52.3384 117.522 50.7122 116.96 48.2272C116.26 45.1309 114.771 41.1072 111.83 39.5859C108.837 38.0384 105.45 37.9822 102.172 37.8834C101.925 37.8759 101.919 37.5109 102.167 37.4972C107.879 37.2009 114.356 37.7584 116.899 45.0272C118.045 48.3009 118.672 51.4597 118.755 54.8797C120.089 56.4434 119.652 60.3997 119.57 61.8384C119.552 62.1297 119.132 62.1397 119.116 61.8459C119.039 60.4897 118.98 59.1397 118.88 57.7847C118.652 54.6847 115.3 54.2109 115.414 57.7747C115.496 60.3509 115.361 62.9359 115.536 65.5097C115.63 66.8884 115.825 67.9084 115.854 69.2909C115.882 70.6909 118.737 70.1647 118.819 69.1922C118.975 67.3309 119.069 66.3709 119.291 64.4984C119.319 64.2622 119.634 64.2509 119.662 64.4922C119.907 66.5497 120.181 70.8547 118.191 71.2884C113.979 72.2072 115.014 67.7384 114.869 65.5184C114.797 64.4259 114.781 63.3297 114.777 62.2334Z" fill="#356799" stroke="#356799"/>
<rect x="3" y="4" width="70" height="70" rx="35" fill="#FFF7E6"/>
<path d="M39.9812 50V45.296H30.0412V42.552L39.8412 29.14H43.1172V42.552H46.0012V45.296H43.1172V50H39.9812ZM32.4772 43.756L31.9452 42.552H39.9812V31.772L40.8772 32.052L32.4772 43.756Z" fill="#CC9900"/>
<rect x="3" y="4" width="70" height="70" rx="35" stroke="white" stroke-width="6"/>
</svg>
