<svg width="49" height="48" viewBox="0 0 49 48" fill="none" xmlns="http://www.w3.org/2000/svg">
<g clip-path="url(#clip0_2790_134019)">
<path d="M43.0453 39.0547H5.62159C2.92545 39.0547 0.740234 41.2399 0.740234 43.936V48.0038H47.9267V43.936C47.9267 41.2399 45.7415 39.0547 43.0453 39.0547Z" fill="#4381C0"/>
<path d="M24.3325 43.1199L30.841 39.0521V34.2578C30.841 34.2578 30.8402 34.2578 30.8394 34.2586C30.3935 34.4807 29.9347 34.6784 29.4645 34.855C29.3709 34.8908 29.2765 34.9249 29.1813 34.9583C28.882 35.0632 28.5793 35.16 28.271 35.2463C28.0334 35.3138 27.7942 35.3756 27.5526 35.431C27.3923 35.4668 27.2312 35.5026 27.0685 35.5327C26.6967 35.6043 26.3201 35.6628 25.9377 35.7051C25.8441 35.7157 25.7497 35.7222 25.6554 35.7304C25.2201 35.771 24.78 35.7979 24.3325 35.7979C23.8851 35.7979 23.4449 35.771 23.0081 35.7312C22.9137 35.723 22.8193 35.7157 22.7257 35.706C22.3442 35.6636 21.9675 35.6051 21.5949 35.5335C21.4322 35.5026 21.2719 35.4676 21.1108 35.4318C20.8684 35.3765 20.6292 35.3138 20.3925 35.2471C20.0841 35.1609 19.7815 35.0641 19.4821 34.9591C19.3877 34.9257 19.2933 34.8908 19.199 34.8558C18.7287 34.6792 18.2699 34.4815 17.8241 34.2594H17.8232L17.8241 39.0521L24.3325 43.1199Z" fill="#AEC8E3"/>
<path d="M17.8258 35.8001L24.3327 38.2407L30.8412 35.7122V33.3594H17.8242L17.8258 35.8001Z" fill="#8AB0D7"/>
<path d="M8.06185 15.4609C6.2647 15.4609 4.80762 16.918 4.80762 18.7152C4.80762 20.5123 6.2647 21.9694 8.06185 21.9694H9.68897V21.1559V15.4609H8.06185Z" fill="#AEC8E3"/>
<path d="M38.9775 21.9694H40.6047C42.4018 21.9694 43.8589 20.5123 43.8589 18.7152C43.8589 16.918 42.4018 15.4609 40.6047 15.4609H38.9775V21.1559V21.9694Z" fill="#AEC8E3"/>
<path d="M24.3325 23.5932C27.9268 23.5932 30.841 26.5074 30.841 30.1017V34.2565C35.6589 31.859 38.9766 26.8987 38.9766 21.1525V14.6441C38.9766 6.55648 32.4201 0 24.3325 0C16.245 0 9.68848 6.55648 9.68848 14.6441V21.1525C9.68848 26.8987 13.0062 31.859 17.8241 34.2565V30.1017C17.8241 26.5074 20.7382 23.5932 24.3325 23.5932ZM28.5622 4.06861C27.9887 3.83837 27.3923 3.65369 26.7773 3.51864C27.3915 3.65288 27.9887 3.83837 28.5622 4.06861Z" fill="#D1E0EF"/>
<path d="M19.1998 34.8537C19.2934 34.8887 19.3877 34.9237 19.4829 34.957C19.7815 35.0628 20.0858 35.158 20.3933 35.245C20.6308 35.3117 20.8692 35.3752 21.1117 35.4297C21.2719 35.4663 21.433 35.5005 21.5957 35.5314C21.9683 35.6022 22.3442 35.6624 22.7266 35.7039C22.8201 35.7144 22.9145 35.7209 23.0089 35.7291C23.445 35.7689 23.8859 35.7966 24.3325 35.7966C24.7792 35.7966 25.2201 35.7689 25.657 35.7299C25.7514 35.7209 25.8458 35.7153 25.9393 35.7047C26.3209 35.6632 26.6976 35.603 27.0702 35.5322C27.2321 35.5013 27.394 35.4671 27.5542 35.4305C27.7967 35.376 28.0351 35.3117 28.2726 35.2458C28.5801 35.1588 28.8836 35.0636 29.183 34.9578C29.2782 34.9245 29.3717 34.8895 29.4661 34.8545C29.9355 34.6772 30.3952 34.4795 30.841 34.2582C30.8418 34.2582 30.8418 34.2582 30.8426 34.2574V30.1017C30.8426 26.5074 27.9285 23.5932 24.3342 23.5932C20.7399 23.5932 17.8257 26.5074 17.8257 30.1017V34.2565C17.8265 34.2565 17.8265 34.2565 17.8273 34.2574C18.2707 34.4786 18.7304 34.6763 19.1998 34.8537Z" fill="#D1E0EF"/>
<path d="M18.6379 20.3402C19.5365 20.3402 20.265 19.6117 20.265 18.7131C20.265 17.8144 19.5365 17.0859 18.6379 17.0859C17.7392 17.0859 17.0107 17.8144 17.0107 18.7131C17.0107 19.6117 17.7392 20.3402 18.6379 20.3402Z" fill="#4381C0"/>
<path d="M30.0275 20.3402C30.9261 20.3402 31.6546 19.6117 31.6546 18.7131C31.6546 17.8144 30.9261 17.0859 30.0275 17.0859C29.1289 17.0859 28.4004 17.8144 28.4004 18.7131C28.4004 19.6117 29.1289 20.3402 30.0275 20.3402Z" fill="#4381C0"/>
<path d="M27.2089 28.2363L26.0585 27.0859C25.1067 28.037 23.5593 28.037 22.6074 27.0859L21.457 28.2363C22.2503 29.0295 23.2916 29.4257 24.333 29.4257C25.3743 29.4257 26.4165 29.0295 27.2089 28.2363Z" fill="#4381C0"/>
</g>
<defs>
<clipPath id="clip0_2790_134019">
<rect width="48" height="48" fill="white" transform="translate(0.333008)"/>
</clipPath>
</defs>
</svg>
