<svg width="64" height="64" viewBox="0 0 64 64" fill="none" xmlns="http://www.w3.org/2000/svg">
<path d="M25.2632 11.1986C24.9702 11.5921 24.9972 13.0931 24.9427 14.0486C24.8917 14.9406 24.8107 15.1831 24.7417 15.8606C24.6562 15.1526 24.5497 14.3906 24.5572 13.6336C24.5632 12.9721 24.3432 11.6086 24.2717 11.2601C24.2352 11.0826 22.7482 10.9826 22.1642 10.9696C21.3812 10.9516 20.6192 10.7306 19.8467 10.6206C20.3287 10.5766 20.6102 10.5391 21.3692 10.4956C22.3247 10.4411 23.8257 10.4686 24.2192 10.1751C24.4262 9.77206 24.4397 8.64756 24.5097 8.06806C24.6157 7.18656 24.6747 6.50306 24.7782 5.53906C24.8822 6.50306 24.9412 7.18656 25.0472 8.06806C25.1172 8.64756 25.1307 9.77206 25.3377 10.1751C25.7312 10.4686 27.2322 10.4411 28.1877 10.4956C29.0442 10.5446 29.2947 10.5866 29.9097 10.6381C28.9397 10.7426 28.2552 10.8016 27.3702 10.9081C26.7907 10.9776 25.6662 10.9911 25.2632 11.1986Z" fill="#FFC000"/>
<path d="M55.2779 47.596C54.8849 48.1495 54.9214 50.2645 54.8479 51.61C54.7794 52.867 54.6709 53.208 54.5789 54.1625C54.4644 53.1655 54.3219 52.0915 54.3319 51.0255C54.3399 50.0945 54.0459 48.1735 53.9494 47.683C53.9004 47.4325 51.9094 47.2925 51.1279 47.2735C50.0799 47.2485 49.0589 46.9375 48.0254 46.782C48.6704 46.7205 49.0469 46.667 50.0629 46.606C51.3424 46.5295 53.3524 46.568 53.8794 46.1545C54.1564 45.587 54.1749 44.0025 54.2679 43.1875C54.4109 41.945 54.4894 40.983 54.6279 39.625C54.7674 40.983 54.8464 41.945 54.9889 43.1875C55.0814 44.0025 55.1004 45.587 55.3769 46.1545C55.9039 46.568 57.9134 46.5295 59.1929 46.606C60.3394 46.675 60.6754 46.734 61.4984 46.8065C60.1989 46.954 59.2834 47.037 58.0989 47.187C57.3224 47.2845 55.8164 47.304 55.2779 47.596Z" fill="#FFC000"/>
<path d="M56.0405 26.1212C56.0605 26.8462 55.9555 27.5662 55.8805 28.2812C55.7755 28.7062 55.655 29.1312 55.5205 29.5462C55.2055 30.9212 54.5655 32.2012 53.8155 33.3862C53.3505 33.9712 52.9755 34.6212 52.4755 35.1762C51.6105 36.2062 50.5005 37.0012 49.3655 37.7062C48.5605 38.1862 47.5955 38.6712 46.7105 38.9662C44.9555 39.6812 42.6705 39.9012 41.1655 39.7762C38.1905 39.5262 36.2305 38.4312 35.2505 38.0912C35.1155 38.0462 35.0255 38.0312 34.9705 38.0412C34.9705 38.0412 34.58 37.7602 34.0325 37.0287C33.974 36.0447 33.4225 34.8152 32.0665 34.2322C31.4985 33.9877 30.443 33.8697 30.443 33.8697L29.5805 32.2212C29.6455 32.1412 29.6555 32.0112 29.5855 31.8562C29.5605 31.8012 29.5355 31.7462 29.5155 31.6912C29.1705 30.9962 28.9755 30.2362 28.8105 29.4812C28.6805 28.6662 28.4055 27.8762 28.3455 27.0512C28.2505 25.8962 28.1005 24.7212 28.3305 23.5762C28.4605 22.1212 28.9905 20.7312 29.6705 19.4512C29.9055 18.9462 30.2505 18.5112 30.5155 18.0262C30.8905 17.3362 31.4105 16.7412 31.9155 16.1462C33.1855 14.7412 34.8055 13.7112 36.4905 12.8862C36.8555 12.7262 37.2505 12.6562 37.6255 12.5162C38.3205 12.2612 39.0555 12.1662 39.78 12.0312C40.9355 11.8512 42.1105 11.9112 43.2755 11.9962C44.135 12.0162 45.0055 12.0862 45.8305 12.3512C47.0005 12.6462 48.0555 13.2362 49.1205 13.7712C50.4355 14.5812 51.7305 15.4812 52.7105 16.6862C53.6055 17.7462 54.405 18.8912 54.9755 20.1512C55.3905 21.0012 55.5905 21.9262 55.8155 22.8312C56.0205 23.9162 56.0405 25.0212 56.0405 26.1212Z" fill="#FFC000"/>
<path d="M43.0817 29.189C43.0887 28.675 43.1297 27.9795 43.1387 27.467C43.4207 27.558 43.5787 27.6345 43.7017 27.761C44.1672 28.2365 43.8887 28.955 43.0817 29.189ZM41.0832 24.444C39.9232 23.8165 40.1052 22.3785 41.1797 21.79C41.2032 21.7775 41.2272 21.767 41.2502 21.7555C41.2347 22.68 41.2362 23.6045 41.2407 24.5225C41.1887 24.496 41.1347 24.472 41.0832 24.444ZM43.0837 34.107C43.1292 34.069 43.1377 34.0195 43.1272 33.9705C43.1087 33.2845 43.0992 32.602 43.0952 31.922C43.9592 31.6755 44.8407 31.374 45.5587 30.5695C46.5267 29.486 46.6877 27.427 45.7407 26.334C45.0807 25.572 44.0127 25.4065 43.1797 25.1755C43.2022 23.913 43.2207 22.6505 43.2182 21.382C43.9332 21.413 44.6547 21.5715 45.3197 21.7185C45.4237 21.741 45.4827 21.6375 45.4492 21.5645C45.4777 21.366 45.5007 21.1805 45.5297 20.914C45.5557 20.6795 45.5877 20.3995 45.5947 20.1605C45.5967 20.095 45.5747 20.0505 45.5422 20.0225C45.5362 20.005 45.5332 19.9875 45.5162 19.9715C44.8897 19.4005 44.0142 19.356 43.1607 19.3035C43.1447 18.6575 43.1227 18.0105 43.0887 17.3595C43.0847 17.283 43.0257 17.2515 42.9697 17.258C42.9677 17.258 42.9672 17.256 42.9652 17.256C42.5137 17.152 41.9742 17.299 41.5252 17.2955C41.5042 17.295 41.4822 17.303 41.4622 17.3145C41.4252 17.3225 41.3907 17.346 41.3847 17.397C41.3842 17.4025 41.3837 17.4075 41.3837 17.412C41.3802 17.425 41.3787 17.4355 41.3802 17.4485C41.3052 18.1105 41.3587 18.762 41.3182 19.4375C40.4092 19.5865 39.6402 19.8095 38.8472 20.649C37.8622 21.758 37.2772 23.7425 38.5652 25.57C39.1057 26.337 40.3332 26.6745 41.1977 26.957C41.2162 26.963 41.2332 26.9705 41.2517 26.9765C41.2512 27.7605 41.2462 28.5445 41.2372 29.3285C41.1792 29.3295 41.1217 29.328 41.0657 29.323C40.2172 29.236 39.5082 28.8665 38.7847 28.4465C38.7787 28.4435 38.7737 28.4435 38.7672 28.4405C38.7437 28.422 38.7127 28.42 38.6807 28.4305C38.6722 28.4325 38.6647 28.4355 38.6572 28.439C38.6522 28.443 38.6462 28.441 38.6402 28.446C38.6372 28.448 38.6357 28.45 38.6332 28.4525C38.6257 28.4575 38.6192 28.4645 38.6127 28.4715C38.3782 28.68 38.3952 28.837 38.2652 29.1415C38.0602 29.624 37.8212 30.078 37.7337 30.602C37.7187 30.6915 37.7817 30.741 37.8467 30.741C38.5902 31.616 40.1132 32.0065 41.2187 32.084C41.2207 32.7395 41.2287 33.3945 41.2477 34.048C41.2492 34.099 41.2697 34.138 41.2997 34.164C41.3202 34.195 41.3517 34.2185 41.3962 34.2235C41.6702 34.254 41.9632 34.246 42.2382 34.231C42.4627 34.2195 42.6992 34.218 42.9197 34.1675C42.9827 34.174 43.0437 34.1535 43.0837 34.107Z" fill="#356799"/>
<path d="M49.6569 18.5618C49.9329 18.7978 50.1529 19.0883 50.3834 19.3663C50.6229 19.6293 50.8009 19.9393 50.9969 20.2348C51.2684 20.7058 51.5394 21.1803 51.7204 21.6958C52.0604 22.4353 52.2764 23.2228 52.5014 24.0023C52.5619 24.2888 52.6134 24.5773 52.6279 24.8698C52.6484 25.2353 52.7299 25.5983 52.7074 25.9663C52.6024 26.7693 52.4794 27.5728 52.2839 28.3598C52.2294 28.7258 52.0499 29.0553 51.9614 29.4118C51.8354 29.8918 51.5964 30.3293 51.3879 30.7768C51.1709 31.2628 50.8644 31.7018 50.5579 32.1358C50.0334 32.7838 49.4909 33.4313 48.8159 33.9303C48.5839 34.1018 48.3829 34.3148 48.1349 34.4638C47.2569 34.9913 46.3144 35.4098 45.3404 35.7243C44.8819 35.8523 44.4184 35.9603 43.9569 36.0743C43.4259 36.1398 42.8989 36.2408 42.3629 36.2483C41.4639 36.2473 40.5604 36.1968 39.6799 36.0018C38.8314 35.8008 38.0024 35.5098 37.2249 35.1138C36.7054 34.8823 36.1999 34.6153 35.7289 34.2953C34.9514 33.7143 34.2584 33.0273 33.6399 32.2818C32.7519 31.2353 32.1499 29.9618 31.8304 28.6313C31.6994 28.1668 31.6289 27.6873 31.5304 27.2163C31.3754 26.5193 31.3734 25.7998 31.4204 25.0903C31.4239 24.4463 31.5529 23.8118 31.6839 23.1838C31.8369 22.3328 32.2169 21.5463 32.5794 20.7683C32.7854 20.3038 33.0544 19.8708 33.3594 19.4663C33.7464 19.0173 34.0764 18.5128 34.5424 18.1398C34.9514 17.6808 35.4844 17.3628 35.9944 17.0303C36.5094 16.7168 37.0024 16.3573 37.5659 16.1318C38.2549 15.8288 38.9804 15.6138 39.7154 15.4543C40.2069 15.3273 40.7124 15.2558 41.2194 15.2453C41.7264 15.2013 42.2394 15.1973 42.7459 15.2463C43.6784 15.2573 44.5929 15.4743 45.4749 15.7628C46.3129 16.1283 47.4379 16.5033 48.0314 17.3473C48.3129 17.7533 47.2504 16.6908 44.9664 16.0588C44.2419 15.8453 43.4909 15.7018 42.7339 15.7073C41.9619 15.6303 41.1854 15.6943 40.4169 15.7833C39.0794 16.0333 37.7284 16.4093 36.5979 17.1963C36.0159 17.5443 35.4549 17.9323 34.9624 18.4028C34.2669 19.0818 33.6094 19.8218 33.1579 20.6898C32.8939 21.1638 32.7294 21.6853 32.4934 22.1738C32.1484 23.1338 31.9004 24.1438 31.8934 25.1683C31.8649 25.4848 31.8484 25.8028 31.8394 26.1208C31.9019 26.6418 31.9404 27.1688 32.0729 27.6788C32.2464 28.4583 32.4359 29.2388 32.7519 29.9753C33.0569 30.5838 33.3484 31.2078 33.7774 31.7423C34.3824 32.5473 35.1324 33.2318 35.9324 33.8393C36.8209 34.5393 37.8824 34.9693 38.9419 35.3373C39.7844 35.5468 40.6269 35.7968 41.5009 35.8183C42.1284 35.8778 42.7564 35.7868 43.3714 35.6663C44.2094 35.5413 45.0534 35.3953 45.8444 35.0823C46.3364 34.8738 46.8434 34.6868 47.2944 34.3958C47.5369 34.2368 47.8084 34.1253 48.0419 33.9528C49.1059 33.1008 50.0899 32.1113 50.7664 30.9158C51.0319 30.4128 51.3059 29.9078 51.4609 29.3573C51.5714 28.9718 51.7479 28.6078 51.8314 28.2148C52.1124 27.1973 52.2679 26.1283 52.1274 25.0763C52.1074 24.2258 51.8129 23.4173 51.5639 22.6138C51.3899 22.0368 51.0689 21.5208 50.8479 20.9633C50.6094 20.4538 50.3494 19.9483 49.9964 19.5068C49.7944 19.2118 49.5819 18.9228 49.3274 18.6703C49.1969 18.5318 49.0659 18.3928 48.9299 18.2598C48.5839 17.9203 49.0214 17.9953 49.6569 18.5618Z" fill="#356799"/>
<path d="M56.6504 24.9106C56.6219 23.0286 56.1974 21.1376 55.3209 19.4651C54.7144 18.2776 53.9919 17.1466 53.1229 16.1326C52.5864 15.5611 51.9889 15.0506 51.3609 14.5831C50.4359 13.8166 49.4109 13.1771 48.3319 12.6506C47.2089 12.1241 46.0114 11.7846 44.8049 11.5126C44.0824 11.3606 43.3444 11.3376 42.6119 11.2656C41.9579 11.2791 41.3034 11.2856 40.6489 11.3186C39.2459 11.4476 37.8554 11.7256 36.5174 12.1691C36.1399 12.2946 35.8059 12.5201 35.4424 12.6806C34.3864 13.1471 33.4629 13.8526 32.5639 14.5651C32.0214 15.0556 31.4774 15.5521 31.0399 16.1391C30.6249 16.6776 30.1724 17.1926 29.8584 17.7991C29.6329 18.2516 29.2924 18.6396 29.1089 19.1146C28.6094 20.1121 28.2024 21.1541 27.8194 22.2006C27.6784 22.6876 27.6784 23.1986 27.5954 23.6956C27.5269 24.0936 27.5089 24.4961 27.5039 24.8991C27.5714 26.0136 27.6244 27.1366 27.8579 28.2306C27.9459 28.9771 28.1669 29.6961 28.3894 30.4101C28.5634 30.8661 28.7094 31.3361 28.9519 31.7606C29.0139 31.8826 29.0749 32.0051 29.1364 32.1271C29.3964 32.4811 29.7714 32.2516 29.5839 31.8516C29.5614 31.7971 29.5354 31.7441 29.5139 31.6891C29.1724 30.9901 28.9749 30.2331 28.8089 29.4771C28.6799 28.6616 28.4049 27.8721 28.3439 27.0461C28.2529 25.8921 28.0999 24.7176 28.3299 23.5691C28.4584 22.1151 28.9889 20.7261 29.6729 19.4456C29.9034 18.9426 30.2499 18.5076 30.5144 18.0231C30.8884 17.3311 31.4084 16.7351 31.9164 16.1401C33.1844 14.7386 34.8034 13.7066 36.4889 12.8836C36.8544 12.7216 37.2524 12.6541 37.6254 12.5136C38.3189 12.2586 39.0559 12.1611 39.7789 12.0291C40.9354 11.8476 42.1119 11.9046 43.2754 11.9901C44.1374 12.0136 45.0074 12.0801 45.8314 12.3491C46.9989 12.6411 48.0549 13.2301 49.1224 13.7656C50.4339 14.5786 51.7294 15.4761 52.7119 16.6831C53.6029 17.7396 54.4034 18.8851 54.9734 20.1481C55.3889 20.9956 55.5924 21.9201 55.8174 22.8291C56.0204 23.9131 56.0394 25.0181 56.0379 26.1166C56.0614 26.8411 55.9544 27.5606 55.8819 28.2786C55.7734 28.7026 55.6564 29.1246 55.5229 29.5416C55.2044 30.9146 54.5669 32.1961 53.8149 33.3811C53.3509 33.9656 52.9734 34.6166 52.4759 35.1731C51.6084 36.2021 50.5024 36.9981 49.3639 37.6996C48.5619 38.1831 47.5954 38.6681 46.7089 38.9601C44.9539 39.6766 42.6699 39.8986 41.1674 39.7726C38.1879 39.5226 36.2324 38.4251 35.2504 38.0851C34.7089 37.8976 34.8819 38.2646 34.9554 38.3591C35.9059 38.8891 36.9024 39.3416 37.9644 39.5931C38.6289 39.8116 39.3189 39.9601 40.0134 40.0541C40.6969 40.1926 41.3974 40.2491 42.0949 40.2266C43.1294 40.2341 44.1684 40.1636 45.1844 39.9641C46.0094 39.8306 46.7799 39.4971 47.5659 39.2311C48.3494 38.9386 49.1614 38.6721 49.8489 38.1796C50.5869 37.8186 51.1819 37.2416 51.8364 36.7546C52.3679 36.3041 52.8599 35.8036 53.2764 35.2421C53.9969 34.3066 54.7439 33.3661 55.2054 32.2681C55.5709 31.4651 55.9354 30.6521 56.1339 29.7886C56.4109 28.8501 56.6254 27.8841 56.6269 26.9011C56.6364 26.2391 56.6864 25.5736 56.6504 24.9106Z" fill="#356799"/>
<path d="M24.4431 25.7386C24.0716 24.1356 23.8026 22.9261 22.5701 21.7591C22.0266 21.2441 20.7096 20.6781 20.0491 21.3376C19.6106 21.7751 19.6131 22.1636 19.4796 22.7426C19.2766 23.6236 19.1976 24.5141 18.9176 25.3851C18.2646 27.4191 17.2166 29.5991 15.8301 31.2186C14.6606 32.5861 12.9331 33.3706 11.8046 34.8096C11.1036 35.7031 10.8946 36.1976 10.7516 37.3336C10.7401 37.4261 10.8911 37.4471 10.9116 37.3581C11.4176 35.1856 13.6596 33.7666 15.2911 32.4966C16.4686 31.5801 17.3086 30.4071 17.9546 29.0716C18.6131 27.7106 19.3121 26.2696 19.7011 24.8051C19.8506 24.2416 19.9791 23.6691 20.0436 23.0896C20.1026 22.5561 20.1601 21.6561 21.0111 21.6301C21.5266 21.6141 22.0691 22.0571 22.4121 22.3851C23.4511 23.3806 24.1641 25.4921 23.9351 26.9321C23.7406 28.1576 23.5741 29.2806 23.1451 30.4596C22.6371 31.8576 21.7466 32.5641 21.7306 34.1341C21.7291 34.2626 21.9286 34.2991 21.9581 34.1686C22.1771 33.2106 22.5471 32.4836 23.0891 31.6841C23.5616 30.9866 23.8346 30.2416 24.0766 29.4361C24.4131 28.3131 24.7106 26.8931 24.4431 25.7386Z" fill="#356799"/>
<path d="M32.9343 34.426C31.3313 33.295 29.5988 33.575 27.7643 33.612C25.9913 33.6475 23.6073 33.992 21.8358 34.025C21.7418 34.027 21.7428 34.2375 21.8358 34.2435C24.0943 34.3895 27.0123 33.978 29.2678 33.9965C31.2258 34.012 33.6758 34.6775 33.7893 37.0555C33.8713 38.779 33.0938 39.169 31.7043 39.8225C31.6143 39.865 31.6583 40.0015 31.7503 40.0035C33.2668 40.0345 34.2648 39.0555 34.3753 38.1285C34.5488 36.6745 34.0183 35.1905 32.9343 34.426Z" fill="#356799"/>
<path d="M34.1147 40.8414C33.9997 40.6694 33.3592 40.0794 33.2547 40.0019C33.1257 39.9069 32.9222 40.0339 33.0752 40.1614C33.7042 40.6854 33.9682 41.0289 34.0427 41.9944C34.1692 43.6309 32.7257 44.6229 31.6547 45.5659C31.5922 45.6209 31.5537 45.7349 31.5842 45.8149C31.8827 46.6009 32.6112 47.2059 32.4722 48.1324C32.2397 49.6814 30.8967 50.2869 29.8467 51.1779C29.7697 51.2434 29.8477 51.3779 29.9427 51.3489C31.1647 50.9699 31.9807 50.3169 32.6182 49.1644C33.2262 48.0644 32.8977 47.1509 32.3217 46.1284C32.1277 45.7844 33.6022 44.5889 33.7832 44.3729C34.1347 43.9544 34.4432 43.3099 34.5092 42.7624C34.5992 42.0169 34.5367 41.4704 34.1147 40.8414Z" fill="#356799"/>
<path d="M29.9813 51.2517C29.6983 53.5952 27.1098 54.3122 25.1078 54.2977C23.5148 54.2862 21.7678 53.8517 20.1928 53.6092C18.3978 53.3322 16.6243 52.7152 15.0863 51.7477C14.3203 51.2652 13.6293 50.6807 12.9593 50.0752C12.4248 49.5932 11.7958 49.2252 11.3288 48.6777C11.2438 48.5777 11.1068 48.7002 11.1558 48.8062C11.8758 50.3632 13.7093 51.5572 15.1298 52.4517C17.0093 53.6352 19.2688 54.0752 21.4358 54.3597C23.5078 54.6307 25.3748 55.1397 27.4448 54.5552C28.9583 54.1282 30.1458 52.8547 30.1868 51.2547C30.1903 51.1192 29.9968 51.1227 29.9813 51.2517Z" fill="#356799"/>
<path d="M11.032 36.6352C11.035 36.6367 11.038 36.6387 11.041 36.6402C11.0385 36.6352 11.033 36.6337 11.0305 36.6292C11.0275 36.6237 11.0285 36.6187 11.025 36.6122C11.0105 36.5847 10.988 36.5687 10.9625 36.5602C10.9245 36.5367 10.8815 36.5212 10.8375 36.5192C9.36048 36.4372 7.89548 36.6407 6.42198 36.7037C5.67248 36.7357 4.92398 36.7832 4.17198 36.7822C3.65748 36.7817 3.31498 36.5897 2.98798 37.0322C2.93648 37.1022 2.71948 37.2567 3.15698 37.3507C3.89198 37.5082 4.40698 37.2882 5.56298 37.2567C6.58898 37.2287 7.38898 37.2112 8.41298 37.1247C8.78298 37.0937 11.312 37.2602 11.032 36.6352Z" fill="#356799"/>
<path d="M11.7544 49.1807C10.0694 49.1097 9.10037 49.4827 7.09437 49.6897C6.07037 49.7952 4.45487 50.0227 3.47037 50.3012C3.38587 50.3257 3.34687 50.4382 3.41387 50.5027C3.71087 50.7887 3.77187 50.8302 4.22087 50.7702C4.99037 50.6667 6.01187 50.4782 6.78187 50.3772C8.68837 50.1272 10.0569 49.8377 11.7469 49.6562C12.0444 49.6247 12.0689 49.1937 11.7544 49.1807Z" fill="#356799"/>
<path d="M25.2626 11.1989C24.9696 11.5924 24.9966 13.0934 24.9421 14.0489C24.8911 14.9409 24.8101 15.1834 24.7411 15.8609C24.6556 15.1529 24.5491 14.3909 24.5566 13.6339C24.5626 12.9724 24.3426 11.6089 24.2711 11.2604C24.2346 11.0829 22.7476 10.9829 22.1636 10.9699C21.3806 10.9519 20.6186 10.7309 19.8461 10.6209C20.3281 10.5769 20.6096 10.5394 21.3686 10.4959C22.3241 10.4414 23.8251 10.4689 24.2186 10.1754C24.4256 9.77235 24.4391 8.64785 24.5091 8.06835C24.6151 7.18685 24.6741 6.50335 24.7776 5.53935C24.8816 6.50335 24.9406 7.18685 25.0466 8.06835C25.1166 8.64785 25.1301 9.77235 25.3371 10.1754C25.7306 10.4689 27.2316 10.4414 28.1871 10.4959C29.0436 10.5449 29.2941 10.5869 29.9091 10.6384C28.9391 10.7429 28.2546 10.8019 27.3696 10.9084C26.7901 10.9779 25.6656 10.9914 25.2626 11.1989ZM31.0651 10.6284C31.0641 10.6249 31.0626 10.6219 31.0611 10.6184C31.0576 10.5954 31.0436 10.5799 31.0221 10.5714C31.0086 10.5614 30.9946 10.5524 30.9771 10.5509C29.6846 10.4279 29.3331 10.4404 28.4566 10.3499C27.4766 10.2499 26.2626 10.3934 25.4721 9.91785C25.2176 8.31985 25.0556 6.43835 24.8536 4.45185C24.8541 4.44935 24.8541 4.44835 24.8541 4.44635C24.8601 4.39435 24.8191 4.37185 24.7776 4.37535C24.7366 4.37185 24.6956 4.39435 24.7011 4.44635C24.7016 4.44835 24.7021 4.44935 24.7021 4.45185C24.5006 6.43835 24.3381 8.31985 24.0836 9.91785C23.2936 10.3934 22.0796 10.2499 21.0991 10.3499C20.2226 10.4404 19.8711 10.4279 18.5791 10.5509C18.5531 10.5509 18.5346 10.5614 18.5226 10.5759C18.4766 10.6174 18.4691 10.6924 18.5391 10.6879C18.5426 10.6879 18.5451 10.6874 18.5491 10.6874C18.5581 10.6924 18.5641 10.7004 18.5766 10.7019C20.3631 10.9539 21.6001 11.1309 24.0121 11.3984C24.3391 12.2939 24.3156 13.3859 24.3241 14.2729C24.3326 15.1544 24.5431 16.0724 24.6696 16.8644C24.6756 16.9019 24.6896 16.9244 24.7056 16.9374H24.7061C24.7341 16.9589 24.7691 16.9489 24.7886 16.9154C24.8066 16.8994 24.8226 16.8789 24.8251 16.8519C24.9476 15.5594 24.9976 15.1929 25.0876 14.3164C25.1881 13.3359 25.0446 12.1224 25.5201 11.3319C27.1196 11.0764 29.0046 10.9149 30.9936 10.7124C31.0221 10.7094 31.0391 10.6939 31.0506 10.6749C31.0636 10.6644 31.0696 10.6489 31.0651 10.6299V10.6284Z" fill="#356799"/>
<path d="M55.2776 47.5944C54.8846 48.1479 54.9211 50.2629 54.8476 51.6084C54.7791 52.8654 54.6706 53.2064 54.5786 54.1609C54.4641 53.1639 54.3216 52.0899 54.3316 51.0239C54.3396 50.0929 54.0456 48.1719 53.9491 47.6814C53.9001 47.4309 51.9091 47.2909 51.1276 47.2719C50.0796 47.2469 49.0586 46.9359 48.0251 46.7804C48.6701 46.7189 49.0466 46.6654 50.0626 46.6044C51.3421 46.5279 53.3521 46.5664 53.8791 46.1529C54.1561 45.5854 54.1746 44.0009 54.2676 43.1859C54.4106 41.9434 54.4891 40.9814 54.6276 39.6234C54.7671 40.9814 54.8461 41.9434 54.9886 43.1859C55.0811 44.0009 55.1001 45.5854 55.3766 46.1529C55.9036 46.5664 57.9131 46.5279 59.1926 46.6044C60.3391 46.6734 60.6751 46.7324 61.4981 46.8049C60.1986 46.9524 59.2831 47.0354 58.0986 47.1854C57.3221 47.2829 55.8161 47.3024 55.2776 47.5944ZM62.9406 46.7919C62.9391 46.7869 62.9371 46.7829 62.9351 46.7769C62.9311 46.7454 62.9121 46.7249 62.8841 46.7119C62.8656 46.6979 62.8471 46.6859 62.8236 46.6839C61.1156 46.5129 60.6501 46.5294 59.4921 46.4054C58.1956 46.2654 56.5906 46.4649 55.5456 45.8034C55.2091 43.5809 54.9951 40.9629 54.7276 38.2014C54.7286 38.1979 54.7286 38.1964 54.7291 38.1934C54.7371 38.1209 54.6826 38.0889 54.6276 38.0944C54.5731 38.0889 54.5186 38.1209 54.5276 38.1934C54.5276 38.1964 54.5276 38.1979 54.5281 38.2014C54.2611 40.9629 54.0466 43.5809 53.7096 45.8034C52.6651 46.4649 51.0601 46.2654 49.7641 46.4054C48.6046 46.5294 48.1406 46.5129 46.4321 46.6839C46.3976 46.6839 46.3736 46.6979 46.3576 46.7184C46.2961 46.7754 46.2866 46.8804 46.3791 46.8744C46.3841 46.8744 46.3876 46.8744 46.3921 46.8734C46.4051 46.8804 46.4131 46.8919 46.4286 46.8944C48.7901 47.2449 50.4261 47.4899 53.6156 47.8624C54.0481 49.1079 54.0166 50.6269 54.0281 51.8599C54.0391 53.0864 54.3166 54.3624 54.4846 55.4639C54.4921 55.5174 54.5106 55.5479 54.5321 55.5659H54.5326C54.5706 55.5964 54.6166 55.5824 54.6421 55.5354C54.6666 55.5134 54.6866 55.4849 54.6901 55.4474C54.8521 53.6499 54.9186 53.1404 55.0376 51.9209C55.1711 50.5574 54.9811 48.8694 55.6091 47.7699C57.7251 47.4149 60.2166 47.1894 62.8466 46.9094C62.8841 46.9044 62.9066 46.8829 62.9211 46.8559C62.9386 46.8414 62.9466 46.8204 62.9406 46.7929V46.7919Z" fill="#356799"/>
<path d="M54.9348 14.6312C53.4868 12.9597 51.5953 11.9572 49.4938 11.2532C49.4263 11.2302 49.3798 11.3392 49.4463 11.3652C51.5163 12.1727 53.2238 13.2387 54.6948 14.8692C56.1953 16.5322 57.1618 18.6637 58.1383 20.6327C58.1838 20.7247 58.3258 20.6552 58.3018 20.5642C57.7328 18.4082 56.3993 16.3217 54.9348 14.6312Z" fill="#356799"/>
<path d="M56.2984 14.1891C55.6974 13.5146 54.8619 12.9106 54.0984 12.4311C54.0334 12.3901 53.9684 12.4956 54.0264 12.5421C55.2784 13.5471 56.2444 14.7246 57.1714 16.0041C57.2354 16.0926 57.3814 16.0421 57.3714 15.9316C57.3154 15.2931 56.7089 14.6496 56.2984 14.1891Z" fill="#356799"/>
<path d="M47.1394 41.7281C45.6824 41.9741 44.3404 42.3841 42.8439 42.4761C41.3659 42.5671 39.3994 42.4676 38.0229 41.9271C37.9404 41.8951 37.8789 42.0341 37.9599 42.0706C39.3059 42.6661 40.9619 42.7531 42.4144 42.8481C44.1284 42.9606 45.6729 42.6111 47.2219 41.9336C47.3459 41.8801 47.2554 41.7086 47.1394 41.7281Z" fill="#356799"/>
<path d="M44.252 43.6604C43.747 43.5854 43.2155 43.6784 42.7115 43.7329C42.3645 43.7704 41.6015 43.7719 41.2895 43.6034C41.215 43.5634 41.1355 43.6569 41.1965 43.7209C41.4815 44.0199 41.9475 44.0189 42.3365 44.0694C42.9815 44.1534 43.701 44.0869 44.295 43.8304C44.389 43.7899 44.3285 43.6719 44.252 43.6604Z" fill="#356799"/>
</svg>
