<svg width="61" height="52" viewBox="0 0 61 52" fill="none" xmlns="http://www.w3.org/2000/svg">
<path d="M23.2632 7.19612C22.9702 7.58962 22.9972 9.09062 22.9427 10.0461C22.8917 10.9381 22.8107 11.1806 22.7417 11.8581C22.6562 11.1501 22.5497 10.3881 22.5572 9.63112C22.5632 8.96962 22.3432 7.60612 22.2717 7.25762C22.2352 7.08012 20.7482 6.98012 20.1642 6.96712C19.3812 6.94912 18.6192 6.72812 17.8467 6.61812C18.3287 6.57412 18.6102 6.53662 19.3692 6.49312C20.3247 6.43862 21.8257 6.46612 22.2192 6.17262C22.4262 5.76962 22.4397 4.64512 22.5097 4.06562C22.6157 3.18412 22.6747 2.50062 22.7782 1.53662C22.8822 2.50062 22.9412 3.18412 23.0472 4.06562C23.1172 4.64512 23.1307 5.76962 23.3377 6.17262C23.7312 6.46612 25.2322 6.43862 26.1877 6.49312C27.0442 6.54212 27.2947 6.58412 27.9097 6.63562C26.9397 6.74012 26.2552 6.79912 25.3702 6.90562C24.7907 6.97512 23.6662 6.98862 23.2632 7.19612Z" fill="#FFC000"/>
<path d="M53.2779 43.5936C52.8849 44.1471 52.9214 46.2621 52.8479 47.6076C52.7794 48.8646 52.6709 49.2056 52.5789 50.1601C52.4644 49.1631 52.3219 48.0891 52.3319 47.0231C52.3399 46.0921 52.0459 44.1711 51.9494 43.6806C51.9004 43.4301 49.9094 43.2901 49.1279 43.2711C48.0799 43.2461 47.0589 42.9351 46.0254 42.7796C46.6704 42.7181 47.0469 42.6646 48.0629 42.6036C49.3424 42.5271 51.3524 42.5656 51.8794 42.1521C52.1564 41.5846 52.1749 40.0001 52.2679 39.1851C52.4109 37.9426 52.4894 36.9806 52.6279 35.6226C52.7674 36.9806 52.8464 37.9426 52.9889 39.1851C53.0814 40.0001 53.1004 41.5846 53.3769 42.1521C53.9039 42.5656 55.9134 42.5271 57.1929 42.6036C58.3394 42.6726 58.6754 42.7316 59.4984 42.8041C58.1989 42.9516 57.2834 43.0346 56.0989 43.1846C55.3224 43.2821 53.8164 43.3016 53.2779 43.5936Z" fill="#FFC000"/>
<path d="M54.0405 22.1153C54.0605 22.8403 53.9555 23.5603 53.8805 24.2753C53.7755 24.7003 53.655 25.1253 53.5205 25.5403C53.2055 26.9153 52.5655 28.1953 51.8155 29.3803C51.3505 29.9653 50.9755 30.6153 50.4755 31.1703C49.6105 32.2003 48.5005 32.9953 47.3655 33.7003C46.5605 34.1803 45.5955 34.6653 44.7105 34.9603C42.9555 35.6753 40.6705 35.8953 39.1655 35.7703C36.1905 35.5203 34.2305 34.4253 33.2505 34.0853C33.1155 34.0403 33.0255 34.0253 32.9705 34.0353C32.9705 34.0353 32.58 33.7543 32.0325 33.0228C31.974 32.0388 31.4225 30.8093 30.0665 30.2263C29.4985 29.9818 28.443 29.8638 28.443 29.8638L27.5805 28.2153C27.6455 28.1353 27.6555 28.0053 27.5855 27.8503C27.5605 27.7953 27.5355 27.7403 27.5155 27.6853C27.1705 26.9903 26.9755 26.2303 26.8105 25.4753C26.6805 24.6603 26.4055 23.8703 26.3455 23.0453C26.2505 21.8903 26.1005 20.7153 26.3305 19.5703C26.4605 18.1153 26.9905 16.7253 27.6705 15.4453C27.9055 14.9403 28.2505 14.5053 28.5155 14.0203C28.8905 13.3303 29.4105 12.7353 29.9155 12.1403C31.1855 10.7353 32.8055 9.7053 34.4905 8.8803C34.8555 8.7203 35.2505 8.6503 35.6255 8.5103C36.3205 8.2553 37.0555 8.1603 37.78 8.0253C38.9355 7.8453 40.1105 7.9053 41.2755 7.9903C42.135 8.0103 43.0055 8.0803 43.8305 8.3453C45.0005 8.6403 46.0555 9.2303 47.1205 9.7653C48.4355 10.5753 49.7305 11.4753 50.7105 12.6803C51.6055 13.7403 52.405 14.8853 52.9755 16.1453C53.3905 16.9953 53.5905 17.9203 53.8155 18.8253C54.0205 19.9103 54.0405 21.0153 54.0405 22.1153Z" fill="#FFC000"/>
<path d="M41.0817 25.1837C41.0887 24.6697 41.1297 23.9742 41.1387 23.4617C41.4207 23.5527 41.5787 23.6292 41.7017 23.7557C42.1672 24.2312 41.8887 24.9497 41.0817 25.1837ZM39.0832 20.4387C37.9232 19.8112 38.1052 18.3732 39.1797 17.7847C39.2032 17.7722 39.2272 17.7617 39.2502 17.7502C39.2347 18.6747 39.2362 19.5992 39.2407 20.5172C39.1887 20.4907 39.1347 20.4667 39.0832 20.4387ZM41.0837 30.1017C41.1292 30.0637 41.1377 30.0142 41.1272 29.9652C41.1087 29.2792 41.0992 28.5967 41.0952 27.9167C41.9592 27.6702 42.8407 27.3687 43.5587 26.5642C44.5267 25.4807 44.6877 23.4217 43.7407 22.3287C43.0807 21.5667 42.0127 21.4012 41.1797 21.1702C41.2022 19.9077 41.2207 18.6452 41.2182 17.3767C41.9332 17.4077 42.6547 17.5662 43.3197 17.7132C43.4237 17.7357 43.4827 17.6322 43.4492 17.5592C43.4777 17.3607 43.5007 17.1752 43.5297 16.9087C43.5557 16.6742 43.5877 16.3942 43.5947 16.1552C43.5967 16.0897 43.5747 16.0452 43.5422 16.0172C43.5362 15.9997 43.5332 15.9822 43.5162 15.9662C42.8897 15.3952 42.0142 15.3507 41.1607 15.2982C41.1447 14.6522 41.1227 14.0052 41.0887 13.3542C41.0847 13.2777 41.0257 13.2462 40.9697 13.2527C40.9677 13.2527 40.9672 13.2507 40.9652 13.2507C40.5137 13.1467 39.9742 13.2937 39.5252 13.2902C39.5042 13.2897 39.4822 13.2977 39.4622 13.3092C39.4252 13.3172 39.3907 13.3407 39.3847 13.3917C39.3842 13.3972 39.3837 13.4022 39.3837 13.4067C39.3802 13.4197 39.3787 13.4302 39.3802 13.4432C39.3052 14.1052 39.3587 14.7567 39.3182 15.4322C38.4092 15.5812 37.6402 15.8042 36.8472 16.6437C35.8622 17.7527 35.2772 19.7372 36.5652 21.5647C37.1057 22.3317 38.3332 22.6692 39.1977 22.9517C39.2162 22.9577 39.2332 22.9652 39.2517 22.9712C39.2512 23.7552 39.2462 24.5392 39.2372 25.3232C39.1792 25.3242 39.1217 25.3227 39.0657 25.3177C38.2172 25.2307 37.5082 24.8612 36.7847 24.4412C36.7787 24.4382 36.7737 24.4382 36.7672 24.4352C36.7437 24.4167 36.7127 24.4147 36.6807 24.4252C36.6722 24.4272 36.6647 24.4302 36.6572 24.4337C36.6522 24.4377 36.6462 24.4357 36.6402 24.4407C36.6372 24.4427 36.6357 24.4447 36.6332 24.4472C36.6257 24.4522 36.6192 24.4592 36.6127 24.4662C36.3782 24.6747 36.3952 24.8317 36.2652 25.1362C36.0602 25.6187 35.8212 26.0727 35.7337 26.5967C35.7187 26.6862 35.7817 26.7357 35.8467 26.7357C36.5902 27.6107 38.1132 28.0012 39.2187 28.0787C39.2207 28.7342 39.2287 29.3892 39.2477 30.0427C39.2492 30.0937 39.2697 30.1327 39.2997 30.1587C39.3202 30.1897 39.3517 30.2132 39.3962 30.2182C39.6702 30.2487 39.9632 30.2407 40.2382 30.2257C40.4627 30.2142 40.6992 30.2127 40.9197 30.1622C40.9827 30.1687 41.0437 30.1482 41.0837 30.1017Z" fill="#356799"/>
<path d="M47.6569 14.5584C47.9329 14.7944 48.1529 15.0849 48.3834 15.3629C48.6229 15.6259 48.8009 15.9359 48.9969 16.2314C49.2684 16.7024 49.5394 17.1769 49.7204 17.6924C50.0604 18.4319 50.2764 19.2194 50.5014 19.9989C50.5619 20.2854 50.6134 20.5739 50.6279 20.8664C50.6484 21.2319 50.7299 21.5949 50.7074 21.9629C50.6024 22.7659 50.4794 23.5694 50.2839 24.3564C50.2294 24.7224 50.0499 25.0519 49.9614 25.4084C49.8354 25.8884 49.5964 26.3259 49.3879 26.7734C49.1709 27.2594 48.8644 27.6984 48.5579 28.1324C48.0334 28.7804 47.4909 29.4279 46.8159 29.9269C46.5839 30.0984 46.3829 30.3114 46.1349 30.4604C45.2569 30.9879 44.3144 31.4064 43.3404 31.7209C42.8819 31.8489 42.4184 31.9569 41.9569 32.0709C41.4259 32.1364 40.8989 32.2374 40.3629 32.2449C39.4639 32.2439 38.5604 32.1934 37.6799 31.9984C36.8314 31.7974 36.0024 31.5064 35.2249 31.1104C34.7054 30.8789 34.1999 30.6119 33.7289 30.2919C32.9514 29.7109 32.2584 29.0239 31.6399 28.2784C30.7519 27.2319 30.1499 25.9584 29.8304 24.6279C29.6994 24.1634 29.6289 23.6839 29.5304 23.2129C29.3754 22.5159 29.3734 21.7964 29.4204 21.0869C29.4239 20.4429 29.5529 19.8084 29.6839 19.1804C29.8369 18.3294 30.2169 17.5429 30.5794 16.7649C30.7854 16.3004 31.0544 15.8674 31.3594 15.4629C31.7464 15.0139 32.0764 14.5094 32.5424 14.1364C32.9514 13.6774 33.4844 13.3594 33.9944 13.0269C34.5094 12.7134 35.0024 12.3539 35.5659 12.1284C36.2549 11.8254 36.9804 11.6104 37.7154 11.4509C38.2069 11.3239 38.7124 11.2524 39.2194 11.2419C39.7264 11.1979 40.2394 11.1939 40.7459 11.2429C41.6784 11.2539 42.5929 11.4709 43.4749 11.7594C44.3129 12.1249 45.4379 12.4999 46.0314 13.3439C46.3129 13.7499 45.2504 12.6874 42.9664 12.0554C42.2419 11.8419 41.4909 11.6984 40.7339 11.7039C39.9619 11.6269 39.1854 11.6909 38.4169 11.7799C37.0794 12.0299 35.7284 12.4059 34.5979 13.1929C34.0159 13.5409 33.4549 13.9289 32.9624 14.3994C32.2669 15.0784 31.6094 15.8184 31.1579 16.6864C30.8939 17.1604 30.7294 17.6819 30.4934 18.1704C30.1484 19.1304 29.9004 20.1404 29.8934 21.1649C29.8649 21.4814 29.8484 21.7994 29.8394 22.1174C29.9019 22.6384 29.9404 23.1654 30.0729 23.6754C30.2464 24.4549 30.4359 25.2354 30.7519 25.9719C31.0569 26.5804 31.3484 27.2044 31.7774 27.7389C32.3824 28.5439 33.1324 29.2284 33.9324 29.8359C34.8209 30.5359 35.8824 30.9659 36.9419 31.3339C37.7844 31.5434 38.6269 31.7934 39.5009 31.8149C40.1284 31.8744 40.7564 31.7834 41.3714 31.6629C42.2094 31.5379 43.0534 31.3919 43.8444 31.0789C44.3364 30.8704 44.8434 30.6834 45.2944 30.3924C45.5369 30.2334 45.8084 30.1219 46.0419 29.9494C47.1059 29.0974 48.0899 28.1079 48.7664 26.9124C49.0319 26.4094 49.3059 25.9044 49.4609 25.3539C49.5714 24.9684 49.7479 24.6044 49.8314 24.2114C50.1124 23.1939 50.2679 22.1249 50.1274 21.0729C50.1074 20.2224 49.8129 19.4139 49.5639 18.6104C49.3899 18.0334 49.0689 17.5174 48.8479 16.9599C48.6094 16.4504 48.3494 15.9449 47.9964 15.5034C47.7944 15.2084 47.5819 14.9194 47.3274 14.6669C47.1969 14.5284 47.0659 14.3894 46.9299 14.2564C46.5839 13.9169 47.0214 13.9919 47.6569 14.5584Z" fill="#356799"/>
<path d="M54.6504 20.9092C54.6219 19.0272 54.1974 17.1362 53.3209 15.4637C52.7144 14.2762 51.9919 13.1452 51.1229 12.1312C50.5864 11.5597 49.9889 11.0492 49.3609 10.5817C48.4359 9.81516 47.4109 9.17566 46.3319 8.64916C45.2089 8.12266 44.0114 7.78316 42.8049 7.51116C42.0824 7.35916 41.3444 7.33616 40.6119 7.26416C39.9579 7.27766 39.3034 7.28416 38.6489 7.31716C37.2459 7.44616 35.8554 7.72416 34.5174 8.16766C34.1399 8.29316 33.8059 8.51866 33.4424 8.67916C32.3864 9.14566 31.4629 9.85116 30.5639 10.5637C30.0214 11.0542 29.4774 11.5507 29.0399 12.1377C28.6249 12.6762 28.1724 13.1912 27.8584 13.7977C27.6329 14.2502 27.2924 14.6382 27.1089 15.1132C26.6094 16.1107 26.2024 17.1527 25.8194 18.1992C25.6784 18.6862 25.6784 19.1972 25.5954 19.6942C25.5269 20.0922 25.5089 20.4947 25.5039 20.8977C25.5714 22.0122 25.6244 23.1352 25.8579 24.2292C25.9459 24.9757 26.1669 25.6947 26.3894 26.4087C26.5634 26.8647 26.7094 27.3347 26.9519 27.7592C27.0139 27.8812 27.0749 28.0037 27.1364 28.1257C27.3964 28.4797 27.7714 28.2502 27.5839 27.8502C27.5614 27.7957 27.5354 27.7427 27.5139 27.6877C27.1724 26.9887 26.9749 26.2317 26.8089 25.4757C26.6799 24.6602 26.4049 23.8707 26.3439 23.0447C26.2529 21.8907 26.0999 20.7162 26.3299 19.5677C26.4584 18.1137 26.9889 16.7247 27.6729 15.4442C27.9034 14.9412 28.2499 14.5062 28.5144 14.0217C28.8884 13.3297 29.4084 12.7337 29.9164 12.1387C31.1844 10.7372 32.8034 9.70516 34.4889 8.88216C34.8544 8.72016 35.2524 8.65266 35.6254 8.51216C36.3189 8.25716 37.0559 8.15966 37.7789 8.02766C38.9354 7.84616 40.1119 7.90316 41.2754 7.98866C42.1374 8.01216 43.0074 8.07866 43.8314 8.34766C44.9989 8.63966 46.0549 9.22866 47.1224 9.76416C48.4339 10.5772 49.7294 11.4747 50.7119 12.6817C51.6029 13.7382 52.4034 14.8837 52.9734 16.1467C53.3889 16.9942 53.5924 17.9187 53.8174 18.8277C54.0204 19.9117 54.0394 21.0167 54.0379 22.1152C54.0614 22.8397 53.9544 23.5592 53.8819 24.2772C53.7734 24.7012 53.6564 25.1232 53.5229 25.5402C53.2044 26.9132 52.5669 28.1947 51.8149 29.3797C51.3509 29.9642 50.9734 30.6152 50.4759 31.1717C49.6084 32.2007 48.5024 32.9967 47.3639 33.6982C46.5619 34.1817 45.5954 34.6667 44.7089 34.9587C42.9539 35.6752 40.6699 35.8972 39.1674 35.7712C36.1879 35.5212 34.2324 34.4237 33.2504 34.0837C32.7089 33.8962 32.8819 34.2632 32.9554 34.3577C33.9059 34.8877 34.9024 35.3402 35.9644 35.5917C36.6289 35.8102 37.3189 35.9587 38.0134 36.0527C38.6969 36.1912 39.3974 36.2477 40.0949 36.2252C41.1294 36.2327 42.1684 36.1622 43.1844 35.9627C44.0094 35.8292 44.7799 35.4957 45.5659 35.2297C46.3494 34.9372 47.1614 34.6707 47.8489 34.1782C48.5869 33.8172 49.1819 33.2402 49.8364 32.7532C50.3679 32.3027 50.8599 31.8022 51.2764 31.2407C51.9969 30.3052 52.7439 29.3647 53.2054 28.2667C53.5709 27.4637 53.9354 26.6507 54.1339 25.7872C54.4109 24.8487 54.6254 23.8827 54.6269 22.8997C54.6364 22.2377 54.6864 21.5722 54.6504 20.9092Z" fill="#356799"/>
<path d="M22.4431 21.7371C22.0716 20.1341 21.8026 18.9246 20.5701 17.7576C20.0266 17.2426 18.7096 16.6766 18.0491 17.3361C17.6106 17.7736 17.6131 18.1621 17.4796 18.7411C17.2766 19.6221 17.1976 20.5126 16.9176 21.3836C16.2646 23.4176 15.2166 25.5976 13.8301 27.2171C12.6606 28.5846 10.9331 29.3691 9.8046 30.8081C9.1036 31.7016 8.8946 32.1961 8.7516 33.3321C8.7401 33.4246 8.8911 33.4456 8.9116 33.3566C9.4176 31.1841 11.6596 29.7651 13.2911 28.4951C14.4686 27.5786 15.3086 26.4056 15.9546 25.0701C16.6131 23.7091 17.3121 22.2681 17.7011 20.8036C17.8506 20.2401 17.9791 19.6676 18.0436 19.0881C18.1026 18.5546 18.1601 17.6546 19.0111 17.6286C19.5266 17.6126 20.0691 18.0556 20.4121 18.3836C21.4511 19.3791 22.1641 21.4906 21.9351 22.9306C21.7406 24.1561 21.5741 25.2791 21.1451 26.4581C20.6371 27.8561 19.7466 28.5626 19.7306 30.1326C19.7291 30.2611 19.9286 30.2976 19.9581 30.1671C20.1771 29.2091 20.5471 28.4821 21.0891 27.6826C21.5616 26.9851 21.8346 26.2401 22.0766 25.4346C22.4131 24.3116 22.7106 22.8916 22.4431 21.7371Z" fill="#356799"/>
<path d="M30.9343 30.4226C29.3313 29.2916 27.5988 29.5716 25.7643 29.6086C23.9913 29.6441 21.6073 29.9886 19.8358 30.0216C19.7418 30.0236 19.7428 30.2341 19.8358 30.2401C22.0943 30.3861 25.0123 29.9746 27.2678 29.9931C29.2258 30.0086 31.6758 30.6741 31.7893 33.0521C31.8713 34.7756 31.0938 35.1656 29.7043 35.8191C29.6143 35.8616 29.6583 35.9981 29.7503 36.0001C31.2668 36.0311 32.2648 35.0521 32.3753 34.1251C32.5488 32.6711 32.0183 31.1871 30.9343 30.4226Z" fill="#356799"/>
<path d="M32.1147 36.8414C31.9997 36.6694 31.3592 36.0794 31.2547 36.0019C31.1257 35.9069 30.9222 36.0339 31.0752 36.1614C31.7042 36.6854 31.9682 37.0289 32.0427 37.9944C32.1692 39.6309 30.7257 40.6229 29.6547 41.5659C29.5922 41.6209 29.5537 41.7349 29.5842 41.8149C29.8827 42.6009 30.6112 43.2059 30.4722 44.1324C30.2397 45.6814 28.8967 46.2869 27.8467 47.1779C27.7697 47.2434 27.8477 47.3779 27.9427 47.3489C29.1647 46.9699 29.9807 46.3169 30.6182 45.1644C31.2262 44.0644 30.8977 43.1509 30.3217 42.1284C30.1277 41.7844 31.6022 40.5889 31.7832 40.3729C32.1347 39.9544 32.4432 39.3099 32.5092 38.7624C32.5992 38.0169 32.5367 37.4704 32.1147 36.8414Z" fill="#356799"/>
<path d="M27.9813 47.2488C27.6983 49.5923 25.1098 50.3093 23.1078 50.2948C21.5148 50.2833 19.7678 49.8488 18.1928 49.6063C16.3978 49.3293 14.6243 48.7123 13.0863 47.7448C12.3203 47.2623 11.6293 46.6778 10.9593 46.0723C10.4248 45.5903 9.79582 45.2223 9.32882 44.6748C9.24382 44.5748 9.10682 44.6973 9.15582 44.8033C9.87582 46.3603 11.7093 47.5543 13.1298 48.4488C15.0093 49.6323 17.2688 50.0723 19.4358 50.3568C21.5078 50.6278 23.3748 51.1368 25.4448 50.5523C26.9583 50.1253 28.1458 48.8518 28.1868 47.2518C28.1903 47.1163 27.9968 47.1198 27.9813 47.2488Z" fill="#356799"/>
<path d="M9.03198 32.6284C9.03498 32.6299 9.03798 32.6319 9.04098 32.6334C9.03848 32.6284 9.03298 32.6269 9.03048 32.6224C9.02748 32.6169 9.02848 32.6119 9.02498 32.6054C9.01048 32.5779 8.98798 32.5619 8.96248 32.5534C8.92448 32.5299 8.88148 32.5144 8.83748 32.5124C7.36048 32.4304 5.89548 32.6339 4.42198 32.6969C3.67248 32.7289 2.92398 32.7764 2.17198 32.7754C1.65748 32.7749 1.31498 32.5829 0.987977 33.0254C0.936477 33.0954 0.719477 33.2499 1.15698 33.3439C1.89198 33.5014 2.40698 33.2814 3.56298 33.2499C4.58898 33.2219 5.38898 33.2044 6.41298 33.1179C6.78298 33.0869 9.31198 33.2534 9.03198 32.6284Z" fill="#356799"/>
<path d="M9.75437 45.1788C8.06937 45.1078 7.10037 45.4808 5.09437 45.6878C4.07037 45.7933 2.45487 46.0208 1.47037 46.2993C1.38587 46.3238 1.34687 46.4363 1.41387 46.5008C1.71087 46.7868 1.77187 46.8283 2.22087 46.7683C2.99037 46.6648 4.01187 46.4763 4.78187 46.3753C6.68837 46.1253 8.05687 45.8358 9.74687 45.6543C10.0444 45.6228 10.0689 45.1918 9.75437 45.1788Z" fill="#356799"/>
<path d="M23.2626 7.19592C22.9696 7.58942 22.9966 9.09042 22.9421 10.0459C22.8911 10.9379 22.8101 11.1804 22.7411 11.8579C22.6556 11.1499 22.5491 10.3879 22.5566 9.63092C22.5626 8.96942 22.3426 7.60592 22.2711 7.25742C22.2346 7.07992 20.7476 6.97992 20.1636 6.96692C19.3806 6.94892 18.6186 6.72792 17.8461 6.61792C18.3281 6.57392 18.6096 6.53642 19.3686 6.49292C20.3241 6.43842 21.8251 6.46592 22.2186 6.17242C22.4256 5.76942 22.4391 4.64492 22.5091 4.06542C22.6151 3.18392 22.6741 2.50042 22.7776 1.53642C22.8816 2.50042 22.9406 3.18392 23.0466 4.06542C23.1166 4.64492 23.1301 5.76942 23.3371 6.17242C23.7306 6.46592 25.2316 6.43842 26.1871 6.49292C27.0436 6.54192 27.2941 6.58392 27.9091 6.63542C26.9391 6.73992 26.2546 6.79892 25.3696 6.90542C24.7901 6.97492 23.6656 6.98842 23.2626 7.19592ZM29.0651 6.62542C29.0641 6.62192 29.0626 6.61892 29.0611 6.61542C29.0576 6.59242 29.0436 6.57692 29.0221 6.56842C29.0086 6.55842 28.9946 6.54942 28.9771 6.54792C27.6846 6.42492 27.3331 6.43742 26.4566 6.34692C25.4766 6.24692 24.2626 6.39042 23.4721 5.91492C23.2176 4.31692 23.0556 2.43542 22.8536 0.448923C22.8541 0.446423 22.8541 0.445422 22.8541 0.443422C22.8601 0.391422 22.8191 0.368923 22.7776 0.372423C22.7366 0.368923 22.6956 0.391422 22.7011 0.443422C22.7016 0.445422 22.7021 0.446423 22.7021 0.448923C22.5006 2.43542 22.3381 4.31692 22.0836 5.91492C21.2936 6.39042 20.0796 6.24692 19.0991 6.34692C18.2226 6.43742 17.8711 6.42492 16.5791 6.54792C16.5531 6.54792 16.5346 6.55842 16.5226 6.57292C16.4766 6.61442 16.4691 6.68942 16.5391 6.68492C16.5426 6.68492 16.5451 6.68442 16.5491 6.68442C16.5581 6.68942 16.5641 6.69742 16.5766 6.69892C18.3631 6.95092 19.6001 7.12792 22.0121 7.39542C22.3391 8.29092 22.3156 9.38292 22.3241 10.2699C22.3326 11.1514 22.5431 12.0694 22.6696 12.8614C22.6756 12.8989 22.6896 12.9214 22.7056 12.9344H22.7061C22.7341 12.9559 22.7691 12.9459 22.7886 12.9124C22.8066 12.8964 22.8226 12.8759 22.8251 12.8489C22.9476 11.5564 22.9976 11.1899 23.0876 10.3134C23.1881 9.33292 23.0446 8.11942 23.5201 7.32892C25.1196 7.07342 27.0046 6.91192 28.9936 6.70942C29.0221 6.70642 29.0391 6.69092 29.0506 6.67192C29.0636 6.66142 29.0696 6.64592 29.0651 6.62692V6.62542Z" fill="#356799"/>
<path d="M53.2776 43.5934C52.8846 44.1469 52.9211 46.2619 52.8476 47.6074C52.7791 48.8644 52.6706 49.2054 52.5786 50.1599C52.4641 49.1629 52.3216 48.0889 52.3316 47.0229C52.3396 46.0919 52.0456 44.1709 51.9491 43.6804C51.9001 43.4299 49.9091 43.2899 49.1276 43.2709C48.0796 43.2459 47.0586 42.9349 46.0251 42.7794C46.6701 42.7179 47.0466 42.6644 48.0626 42.6034C49.3421 42.5269 51.3521 42.5654 51.8791 42.1519C52.1561 41.5844 52.1746 39.9999 52.2676 39.1849C52.4106 37.9424 52.4891 36.9804 52.6276 35.6224C52.7671 36.9804 52.8461 37.9424 52.9886 39.1849C53.0811 39.9999 53.1001 41.5844 53.3766 42.1519C53.9036 42.5654 55.9131 42.5269 57.1926 42.6034C58.3391 42.6724 58.6751 42.7314 59.4981 42.8039C58.1986 42.9514 57.2831 43.0344 56.0986 43.1844C55.3221 43.2819 53.8161 43.3014 53.2776 43.5934ZM60.9406 42.7909C60.9391 42.7859 60.9371 42.7819 60.9351 42.7759C60.9311 42.7444 60.9121 42.7239 60.8841 42.7109C60.8656 42.6969 60.8471 42.6849 60.8236 42.6829C59.1156 42.5119 58.6501 42.5284 57.4921 42.4044C56.1956 42.2644 54.5906 42.4639 53.5456 41.8024C53.2091 39.5799 52.9951 36.9619 52.7276 34.2004C52.7286 34.1969 52.7286 34.1954 52.7291 34.1924C52.7371 34.1199 52.6826 34.0879 52.6276 34.0934C52.5731 34.0879 52.5186 34.1199 52.5276 34.1924C52.5276 34.1954 52.5276 34.1969 52.5281 34.2004C52.2611 36.9619 52.0466 39.5799 51.7096 41.8024C50.6651 42.4639 49.0601 42.2644 47.7641 42.4044C46.6046 42.5284 46.1406 42.5119 44.4321 42.6829C44.3976 42.6829 44.3736 42.6969 44.3576 42.7174C44.2961 42.7744 44.2866 42.8794 44.3791 42.8734C44.3841 42.8734 44.3876 42.8734 44.3921 42.8724C44.4051 42.8794 44.4131 42.8909 44.4286 42.8934C46.7901 43.2439 48.4261 43.4889 51.6156 43.8614C52.0481 45.1069 52.0166 46.6259 52.0281 47.8589C52.0391 49.0854 52.3166 50.3614 52.4846 51.4629C52.4921 51.5164 52.5106 51.5469 52.5321 51.5649H52.5326C52.5706 51.5954 52.6166 51.5814 52.6421 51.5344C52.6666 51.5124 52.6866 51.4839 52.6901 51.4464C52.8521 49.6489 52.9186 49.1394 53.0376 47.9199C53.1711 46.5564 52.9811 44.8684 53.6091 43.7689C55.7251 43.4139 58.2166 43.1884 60.8466 42.9084C60.8841 42.9034 60.9066 42.8819 60.9211 42.8549C60.9386 42.8404 60.9466 42.8194 60.9406 42.7919V42.7909Z" fill="#356799"/>
<path d="M52.9348 10.6282C51.4868 8.95674 49.5953 7.95424 47.4938 7.25024C47.4263 7.22724 47.3798 7.33624 47.4463 7.36224C49.5163 8.16974 51.2238 9.23574 52.6948 10.8662C54.1953 12.5292 55.1618 14.6607 56.1383 16.6297C56.1838 16.7217 56.3258 16.6522 56.3018 16.5612C55.7328 14.4052 54.3993 12.3187 52.9348 10.6282Z" fill="#356799"/>
<path d="M54.2984 10.1838C53.6974 9.50928 52.8619 8.90528 52.0984 8.42578C52.0334 8.38478 51.9684 8.49028 52.0264 8.53678C53.2784 9.54178 54.2444 10.7193 55.1714 11.9988C55.2354 12.0873 55.3814 12.0368 55.3714 11.9263C55.3154 11.2878 54.7089 10.6443 54.2984 10.1838Z" fill="#356799"/>
<path d="M45.1394 37.7252C43.6824 37.9712 42.3404 38.3812 40.8439 38.4732C39.3659 38.5642 37.3994 38.4647 36.0229 37.9242C35.9404 37.8922 35.8789 38.0312 35.9599 38.0677C37.3059 38.6632 38.9619 38.7502 40.4144 38.8452C42.1284 38.9577 43.6729 38.6082 45.2219 37.9307C45.3459 37.8772 45.2554 37.7057 45.1394 37.7252Z" fill="#356799"/>
<path d="M42.252 39.6594C41.747 39.5844 41.2155 39.6774 40.7115 39.7319C40.3645 39.7694 39.6015 39.7709 39.2895 39.6024C39.215 39.5624 39.1355 39.6559 39.1965 39.7199C39.4815 40.0189 39.9475 40.0179 40.3365 40.0684C40.9815 40.1524 41.701 40.0859 42.295 39.8294C42.389 39.7889 42.3285 39.6709 42.252 39.6594Z" fill="#356799"/>
</svg>
