<svg width="25" height="24" viewBox="0 0 25 24" fill="none" xmlns="http://www.w3.org/2000/svg">
<path d="M12.3406 23.25H12.6601C14.0023 23.2485 15.2891 22.7146 16.2381 21.7656C17.1872 20.8165 17.7211 19.5297 17.7226 18.1875V15.5769C18.6944 14.7967 19.4786 13.8081 20.017 12.6841C20.5555 11.5602 20.8346 10.3296 20.8337 9.0833C20.8337 4.48833 17.0954 0.75 12.5003 0.75C7.90532 0.75 4.16699 4.48833 4.16699 9.0833C4.16605 10.3296 4.44513 11.5602 4.98363 12.6841C5.52213 13.8081 6.30627 14.7967 7.27814 15.5769V18.1875C7.27964 19.5297 7.81348 20.8165 8.76255 21.7656C9.71162 22.7146 10.9984 23.2485 12.3406 23.25ZM12.6601 21.75H12.3406C11.627 21.7491 10.9301 21.5342 10.3399 21.1331C9.74965 20.732 9.29329 20.1632 9.02976 19.5H15.971C15.7074 20.1632 15.2511 20.732 14.6608 21.1331C14.0706 21.5342 13.3737 21.7491 12.6601 21.75ZM16.2226 18H8.77814V16.125H16.2226V18ZM5.66699 9.0833C5.66699 5.31562 8.73243 2.25 12.5003 2.25C16.2682 2.25 19.3337 5.31562 19.3337 9.0833C19.3314 10.1586 19.0764 11.2183 18.5894 12.1769C18.1024 13.1355 17.3968 13.9663 16.5298 14.6022L16.4988 14.625H8.5019L8.47073 14.6022C7.60368 13.9663 6.89821 13.1355 6.4112 12.1769C5.92419 11.2182 5.66927 10.1586 5.66699 9.0833Z" fill="#FFC000"/>
</svg>
