<svg width="51" height="51" viewBox="0 0 51 51" fill="none" xmlns="http://www.w3.org/2000/svg">
<path d="M47.209 16.1797H49.5527V14.6172H47.7324L44.0566 5.68984C42.9668 3.04531 40.4152 1.33594 37.5551 1.33594H24.8285C22.434 1.33594 20.2262 2.53672 18.9246 4.54688L12.3371 14.7273L1.68242 17.7727C1.34648 17.868 1.11523 18.175 1.11523 18.5234V28.6797C1.11523 29.1109 1.46445 29.4609 1.89648 29.4609H5.84883C6.23867 32.9711 9.2207 35.7109 12.834 35.7109C16.4473 35.7109 19.4293 32.9711 19.8191 29.4609H22.3121L22.734 30.0945C23.9238 31.8789 24.5527 33.9562 24.5527 36.1016C24.5527 38.2469 23.9238 40.3242 22.734 42.1086L22.1637 42.9648C21.6824 43.6867 21.4285 44.5273 21.4285 45.3937C21.4277 47.8086 23.3926 49.7734 25.8066 49.7734C26.6738 49.7734 27.5145 49.5187 28.2355 49.0383L28.7668 48.6844C29.6426 48.1008 30.5902 47.643 31.5832 47.3039V49.7734H33.1457V46.6484C33.1457 46.3875 33.0152 46.1437 32.798 45.9984L28.459 43.1055V40.3984C28.459 39.968 28.809 39.6172 29.2402 39.6172C29.6715 39.6172 30.0215 39.968 30.0215 40.3984V42.7422H31.584V40.3984V32.5859C31.584 32.1555 31.934 31.8047 32.3652 31.8047C32.7965 31.8047 33.1465 32.1555 33.1465 32.5859V34.1484V38.0547H34.709V34.1484V32.5859V31.0234C34.709 30.593 35.059 30.2422 35.4902 30.2422C35.9215 30.2422 36.2715 30.593 36.2715 31.0234V32.5859V34.1484V38.0547H37.834V34.1484V32.5859C37.834 32.1555 38.184 31.8047 38.6152 31.8047C39.0465 31.8047 39.3965 32.1555 39.3965 32.5859V35.7109V38.0547H40.959V35.7109C40.959 35.2805 41.309 34.9297 41.7402 34.9297C42.1715 34.9297 42.5215 35.2805 42.5215 35.7109V43.9812L41.1879 45.3148C41.041 45.4609 40.959 45.6602 40.959 45.8672V49.7734H42.5215V48.8891L42.7441 49.0375C43.466 49.5187 44.3059 49.7734 45.1738 49.7734C47.5879 49.7734 49.5527 47.8086 49.5527 45.3945C49.5527 44.5273 49.2988 43.6875 48.8176 42.9656L48.2473 42.1094C47.0566 40.3242 46.4277 38.2469 46.4277 36.1016C46.4277 33.9562 47.0566 31.8789 48.2465 30.0945L48.8168 29.2383C49.298 28.5164 49.552 27.6758 49.552 26.8094C49.5527 24.3945 47.5879 22.4297 45.1738 22.4297C44.3066 22.4297 43.466 22.6844 42.7449 23.1648L42.2137 23.5187C40.216 24.8508 37.891 25.5547 35.4902 25.5547C33.0895 25.5547 30.7645 24.8508 28.7676 23.5195L28.2363 23.1656C27.5145 22.6844 26.6746 22.4297 25.8066 22.4297C23.3926 22.4297 21.4277 24.3945 21.4277 26.8086C21.4277 27.1797 21.484 27.5438 21.5746 27.8984H19.8191C19.4293 24.3883 16.4473 21.6484 12.834 21.6484C9.2207 21.6484 6.23867 24.3883 5.84883 27.8984H2.67773V23.2109H5.02148C5.45352 23.2109 5.80273 22.8609 5.80273 22.4297V18.2195L13.048 16.1492C13.2301 16.0977 13.3871 15.9812 13.4895 15.8227L20.2363 5.39609C21.2488 3.83203 22.9652 2.89844 24.8285 2.89844H37.5551C39.7801 2.89844 41.7652 4.22813 42.6121 6.28516L46.4871 15.6961C46.6066 15.9883 46.8926 16.1797 47.209 16.1797ZM25.8066 23.9922C26.3645 23.9922 26.9043 24.1555 27.3691 24.4648L27.9004 24.8188C30.1559 26.3227 32.7801 27.1172 35.4902 27.1172C38.2004 27.1172 40.8246 26.3227 43.0801 24.8195L43.6113 24.4656C44.0762 24.1562 44.616 23.993 45.1738 23.993C46.727 23.9922 47.9902 25.2555 47.9902 26.8086C47.9902 27.3664 47.827 27.907 47.5176 28.3711L46.9473 29.2273C45.5848 31.2695 44.8652 33.6461 44.8652 36.1016C44.8652 38.557 45.5848 40.9336 46.9465 42.9758L47.5168 43.832C47.8262 44.2961 47.9895 44.8367 47.9895 45.3945C47.9902 46.9477 46.727 48.2109 45.1738 48.2109C44.616 48.2109 44.0762 48.0477 43.6113 47.7383L43.0801 47.3844C42.898 47.2633 42.7082 47.1562 42.5215 47.0445V46.1914L43.8551 44.8578C44.002 44.7109 44.084 44.5117 44.084 44.3047V35.7109C44.084 34.4188 43.0324 33.3672 41.7402 33.3672C41.4652 33.3672 41.2043 33.4234 40.959 33.5109V32.5859C40.959 31.2938 39.9074 30.2422 38.6152 30.2422C38.3066 30.2422 38.0137 30.3055 37.7434 30.4141C37.4738 29.418 36.5707 28.6797 35.4902 28.6797C34.4098 28.6797 33.5074 29.418 33.2371 30.4141C32.9668 30.3055 32.6738 30.2422 32.3652 30.2422C31.073 30.2422 30.0215 31.2938 30.0215 32.5859V38.1984C29.7762 38.1109 29.5152 38.0547 29.2402 38.0547C27.948 38.0547 26.8965 39.1063 26.8965 40.3984V43.5234C26.8965 43.7844 27.027 44.0281 27.2441 44.1734L30.2152 46.1539C29.409 46.4914 28.6316 46.8961 27.9004 47.3836L27.3691 47.7375C26.9043 48.0469 26.3645 48.2102 25.8066 48.2102C24.2535 48.2109 22.9902 46.9477 22.9902 45.3945C22.9902 44.8367 23.1535 44.2961 23.4629 43.832L24.0332 42.9758C25.3957 40.9336 26.1152 38.557 26.1152 36.1016C26.1152 33.6461 25.3957 31.2695 24.034 29.2273L23.4637 28.3711C23.1543 27.907 22.991 27.3664 22.991 26.8086C22.9902 25.2555 24.2535 23.9922 25.8066 23.9922ZM12.834 23.2109C15.8488 23.2109 18.3027 25.6641 18.3027 28.6797C18.3027 31.6953 15.8488 34.1484 12.834 34.1484C9.81914 34.1484 7.36523 31.6953 7.36523 28.6797C7.36523 25.6641 9.81914 23.2109 12.834 23.2109ZM4.24023 21.6484H2.67773V19.1125L4.24023 18.6664V21.6484Z" fill="#356799"/>
<path d="M12.834 32.5859C14.9879 32.5859 16.7402 30.8336 16.7402 28.6797C16.7402 26.5258 14.9879 24.7734 12.834 24.7734C10.6801 24.7734 8.92773 26.5258 8.92773 28.6797C8.92773 30.8336 10.6801 32.5859 12.834 32.5859ZM12.834 26.3359C14.1262 26.3359 15.1777 27.3875 15.1777 28.6797C15.1777 29.9719 14.1262 31.0234 12.834 31.0234C11.5418 31.0234 10.4902 29.9719 10.4902 28.6797C10.4902 27.3875 11.5418 26.3359 12.834 26.3359Z" fill="#356799"/>
<path d="M43.9468 15.8406C44.0928 15.6289 44.1249 15.3586 44.0319 15.118L40.8967 6.96484C40.3202 5.46719 38.8546 4.46094 37.2507 4.46094H25.5178C24.1514 4.46094 22.9077 5.15625 22.1905 6.32031L16.8561 14.9891C16.7077 15.2305 16.7014 15.532 16.8397 15.7797C16.978 16.0273 17.2389 16.1797 17.5217 16.1797H43.303C43.56 16.1797 43.8014 16.0531 43.9468 15.8406ZM23.5217 7.13906C23.9514 6.44063 24.6983 6.02344 25.5178 6.02344H30.0217V14.6172H18.9194L23.5217 7.13906ZM31.5842 14.6172V6.02344H37.2507C38.2124 6.02344 39.0921 6.62734 39.4382 7.52578L42.1655 14.6172H31.5842Z" fill="#356799"/>
<path d="M28.459 17.7422H31.584V19.3047H28.459V17.7422Z" fill="#356799"/>
<path d="M40.959 17.7422H44.084V19.3047H40.959V17.7422Z" fill="#356799"/>
<path d="M19.084 44.3047C17.3605 44.3047 15.959 42.9031 15.959 41.1797C15.959 40.7484 15.6098 40.3984 15.1777 40.3984C14.7457 40.3984 14.3965 40.7484 14.3965 41.1797C14.3965 42.9031 12.9949 44.3047 11.2715 44.3047C10.8395 44.3047 10.4902 44.6547 10.4902 45.0859C10.4902 45.5172 10.8395 45.8672 11.2715 45.8672C12.9949 45.8672 14.3965 47.2687 14.3965 48.9922C14.3965 49.4234 14.7457 49.7734 15.1777 49.7734C15.6098 49.7734 15.959 49.4234 15.959 48.9922C15.959 47.2687 17.3605 45.8672 19.084 45.8672C19.516 45.8672 19.8652 45.5172 19.8652 45.0859C19.8652 44.6547 19.516 44.3047 19.084 44.3047ZM15.1777 46.4039C14.8309 45.882 14.3816 45.4336 13.8598 45.0859C14.3816 44.7391 14.8301 44.2898 15.1777 43.768C15.5246 44.2898 15.9738 44.7383 16.4957 45.0859C15.9738 45.4328 15.5246 45.882 15.1777 46.4039Z" fill="#356799"/>
<path d="M9.70898 38.8359C7.98555 38.8359 6.58398 37.4344 6.58398 35.7109C6.58398 35.2797 6.23477 34.9297 5.80273 34.9297C5.3707 34.9297 5.02148 35.2797 5.02148 35.7109C5.02148 37.4344 3.61992 38.8359 1.89648 38.8359C1.46445 38.8359 1.11523 39.1859 1.11523 39.6172C1.11523 40.0484 1.46445 40.3984 1.89648 40.3984C3.61992 40.3984 5.02148 41.8 5.02148 43.5234C5.02148 43.9547 5.3707 44.3047 5.80273 44.3047C6.23477 44.3047 6.58398 43.9547 6.58398 43.5234C6.58398 41.8 7.98555 40.3984 9.70898 40.3984C10.141 40.3984 10.4902 40.0484 10.4902 39.6172C10.4902 39.1859 10.141 38.8359 9.70898 38.8359ZM5.80273 40.9352C5.45586 40.4133 5.00664 39.9641 4.48477 39.6172C5.00664 39.2703 5.45586 38.8211 5.80273 38.2992C6.14961 38.8211 6.59883 39.2703 7.1207 39.6172C6.59883 39.9641 6.14961 40.4133 5.80273 40.9352Z" fill="#356799"/>
<path d="M1.89648 6.80469C3.61992 6.80469 5.02148 8.20625 5.02148 9.92969C5.02148 10.3609 5.3707 10.7109 5.80273 10.7109C6.23477 10.7109 6.58398 10.3609 6.58398 9.92969C6.58398 8.20625 7.98555 6.80469 9.70898 6.80469C10.141 6.80469 10.4902 6.45469 10.4902 6.02344C10.4902 5.59219 10.141 5.24219 9.70898 5.24219C7.98555 5.24219 6.58398 3.84063 6.58398 2.11719C6.58398 1.68594 6.23477 1.33594 5.80273 1.33594C5.3707 1.33594 5.02148 1.68594 5.02148 2.11719C5.02148 3.84063 3.61992 5.24219 1.89648 5.24219C1.46445 5.24219 1.11523 5.59219 1.11523 6.02344C1.11523 6.45469 1.46445 6.80469 1.89648 6.80469ZM5.80273 4.70547C6.14961 5.22734 6.59883 5.67656 7.1207 6.02344C6.59883 6.37031 6.14961 6.81953 5.80273 7.34141C5.45586 6.81953 5.00664 6.37031 4.48477 6.02344C5.00664 5.67656 5.45586 5.22734 5.80273 4.70547Z" fill="#356799"/>
</svg>
