<svg width="50" height="51" viewBox="0 0 50 51" fill="none" xmlns="http://www.w3.org/2000/svg">
<path d="M9.55562 35.605C9.71143 35.7287 9.89771 35.7896 10.0832 35.7896C10.3321 35.7896 10.5785 35.6804 10.7462 35.4704C11.0374 35.1046 10.9773 34.572 10.6115 34.2807C9.93327 33.7405 9.27619 33.1537 8.65976 32.5364L2.39547 26.2721L8.85536 19.8122C15.0655 13.603 24.0995 11.4835 32.4282 14.2795C32.871 14.426 33.3511 14.1889 33.501 13.7461C33.6492 13.3032 33.4112 12.8223 32.9675 12.6732C24.0241 9.67148 14.3254 11.9476 7.65805 18.6141L0 26.2721L7.4616 33.7337C8.12292 34.3959 8.82826 35.025 9.55562 35.605Z" fill="#356799"/>
<path d="M42.5384 18.6149C41.397 17.4735 40.1455 16.4438 38.8178 15.553C38.4299 15.2931 37.9024 15.3964 37.6425 15.7842C37.3817 16.172 37.4858 16.6987 37.8736 16.9595C39.1099 17.7885 40.2767 18.7487 41.3402 19.8122L47.6045 26.0765L41.1446 32.5364C34.8914 38.7897 25.4687 40.904 17.1375 37.9184C16.6971 37.76 16.212 37.9895 16.0545 38.4298C15.897 38.8701 16.1256 39.3545 16.5659 39.5128C19.2603 40.4781 22.0613 40.9464 24.8438 40.9464C31.2969 40.9464 37.6501 38.4256 42.342 33.7337L49.9992 26.0765L42.5384 18.6149Z" fill="#356799"/>
<path d="M25.859 35.9302C24.036 35.9302 22.2595 35.4238 20.7192 34.4653C20.3238 34.2197 19.8013 34.34 19.5533 34.7371C19.306 35.1342 19.4279 35.6558 19.8251 35.9031C21.6329 37.0293 23.7201 37.6237 25.859 37.6237C32.1623 37.6237 37.2902 32.4957 37.2902 26.1925C37.2902 23.919 36.6238 21.7225 35.3638 19.8402C35.103 19.4515 34.5764 19.3473 34.1894 19.6073C33.8007 19.8681 33.6966 20.3939 33.9565 20.7817C35.0294 22.3847 35.5967 24.2551 35.5967 26.1925C35.5967 31.5626 31.2283 35.9302 25.859 35.9302Z" fill="#356799"/>
<path d="M25.859 16.4548C27.6076 16.4548 29.3214 16.9231 30.8168 17.8096C31.2181 18.0476 31.738 17.9155 31.9768 17.5124C32.2148 17.1102 32.0827 16.5912 31.6796 16.3524C29.9235 15.3117 27.9107 14.7613 25.8582 14.7613C19.5549 14.7613 14.427 19.8893 14.427 26.1925C14.427 27.9571 14.8182 29.6498 15.5904 31.2231C15.7378 31.5228 16.0384 31.6973 16.3517 31.6973C16.4761 31.6973 16.604 31.6693 16.7234 31.6109C17.1434 31.4043 17.317 30.8971 17.1112 30.4779C16.4541 29.1384 16.1205 27.6972 16.1205 26.1934C16.1214 20.8232 20.4898 16.4548 25.859 16.4548Z" fill="#356799"/>
<path d="M46.2506 5.27175C45.9195 4.94067 45.3843 4.94067 45.0533 5.27175L5.67918 44.6458C5.3481 44.9769 5.3481 45.5121 5.67918 45.8431C5.8443 46.0083 6.06107 46.0912 6.27784 46.0912C6.49461 46.0912 6.71138 46.0083 6.87649 45.8431L46.2506 6.46906C46.5816 6.13882 46.5816 5.60283 46.2506 5.27175Z" fill="#356799"/>
</svg>
