<svg width="51" height="51" viewBox="0 0 51 51" fill="none" xmlns="http://www.w3.org/2000/svg">
<g clip-path="url(#clip0_3905_13678)">
<path fill-rule="evenodd" clip-rule="evenodd" d="M25.668 7.12627C25.927 7.12627 26.1754 7.02338 26.3585 6.84024C26.5416 6.6571 26.6445 6.40871 26.6445 6.14971V1.53125C26.6445 1.27225 26.5416 1.02386 26.3585 0.840716C26.1754 0.657575 25.927 0.554688 25.668 0.554688C25.409 0.554688 25.1606 0.657575 24.9774 0.840716C24.7943 1.02386 24.6914 1.27225 24.6914 1.53125V6.14971C24.6914 6.40871 24.7943 6.6571 24.9774 6.84024C25.1606 7.02338 25.409 7.12627 25.668 7.12627ZM25.6685 10.0025C17.093 10.0025 10.1162 16.9792 10.1162 25.5547C10.1162 34.1302 17.093 41.1069 25.6685 41.1069C34.2439 41.1069 41.2207 34.1302 41.2207 25.5547C41.2207 16.9792 34.2439 10.0025 25.6685 10.0025ZM25.6685 39.1538C18.1698 39.1538 12.0693 33.0533 12.0693 25.5547C12.0693 18.0561 18.1698 11.9556 25.6685 11.9556C33.1671 11.9556 39.2676 18.0561 39.2676 25.5547C39.2676 33.0533 33.1671 39.1538 25.6685 39.1538ZM24.9774 44.2691C25.1606 44.086 25.409 43.9831 25.668 43.9831C25.927 43.9831 26.1754 44.086 26.3585 44.2691C26.5416 44.4523 26.6445 44.7007 26.6445 44.9597V49.5781C26.6445 49.8371 26.5416 50.0855 26.3585 50.2687C26.1754 50.4518 25.927 50.5547 25.668 50.5547C25.409 50.5547 25.1606 50.4518 24.9774 50.2687C24.7943 50.0855 24.6914 49.8371 24.6914 49.5781V44.9597C24.6914 44.7007 24.7943 44.4523 24.9774 44.2691ZM15.1199 9.23778C15.2494 9.46208 15.4627 9.62576 15.7129 9.6928C15.9631 9.75984 16.2296 9.72475 16.4539 9.59525C16.6783 9.46575 16.8419 9.25245 16.909 9.00227C16.976 8.75209 16.9409 8.48552 16.8114 8.26121L14.5021 4.26151C14.4385 4.14955 14.3533 4.05129 14.2515 3.97238C14.1497 3.89347 14.0334 3.83548 13.9091 3.80173C13.7848 3.76799 13.655 3.75916 13.5273 3.77576C13.3996 3.79236 13.2764 3.83406 13.1649 3.89846C13.0534 3.96285 12.9557 4.04867 12.8774 4.15098C12.7992 4.25329 12.742 4.37006 12.7091 4.49457C12.6762 4.61908 12.6682 4.74887 12.6856 4.87647C12.7031 5.00408 12.7456 5.12697 12.8107 5.23807L15.1199 9.23778ZM35.6233 41.4165C35.8735 41.4836 36.0868 41.6473 36.2163 41.8716L38.5255 45.8713C38.5906 45.9824 38.6331 46.1053 38.6506 46.2329C38.668 46.3605 38.6601 46.4903 38.6271 46.6148C38.5942 46.7393 38.537 46.8561 38.4588 46.9584C38.3805 47.0607 38.2828 47.1465 38.1713 47.2109C38.0598 47.2753 37.9366 47.317 37.8089 47.3336C37.6812 47.3502 37.5514 47.3414 37.4271 47.3076C37.3029 47.2739 37.1865 47.2159 37.0847 47.137C36.9829 47.0581 36.8977 46.9598 36.8341 46.8478L34.5248 42.8481C34.3953 42.6238 34.3602 42.3573 34.4272 42.1071C34.4943 41.8569 34.658 41.6436 34.8823 41.5141C35.1066 41.3846 35.3731 41.3495 35.6233 41.4165ZM9.35061 15.0064L5.35091 12.6973C5.2398 12.6321 5.11691 12.5896 4.98931 12.5722C4.86171 12.5547 4.73191 12.5627 4.6074 12.5956C4.48289 12.6285 4.36612 12.6857 4.26382 12.764C4.16151 12.8422 4.07569 12.9399 4.01129 13.0514C3.9469 13.163 3.9052 13.2861 3.8886 13.4139C3.872 13.5416 3.88082 13.6713 3.91457 13.7956C3.94831 13.9199 4.00631 14.0363 4.08522 14.1381C4.16412 14.2398 4.26239 14.325 4.37434 14.3887L8.37405 16.6979C8.59836 16.8274 8.86492 16.8625 9.1151 16.7955C9.36528 16.7285 9.57858 16.5648 9.70809 16.3405C9.83759 16.1162 9.87268 15.8496 9.80564 15.5994C9.7386 15.3492 9.57492 15.1359 9.35061 15.0064ZM42.9613 34.4114L46.961 36.7207C47.073 36.7844 47.1712 36.8695 47.2501 36.9713C47.329 37.0731 47.387 37.1895 47.4208 37.3138C47.4545 37.4381 47.4633 37.5678 47.4467 37.6955C47.4301 37.8232 47.3884 37.9464 47.324 38.0579C47.2596 38.1695 47.1738 38.2672 47.0715 38.3454C46.9692 38.4236 46.8524 38.4808 46.7279 38.5138C46.6034 38.5467 46.4736 38.5546 46.346 38.5372C46.2184 38.5197 46.0955 38.4772 45.9844 38.4121L41.9847 36.1029C41.7604 35.9734 41.5967 35.7601 41.5297 35.5099C41.4627 35.2598 41.4978 34.9932 41.6273 34.7689C41.7568 34.5446 41.9701 34.3809 42.2202 34.3139C42.4704 34.2468 42.737 34.2819 42.9613 34.4114ZM7.23955 25.5547C7.23955 25.2957 7.13666 25.0473 6.95352 24.8642C6.77038 24.681 6.52199 24.5781 6.26299 24.5781H1.64453C1.38553 24.5781 1.13714 24.681 0.953997 24.8642C0.770856 25.0473 0.667969 25.2957 0.667969 25.5547C0.667969 25.8137 0.770856 26.0621 0.953997 26.2452C1.13714 26.4284 1.38553 26.5312 1.64453 26.5312H6.26299C6.52199 26.5312 6.77038 26.4284 6.95352 26.2452C7.13666 26.0621 7.23955 25.8137 7.23955 25.5547ZM45.0731 24.5781H49.6915C49.9505 24.5781 50.1989 24.681 50.3821 24.8642C50.5652 25.0473 50.6681 25.2957 50.6681 25.5547C50.6681 25.8137 50.5652 26.0621 50.3821 26.2452C50.1989 26.4284 49.9505 26.5312 49.6915 26.5312H45.0731C44.8141 26.5312 44.5657 26.4284 44.3825 26.2452C44.1994 26.0621 44.0965 25.8137 44.0965 25.5547C44.0965 25.2957 44.1994 25.0473 44.3825 24.8642C44.5657 24.681 44.8141 24.5781 45.0731 24.5781ZM8.37405 34.4114L4.37434 36.7207C4.26239 36.7844 4.16412 36.8695 4.08522 36.9713C4.00631 37.0731 3.94831 37.1895 3.91457 37.3138C3.88082 37.4381 3.872 37.5678 3.8886 37.6955C3.9052 37.8232 3.9469 37.9464 4.01129 38.0579C4.07569 38.1695 4.16151 38.2672 4.26382 38.3454C4.36612 38.4236 4.48289 38.4808 4.6074 38.5138C4.73191 38.5467 4.86171 38.5546 4.98931 38.5372C5.11691 38.5197 5.2398 38.4772 5.35091 38.4121L9.35061 36.1029C9.57492 35.9734 9.7386 35.7601 9.80564 35.5099C9.87268 35.2598 9.83758 34.9932 9.70809 34.7689C9.57858 34.5446 9.36528 34.3809 9.1151 34.3139C8.86492 34.2468 8.59836 34.2819 8.37405 34.4114ZM42.9616 16.6979C42.8135 16.7837 42.6454 16.8289 42.4743 16.8289C42.2591 16.8292 42.05 16.7584 41.8792 16.6276C41.7084 16.4968 41.5856 16.3133 41.5298 16.1055C41.474 15.8978 41.4884 15.6774 41.5707 15.4787C41.653 15.2799 41.7987 15.1139 41.985 15.0064L45.9847 12.6973C46.0958 12.6321 46.2187 12.5896 46.3463 12.5722C46.4739 12.5547 46.6037 12.5627 46.7282 12.5956C46.8527 12.6285 46.9695 12.6857 47.0718 12.764C47.1741 12.8422 47.2599 12.9399 47.3243 13.0514C47.3887 13.163 47.4304 13.2861 47.447 13.4139C47.4636 13.5416 47.4548 13.6713 47.421 13.7956C47.3873 13.9199 47.3293 14.0363 47.2504 14.1381C47.1715 14.2398 47.0732 14.325 46.9613 14.3887L42.9616 16.6979ZM16.4539 41.5142C16.2296 41.3847 15.9631 41.3496 15.7129 41.4166C15.4627 41.4836 15.2494 41.6473 15.1199 41.8716L12.8107 45.8713C12.7456 45.9824 12.7031 46.1053 12.6856 46.2329C12.6682 46.3605 12.6762 46.4903 12.7091 46.6148C12.742 46.7393 12.7992 46.8561 12.8774 46.9584C12.9557 47.0607 13.0534 47.1465 13.1649 47.2109C13.2764 47.2753 13.3996 47.317 13.5273 47.3336C13.655 47.3502 13.7848 47.3414 13.9091 47.3076C14.0334 47.2739 14.1497 47.2159 14.2515 47.137C14.3533 47.0581 14.4385 46.9598 14.5021 46.8479L16.8114 42.8481C16.9409 42.6238 16.976 42.3573 16.9089 42.1071C16.8419 41.8569 16.6782 41.6436 16.4539 41.5142ZM35.6233 9.69276C35.3731 9.75979 35.1066 9.72469 34.8823 9.5952C34.658 9.46571 34.4943 9.25242 34.4273 9.00225C34.3602 8.75208 34.3953 8.48552 34.5248 8.26121L36.834 4.26151C36.8977 4.14955 36.9829 4.05129 37.0847 3.97238C37.1864 3.89347 37.3028 3.83548 37.4271 3.80173C37.5514 3.76799 37.6811 3.75916 37.8089 3.77576C37.9366 3.79236 38.0597 3.83406 38.1713 3.89846C38.2828 3.96285 38.3805 4.04867 38.4587 4.15098C38.537 4.25329 38.5942 4.37006 38.6271 4.49457C38.66 4.61908 38.668 4.74887 38.6506 4.87647C38.6331 5.00408 38.5906 5.12697 38.5255 5.23807L36.2163 9.23778C36.0868 9.46207 35.8735 9.62573 35.6233 9.69276Z" fill="#356799"/>
</g>
<defs>
<clipPath id="clip0_3905_13678">
<rect width="50" height="50" fill="white" transform="translate(0.667969 0.554688)"/>
</clipPath>
</defs>
</svg>
