<svg width="48" height="48" viewBox="0 0 48 48" fill="none" xmlns="http://www.w3.org/2000/svg">
<path fill-rule="evenodd" clip-rule="evenodd" d="M45.75 6.60938V33.3127C47.1482 34.8729 48 36.9324 48 39.1875C48 44.0467 44.0467 48 39.1875 48C36.2109 48 33.5747 46.5163 31.9784 44.25H23.1375C22.6198 44.25 22.2 43.8303 22.2 43.3125C22.2 42.7947 22.6198 42.375 23.1375 42.375H30.9718C30.6515 41.5523 30.4517 40.6702 30.3935 39.75H5.4375C4.91981 39.75 4.5 39.3303 4.5 38.8125V16.6875C4.5 16.1697 4.91981 15.75 5.4375 15.75H40.3125C40.8302 15.75 41.25 16.1697 41.25 16.6875V30.6193C42.1927 30.8463 43.0768 31.225 43.875 31.7285V13.125H8.4375C7.91981 13.125 7.5 12.7053 7.5 12.1875C7.5 11.6697 7.91981 11.25 8.4375 11.25H43.875V6.60938C43.875 6.06656 43.4334 5.625 42.8906 5.625H36.0938V6.5625C36.0938 8.11331 34.8321 9.375 33.2812 9.375C31.7304 9.375 30.4688 8.11331 30.4688 6.5625V5.625H15.2812V6.5625C15.2812 8.11331 14.0196 9.375 12.4688 9.375C10.9179 9.375 9.65625 8.11331 9.65625 6.5625V5.625H2.85938C2.31656 5.625 1.875 6.06656 1.875 6.60938V41.3906C1.875 41.9334 2.31656 42.375 2.85938 42.375H15.6376C16.1553 42.375 16.5751 42.7947 16.5751 43.3125C16.5751 43.8303 16.1553 44.25 15.6376 44.25H2.85938C1.28278 44.25 0 42.9673 0 41.3906V6.60938C0 5.03269 1.28278 3.75 2.85938 3.75H9.65625V2.8125C9.65625 1.26169 10.9179 0 12.4688 0C14.0196 0 15.2812 1.26169 15.2812 2.8125V3.75H30.4688V2.8125C30.4688 1.26169 31.7304 0 33.2812 0C34.8321 0 36.0938 1.26169 36.0938 2.8125V3.75H42.8906C44.4672 3.75 45.75 5.03269 45.75 6.60938ZM12.4688 7.5C12.9857 7.5 13.4062 7.07944 13.4062 6.5625V2.8125C13.4062 2.29556 12.9857 1.875 12.4688 1.875C11.9518 1.875 11.5312 2.29556 11.5312 2.8125V6.5625C11.5312 7.07944 11.9518 7.5 12.4688 7.5ZM33.2812 7.5C33.7982 7.5 34.2188 7.07944 34.2188 6.5625V2.8125C34.2188 2.29556 33.7982 1.875 33.2812 1.875C32.7643 1.875 32.3438 2.29556 32.3438 2.8125V6.5625C32.3438 7.07944 32.7643 7.5 33.2812 7.5ZM37.9041 30.4688C38.3232 30.4073 38.7517 30.375 39.1875 30.375C39.2502 30.375 39.3127 30.376 39.375 30.3773V25.0312H34.275V30.4688H37.9041ZM27.3 37.875H30.4728C30.7156 36.256 31.4003 34.7797 32.4 33.5732V32.3438H27.3V37.875ZM11.475 25.0312H6.375V30.4688H11.475V25.0312ZM18.45 25.0312H13.35V30.4688H18.45V25.0312ZM32.4 25.0312H27.3V30.4688H32.4V25.0312ZM20.325 30.4688H25.425V25.0312H20.325V30.4688ZM27.3 17.625V23.1562H32.4V17.625H27.3ZM20.325 23.1562H25.425V17.625H20.325V23.1562ZM13.35 23.1562H18.45V17.625H13.35V23.1562ZM18.45 37.875V32.3438H13.35V37.875H18.45ZM25.425 32.3438H20.325V37.875H25.425V32.3438ZM34.275 23.1562H39.375V17.625H34.275V23.1562ZM11.475 23.1562V17.625H6.375V23.1562H11.475ZM11.475 32.3438H6.375V37.875H11.475V32.3438ZM32.25 39.1875C32.25 43.0129 35.3621 46.125 39.1875 46.125C43.0129 46.125 46.125 43.0129 46.125 39.1875C46.125 35.3621 43.0129 32.25 39.1875 32.25C35.3621 32.25 32.25 35.3621 32.25 39.1875ZM39 39.8148L41.8996 36.9152C42.2658 36.5491 42.8593 36.5491 43.2254 36.9151C43.5914 37.2813 43.5914 37.8749 43.2254 38.241L39.6629 41.8035C39.487 41.9793 39.2486 42.0781 38.9999 42.0781C38.7513 42.0781 38.5129 41.9793 38.337 41.8035L36.3839 39.8504C36.0179 39.4843 36.0179 38.8907 36.3839 38.5246C36.7504 38.1585 37.3439 38.1585 37.7099 38.5246L39 39.8148ZM19.3877 42.375C19.1411 42.375 18.8993 42.4753 18.7249 42.6497C18.5506 42.8241 18.4502 43.0659 18.4502 43.3125C18.4502 43.5591 18.5505 43.8009 18.7249 43.9753C18.8993 44.1497 19.1411 44.25 19.3877 44.25C19.6343 44.25 19.8761 44.1497 20.0505 43.9753C20.2248 43.8009 20.3252 43.5591 20.3252 43.3125C20.3252 43.0659 20.2249 42.8241 20.0505 42.6497C19.8761 42.4753 19.6343 42.375 19.3877 42.375ZM5.625 12.1875C5.625 12.4341 5.52469 12.6759 5.35022 12.8503C5.17594 13.0247 4.93406 13.125 4.6875 13.125C4.43991 13.125 4.19916 13.0247 4.02469 12.8503C3.85022 12.6759 3.75 12.4341 3.75 12.1875C3.75 11.9409 3.85031 11.6991 4.02469 11.5247C4.19906 11.3503 4.43991 11.25 4.6875 11.25C4.93406 11.25 5.17594 11.3503 5.35022 11.5247C5.52469 11.6991 5.625 11.9409 5.625 12.1875Z" fill="#353442"/>
</svg>
