<svg width="22" height="22" viewBox="0 0 22 22" fill="none" xmlns="http://www.w3.org/2000/svg">
<path fill-rule="evenodd" clip-rule="evenodd" d="M20.9501 8.46416C20.9501 8.46416 20.7362 7.98547 20.4722 7.98547H18.0052C17.7408 7.98547 17.5269 8.19978 17.5269 8.46416V8.92767H16.8543C16.8543 8.47022 16.8543 8.18233 16.8543 8.15388C16.8543 7.98547 16.6783 8.00064 16.6783 8.00064H15.1793C15.1793 5.65347 13.9936 5.66105 13.9936 5.66105H11.3426V4.86374H13.9936V3.6875H5.20306V4.86374H8.09341V5.66105C8.09341 5.66105 6.62054 5.66105 5.43217 5.66105L3.83223 6.88433H2.59189C2.32751 6.88433 2.1132 7.09864 2.1132 7.36302V10.4328H1.31627V7.15364H0.139648V15.3862H1.31627V11.9974H2.1132V15.1768C2.1132 15.4408 2.32751 15.6551 2.59189 15.6551H3.83223L7.72434 18.4358C7.72434 18.4358 14.7609 18.4358 15.8674 18.4358C16.9738 18.4358 16.8543 17.494 16.8543 17.494C16.8543 17.494 16.8543 16.9232 16.8543 16.0636H17.5269V17.12C17.5269 17.3844 17.7408 17.5987 18.0052 17.5987H20.4722C20.7362 17.5987 20.9501 17.12 20.9501 17.12L21.6382 15.1169V10.4673L20.9501 8.46416ZM5.56037 13.1081C5.86306 13.1081 6.17182 13.0489 6.37172 12.9567L6.47413 13.336C6.29168 13.4172 5.92603 13.5097 5.45189 13.5097C4.37237 13.5097 3.55572 12.8532 3.55572 11.6553C3.55572 10.5113 4.37237 9.74091 5.56644 9.74091C6.04058 9.74091 6.34858 9.83347 6.4802 9.89833L6.35996 10.2833C6.17182 10.1968 5.90327 10.1316 5.58351 10.1316C4.68113 10.1316 4.08106 10.6793 4.08106 11.639C4.08106 12.5338 4.62386 13.1081 5.56037 13.1081ZM9.95279 13.4502H9.45589V11.7365H7.59386V13.4502H7.09127V9.79553H7.59386V11.3298H9.45589V9.79553H9.95279V13.4502ZM12.9854 13.4502H10.8153V9.79553H12.9004V10.1858H11.3179V11.3462H12.809V11.7365H11.3179V13.0595H12.9854V13.4502ZM15.402 13.1081C15.7046 13.1081 16.013 13.0489 16.2129 12.9567L16.3161 13.336C16.1329 13.4172 15.7676 13.5097 15.2935 13.5097C14.214 13.5097 13.3969 12.8532 13.3969 11.6553C13.3969 10.5113 14.214 9.74091 15.4076 9.74091C15.8818 9.74091 16.1902 9.83347 16.3214 9.89833L16.2019 10.2833C16.013 10.1968 15.7449 10.1316 15.4247 10.1316C14.5223 10.1316 13.9226 10.6793 13.9226 11.639C13.9226 12.5338 14.4654 13.1081 15.402 13.1081ZM19.0688 13.4502L17.8007 11.6553L17.4354 12.0566V13.4502H16.9325V9.79553H17.4354V11.5574H17.4525C17.5553 11.4163 17.6577 11.2866 17.7548 11.1671L18.9314 9.79553H19.5429L18.1546 11.3462L19.6571 13.4502H19.0688Z" fill="#FFC000"/>
</svg>
