<svg width="60" height="61" viewBox="0 0 60 61" fill="none" xmlns="http://www.w3.org/2000/svg">
<rect y="0.5" width="60" height="60" rx="30" fill="#C1ECFB"/>
<path d="M47.5 23H49.375V21.75H47.9187L44.9781 14.6081C44.1063 12.4925 42.065 11.125 39.7769 11.125H29.5956C27.68 11.125 25.9137 12.0856 24.8725 13.6938L19.6025 21.8381L11.0787 24.2744C10.81 24.3506 10.625 24.5962 10.625 24.875V33C10.625 33.345 10.9044 33.625 11.25 33.625H14.4119C14.7238 36.4331 17.1094 38.625 20 38.625C22.8906 38.625 25.2762 36.4331 25.5881 33.625H27.5825L27.92 34.1319C28.8719 35.5594 29.375 37.2213 29.375 38.9375C29.375 40.6537 28.8719 42.3156 27.92 43.7431L27.4637 44.4281C27.0787 45.0056 26.8756 45.6781 26.8756 46.3713C26.875 48.3031 28.4469 49.875 30.3781 49.875C31.0719 49.875 31.7444 49.6712 32.3213 49.2869L32.7463 49.0037C33.4469 48.5369 34.205 48.1706 34.9994 47.8994V49.875H36.2494V47.375C36.2494 47.1662 36.145 46.9712 35.9713 46.855L32.5 44.5406V42.375C32.5 42.0306 32.78 41.75 33.125 41.75C33.47 41.75 33.75 42.0306 33.75 42.375V44.25H35V42.375V36.125C35 35.7806 35.28 35.5 35.625 35.5C35.97 35.5 36.25 35.7806 36.25 36.125V37.375V40.5H37.5V37.375V36.125V34.875C37.5 34.5306 37.78 34.25 38.125 34.25C38.47 34.25 38.75 34.5306 38.75 34.875V36.125V37.375V40.5H40V37.375V36.125C40 35.7806 40.28 35.5 40.625 35.5C40.97 35.5 41.25 35.7806 41.25 36.125V38.625V40.5H42.5V38.625C42.5 38.2806 42.78 38 43.125 38C43.47 38 43.75 38.2806 43.75 38.625V45.2412L42.6831 46.3081C42.5656 46.425 42.5 46.5844 42.5 46.75V49.875H43.75V49.1675L43.9281 49.2862C44.5056 49.6712 45.1775 49.875 45.8719 49.875C47.8031 49.875 49.375 48.3031 49.375 46.3719C49.375 45.6781 49.1719 45.0062 48.7869 44.4287L48.3306 43.7437C47.3781 42.3156 46.875 40.6537 46.875 38.9375C46.875 37.2213 47.3781 35.5594 48.33 34.1319L48.7862 33.4469C49.1712 32.8694 49.3744 32.1969 49.3744 31.5037C49.375 29.5719 47.8031 28 45.8719 28C45.1781 28 44.5056 28.2038 43.9287 28.5881L43.5037 28.8713C41.9056 29.9369 40.0456 30.5 38.125 30.5C36.2044 30.5 34.3444 29.9369 32.7469 28.8719L32.3219 28.5887C31.7444 28.2037 31.0725 28 30.3781 28C28.4469 28 26.875 29.5719 26.875 31.5031C26.875 31.8 26.92 32.0912 26.9925 32.375H25.5881C25.2762 29.5669 22.8906 27.375 20 27.375C17.1094 27.375 14.7238 29.5669 14.4119 32.375H11.875V28.625H13.75C14.0956 28.625 14.375 28.345 14.375 28V24.6319L20.1713 22.9756C20.3169 22.9344 20.4425 22.8412 20.5244 22.7144L25.9219 14.3731C26.7319 13.1219 28.105 12.375 29.5956 12.375H39.7769C41.5569 12.375 43.145 13.4388 43.8225 15.0844L46.9225 22.6131C47.0181 22.8469 47.2469 23 47.5 23ZM30.3781 29.25C30.8244 29.25 31.2563 29.3806 31.6281 29.6281L32.0531 29.9113C33.8575 31.1144 35.9569 31.75 38.125 31.75C40.2931 31.75 42.3925 31.1144 44.1969 29.9119L44.6219 29.6287C44.9938 29.3813 45.4256 29.2506 45.8719 29.2506C47.1144 29.25 48.125 30.2606 48.125 31.5031C48.125 31.9494 47.9944 32.3819 47.7469 32.7531L47.2906 33.4381C46.2006 35.0719 45.625 36.9731 45.625 38.9375C45.625 40.9019 46.2006 42.8031 47.29 44.4369L47.7463 45.1219C47.9938 45.4931 48.1244 45.9256 48.1244 46.3719C48.125 47.6144 47.1144 48.625 45.8719 48.625C45.4256 48.625 44.9938 48.4944 44.6219 48.2469L44.1969 47.9638C44.0513 47.8669 43.8994 47.7812 43.75 47.6919V47.0094L44.8169 45.9425C44.9344 45.825 45 45.6656 45 45.5V38.625C45 37.5912 44.1587 36.75 43.125 36.75C42.905 36.75 42.6963 36.795 42.5 36.865V36.125C42.5 35.0912 41.6588 34.25 40.625 34.25C40.3781 34.25 40.1437 34.3006 39.9275 34.3875C39.7119 33.5906 38.9894 33 38.125 33C37.2606 33 36.5388 33.5906 36.3225 34.3875C36.1063 34.3006 35.8719 34.25 35.625 34.25C34.5912 34.25 33.75 35.0912 33.75 36.125V40.615C33.5537 40.545 33.345 40.5 33.125 40.5C32.0912 40.5 31.25 41.3412 31.25 42.375V44.875C31.25 45.0838 31.3544 45.2788 31.5281 45.395L33.905 46.9794C33.26 47.2494 32.6381 47.5731 32.0531 47.9631L31.6281 48.2463C31.2563 48.4938 30.8244 48.6244 30.3781 48.6244C29.1356 48.625 28.125 47.6144 28.125 46.3719C28.125 45.9256 28.2556 45.4931 28.5031 45.1219L28.9594 44.4369C30.0494 42.8031 30.625 40.9019 30.625 38.9375C30.625 36.9731 30.0494 35.0719 28.96 33.4381L28.5037 32.7531C28.2563 32.3819 28.1256 31.9494 28.1256 31.5031C28.125 30.2606 29.1356 29.25 30.3781 29.25ZM20 28.625C22.4119 28.625 24.375 30.5875 24.375 33C24.375 35.4125 22.4119 37.375 20 37.375C17.5881 37.375 15.625 35.4125 15.625 33C15.625 30.5875 17.5881 28.625 20 28.625ZM13.125 27.375H11.875V25.3462L13.125 24.9894V27.375Z" fill="#356799"/>
<path d="M20 36.125C21.7231 36.125 23.125 34.7231 23.125 33C23.125 31.2769 21.7231 29.875 20 29.875C18.2769 29.875 16.875 31.2769 16.875 33C16.875 34.7231 18.2769 36.125 20 36.125ZM20 31.125C21.0338 31.125 21.875 31.9662 21.875 33C21.875 34.0338 21.0338 34.875 20 34.875C18.9662 34.875 18.125 34.0338 18.125 33C18.125 31.9662 18.9662 31.125 20 31.125Z" fill="#356799"/>
<path d="M44.8902 22.7288C45.0071 22.5594 45.0327 22.3431 44.9583 22.1506L42.4502 15.6281C41.989 14.43 40.8165 13.625 39.5333 13.625H30.1471C29.054 13.625 28.059 14.1813 27.4852 15.1125L23.2177 22.0475C23.099 22.2406 23.094 22.4819 23.2046 22.68C23.3152 22.8781 23.524 23 23.7502 23H44.3752C44.5808 23 44.774 22.8988 44.8902 22.7288ZM28.5502 15.7675C28.894 15.2088 29.4915 14.875 30.1471 14.875H33.7502V21.75H24.8683L28.5502 15.7675ZM35.0002 21.75V14.875H39.5333C40.3027 14.875 41.0065 15.3581 41.2833 16.0769L43.4652 21.75H35.0002Z" fill="#356799"/>
<path d="M32.5 24.25H35V25.5H32.5V24.25Z" fill="#356799"/>
<path d="M42.5 24.25H45V25.5H42.5V24.25Z" fill="#356799"/>
<path d="M25 45.5C23.6213 45.5 22.5 44.3788 22.5 43C22.5 42.655 22.2206 42.375 21.875 42.375C21.5294 42.375 21.25 42.655 21.25 43C21.25 44.3788 20.1288 45.5 18.75 45.5C18.4044 45.5 18.125 45.78 18.125 46.125C18.125 46.47 18.4044 46.75 18.75 46.75C20.1288 46.75 21.25 47.8713 21.25 49.25C21.25 49.595 21.5294 49.875 21.875 49.875C22.2206 49.875 22.5 49.595 22.5 49.25C22.5 47.8713 23.6213 46.75 25 46.75C25.3456 46.75 25.625 46.47 25.625 46.125C25.625 45.78 25.3456 45.5 25 45.5ZM21.875 47.1794C21.5975 46.7619 21.2381 46.4031 20.8206 46.125C21.2381 45.8475 21.5969 45.4881 21.875 45.0706C22.1525 45.4881 22.5119 45.8469 22.9294 46.125C22.5119 46.4025 22.1525 46.7619 21.875 47.1794Z" fill="#356799"/>
<path d="M17.5 41.125C16.1213 41.125 15 40.0038 15 38.625C15 38.28 14.7206 38 14.375 38C14.0294 38 13.75 38.28 13.75 38.625C13.75 40.0038 12.6288 41.125 11.25 41.125C10.9044 41.125 10.625 41.405 10.625 41.75C10.625 42.095 10.9044 42.375 11.25 42.375C12.6288 42.375 13.75 43.4963 13.75 44.875C13.75 45.22 14.0294 45.5 14.375 45.5C14.7206 45.5 15 45.22 15 44.875C15 43.4963 16.1213 42.375 17.5 42.375C17.8456 42.375 18.125 42.095 18.125 41.75C18.125 41.405 17.8456 41.125 17.5 41.125ZM14.375 42.8044C14.0975 42.3869 13.7381 42.0275 13.3206 41.75C13.7381 41.4725 14.0975 41.1131 14.375 40.6956C14.6525 41.1131 15.0119 41.4725 15.4294 41.75C15.0119 42.0275 14.6525 42.3869 14.375 42.8044Z" fill="#356799"/>
<path d="M11.25 15.5C12.6288 15.5 13.75 16.6213 13.75 18C13.75 18.345 14.0294 18.625 14.375 18.625C14.7206 18.625 15 18.345 15 18C15 16.6213 16.1213 15.5 17.5 15.5C17.8456 15.5 18.125 15.22 18.125 14.875C18.125 14.53 17.8456 14.25 17.5 14.25C16.1213 14.25 15 13.1288 15 11.75C15 11.405 14.7206 11.125 14.375 11.125C14.0294 11.125 13.75 11.405 13.75 11.75C13.75 13.1288 12.6288 14.25 11.25 14.25C10.9044 14.25 10.625 14.53 10.625 14.875C10.625 15.22 10.9044 15.5 11.25 15.5ZM14.375 13.8206C14.6525 14.2381 15.0119 14.5975 15.4294 14.875C15.0119 15.1525 14.6525 15.5119 14.375 15.9294C14.0975 15.5119 13.7381 15.1525 13.3206 14.875C13.7381 14.5975 14.0975 14.2381 14.375 13.8206Z" fill="#356799"/>
</svg>
