<svg width="64" height="64" viewBox="0 0 64 64" fill="none" xmlns="http://www.w3.org/2000/svg">
<path d="M58.5001 39.5033L58.0001 40.5033C56.0001 35.0033 52.5001 39.0033 53.0001 43.5033L40.5001 44.5033C40.0001 33.5033 34.0001 37.0033 34.5001 45.5033H4.00009C3.60289 44.0669 3.56927 43.2097 4.00009 41.5033H4.50008V32.0033C5.15631 28.6187 6.12344 26.9857 10.0001 25.0033V22.0033C10.5311 21.512 10.9691 21.5195 11.5001 22.0033L12.5001 16.5033C14.9323 13.9582 16.3533 13.4532 19.0001 13.5033H38.5001L40.0001 15.0033L40.5001 34.5033L60.0001 33.5033L60.5001 37.0033H58.0001L58.5001 39.5033Z" fill="#FFC000"/>
<path d="M18.7321 34.7919C16.9701 34.6884 15.2601 34.6849 13.4941 34.7329C11.6871 34.7814 9.83712 34.6634 8.03962 34.8124C7.95112 34.8199 7.97912 34.9154 8.05212 34.9254C9.82612 35.1599 11.6801 35.0914 13.4726 35.1034C15.2341 35.1149 17.0126 35.1454 18.7481 34.9374C18.8566 34.9249 18.8341 34.7979 18.7321 34.7919Z" fill="#356799"/>
<path d="M18.7321 36.456C16.9701 36.3525 15.2601 36.349 13.4941 36.397C11.6871 36.4455 9.83712 36.3275 8.03962 36.4765C7.95112 36.484 7.97912 36.5795 8.05212 36.5895C9.82612 36.824 11.6801 36.7555 13.4726 36.7675C15.2341 36.779 17.0126 36.8095 18.7481 36.6015C18.8566 36.589 18.8341 36.462 18.7321 36.456Z" fill="#356799"/>
<path d="M18.4114 38.12C16.7554 38.0165 15.1489 38.013 13.4894 38.061C11.7914 38.1095 10.0524 37.9915 8.36344 38.1405C8.27994 38.148 8.30694 38.2435 8.37544 38.2535C10.0424 38.488 11.7844 38.4195 13.4689 38.4315C15.1244 38.443 16.7954 38.4735 18.4264 38.2655C18.5279 38.253 18.5069 38.126 18.4114 38.12Z" fill="#356799"/>
<path d="M13.4762 39.7329C12.0387 39.7819 10.5667 39.6634 9.13672 39.8124C9.06622 39.8199 9.08872 39.9154 9.14672 39.9254C10.5582 40.1599 12.0327 40.0914 13.4587 40.1034C14.8602 40.1154 16.2747 40.1454 17.6557 39.9374C17.7417 39.9249 17.7242 39.7979 17.6427 39.7919C16.2407 39.6884 14.8812 39.6849 13.4762 39.7329Z" fill="#356799"/>
<path d="M15.7159 15.3637C17.7324 14.9842 19.5109 15.1012 22.4949 15.1012H27.8074C28.2449 15.1012 29.0159 15.0807 29.6579 15.0752C29.7734 15.0742 29.7794 14.8727 29.6614 14.8512C29.2034 14.7682 28.0529 14.7867 27.2784 14.8077C26.1529 14.8387 25.0419 14.8607 23.9139 14.8482C21.2484 14.8192 17.4969 14.5907 15.6604 15.1872C14.1054 15.5972 13.2074 18.6007 12.9704 19.8727C12.6999 21.3232 12.7449 23.4557 12.7859 24.3792C12.7939 24.5657 13.0069 24.6047 13.0159 24.4142C13.0784 23.0807 13.0784 22.6847 13.1619 21.3307C13.2524 19.8577 13.8534 15.9757 15.7159 15.3637Z" fill="#356799"/>
<path d="M38.5836 41.7975C38.6156 41.863 38.7306 41.818 38.7031 41.7485C38.4656 41.141 38.0481 40.9665 37.5451 41.3865C36.5856 42.188 36.5731 44.084 36.7606 45.174C36.8626 45.765 37.3531 47.7625 38.2006 47.7755C39.1541 47.79 39.2326 45.46 39.2161 44.9535C39.2126 44.8545 39.0766 44.8565 39.0646 44.952C38.9641 45.736 38.8486 46.995 38.4161 47.2975C38.1611 47.37 37.9361 47.172 37.8011 46.9825C37.4006 46.5045 37.2216 46.0355 37.0791 45.4435C36.8791 44.613 36.9151 43.677 37.0661 42.8445C37.1586 42.3335 38.0156 40.6465 38.5836 41.7975Z" fill="#356799"/>
<path d="M56.6496 40.6487C56.6726 40.7007 56.7551 40.6642 56.7351 40.6087C56.5646 40.1202 56.2656 39.9802 55.9061 40.3182C55.2191 40.9617 55.2096 42.4852 55.3441 43.3612C55.4171 43.8357 55.7686 45.4412 56.3756 45.4507C57.0576 45.4632 57.1146 43.5912 57.1026 43.1837C57.1001 43.1047 57.0031 43.1057 56.9941 43.1822C56.9221 43.8122 56.8701 44.8762 56.5301 45.0672C56.4116 45.1162 56.1861 44.9662 56.0896 44.8137C55.8026 44.4297 55.6751 44.0527 55.5726 43.5772C55.4291 42.9102 55.4546 42.1582 55.5631 41.4892C55.6291 41.0787 56.2431 39.7232 56.6496 40.6487Z" fill="#356799"/>
<path d="M45.3977 32.0057C45.6437 31.9042 45.6897 31.6827 45.7122 31.4707C45.7422 31.1837 45.6067 31.3247 45.5892 31.3962C45.4457 31.9807 44.9847 31.8872 44.8382 31.5342C44.7032 31.1932 44.6827 30.8122 44.6802 30.4512C44.6792 30.2902 44.7162 30.1322 44.7577 29.9777C44.7922 29.8497 44.8487 29.7292 44.9342 29.6277C45.2417 29.2627 45.4907 30.0582 45.5082 30.1552C45.5227 30.2352 45.6602 30.2197 45.6512 30.1382C45.6097 29.7797 45.3882 29.3112 44.9582 29.3822C44.6147 29.4382 44.5212 30.0487 44.4857 30.3077C44.4287 30.7287 44.4602 31.6862 44.8642 31.9737C45.0402 32.0992 45.2007 32.0867 45.3977 32.0057Z" fill="#356799"/>
<path d="M55.5259 31.7792C55.6834 31.7307 55.7824 31.4777 55.8044 31.2482C55.8279 30.9982 55.7239 31.0292 55.7029 31.1792C55.6494 31.5637 55.2759 31.7587 55.0844 31.3072C54.9734 30.9912 54.9559 30.6377 54.9539 30.3027C54.9529 30.1537 54.9834 30.0072 55.0179 29.8642C55.0459 29.7457 55.0929 29.6337 55.1629 29.5397C55.4169 29.2007 55.6214 29.9387 55.6364 30.0282C55.6484 30.1022 55.7619 30.0882 55.7544 30.0127C55.7204 29.6802 55.5379 29.2462 55.1829 29.3112C54.8999 29.3637 54.8234 29.9297 54.7934 30.1697C54.7464 30.5602 54.7724 31.4482 55.1054 31.7142C55.2509 31.8312 55.3549 31.8312 55.5259 31.7792Z" fill="#356799"/>
<path d="M47.3034 16.3973C47.2189 16.3898 47.1974 16.5208 47.2814 16.5348C47.8929 16.6388 47.7034 18.9873 47.7474 19.8958C47.7944 20.8743 47.7454 21.8623 47.7159 22.8423C47.7034 23.2673 47.7619 23.3553 47.3224 23.3988C46.7239 23.4588 46.1709 23.4878 45.5934 23.4983C45.5859 23.3833 45.5624 23.2648 45.5139 23.1453C45.2204 22.4223 44.1914 22.3503 43.5579 22.7483C43.5154 22.3918 43.5409 22.0058 43.5404 21.7868C43.5359 20.1558 44.1984 16.6963 46.3324 16.3443C46.4379 16.3268 46.3949 16.1818 46.2914 16.1963C44.0304 16.5053 43.2854 20.0518 43.2804 21.7828C43.2789 22.1908 43.2594 22.5963 43.3194 22.9368C43.1869 23.0753 43.0924 23.2453 43.0579 23.4433C43.0429 23.5298 43.1679 23.5708 43.1914 23.4823C43.3864 22.7563 44.5559 22.4823 45.0749 23.0238C45.4764 23.4428 45.2364 24.0193 44.7459 24.2008C44.3294 24.3548 43.7339 24.3638 43.2534 24.0128C43.1769 23.9568 43.0699 24.0743 43.1454 24.1488C43.3534 24.3558 43.6804 24.5648 43.9999 24.5823C44.3404 24.6008 44.6889 24.6318 45.0009 24.4688C45.3059 24.3093 45.5014 24.0638 45.5689 23.7798C46.3664 23.7533 47.1754 23.6673 47.6584 23.5818C47.8649 23.5453 48.0114 23.3843 47.9934 22.9293C47.9384 21.5388 47.9434 19.7668 47.8684 18.1763C47.8464 17.7078 47.9839 16.4543 47.3034 16.3973Z" fill="#356799"/>
<path d="M50.7857 17.9395C51.6232 19.3185 52.1137 20.6905 52.2712 22.44C52.3172 22.9515 52.2307 23.3185 51.7917 23.3695C51.5962 23.392 50.1682 23.3555 49.9402 23.3305C48.8732 23.213 48.8657 23.1415 48.7737 22.346C48.6892 21.619 48.6922 20.479 48.6452 19.755C48.5882 18.8785 48.5747 18.2925 48.5692 17.5185C48.5627 16.375 48.8267 16.5065 49.5467 16.7365C49.6177 16.759 49.6452 16.6335 49.5777 16.601C49.2127 16.4225 48.8932 16.1175 48.5327 16.435C48.2552 16.6795 48.4042 18.465 48.4042 19.105C48.4042 20.19 48.4647 21.6435 48.5522 22.405C48.6372 23.144 48.5777 23.4295 49.2552 23.532C49.8292 23.6185 50.3107 23.6595 50.8957 23.6595C51.1507 23.6595 51.7757 23.676 52.0357 23.5965C52.3952 23.4865 52.4677 23.27 52.5082 23.011C52.7677 21.3575 51.8417 18.8045 50.8647 17.8165C50.8027 17.7545 50.7457 17.8735 50.7857 17.9395Z" fill="#356799"/>
<path d="M54.636 33.5091C54.6775 33.5591 54.7495 33.6256 54.834 33.6901C54.416 33.7076 53.998 33.7256 53.58 33.7401C53.0495 33.4546 52.753 32.8651 52.606 32.0076C52.9975 31.9796 53.328 31.9496 53.48 31.9216C53.571 31.9401 53.6575 31.8801 53.661 31.7876C53.68 31.2466 53.5765 30.6666 53.5685 30.1121C53.562 29.5856 53.4325 28.6466 53.9895 27.8896C54.088 27.7556 53.983 27.6951 53.9165 27.7636C53.5625 28.1251 53.4485 28.6471 53.406 29.0671C53.3445 29.6726 53.4065 31.3111 53.3305 31.6321C51.378 31.7461 49.3675 32.0051 46.526 31.9786C46.646 31.1796 46.5885 30.3341 46.471 29.5756C46.299 28.4651 45.719 27.0311 44.407 27.5851C43.068 28.1501 43.288 30.7181 43.4195 31.3576C43.438 31.4466 43.571 31.4526 43.5625 31.3596C43.491 30.6241 43.489 29.6571 43.679 28.9281C43.781 28.5366 44.02 28.1491 44.341 27.9061C45.5465 26.9946 45.9575 28.7126 46.128 29.2946C46.448 30.3841 46.376 31.5171 46.057 32.5916C45.7885 33.4946 44.895 34.3651 44.1875 33.2346C43.976 32.8961 43.875 32.6096 43.714 32.0996C43.6825 31.9986 43.548 32.0761 43.5585 32.1626C43.6425 32.8621 43.808 33.3946 44.2935 33.9156C44.34 33.9651 44.4165 34.0301 44.507 34.0941C44.0255 34.1076 43.54 34.1211 43.0475 34.1326C43.0435 34.1301 43.0435 34.1276 43.039 34.1251C42.4915 33.8621 42.0055 33.2416 41.9225 32.6326C42.045 32.6271 42.168 32.6226 42.2925 32.6191C42.609 32.6096 43.031 32.6251 43.0925 32.4396C43.222 32.0486 43.0685 31.5186 43.0515 31.1016C43.0135 30.1681 42.9915 29.0776 43.3435 28.2036C43.3725 28.1321 43.251 28.0791 43.2195 28.1491C42.734 29.2291 42.8525 30.4716 42.8395 31.6311C42.835 32.0326 42.966 32.2846 42.455 32.3186C41.639 32.3736 41.23 32.3896 40.571 32.3911C40.566 32.2386 40.5625 32.0911 40.5585 31.9501C40.504 29.8441 40.409 27.7376 40.401 25.6321C40.3995 25.3046 40.3975 24.9961 40.395 24.6966C40.9475 24.3751 41.538 24.0776 42.132 23.8501C42.2205 23.8161 42.296 23.7481 42.2935 23.6446C42.27 22.5041 42.4315 21.3711 42.5815 20.2426C42.7925 18.6521 43.759 15.7496 45.595 15.3946C45.6695 15.3801 45.656 15.2536 45.579 15.2601C43.7405 15.4231 42.6525 18.3451 42.3575 19.8516C42.145 20.9376 42.0525 22.0171 41.9055 23.1066C41.815 23.7711 40.92 23.8826 40.3915 24.3436C40.357 21.5496 40.251 19.8531 40.114 17.1656C40.1395 16.7941 40.1535 16.4236 40.156 16.0531C41.3585 16.0306 42.474 16.0256 43.7495 15.9281C43.8345 15.9216 43.8225 15.7756 43.7305 15.7736C42.6525 15.7486 41.1325 15.8821 40.158 15.9011C40.156 15.6281 40.147 15.3551 40.123 15.0826C43.3705 14.9726 46.022 14.4451 49 15.5001C50.843 16.1541 52.0555 17.9641 52.6405 19.7191C53.0445 20.9326 53.6405 22.6251 53.8 23.8251C53.8145 23.9361 53.8895 24.0496 54.012 24.0436C54.021 24.0431 54.029 24.0431 54.0375 24.0426C55.304 24.2251 56.2755 24.5436 56.8215 25.8786C57.1715 26.7346 57.373 27.6816 57.4515 28.6296C57.515 29.3931 57.594 30.3651 57.475 31.1411C57.1475 31.1906 56.842 31.2331 56.5155 31.2941C56.5535 30.6821 56.509 30.0566 56.43 29.4841C56.2885 28.4551 55.8105 27.1251 54.7295 27.6386C53.6255 28.1626 53.7755 30.4221 53.911 31.0996C53.9275 31.1816 54.0355 31.1871 54.0285 31.1011C53.953 30.1411 53.9725 29.5601 54.1285 28.8841C54.213 28.5206 54.4095 28.1616 54.6745 27.9366C55.668 27.0911 56.0065 28.6846 56.147 29.2241C56.4115 30.2341 56.352 31.2846 56.0885 32.2811C55.8675 33.1181 55.1295 33.8976 54.5465 32.8496C54.3725 32.5361 54.2615 32.3601 54.161 31.8911C54.1295 31.7456 54.0215 31.8031 54.0295 31.8831C54.099 32.5321 54.338 33.1516 54.636 33.5091ZM50.961 33.8426C49.8915 33.8946 48.8485 33.9396 47.809 33.9806C47.9995 33.8596 48.1205 33.6646 48.219 33.4186C48.307 33.1996 48.3875 32.9786 48.4195 32.7461C48.452 32.5126 48.483 32.3631 48.442 32.1966C49.233 32.1656 49.9735 32.1296 50.763 32.1041C51.17 32.0911 51.8395 32.0591 52.4235 32.0196C52.5015 32.8146 52.7235 33.3041 52.9685 33.6096C53.012 33.6636 53.061 33.7131 53.1125 33.7571C52.3955 33.7826 51.678 33.8081 50.961 33.8426ZM46.38 32.6141C46.4245 33.1346 46.6295 33.7721 47.0375 34.0106C46.5425 34.0286 46.047 34.0456 45.5485 34.0616C45.962 33.6526 46.221 33.1531 46.38 32.6141ZM46.96 32.2406C46.9775 32.4651 47.091 32.8426 47.303 32.9621C47.542 33.0971 47.6795 32.8196 47.756 32.6276C47.7885 32.5476 47.671 32.5106 47.6265 32.5706C47.5595 32.6621 47.451 32.8921 47.3265 32.7621C47.204 32.6346 47.105 32.4151 47.084 32.2386C47.4905 32.2301 47.8735 32.2176 48.243 32.2046C48.2215 32.6861 48.069 33.4386 47.7345 33.7866C47.3405 34.1961 46.8365 33.5591 46.7135 33.2296C46.6045 32.9361 46.516 32.5676 46.5315 32.2481C46.678 32.2461 46.8195 32.2436 46.96 32.2406ZM40.6295 34.1821C40.6135 33.6576 40.596 33.1546 40.581 32.6886C40.9945 32.6766 41.3755 32.6566 41.751 32.6401C41.7845 33.0971 41.9955 33.5921 42.242 33.8911C42.3185 33.9841 42.393 34.0751 42.4735 34.1451C41.871 34.1591 41.258 34.1711 40.6295 34.1821ZM4.7985 37.7136C4.798 37.4071 4.793 37.0981 4.787 36.7881C5.71 37.1321 6.7185 37.6926 7.264 38.4701C7.813 39.2511 7.90901 40.3706 8.00101 41.3116C6.93201 41.3291 5.852 41.3661 4.757 41.4251C4.9565 40.2301 4.801 38.9141 4.7985 37.7136ZM11.392 41.8831C13.8655 41.7956 16.338 41.9541 18.8125 41.9596C20.879 41.9646 22.945 41.9631 25.0135 41.9626C24.9975 42.5626 24.9915 43.1636 24.982 43.7636C24.976 44.1541 24.94 44.5411 24.929 44.9316C24.924 45.1061 24.9615 45.2326 24.995 45.3676C23.214 45.3701 21.433 45.3726 19.652 45.3751C18.3615 45.3776 6.2105 45.7821 4.2325 45.4536C3.8355 45.1041 3.8775 44.2711 3.873 44.1241C3.8395 43.0761 3.8715 42.3221 3.8405 41.8546C6.465 42.0086 8.7565 41.9761 11.392 41.8831ZM19.0365 41.3146C19.107 39.7361 19.4835 38.7321 20.7655 37.7566C21.3825 37.2876 22.0365 37.0621 22.695 36.8401C22.9295 36.7611 23.1485 36.7196 23.371 36.6446C23.3795 38.2056 23.4215 41.3706 23.5845 41.3451C23.5735 41.3471 23.5655 41.3531 23.5555 41.3561C22.046 41.3561 20.5365 41.3561 19.0265 41.3586C19.029 41.3436 19.036 41.3321 19.0365 41.3146ZM17.625 48.1291C17.064 47.9116 16.8715 47.2286 16.7265 46.6806C16.7185 46.6496 16.7645 46.6301 16.773 46.6611C16.9105 47.1761 17.364 48.0211 18.0635 47.9191C18.5525 47.8481 18.9205 47.3291 19.0595 46.8701C19.069 46.8386 19.113 46.8556 19.1065 46.8876C18.9585 47.6291 18.4215 48.4386 17.625 48.1291ZM42.274 45.1656C42.306 45.4486 42.582 45.8481 42.9585 45.7956C43.287 45.7501 43.305 45.4396 43.4955 45.2076C43.4985 45.2051 43.505 45.2066 43.5055 45.2106C43.556 45.5861 43.2585 46.0576 42.8325 46.0036C42.4335 45.9531 42.2645 45.5291 42.2255 45.1756C42.222 45.1441 42.271 45.1336 42.274 45.1656ZM60.4145 35.3746C60.3865 34.5936 60.3705 34.1921 60.3075 33.6611C60.309 33.6236 60.3045 33.5881 60.295 33.5561V33.5551C60.295 33.5551 60.2945 33.5551 60.2945 33.5546C60.28 33.5036 60.254 33.4651 60.216 33.4646C59.4615 33.4531 58.118 33.4936 56.727 33.5891C56.3665 33.6141 56.006 33.6321 55.6455 33.6506C56.1435 33.1046 56.3905 32.3921 56.4805 31.6321C56.6255 31.6331 56.8215 31.6176 57.0615 31.6056C57.285 31.5946 57.578 31.5681 57.693 31.5331C57.797 31.5011 57.842 31.4231 57.8445 31.3431C58.0455 30.9296 57.9675 29.9966 57.953 29.6566C57.8905 28.1876 57.7395 27.4181 57.4625 26.5331C56.9025 24.7441 56.023 23.9291 54.1865 23.7766C54.1735 23.7116 53.991 22.9031 53.9685 22.8126C53.828 22.2501 53.3905 20.7541 53.058 19.7571C52.5685 18.2901 51.8175 16.8711 50.5335 15.9446C47.584 13.8151 43.451 14.5836 40.058 14.6026C40.045 14.5201 40.049 14.4351 40.023 14.3551C39.5835 13.0036 37.0385 12.9521 36.003 12.9531C34.102 12.9551 32.216 13.0016 30.318 13.0576C26.277 13.1766 22.3965 13.0996 18.3635 13.2431C18.298 13.2211 16.9615 13.3751 16.728 13.4321C16.1025 13.5836 15.4995 13.8586 14.909 14.0966C13.726 14.5736 12.898 15.5586 12.423 16.6391C11.8605 17.9186 11.794 19.1821 11.519 20.5131C11.2415 21.8581 11.176 23.4401 11.2015 24.5896C10.9635 24.6816 10.586 24.8446 10.295 24.9731C10.219 24.2731 10.168 23.5896 10.1415 22.8821C10.136 22.7371 10.1425 22.0106 10.213 21.9076C10.333 21.7331 10.6605 21.6251 10.794 21.9621C10.8255 22.0416 10.965 22.0446 10.958 21.9426C10.927 21.5001 10.0985 21.3736 9.9275 21.7766C9.501 22.7816 9.698 24.1426 9.808 25.1871C9.8085 25.1901 9.81 25.1921 9.8105 25.1946C8.9585 25.6056 8.203 26.0606 7.378 26.5256C6.0615 27.2681 5.1745 28.5106 4.727 29.9261C4.166 31.7016 4.137 33.5411 4.132 35.3951C4.126 37.3611 3.9545 39.4146 4.1255 41.3691C4.128 41.3991 4.135 41.4296 4.1435 41.4591C4.0115 41.4671 3.8825 41.4721 3.7505 41.4806C3.6095 41.4906 3.553 41.6261 3.5785 41.7306C3.576 41.7341 3.573 41.7361 3.5725 41.7411C3.503 42.3296 3.49951 42.9351 3.48001 43.5266C3.47301 43.7591 3.5365 45.5576 3.739 45.7666C3.875 45.9066 4.0385 45.9191 4.2065 45.8966C5.6955 46.1136 7.743 46.0421 9.7135 46.0201C9.78 46.3606 9.85 46.6676 9.927 47.0061C10.0485 47.5446 10.3075 48.0326 10.57 48.5016C10.92 49.1271 11.8075 49.8681 12.5625 50.0366C12.568 50.0386 12.57 50.0426 12.5765 50.0446C13.304 50.2431 15.145 50.1406 16.322 50.1211C15.229 49.5246 14.5145 48.0946 14.553 46.2751C14.5535 46.2431 14.5985 46.2571 14.601 46.2891C14.7195 47.8551 15.327 49.1861 16.408 49.7911C16.9375 50.0876 17.6885 50.0856 17.9375 50.0166C18.7505 49.8626 19.601 49.0051 19.8875 48.3976C20.2525 47.6236 20.3945 46.7856 20.4575 45.9466C23.0485 45.9491 25.6395 45.9556 28.2305 45.9581C28.7705 45.9586 29.35 45.9511 29.9345 45.9361C29.9385 46.3391 30.037 46.7921 30.0915 47.1621C30.18 47.7681 30.405 48.3361 30.642 48.9041C30.986 49.7276 32.198 50.7701 32.6445 50.9061C32.6525 50.9101 32.655 50.9171 32.6655 50.9196C32.6845 50.9241 32.706 50.9266 32.7255 50.9311C32.727 50.9311 32.7295 50.9331 32.731 50.9331C32.732 50.9331 32.7325 50.9326 32.7335 50.9326C33.849 51.1756 35.3815 51.1031 36.5175 51.1101C36.893 51.1126 37.5235 51.0956 37.9845 50.9446C38.7685 50.7841 39.589 49.7896 39.95 48.9621C40.1435 48.5186 40.2855 48.1381 40.375 47.6601C40.951 47.7146 41.656 47.6871 42.237 47.6426C42.142 47.5746 42.0505 47.5011 41.971 47.4171C41.4035 46.8221 40.8705 46.0026 41.0125 44.9386C41.017 44.9066 41.064 44.9096 41.0625 44.9416C41.0195 45.6661 41.4235 46.5066 41.9985 46.9751C42.428 47.3251 43 47.5041 43.356 47.4066C43.3665 47.3991 43.3815 47.3951 43.391 47.3876C43.8685 47.1341 44.3075 46.5416 44.5155 46.0386C44.767 45.4301 44.9155 44.7671 44.9685 44.0976C46.1985 44.0316 47.3885 43.9646 48.673 43.8711C49.15 43.8361 49.671 43.8016 50.197 43.7666C50.1635 44.1136 50.1585 44.5891 50.205 44.9561C50.29 45.6276 50.3695 45.8606 50.528 46.3266C50.7575 47.0001 51.323 47.6541 51.828 47.9341C51.8485 47.9501 51.87 47.9641 51.888 47.9696C52.372 48.1206 54.413 48.0441 55.275 48.0501C55.499 48.0516 55.799 48.0536 56.063 47.9981C56.6945 47.9991 57.401 47.0471 57.627 46.4016C58.0115 45.3056 58.058 44.0756 58.073 42.9076C58.086 41.9001 58.0175 40.9451 57.731 39.9886C57.5055 39.2341 57.1265 38.4691 56.413 38.2616C55.736 38.0651 55.074 39.1021 54.8005 39.6226C54.2495 40.6731 54.1175 42.0906 54.218 43.2841C54.2885 44.1151 54.3075 45.0706 54.934 46.4996C54.9615 46.5636 55.0285 46.4881 55.005 46.4221C54.651 45.4306 54.5885 44.7436 54.4835 43.9861C54.3375 42.9331 54.381 42.0361 54.5365 40.9991C54.667 40.1251 55.6565 37.5891 56.8705 38.7311C57.353 39.1856 57.69 40.3996 57.747 41.0641C57.8695 42.4971 57.892 43.6051 57.68 44.8191C57.553 45.5481 57.467 46.3811 57.026 46.9641C56.918 47.1071 56.641 47.5286 56.2365 47.6501C56.1775 47.6576 56.1095 47.6651 56.035 47.6731C55.75 47.6456 55.54 47.3736 55.461 47.2546C55.401 47.1636 55.277 47.2356 55.3225 47.3426C55.39 47.5011 55.4655 47.6196 55.545 47.7171C54.3645 47.8101 52.419 47.7691 51.947 47.6871C51.923 47.6836 51.899 47.6766 51.875 47.6701C51.451 47.2261 51.168 46.7591 50.9245 46.1621C50.725 45.6701 50.6325 45.1281 50.56 44.5986C50.521 44.3196 50.529 44.0536 50.5505 43.7426C51.2285 43.6971 51.906 43.6496 52.5155 43.5991C53.0315 43.5556 53.209 43.5276 53.1985 43.3986C53.199 43.3951 53.203 43.3946 53.203 43.3911C53.1615 42.1616 52.8225 39.5871 54.613 38.2656C54.6845 38.2126 54.6235 38.0921 54.5425 38.1416C53.8085 38.5936 53.446 39.0261 53.182 39.8286C52.8725 40.7696 52.8005 41.9861 52.9575 43.2371C51.5485 43.1771 41.959 44.0121 40.5735 44.2096C40.5655 43.1026 40.452 42.0416 40.095 40.9791C39.7795 40.0406 39.251 39.0886 38.253 38.8306C37.3085 38.5861 36.3835 39.8756 36.002 40.5231C35.232 41.8316 35.047 43.5961 35.188 45.0816C35.286 46.1156 35.3805 47.7786 36.203 49.0626C36.2515 49.1391 36.3405 49.0471 36.3025 48.9661C35.787 47.8726 35.716 46.7206 35.559 45.9551C35.292 44.6541 35.4165 43.5276 35.633 42.2376C35.8155 41.1501 37.197 37.9936 38.893 39.4151C39.567 39.9796 40.1 41.4881 40.117 42.3181C40.1485 43.8411 40.319 45.4811 40.0235 46.9926C39.801 48.1291 39.5085 49.3821 38.6875 50.0471C38.359 50.3126 38.228 50.4071 37.95 50.5331C37.609 50.6876 37.0545 50.1976 36.925 50.0236C36.8405 49.9096 36.667 50.0001 36.7305 50.1331C36.8355 50.3546 36.953 50.5221 37.078 50.6506C35.6295 50.7491 33.2405 50.6541 32.625 50.5871C31.816 49.9196 31.6085 49.6161 31.191 48.8421C30.8615 48.2301 30.6605 47.6616 30.524 46.7171C30.487 46.4611 30.481 46.1816 30.4835 45.9186C32.337 45.8531 34.132 45.7041 34.7655 45.4536C34.7845 45.4461 34.795 45.4311 34.807 45.4171C34.837 45.4011 34.8615 45.3756 34.859 45.3286C34.7605 43.5491 34.652 43.3031 34.8435 41.9691C35.0855 40.2786 36.11 36.4601 38.7315 38.1966C38.793 38.2376 38.8665 38.1461 38.8125 38.0956C37.334 36.7196 35.775 38.0886 35.133 39.5231C34.2735 41.4436 34.253 43.2226 34.623 45.2451C32.309 45.3011 30.5775 45.3601 28.2395 45.3626C27.2885 45.3636 26.337 45.3656 25.386 45.3671C25.354 44.8346 25.307 44.3081 25.2985 43.7686C25.2895 43.1666 25.283 42.5641 25.2675 41.9626C25.695 41.9626 26.1215 41.9631 26.55 41.9631H30.1835C31.024 41.9631 33.2715 42.0401 34.04 41.6776C34.1755 41.6136 34.0995 41.4301 33.974 41.4176C31.87 41.2146 28.196 41.3546 26.0815 41.3546C25.3975 41.3546 24.7165 41.3556 24.0335 41.3556C24.0965 39.9636 23.917 38.5901 23.9335 37.1906C23.953 35.5751 23.973 33.9771 24.036 32.3666C24.107 30.5476 24.7795 28.7586 25.953 27.4056C26.7475 26.4911 28.0585 25.4526 29.134 24.8736C29.2945 24.7871 29.3175 24.7321 29.339 24.6481C29.4475 24.4366 29.403 23.6781 29.4005 23.1221C29.3965 22.0076 29.448 20.6601 29.5985 19.4951C29.882 17.3056 30.6625 15.3501 32.5415 13.9621C32.5995 13.9191 32.524 13.8241 32.464 13.8641C28.9325 16.2466 29.045 20.6926 28.991 24.3586C28.1845 24.3201 26.765 24.3181 25.828 24.3286C24.5785 24.3426 23.508 24.3006 22.259 24.3261C19.608 24.3801 16.9575 24.4576 14.3065 24.5071C14.217 24.5091 14.2145 24.6481 14.3045 24.6496C16.797 24.6936 19.291 24.7281 21.784 24.7381C23.033 24.7431 24.282 24.7426 25.532 24.7416C26.693 24.7406 27.2505 24.7246 28.942 24.6516C28.728 24.8321 28.198 25.1121 28.078 25.2036C27.484 25.6556 26.8235 26.0626 26.242 26.5511C24.951 27.6361 24.2225 29.0276 23.795 30.6556C23.3515 32.3441 23.3755 34.1226 23.3685 35.8546C23.3685 35.9366 23.3685 36.1026 23.369 36.3226C22.9225 36.3366 22.4815 36.4121 22.0495 36.5396C21.2965 36.7611 20.3095 37.2396 19.992 37.4886C18.837 38.3941 18.3445 39.8111 18.4105 41.3046C18.4115 41.3251 18.4195 41.3401 18.423 41.3591H18.416C15.038 41.3671 11.846 41.2681 8.5925 41.3041C8.4795 40.1411 8.286 38.9331 7.5725 37.9771C7.0175 37.2341 5.755 36.6641 4.782 36.5201C4.751 35.0201 4.7075 33.4961 4.9365 32.0286C5.2225 30.1961 5.6365 28.6791 7.0945 27.4181C7.7445 26.8556 8.5945 26.3191 9.3455 25.9126C9.613 25.7686 9.89051 25.5936 10.1745 25.4211C10.209 25.4106 10.2385 25.3926 10.2625 25.3681C10.69 25.1111 11.131 24.8656 11.5725 24.7441C11.621 24.7306 11.667 24.6826 11.663 24.6291C11.662 24.6206 11.6615 24.6126 11.661 24.6036C11.722 23.4811 11.719 22.4561 11.8905 21.2501C12.036 20.2271 12.2995 19.0526 12.541 18.0506C13.1925 15.3456 15.203 13.8701 18.703 13.5056C18.7035 13.5056 18.705 13.5056 18.7055 13.5051C22.469 13.6256 26.0745 13.5351 29.8515 13.5706C31.755 13.5886 33.663 13.5221 35.5695 13.4881C39.4165 13.4206 39.587 14.5401 39.677 14.9301C39.84 15.6406 39.829 16.4206 39.8415 17.1786C39.782 20.2476 39.9525 22.0166 39.9335 25.6256C39.922 27.7296 40.019 29.8376 40.0625 31.9426C40.105 34.0341 39.9485 37.4121 40.195 39.4896C40.2205 39.7061 40.524 39.7161 40.5505 39.4956C40.709 38.1646 40.6895 36.3006 40.6415 34.5836C42.229 34.6456 43.43 34.5911 44.824 34.5791C46.864 34.5611 48.915 34.4981 50.9525 34.3881C53.034 34.2756 55.1185 34.2441 57.1985 34.1011C58.1995 34.0321 59.402 33.9636 60.0065 33.8776C60.0075 34.1926 60.013 34.4886 60.04 35.0346C60.0645 35.5456 60.1015 36.1956 60.106 36.7501C59.06 36.7906 57.979 36.8891 56.832 36.9421C55.173 37.0191 53.491 37.1496 51.8395 37.3366C49.974 37.5481 48.106 37.6656 46.232 37.7921C44.513 37.9086 43.474 37.9536 41.0165 38.1976C40.927 38.2066 40.929 38.3341 41.0145 38.3341C43.3075 38.3286 44.5165 38.2066 46.2265 38.1456C48.2575 38.0746 50.2725 37.9956 52.2935 37.7886C53.91 37.6236 55.5595 37.5201 57.183 37.4491C57.4635 37.4366 57.7705 37.4176 58.0845 37.3941C58.04 38.1481 58.07 38.9306 58.163 39.6671C58.173 39.7481 58.306 39.7816 58.339 39.7171C58.453 39.4951 58.5035 39.2281 58.474 38.8496C58.423 38.2086 58.389 37.8111 58.3385 37.3736C58.672 37.3441 59.012 37.3091 59.3425 37.2626C59.7495 37.2061 60.129 37.1956 60.329 37.1256C60.4235 37.1236 60.514 37.0521 60.5185 36.8946C60.5335 36.3611 60.4315 35.8511 60.4145 35.3746Z" fill="#356799"/>
<path d="M31.8891 24.5981C33.2546 24.6096 34.4731 24.5671 36.1206 24.5371C36.6436 24.5276 37.7536 24.5836 38.0046 24.4816C38.1346 24.4576 38.2426 24.3601 38.2426 24.2086C38.2426 21.3956 38.3831 18.0526 38.0746 15.2406C38.0641 15.1406 37.9176 15.1316 37.9146 15.2381C37.8746 16.5806 37.9766 18.0256 37.9326 19.3706C37.8861 20.7846 37.9491 22.7391 37.8156 24.1106C37.7861 24.1096 37.7536 24.1111 37.7171 24.1181C37.5091 24.1571 35.9776 24.1386 35.5416 24.1626C34.2461 24.2341 32.9716 24.2851 31.8906 24.3101C31.8901 23.6876 31.8836 23.0651 31.9101 22.4436C31.9331 21.8986 31.7791 21.6436 31.2886 21.4741C31.0361 21.3871 30.8331 21.3811 30.6626 21.4256C30.6996 20.6401 30.7911 19.9896 31.0161 18.9956C31.2961 17.7571 31.8916 16.1476 33.0681 15.5391C34.2651 14.9201 35.6201 14.8976 36.9311 14.8581C37.0301 14.8551 37.0326 14.7091 36.9331 14.7036C34.6486 14.5851 32.0576 14.8081 31.0406 17.7156C30.5821 19.0251 30.3311 20.2886 30.2981 21.6566C29.7646 22.2821 29.9391 23.8646 29.9721 24.4401C29.9791 24.5566 30.1471 24.5606 30.1536 24.4431C30.1846 23.9006 30.2081 23.3606 30.2481 22.8186C30.3391 21.5786 31.6801 21.3891 31.6346 22.8146C31.6016 23.8451 31.6556 24.8791 31.5856 25.9086C31.5481 26.4601 31.4701 26.8681 31.4586 27.4211C31.4471 27.9811 30.3051 27.7706 30.2726 27.3816C30.2101 26.6371 30.1726 26.2531 30.0836 25.5041C30.0726 25.4096 29.9466 25.4051 29.9351 25.5016C29.8371 26.3246 29.7276 28.0466 30.5236 28.2201C32.2086 28.5876 31.7946 26.8001 31.8526 25.9121C31.8811 25.4751 31.8876 25.0366 31.8891 24.5981Z" fill="#356799"/>
</svg>
