<svg xmlns="http://www.w3.org/2000/svg" xmlns:xlink="http://www.w3.org/1999/xlink" width="612" height="600" viewBox="0 0 612 600">
  <defs>
    <clipPath id="clip-path">
      <rect id="Rectangle_154" data-name="Rectangle 154" width="612" height="600" transform="translate(828 1377)" fill="#fff"/>
    </clipPath>
  </defs>
  <g id="easy-sell" transform="translate(-828 -1377)" clip-path="url(#clip-path)">
    <path id="Path_2786" data-name="Path 2786" d="M858.543,1432.41A30.552,30.552,0,0,0,828,1462.98v35.86a30.559,30.559,0,0,0,30.543,30.57H1005.6a30.385,30.385,0,0,0,19.09-6.71,30.365,30.365,0,0,0,19.09,6.71H1052a15.87,15.87,0,0,1-15.86-15.88v-50.55a30.549,30.549,0,0,0-30.54-30.57Z" fill="#00b0f0"/>
    <path id="Path_2787" data-name="Path 2787" d="M914.134,1616.41A20.152,20.152,0,0,1,894,1596.24v-23.66a20.151,20.151,0,0,1,20.134-20.17H1017.41a20.04,20.04,0,0,1,12.59,4.42,19.991,19.991,0,0,1,12.58-4.42H1048a10.462,10.462,0,0,0-10.45,10.47v33.36a20.157,20.157,0,0,1-20.14,20.17Z" fill="#eeeef1"/>
    <path id="Path_2788" data-name="Path 2788" d="M1344.87,1491.41a20.148,20.148,0,0,1,20.13,20.17v23.66a20.148,20.148,0,0,1-20.13,20.17H1241.59a20.048,20.048,0,0,1-12.59-4.43,20,20,0,0,1-12.58,4.43H1211a10.465,10.465,0,0,0,10.45-10.48v-33.35a20.157,20.157,0,0,1,20.14-20.17Z" fill="#eeeef1"/>
    <path id="Path_2789" data-name="Path 2789" d="M1077.9,1945.58c-127.44.36-217.964.62-217.964.62a.21.21,0,0,0,0,.42s89.712.25,216.234.61A15.894,15.894,0,0,1,1077.9,1945.58Z" fill="#aec8e3"/>
    <path id="Path_2790" data-name="Path 2790" d="M1163.79,1946.04a4.248,4.248,0,0,1,.41-.7c-18.82.05-37.22.11-55,.15-.05.61-.07,1.22-.06,1.84,17.52.05,35.62.1,54.14.15A12.985,12.985,0,0,1,1163.79,1946.04Z" fill="#aec8e3"/>
    <path id="Path_2791" data-name="Path 2791" d="M1892.71,1946.2s-16.14-.18-44.38-.51c-14.12-.13-31.26-.29-50.93-.47-19.67-.14-41.86-.3-66.06-.46-24.21-.11-50.43-.23-78.17-.35-27.73-.17-56.98-.04-87.24-.08-30.26.04-61.52.08-93.29.11-31.77.1-64.04.2-96.32.3l-186.78.53a7.161,7.161,0,0,1,.94,2.29l185.84.53c32.28.1,64.55.2,96.32.3,31.77.03,63.03.07,93.29.11,30.26-.04,59.51.09,87.24-.08,27.74-.12,53.96-.24,78.17-.34,24.2-.17,46.39-.33,66.06-.47,19.67-.18,36.81-.34,50.93-.47,28.24-.33,44.38-.51,44.38-.51a.217.217,0,0,0,.2-.21A.212.212,0,0,0,1892.71,1946.2Z" fill="#aec8e3"/>
    <path id="Path_2792" data-name="Path 2792" d="M1151.74,1769.35c28.56-35.8,77.79-58.56,120.18-71.14.78-.23.79-1.36-.01-1.21-42.16,8.24-94.56,36.67-121.17,71.89C1150.23,1769.57,1151.22,1770.01,1151.74,1769.35Z" fill="#aec8e3"/>
    <path id="Path_2793" data-name="Path 2793" d="M1335.49,1694.53c21.37-1.32,42.53-.67,63.92-.65a826.3,826.3,0,0,1,147.6,13.4c1.04.19,1.53-1.35.46-1.6-47.2-10.94-94.77-11.64-143.59-13.85-42.97-1.96-86.34,2.05-128.74,7.54-.69.09-.54,1.28.15,1.21C1295.38,1698.72,1315.32,1695.78,1335.49,1694.53Z" fill="#aec8e3"/>
    <path id="Path_2794" data-name="Path 2794" d="M1233.87,1705.82c-5.29-11.38,7.7-18.19,16.9-18.84,8.92-.62,19.78,2.58,20.56,9.02.07.56.59.61.99.39a.551.551,0,0,0,.43-.33c11.84-26.77,34.4-61.39,56.98-80.37,27.09-22.79,43.75-30.4,65.42-37.79a.24.24,0,0,0,.21.04,160.255,160.255,0,0,1,23.61-4.91c14.47-1.98,25.29-2.88,39.84-3.86,23.03-1.53,48.06-1.53,71.13-1.43,24.75.12,48.28.3,73,1.58,25.21,1.31,53.17,1.58,78.05,6.51.01,0,.02.01.03.01,39.97,7.7,62.91,27.54,80.06,52.26a218.91,218.91,0,0,1,19.21,34.44c7.13,15.66,13.3,41.74,18.01,58.16a.76.76,0,0,0,1.47-.38c-3.56-17.2-9.22-43.34-16.42-59.51-6.28-14.11-14.17-28.23-23.87-40.3-16.46-20.5-43.36-40.85-76.22-46.04a.322.322,0,0,0-.19-.11c-17.09-3.68-47.22-6.82-73.92-7.41-26.33-.57-48.39-1.1-74.73-1.53-24.56-.4-52.27.17-76.79,1.68-13.23.81-24.31,2.14-37.47,3.7a144.909,144.909,0,0,0-14.64,2.37c-.01,0-.02-.01-.03,0-.11.02-.21.05-.32.08-1.48.33-2.92.71-4.35,1.12-26.65,7.13-47.82,17.91-75.2,41.94-20.05,17.61-43.42,51.06-53.22,76.66-2.58-6.73-17.38-9.12-24.38-7.75-6.76,1.32-11.7,3.75-15.69,9.46-2.56,3.68-2.86,8.9.38,12.01A.733.733,0,0,0,1233.87,1705.82Z" fill="#aec8e3"/>
    <path id="Path_2795" data-name="Path 2795" d="M1600.58,1623.89c-3.3,5.4-4.23,7.39-7.47,12.88-11.18,18.95-20.35,42.28-26.91,64.16a.63.63,0,1,0,1.2.38c12.05-31.39,23.57-57.59,40.31-85.12,3.92-6.46,11.95-18.23,5.65-25.85-4.23-5.12-16.33-7.74-25.3-8.16-25.04-2.58-65.99-2.99-100.25-2.85-33.42.12-79.34,1.3-113.53,8.92a.659.659,0,0,0,.27,1.29c33.82-7,80.15-8.8,113.18-8.29,16.46.25,32.81-.11,49.05.17,17.77.31,34.49,1.03,51.86,2.21.04.01.06-.03.09-.03,12.26,1.42,30.91,5.6,23.02,21.58C1609.26,1610.23,1603.55,1619.05,1600.58,1623.89Z" fill="#aec8e3"/>
    <path id="Path_2796" data-name="Path 2796" d="M1487.97,1753.52a.01.01,0,0,1,.01-.01c13.09-11.31,16.79-13.9,28.35-20.19a152.44,152.44,0,0,1,41.07-14.58c.86-.18.51-1.45-.34-1.31-25.16,4.27-52.92,15.57-70.3,35.03a.389.389,0,0,0-.06.11c-17.22,2.52-25.52,4.19-39.56,6.86-17.76,3.38-34.78,10.2-52.33,13.95-33.38-.6-68.42.79-101.81.79-15.96,0-31.95.31-47.9-.34-15.69-.63-32.64,1.19-48.19-1.58-.02-.01-.02-.02-.04-.03a46.373,46.373,0,0,1-21.68-19.28.7.7,0,0,0-1.22.69c4.76,9.3,12.93,15.84,22.33,19.89,7.42,2.14,27.1,1.86,40.18,1.84,17.27-.03,34.63.88,51.94.88,34.95,0,71.45-.84,106.37-1.51.1,0,.15-.07.23-.1.04,0,.07.04.12.03,16.28-2.76,32.65-8.46,48.78-12.34,15.14-3.63,24.5-4.97,43.22-8.44a.58.58,0,0,0,.57-.14C1487.8,1753.66,1487.88,1753.59,1487.97,1753.52Z" fill="#aec8e3"/>
    <path id="Path_2797" data-name="Path 2797" d="M1226.27,1909.01c-28.59-.77-63.32-.33-92.22.41-2.23-1.11-2.11-6.55-2.54-13.95-.48-8.06-1.32-15.04,2.41-15.71a.763.763,0,0,0,.33-.13c3.6-.16,7.42-.23,10.76-.18,9.04.14,18.07-.12,27.12-.1,15.9.06,36.36-.17,53.76-.54.8-.02.85-1.27.02-1.27-13.37.08-31.64.09-45.01.06-7.67-.01-14.66.25-23.41.1-6.69-.11-15.73.16-22.56.29a1.108,1.108,0,0,0-.08-.35c-2.17-4.9-2.11-12.04-1.94-17.31.12-3.87.63-11.86,2.4-15.38.47-.93-.87-1.77-1.4-.85-2.35,4.07-2.94,10.31-3.41,15.75-.45,5.16-.43,13.64,1.84,18.61-3.72,1.79-3.64,7.49-3.28,11.09.71,6.9.68,13.68,1.92,20.54a1.32,1.32,0,0,0,.19.46.724.724,0,0,0,.59.52,1.4,1.4,0,0,0,.73.21,6.737,6.737,0,0,1,1.19-.02.8.8,0,0,0,.41-.1c18.15.45,38.51.66,58.25.36.63,7.6,3.65,14.91,6.84,21.28,2.73,5.45,7.68,13.48,13.23,13.78.68.03,1.08-1.35.38-1.68a17.383,17.383,0,0,1-5.93-4.54,41.489,41.489,0,0,1-6.5-9.63,59.926,59.926,0,0,1-6.16-19.24c11.09-.19,21.95-.54,32.05-1.1A.69.69,0,0,0,1226.27,1909.01Z" fill="#aec8e3"/>
    <path id="Path_2798" data-name="Path 2798" d="M1885.5,1895.02c-.46,7.51-.2,13.14-2.74,13.89a303.6,303.6,0,0,0-34.13.46,189.433,189.433,0,0,0,2.37-29.99c6.99.05,13.99.17,21,.07,3.37-.05,7.23.02,10.87.18a.76.76,0,0,0,.21.08C1886.82,1880.36,1885.97,1887.17,1885.5,1895.02Zm-1.73-16.92a.415.415,0,0,0-.23-.09c-.13,0-.27-.01-.39-.01.57-12.75-.5-26.03-2.03-38.67-.09-.72-1.26-.56-1.24.14.35,12.81.07,25.69.65,38.48-3.4-.07-7.22-.16-10.99-.22-.06-3.09-.75-12.52-.77-15.35-.07-7.6-1.55-23.03,8.5-25.8a.672.672,0,0,0-.34-1.3c-8.52,1.59-9.67,11.16-10.08,18.41a189.814,189.814,0,0,0,.48,24.01c-2.76-.03-5.45-.04-7.82,0-3.02.05-5.8.05-8.5.03.01-1.94.01-3.89,0-5.82-.08-13.28-2.2-28.01-6.89-40.26-2.45-6.39-7.94-15.53-14.65-18.13a.578.578,0,0,0-.33-.3c-14.79-4.75-25.64,17.17-29.98,28.84a127.9,127.9,0,0,0-5.76,66.59c-66.86-.78-135.58.05-202.45.82-.07,0-.11.01-.18.01.22-.96.42-1.91.6-2.81,2.63-13.07,2.99-26.35,2.9-39.34-.09-13.67-2.56-28.83-7.99-41.44-2.84-6.58-9.2-15.98-16.97-18.66a.621.621,0,0,0-.4-.31c-17.13-4.89-29.7,17.67-34.74,29.69a115.14,115.14,0,0,0-8.89,40.79c-26.42.07-63.48.22-89.62.2-15.17-.01-29,.25-46.31.1-14.2-.13-33.81.2-47.55.31-1.28.01-1.69,1.69-.21,1.65,7.62-.19,15.9-.27,23.05-.21,17.9.14,35.77-.13,53.68-.1,31.19.05,72.61.11,106.9-.25a124.362,124.362,0,0,0,2.95,29.38c-23.01.16-46.34.23-69.74.3-.09-3.25-.55-5.89-.68-10.32-.14-4.68-.22-11.24-.57-15.91a.646.646,0,0,0-1.29-.02,145.946,145.946,0,0,0,.02,14.94c.25,5.02.33,7.56.4,11.31-38.09.11-76.3.22-113.41.69-2.18.02-2.25,1.6-.06,1.63,41.85.53,85.27.75,128.08.3.62,7.65,3.65,14.99,6.86,21.4,2.73,5.45,7.67,13.48,13.22,13.77.69.04,1.09-1.34.38-1.67a17.383,17.383,0,0,1-5.93-4.55,41.052,41.052,0,0,1-6.49-9.63,59.749,59.749,0,0,1-6.18-19.33c18.8-.21,37.48-.52,55.85-1.01.23.98.45,1.96.71,2.94a.749.749,0,0,0,1.45-.36c-3.6-20.16-3.84-40.06.77-60.09a119.681,119.681,0,0,1,9.21-25.15c4.04-8.31,14.53-20.75,25.53-19.9h.05a13.555,13.555,0,0,1,1.53.25c12.75,2.9,18.74,23.95,20.61,33.47a174.632,174.632,0,0,1,2.9,35.49c-.13,19.03-4.45,42.34-11.93,56.29-10.01,12.85-24.6,8.58-33.02,3.3-7.51-4.7-9.52-9.91-14.06-18.62-.35-.67-1.36-.15-1.08.59a48.234,48.234,0,0,0,6.84,12.88,31.96,31.96,0,0,0,9.37,8.4c7.63,4.89,20.29,7.87,29.37-.43a.8.8,0,0,0,.26-.16c.35-.29.67-.61,1-.93,2.72,4.16,6.23,8.02,10.05,8.22.68.04,1.08-1.34.38-1.67a17.286,17.286,0,0,1-5.93-4.55,30.8,30.8,0,0,1-2.95-3.67c5.24-6.32,8.67-16.92,10.72-25.62.16.01.3.04.48.04,24.69.28,49.58.55,74.52.69-1.74,9.18-4.19,17.75-7.27,24.22-8.63,12.49-21.23,8.34-28.49,3.21-6.48-4.57-11.4-14.97-14.61-25.03-.22-.68-1.1-.16-.93.58a71.693,71.693,0,0,0,8.38,19.45,29.077,29.077,0,0,0,8.08,8.16c6.59,4.75,17.51,7.64,25.35-.43a.859.859,0,0,0,.22-.15c6.32-5.93,10.05-19.92,11.96-30,26.73.14,53.49.12,80.12-.17.66,7.56,3.66,14.83,6.84,21.17,2.73,5.45,7.67,13.48,13.22,13.77.69.04,1.08-1.34.38-1.67a17.383,17.383,0,0,1-5.93-4.55,41.052,41.052,0,0,1-6.49-9.63,59.956,59.956,0,0,1-6.15-19.11q21.93-.24,43.71-.75c.36,1.91.74,3.82,1.19,5.73.2.88,1.38.52,1.24-.36-3.1-19.58-3.31-38.91.67-58.37a125.506,125.506,0,0,1,7.95-24.43c3.48-8.07,12.53-20.17,22.03-19.34a.076.076,0,0,1,.04.01,10.651,10.651,0,0,1,1.33.24c10.99,2.82,16.16,23.27,17.78,32.51a192.209,192.209,0,0,1,2.5,34.48c-.12,18.48-3.85,41.13-10.3,54.68-8.63,12.49-21.22,8.34-28.49,3.21-6.48-4.57-8.22-9.63-12.13-18.09-.3-.65-1.17-.15-.93.57a49.277,49.277,0,0,0,5.89,12.52,29.243,29.243,0,0,0,8.09,8.16c6.59,4.75,17.52,7.64,25.35-.43a.717.717,0,0,0,.22-.15c6.45-6.05,10.2-20.51,12.09-30.63,10.82.68,24.1.78,34.92-.64.44-.04.67-.08,1.17-.15a2.324,2.324,0,0,0,1.69-1.83c1.47-6.65,1.14-12.58,1.84-19.3C1888.33,1885.48,1888.42,1879.31,1883.77,1878.1Z" fill="#aec8e3"/>
    <path id="Path_2799" data-name="Path 2799" d="M1278.74,1915.38c-7.67-.01-14.37.36-23.12.32-8.09-.03-16.83-.02-23.69.08.48-14.82-.72-30.7-.76-46.59,3.62-.16,7.47-.23,10.83-.18,9.05.14,18.07-.13,27.12-.1,15.74.05,49.73.29,67.3-.07-.1,20.38-.09,30.6.81,47.4C1323.51,1916.28,1291.92,1915.41,1278.74,1915.38Zm58.3-47.8c-.02,0-.03-.01-.05-.01-13.37.07-45.73-.39-59.1-.41-7.67-.01-14.66.25-23.4.1-7.17-.13-17.05.19-23.99.31a.645.645,0,0,0-.72.64c-.1,21.04-.1,31.26.83,48.58a.6.6,0,0,0,.29.5.389.389,0,0,0,.31.15c4.99,0,7.35-.1,11.86-.15,9.05-.1,17.86-.18,26.91-.15,8.7.03,23.01.24,37.03.37a82.233,82.233,0,0,1-6.15,15.81c-10,12.86-24.59,8.58-33.02,3.3-5.61-3.5-8.78-8.02-13.32-16.73-.35-.67-1.35-.15-1.08.59,2.29,6.09,3.18,6.85,6.1,10.99a32.119,32.119,0,0,0,9.37,8.41c7.63,4.88,20.3,7.86,29.38-.44a.833.833,0,0,0,.26-.16c5.31-4.44,9.04-13.26,11.54-21.74,10.49.08,20.59.11,27.76-.04a.636.636,0,0,0,.42-.19.589.589,0,0,0,.28-.49c.59-15.42-.75-32.01-.75-48.59A.642.642,0,0,0,1337.04,1867.58Z" fill="#aec8e3"/>
    <path id="Path_2800" data-name="Path 2800" d="M1160.66,1868.96c.72.34,1.66-.82.88-1.18-31.67-14.74-38-71.16-10.8-93.5a1.288,1.288,0,0,0,.23.14c7.83,2.97,14.49,9.54,20.07,17.13-3.88-1.84-8.55-2.66-11.39-1.96a29.547,29.547,0,0,0-20.43,17.27c-.35.8.95,1.32,1.38.6,6.88-11.52,22.22-21.82,33.76-11.09a190.709,190.709,0,0,1,10.25,18.27c7.63,15.19,11.16,30.59,12.46,47.23-1.39,8.71-8.67,12.19-17.22,12.01-4.41-.08-11.17-1.51-15.04-3.94-.74-.46-1.37.63-.69,1.13,6.15,4.48,16.58,5.94,23.87,4.55,4.96-.94,10.01-5.03,11.1-9.74a.779.779,0,0,0,.08-.23c2.83-18.09-3.55-36.63-12.04-52.43-7.35-13.69-19.47-35.86-35.66-40.53a.6.6,0,0,0-.23-.02.454.454,0,0,0-.51.02c-17.39,12.35-19.4,33.15-17.82,53.23C1134.32,1843.88,1140.51,1859.63,1160.66,1868.96Z" fill="#aec8e3"/>
    <path id="Path_2801" data-name="Path 2801" d="M1480.07,1781.48a.715.715,0,0,0,1.24-.71c-3.55-7.31-15.75-5.65-22.26-4.79-13.17,1.75-25.96,8.68-37.08,15.53-12.03,7.42-21.6,17.71-30.1,28.8-8.85,11.55-18.16,25.79-17.07,40.99a.83.83,0,0,0,1.66.02c2.46-24.22,20.14-46.93,38.84-61.44a124.528,124.528,0,0,1,27.34-16.01C1451.13,1780.17,1472.87,1771.49,1480.07,1781.48Z" fill="#aec8e3"/>
    <path id="Path_2802" data-name="Path 2802" d="M1447.69,1795.91c-.8-.16-1.18,1.04-.36,1.24,14.64,3.54,20.46,18.58,20.9,32.14.37,11.65-4.33,20.31-11.01,28.84-8.67,4.39-17.97,6.95-27.81,9.75-12.71,3.63-42.16,7.32-51.66-4.74-.55-.69-1.62.17-1.21.91,6.99,12.48,33.48,9.42,44.89,8.36,16.8-1.55,37.61-7.48,48.75-20.81a.789.789,0,0,0-1.1-1.13,62.369,62.369,0,0,1-5.8,4.19C1475.95,1835.66,1472.45,1800.67,1447.69,1795.91Z" fill="#aec8e3"/>
    <path id="Path_2803" data-name="Path 2803" d="M1210.19,1824.66c22.77,1.15,48.98,1.71,73.88,1.42,27.09-.33,58.44.06,85.57-2.63-4.53,5.33-8.38,9.64-13.08,14.67-22.1,1.59-47.89,2.15-69.93,2.2-10.28.03-21.09.04-31.37-.04-11.2-.1-22.1-.45-35.58-.82-3.34-4.67-6.04-8.98-9.12-14.16C1210.44,1825.08,1210.31,1824.87,1210.19,1824.66Zm77.37-29.86c33.55-.37,72.38.08,105.91-3.09-3.1,3.98-6.26,8.8-10.31,14.48h-.02c-29.38,1.65-63.9,2.21-93.35,2.27-13.53.02-27.77.03-41.31-.05-14.91-.09-29.41-.45-47.44-.83-2.28-4.78-4.35-9.63-6.1-14.5C1223.37,1794.47,1256.32,1795.15,1287.56,1794.8Zm83.18,27.34c-26.11,1.63-56.74,2.2-82.88,2.25-12.05.03-24.74.04-36.8-.04-13.08-.1-25.81-.45-41.53-.82-2.8-4.8-5.49-9.77-7.96-14.85,25.79,1.19,55.64,1.76,83.96,1.46,30.63-.32,66.12.08,96.72-2.68-2.6,3.6-5.53,7.5-9.05,11.73C1372.35,1820.22,1371.54,1821.19,1370.74,1822.14Zm-28.06,30.53h-.02c-18.39,3.61-35.56,3.4-54.2,3.51-19.6.12-39.66-.31-58.95-4.15-3.66-4.37-6.53-8.03-9.01-11.44,19.39,1.16,41.7,1.71,62.89,1.42,22.75-.32,49,.04,71.89-2.52C1351.78,1843.2,1347.77,1847.38,1342.68,1852.67Zm-54.26,5.85c18.55-.01,38.42-.96,54.59-4.38a.583.583,0,0,0,.42-.29c20.97-18.95,36.2-39.49,52.05-62.63.04-.06.01-.11.03-.17.16-.41-.02-.9-.7-.86-32.27,1.93-70.22,2.58-102.57,2.64-14.86.03-30.51.05-45.38-.05-16.61-.11-32.73-.54-52.93-.99a.634.634,0,0,0-.59.3.656.656,0,0,0-.16.69c6.8,21.72,19.41,44.09,35.36,60.3a.649.649,0,0,0,.3.17c.01,0,.01.02.02.02C1248.11,1858.54,1268.61,1858.54,1288.42,1858.52Z" fill="#aec8e3"/>
    <path id="Path_2804" data-name="Path 2804" d="M1489.8,1470.25c-13.8,3.08-30.22,2.09-44.23,1.2a83.816,83.816,0,0,1-20.84-3.85c-6.04-2.01-5.9-8.07-2.5-12.26,4.68-5.75,15.87-5.17,21.83-2.47a.449.449,0,0,0,.11.03,1.405,1.405,0,0,0,1.88-1.07c1.35-8.09,11.49-16.85,20.78-15.78,9.74,1.12,6.47,12.13,11.1,16.9,1.11,1.15,4.77-.19,5.71-.42a22.193,22.193,0,0,1,20.36,5.37C1511.6,1464.67,1491.25,1469.93,1489.8,1470.25Zm15.56-13.67c-2.63-2.84-7.06-5.57-10.95-6.07a39.408,39.408,0,0,0-11.22.29c-5.02.7-3.49-.3-4.87-4.58-2.16-6.74-5.93-14.11-17.91-11.61-6.45,1.34-15.07,9.74-16.15,17.05-7.39-3.55-16.87-3-23.07,2.6-5.38,4.87-5.64,11.56,1.18,14.45,11.1,4.7,24.75,4.9,36.56,5.28,13.11.43,28.7.15,40.99-4.84C1506.38,1466.52,1510.7,1462.35,1505.36,1456.58Z" fill="#aec8e3"/>
    <path id="Path_2805" data-name="Path 2805" d="M1026.2,1936.29c.88-3.05,7.38-4.87,9.33-5.4C1032.92,1940.04,1025.68,1940.56,1026.2,1936.29Zm-12.02-15.94c-11.51,9.32-12.63-.54-7.58-4.45,2.96-2.35,4.25-2.93,8.71-4.36a17.921,17.921,0,0,1,4.62-.61A16.513,16.513,0,0,1,1014.18,1920.35Zm-20.758-24.77a6.517,6.517,0,0,1-4.65,2.49c-2.313-.01-4.784-2.04-3.039-5.04a6.566,6.566,0,0,1,1.144-1.42,18.918,18.918,0,0,1,6.568-3.94c.577-.22,1.15-.37,1.726-.54.046.1.108.22.144.32C996.338,1890.46,995.342,1893.25,993.422,1895.58Zm-29.434-2.57c1.865,6.28-2.766,16.59-8.273,6.77-2.169-6.9-.389-12.28,3.428-16,.186.16.37.32.561.49A16.576,16.576,0,0,1,963.988,1893.01Zm-37.843,16.59c4.873,4.21.9,9.15-3.619,3.62a15.57,15.57,0,0,1-3.177-8.22A25.179,25.179,0,0,1,926.145,1909.6Zm-27.519,14.26c3.837,8.76-5.043,13.37-7.287,3.51a16.8,16.8,0,0,1,1.205-9.75A11.962,11.962,0,0,1,898.626,1923.86Zm140.9,4.56a7.943,7.943,0,0,0-2.17.24c.13-.54.22-1.01.28-1.37,1.64-11.39-5.17-17.48-15.27-18.06.99-7.49-3.7-15.63-8.84-20.39-4.82-4.45-11.55-5.03-17.713-3.33a7.707,7.707,0,0,0-.948-1.35,20.773,20.773,0,0,0-16.085-8.51c-5.861-.37-14.828,1.4-19.706,6.07a22.354,22.354,0,0,0-21.538-4.34c-13.175,3.92-19.706,13.41-20.561,24.09-2.464-1.07-6.1-2.47-12.331.46a27.13,27.13,0,0,0-8.329,6.8,41.142,41.142,0,0,0-4.424,6.4c-5.11-2.67-9.479-3.45-14.786.61-7.62,5.82-9.433,13.45-6.244,22.56a16.652,16.652,0,0,0,6.064,8.16c1.289-.11,4.684-.05,4.669-.05-10.948-3.43-13.4-20.52-5.629-27.62a12.809,12.809,0,0,1,15.09-2.01,17.006,17.006,0,0,0,.2,14.84c1.345,2.51,6.95,4.33,8.525.86,2.517-5.54-.307-12.95-5.672-16.11-.241-.14-.477-.27-.716-.41.126-.21.239-.43.373-.64a28.374,28.374,0,0,1,12.3-11.96c3.932-1.74,7.453-1.76,10.887.53a16.53,16.53,0,0,0,4.081,9.89c1.9,2.24,7.2,6.03,8.758.71,1.136-3.9-5.545-9.01-10.492-11.8-.2-4.78,1.8-10.18,4.16-13.91,5.571-8.8,16.818-11.22,26.366-10.08,3.416.41,5.788,2.09,8.21,4.14a40.09,40.09,0,0,0-2.937,3.95c-1.857,3.85-3.491,11.91,0,15.67,3.226,3.48,8.128,4.61,9.787-1.22,2.2-7.7-.069-14.13-4.614-18.46,8.973-7.29,26.51-6.87,34.015,2.8.075.11.144.22.215.33-.778.26-1.545.54-2.292.87a23.737,23.737,0,0,0-6.547,4.09.829.829,0,0,0-.088.12c-1.686,1.51-2.642,3.59-1.6,6.02,1.253,2.93,5.014,3.58,7.764,2.23a10.151,10.151,0,0,0,5.4-8.9,9.452,9.452,0,0,0-.74-3.57c13.381-3.05,25.651,8.46,24.041,22.25-.34.01-1.8.22-2.15.25-5.04.4-19.661,6.21-16.63,13.72,4.33,10.7,16.59-4.35,19.03-8.72a14.074,14.074,0,0,0,1.37-3.48c5.85.17,11.84,3.12,13.94,8.79.91,2.33,1,5.12-.06,9.42-5.42,1.47-13.97,5.47-10.55,9.47,4.66,5.44,9.74-2.56,11.83-7.89,7.04-1.34,8.64,4.61,6.92,14.29-.03.09-.5,1.78-.5,1.86.73.12,1.74-.09,2.48,0C1048.41,1937.82,1046.31,1929.17,1039.53,1928.42Z" fill="#aec8e3"/>
    <path id="Path_2806" data-name="Path 2806" d="M1063.5,1556.5l-3.5-15-.5-4.5v-4.5l2-2,7-1.5H1083l14.5-.5,5,2,1.5,5,3.5,18,5,29.5,1.5,10.5-1.5,4-2.5,1.5-26,.5h-7.5l-1.5-1.5,1.5-5.5v-5l5,1.5,8,.5h3l1-1-2-3-7.86-3.72-11.14-3.28,9.5,2.5,1.64.78,4.16,1.22c-2.16-2.58.06-3.08,5.7-3.5,2.59-1.95,1.63-3.37-1-6-2.41-2.5-3.03-3.56,1-3l4.5-1V1567l-3-2.5-11-4-9.5-1-.5-1,8.5-5.5,9-5,3-2.5-1-3.5h-4l-8,2.5L1071,1550l-5.5,5.5Z" fill="#60cef5"/>
    <path id="Path_2807" data-name="Path 2807" d="M1081,1722.91c31.36,10.4,57.07,7.64,105.5,0-1.17-5.91-1.78-9.23-1.5-15.5,4.62-3.79,6.16-6.37,5.5-12.5l1.5-2.5c29.72-7.91,42.7-15.16,43-45.5-10.58-28.7-18.54-45.51-35.5-76.5-13.5-32.5-43.5-32-66-8.5-19.5-10-28.67-20.98-19-26.5-4.5.42-6.69,1.37-9,6.5,0,0,13,54.5,6.5,56a166.821,166.821,0,0,1-26.5,2c-2.24,17.2-4.15,23.38-10.5,19-8.95,3.11-13.16,1.78-19.5-5-35,59,3.5,67.5,23,37.5-1.4,10.58-1.31,16.47,1,27-2.23,11.96-1.64,18.63,1.5,30.5C1079.75,1716.13,1079.48,1719.59,1081,1722.91Z" fill="#60cef5"/>
    <path id="Path_2808" data-name="Path 2808" d="M1081,1722.91c31.36,10.4,57.07,7.64,105.5,0-1.17-5.91-1.78-9.23-1.5-15.5,4.62-3.79,6.16-6.37,5.5-12.5l1.5-2.5c29.72-7.91,42.7-15.16,43-45.5-10.58-28.7-18.54-45.51-35.5-76.5-13.5-32.5-43.5-32-66-8.5-19.5-10-28.67-20.98-19-26.5-4.5.42-6.69,1.37-9,6.5,0,0,13,54.5,6.5,56a166.821,166.821,0,0,1-26.5,2c-2.24,17.2-4.15,23.38-10.5,19-8.95,3.11-13.16,1.78-19.5-5-35,59,3.5,67.5,23,37.5-1.4,10.58-1.31,16.47,1,27-2.23,11.96-1.64,18.63,1.5,30.5C1079.75,1716.13,1079.48,1719.59,1081,1722.91Z" fill="#ffcb30"/>
    <path id="Path_2809" data-name="Path 2809" d="M1185.5,1566.91c-8.67-13.22-16.76-15.75-35-14.5,16.68-14.2,26.8-16.37,49.5,14.5l36,86.5c-3.27,27.03-36,44.5-60,34.5s45.5-41,45.5-41Z" fill="#eab004"/>
    <path id="Path_2810" data-name="Path 2810" d="M1186.62,1934.86c.09,1.58.84,3.19,1.17,4.73.98,4.6,1.56,10.77,2.14,15.45,1.06,8.59.52,11.77.16,17.1-1.85,1.75-11.75,2.22-18.1,2.49-6.9.29-19.1,2.52-23.96-3a6.65,6.65,0,0,1-.46-3.43c.44-2.38,3.14-4.27,4.93-5.55a40.268,40.268,0,0,1,7.09-3.97,27.45,27.45,0,0,1,3.58-.94c3.78-.67,7.93-1.24,11.78-.41a.568.568,0,0,0,.32-1.09,21.028,21.028,0,0,0-10.44-1.02c-.78.13-1.52.27-2.26.42a87.392,87.392,0,0,0,2.79-9.47c1.03-3.92,1.38-7.41,2.29-11.22C1173.67,1935.7,1180.59,1936.08,1186.62,1934.86Zm-78.36,24.42c-.34,2.31-1.39,4.48-1.78,6.74-8.14.23-19.09,1.45-26.69,2.49-2.32.32-27.15,3.56-31.57-.87,5.02-7.15,13.85-12.25,22.22-14.43a1.154,1.154,0,0,0,.4-.2c.03-.02.06-.02.09-.04,4.65-3.06,8.2-7.96,12.09-11.92,1.78-1.81,3.35-3.88,5-5.81.99-1.18,2.18-2,2.29-3.55a.01.01,0,0,0-.01-.01c5.95,1.56,11.46,1.82,17.67,1.87.34,5.39.43,10.77.59,16.17A45.6,45.6,0,0,1,1108.26,1959.28Zm-30.58-361.35c-.01,0-.02-.01-.03-.01a8.244,8.244,0,0,1-1.36-.6,24.01,24.01,0,0,0,1.34-9.51c4.21,1.49,8.1,2.74,12.64,2.92,1.35.06,5.36-1.08,4.08-3.34-1.72-3-4.88-5.03-8.01-6.28-4.75-1.91-9.72-4.23-14.94-4.15a.53.53,0,0,0-.01,1.06c5.65.65,11.7,3.19,16.67,5.89-.67-.36,5.17,3.53,3.23,3.99a15.05,15.05,0,0,1-4.59-.05c-3.21-.34-6.37-1-9.54-1.57-.01,0-.02.01-.03.01-.5-.28-1.31-.12-1.41.52-.74,4.65-1.52,8.37-3.96,12.49a34.847,34.847,0,0,1-8.47,9.12c-.76.61.07,1.56.83,1.47a14.683,14.683,0,0,0,6.87-2.72,95.972,95.972,0,0,1,4.27,11.11c-3.68.97-7.6,1.6-11.31.51-2.87-.84-5.03-3.14-7.03-5.24.96-1.54,1.92-3.07,2.88-4.62a1.287,1.287,0,0,0,.09-.22.63.63,0,0,0,.23-.53c-.68-8.59-.86-17.19-1.33-25.79-.78-14.22,2.4-24.87,14.73-33.02a56.261,56.261,0,0,1,11.72-5.78c7.59-1.9,8.88-.98,6.58,1.68a59.52,59.52,0,0,1-5.45,3.86c-4.9,3.3-9.94,4.42-13.83,8.93a31.732,31.732,0,0,0-4.76.8c-.56.14-.48,1.06.12,1.02,5.98-.31,11.03-.5,16.92,1.15,3.2.9,5.67,1.31,8.67,3.04,5.67,3.26,2.53,4.94-2.73,4.49-.87-.07-.97,1.18-.22,1.44,2.51.9,6.96,1.95,8.78-1.04,1.04-1.72-.76-3.45-2.05-4.33a38.806,38.806,0,0,0-22.88-6.69c6.3-4.79,20.61-7.98,20.76-14.57.13-5.74-11.86-1.27-12.9-.81-6.94,3.06-13.54,6.6-18.25,11.85-.7-3.55-1.51-6.92-2.17-10.62-.08-.45-1.3-6.29-1.37-6.65-.26-1.28-.4-2.24-.49-3.03-.01-.3-.02-.59-.02-.88a3.322,3.322,0,0,1,1.92-3.16c3.18-.17,4.68-.25,8.59-.34,4.03-.09,7.47,0,12.43-.22,3.89-.17,7.91-.17,11.8-.17,1.31,0,2.21-.12,4.06-.08.2.03.41.06.61.1a3.805,3.805,0,0,1,2.49,2.27,34.756,34.756,0,0,1,2.12,8.08c1.9,12.76,3.09,18.39,4.99,29.37,1.48,8.55,4.59,21.8,3.04,26.36-1.16,1.86-2.36,1.81-4.5,2.01-2.91.29-6.34.36-9.26.39-3.93.05-7.49.03-11.42.16C1084.24,1598.09,1080.39,1598.47,1077.68,1597.93Zm-3.04,58.07c-4.05,5.18-8.07,8.47-14.74,10.69-18.3,6.08-17.94-18.71-15.17-28.31,2.48-8.58,6.8-16.11,11.4-23.55,4.04,6.15,13.12,7.59,19.51,4.64.55,1.87,1.07,3.76,1.5,5.69C1079.45,1635.43,1077.9,1646.03,1074.64,1656Zm156.21-26.28c-.13-.34-2.37-5.03-3.28-7.3a229.785,229.785,0,0,0-11.76-24.56c-3.82-7.05-7.09-14.4-10.94-21.45a64.244,64.244,0,0,0-3.89-6.07c-4.08-9.38-14.02-23.62-23.67-27.53-13.18-5.34-29.58,7.06-39.6,14.32-.57.41-.08,1.36.55.98,12.02-7.36,28.58-20.59,41.69-9.21,6.96,6.05,13.06,14.1,18.94,21.32.14.22.28.44.4.65,4.24,7.26,7.93,14.86,11.45,22.49,6.25,13.59,13,27.01,19.44,40.52.1.19,4.55,12.88,4.11,20.68-.63,11.03-8.82,23.23-18.7,28.41-6.5,2.7-13.02,5.34-19.72,7.56-15.88.96-33.36-6.25-40.89-20.91a137.322,137.322,0,0,1,22.38-14.93c12.82-6.7,33.16-13.56,46.61-5.17.54.34,1.19-.44.7-.88-9.15-8.16-23.78-5.29-35.25-1.63-9.98-24.83-16.65-55.83-2.34-80.13a.546.546,0,0,0-.93-.57c-15.81,21.4-11.01,58.41,1.31,81.34-1.41.48-2.78.95-4.06,1.41-10.61,3.82-22.04,9.99-30.27,18.41a137.935,137.935,0,0,1-6.75-17.09.574.574,0,0,0-1.11.29c4.17,18.2,14.97,36.97,27.86,50.45.52.54,1.28-.23.82-.79-.29-.36-.56-.72-.84-1.08,2.17-.57,9.7-2.49,16.09-4.15.17,4.75-1.06,9.95-6.44,12-31.29,8.81-67.44,14.27-98.48,1.72-.59-.24-1,.72-.45,1.01,14.68,7.82,30.11,8.24,46.54,8.74,18.13.55,36.36-2.26,52.89-9.76.14,2.57.79,4.99,1.08,7.59s.73,4.09,1.17,6.41c-1.51.28-3.03.53-4.54.78a.274.274,0,0,0-.13.02c-17.88,2.92-35.66,3.85-53.82,4.3a250.008,250.008,0,0,1-25.23-.71,89.764,89.764,0,0,1-18.22-3.21c-.05-.02-.99-.21-2.16-.55-.16-2.84-.08-5.09-.13-8.06-.04-2.51.58-5.04.55-7.53a.806.806,0,0,0,.01-.38.432.432,0,0,0,.01-.16v-.04h0a.75.75,0,0,0-.09-.3,81.466,81.466,0,0,1,11.05-56.44c13.3,1.15,25.57.52,38.89-.19a.6.6,0,0,0,.02-1.2c-13.48-.38-25.7.45-39.2.3-.02,0-.03.02-.05.02h-.01a.531.531,0,0,0-.33.14c-.01.01-.02,0-.02.01-6.05,5.96-10.3,14.66-12.61,24.01a269.639,269.639,0,0,1,.68-29.43,50.952,50.952,0,0,0,.54-6.65c1.14-12.59,2.82-25.14,4.49-37.76,5.72.28,11.43.38,17.67.15,7.21-.26,10.47-.27,11.38-4.62.83-2.24.35-5.07.11-7.34-.6-5.68-2.02-11.31-3.11-16.91-2.22-11.35-4.12-22.76-6.29-34.12-.47-2.96-1.32-6.7-1.96-7.47a6.339,6.339,0,0,0-5.25-2.11c-.93-.08-1.91-.03-3.04-.03-3.94,0-7.86.15-11.8.22-6.61.12-16.67.09-20.94.87-3.68.36-4.23,4.7-3.31,7.86.21,1.9.79,4.05.94,5.17.66,4.82,2.48,11.5,3.1,14.51a25.827,25.827,0,0,0-4.68,9.56c-3.52,13.62-1.74,28.81.56,42.48-9.35,13.1-26.71,36.68-17,53.59,9.33,16.26,29.02,9.32,35.49-5.15a149.663,149.663,0,0,0,1.28,22.9c-1.57,9.82-1.04,19.87,1.76,27.9v.03c-.34,6.1-.97,13-.05,17.05a.691.691,0,0,0,.74.47c1.79.68,3.23,1.14,4.64,1.62-1.47,45.26-1.38,90.67.7,135.89a.034.034,0,0,0,.01.02c.02,2.02.16,4.03.16,5.91.01,7.66.27,15.35.7,22.99.76,13.55,1.24,27.23,1.25,40.8a.705.705,0,0,0,.09.33c-.82.83-1.85,1.6-2.58,2.38-1.75,1.87-3.5,3.75-5.34,5.54-3.57,3.47-7.46,6.97-10.29,11.11a1.148,1.148,0,0,0-.19-.01c-5.12.81-10.09,3.49-14.63,5.96-3.07,1.68-8.85,5.11-9.12,9.11a3.144,3.144,0,0,0,.1,1.31.128.128,0,0,1,.01.06c.01.01.02.01.02.02,3.23,9.03,54.14,1.43,61.64-.36a1.738,1.738,0,0,0,.51-.13h0c5.2-2.23,1.76-30.01,1.31-33.8,3.75-.05,8.17-.57,11.12-2.81a.912.912,0,0,0,.79-.8c.5-4.99-4.13-42.7-6.88-54.08,5.03-15.44,7.05-32.45,9.94-48.28,1.64-8.98,3.09-18.02,4.15-27.08.55-4.7,1.31-9.38,1.95-14.08.45-3.28.75-5.44,1.28-10.19,7.99,31.87,14.09,63.92,24.86,95.04-.18,9.42,2.21,22.23,2.23,31.12.03,11.53.7,19.96,1.66,30.93a.7.7,0,0,0,.61.73c1.48.24,3.08.5,4.77.73a102,102,0,0,0-5.69,21.3,22.282,22.282,0,0,0-8.96,4.06c-.02.01-.02.03-.03.04-.63.41-1.25.85-1.88,1.32-3.29,2.45-5.48,6.04-4.07,9.96,0,.02-.01.04,0,.06l.06.12a4.938,4.938,0,0,0,.17.5.6.6,0,0,0,.17.19c3.08,5.71,13.21,4.75,19.37,4.86,8.2.14,19.87-.39,26.07-2.79a.259.259,0,0,0,.16-.19.708.708,0,0,0,.28-.16c1.4-1.4.84-11.55.38-15.84a212.632,212.632,0,0,0-4.18-23.7,23.534,23.534,0,0,0,4.46-1.58c.08-.04.1-.11.15-.16.02-.02.03-.04.05-.06a.6.6,0,0,0,.1-.32c.01-.02.03-.03.03-.06-1.14-14.38-2-25.84-3.08-39.62-1.04-13.16-2.06-28.81-3.82-41.99,1.09-21.38-.27-42.23-.8-63.67-.3-11.89-1.11-23.75-1.39-35.64-.18-7.83.47-17.84-1.66-25.68,1.45-.44,2.88-.91,4.3-1.45a.7.7,0,0,0,.47-.28.449.449,0,0,0,.06-.12.536.536,0,0,0,.05-.11c.81-1.54-.2-3.55-.77-7.33-.41-2.73-1.03-5.31-1.57-8,5.39-1.83,8.52-8.51,6.27-13.79,3.98-1.03,7.22-1.89,7.95-2.12a122.727,122.727,0,0,0,19.02-8.17,24.2,24.2,0,0,0,6.54-3.65.475.475,0,0,1,.1-.05.973.973,0,0,0,.23-.22,32.753,32.753,0,0,0,10.1-15.06C1239.32,1652.47,1235.66,1641.75,1230.85,1629.72Z" fill="#0d4680"/>
    <path id="Path_2811" data-name="Path 2811" d="M1117.87,1502.68c1.19,2.94.14,5.68.26,8.56a.8.8,0,0,0,.48.89,11.566,11.566,0,0,0,2.02.54,7.862,7.862,0,0,0,1.2.97,6.565,6.565,0,0,1,2.16,3.05c.58,1.73.42,3.57.69,5.35a.6.6,0,0,0,1.15.02,13.271,13.271,0,0,0-.25-5.78,6.593,6.593,0,0,0-1.32-2.44c-.24-.32-.47-.62-.74-.93,7.9-.15,16.34-6.47,16.88-14.46.65.06,1.29.13,1.93.22.61.08.83-.74.49-1.12-1.22-1.34-4.46-1.35-5.8-.17a.639.639,0,0,0,.6,1.07,3.629,3.629,0,0,1,1.03-.13c-2.98,8.09-9.78,13.95-18.64,12.57.12-3.03.24-6.72-1.34-9.3.06-.52-.6-1.06-1.08-.72-.95.61-1.86,1.27-2.75,1.96-4.52,3.39-4.64-4.9-4.73-5.62-.39-3.15-.63-6.3-.85-9.47-.36-5.36-.45-10.77-1.88-15.98h0a.521.521,0,0,0-.04-.21c-3.76-5.74-12.38-7.7-16.55-1.54-.35.52.47,1.18.87.69,2.22-2.73,4.79-3.39,8.26-2.58,2.59.61,4.07,2.53,6.09,3.97.56,9.06.82,18.49,2.12,27.46C1109.15,1506.54,1113.82,1507.21,1117.87,1502.68Z" fill="#0d4680"/>
    <path id="Path_2812" data-name="Path 2812" d="M1122.46,1468.8c5.63-3.87,15.54-5.49,21.26-2.88.68.31,1.34-.49.91-.91-4.7-4.65-17.76-1.01-22.93,3.2C1121.14,1468.67,1121.87,1469.21,1122.46,1468.8Z" fill="#0d4680"/>
    <path id="Path_2813" data-name="Path 2813" d="M1130.16,1476.74a2.808,2.808,0,0,0-.74,1.34c-.02.07-.03.13-.05.2a1.739,1.739,0,0,0-.06.33,10.657,10.657,0,0,0-.1,2.25c.12,1.86,1.96,5.19,4.21,3.37,1.47-1.19,1.26-3.78,1-5.46C1134.12,1476.84,1131.84,1475.13,1130.16,1476.74Z" fill="#0d4680"/>
    <path id="Path_2814" data-name="Path 2814" d="M1099.24,1478.83a1.828,1.828,0,0,0-2.56.83,1.05,1.05,0,0,0-.15.15,5.368,5.368,0,0,0-.6,3.71c.18,1.37,1.45,3.72,3.09,3.55,1.58-.17,2.12-2.16,2.28-3.49C1101.49,1481.97,1100.82,1479.55,1099.24,1478.83Z" fill="#0d4680"/>
    <path id="Path_2815" data-name="Path 2815" d="M1115.14,1536.4a.571.571,0,0,0,.02-1.14c-6.5-.03-7.16,5.99-4.49,10.8,3.75,6.77,12.01,10.84,19.12,12.7a.643.643,0,0,0,.51-1.16c-3.34-1.9-6.91-3.28-10.24-5.24a28.013,28.013,0,0,1-5.2-4.19C1112.66,1546.02,1106.22,1537.04,1115.14,1536.4Z" fill="#0d4680"/>
    <path id="Path_2816" data-name="Path 2816" d="M1112.49,1428.29c-4.97,7.78-6.54,20.28-3.63,27.87a.646.646,0,0,0,1.25-.32.126.126,0,0,0-.01-.06,60.257,60.257,0,0,1,13.51-31.43c.55,8.37,4.24,15.64,10.18,21.81,5.74,5.98,16.03,11.35,25.03,12.73.77,1.53,1.42,3.18,2.01,4.66,1.83,4.55,3.5,9.13,5.03,13.79a.648.648,0,0,0,1.27-.15c0-.24-.04-.48-.05-.72.7-3.94,3.74-7.91,8.25-7.51,6.35.57,8.03,6.99,7.2,12.19-.92,5.7-9.34,12.93-15.2,12.13a.688.688,0,0,0-1.03.42c-2.62,12.04-10.47,22.63-19,31.94-7.59,6.38-16.15,11.68-26.17,6.11-20.43-14.66-30.99-36.24-33.48-60.94C1088.09,1454.9,1098.69,1437.02,1112.49,1428.29Zm-42.55,13.28a11.181,11.181,0,0,0,6.78.54,37.181,37.181,0,0,0-2.6,13.62,31.176,31.176,0,0,0,13.14,24.3c3.03,21.03,14.23,41.36,32.52,52.39a.373.373,0,0,0,.13.15,16.643,16.643,0,0,0,10.77,3.49c3.57.69,7.66,1.44,11.22.83-.7.97-1.33,1.95-1.86,2.78-2.45,3.75-5.39,13.91-5.54,14.46-4.02-4.22-9.1-8.1-10.28-14.25-.12-.6-1.13-.49-1.07.13.29,3.39,2.35,6.84,4.25,9.59,1.49,2.16,3.93,5.01,6.58,5.65.18.05,1.2.17,1.39-.26,3.62-8.41,10.86-16.9,17.13-23.44,5.43-5.66,21.6-25.39,27.85-11.89a2.487,2.487,0,0,0,.2.32c-8.07,1.52-15.99,7.34-21.88,12.12-.51.42.16,1.32.69.93,6.78-5.03,14.42-9.26,22.64-11.35,8.18-2.08,11.73,7.78,12.15,13.63.27,3.73-.34,7.59-.48,11.32-.03.95,1.21.99,1.54.23,3.33-7.65,4.53-23.91-6.46-26.72a18.116,18.116,0,0,0-6.8-.36c-2.16-10.92-10.96-7.4-17.48-2.51a34.495,34.495,0,0,1-.31-5.32,69.079,69.079,0,0,1,.52-8.43,34.627,34.627,0,0,0,2.86-8.5c5.52.75,8.7-1.77,12.01-5.28,4.18-4.44,5.35-8.55,4.55-14.6a8.176,8.176,0,0,0-5.58-7.06c5.23-7.89,6.38-21.79,4.53-33.64a53.523,53.523,0,0,1-12.18.32c-4.66-.43-9.63-1.15-13.96-3.02-7.96-3.42-14.78-12.28-23.63-13.02-.13-.02-.14-.21,0-.21,12.42-.55,18.84,8.24,29.16,9.78a53.739,53.739,0,0,0,15.35.48,27.778,27.778,0,0,0,3.88-.86,32.313,32.313,0,0,0-4.76-10.59c-5.3-7.08-9.52-12.35-18.29-14.98a29.6,29.6,0,0,0-19.86,1.21c-5.66-7.39-19.81-8.59-27.76-5.31a62.6,62.6,0,0,0-15.57,9.44c-3.88,3.09-6.84,7.35-9.47,11.49,3.65,1.01,7.28.2,11.02-1.45a60.668,60.668,0,0,1,9.88-3.63c5.71-1.42,10.21-1.23,15.71,1.54.12.06.11.23-.02.21-11.67-1.9-17.72,1.18-27.45,6.69-3.92,2.22-10.66,3.15-12.94,2.35-5.2,8.15-8.81,12.29-18.5,3.22a.666.666,0,0,0-1.02.18.517.517,0,0,0-.16.49C1063.63,1433.57,1064.99,1439.35,1069.94,1441.57Z" fill="#0d4680"/>
    <path id="Path_2817" data-name="Path 2817" d="M1094.97,1574.86c-6.57-6.99-17.82-9.56-26.85-7.15a.558.558,0,0,0,.28,1.08c6.95-1.03,13.9-.19,19.93,3.59a31.394,31.394,0,0,1,5.16,3.91c1.65,1.85.03,2.7-1.74,2.7-1.74-.12-3.79-.76-5.53-.92-.75-.07-.85,1.03-.19,1.26,2.28.79,7.74,2.87,10,.68C1097.77,1578.31,1096.26,1576.23,1094.97,1574.86Z" fill="#0d4680"/>
    <path id="Path_2818" data-name="Path 2818" d="M1069.37,1538.71a3.142,3.142,0,0,0-2.47-2.73,2.083,2.083,0,0,0-1.04.12,1.689,1.689,0,0,0-1.59,2.01C1064.72,1541.09,1069.58,1541.91,1069.37,1538.71Z" fill="#0d4680"/>
    <path id="Path_2819" data-name="Path 2819" d="M1066.63,1542.58c-2.46,1.18-.17,5.35,2.21,4.09a1.618,1.618,0,0,0,.18-.1,2.859,2.859,0,0,0,.41-.32,1,1,0,0,0,.33-.65,2.952,2.952,0,0,0,.18-1.67A2.252,2.252,0,0,0,1066.63,1542.58Z" fill="#0d4680"/>
    <circle id="Ellipse_8" data-name="Ellipse 8" cx="23" cy="23" r="23" transform="translate(1012 1408.41)" fill="#ffc000" stroke="#0d4680" stroke-width="4"/>
    <path id="Path_2820" data-name="Path 2820" d="M1031.09,1440.41l-9.09-9.01,2.27-2.25,6.82,6.75,14.64-14.49,2.27,2.25Z" fill="#0d4680"/>
    <path id="Path_2821" data-name="Path 2821" d="M855.221,1462.41l-4-14.9h2.92l3.14,12.7h-.76l3.28-12.7h2.82l3.26,12.7h-.76l3.14-12.7h2.92l-4,14.9h-3.12l-3.3-12.36h.88l-3.3,12.36Z" fill="#fff"/>
    <path id="Path_2822" data-name="Path 2822" d="M872.611,1462.41v-15.14h2.62v6.4l-.36-.38a2.807,2.807,0,0,1,1.24-1.48,3.9,3.9,0,0,1,2.04-.52,4.2,4.2,0,0,1,2.12.52,3.6,3.6,0,0,1,1.46,1.46,4.245,4.245,0,0,1,.52,2.14v7h-2.62v-6.38a2.558,2.558,0,0,0-.28-1.24,1.894,1.894,0,0,0-.78-.8,2.107,2.107,0,0,0-1.14-.3,2.176,2.176,0,0,0-1.14.3,1.906,1.906,0,0,0-.78.8,2.57,2.57,0,0,0-.28,1.24v6.38Z" fill="#fff"/>
    <path id="Path_2823" data-name="Path 2823" d="M884.467,1462.41v-10.88h2.62v10.88Zm0-12.1v-2.8h2.62v2.8Z" fill="#fff"/>
    <path id="Path_2824" data-name="Path 2824" d="M889.506,1466.41v-14.88h2.46v2.16l-.24-.54a3.727,3.727,0,0,1,1.52-1.36,4.658,4.658,0,0,1,2.22-.5,5.184,5.184,0,0,1,2.78.76,5.432,5.432,0,0,1,1.96,2.04,5.635,5.635,0,0,1,.74,2.88,5.862,5.862,0,0,1-.72,2.88,5.563,5.563,0,0,1-1.96,2.06,5.429,5.429,0,0,1-2.82.74,5.255,5.255,0,0,1-2.18-.46,3.919,3.919,0,0,1-1.56-1.36l.42-.52v6.1Zm5.64-6.16a3.049,3.049,0,0,0,1.6-.42,2.849,2.849,0,0,0,1.08-1.16,3.533,3.533,0,0,0,.4-1.7,3.4,3.4,0,0,0-.4-1.68,2.789,2.789,0,0,0-1.08-1.16,2.887,2.887,0,0,0-1.6-.44,2.876,2.876,0,0,0-2.64,1.6,3.609,3.609,0,0,0-.38,1.68,3.694,3.694,0,0,0,.38,1.7,3.05,3.05,0,0,0,1.08,1.16A2.975,2.975,0,0,0,895.146,1460.25Z" fill="#fff"/>
    <path id="Path_2825" data-name="Path 2825" d="M903.163,1462.41v-14.9h9.94v2.4h-7.22v4.12h6.32v2.4h-6.32v5.98Z" fill="#fff"/>
    <path id="Path_2826" data-name="Path 2826" d="M914.662,1462.41v-15.14h2.62v15.14Z" fill="#fff"/>
    <path id="Path_2827" data-name="Path 2827" d="M919.7,1462.41v-10.88h2.62v10.88Zm0-12.1v-2.8h2.62v2.8Z" fill="#fff"/>
    <path id="Path_2828" data-name="Path 2828" d="M924.74,1466.41v-14.88h2.46v2.16l-.24-.54a3.733,3.733,0,0,1,1.52-1.36,4.658,4.658,0,0,1,2.22-.5,5.181,5.181,0,0,1,2.78.76,5.432,5.432,0,0,1,1.96,2.04,5.625,5.625,0,0,1,.74,2.88,5.862,5.862,0,0,1-.72,2.88,5.563,5.563,0,0,1-1.96,2.06,5.424,5.424,0,0,1-2.82.74,5.259,5.259,0,0,1-2.18-.46,3.919,3.919,0,0,1-1.56-1.36l.42-.52v6.1Zm5.64-6.16a3.047,3.047,0,0,0,1.6-.42,2.849,2.849,0,0,0,1.08-1.16,3.533,3.533,0,0,0,.4-1.7,3.4,3.4,0,0,0-.4-1.68,2.789,2.789,0,0,0-1.08-1.16,2.885,2.885,0,0,0-1.6-.44,2.876,2.876,0,0,0-2.64,1.6,3.609,3.609,0,0,0-.38,1.68,3.694,3.694,0,0,0,.38,1.7,3.05,3.05,0,0,0,1.08,1.16A2.975,2.975,0,0,0,930.38,1460.25Z" fill="#fff"/>
    <path id="Path_2829" data-name="Path 2829" d="M949.292,1462.65a8.145,8.145,0,0,1-3.06-.58,7.539,7.539,0,0,1-4.14-4.06,8.051,8.051,0,0,1-.58-3.06,7.905,7.905,0,0,1,.58-3.06,7.3,7.3,0,0,1,4.12-4.04,8.469,8.469,0,0,1,6.16,0,7.393,7.393,0,0,1,2.48,1.62,7,7,0,0,1,1.64,2.42,7.663,7.663,0,0,1,.6,3.06,7.8,7.8,0,0,1-.6,3.06,7.539,7.539,0,0,1-4.14,4.06A8.04,8.04,0,0,1,949.292,1462.65Zm0-2.48a5.3,5.3,0,0,0,2.02-.38,5.117,5.117,0,0,0,1.6-1.1,4.623,4.623,0,0,0,1.06-1.66,5.612,5.612,0,0,0,.38-2.08,5.4,5.4,0,0,0-.38-2.06,4.919,4.919,0,0,0-2.66-2.76,5.506,5.506,0,0,0-4.02,0,4.745,4.745,0,0,0-1.62,1.1,4.935,4.935,0,0,0-1.06,1.66,5.416,5.416,0,0,0-.38,2.06,5.633,5.633,0,0,0,.38,2.08,5.036,5.036,0,0,0,1.06,1.66,5.387,5.387,0,0,0,1.62,1.1A5.253,5.253,0,0,0,949.292,1460.17Z" fill="#fff"/>
    <path id="Path_2830" data-name="Path 2830" d="M960.551,1462.41v-8.54h-1.92v-2.34h1.92v-.36a4.1,4.1,0,0,1,.5-2.1,3.351,3.351,0,0,1,1.44-1.34,4.778,4.778,0,0,1,2.18-.46,3.252,3.252,0,0,1,.52.04,3,3,0,0,1,.5.06v2.26a1.711,1.711,0,0,0-.38-.04,1.583,1.583,0,0,0-.3-.02,2.049,2.049,0,0,0-1.36.4,1.429,1.429,0,0,0-.48,1.2v.36h4.76v2.34h-4.76v8.54Zm7.92,0v-8.54h-1.92v-2.34h1.92v-.36a4.1,4.1,0,0,1,.5-2.1,3.228,3.228,0,0,1,1.42-1.34,4.907,4.907,0,0,1,2.2-.46,3.254,3.254,0,0,1,.52.04,2.578,2.578,0,0,1,.48.06v2.26a1.471,1.471,0,0,0-.36-.04,1.584,1.584,0,0,0-.3-.02,2.049,2.049,0,0,0-1.36.4,1.429,1.429,0,0,0-.48,1.2v.36h2.4v2.34h-2.4v8.54Z" fill="#fff"/>
    <path id="Path_2831" data-name="Path 2831" d="M980.174,1462.65a5.644,5.644,0,0,1-2.94-.76,5.358,5.358,0,0,1-1.96-2.06,5.992,5.992,0,0,1-.7-2.88,5.85,5.85,0,0,1,.7-2.9,5.351,5.351,0,0,1,1.94-2.02,5.218,5.218,0,0,1,2.76-.74,5.552,5.552,0,0,1,2.24.42,4.7,4.7,0,0,1,1.66,1.16,5.141,5.141,0,0,1,1.04,1.7,5.606,5.606,0,0,1,.36,2.04,4.586,4.586,0,0,1-.04.58,1.959,1.959,0,0,1-.1.52h-8.4v-2h6.92l-1.24.94a2.917,2.917,0,0,0-.1-1.64,2.279,2.279,0,0,0-.88-1.14,2.482,2.482,0,0,0-1.46-.42,2.6,2.6,0,0,0-1.46.42,2.463,2.463,0,0,0-.98,1.2,4.18,4.18,0,0,0-.24,1.9,3.666,3.666,0,0,0,.26,1.78,2.752,2.752,0,0,0,1.04,1.18,3.048,3.048,0,0,0,1.6.42,2.89,2.89,0,0,0,1.52-.38,2.823,2.823,0,0,0,1-1.02l2.12,1.04a3.716,3.716,0,0,1-1,1.38,5.052,5.052,0,0,1-1.62.94A6.011,6.011,0,0,1,980.174,1462.65Z" fill="#fff"/>
    <path id="Path_2832" data-name="Path 2832" d="M987.26,1462.41v-10.88h2.46v2.42l-.2-.36a2.842,2.842,0,0,1,1.18-1.7,3.811,3.811,0,0,1,1.96-.48h.64v2.32h-.94a2.381,2.381,0,0,0-1.8.7,2.583,2.583,0,0,0-.68,1.92v6.06Z" fill="#fff"/>
    <path id="Path_2833" data-name="Path 2833" d="M847.65,1495.69a7.649,7.649,0,0,1-3.328-.7,7.541,7.541,0,0,1-2.444-1.85,7.064,7.064,0,0,1-1.378-2.47l1.508-.54a6.292,6.292,0,0,0,2.158,3.01,5.816,5.816,0,0,0,3.458,1.04,5.7,5.7,0,0,0,2.314-.44,3.729,3.729,0,0,0,1.586-1.25,3.2,3.2,0,0,0,.572-1.9,3.125,3.125,0,0,0-.858-2.34,4.782,4.782,0,0,0-2.184-1.19l-3.536-1.04a5.969,5.969,0,0,1-3.2-2,5.314,5.314,0,0,1-1.014-3.18,4.855,4.855,0,0,1,.728-2.67,5.127,5.127,0,0,1,2.028-1.82,6.176,6.176,0,0,1,2.886-.65,7.052,7.052,0,0,1,5.278,2.31,5.942,5.942,0,0,1,1.326,2.26l-1.482.55a5.225,5.225,0,0,0-5.1-3.64,4.567,4.567,0,0,0-2.054.44,3.353,3.353,0,0,0-1.95,3.15,3.5,3.5,0,0,0,.754,2.26,5.074,5.074,0,0,0,2.522,1.48l3.172.94a6.511,6.511,0,0,1,3.2,1.92,4.543,4.543,0,0,1,1.144,3.15,4.754,4.754,0,0,1-.78,2.7,5.43,5.43,0,0,1-2.184,1.82A7.341,7.341,0,0,1,847.65,1495.69Zm-.91,2.29v-24.57h1.508v24.57Z" fill="#fff"/>
    <path id="Path_2834" data-name="Path 2834" d="M914.853,1601.82a4.96,4.96,0,0,1-3.918-1.76,5.01,5.01,0,0,1-.935-1.71l1.024-.38a4.318,4.318,0,0,0,1.464,2.09,3.878,3.878,0,0,0,2.347.72,3.661,3.661,0,0,0,1.571-.31,2.5,2.5,0,0,0,1.076-.86,2.233,2.233,0,0,0,.389-1.31,2.165,2.165,0,0,0-.583-1.62,3.272,3.272,0,0,0-1.482-.83l-2.4-.72a4.036,4.036,0,0,1-2.171-1.38,3.715,3.715,0,0,1-.688-2.2,3.419,3.419,0,0,1,.494-1.85,3.516,3.516,0,0,1,1.377-1.26,4.177,4.177,0,0,1,1.958-.45,4.52,4.52,0,0,1,2.048.45,4.569,4.569,0,0,1,1.535,1.15,4.121,4.121,0,0,1,.9,1.57l-1.006.37a3.7,3.7,0,0,0-1.359-1.87,3.558,3.558,0,0,0-2.1-.64,3.15,3.15,0,0,0-1.394.3,2.338,2.338,0,0,0-1.324,2.18,2.433,2.433,0,0,0,.512,1.56,3.367,3.367,0,0,0,1.712,1.03l2.153.65a4.4,4.4,0,0,1,2.171,1.33,3.171,3.171,0,0,1,.776,2.17,3.366,3.366,0,0,1-.529,1.88,3.716,3.716,0,0,1-1.483,1.25A4.862,4.862,0,0,1,914.853,1601.82Zm-.618,1.59v-17h1.024v17Z" fill="#605f6e"/>
    <path id="Path_2835" data-name="Path 2835" d="M864.32,1510.41v-28.25h-6.67v-6.02h13.8v34.27Z" fill="#fff"/>
    <path id="Path_2836" data-name="Path 2836" d="M877.434,1510.41v-5.52l9.2-9.48q2.715-2.8,4.094-4.41a13.036,13.036,0,0,0,1.932-2.76,4.842,4.842,0,0,0,.552-2.17,3.653,3.653,0,0,0-1.242-2.94,4.28,4.28,0,0,0-3.036-1.1,5.424,5.424,0,0,0-3.358,1.1,6.058,6.058,0,0,0-2.162,3.27l-6.21-2.03a9.86,9.86,0,0,1,2.3-4.64,11.614,11.614,0,0,1,4.232-3.04,12.594,12.594,0,0,1,5.2-1.1,14.02,14.02,0,0,1,5.98,1.19,9.428,9.428,0,0,1,4,3.36,8.977,8.977,0,0,1,1.426,5.06,10.607,10.607,0,0,1-.644,3.63,14.976,14.976,0,0,1-1.978,3.59,34.026,34.026,0,0,1-3.358,3.91l-7.866,8.1h14.168v5.98Z" fill="#fff"/>
    <path id="Path_2837" data-name="Path 2837" d="M907.965,1518v-3.45a5.109,5.109,0,0,0,2.622-1.43,4.888,4.888,0,0,0,1.38-2.71h-3.082v-6.9h6.9v4a11.556,11.556,0,0,1-1.978,7.04A9.2,9.2,0,0,1,907.965,1518Z" fill="#fff"/>
    <path id="Path_2838" data-name="Path 2838" d="M934.219,1510.96a14.079,14.079,0,0,1-5.244-1.01,12.627,12.627,0,0,1-4.324-2.95,9.392,9.392,0,0,1-2.346-4.6l6.3-2.11a5.78,5.78,0,0,0,2.208,3.22,6.033,6.033,0,0,0,3.4,1.01,5.943,5.943,0,0,0,2.806-.64,4.73,4.73,0,0,0,1.84-1.89,5.78,5.78,0,0,0,.69-2.85,5.522,5.522,0,0,0-.69-2.81,4.429,4.429,0,0,0-1.84-1.84,5.52,5.52,0,0,0-2.806-.69,5.835,5.835,0,0,0-2.944.74,4.1,4.1,0,0,0-1.886,2.16l-5.842-1.38,2.76-19.18h19.136v5.98H929.205l2.668-3.22-1.886,14.26-1.932-1.7a7.092,7.092,0,0,1,2.9-2.76,10.405,10.405,0,0,1,4.6-.88,11.446,11.446,0,0,1,5.934,1.47,9.67,9.67,0,0,1,3.818,3.96,12.118,12.118,0,0,1,1.38,5.89,11.418,11.418,0,0,1-1.656,6.07,11.69,11.69,0,0,1-4.416,4.23A13.246,13.246,0,0,1,934.219,1510.96Z" fill="#fff"/>
    <path id="Path_2839" data-name="Path 2839" d="M965.005,1510.96a12.221,12.221,0,0,1-7.222-2.21,14.584,14.584,0,0,1-4.83-6.21,23.015,23.015,0,0,1-1.748-9.29,23.325,23.325,0,0,1,1.7-9.29,14.7,14.7,0,0,1,4.83-6.17,13.029,13.029,0,0,1,14.49,0,14.255,14.255,0,0,1,4.83,6.21,22.734,22.734,0,0,1,1.748,9.25,23.033,23.033,0,0,1-1.748,9.29,14.49,14.49,0,0,1-4.83,6.21A12.091,12.091,0,0,1,965.005,1510.96Zm.046-6.44a5.193,5.193,0,0,0,3.588-1.33,8.466,8.466,0,0,0,2.254-3.87,20.731,20.731,0,0,0,.782-6.07,20.308,20.308,0,0,0-.782-6.03,8.27,8.27,0,0,0-2.3-3.86,5.208,5.208,0,0,0-3.634-1.33,5.143,5.143,0,0,0-3.588,1.33,8.466,8.466,0,0,0-2.254,3.86,20.274,20.274,0,0,0-.782,6.03,20.554,20.554,0,0,0,.782,6.03,8.819,8.819,0,0,0,2.254,3.91A5.422,5.422,0,0,0,965.051,1504.52Z" fill="#fff"/>
    <path id="Path_2840" data-name="Path 2840" d="M997.214,1510.96a12.221,12.221,0,0,1-7.222-2.21,14.585,14.585,0,0,1-4.83-6.21,23.015,23.015,0,0,1-1.748-9.29,23.325,23.325,0,0,1,1.7-9.29,14.7,14.7,0,0,1,4.83-6.17,13.036,13.036,0,0,1,14.494,0,14.328,14.328,0,0,1,4.83,6.21,22.82,22.82,0,0,1,1.74,9.25,23.12,23.12,0,0,1-1.74,9.29,14.565,14.565,0,0,1-4.83,6.21A12.114,12.114,0,0,1,997.214,1510.96Zm.046-6.44a5.2,5.2,0,0,0,3.59-1.33,8.453,8.453,0,0,0,2.25-3.87,20.768,20.768,0,0,0,.78-6.07,20.345,20.345,0,0,0-.78-6.03,8.269,8.269,0,0,0-2.3-3.86,5.2,5.2,0,0,0-3.632-1.33,5.143,5.143,0,0,0-3.588,1.33,8.466,8.466,0,0,0-2.254,3.86,20.276,20.276,0,0,0-.782,6.03,20.556,20.556,0,0,0,.782,6.03,8.819,8.819,0,0,0,2.254,3.91A5.422,5.422,0,0,0,997.26,1504.52Z" fill="#fff"/>
    <path id="Path_2841" data-name="Path 2841" d="M925.591,1607v-16.58h-3.915v-3.53h8.1V1607Z" fill="#605f6e"/>
    <path id="Path_2842" data-name="Path 2842" d="M936.744,1607v-16.58h-3.915v-3.53h8.1V1607Z" fill="#605f6e"/>
    <path id="Path_2843" data-name="Path 2843" d="M946.277,1611.46v-2.03a2.928,2.928,0,0,0,1.539-.84,2.831,2.831,0,0,0,.81-1.59h-1.809v-4.05h4.05v2.35a6.76,6.76,0,0,1-1.161,4.13A5.447,5.447,0,0,1,946.277,1611.46Z" fill="#605f6e"/>
    <path id="Path_2844" data-name="Path 2844" d="M954.856,1607v-3.24l5.4-5.56c1.062-1.1,1.863-1.96,2.4-2.59a7.593,7.593,0,0,0,1.134-1.62,2.869,2.869,0,0,0,.324-1.27,2.144,2.144,0,0,0-.729-1.73,2.536,2.536,0,0,0-1.782-.65,3.214,3.214,0,0,0-1.971.65,3.549,3.549,0,0,0-1.269,1.92l-3.645-1.19a5.836,5.836,0,0,1,1.35-2.73,6.848,6.848,0,0,1,2.484-1.78,7.467,7.467,0,0,1,3.051-.65,8.379,8.379,0,0,1,3.51.7,5.575,5.575,0,0,1,2.349,1.97,5.288,5.288,0,0,1,.837,2.97,6.3,6.3,0,0,1-.378,2.14,8.864,8.864,0,0,1-1.161,2.1,19.744,19.744,0,0,1-1.971,2.3l-4.617,4.75h8.316V1607Z" fill="#605f6e"/>
    <path id="Path_2845" data-name="Path 2845" d="M977.771,1607.32a8.132,8.132,0,0,1-3.078-.59,7.312,7.312,0,0,1-2.538-1.73,5.485,5.485,0,0,1-1.377-2.7l3.7-1.24a3.405,3.405,0,0,0,1.3,1.89,3.488,3.488,0,0,0,2,.59,3.445,3.445,0,0,0,1.647-.37,2.772,2.772,0,0,0,1.08-1.11,3.385,3.385,0,0,0,.405-1.67,3.255,3.255,0,0,0-.405-1.65,2.58,2.58,0,0,0-1.08-1.08,3.24,3.24,0,0,0-1.647-.41,3.405,3.405,0,0,0-1.728.44,2.414,2.414,0,0,0-1.107,1.26l-3.429-.81,1.62-11.25h11.232v3.51h-9.531l1.566-1.89-1.107,8.37-1.134-1a4.158,4.158,0,0,1,1.7-1.62,6.054,6.054,0,0,1,2.7-.52,6.675,6.675,0,0,1,3.483.87,5.689,5.689,0,0,1,2.241,2.32,7.1,7.1,0,0,1,.81,3.46,6.7,6.7,0,0,1-.972,3.56,6.883,6.883,0,0,1-2.592,2.48A7.694,7.694,0,0,1,977.771,1607.32Z" fill="#605f6e"/>
    <path id="Path_2846" data-name="Path 2846" d="M995.841,1607.32a7.189,7.189,0,0,1-4.239-1.29,8.606,8.606,0,0,1-2.835-3.65,13.484,13.484,0,0,1-1.026-5.45,13.666,13.666,0,0,1,1-5.45,8.572,8.572,0,0,1,2.835-3.62,7.606,7.606,0,0,1,8.505,0,8.373,8.373,0,0,1,2.84,3.64,15.016,15.016,0,0,1,0,10.88,8.583,8.583,0,0,1-2.84,3.65A7.111,7.111,0,0,1,995.841,1607.32Zm.027-3.78a3.03,3.03,0,0,0,2.106-.78,4.957,4.957,0,0,0,1.323-2.27,12.109,12.109,0,0,0,.459-3.56,11.874,11.874,0,0,0-.459-3.54,4.885,4.885,0,0,0-1.35-2.27,3.066,3.066,0,0,0-2.133-.78,3.03,3.03,0,0,0-2.106.78,5.01,5.01,0,0,0-1.323,2.27,11.874,11.874,0,0,0-.459,3.54,12.06,12.06,0,0,0,.459,3.54,5.141,5.141,0,0,0,1.323,2.29A3.166,3.166,0,0,0,995.868,1603.54Z" fill="#605f6e"/>
    <rect id="Rectangle_150" data-name="Rectangle 150" width="85" height="3" transform="translate(921 1596)" fill="#605f6e"/>
    <path id="Path_2847" data-name="Path 2847" d="M1239.59,1513.52v-10h-3.09v-1.92h8.32v1.92h-3.04v10Z" fill="#605f6e"/>
    <path id="Path_2848" data-name="Path 2848" d="M1245.02,1513.52v-8.7h1.97v1.93l-.16-.29a2.279,2.279,0,0,1,.94-1.36,3.119,3.119,0,0,1,1.57-.38h.51v1.86h-.75a1.884,1.884,0,0,0-1.44.56,2.074,2.074,0,0,0-.55,1.53v4.85Z" fill="#605f6e"/>
    <path id="Path_2849" data-name="Path 2849" d="M1253.64,1513.71a3.873,3.873,0,0,1-1.58-.3,2.3,2.3,0,0,1-1.41-2.19,2.56,2.56,0,0,1,.32-1.28,2.479,2.479,0,0,1,.99-.96,5,5,0,0,1,1.7-.55l2.85-.46v1.6l-2.45.41a1.829,1.829,0,0,0-.93.4,1.025,1.025,0,0,0-.3.76.91.91,0,0,0,.33.72,1.463,1.463,0,0,0,.87.25,2.382,2.382,0,0,0,1.15-.27,1.951,1.951,0,0,0,.78-.78,2.1,2.1,0,0,0,.29-1.09v-2.24a1.137,1.137,0,0,0-.45-.93,1.631,1.631,0,0,0-1.15-.38,2.047,2.047,0,0,0-1.95,1.31l-1.71-.83a2.919,2.919,0,0,1,.8-1.19,4.046,4.046,0,0,1,1.31-.8,4.539,4.539,0,0,1,1.63-.29,4.311,4.311,0,0,1,1.89.4,2.988,2.988,0,0,1,1.26,1.09,2.833,2.833,0,0,1,.47,1.62v5.79h-1.99v-1.49l.45-.03a3.5,3.5,0,0,1-.8.94,3.58,3.58,0,0,1-1.05.58A4.253,4.253,0,0,1,1253.64,1513.71Z" fill="#605f6e"/>
    <path id="Path_2850" data-name="Path 2850" d="M1264.33,1513.71a4.342,4.342,0,0,1-2.25-.59,4.443,4.443,0,0,1-1.57-1.65,4.87,4.87,0,0,1,0-4.61,4.463,4.463,0,0,1,1.57-1.63,4.3,4.3,0,0,1,2.24-.61,3.865,3.865,0,0,1,1.76.4,3.028,3.028,0,0,1,1.23,1.09l-.32.43v-5.13h2.09v12.11h-1.98v-1.68l.22.42a2.91,2.91,0,0,1-1.24,1.08A4.1,4.1,0,0,1,1264.33,1513.71Zm.23-1.92a2.263,2.263,0,0,0,2.11-1.26,3.029,3.029,0,0,0,0-2.71,2.281,2.281,0,0,0-.85-.94,2.373,2.373,0,0,0-1.26-.34,2.321,2.321,0,0,0-1.27.36,2.434,2.434,0,0,0-.88.92,2.918,2.918,0,0,0-.3,1.35,2.989,2.989,0,0,0,.3,1.36,2.536,2.536,0,0,0,.88.93A2.479,2.479,0,0,0,1264.56,1511.79Z" fill="#605f6e"/>
    <path id="Path_2851" data-name="Path 2851" d="M1275.16,1513.71a4.425,4.425,0,0,1-2.35-.61,4.267,4.267,0,0,1-1.57-1.64,4.869,4.869,0,0,1-.56-2.31,4.741,4.741,0,0,1,.56-2.32,4.359,4.359,0,0,1,1.55-1.61,4.213,4.213,0,0,1,2.21-.6,4.465,4.465,0,0,1,1.79.34,3.631,3.631,0,0,1,1.33.93,3.954,3.954,0,0,1,.83,1.36,4.332,4.332,0,0,1,.29,1.63,3.666,3.666,0,0,1-.03.46,1.649,1.649,0,0,1-.08.42h-7.33v-1.6h5.2V1508s.02-.02-.13-.4a1.764,1.764,0,0,0-.7-.91,1.95,1.95,0,0,0-1.17-.34,2.081,2.081,0,0,0-1.17.34,1.986,1.986,0,0,0-.78.96,3.394,3.394,0,0,0-.19,1.52,2.959,2.959,0,0,0,.21,1.42,2.2,2.2,0,0,0,.83.95,2.465,2.465,0,0,0,1.28.33,2.285,2.285,0,0,0,1.21-.3,2.168,2.168,0,0,0,.8-.82l1.7.83a2.974,2.974,0,0,1-.8,1.11,3.857,3.857,0,0,1-1.3.75A4.683,4.683,0,0,1,1275.16,1513.71Z" fill="#605f6e"/>
    <path id="Path_2852" data-name="Path 2852" d="M1281.26,1510.1v-1.84h6.8v1.84Z" fill="#605f6e"/>
    <path id="Path_2853" data-name="Path 2853" d="M1290.42,1513.52v-8.7h2.1v8.7Zm0-9.68v-2.24h2.1v2.24Z" fill="#605f6e"/>
    <path id="Path_2854" data-name="Path 2854" d="M1294.46,1513.52v-8.7h1.96v1.71l-.16-.31a2.329,2.329,0,0,1,1-1.18,3.115,3.115,0,0,1,1.63-.42,3.336,3.336,0,0,1,1.69.42,2.927,2.927,0,0,1,1.17,1.17,3.386,3.386,0,0,1,.42,1.71v5.6h-2.1v-5.1a2.079,2.079,0,0,0-.22-1,1.616,1.616,0,0,0-.63-.64,1.668,1.668,0,0,0-.91-.24,1.742,1.742,0,0,0-.91.24,1.592,1.592,0,0,0-.62.64,2.08,2.08,0,0,0-.23,1v5.1Z" fill="#605f6e"/>
    <path id="Path_2855" data-name="Path 2855" d="M918.952,1578.71a5.959,5.959,0,0,1-2.368-.46,5.84,5.84,0,0,1-1.888-1.3,5.916,5.916,0,0,1-1.248-1.95,6.531,6.531,0,0,1-.448-2.45,6.791,6.791,0,0,1,.432-2.45,5.915,5.915,0,0,1,1.248-1.95,5.746,5.746,0,0,1,1.9-1.28,5.961,5.961,0,0,1,2.368-.46,5.725,5.725,0,0,1,2.288.43,5.239,5.239,0,0,1,1.728,1.15,4.236,4.236,0,0,1,1.008,1.55l-1.952.92a3.186,3.186,0,0,0-3.072-2.07,3.745,3.745,0,0,0-1.984.53,3.645,3.645,0,0,0-1.328,1.46,4.767,4.767,0,0,0-.464,2.17,4.914,4.914,0,0,0,.464,2.19,3.645,3.645,0,0,0,1.328,1.46,3.745,3.745,0,0,0,1.984.53,3.151,3.151,0,0,0,3.072-2.07l1.952.92a4.355,4.355,0,0,1-1.008,1.56,5.376,5.376,0,0,1-1.728,1.14A5.725,5.725,0,0,1,918.952,1578.71Z" fill="#605f6e"/>
    <path id="Path_2856" data-name="Path 2856" d="M929.666,1578.71a4.743,4.743,0,0,1-2.336-.59,4.559,4.559,0,0,1-1.664-1.62,4.788,4.788,0,0,1,0-4.67,4.532,4.532,0,0,1,1.664-1.61,4.816,4.816,0,0,1,4.656,0,4.4,4.4,0,0,1,1.648,1.61,4.681,4.681,0,0,1,0,4.67,4.551,4.551,0,0,1-1.664,1.62A4.62,4.62,0,0,1,929.666,1578.71Zm0-1.92a2.274,2.274,0,0,0,1.232-.33,2.37,2.37,0,0,0,.848-.93,2.883,2.883,0,0,0,.32-1.36,2.76,2.76,0,0,0-.32-1.35,2.278,2.278,0,0,0-.848-.92,2.132,2.132,0,0,0-1.232-.36,2.238,2.238,0,0,0-1.264.36,2.409,2.409,0,0,0-.864.92,2.9,2.9,0,0,0-.3,1.35,3.025,3.025,0,0,0,.3,1.36,2.511,2.511,0,0,0,.864.93A2.389,2.389,0,0,0,929.666,1576.79Z" fill="#605f6e"/>
    <path id="Path_2857" data-name="Path 2857" d="M935.848,1578.52v-8.7h1.968v2.01l-.224-.33a2.263,2.263,0,0,1,.96-1.41,3.059,3.059,0,0,1,1.7-.47,3.279,3.279,0,0,1,1.888.56,2.553,2.553,0,0,1,1.056,1.48l-.592.04a3.091,3.091,0,0,1,1.2-1.55,3.281,3.281,0,0,1,1.84-.53,3.209,3.209,0,0,1,1.648.42,2.985,2.985,0,0,1,1.152,1.17,3.416,3.416,0,0,1,.416,1.71v5.6h-2.1v-5.1a2.217,2.217,0,0,0-.208-1,1.583,1.583,0,0,0-.576-.64,1.6,1.6,0,0,0-.9-.24,1.624,1.624,0,0,0-.88.24,1.545,1.545,0,0,0-.592.64,2.217,2.217,0,0,0-.208,1v5.1h-2.1v-5.1a2.217,2.217,0,0,0-.208-1,1.545,1.545,0,0,0-.592-.64,1.575,1.575,0,0,0-.88-.24,1.624,1.624,0,0,0-.88.24,1.545,1.545,0,0,0-.592.64,2.217,2.217,0,0,0-.208,1v5.1Z" fill="#605f6e"/>
    <path id="Path_2858" data-name="Path 2858" d="M950.629,1581.72v-11.9H952.6v1.72l-.192-.43a3.033,3.033,0,0,1,1.216-1.09,3.873,3.873,0,0,1,1.776-.4,4.22,4.22,0,0,1,2.224.61,4.482,4.482,0,0,1,1.568,1.63,4.54,4.54,0,0,1,.592,2.31,4.658,4.658,0,0,1-.576,2.3,4.461,4.461,0,0,1-1.568,1.65,4.358,4.358,0,0,1-2.256.59,4.054,4.054,0,0,1-1.744-.37,3.094,3.094,0,0,1-1.248-1.08l.336-.42v4.88Zm4.512-4.93a2.472,2.472,0,0,0,1.28-.33,2.344,2.344,0,0,0,.864-.93,2.839,2.839,0,0,0,.32-1.36,2.772,2.772,0,0,0-.32-1.35,2.255,2.255,0,0,0-.864-.92,2.315,2.315,0,0,0-1.28-.36,2.418,2.418,0,0,0-1.248.34,2.383,2.383,0,0,0-.864.94,3.172,3.172,0,0,0,0,2.71,2.5,2.5,0,0,0,.864.93A2.41,2.41,0,0,0,955.141,1576.79Z" fill="#605f6e"/>
    <path id="Path_2859" data-name="Path 2859" d="M965.507,1578.71a4.423,4.423,0,0,1-2.352-.61,4.2,4.2,0,0,1-1.568-1.64,4.835,4.835,0,0,1-.56-2.31,4.709,4.709,0,0,1,.56-2.32,4.311,4.311,0,0,1,1.552-1.61,4.182,4.182,0,0,1,2.208-.6,4.506,4.506,0,0,1,1.792.34,3.708,3.708,0,0,1,1.328.93,4.1,4.1,0,0,1,.832,1.36,4.5,4.5,0,0,1,.288,1.63,3.5,3.5,0,0,1-.032.46,1.566,1.566,0,0,1-.08.42h-6.72v-1.6h5.536l-.992.75a2.326,2.326,0,0,0-.08-1.31,1.814,1.814,0,0,0-.7-.91,1.945,1.945,0,0,0-1.168-.34,2.038,2.038,0,0,0-1.168.34,1.993,1.993,0,0,0-.784.96,3.337,3.337,0,0,0-.192,1.52,2.91,2.91,0,0,0,.208,1.42,2.2,2.2,0,0,0,.832.95,2.473,2.473,0,0,0,1.28.33,2.31,2.31,0,0,0,1.216-.3,2.253,2.253,0,0,0,.8-.82l1.7.83a2.951,2.951,0,0,1-.8,1.11,3.958,3.958,0,0,1-1.3.75A4.71,4.71,0,0,1,965.507,1578.71Z" fill="#605f6e"/>
    <path id="Path_2860" data-name="Path 2860" d="M975.144,1578.62a2.792,2.792,0,0,1-3.088-3.09v-3.84h-1.5v-1.87h.16a1.4,1.4,0,0,0,.992-.34,1.283,1.283,0,0,0,.352-.98v-.67h2.1v1.99h2v1.87h-2v3.73a1.7,1.7,0,0,0,.144.73,1.112,1.112,0,0,0,.48.47,2.078,2.078,0,0,0,.848.16c.075,0,.16-.01.256-.02l.3-.03v1.79q-.224.03-.512.06C975.48,1578.6,975.3,1578.62,975.144,1578.62Z" fill="#605f6e"/>
    <path id="Path_2861" data-name="Path 2861" d="M977.785,1578.52v-8.7h2.1v8.7Zm0-9.68v-2.24h2.1v2.24Z" fill="#605f6e"/>
    <path id="Path_2862" data-name="Path 2862" d="M985.785,1578.62a2.792,2.792,0,0,1-3.088-3.09v-3.84h-1.5v-1.87h.16a1.4,1.4,0,0,0,.992-.34,1.287,1.287,0,0,0,.352-.98v-.67h2.1v1.99h2v1.87h-2v3.73a1.7,1.7,0,0,0,.144.73,1.1,1.1,0,0,0,.48.47,2.075,2.075,0,0,0,.848.16c.074,0,.16-.01.256-.02l.3-.03v1.79c-.15.02-.32.04-.512.06S985.945,1578.62,985.785,1578.62Z" fill="#605f6e"/>
    <path id="Path_2863" data-name="Path 2863" d="M992.6,1578.71a4.743,4.743,0,0,1-2.336-.59,4.559,4.559,0,0,1-1.664-1.62,4.788,4.788,0,0,1,0-4.67,4.532,4.532,0,0,1,1.664-1.61,4.816,4.816,0,0,1,4.656,0,4.407,4.407,0,0,1,1.648,1.61,4.681,4.681,0,0,1,0,4.67,4.559,4.559,0,0,1-1.664,1.62A4.62,4.62,0,0,1,992.6,1578.71Zm0-1.92a2.276,2.276,0,0,0,1.232-.33,2.378,2.378,0,0,0,.848-.93,2.9,2.9,0,0,0,.32-1.36,2.773,2.773,0,0,0-.32-1.35,2.285,2.285,0,0,0-.848-.92,2.135,2.135,0,0,0-1.232-.36,2.238,2.238,0,0,0-1.264.36,2.394,2.394,0,0,0-.864.92,2.883,2.883,0,0,0-.3,1.35,3.012,3.012,0,0,0,.3,1.36,2.5,2.5,0,0,0,.864.93A2.389,2.389,0,0,0,992.6,1576.79Z" fill="#605f6e"/>
    <path id="Path_2864" data-name="Path 2864" d="M998.785,1578.52v-8.7h1.965v1.93l-.16-.29a2.332,2.332,0,0,1,.95-1.36,3.093,3.093,0,0,1,1.57-.38h.51v1.86h-.75a1.884,1.884,0,0,0-1.44.56,2.034,2.034,0,0,0-.55,1.53v4.85Z" fill="#605f6e"/>
    <path id="Path_2865" data-name="Path 2865" d="M1361.87,1561.41a20.148,20.148,0,0,1,20.13,20.17v23.66a20.148,20.148,0,0,1-20.13,20.17h-94.28a20.048,20.048,0,0,1-12.59-4.43,20,20,0,0,1-12.58,4.43H1237a10.465,10.465,0,0,0,10.45-10.48v-33.35a20.157,20.157,0,0,1,20.14-20.17Z" fill="#eeeef1"/>
    <path id="Path_2866" data-name="Path 2866" d="M1265.85,1607.82a5.2,5.2,0,0,1-2.26-.48,5.123,5.123,0,0,1-1.65-1.28,4.974,4.974,0,0,1-.94-1.71l1.02-.38a4.313,4.313,0,0,0,1.47,2.09,3.881,3.881,0,0,0,2.35.72,3.666,3.666,0,0,0,1.57-.31,2.543,2.543,0,0,0,1.07-.86,2.227,2.227,0,0,0,.39-1.31,2.156,2.156,0,0,0-.58-1.62,3.3,3.3,0,0,0-1.48-.83l-2.4-.72a4.018,4.018,0,0,1-2.17-1.38,3.71,3.71,0,0,1-.69-2.2,3.408,3.408,0,0,1,.49-1.85,3.5,3.5,0,0,1,1.38-1.26,4.165,4.165,0,0,1,1.96-.45,4.762,4.762,0,0,1,3.58,1.6,4.2,4.2,0,0,1,.9,1.57l-1.01.37a3.636,3.636,0,0,0-1.36-1.87,3.549,3.549,0,0,0-2.1-.64,3.151,3.151,0,0,0-1.39.3,2.33,2.33,0,0,0-1.32,2.18,2.438,2.438,0,0,0,.51,1.56,3.357,3.357,0,0,0,1.71,1.03l2.15.65a4.374,4.374,0,0,1,2.17,1.33,3.16,3.16,0,0,1,.78,2.17,3.391,3.391,0,0,1-.53,1.88,3.727,3.727,0,0,1-1.48,1.25A4.906,4.906,0,0,1,1265.85,1607.82Zm-.61,1.59v-17h1.02v17Z" fill="#605f6e"/>
    <path id="Path_2867" data-name="Path 2867" d="M1239.35,1535.82a5.2,5.2,0,0,1-2.26-.48,5.123,5.123,0,0,1-1.65-1.28,4.974,4.974,0,0,1-.94-1.71l1.02-.38a4.313,4.313,0,0,0,1.47,2.09,3.881,3.881,0,0,0,2.35.72,3.666,3.666,0,0,0,1.57-.31,2.543,2.543,0,0,0,1.07-.86,2.227,2.227,0,0,0,.39-1.31,2.156,2.156,0,0,0-.58-1.62,3.3,3.3,0,0,0-1.48-.83l-2.4-.72a4.018,4.018,0,0,1-2.17-1.38,3.71,3.71,0,0,1-.69-2.2,3.408,3.408,0,0,1,.49-1.85,3.5,3.5,0,0,1,1.38-1.26,4.165,4.165,0,0,1,1.96-.45,4.762,4.762,0,0,1,3.58,1.6,4.2,4.2,0,0,1,.9,1.57l-1.01.37a3.636,3.636,0,0,0-1.36-1.87,3.549,3.549,0,0,0-2.1-.64,3.151,3.151,0,0,0-1.39.3,2.33,2.33,0,0,0-1.32,2.18,2.438,2.438,0,0,0,.51,1.56,3.357,3.357,0,0,0,1.71,1.03l2.15.65a4.374,4.374,0,0,1,2.17,1.33,3.16,3.16,0,0,1,.78,2.17,3.391,3.391,0,0,1-.53,1.88,3.727,3.727,0,0,1-1.48,1.25A4.906,4.906,0,0,1,1239.35,1535.82Zm-.61,1.59v-17h1.02v17Z" fill="#605f6e"/>
    <path id="Path_2868" data-name="Path 2868" d="M1276.59,1613v-16.58h-3.91v-3.53h8.1V1613Z" fill="#605f6e"/>
    <path id="Path_2869" data-name="Path 2869" d="M1292.6,1613.32a7.156,7.156,0,0,1-4.23-1.29,8.554,8.554,0,0,1-2.84-3.65,13.55,13.55,0,0,1-1.03-5.45,13.771,13.771,0,0,1,1-5.45,8.6,8.6,0,0,1,2.84-3.62,7.6,7.6,0,0,1,8.5,0,8.3,8.3,0,0,1,2.84,3.64,15.018,15.018,0,0,1,0,10.88,8.507,8.507,0,0,1-2.84,3.65A7.1,7.1,0,0,1,1292.6,1613.32Zm.03-3.78a3.043,3.043,0,0,0,2.11-.78,5.042,5.042,0,0,0,1.32-2.27,11.977,11.977,0,0,0,.46-3.56,11.746,11.746,0,0,0-.46-3.54,4.952,4.952,0,0,0-1.35-2.27,3.076,3.076,0,0,0-2.13-.78,3.043,3.043,0,0,0-2.11.78,5.007,5.007,0,0,0-1.32,2.27,11.742,11.742,0,0,0-.46,3.54,11.924,11.924,0,0,0,.46,3.54,5.138,5.138,0,0,0,1.32,2.29A3.187,3.187,0,0,0,1292.63,1609.54Z" fill="#605f6e"/>
    <path id="Path_2870" data-name="Path 2870" d="M1305.03,1617.46v-2.03a2.945,2.945,0,0,0,1.54-.84,2.882,2.882,0,0,0,.81-1.59h-1.81v-4.05h4.05v2.35a6.786,6.786,0,0,1-1.16,4.13A5.471,5.471,0,0,1,1305.03,1617.46Z" fill="#605f6e"/>
    <path id="Path_2871" data-name="Path 2871" d="M1320.44,1613.32a8.149,8.149,0,0,1-3.08-.59,7.4,7.4,0,0,1-2.54-1.73,5.443,5.443,0,0,1-1.37-2.7l3.7-1.24a3.418,3.418,0,0,0,1.29,1.89,3.5,3.5,0,0,0,2,.59,3.462,3.462,0,0,0,1.65-.37,2.88,2.88,0,0,0,1.08-1.11,3.384,3.384,0,0,0,.4-1.67,3.254,3.254,0,0,0-.4-1.65,2.674,2.674,0,0,0-1.08-1.08,3.256,3.256,0,0,0-1.65-.41,3.424,3.424,0,0,0-1.73.44,2.462,2.462,0,0,0-1.11,1.26l-3.42-.81,1.62-11.25h11.23v3.51h-9.53l1.56-1.89-1.1,8.37-1.14-1a4.18,4.18,0,0,1,1.7-1.62,6.042,6.042,0,0,1,2.7-.52,6.721,6.721,0,0,1,3.49.87,5.749,5.749,0,0,1,2.24,2.32,7.1,7.1,0,0,1,.81,3.46,6.686,6.686,0,0,1-.98,3.56,6.862,6.862,0,0,1-2.59,2.48A7.7,7.7,0,0,1,1320.44,1613.32Z" fill="#605f6e"/>
    <path id="Path_2872" data-name="Path 2872" d="M1338.51,1613.32a7.187,7.187,0,0,1-4.24-1.29,8.536,8.536,0,0,1-2.83-3.65,13.384,13.384,0,0,1-1.03-5.45,13.6,13.6,0,0,1,1-5.45,8.578,8.578,0,0,1,2.83-3.62,7.614,7.614,0,0,1,8.51,0,8.282,8.282,0,0,1,2.83,3.64,14.88,14.88,0,0,1,0,10.88,8.487,8.487,0,0,1-2.83,3.65A7.122,7.122,0,0,1,1338.51,1613.32Zm.03-3.78a3.019,3.019,0,0,0,2.1-.78,4.964,4.964,0,0,0,1.33-2.27,12.335,12.335,0,0,0,.45-3.56,12.1,12.1,0,0,0-.45-3.54,4.952,4.952,0,0,0-1.35-2.27,3.084,3.084,0,0,0-2.14-.78,3,3,0,0,0-2.1.78,5.018,5.018,0,0,0-1.33,2.27,12.069,12.069,0,0,0-.46,3.54,12.261,12.261,0,0,0,.46,3.54,5.149,5.149,0,0,0,1.33,2.29A3.151,3.151,0,0,0,1338.54,1609.54Z" fill="#605f6e"/>
    <path id="Path_2873" data-name="Path 2873" d="M1357.41,1613.32a7.156,7.156,0,0,1-4.23-1.29,8.554,8.554,0,0,1-2.84-3.65,13.552,13.552,0,0,1-1.03-5.45,13.771,13.771,0,0,1,1-5.45,8.6,8.6,0,0,1,2.84-3.62,7.6,7.6,0,0,1,8.5,0,8.3,8.3,0,0,1,2.84,3.64,15.016,15.016,0,0,1,0,10.88,8.507,8.507,0,0,1-2.84,3.65A7.1,7.1,0,0,1,1357.41,1613.32Zm.03-3.78a3.044,3.044,0,0,0,2.11-.78,5.042,5.042,0,0,0,1.32-2.27,11.973,11.973,0,0,0,.46-3.56,11.743,11.743,0,0,0-.46-3.54,4.952,4.952,0,0,0-1.35-2.27,3.076,3.076,0,0,0-2.13-.78,3.043,3.043,0,0,0-2.11.78,5.007,5.007,0,0,0-1.32,2.27,11.746,11.746,0,0,0-.46,3.54,11.928,11.928,0,0,0,.46,3.54,5.138,5.138,0,0,0,1.32,2.29A3.187,3.187,0,0,0,1357.44,1609.54Z" fill="#605f6e"/>
    <rect id="Rectangle_151" data-name="Rectangle 151" width="96" height="3" transform="translate(1271 1603)" fill="#605f6e"/>
    <path id="Path_2874" data-name="Path 2874" d="M1250.09,1541.41v-16.58h-3.91v-3.54h8.1v20.12Z" fill="#605f6e"/>
    <path id="Path_2875" data-name="Path 2875" d="M1266.1,1541.73a7.156,7.156,0,0,1-4.23-1.29,8.553,8.553,0,0,1-2.84-3.65,13.585,13.585,0,0,1-1.03-5.45,13.856,13.856,0,0,1,1-5.46,8.659,8.659,0,0,1,2.84-3.62,7.646,7.646,0,0,1,8.5,0,8.332,8.332,0,0,1,2.84,3.65,13.421,13.421,0,0,1,1.02,5.43,13.589,13.589,0,0,1-1.02,5.45,8.567,8.567,0,0,1-2.84,3.65A7.1,7.1,0,0,1,1266.1,1541.73Zm.03-3.78a3.044,3.044,0,0,0,2.11-.78,5.042,5.042,0,0,0,1.32-2.27,12.024,12.024,0,0,0,.46-3.56,11.746,11.746,0,0,0-.46-3.54,4.9,4.9,0,0,0-1.35-2.27,3.076,3.076,0,0,0-2.13-.78,3.043,3.043,0,0,0-2.11.78,4.954,4.954,0,0,0-1.32,2.27,11.741,11.741,0,0,0-.46,3.54,11.9,11.9,0,0,0,.46,3.53,5.177,5.177,0,0,0,1.32,2.3A3.188,3.188,0,0,0,1266.13,1537.95Z" fill="#605f6e"/>
    <path id="Path_2876" data-name="Path 2876" d="M1278.53,1545.86v-2.02a3.091,3.091,0,0,0,1.54-.84,2.952,2.952,0,0,0,.81-1.59h-1.81v-4.05h4.05v2.35a6.806,6.806,0,0,1-1.16,4.13A5.416,5.416,0,0,1,1278.53,1545.86Z" fill="#605f6e"/>
    <path id="Path_2877" data-name="Path 2877" d="M1294.51,1541.73a8.525,8.525,0,0,1-3.92-.84,6.013,6.013,0,0,1-2.48-2.24,5.662,5.662,0,0,1-.87-3.05,5.231,5.231,0,0,1,1.03-3.29,6.4,6.4,0,0,1,3.08-2l-.27,1.03a4.094,4.094,0,0,1-2.3-1.79,5.522,5.522,0,0,1-.83-2.99,5.1,5.1,0,0,1,.83-2.89,5.54,5.54,0,0,1,2.32-1.97,7.6,7.6,0,0,1,3.41-.73,7.4,7.4,0,0,1,3.37.73,5.48,5.48,0,0,1,2.32,1.97,4.977,4.977,0,0,1,.87,2.89,5.53,5.53,0,0,1-.84,2.99,4.052,4.052,0,0,1-2.29,1.81l-.25-1.08a6.964,6.964,0,0,1,3.08,2.08,5.05,5.05,0,0,1,1.05,3.27,5.537,5.537,0,0,1-.89,3.05,6.049,6.049,0,0,1-2.51,2.21A8.511,8.511,0,0,1,1294.51,1541.73Zm0-3.51a3.639,3.639,0,0,0,1.64-.35,2.66,2.66,0,0,0,1.49-2.4,2.46,2.46,0,0,0-.41-1.43,2.389,2.389,0,0,0-1.08-.95,3.639,3.639,0,0,0-1.64-.35,3.581,3.581,0,0,0-1.62.35,2.613,2.613,0,0,0-1.08.95,2.524,2.524,0,0,0-.38,1.43,2.638,2.638,0,0,0,.38,1.43,2.809,2.809,0,0,0,1.08.97A3.581,3.581,0,0,0,1294.51,1538.22Zm0-8.99a2.291,2.291,0,0,0,2.08-1.19,2.493,2.493,0,0,0,.29-1.19,2.544,2.544,0,0,0-.29-1.21,2.121,2.121,0,0,0-.84-.84,2.332,2.332,0,0,0-1.24-.32,2.446,2.446,0,0,0-1.25.32,2.1,2.1,0,0,0-.83.84,2.439,2.439,0,0,0-.3,1.21,2.39,2.39,0,0,0,.3,1.19,2.309,2.309,0,0,0,.83.87A2.447,2.447,0,0,0,1294.51,1529.23Z" fill="#605f6e"/>
    <path id="Path_2878" data-name="Path 2878" d="M1312.51,1541.73a7.208,7.208,0,0,1-4.24-1.29,8.612,8.612,0,0,1-2.83-3.65,13.417,13.417,0,0,1-1.03-5.45,13.68,13.68,0,0,1,1-5.46,8.639,8.639,0,0,1,2.83-3.62,7.662,7.662,0,0,1,8.51,0,8.313,8.313,0,0,1,2.83,3.65,13.25,13.25,0,0,1,1.03,5.43,13.415,13.415,0,0,1-1.03,5.45,8.546,8.546,0,0,1-2.83,3.65A7.122,7.122,0,0,1,1312.51,1541.73Zm.03-3.78a3,3,0,0,0,2.1-.78,4.964,4.964,0,0,0,1.33-2.27,12.359,12.359,0,0,0,.46-3.56,12.068,12.068,0,0,0-.46-3.54,4.9,4.9,0,0,0-1.35-2.27,3.084,3.084,0,0,0-2.14-.78,3.018,3.018,0,0,0-2.1.78,4.964,4.964,0,0,0-1.33,2.27,12.1,12.1,0,0,0-.45,3.54,12.262,12.262,0,0,0,.45,3.53,5.187,5.187,0,0,0,1.33,2.3A3.152,3.152,0,0,0,1312.54,1537.95Z" fill="#605f6e"/>
    <path id="Path_2879" data-name="Path 2879" d="M1331.42,1541.73a7.165,7.165,0,0,1-4.24-1.29,8.631,8.631,0,0,1-2.84-3.65,13.589,13.589,0,0,1-1.02-5.45,13.86,13.86,0,0,1,.99-5.46,8.658,8.658,0,0,1,2.84-3.62,7.646,7.646,0,0,1,8.5,0,8.332,8.332,0,0,1,2.84,3.65,13.417,13.417,0,0,1,1.03,5.43,13.585,13.585,0,0,1-1.03,5.45,8.567,8.567,0,0,1-2.84,3.65A7.07,7.07,0,0,1,1331.42,1541.73Zm.02-3.78a3.044,3.044,0,0,0,2.11-.78,4.955,4.955,0,0,0,1.32-2.27,12.02,12.02,0,0,0,.46-3.56,11.742,11.742,0,0,0-.46-3.54,4.74,4.74,0,0,0-1.35-2.27,3.271,3.271,0,0,0-4.24,0,5.042,5.042,0,0,0-1.32,2.27,11.746,11.746,0,0,0-.46,3.54,11.905,11.905,0,0,0,.46,3.53,5.272,5.272,0,0,0,1.32,2.3A3.187,3.187,0,0,0,1331.44,1537.95Z" fill="#605f6e"/>
    <path id="Path_2880" data-name="Path 2880" d="M1272.95,1584.71a6,6,0,0,1-2.37-.46,5.853,5.853,0,0,1-3.13-3.25,6.514,6.514,0,0,1-.45-2.45,6.748,6.748,0,0,1,.43-2.45,5.983,5.983,0,0,1,1.25-1.95,5.739,5.739,0,0,1,1.9-1.28,6,6,0,0,1,2.37-.46,5.7,5.7,0,0,1,2.29.43,5.289,5.289,0,0,1,1.73,1.15,4.32,4.32,0,0,1,1.01,1.55l-1.96.92a3.161,3.161,0,0,0-1.13-1.48,3.214,3.214,0,0,0-1.94-.59,3.734,3.734,0,0,0-1.98.53,3.614,3.614,0,0,0-1.33,1.46,4.754,4.754,0,0,0-.46,2.17,4.9,4.9,0,0,0,.46,2.19,3.614,3.614,0,0,0,1.33,1.46,3.734,3.734,0,0,0,1.98.53,3.136,3.136,0,0,0,3.07-2.07l1.96.92a4.443,4.443,0,0,1-1.01,1.56,5.428,5.428,0,0,1-1.73,1.14A5.7,5.7,0,0,1,1272.95,1584.71Z" fill="#605f6e"/>
    <path id="Path_2881" data-name="Path 2881" d="M1283.67,1584.71a4.729,4.729,0,0,1-2.34-.59,4.525,4.525,0,0,1-1.66-1.62,4.774,4.774,0,0,1,0-4.67,4.5,4.5,0,0,1,1.66-1.61,4.824,4.824,0,0,1,4.66,0,4.37,4.37,0,0,1,1.64,1.61,4.642,4.642,0,0,1,0,4.67,4.525,4.525,0,0,1-1.66,1.62A4.6,4.6,0,0,1,1283.67,1584.71Zm0-1.92a2.262,2.262,0,0,0,1.23-.33,2.46,2.46,0,0,0,.85-.93,2.933,2.933,0,0,0,.32-1.36,2.806,2.806,0,0,0-.32-1.35,2.361,2.361,0,0,0-.85-.92,2.121,2.121,0,0,0-1.23-.36,2.274,2.274,0,0,0-1.27.36,2.385,2.385,0,0,0-.86.92,2.92,2.92,0,0,0-.31,1.35,3.054,3.054,0,0,0,.31,1.36,2.485,2.485,0,0,0,.86.93A2.428,2.428,0,0,0,1283.67,1582.79Z" fill="#605f6e"/>
    <path id="Path_2882" data-name="Path 2882" d="M1289.85,1584.52v-8.7h1.97v2.01l-.23-.33a2.262,2.262,0,0,1,.96-1.41,3.075,3.075,0,0,1,1.7-.47,3.311,3.311,0,0,1,1.89.56,2.56,2.56,0,0,1,1.05,1.48l-.59.04a3.124,3.124,0,0,1,1.2-1.55,3.281,3.281,0,0,1,1.84-.53,3.214,3.214,0,0,1,1.65.42,3.007,3.007,0,0,1,1.15,1.17,3.386,3.386,0,0,1,.42,1.71v5.6h-2.1v-5.1a2.2,2.2,0,0,0-.21-1,1.614,1.614,0,0,0-.57-.64,1.77,1.77,0,0,0-1.78,0,1.521,1.521,0,0,0-.59.64,2.2,2.2,0,0,0-.21,1v5.1h-2.1v-5.1a2.345,2.345,0,0,0-.2-1,1.643,1.643,0,0,0-1.48-.88,1.637,1.637,0,0,0-.88.24,1.587,1.587,0,0,0-.59.64,2.2,2.2,0,0,0-.21,1v5.1Z" fill="#605f6e"/>
    <path id="Path_2883" data-name="Path 2883" d="M1304.63,1587.72v-11.9h1.97v1.72l-.19-.43a2.971,2.971,0,0,1,1.21-1.09,3.89,3.89,0,0,1,1.78-.4,4.206,4.206,0,0,1,2.22.61,4.462,4.462,0,0,1,1.57,1.63,4.589,4.589,0,0,1,.59,2.31,4.7,4.7,0,0,1-.57,2.3,4.522,4.522,0,0,1-1.57,1.65,4.378,4.378,0,0,1-2.26.59,4.024,4.024,0,0,1-1.74-.37,3.061,3.061,0,0,1-1.25-1.08l.34-.42v4.88Zm4.51-4.93a2.464,2.464,0,0,0,1.28-.33,2.433,2.433,0,0,0,.87-.93,2.874,2.874,0,0,0,.32-1.36,2.806,2.806,0,0,0-.32-1.35,2.338,2.338,0,0,0-.87-.92,2.308,2.308,0,0,0-1.28-.36,2.442,2.442,0,0,0-1.25.34,2.373,2.373,0,0,0-.86.94,3.21,3.21,0,0,0,0,2.71,2.485,2.485,0,0,0,.86.93A2.432,2.432,0,0,0,1309.14,1582.79Z" fill="#605f6e"/>
    <path id="Path_2884" data-name="Path 2884" d="M1319.51,1584.71a4.4,4.4,0,0,1-2.35-.61,4.127,4.127,0,0,1-1.57-1.64,4.755,4.755,0,0,1-.56-2.31,4.634,4.634,0,0,1,.56-2.32,4.283,4.283,0,0,1,1.55-1.61,4.189,4.189,0,0,1,2.21-.6,4.5,4.5,0,0,1,1.79.34,3.8,3.8,0,0,1,1.33.93,4.116,4.116,0,0,1,.83,1.36,4.541,4.541,0,0,1,.29,1.63,3.688,3.688,0,0,1-.03.46,2.24,2.24,0,0,1-.08.42h-6.72v-1.6h5.53l-.99.75a2.283,2.283,0,0,0-.08-1.31,1.818,1.818,0,0,0-.7-.91,1.949,1.949,0,0,0-1.17-.34,2.035,2.035,0,0,0-1.17.34,1.985,1.985,0,0,0-.78.96,3.252,3.252,0,0,0-.2,1.52,2.959,2.959,0,0,0,.21,1.42,2.2,2.2,0,0,0,.83.95,2.491,2.491,0,0,0,1.28.33,2.322,2.322,0,0,0,1.22-.3,2.246,2.246,0,0,0,.8-.82l1.7.83a3.087,3.087,0,0,1-.8,1.11,4.062,4.062,0,0,1-1.3.75A4.723,4.723,0,0,1,1319.51,1584.71Z" fill="#605f6e"/>
    <path id="Path_2885" data-name="Path 2885" d="M1329.14,1584.62a2.791,2.791,0,0,1-3.08-3.09v-3.84h-1.51v-1.87h.16a1.38,1.38,0,0,0,.99-.34,1.269,1.269,0,0,0,.36-.98v-.67h2.09v1.99h2v1.87h-2v3.73a1.638,1.638,0,0,0,.15.73,1.042,1.042,0,0,0,.48.47,2.027,2.027,0,0,0,.84.16c.08,0,.16-.01.26-.02l.3-.03v1.79q-.225.03-.51.06A5.313,5.313,0,0,1,1329.14,1584.62Z" fill="#605f6e"/>
    <path id="Path_2886" data-name="Path 2886" d="M1331.79,1584.52v-8.7h2.09v8.7Zm0-9.68v-2.24h2.09v2.24Z" fill="#605f6e"/>
    <path id="Path_2887" data-name="Path 2887" d="M1339.78,1584.62a2.791,2.791,0,0,1-3.08-3.09v-3.84h-1.51v-1.87h.16a1.38,1.38,0,0,0,.99-.34,1.269,1.269,0,0,0,.36-.98v-.67h2.09v1.99h2v1.87h-2v3.73a1.64,1.64,0,0,0,.15.73,1.042,1.042,0,0,0,.48.47,2.027,2.027,0,0,0,.84.16c.08,0,.16-.01.26-.02s.21-.02.3-.03v1.79c-.14.02-.32.04-.51.06S1339.94,1584.62,1339.78,1584.62Z" fill="#605f6e"/>
    <path id="Path_2888" data-name="Path 2888" d="M1346.6,1584.71a4.718,4.718,0,0,1-2.33-.59,4.584,4.584,0,0,1,4.65-7.9,4.581,4.581,0,0,1,1.65,6.28,4.525,4.525,0,0,1-1.66,1.62A4.643,4.643,0,0,1,1346.6,1584.71Zm0-1.92a2.321,2.321,0,0,0,1.24-.33,2.359,2.359,0,0,0,.84-.93,2.815,2.815,0,0,0,.32-1.36,2.7,2.7,0,0,0-.32-1.35,2.267,2.267,0,0,0-.84-.92,2.176,2.176,0,0,0-1.24-.36,2.218,2.218,0,0,0-1.26.36,2.385,2.385,0,0,0-.86.92,2.8,2.8,0,0,0-.31,1.35,2.927,2.927,0,0,0,.31,1.36,2.485,2.485,0,0,0,.86.93A2.367,2.367,0,0,0,1346.6,1582.79Z" fill="#605f6e"/>
    <path id="Path_2889" data-name="Path 2889" d="M1352.79,1584.52v-8.7h1.96v1.93l-.16-.29a2.332,2.332,0,0,1,.95-1.36,3.093,3.093,0,0,1,1.57-.38h.51v1.86h-.75a1.884,1.884,0,0,0-1.44.56,2.034,2.034,0,0,0-.55,1.53v4.85Z" fill="#605f6e"/>
    <path id="Path_2890" data-name="Path 2890" d="M844.213,1495.21h0a7.462,7.462,0,0,0,2.275.66v2.36H848.5v-2.33a7.188,7.188,0,0,0,2.405-.63v-.01a5.624,5.624,0,0,0,2.283-1.9h0a5.029,5.029,0,0,0,.822-2.84,4.8,4.8,0,0,0-1.206-3.32,6.789,6.789,0,0,0-3.314-1.99h0l-.991-.3v-7.27a4.611,4.611,0,0,1,1.428.68h0a5.076,5.076,0,0,1,1.907,2.58l.086.24.235-.09,1.482-.54.224-.09-.071-.22a6.171,6.171,0,0,0-1.379-2.36,6.934,6.934,0,0,0-2.341-1.72,6.363,6.363,0,0,0-1.573-.53v-2.43H846.49v2.3a6.28,6.28,0,0,0-2.542.66,5.444,5.444,0,0,0-2.124,1.91h0a5.137,5.137,0,0,0-.767,2.81,5.543,5.543,0,0,0,1.061,3.32h0l0,.01a6.186,6.186,0,0,0,3.328,2.09h0l1.041.3v7.28a5.183,5.183,0,0,1-2.178-.9,6.041,6.041,0,0,1-2.069-2.9l-.086-.23-.234.08-1.508.55-.225.08.071.23a7.386,7.386,0,0,0,1.426,2.55h0A7.7,7.7,0,0,0,844.213,1495.21Zm.816-17.37a4.289,4.289,0,0,1,1.461-.39v6.87l-.172-.05a4.85,4.85,0,0,1-2.4-1.4,3.226,3.226,0,0,1-.7-2.1,3.19,3.19,0,0,1,.48-1.77A3.294,3.294,0,0,1,845.029,1477.84Zm3.469,16.04v-6.73l.485.15h.006a4.469,4.469,0,0,1,2.072,1.13h0a2.878,2.878,0,0,1,.782,2.16,2.948,2.948,0,0,1-.526,1.76,3.5,3.5,0,0,1-1.482,1.16h0A4.9,4.9,0,0,1,848.5,1493.88Z" fill="#fff" stroke="#fff" stroke-width="0.5"/>
    <path id="Path_2891" data-name="Path 2891" d="M912.484,1601.56h0a4.758,4.758,0,0,0,1.5.45v1.65h1.524v-1.62a4.853,4.853,0,0,0,1.588-.44h0a3.943,3.943,0,0,0,1.58-1.35h0a3.568,3.568,0,0,0,.57-2.01,3.44,3.44,0,0,0-.837-2.34,4.738,4.738,0,0,0-2.287-1.4h0l-.616-.19v-4.87a3.118,3.118,0,0,1,.841.43h0a3.4,3.4,0,0,1,1.264,1.75l.086.24.238-.09,1.006-.38.22-.08-.069-.23a4.321,4.321,0,0,0-.952-1.65,4.721,4.721,0,0,0-1.613-1.21,4.445,4.445,0,0,0-1.024-.36v-1.7h-1.524v1.59a4.3,4.3,0,0,0-1.683.47,3.756,3.756,0,0,0-1.472,1.35h0a3.65,3.65,0,0,0-.532,1.98,3.949,3.949,0,0,0,.734,2.34h0l0,.01a4.245,4.245,0,0,0,2.3,1.47h0l.65.2v4.88a3.4,3.4,0,0,1-1.349-.59,4.151,4.151,0,0,1-1.377-1.97l-.086-.24-.236.09-1.024.38-.222.08.07.23a5.254,5.254,0,0,0,.981,1.79h0A5.285,5.285,0,0,0,912.484,1601.56Zm.627-12.01a2.5,2.5,0,0,1,.874-.26v4.56h-.011a3.213,3.213,0,0,1-1.59-.94,2.2,2.2,0,0,1-.458-1.41,2.122,2.122,0,0,1,.315-1.18A2.076,2.076,0,0,1,913.111,1589.55Zm2.4,10.93v-4.46l.225.07h.006a3.051,3.051,0,0,1,1.37.76h0l0,.01a1.913,1.913,0,0,1,.509,1.44,1.993,1.993,0,0,1-.344,1.17,2.3,2.3,0,0,1-.973.78h0A3.123,3.123,0,0,1,915.509,1600.48Z" fill="#605f6e" stroke="#605f6e" stroke-width="0.5"/>
    <path id="Path_2892" data-name="Path 2892" d="M1263.48,1607.56h.01a4.672,4.672,0,0,0,1.5.45v1.65h1.52v-1.62a4.935,4.935,0,0,0,1.59-.44h0a3.949,3.949,0,0,0,1.58-1.35h0a3.584,3.584,0,0,0,.57-2.01,3.447,3.447,0,0,0-.84-2.34,4.72,4.72,0,0,0-2.28-1.4h-.01l-.61-.19v-4.87a3.04,3.04,0,0,1,.84.43h0a3.411,3.411,0,0,1,1.27,1.75l.08.24.24-.09,1.01-.38.22-.08-.07-.23a4.421,4.421,0,0,0-.95-1.65,4.788,4.788,0,0,0-1.62-1.21,4.414,4.414,0,0,0-1.02-.36v-1.7h-1.52v1.59a4.292,4.292,0,0,0-1.69.47,3.819,3.819,0,0,0-1.47,1.35h0a3.623,3.623,0,0,0-.53,1.98,3.939,3.939,0,0,0,.73,2.34h0v.01a4.291,4.291,0,0,0,2.3,1.47h.01l.65.2v4.88a3.3,3.3,0,0,1-1.35-.59,4.108,4.108,0,0,1-1.38-1.97l-.09-.24-.23.09-1.03.38-.22.08.07.23a5.336,5.336,0,0,0,.98,1.79h0A5.482,5.482,0,0,0,1263.48,1607.56Zm.63-12.01a2.568,2.568,0,0,1,.88-.26v4.56h-.02a3.246,3.246,0,0,1-1.59-.94,2.2,2.2,0,0,1-.45-1.41,2.05,2.05,0,0,1,1.18-1.95Zm2.4,10.93v-4.46l.22.07h.01a3.03,3.03,0,0,1,1.37.76h0v.01a1.91,1.91,0,0,1,.51,1.44,2.042,2.042,0,0,1-.34,1.17,2.273,2.273,0,0,1-.98.78h0A3.161,3.161,0,0,1,1266.51,1606.48Z" fill="#605f6e" stroke="#605f6e" stroke-width="0.5"/>
    <path id="Path_2893" data-name="Path 2893" d="M1236.98,1535.56h.01a4.672,4.672,0,0,0,1.5.45v1.65h1.52v-1.62a4.935,4.935,0,0,0,1.59-.44h0a3.949,3.949,0,0,0,1.58-1.35h0a3.584,3.584,0,0,0,.57-2.01,3.447,3.447,0,0,0-.84-2.34,4.72,4.72,0,0,0-2.28-1.4h-.01l-.61-.19v-4.87a3.04,3.04,0,0,1,.84.43h0a3.411,3.411,0,0,1,1.27,1.75l.08.24.24-.09,1.01-.38.22-.08-.07-.23a4.421,4.421,0,0,0-.95-1.65,4.788,4.788,0,0,0-1.62-1.21,4.414,4.414,0,0,0-1.02-.36v-1.7h-1.52v1.59a4.292,4.292,0,0,0-1.69.47,3.819,3.819,0,0,0-1.47,1.35h0a3.623,3.623,0,0,0-.53,1.98,3.939,3.939,0,0,0,.73,2.34h0v.01a4.291,4.291,0,0,0,2.3,1.47h.01l.65.2v4.88a3.3,3.3,0,0,1-1.35-.59,4.108,4.108,0,0,1-1.38-1.97l-.09-.24-.23.09-1.03.38-.22.08.07.23a5.336,5.336,0,0,0,.98,1.79h0A5.482,5.482,0,0,0,1236.98,1535.56Zm.63-12.01a2.568,2.568,0,0,1,.88-.26v4.56h-.02a3.246,3.246,0,0,1-1.59-.94,2.2,2.2,0,0,1-.45-1.41,2.05,2.05,0,0,1,1.18-1.95Zm2.4,10.93v-4.46l.22.07h.01a3.03,3.03,0,0,1,1.37.76h0v.01a1.91,1.91,0,0,1,.51,1.44,2.042,2.042,0,0,1-.34,1.17,2.273,2.273,0,0,1-.98.78h0A3.161,3.161,0,0,1,1240.01,1534.48Z" fill="#605f6e" stroke="#605f6e" stroke-width="0.5"/>
    <rect id="Rectangle_152" data-name="Rectangle 152" width="96" height="3" transform="translate(1245 1530)" fill="#605f6e"/>
    <rect id="Rectangle_153" data-name="Rectangle 153" width="2" height="1.61" transform="translate(1271 1508.15)" fill="#605f6e"/>
  </g>
</svg>
