<svg width="160" height="161" viewBox="0 0 160 161" fill="none" xmlns="http://www.w3.org/2000/svg">
<circle cx="79.7021" cy="80.7969" r="64" fill="#FFF7E6"/>
<path d="M118.371 55.8828H50.9027L42.8867 63.8988L44.5567 89.2827L46.5607 94.9607H55.2447L63.2607 98.3007L102.005 96.6307L108.685 94.9607L121.043 96.6307L122.713 94.9607V72.9168L121.043 63.8988L118.371 55.8828Z" fill="#FFC000"/>
<path d="M48.5652 50.0666C48.0308 50.2002 44.4236 52.271 40.5492 54.5422C35.272 57.6818 32.4664 58.951 29.1932 59.5521C23.7156 60.5541 21.6448 61.6229 19.9749 64.3617C17.3029 68.7037 -0.198692 103.907 0.00170745 104.575C0.335707 105.577 2.7405 101.235 12.2929 82.2641C17.2361 72.5113 21.8453 64.0277 22.5132 63.2929C23.1144 62.6249 25.4524 61.6897 27.59 61.1553C31.3308 60.3538 31.4644 60.3538 30.1284 61.4225C29.3268 62.0237 27.7904 63.8941 26.7216 65.5641C23.9828 69.7057 17.5701 82.2641 18.0377 82.6649C18.4385 83.0657 22.4464 76.3189 25.4524 70.3737C28.1912 64.8961 31.264 62.0237 40.3488 56.4794C46.962 52.4046 48.8324 51.5362 49.3 52.271C50.7696 54.6758 49.2332 57.2142 41.952 64.5621C35.2052 71.2421 32.8004 75.7845 31.7316 83.6001C30.7964 90.7477 31.7316 96.0917 34.4704 99.0976C36.2072 101.035 36.4076 101.102 37.944 100.1C40.7496 98.2961 48.5652 96.2921 52.8404 96.2921C58.1844 96.2921 63.3947 98.0956 63.1275 99.8992C62.9939 100.834 61.4575 101.636 56.5812 103.239C45.3588 106.98 40.0148 110.454 27.8572 122.01C23.9828 125.751 19.8413 129.158 18.6389 129.625C16.2341 130.627 15.6997 132.03 18.0377 131.295C21.3109 130.293 23.4484 128.69 31.5312 121.142C41.2172 111.99 47.4296 107.982 57.4496 104.375C63.0607 102.371 64.3299 101.703 64.4635 100.434L64.6639 98.964H83.3011C98.999 98.964 101.938 99.0976 102.205 99.966C102.473 100.5 104.744 102.037 107.416 103.306C110.021 104.642 113.695 106.846 115.499 108.182C118.772 110.654 128.925 122.277 132.399 127.488C134.737 131.095 136.006 131.295 134.069 127.755C129.193 119.138 117.837 106.913 111.624 103.707C106.28 100.968 104.477 99.4316 104.811 97.9621C105.345 94.8225 115.098 95.2901 121.31 98.6968C125.786 101.168 127.055 100.901 127.99 97.3609C128.391 95.6909 128.725 91.4825 128.725 88.0089C128.725 81.5293 127.456 76.7865 123.448 68.1693C121.177 63.3597 120.175 59.1514 120.642 56.7466C121.377 53.1394 122.847 53.6738 125.786 58.6837C127.189 61.1553 129.794 64.8293 131.531 66.9001C133.535 69.1713 135.205 72.0437 136.073 74.5821C137.676 79.3249 141.15 85.6041 142.152 85.6041C142.553 85.6041 142.085 84.2013 141.083 82.3977C140.081 80.6609 138.545 77.2541 137.743 74.7825C136.875 72.3109 135.338 69.2381 134.403 67.9021L132.599 65.5641L135.939 66.9669C137.81 67.7685 139.947 69.0377 140.682 69.8393C141.484 70.6409 143.421 75.1833 145.024 79.8593C146.627 84.6021 148.297 88.7437 148.698 89.1445C149.767 90.2133 149.633 88.7437 148.431 85.8045C147.229 82.9989 147.229 82.7317 148.097 83.2661C149.299 84.0009 151.905 89.7457 153.107 94.2881C154.51 99.4316 159.586 110.854 159.987 109.652C160.121 109.251 159.186 106.379 157.916 103.44C156.58 100.434 154.777 95.4237 153.842 92.2841C152.706 88.4097 151.103 85.0697 148.965 81.9301C147.162 79.3249 145.225 75.8513 144.557 74.1145C142.753 69.3717 141.217 67.9021 135.205 65.0297C129.527 62.2241 129.326 62.0905 124.984 54.3418C124.249 52.939 123.047 51.8034 122.245 51.6698C120.976 51.4694 119.173 52.7386 118.571 54.0746C118.505 54.4086 103.274 54.8762 84.9043 55.1434L51.4376 55.611L51.2369 52.8745C50.9697 51.6721 50.302 50.7346 50.302 50.7346C50.302 50.7346 49.5672 49.7326 48.5652 50.0666ZM116.634 56.613C118.371 56.947 118.705 57.3478 118.705 58.951C118.705 59.9529 119.306 62.4245 119.974 64.3617C120.909 67.0337 121.377 70.5741 121.711 78.5901C121.911 84.4685 122.245 90.2133 122.446 91.2821C122.713 92.6849 122.446 93.8205 121.577 94.8225C120.509 96.0917 120.108 96.1585 117.302 95.4905L114.163 94.7557L114.296 77.1873C114.296 67.5681 114.163 59.4854 113.895 59.2181C113.227 58.5502 59.9209 58.2185 55.0448 58.4834L51.2369 58.5525L51.304 71.4425C51.304 78.3229 51.5712 86.2053 51.8384 88.9441C52.3728 94.3549 52.1056 95.0897 49.2332 94.8225C46.294 94.4885 45.8932 92.4845 45.8932 77.0537V62.7585L48.298 60.0197L50.636 57.2142L67.1355 56.8802C94.3899 56.279 114.43 56.2122 116.634 56.613ZM104.877 60.2201H112.693V76.5861V92.9521H97.5294C89.1127 92.9521 75.8195 93.1525 67.8703 93.4197L53.3748 93.8205L53.308 79.8593C53.2412 72.1773 52.974 64.7625 52.7736 63.2929C52.5064 61.4893 52.64 60.5541 53.308 60.0865C53.9092 59.6858 62.1923 59.6189 75.6191 59.8194C87.3759 60.0198 100.535 60.2201 104.877 60.2201ZM41.7516 71.6429C41.8852 75.8513 41.7516 76.3189 40.6828 76.0517C40.0816 75.8513 38.7456 75.5173 37.6768 75.3169C35.8732 74.9161 35.8732 74.8493 36.8084 72.9789C37.6768 71.3757 41.0836 66.9001 41.4844 66.9001C41.5512 66.9001 41.6848 69.0377 41.7516 71.6429ZM38.8792 76.9869C42.4864 77.9221 42.2192 78.6569 38.2112 79.2581C34.4704 79.8593 33.8692 79.5921 34.604 77.7217C35.272 75.9849 35.0716 76.0517 38.8792 76.9869ZM126.988 81.9301C127.589 84.0009 127.456 93.6201 126.921 93.6201C126.587 93.6201 125.853 93.1525 125.118 92.6181C124.116 91.8165 123.782 90.4805 123.515 85.3369L123.181 78.9909L124.917 79.7925C125.853 80.2601 126.788 81.1953 126.988 81.9301ZM40.2152 84.6689C40.95 84.9361 41.7516 85.4705 42.0188 85.8713C43.0208 87.3409 42.4864 87.6081 40.7496 86.6729C39.6808 86.2053 37.61 85.5373 36.0736 85.2701C34.4036 85.0029 33.2012 84.4685 33.2012 83.9341C33.2012 83.0657 37.0088 83.4665 40.2152 84.6689ZM38.0108 86.9401C42.0188 88.0757 41.6848 88.9441 37.276 88.9441C33.6688 88.9441 33.2012 88.8105 33.2012 87.6081C33.2012 86.0717 34.3368 85.9381 38.0108 86.9401ZM41.0836 95.3569L42.7536 96.4257L39.4804 98.0289C37.6768 98.8973 36.1404 99.632 36.0736 99.632C35.7396 99.632 34.3368 96.6929 33.8692 94.9561L33.3348 93.1525L36.4076 93.7537C38.0776 94.0209 40.2152 94.7557 41.0836 95.3569ZM103.875 95.3569C103.141 96.0917 61.6579 96.4257 59.9212 95.7577C58.7188 95.2233 64.7307 95.0229 81.2303 95.0229C93.8555 94.9561 104.076 95.0897 103.875 95.3569Z" fill="#356799"/>
<path fill-rule="evenodd" clip-rule="evenodd" d="M108.024 32.8206C108.037 33.4118 107.567 33.9249 106.975 33.9666C106.383 34.0084 105.892 33.5629 105.88 32.9718C105.839 31.0391 105.912 27.9686 106.265 25.0058C106.442 23.5245 106.691 22.047 107.04 20.7413C107.383 19.4578 107.847 18.2412 108.504 17.3547C108.864 16.8676 109.538 16.7463 110.007 17.0839C110.477 17.4215 110.565 18.09 110.204 18.5772C109.804 19.1176 109.429 20.0074 109.11 21.1991C108.798 22.3685 108.564 23.735 108.395 25.1561C108.056 27.9981 107.985 30.9657 108.024 32.8206ZM114.659 39.4158C115.181 39.6293 115.823 39.3582 116.093 38.8103C116.851 37.2737 120.518 32.953 128.7 30.2492C129.273 30.0598 129.633 29.455 129.504 28.8983C129.375 28.3416 128.806 28.0438 128.233 28.2332C119.615 31.0812 115.325 35.7653 114.205 38.0372C113.934 38.5851 114.138 39.2023 114.659 39.4158ZM116.482 43.6311C116.644 44.2638 117.294 44.6237 117.934 44.4348C119.417 43.9971 121.734 43.279 123.875 42.5441C124.945 42.1769 125.982 41.8019 126.853 41.4527C127.693 41.116 128.474 40.7667 128.967 40.4425C129.529 40.0731 129.705 39.3299 129.359 38.7826C129.013 38.2353 128.277 38.0911 127.715 38.4606C127.458 38.6297 126.893 38.8984 126.046 39.2381C125.229 39.5654 124.236 39.9252 123.186 40.2856C121.088 41.0059 118.806 41.7131 117.348 42.1435C116.708 42.3323 116.321 42.9984 116.482 43.6311Z" fill="#FFC000"/>
<path d="M101.671 71.5823L105.011 73.5863L105.345 73.9203L106.681 79.9323L105.679 83.2723L101.337 83.9403L96.6608 86.9463L92.6528 84.6083L77.2888 83.9403L72.6128 84.9423L68.6048 86.9463L64.9308 84.6083L60.9229 83.9403V78.9303L62.9268 75.2563L69.2728 71.2483L74.6168 66.2383L79.6268 65.5703L95.6588 66.9063L101.671 71.5823Z" fill="#FFEFC1"/>
<path d="M74.2828 66.0966C72.8133 66.8314 70.8761 68.2342 69.9409 69.2362C69.0057 70.2382 67.2021 71.5742 65.9329 72.2422C61.6577 74.4466 60.2549 76.5174 60.2549 80.7926V84.6002L62.5929 84.9342C63.8621 85.1346 65.7325 85.8026 66.7345 86.4706C68.7385 87.8734 71.9449 87.5394 73.3476 85.8694C73.9488 85.1346 76.0864 84.9342 83.1004 84.9342C91.1164 84.9342 92.252 85.0678 93.922 86.337C96.1932 88.007 99.6 87.6062 100.869 85.5354C101.337 84.7338 102.406 84.2662 103.675 84.2662C106.547 84.2662 107.349 83.1974 107.349 79.5234C107.349 74.1794 105.879 71.5742 102.873 71.5742C102.005 71.5742 100.736 70.639 99.6668 69.303C97.3288 66.2302 95.1244 65.5622 85.3048 65.1614C77.9568 64.8942 76.6208 64.961 74.2828 66.0966ZM79.2928 66.6978C78.7584 66.8982 77.4224 67.8334 76.2868 68.8354L74.2828 70.5722L76.22 68.3678C77.3556 67.2322 78.6916 66.2302 79.226 66.297C80.1612 66.297 80.1612 66.3638 79.2928 66.6978ZM73.2808 69.2362C72.0117 70.5054 70.6757 71.5742 70.3417 71.5742C69.6069 71.5074 74.4832 66.8982 75.218 66.8982C75.4184 66.8982 74.55 67.967 73.2808 69.2362ZM83.9688 69.9042V72.2422H79.4932H75.0844L76.6876 70.5054C78.4912 68.5682 80.228 67.6998 82.4992 67.633C83.7684 67.5662 83.9688 67.9002 83.9688 69.9042ZM93.9888 69.3698C95.3248 71.1066 95.3248 71.2402 94.1892 71.641C93.5212 71.9082 91.25 72.1754 89.1792 72.1754L85.3048 72.2422V69.9042V67.5662H88.912C92.0516 67.5662 92.7196 67.8334 93.9888 69.3698ZM101.604 72.5762C104.61 73.1774 105.011 73.4446 105.545 75.5154C106.013 77.319 105.879 77.9202 105.078 78.3878C104.476 78.7218 104.009 79.4566 104.009 79.9242C104.009 81.4606 102.005 81.0598 100.535 79.2562C98.7984 77.0518 95.258 76.985 93.1872 79.0558C91.9848 80.2582 90.916 80.5922 88.1772 80.5922H84.6368V77.0518C84.6368 74.4466 84.904 73.5782 85.6388 73.5782C86.24 73.5782 86.4404 73.979 86.24 74.5802C85.9728 75.1814 86.24 75.5822 86.8412 75.5822C88.1772 75.5822 88.912 74.4466 87.8432 74.0458C87.3756 73.9122 89.1792 73.5782 91.7844 73.311C94.4564 73.0438 96.594 72.643 96.594 72.3758C96.3936 71.2402 96.7276 70.8394 97.5292 71.3738C97.93 71.641 99.8004 72.2422 101.604 72.5762ZM74.8172 74.3798C74.6836 74.7138 75.3516 74.9142 76.2868 74.9142C77.2888 74.9142 77.89 74.647 77.6228 74.2462C77.3556 73.8454 78.4244 73.5782 80.228 73.5782C83.568 73.5782 83.8352 74.0458 82.9 78.8554C82.4992 80.9262 82.4324 80.9262 78.4912 80.9262C75.0176 80.9262 74.2828 80.7258 73.1472 79.2562C71.3437 76.9182 67.8033 76.985 65.5321 79.3898C64.6637 80.325 63.8621 80.993 63.7285 80.8594C63.5949 80.7258 63.1941 79.7906 62.7933 78.8554C62.1253 77.2522 62.2589 76.8514 63.8621 75.315C64.9309 74.2462 66.4673 73.5782 67.6697 73.5782C68.7385 73.5782 70.3417 73.1774 71.2769 72.7098C72.6129 72.0418 73.0805 72.0418 74.0156 72.9102C74.6168 73.4446 74.9508 74.1126 74.8172 74.3798ZM71.3437 79.5902C73.2808 80.659 73.0136 83.9322 70.9429 85.335C69.4065 86.337 69.1393 86.337 67.6029 85.335C66.4673 84.6002 65.9329 83.5982 65.9329 82.3958C65.9329 79.2562 68.3377 77.987 71.3437 79.5902ZM98.7316 79.5902C100.669 80.659 100.402 83.9322 98.3308 85.335C96.7944 86.337 96.5272 86.337 94.9908 85.335C93.8552 84.6002 93.3208 83.5982 93.3208 82.3958C93.3208 79.2562 95.7256 77.987 98.7316 79.5902ZM61.7245 81.0598C61.5241 81.5942 61.3237 81.3938 61.3237 80.659C61.2569 79.9242 61.4573 79.5234 61.6577 79.7906C61.8581 79.991 61.9249 80.5922 61.7245 81.0598ZM106.013 80.5922C106.013 81.1266 105.746 81.5942 105.345 81.5942C105.011 81.5942 104.877 81.1266 105.078 80.5922C105.345 80.0578 105.612 79.5902 105.746 79.5902C105.879 79.5902 106.013 80.0578 106.013 80.5922ZM64.5969 82.5962C64.5969 83.2642 63.9957 83.5982 62.7933 83.5314C61.1901 83.3978 61.1233 83.3978 62.4593 83.1306C63.2609 82.997 63.9289 82.5294 63.9289 82.1954C63.9289 81.8614 64.0625 81.5942 64.2629 81.5942C64.4633 81.5942 64.5969 82.0618 64.5969 82.5962ZM91.9848 82.5962C91.9848 83.4646 90.582 83.5982 83.3008 83.5982C71.8781 83.5982 71.7445 82.3958 83.1672 82.0618C87.8432 81.995 91.7176 81.7946 91.8512 81.7278C91.918 81.661 91.9848 82.0618 91.9848 82.5962ZM105.211 82.7298C104.543 82.8634 103.474 82.8634 102.873 82.7298C102.205 82.5294 102.74 82.3958 104.009 82.3958C105.278 82.3958 105.812 82.5294 105.211 82.7298Z" fill="#356799"/>
<path d="M68.004 81.2006C67.002 82.403 67.7368 84.2734 69.2732 84.2734C71.1436 84.2734 72.2792 82.4698 71.2772 81.2674C70.2084 79.9982 69.006 79.9982 68.004 81.2006Z" fill="#356799"/>
<path d="M95.3917 81.2006C94.3897 82.403 95.1245 84.2734 96.6609 84.2734C98.5313 84.2734 99.6669 82.4698 98.6649 81.2674C97.5961 79.9982 96.3937 79.9982 95.3917 81.2006Z" fill="#356799"/>
<circle cx="103" cy="51.5" r="12" fill="#0D4680"/>
<path d="M100.704 56.956L95.3633 51.7849L96.6985 50.4922L100.704 54.3704L109.301 46.0469L110.636 47.3396L100.704 56.956Z" fill="#FFC000"/>
</svg>
