<svg width="60" height="61" viewBox="0 0 60 61" fill="none" xmlns="http://www.w3.org/2000/svg">
<rect y="0.5" width="60" height="60" rx="30" fill="#C1ECFB"/>
<path d="M17.6445 38.5356C17.7691 38.6345 17.9182 38.6833 18.0665 38.6833C18.2657 38.6833 18.4628 38.5959 18.5969 38.4279C18.83 38.1352 18.7819 37.7092 18.4892 37.4761C17.9466 37.0439 17.421 36.5745 16.9278 36.0807L11.9164 31.0692L17.0843 25.9013C22.0524 20.9339 29.2796 19.2384 35.9425 21.4752C36.2968 21.5924 36.6809 21.4027 36.8008 21.0484C36.9193 20.6941 36.729 20.3094 36.374 20.1901C29.2193 17.7887 21.4603 19.6096 16.1264 24.9428L10 31.0692L15.9693 37.0385C16.4983 37.5683 17.0626 38.0716 17.6445 38.5356Z" fill="#356799"/>
<path d="M44.0307 24.9435C43.1176 24.0303 42.1164 23.2066 41.0542 22.494C40.744 22.286 40.3219 22.3687 40.114 22.6789C39.9053 22.9892 39.9887 23.4105 40.2989 23.6192C41.2879 24.2823 42.2214 25.0505 43.0722 25.9013L48.0836 30.9128L42.9157 36.0807C37.9131 41.0833 30.3749 42.7748 23.71 40.3863C23.3577 40.2596 22.9696 40.4432 22.8436 40.7954C22.7176 41.1477 22.9005 41.5351 23.2527 41.6618C25.4082 42.434 27.6491 42.8087 29.875 42.8087C35.0375 42.8087 40.1201 40.792 43.8736 37.0385L49.9993 30.9128L44.0307 24.9435Z" fill="#356799"/>
<path d="M30.6872 38.7957C29.2288 38.7957 27.8076 38.3906 26.5754 37.6238C26.259 37.4274 25.8411 37.5235 25.6426 37.8412C25.4448 38.159 25.5423 38.5762 25.86 38.774C27.3063 39.675 28.9761 40.1505 30.6872 40.1505C35.7298 40.1505 39.8322 36.0482 39.8322 31.0056C39.8322 29.1867 39.2991 27.4296 38.2911 25.9237C38.0824 25.6128 37.6611 25.5294 37.3515 25.7374C37.0406 25.946 36.9573 26.3667 37.1652 26.677C38.0235 27.9593 38.4774 29.4557 38.4774 31.0056C38.4774 35.3017 34.9826 38.7957 30.6872 38.7957Z" fill="#356799"/>
<path d="M30.6872 23.2154C32.0861 23.2154 33.4571 23.59 34.6534 24.2993C34.9745 24.4896 35.3904 24.384 35.5815 24.0615C35.7718 23.7397 35.6661 23.3245 35.3437 23.1335C33.9388 22.3009 32.3286 21.8606 30.6865 21.8606C25.644 21.8606 21.5416 25.963 21.5416 31.0056C21.5416 32.4173 21.8546 33.7714 22.4724 35.03C22.5902 35.2698 22.8307 35.4094 23.0813 35.4094C23.1809 35.4094 23.2832 35.387 23.3787 35.3403C23.7147 35.175 23.8536 34.7692 23.689 34.4339C23.1633 33.3623 22.8964 32.2093 22.8964 31.0062C22.8971 26.7102 26.3918 23.2154 30.6872 23.2154Z" fill="#356799"/>
<path d="M47.0005 14.269C46.7356 14.0041 46.3075 14.0041 46.0426 14.269L14.5433 45.7682C14.2785 46.0331 14.2785 46.4612 14.5433 46.7261C14.6754 46.8582 14.8489 46.9246 15.0223 46.9246C15.1957 46.9246 15.3691 46.8582 15.5012 46.7261L47.0005 15.2268C47.2653 14.9626 47.2653 14.5338 47.0005 14.269Z" fill="#356799"/>
</svg>
