<svg width="256" height="258" viewBox="0 0 256 258" fill="none" xmlns="http://www.w3.org/2000/svg">
<g clip-path="url(#clip0_1636_158767)">
<circle r="115" transform="matrix(-1 0 0 1 125 138.109)" fill="white"/>
<path d="M250.86 26.4564C262.502 56.0722 224.188 77.7182 195.361 70.4532C191.058 78.5691 179.872 71.3075 184.605 66.6088C183.528 66.4485 173.941 63.5996 175.14 62.3373C155.377 57.2407 148.468 -1.73784 195.361 -0.881389C221.411 -0.231466 233.733 5.36153 250.86 26.4564Z" fill="white"/>
<path d="M146.419 131.674C144.949 133.426 142.975 133.711 140.834 133.772C137.799 133.859 135.039 134.453 132.243 133.917C134.202 136.051 138.118 137.411 139.853 139.588C140.333 140.193 140.281 141.227 139.396 141.448C138.408 141.694 137.411 141.887 136.412 142.049C135.773 142.936 135.27 144.073 134.984 144.878C134.352 146.646 134.335 148.48 133.484 150.224C133.324 150.55 132.764 150.582 132.591 150.236C132.254 149.564 132.241 148.465 132.445 147.326C132.702 145.891 133.108 144.835 133.745 143.69C133.943 143.335 134.214 142.83 134.534 142.303C128.721 143.006 122.746 142.757 116.953 143.738C114.422 144.165 112.097 144.998 110.61 145.167C110.78 146.009 110.899 146.814 110.77 147.738C110.735 147.986 110.429 148.059 110.235 147.965C108.793 147.256 108.236 145.171 108.384 143.677C108.478 142.732 108.883 142.09 109.373 141.301C109.596 140.941 109.668 140.643 110.065 140.469C110.307 140.365 110.553 140.656 110.489 140.886C110.321 141.491 110.262 142.088 110.267 142.69C110.289 142.687 110.3 142.685 110.325 142.682C110.892 142.632 111.408 142.373 111.945 142.252C114.103 141.757 115.861 141.33 118.753 140.906C121.345 140.522 123.915 140.172 126.532 140.051C129.838 139.897 133.509 140.09 136.911 139.617C134.878 137.654 132.212 136.069 130.349 133.96C130.139 133.724 129.89 133.361 129.889 133.048C129.741 132.68 130.16 132.03 130.556 132.085C133.298 132.484 136.17 132.374 138.922 132.033C140.62 131.972 143.302 132.289 144.104 130.903C143.493 129.281 141.715 126.914 140.128 124.803C137.597 121.434 136.637 119.846 134.465 116.216C132.04 112.163 130.362 107.463 128.736 103.03C126.867 97.9376 124.68 93.6553 124.638 88.1255C124.599 82.7706 129.652 74.9742 135.342 74.0549C138.245 73.5852 140.53 73.6649 143.329 74.7732C144.305 75.1621 145.534 76.0421 146.515 76.9007C146.811 77.1599 146.857 78.0245 146.107 77.4834C144.777 76.5249 143.128 75.8542 141.97 75.5902C133.952 73.7683 127.536 82.6457 127.613 89.8237C127.659 93.8777 129.809 96.6093 131.016 100.312C132.264 104.143 133.864 107.814 135.43 111.519C137.083 115.427 139.657 118.904 141.585 122.674C142.972 125.384 145.167 127.452 146.595 130.117C146.883 130.656 146.806 131.214 146.419 131.674Z" fill="#155698"/>
<path d="M88.608 91.1494C86.7248 90.7178 86.2375 90.4871 85.2298 88.9946C84.9407 88.5629 84.9501 88.0528 85.4764 88.0183C88.916 87.79 92.7085 88.9435 96.272 89.0196C99.655 89.0933 102.585 86.7232 104.453 84.1498C104.907 83.5243 106.679 80.7475 106.894 79.1683C107.114 77.5545 107.885 78.4298 107.901 78.7069C108.15 83.1021 104.243 87.8399 103.309 88.5582C100.368 90.8248 97.6833 91.5169 94.0395 91.5942C92.1728 91.6334 90.4252 91.568 88.608 91.1494Z" fill="#155698"/>
<path d="M143.401 98.3221C141.723 98.8334 139.963 96.7488 139.378 95.3895C138.416 93.1621 135.953 84.9959 140.873 85.7284C141.459 85.8153 142.067 86.0091 142.461 86.4895C144.642 88.4707 145.581 91.8397 145.309 94.2491C145.175 95.4359 144.803 97.8951 143.401 98.3221Z" fill="#155698"/>
<path d="M103.635 99.9889C103.826 101.346 103.895 103.887 103.115 105.848C102.697 106.997 101.826 107.804 100.194 107.66C99.8215 107.628 99.5348 107.418 99.1395 107.022C97.353 105.293 96.658 101.861 96.5258 100.247C96.3241 97.7996 97.156 95.458 99.3012 95.4247C101.724 95.3879 103.337 97.8554 103.635 99.9889Z" fill="#155698"/>
<path d="M178.983 83.8308C180.278 85.9559 184.66 87.2473 186.364 84.6763C188.111 82.0375 186.659 79.0347 183.976 77.9716C182.584 77.4198 181.313 77.5138 180.222 78.0394C178.474 79.2595 177.865 81.9947 178.983 83.8308ZM179.704 77.2569C181.29 76.3733 183.243 76.34 185.39 77.3223C188.349 78.6792 189.639 83.5977 187.246 86.0879C184.699 88.741 179.933 88.0417 177.841 85.2257C177.075 84.1947 176.989 82.6749 177.228 80.7508C177.814 78.5151 178.274 78.2189 179.704 77.2569Z" fill="#155698"/>
<path d="M201.343 51.2578C202.845 50.6385 203.309 48.7287 203.713 47.3679C204.164 45.8525 203.298 40.9127 206.555 40.8697C208.148 40.8484 209.648 40.6501 211.22 40.4092C217.825 39.398 222.332 34.8228 224.007 28.4735C226.512 18.9825 213.731 8.81037 205.298 12.8941C201.864 13.8068 199.659 16.7834 201.722 20.47C202.286 21.4789 203.829 22.1705 204.937 21.98C207.946 21.4602 212.707 20.4329 214.956 23.4763C219.222 29.2433 210.866 32.3928 206.73 32.8448C199.231 33.6604 198.107 36.0526 196.513 43.0549C195.669 46.7538 195.911 53.4999 201.343 51.2578Z" fill="#155698"/>
<path d="M201.653 56.7913C201.586 56.704 201.495 56.628 201.415 56.5472C200.99 55.8312 200.099 55.6263 199.219 55.426C197.876 55.1189 196.341 55.0519 195.193 55.9659C193.155 57.5882 193.484 61.6347 195.986 62.6405C198.507 63.6523 200.992 62.4022 202.216 60.1472C202.896 58.8916 202.466 57.8531 201.653 56.7913Z" fill="#155698"/>
<path d="M164.28 90.291C165.625 92.6219 168.496 91.6562 169.552 89.6905C169.989 88.8783 169.927 88.1505 169.582 87.5166C169.554 87.4679 169.531 87.4132 169.501 87.3668C169.255 86.9779 168.899 86.6271 168.481 86.3215C168.335 86.2156 168.136 86.1027 167.919 85.9944C166.679 85.432 165.659 85.6793 165.397 85.7221C163.413 86.0539 163.474 88.8925 164.28 90.291ZM164.101 84.6685C166.589 83.2486 169.927 84.5008 170.614 87.4572C170.72 87.9138 170.777 88.7796 170.693 89.3194C170.212 92.4007 166.335 93.9359 164.003 91.8358C162.17 90.1864 161.698 86.0408 164.101 84.6685Z" fill="#155698"/>
<path d="M96.5029 185C82.9584 203.782 76.1431 216.074 64.5029 239C110.982 258.36 136.27 257.699 180.503 240L180.003 229.5L159.503 206L143.503 198L149.503 208.5L132.003 198L126.503 194.5V190L123.503 185L125.503 175L98.5029 171.5L96.5029 185Z" fill="#60CEF5"/>
<path d="M96.5029 185C82.9584 203.782 76.1431 216.074 64.5029 239C110.982 258.36 136.27 257.699 180.503 240L180.003 229.5L159.503 206L143.503 198L149.503 208.5L132.003 198L126.503 194.5V190L123.503 185L125.503 175L98.5029 171.5L96.5029 185Z" fill="#FFCB30"/>
<path d="M135.503 226C139.699 223.19 143.841 223.143 153.503 225C146.398 217.499 142.17 215.123 133.503 221C117.576 209.845 110.485 211.986 100.003 228.5C113.776 221.103 121.597 219.588 135.503 226Z" fill="#EAB004"/>
<path d="M170.503 245L179.003 241.5V230.5L155.003 203C149.02 199.225 146.474 198.398 144.003 200.5L147.003 209L130.503 196.5L125.503 193.5V190.5L122.503 186.5C117.618 187.04 115.787 187.669 117.003 190.5L138.003 211L155.003 222L170.503 245Z" fill="#EAB004"/>
<path d="M176.597 212.106C171.905 211.705 166.805 210.581 162.79 208.393C161.368 207.618 159.99 206.815 158.623 206.025C162.446 209.447 165.895 213.237 169.542 216.979C172.293 219.801 174.55 223.16 176.659 226.473C176.794 226.685 176.954 226.903 177.128 227.126C176.745 222.121 176.466 217.095 176.597 212.106ZM123.425 253.026C128.559 253.039 133.7 253.066 139.1 252.315C145.305 251.449 151.401 250.086 157.328 248.386C164.606 246.296 171.297 244.139 178.04 240.595C177.928 238.381 177.84 236.183 177.676 234.074C177.603 233.122 177.524 232.164 177.446 231.208C176.301 229.523 174.798 227.898 173.77 226.265C172.414 224.113 170.865 222.058 169.25 220.068C169.068 227.881 167.522 235.458 165.194 242.934C165.049 243.403 164.354 243.227 164.461 242.744C166.209 234.882 167.881 227.041 168.353 218.985C167.908 218.461 167.491 217.902 167.034 217.392C165.294 215.457 163.832 213.275 162.016 211.373C160.717 210.01 157.882 206.099 155.602 204.323C151.851 202.282 148.052 200.611 143.623 200.267C145.808 202.788 149.431 205.272 149.183 208.714C149.149 209.168 148.904 209.655 148.417 209.762C147.663 209.923 146.89 209.896 146.207 209.424C143.336 207.445 140.099 206.107 137.107 204.306C134.903 202.978 129.672 200.337 130.025 196.987C130.904 188.645 143.001 185.429 149.894 185.669C150.498 185.689 150.483 186.513 149.91 186.594C145.953 187.129 142.063 188.364 138.597 190.387C137.331 191.125 136.093 191.995 134.864 192.797C128.368 197.035 135.91 200.762 138.24 202.279C141.178 204.196 144.446 205.44 147.32 207.437C145.705 206.315 145.298 204.722 143.8 203.097C142.633 201.832 141.655 201.238 140.873 199.697C140.56 199.078 140.906 198.232 141.672 198.243C147.121 198.31 151.04 199.636 155.756 202.321C163.025 206.458 170.441 209.249 178.845 209.677C180.476 209.762 180.536 212.314 178.883 212.251C178.794 212.246 178.7 212.236 178.61 212.234C179.01 218.795 179.482 225.347 179.926 231.907C180.082 234.219 180.418 236.661 180.723 239.134C183.154 237.758 185.641 236.29 188.16 235.017C191.972 232.304 194.627 230.067 198.274 227.261C200.685 225.406 202.854 223.423 204.896 221.343C201.036 213.416 196.802 205.614 192.228 198.242C183.328 183.897 173.505 168.249 157.15 161.751C149.938 158.884 142.463 157.745 134.786 157.304C131.968 157.141 127.973 157.494 125.145 158.007C121.6 158.649 117.334 159.968 118.385 161.691C119.943 164.243 125.551 163.715 129.854 164.394C134.84 165.181 139.791 165.789 143.751 169.022C145.828 169.223 147.825 169.669 149.604 170.358C150.132 170.562 150.129 171.441 149.478 171.423C143.289 171.26 138.063 170.763 132.229 173.482C129.432 174.785 127.267 176.928 125.717 179.585C124.275 182.056 123.902 187.285 125.895 189.757C126.689 187.106 128.696 184.699 130.821 182.995C136.373 178.543 143.244 176.508 150.329 177.058C150.79 177.093 150.803 177.737 150.339 177.781C145.128 178.282 140.023 179.682 135.513 182.401C131.692 184.703 126.44 189.763 126.996 194.837C127.056 195.381 126.318 195.381 126.137 194.968C125.569 193.659 125.464 192.347 125.635 191.07C125.603 191.063 125.58 191.082 125.544 191.07C123.446 190.227 122.423 188.624 122.087 186.729C121.558 186.987 121.145 187.194 121.385 187.081C117.598 188.842 113.618 189.271 116.344 194.535C118.684 199.058 121.194 203.509 123.745 207.926C124.856 209.334 125.961 210.748 127.049 212.185C127.535 212.827 128.086 213.514 128.65 214.215C129.129 214.696 129.609 215.176 130.085 215.66C130.372 215.89 132.196 217.78 132.505 218.077C132.592 218.162 132.68 218.237 132.765 218.324C132.957 218.495 133.158 218.651 133.364 218.779C134.063 217.425 134.563 216.572 135.036 215.56C135.85 213.288 136.497 212.616 137.115 208.911C137.187 208.194 137.243 207.455 137.286 206.682C137.318 206.11 138.144 206.087 138.176 206.67C138.192 206.958 138.183 207.244 138.19 207.53C138.2 207.575 138.222 207.615 138.205 207.672C138.201 207.688 138.198 207.703 138.194 207.716C138.241 210.346 137.949 212.942 137.315 215.502C137.252 215.748 137.223 216.001 137.172 216.25C137.947 215.182 138.9 214.334 140.062 213.993C141.911 213.448 145.279 215.944 146.785 216.822C149.243 218.25 151.164 220.806 153.536 222.307C153.618 220.969 153.398 219.529 153.446 218.237C153.548 215.476 153.705 212.756 153.503 210.001C153.473 209.614 154.071 209.532 154.167 209.902C154.887 212.659 154.866 215.37 154.972 218.215C155.039 220.049 155.489 222.066 155.036 223.868C154.89 224.444 154.284 224.624 153.789 224.402C153.578 224.307 153.401 224.178 153.21 224.065C153.181 224.13 153.163 224.171 153.126 224.253C152.772 224.914 152.802 225.121 152.395 225.261C152.235 225.314 152.109 225.243 152.004 225.134C151.812 225.029 151.598 224.845 151.381 224.667C149.392 223.051 147.641 221.28 145.511 219.801C143.985 218.741 142.43 218.034 140.739 217.294C140.172 217.046 139.726 216.986 139.33 217.05C138.458 217.669 137.805 218.75 137.274 219.587C136.841 220.272 136.628 221.048 136.38 221.807C136.24 223.012 136.08 224.212 135.808 225.393C135.68 225.947 135.318 226.173 134.979 226.048C134.733 226.087 134.375 225.924 134.015 225.385C133.631 224.766 133.178 224.163 132.747 223.552C132.404 223.075 132.055 222.605 131.701 222.173C130.737 220.992 129.87 219.851 128.743 218.813C127.851 217.993 126.793 217.427 125.823 216.745C121.912 215.282 118.599 213.487 114.127 215.548C108.674 218.058 105.537 224.785 102.492 229.632C102.196 230.102 101.567 229.896 101.505 229.379C101.446 228.865 101.376 228.37 101.325 227.872C101.004 228.398 100.686 228.921 100.369 229.433C99.7369 230.458 98.8956 229.798 98.7422 228.514C98.1593 223.672 97.22 218.506 96.82 214.122C96.4035 209.584 96.0884 207.571 95.7934 201.895C95.5551 197.31 95.3462 192.352 95.6471 187.543C88.179 197.206 83.019 208.207 76.3179 218.366C75.0942 220.217 73.9626 222.164 72.8747 224.14C73.6122 224.991 75.2523 225.967 75.8494 226.556C77.6477 228.326 79.3174 230.24 81.0755 232.051C84.7299 235.818 87.1218 240.521 89.3366 245.239C89.5242 245.646 88.9661 246.01 88.7313 245.607C85.5784 240.204 82.3145 235.313 77.9946 230.769C76.4052 229.098 75.0942 227.136 73.3054 225.668C73.1661 225.553 72.8416 225.152 72.5195 224.767C71.2593 227.086 70.0616 229.444 68.8875 231.762C67.9636 233.586 67.0338 235.524 65.0148 238.926C82.3417 247.038 104.936 252.98 123.425 253.026ZM249.408 48.6478C254.992 32.6127 246.282 20.025 233.924 11.8492C224.546 6.84034 214.557 2.24052 203.712 2.25479C192.73 2.26906 182.685 2.72571 173.653 9.80263C168.021 14.2169 164.878 18.3589 163.233 25.4632C161.864 31.3723 162.174 37.1685 163.307 43.0562C165.209 52.9349 173.643 64.5974 186.058 67.6869C186.24 67.7321 186.34 67.8617 186.399 68.0008C186.406 68.0222 186.418 68.0389 186.422 68.0615C186.465 68.2197 186.432 68.3636 186.306 68.4504C182.839 75.0028 194.822 78.5455 195.479 71.8063C195.512 71.4793 195.905 71.226 196.177 71.377C215.065 74.4665 241.758 70.6206 249.408 48.6478ZM58.8058 57.4741C66.8709 55.2229 75.2169 54.2002 83.55 53.5366C88.0351 53.1799 94.5368 54.3845 98.0873 51.1963C98.2336 51.0655 98.2466 50.8336 98.2018 50.6588C96.8295 45.3585 112.2 51.1047 114.182 51.025C116.489 50.9311 118.289 50.2461 119.651 48.1305C122.042 44.4226 123.354 48.322 126.43 46.6C130.294 44.4381 133.199 39.0153 138.524 44.5379C138.622 44.6402 138.784 44.4892 138.685 44.3869C137.172 42.8196 134.937 40.3983 132.396 41.3105C128.833 42.5877 126.305 46.2968 122.326 43.3749C121.948 43.0954 121.427 42.9325 121.001 43.2417C118.803 44.8329 117.253 49.6563 114.143 49.5243C108.263 49.2757 102.991 46.3146 97.1256 45.8354C96.8129 45.8092 96.5793 46.1279 96.5769 46.4121C96.5427 49.4363 97.0714 49.5944 94.2134 49.3744C89.7024 49.0272 84.9105 49.1627 80.423 49.8156C72.6139 50.9477 65.5989 53.3511 58.5745 56.9139C58.2229 57.0935 58.4364 57.5775 58.8058 57.4741ZM3.81989 121.336C3.82225 121.323 3.82342 121.31 3.82342 121.298C3.89539 120.769 3.96266 120.244 4.0429 119.71C6.55743 100.741 14.6049 82.5471 24.2076 66.2266C29.5458 57.1577 35.3985 50.7265 43.5427 44.3251C48.0491 40.7825 53.3802 36.6762 58.1556 33.5081C60.7646 31.7767 63.0667 30.1796 65.9317 28.8798C67.2828 28.2661 73.067 25.3716 75.5367 24.6736C78.9693 23.7056 77.8908 26.0257 77.4577 26.1957C69.769 29.2413 63.8714 32.2856 60.8188 34.3013C56.152 37.3849 50.4539 42.0002 46.1517 45.569C37.3939 52.8338 31.6509 59.0248 25.7958 68.9998C16.7454 84.4189 9.72569 101.767 6.01465 119.475C4.66947 131.525 5.322 142.54 7.34684 152.367C9.52037 162.926 11.9617 171.084 16.5424 182.691C18.6994 188.152 21.1267 193.951 24.3952 198.777C27.9021 203.957 30.924 209.067 35.0127 213.837C40.8701 220.674 42.1692 223.902 51.5218 231.431C54.8564 233.676 58.6583 235.854 62.8307 237.905C64.275 235.886 66.1759 231.18 67.4456 228.727C70.084 223.631 73.3903 218.972 76.0771 213.895C81.0826 204.434 89.156 191.631 95.9291 184.466C96.1203 182.823 96.3752 181.205 96.7421 179.648C96.8342 179.259 97.4891 179.322 97.4478 179.732C96.6454 187.866 97.2802 195.473 97.9622 203.614C98.3103 207.751 98.793 211.845 99.1776 215.976C99.4537 218.949 99.9942 221.981 100.302 224.994C104.171 219.213 108.318 214.183 115.066 211.34C117.815 210.181 120.934 210.753 123.822 212.156C119.736 206.758 115.323 201.746 111.42 196.139C107.686 190.776 104.191 185.605 101.009 179.881C98.2808 174.97 96.1356 169.347 93.1656 164.611C88.7997 161.905 84.5152 159.167 80.351 156.072C75.5875 152.527 71.998 147.708 68.0639 143.316C66.9677 146.212 62.7457 147.437 58.381 146.467C49.9878 144.6 42.6943 139.381 39.0175 131.655C36.9372 127.284 38.1774 121.907 42.8005 120.422C40.994 116.615 38.5349 113.003 37.0163 109.088C35.0221 103.949 33.9991 99.2625 33.4551 93.2059C32.6916 84.7186 34.8274 73.6662 38.8464 66.286C48.8833 47.8606 64.8815 33.7912 86.2037 34.337C86.1577 34.1479 86.12 33.9588 86.068 33.7698C85.2362 30.7658 83.524 28.0342 81.8591 25.4406C79.5911 21.9099 76.7781 19.0938 73.9827 16.0614C73.8175 15.8818 73.8848 15.6047 74.1054 15.4799C74.1172 15.4739 74.1196 15.462 74.1373 15.4573L74.1892 15.4478C74.2423 15.4299 74.2883 15.4109 74.3567 15.4145C79.8141 14.2003 90.5767 15.405 96.6796 18.6491C101.241 21.0739 106.072 24.67 108.871 29.2817C108.838 27.5705 108.776 25.8663 108.465 24.2383C107.525 19.3067 105.836 14.3965 102.417 10.7754C101.872 10.1974 102.971 9.89183 103.456 10.0547C103.768 10.0417 104.174 10.0666 104.726 10.1558C113.56 11.5829 124.519 19.7955 128.462 29.1093C128.467 27.423 128.604 25.701 128.525 24.073C128.368 20.8574 127.568 17.624 126.007 14.8104C125.719 14.293 125.899 13.8019 126.374 13.9161C126.382 13.9173 126.384 13.9042 126.395 13.9054C130.4 14.9923 132.736 18.4755 134.866 21.3058C138.533 26.1779 140.535 31.3973 142.184 37.1768C143.653 42.3284 144.138 47.0032 144.173 52.3593C144.184 54.2311 144.308 57.9188 143.185 60.0629C144.68 61.8408 146.065 63.7292 147.252 65.8234C150.009 70.6908 152.946 75.0706 154.85 80.3828C156.877 86.0362 158.634 91.5422 159.818 97.4525C162.24 109.542 164.035 121.443 162.848 133.827C162.325 139.262 161.311 145.043 159.755 150.282C158.87 153.263 157.079 156.413 155.899 157.2C155.492 157.47 155.263 156.833 155.43 156.413C157.714 150.653 158.534 146.953 159.175 142.847C160.042 137.284 160.611 131.782 160.887 126.132C161.422 115.143 158.625 103.918 156.525 93.2345C153.178 76.2111 143.591 62.2154 131.71 50.2259C128.088 53.7328 123.774 58.0782 118.901 57.7797C111.13 57.304 103.319 58.7679 95.6802 60.1997C88.5932 61.528 81.6549 62.8469 74.6848 64.7175C66.5771 66.8913 60.4707 69.8905 54.0752 75.2478C54.0729 75.2645 54.0646 75.2776 54.0599 75.2942C61.7994 80.4042 63.5257 92.2665 64.3305 100.723C64.7895 105.546 63.0301 111.811 61.3416 116.262C61.082 116.947 62.623 126.138 62.7151 127.105C62.8177 128.18 62.741 129.044 62.5734 129.524C62.564 129.6 62.5345 129.662 62.4944 129.727C62.4555 129.788 62.4212 129.843 62.3646 129.883C62.3457 129.897 62.3292 129.899 62.3103 129.905C62.1557 129.988 61.9717 130.003 61.8218 129.83C59.1409 126.731 55.634 124.457 51.7707 123.158C49.8332 122.507 47.7588 122.471 45.741 122.515C39.1921 122.658 40.535 129.608 42.7439 133.404C45.0578 137.381 48.6603 140.109 52.5601 142.359C54.657 143.566 67.0373 147.487 67.1718 141.701C67.1813 141.238 67.5896 141.08 67.9282 141.168C67.9518 141.173 67.973 141.179 67.9978 141.188C68.0828 141.223 68.15 141.263 68.2102 141.333C68.2267 141.346 68.2421 141.348 68.2598 141.366C72.0912 145.068 75.4765 148.097 79.0719 151.617C83.7128 156.155 89.5242 159.664 95.0795 162.931C105.04 168.789 113.979 173.702 125.302 175.784C125.307 175.78 125.308 175.773 125.313 175.768C128.679 171.263 134.594 169.114 140.405 168.92C138.262 168.204 135.971 167.702 134.061 167.172C132.389 166.707 128.794 166.442 127.006 166.27C125.298 166.107 123.157 165.715 121.168 165.295C119.563 164.959 116.199 164.002 115.763 161.511C115.074 157.57 121.739 156.379 125.688 155.705C132.602 154.527 141.796 155.443 148.926 157.23C166.302 161.591 179.723 173.629 188.851 189.02C193.919 197.564 199.894 204.848 204.219 213.803C205.034 215.488 206.084 217.332 207.017 219.1C209.651 216.215 212.121 213.16 214.689 209.989C223.632 198.942 232.446 184.8 236.739 171.145C236.747 171.117 236.777 171.103 236.795 171.082C236.934 170.496 237.075 169.91 237.223 169.341C238.68 163.777 239.585 157.812 240.454 152.125C241.961 142.265 241.805 131.921 241.054 122.018C240.054 108.827 234.409 97.2718 228.875 85.507C226.785 81.0654 223.927 77.0292 221.503 72.7612C212.788 74.7246 203.684 74.5997 196.27 72.2855C196.142 72.7303 196.073 73.4093 195.924 73.7471C195.56 74.5747 195.017 75.3263 194.318 75.8496C192.56 77.166 190.046 76.8461 188.132 76.0065C186.14 75.1313 184.633 74.0931 184.069 71.886C183.714 70.4922 184.045 69.2436 184.981 68.4064C180.754 67.8605 176.379 65.5618 173.167 62.8373C168.631 58.9927 164.375 53.8315 162.864 49.0985C161.004 43.2738 159.844 37.7512 160.124 32.4093C160.219 30.5958 160.455 28.611 160.819 26.6001C154.954 24.6605 148.903 23.1585 142.542 22.3154C141.934 22.2345 142.084 21.2713 142.666 21.2618C148.842 21.1583 155.15 22.6258 161.239 24.5273C162.159 20.5173 163.652 16.5775 165.885 13.8102C174.157 3.56172 185.654 -0.0177717 198.497 6.62928e-05C205.796 0.00957989 212.086 0.790887 219.124 2.94215C221.892 3.78767 224.386 4.82227 226.75 6.02812C244.229 13.1407 256.674 27.5502 251.692 47.6917C248.515 60.5434 236.577 68.8559 223.363 72.3105C224.876 74.6758 226.305 77.0982 227.786 79.3862C235.142 90.7585 241.005 104.361 243.053 117.802C244.733 128.843 244.014 139.499 243.139 150.55C242.196 162.424 239.102 176.587 233.161 186.983C233.16 186.985 233.158 186.983 233.157 186.985C233.096 187.118 233.039 187.238 232.977 187.374C229.84 194.213 222.465 204.045 218.019 210.097C209.639 221.506 198.288 232.182 185.916 239.25C182.5 241.38 179.449 242.675 175.947 244.457C169.671 247.653 163.05 249.017 156.354 251.038C150.635 252.765 145.396 253.714 139.391 254.574C133.272 255.447 127.455 255.526 121.755 255.538C108.819 255.568 95.5279 252.295 83.203 248.521C76.45 246.457 69.9259 243.94 63.4679 241.082C58.1108 238.709 49.2668 233.477 44.9033 228.842C44.7381 228.701 44.5634 228.583 44.3994 228.436C39.7243 224.257 35.9732 219.028 31.9081 214.273C28.5806 210.382 25.9233 206.135 23.2223 201.805C19.9537 196.566 17.0274 191.026 14.7087 185.267C10.2048 174.082 6.89845 162.811 4.6376 150.967C3.00451 142.421 2.32249 132.567 3.81989 121.336Z" fill="#155698"/>
</g>
<defs>
<clipPath id="clip0_1636_158767">
<rect width="256" height="258" fill="white" transform="matrix(-1 0 0 1 256 0)"/>
</clipPath>
</defs>
</svg>
