<svg width="58" height="39" viewBox="0 0 58 39" fill="none" xmlns="http://www.w3.org/2000/svg">
<path d="M37.5 12L48 11.5C51.733 14.8555 53.739 16.8563 56.5 21.5L57 28C56.2629 31.2421 55.303 32.788 53.5 35.5C51.5167 37.3394 48.957 37.7793 43 38C40.2127 38.3296 38.6227 38.465 35 37.5C31.2233 35.4939 29.1603 34.2178 29 23.5C29.7109 18.8628 31.6025 16.3478 37.5 12Z" fill="#FFC000"/>
<path d="M42.6225 32.8812C42.4885 32.8812 42.3565 32.8752 42.227 32.8612C42.1065 32.8482 41.997 32.7877 41.9195 32.6922C41.8425 32.6127 41.7955 32.4982 41.791 32.3762C41.7785 31.9247 41.7715 31.4737 41.7685 31.0222C40.606 30.8802 39.5965 30.4482 39.0555 29.8582C39.0275 29.8572 38.9685 29.8152 38.9235 29.7617C38.838 29.6612 38.802 29.5312 38.8235 29.3952C38.891 28.9962 39.0435 28.6527 39.1915 28.3207L39.2975 28.0782C39.323 28.0172 39.341 27.9647 39.357 27.9167C39.4125 27.7497 39.471 27.5737 39.6805 27.3882L39.749 27.3322L40.237 27.0737C40.3 27.0442 40.324 27.0357 40.3515 27.0282L40.401 27.0167C40.401 27.0167 40.4665 27.0117 40.4675 27.0117C40.5415 27.0117 40.604 27.0262 40.6605 27.0552C41.033 27.2682 41.397 27.4717 41.7885 27.6097C41.791 27.2862 41.7935 26.9617 41.7945 26.6377H41.793C41.026 26.3912 40.071 26.0847 39.587 25.3972C38.4195 23.7417 38.8775 21.8957 39.8495 20.8017C40.209 20.4217 40.5975 20.1467 41.04 19.9602C41.2875 19.8007 41.561 19.6752 41.862 19.5832L41.8655 19.2947C41.866 18.9782 41.8665 18.6517 41.902 18.3197L41.9165 18.2132L41.937 18.1102L41.9515 18.1137C42.001 18.0042 42.086 17.9247 42.197 17.8867C42.202 17.8837 42.2445 17.8597 42.299 17.8297C42.4635 17.7382 42.6045 17.6607 42.6685 17.6387C42.719 17.6142 42.782 17.6002 42.846 17.6002C42.9825 17.6002 43.113 17.5857 43.2455 17.5712C43.4195 17.5527 43.589 17.5352 43.753 17.5352C43.885 17.5352 44.0025 17.5462 44.112 17.5687L44.181 17.5667L44.2075 17.5862C44.391 17.6487 44.51 17.8002 44.5185 17.9887C44.542 18.4327 44.559 18.8767 44.5715 19.3197C45.2635 19.3702 45.9255 19.4692 46.458 19.9547L46.508 20.0007L46.553 20.0867C46.6085 20.1522 46.6425 20.2642 46.6385 20.3852C46.632 20.5952 46.6045 20.8422 46.5815 21.0502C46.5585 21.2567 46.54 21.4077 46.519 21.5617C46.5335 21.6412 46.51 21.7492 46.452 21.8397C46.3715 21.9662 45.7645 22.2912 45.609 22.2912L45.513 22.2812C45.231 22.2187 44.9305 22.1587 44.625 22.1077C44.622 22.8542 44.614 23.6002 44.6015 24.3452L44.626 24.3512C45.354 24.5372 46.1325 24.7352 46.6765 25.3652C47.567 26.3917 47.492 28.3192 46.5195 29.4082C46.1765 29.7922 45.762 30.0892 45.251 30.3157C45.042 30.4452 44.8015 30.5617 44.5285 30.6662C44.532 31.1232 44.539 31.5817 44.5515 32.0412C44.585 32.1547 44.5195 32.3262 44.389 32.4347C44.338 32.5082 43.721 32.8172 43.573 32.8172C43.446 32.8497 43.2655 32.8572 43.091 32.8652L42.996 32.8697C42.8755 32.8762 42.749 32.8812 42.6225 32.8812Z" fill="#356799"/>
<path d="M44.1634 28.0081C44.1689 27.5736 44.2039 26.9846 44.2119 26.5511C44.4499 26.6291 44.5839 26.6926 44.6879 26.8001C45.0809 27.2026 44.8454 27.8101 44.1634 28.0081ZM42.4729 23.9956C41.4919 23.4641 41.6464 22.2481 42.5549 21.7506C42.5744 21.7401 42.5949 21.7316 42.6144 21.7221C42.6014 22.5041 42.6024 23.2856 42.6069 24.0616C42.5624 24.0396 42.5169 24.0186 42.4729 23.9956ZM44.1649 32.1661C44.2034 32.1341 44.2109 32.0931 44.2014 32.0511C44.1859 31.4711 44.1779 30.8936 44.1744 30.3186C44.9049 30.1106 45.6509 29.8556 46.2579 29.1751C47.0764 28.2591 47.2129 26.5181 46.4119 25.5941C45.8539 24.9486 44.9504 24.8091 44.2464 24.6136C44.2654 23.5461 44.2809 22.4786 44.2784 21.4061C44.8829 21.4326 45.4929 21.5656 46.0554 21.6901C46.1434 21.7096 46.1939 21.6221 46.1654 21.5601C46.1894 21.3921 46.2089 21.2356 46.2334 21.0106C46.2559 20.8116 46.2819 20.5756 46.2884 20.3731C46.2904 20.3176 46.2714 20.2796 46.2439 20.2561C46.2389 20.2416 46.2364 20.2266 46.2219 20.2136C45.6924 19.7301 44.9519 19.6926 44.2304 19.6481C44.2164 19.1021 44.1979 18.5546 44.1689 18.0041C44.1659 17.9396 44.1154 17.9131 44.0689 17.9186C44.0674 17.9181 44.0664 17.9166 44.0649 17.9166C43.6829 17.8291 43.2269 17.9531 42.8469 17.9501C42.8289 17.9501 42.8104 17.9561 42.7939 17.9666C42.7624 17.9726 42.7334 17.9931 42.7284 18.0361C42.7279 18.0406 42.7274 18.0446 42.7274 18.0486C42.7244 18.0596 42.7229 18.0686 42.7244 18.0796C42.6609 18.6396 42.7059 19.1901 42.6719 19.7616C41.9029 19.8876 41.2534 20.0761 40.5824 20.7861C39.7494 21.7241 39.2549 23.4026 40.3434 24.9476C40.8009 25.5961 41.8394 25.8811 42.5699 26.1206C42.5854 26.1251 42.5999 26.1321 42.6154 26.1371C42.6149 26.8001 42.6114 27.4631 42.6034 28.1261C42.5544 28.1271 42.5059 28.1251 42.4584 28.1216C41.7404 28.0471 41.1409 27.7356 40.5294 27.3801C40.5244 27.3771 40.5204 27.3771 40.5149 27.3751C40.4949 27.3586 40.4684 27.3576 40.4419 27.3666C40.4344 27.3686 40.4279 27.3706 40.4219 27.3731C40.4174 27.3771 40.4124 27.3751 40.4074 27.3791C40.4049 27.3811 40.4034 27.3831 40.4014 27.3851C40.3949 27.3891 40.3894 27.3946 40.3839 27.4016C40.1859 27.5776 40.1999 27.7101 40.0904 27.9681C39.9169 28.3751 39.7154 28.7601 39.6404 29.2026C39.6284 29.2786 39.6814 29.3196 39.7364 29.3196C40.3649 30.0601 41.6529 30.3901 42.5884 30.4561C42.5899 31.0101 42.5959 31.5636 42.6119 32.1166C42.6134 32.1606 42.6309 32.1926 42.6559 32.2151C42.6739 32.2406 42.7004 32.2611 42.7374 32.2651C42.9694 32.2911 43.2169 32.2846 43.4499 32.2716C43.6394 32.2621 43.8399 32.2601 44.0264 32.2181C44.0794 32.2231 44.1314 32.2061 44.1649 32.1661Z" fill="#FFC000"/>
<path d="M36.6347 10.1364C35.6887 9.58736 34.0107 8.79386 32.5772 8.94636C31.1432 9.09886 30.2892 9.43486 30.9602 10.3499C31.6312 11.2649 33.9807 10.3499 35.5367 10.7769C34.1332 11.2044 32.6072 11.8754 31.7532 12.8819C30.8992 13.8889 31.8447 14.4689 32.2717 14.2549C32.6992 14.0414 33.6452 12.7904 34.3467 12.3024C35.0482 11.8144 36.4827 11.1129 36.8487 11.0214C37.0312 11.3259 37.5392 11.4559 37.9467 11.3869C38.8317 12.0584 41.5772 12.7604 43.2247 12.6074C44.8722 12.4549 46.6412 11.9364 47.4347 11.2344C48.2282 10.5329 47.6197 9.88086 47.2517 9.95336C46.7027 10.4414 44.9337 11.2039 43.1332 11.2649C41.3327 11.3259 38.8922 10.2889 37.9162 9.61736C37.2752 9.34336 36.8482 9.31286 36.6347 10.1364Z" fill="#FFC000"/>
<path d="M45.963 11.862C45.914 11.881 45.8625 11.894 45.8125 11.911C46.0405 11.6085 46.1875 11.2385 46.2305 10.8805C46.615 10.738 46.953 10.549 47.2115 10.301C47.269 10.219 47.316 10.2425 47.351 10.2665C48.011 10.877 46.2065 11.767 45.963 11.862ZM45.3265 12.047C45.003 12.12 44.6725 12.1715 44.359 12.223C44.01 12.2805 43.6465 12.3055 43.281 12.3185C43.6715 12.0425 43.974 11.71 44.1195 11.265C44.772 11.231 45.465 11.1365 46.0675 10.939C45.981 11.2255 45.802 11.5585 45.631 11.75C45.5335 11.859 45.431 11.9545 45.3265 12.047ZM41.393 12.243C40.99 12.1985 40.6255 12.1375 40.269 12.0605C40.362 12.0235 40.4545 11.985 40.545 11.954C41.03 11.7855 41.4305 11.5445 41.729 11.1535C42.032 11.194 42.3355 11.23 42.641 11.2515C43.001 11.277 43.4425 11.289 43.912 11.2735C43.7865 11.583 43.5735 11.835 43.2905 12.042C43.186 12.1185 43.0265 12.236 42.8555 12.3305C42.3605 12.328 41.866 12.2945 41.393 12.243ZM39.6375 11.9C39.357 11.8175 39.0745 11.725 38.7755 11.606C38.6945 11.574 38.5325 11.4615 38.355 11.3185C38.454 11.288 38.555 11.234 38.653 11.182C38.941 11.029 39.1615 10.7965 39.4255 10.618C39.56 10.67 39.6935 10.7225 39.8455 10.767L39.8475 10.7675C40.0585 10.866 40.2225 10.8595 40.483 10.933C40.8265 11.013 41.173 11.077 41.521 11.1285C41.277 11.3935 40.9695 11.5865 40.6105 11.6905C40.3225 11.774 39.959 11.923 39.6375 11.9ZM38.115 11.112C37.6425 10.7665 37.767 10.154 37.825 9.84751C38.322 10.087 38.729 10.326 39.1965 10.5285C39.143 10.568 39.0885 10.6055 39.039 10.6515C38.8655 10.8125 38.398 11.166 38.115 11.112ZM37.558 11.2175C37.103 11.0455 36.9725 10.844 36.9005 10.4935C36.856 10.2775 36.8695 10.051 36.942 9.83651C37.1055 9.75001 37.162 9.67951 37.448 9.70151C37.453 9.71251 37.563 9.74651 37.6425 9.77101C37.5635 9.88051 37.4825 10.0745 37.4415 10.4155C37.3965 10.7925 37.7095 11.274 37.558 11.2175ZM36.789 8.0195C36.593 7.623 36.435 7.26451 36.3685 7.10751C35.948 6.12501 34.412 4.64301 34.5775 3.44801C34.618 3.47001 34.9265 3.883 37.1775 4.0605C38.3015 4.1495 39.4575 3.98151 40.59 4.03801C41.676 4.09151 42.7905 3.94051 43.885 3.94001C44.985 3.94001 46.085 3.96551 47.1845 3.96851C47.8025 3.97001 48.5665 3.873 49.1705 3.731C49.5715 3.637 49.935 3.5295 50.3195 3.3805C50.535 3.297 50.5625 3.15351 50.5455 3.03201C50.54 2.99351 50.531 2.96351 50.5225 2.93101C51.3375 3.55151 50.6735 4.57451 50.2025 5.15201C49.5375 5.96801 48.911 6.8225 48.2235 7.6195C47.7135 8.211 47.052 9.13051 46.886 9.91401C46.8775 9.9545 46.88 9.99051 46.885 10.0255C46.48 10.1145 46.0925 10.2835 45.6915 10.401C46.053 9.79251 46.2095 9.01301 46.4215 8.39701C46.45 8.31501 46.3195 8.256 46.2815 8.335C46.0925 8.72701 45.9395 9.16151 45.722 9.53551C45.601 9.74301 45.472 9.93401 45.3005 10.1015C45.161 10.237 44.992 10.454 44.8355 10.57C44.82 10.5815 44.8125 10.5955 44.8 10.608C44.3255 10.6955 43.845 10.7515 43.363 10.778C43.369 10.7285 43.0855 10.06 43.037 9.88851C42.941 9.54701 42.8705 9.20451 42.784 8.90551C42.657 8.46901 42.622 8.0165 42.6075 7.564C42.6045 7.4705 42.465 7.46751 42.462 7.56151C42.441 8.21301 42.488 8.90651 42.5705 9.48701C42.604 9.72451 42.634 9.98501 42.665 10.2215C42.6775 10.315 42.8185 10.781 42.824 10.7945C42.765 10.7955 42.707 10.7995 42.6485 10.7995C42.3955 10.8005 42.142 10.786 41.8885 10.7655C41.8675 10.7515 40.938 10.6555 40.502 10.5755C40.0685 10.247 39.8095 9.6495 39.507 9.22001C39.197 8.7795 38.976 8.31051 38.7205 7.84101C38.677 7.76101 38.562 7.82901 38.599 7.90951C38.851 8.46151 39.07 8.998 39.395 9.516C39.561 9.7795 39.7015 10.057 39.8625 10.3225C39.8745 10.342 39.8905 10.359 39.9045 10.3775C39.4335 10.2085 38.8915 10.006 38.5195 9.76151C37.7985 9.28751 37.2695 8.7005 36.789 8.0195ZM35.2325 11.509C35.229 11.5085 35.2265 11.506 35.2235 11.5065C34.9885 11.5315 34.7695 11.622 34.5365 11.663C34.2595 11.711 34.0175 11.642 33.765 11.5545C33.931 11.4765 34.1045 11.3965 34.2785 11.3195C34.699 11.207 35.1735 11.2465 35.6335 11.289C35.4985 11.3595 35.3665 11.435 35.2325 11.509ZM33.439 12.8825C33.3355 12.8815 33.23 12.8655 33.121 12.8345C32.9425 12.7835 32.5815 12.564 32.4815 12.335C32.6755 12.169 32.8485 12.0415 32.935 11.987C33.072 11.9 33.3145 11.7725 33.5985 11.6345C33.601 11.6365 33.6005 11.6405 33.604 11.642C33.9215 11.793 34.267 11.904 34.603 11.888C34.1855 12.17 33.802 12.5175 33.439 12.8825ZM32.8 13.532C32.723 13.6105 32.329 14.196 32.094 14.143C31.8785 14.094 31.727 13.9435 31.66 13.844C31.3945 13.4515 31.909 12.848 32.374 12.4295C32.4905 12.664 32.789 12.8665 32.98 12.9645C33.0665 13.0085 33.1635 13.038 33.2635 13.0575C33.1065 13.218 32.9525 13.3785 32.8 13.532ZM33.8805 10.3015C33.375 10.1205 32.552 9.65751 32.681 9.08751C32.7785 9.09651 32.877 9.10801 32.9775 9.12401C33.335 9.18001 33.8505 9.22901 34.362 9.31851C34.2895 9.53601 34.403 9.77601 34.4875 9.98301C34.5275 10.0805 34.585 10.1765 34.6545 10.264C34.3975 10.2665 34.138 10.2805 33.8805 10.3015ZM32.518 10.4395C32.061 10.4835 30.272 10.168 31.1455 9.46901C31.557 9.14051 32.022 9.05101 32.5275 9.07651C32.431 9.59201 32.948 10.098 33.471 10.339C33.1395 10.3725 32.8165 10.4105 32.518 10.4395ZM57.3735 24.7295C57.1815 23.5805 57.25 22.3815 56.7845 21.2995C55.73 18.848 53.859 16.7455 52.015 14.841C51.0815 13.877 50.12 12.971 49.0855 12.1095C48.715 11.801 48.323 11.5345 47.952 11.246C48.166 10.8695 48.174 10.41 47.8655 9.849C47.807 9.74401 47.702 9.69801 47.5935 9.70051C48.036 8.44001 49.3075 7.122 50.1005 6.155C50.5985 5.547 51.6185 4.59401 51.4115 3.69051C51.3015 3.20751 50.9415 2.38401 50.35 2.29851C49.5975 2.18951 48.868 1.66501 48.0805 1.76851C47.9995 1.77951 48.0285 1.89151 48.0965 1.90001C48.366 1.93551 48.613 2.01801 48.852 2.11751C48.9075 2.15951 48.9675 2.1965 49.0345 2.2345C49.6275 2.5715 49.0005 2.95151 48.664 3.05451C48.2525 3.18101 47.842 3.29801 47.428 3.40751C46.3845 3.46001 45.323 3.39401 44.29 3.39351C43.0225 3.39351 41.767 3.43551 40.508 3.46501C40.2985 3.39751 40.0965 3.31651 39.929 3.19851C38.7635 2.37301 40.708 1.69551 41.158 1.52151C41.2885 1.47101 41.4195 1.42501 41.552 1.38501C42.324 1.35901 43.0965 1.3795 43.8655 1.418C44.943 1.4725 45.9525 1.7285 47.0135 1.8245C47.097 1.832 47.1165 1.697 47.0355 1.679C45.691 1.379 44.494 0.982505 43.101 0.825005C41.596 0.654505 39.938 0.917506 38.435 1.06951C37.3005 1.18451 32.9735 1.90351 33.981 3.79201C34.0655 4.64601 34.915 5.67251 35.335 6.28551C35.909 7.12251 36.324 8.08401 36.9975 8.84701C37.0395 8.89401 37.1 8.98201 37.173 9.08351C37.167 9.09001 37.1615 9.09701 37.155 9.10101C36.9525 9.21401 36.7865 9.34751 36.687 9.59401C36.5595 9.90901 36.5 10.155 36.4815 10.497C36.48 10.5235 36.4845 10.5585 36.4915 10.595C36.3245 10.5455 36.1605 10.463 36.004 10.417C35.676 10.3215 35.316 10.2815 34.9455 10.2695C34.78 10.1355 34.6735 9.94651 34.5975 9.75001C34.558 9.64951 34.454 9.45851 34.5125 9.35851C34.515 9.354 34.513 9.34951 34.5145 9.34501C35.0585 9.45 35.5795 9.60901 35.8775 9.88501C35.9475 9.95001 36.05 9.85201 35.984 9.78151C35.333 9.08401 30.623 7.81401 30.5575 9.74701C30.502 11.403 32.6775 10.924 33.8015 10.868C34.141 10.851 34.526 10.8395 34.906 10.856C33.8155 11.19 32.147 12.1295 31.673 12.784C31.0955 13.5825 31.285 13.9375 31.6285 14.2815C31.67 14.323 31.953 14.5095 32.011 14.508C32.707 14.4895 33.116 13.7445 33.569 13.304C34.399 12.4975 35.5425 11.473 36.7305 11.276C36.78 11.268 36.894 11.3805 37.011 11.427C37.139 11.474 37.3485 11.532 37.6885 11.5325C37.374 11.7635 37.0085 11.9375 36.711 12.1935C36.5435 12.337 36.3815 12.4775 36.2265 12.624C35.873 12.855 35.5185 13.094 35.469 13.1345C34.652 13.7995 33.83 14.495 33.046 15.1995C32.289 15.8795 31.6485 16.653 31.014 17.4445C30.4055 18.203 29.7605 18.8515 29.385 19.7645C28.5965 21.6835 28.706 24.1785 28.8235 26.2055C28.9395 28.206 29.057 30.394 29.525 32.345C29.9675 34.189 31.961 35.651 33.2415 36.9095C34.638 38.283 37.2245 38.6375 39.0695 38.7275C40.15 38.781 41.2235 38.542 42.2855 38.3825C43.676 38.174 45.092 38.26 46.493 38.1915C48.8505 38.076 51.7225 37.6875 53.41 35.6875C53.496 35.585 53.4215 35.371 53.32 35.465C51.5975 37.0625 49.013 37.293 46.9405 37.3905C45.004 37.481 43.1235 37.4055 41.2015 37.7115C38.854 38.0855 36.421 37.8355 34.3365 36.6305C33.5695 36.1865 32.9025 35.4875 32.3115 34.837C31.554 34.003 30.689 33.2375 30.326 32.1375C29.8335 30.6465 29.955 28.7805 29.7335 27.2335C29.457 25.305 29.359 23.025 29.7395 21.1035C30.1215 19.173 31.52 17.5295 32.852 16.119C33.4935 15.44 34.1875 14.825 34.909 14.2325C35.2565 13.9465 35.4835 13.7555 35.785 13.4375C36.2535 13.0315 36.573 12.7605 36.9095 12.4615C36.964 12.435 37.018 12.408 37.077 12.385C38.104 12.933 39.059 13.261 40.072 13.4015C39.5985 13.81 39.17 14.2485 38.7635 14.7405C37.795 15.911 36.8345 17.1905 36.5865 18.7225C36.5665 18.845 36.734 18.901 36.775 18.778C37.16 17.6265 37.929 16.6795 38.6605 15.7305C39.2645 14.947 39.9155 14.1485 40.654 13.46C41.1645 13.4955 41.6935 13.492 42.2615 13.4445C42.5325 13.422 42.804 13.389 43.0755 13.348C43.326 14.1045 43.4025 14.9335 43.5285 15.7055C43.539 15.773 43.6545 15.777 43.6655 15.7075C43.794 14.916 43.837 14.0435 43.628 13.2475C44.213 13.1315 44.792 12.9755 45.3505 12.767C45.496 12.8865 45.656 12.9605 45.8545 13.0795C46.3775 13.3925 46.682 13.898 47.1395 14.2915C47.8115 14.8705 48.452 16.042 48.8365 17.144C48.8655 17.227 49.0015 17.2075 48.9855 17.1265C48.744 15.917 48.03 14.802 47.5145 14.146C47.1985 13.7435 46.5975 13.047 46.0825 12.4595C46.207 12.4005 46.3305 12.3395 46.4525 12.275C46.962 12.093 47.409 11.86 47.7085 11.5605C48.2905 11.9085 48.9135 12.7155 49.3655 13.1265C50.115 13.8085 50.8665 14.5465 51.514 15.3265C53.019 17.14 54.7475 18.8495 55.7715 20.992C56.588 22.6995 56.6475 25.127 56.585 27.0135C56.5445 28.2455 56.116 29.2545 55.7025 30.385C55.2105 31.7315 54.846 33.077 54.1585 34.353C54.095 34.4715 54.255 34.618 54.35 34.506C55.163 33.5545 55.785 32.5895 56.248 31.4215C56.698 30.288 57.1665 29.0805 57.3235 27.8675C57.4535 26.8605 57.5425 25.739 57.3735 24.7295Z" fill="#356799"/>
<path d="M16.4134 14.1543C15.1209 14.1788 14.0904 14.2058 12.7344 14.1908C10.7684 14.1698 8.80395 14.3488 6.84145 14.3558C6.74245 14.3558 6.73545 14.5038 6.83495 14.5098C10.0559 14.7018 13.0719 14.6823 16.2579 14.7073C16.8159 14.7203 16.7174 14.1568 16.4134 14.1543Z" fill="#356799"/>
<path d="M29.4315 14.2374C28.688 13.8639 27.98 13.9809 27.1575 13.9619C26.143 13.9389 25.1285 13.9979 24.1135 13.9899C22.347 13.9759 20.348 14.0809 18.583 14.1259C18.4405 14.1299 18.303 14.1329 18.164 14.1359C17.468 14.1719 17.4335 14.7249 17.838 14.7424C17.9285 14.7434 18.019 14.7439 18.111 14.7449C19.896 14.7684 21.925 14.7469 23.71 14.7579C24.939 14.7654 25.8515 14.6944 26.831 14.7204C27.779 14.7459 29.1715 14.7579 29.419 14.5289C29.507 14.4474 29.542 14.2929 29.4315 14.2374Z" fill="#356799"/>
<path d="M13.2337 25.7676C12.0912 25.7866 11.2497 25.8011 10.0462 25.7886C8.08016 25.7676 6.11566 25.9466 4.15316 25.9536C4.05416 25.9536 4.04666 26.1016 4.14666 26.1076C7.24666 26.2921 10.1047 26.2626 13.1647 26.2856C13.6087 26.2826 13.6827 25.7846 13.2337 25.7676Z" fill="#356799"/>
<path d="M26.743 25.8346C25.9995 25.4611 25.2915 25.5781 24.469 25.5591C23.4545 25.5361 22.44 25.5951 21.425 25.5871C19.6585 25.5731 17.6595 25.6781 15.8945 25.7231C15.588 25.7311 15.293 25.7376 14.9945 25.7446C14.2885 25.8016 14.375 26.3371 14.751 26.3361C14.976 26.3381 15.1965 26.3391 15.4225 26.3421C17.2075 26.3656 19.2365 26.3441 21.0215 26.3546C22.2505 26.3626 23.163 26.2916 24.1425 26.3176C25.0905 26.3431 26.483 26.3546 26.7305 26.1261C26.8185 26.0446 26.8535 25.8901 26.743 25.8346Z" fill="#356799"/>
<path d="M26.8197 20.4586C26.0762 20.0851 25.3682 20.2021 24.5457 20.1831C23.5312 20.1601 22.5167 20.2191 21.5017 20.2111C19.7352 20.1971 13.5837 20.3021 11.8187 20.3471C9.79872 20.3991 7.99122 20.4341 5.97072 20.4121C4.00522 20.3911 2.04022 20.5706 0.0782172 20.5771C-0.0212828 20.5771 -0.0282827 20.7251 0.0712173 20.7311C3.88722 20.9581 7.52122 20.9166 11.3467 20.9661C13.1317 20.9896 19.3132 20.9681 21.0982 20.9786C22.3272 20.9866 23.2397 20.9156 24.2192 20.9416C25.1672 20.9671 26.5597 20.9786 26.8072 20.7501C26.8952 20.6686 26.9302 20.5141 26.8197 20.4586Z" fill="#356799"/>
<path d="M27.5873 32.3635C26.8438 31.99 26.1358 32.1065 25.3133 32.088C24.2988 32.0645 23.2843 32.124 22.2693 32.116C20.5028 32.102 14.3513 32.2075 12.5863 32.252C10.5663 32.304 8.75879 32.339 6.7383 32.317C4.7728 32.296 2.8078 32.4755 0.845795 32.482C0.746295 32.482 0.739295 32.63 0.838795 32.636C4.6548 32.863 8.2888 32.8215 12.1143 32.871C13.8993 32.8945 20.0808 32.873 21.8658 32.8835C23.0948 32.8915 24.0073 32.8205 24.9868 32.8465C25.9348 32.872 27.3273 32.8835 27.5748 32.655C27.6628 32.5735 27.6978 32.419 27.5873 32.3635Z" fill="#356799"/>
</svg>
