<svg width="71" height="30" viewBox="0 0 71 30" fill="none" xmlns="http://www.w3.org/2000/svg">
<g clip-path="url(#clip0_1329_63105)">
<path d="M30.2171 17.8081C30.2171 21.1394 27.611 23.5941 24.4127 23.5941C21.2145 23.5941 18.6084 21.1394 18.6084 17.8081C18.6084 14.4533 21.2145 12.022 24.4127 12.022C27.611 12.022 30.2171 14.4533 30.2171 17.8081ZM27.6762 17.8081C27.6762 15.7263 26.1658 14.302 24.4127 14.302C22.6597 14.302 21.1493 15.7263 21.1493 17.8081C21.1493 19.8689 22.6597 21.3141 24.4127 21.3141C26.1658 21.3141 27.6762 19.8663 27.6762 17.8081Z" fill="#EA4335"/>
<path d="M42.7391 17.8081C42.7391 21.1394 40.133 23.5941 36.9347 23.5941C33.7365 23.5941 31.1304 21.1394 31.1304 17.8081C31.1304 14.4559 33.7365 12.022 36.9347 12.022C40.133 12.022 42.7391 14.4533 42.7391 17.8081ZM40.1982 17.8081C40.1982 15.7263 38.6878 14.302 36.9347 14.302C35.1817 14.302 33.6712 15.7263 33.6712 17.8081C33.6712 19.8689 35.1817 21.3141 36.9347 21.3141C38.6878 21.3141 40.1982 19.8663 40.1982 17.8081Z" fill="#FBBC05"/>
<path d="M54.7387 12.3715V22.7594C54.7387 27.0324 52.2187 28.7776 49.2395 28.7776C46.4352 28.7776 44.7474 26.902 44.1108 25.3681L46.323 24.4472C46.7169 25.3889 47.6821 26.5002 49.2369 26.5002C51.1439 26.5002 52.3256 25.3237 52.3256 23.1089V22.2768H52.2369C51.6682 22.9785 50.5726 23.5915 49.19 23.5915C46.2969 23.5915 43.6465 21.0715 43.6465 17.8289C43.6465 14.5628 46.2969 12.022 49.19 12.022C50.57 12.022 51.6656 12.635 52.2369 13.3159H52.3256V12.3741H54.7387V12.3715ZM52.5056 17.8289C52.5056 15.7915 51.1465 14.302 49.4169 14.302C47.6639 14.302 46.1952 15.7915 46.1952 17.8289C46.1952 19.8454 47.6639 21.3141 49.4169 21.3141C51.1465 21.3141 52.5056 19.8454 52.5056 17.8289Z" fill="#4285F4"/>
<path d="M58.717 6.28271V23.2392H56.2388V6.28271H58.717Z" fill="#34A853"/>
<path d="M68.3746 19.7121L70.3468 21.0269C69.7103 21.9686 68.1764 23.5912 65.5259 23.5912C62.239 23.5912 59.7842 21.0503 59.7842 17.8051C59.7842 14.3643 62.2598 12.019 65.2416 12.019C68.2442 12.019 69.7129 14.4086 70.1929 15.6999L70.4564 16.3573L62.7216 19.5608C63.3137 20.7217 64.2346 21.3138 65.5259 21.3138C66.8198 21.3138 67.7172 20.6773 68.3746 19.7121ZM62.3042 17.6303L67.4746 15.4834C67.1903 14.7608 66.3346 14.2573 65.3277 14.2573C64.0364 14.2573 62.239 15.3973 62.3042 17.6303Z" fill="#EA4335"/>
<path d="M9.22741 16.3026V13.8478H17.4996C17.5805 14.2756 17.6222 14.7817 17.6222 15.3295C17.6222 17.1713 17.1187 19.4486 15.4961 21.0713C13.9178 22.7147 11.9013 23.5913 9.23002 23.5913C4.27871 23.5913 0.115234 19.5582 0.115234 14.6069C0.115234 9.6556 4.27871 5.62256 9.23002 5.62256C11.9691 5.62256 13.9205 6.69734 15.3865 8.09821L13.6544 9.83038C12.6031 8.8443 11.1787 8.07734 9.22741 8.07734C5.61176 8.07734 2.78393 10.9913 2.78393 14.6069C2.78393 18.2226 5.61176 21.1365 9.22741 21.1365C11.5726 21.1365 12.9083 20.1947 13.7639 19.3391C14.4578 18.6452 14.9144 17.6539 15.0944 16.2999L9.22741 16.3026Z" fill="#4285F4"/>
</g>
<defs>
<clipPath id="clip0_1329_63105">
<rect width="70.9565" height="24" fill="white" transform="translate(0.0214844 5.5)"/>
</clipPath>
</defs>
</svg>
