<svg width="204" height="24" viewBox="0 0 204 24" fill="none" xmlns="http://www.w3.org/2000/svg">
<rect x="0.666504" width="203.333" height="24" rx="4" fill="#F8F8FB"/>
<path d="M13.7967 17V8.06H16.8687C17.4527 8.06 17.9647 8.176 18.4047 8.408C18.8447 8.632 19.1847 8.952 19.4247 9.368C19.6727 9.776 19.7967 10.252 19.7967 10.796C19.7967 11.34 19.6727 11.816 19.4247 12.224C19.1847 12.632 18.8447 12.952 18.4047 13.184C17.9727 13.408 17.4607 13.52 16.8687 13.52H14.7567V17H13.7967ZM14.7567 12.62H16.9167C17.3007 12.62 17.6367 12.548 17.9247 12.404C18.2127 12.252 18.4367 12.04 18.5967 11.768C18.7567 11.488 18.8367 11.16 18.8367 10.784C18.8367 10.408 18.7567 10.084 18.5967 9.812C18.4367 9.54 18.2127 9.332 17.9247 9.188C17.6367 9.036 17.3007 8.96 16.9167 8.96H14.7567V12.62ZM24.1533 17.144C23.5453 17.144 22.9933 17 22.4973 16.712C22.0013 16.416 21.6053 16.016 21.3093 15.512C21.0213 15 20.8773 14.42 20.8773 13.772C20.8773 13.132 21.0213 12.56 21.3093 12.056C21.5973 11.552 21.9853 11.156 22.4733 10.868C22.9693 10.572 23.5293 10.424 24.1533 10.424C24.7773 10.424 25.3333 10.568 25.8213 10.856C26.3173 11.144 26.7053 11.54 26.9853 12.044C27.2733 12.548 27.4173 13.124 27.4173 13.772C27.4173 14.428 27.2693 15.012 26.9733 15.524C26.6773 16.028 26.2813 16.424 25.7853 16.712C25.2973 17 24.7533 17.144 24.1533 17.144ZM24.1533 16.244C24.5853 16.244 24.9733 16.136 25.3173 15.92C25.6693 15.704 25.9453 15.408 26.1453 15.032C26.3533 14.656 26.4573 14.236 26.4573 13.772C26.4573 13.308 26.3533 12.892 26.1453 12.524C25.9453 12.156 25.6693 11.864 25.3173 11.648C24.9733 11.432 24.5853 11.324 24.1533 11.324C23.7213 11.324 23.3293 11.432 22.9773 11.648C22.6333 11.864 22.3573 12.156 22.1493 12.524C21.9413 12.892 21.8373 13.308 21.8373 13.772C21.8373 14.236 21.9413 14.656 22.1493 15.032C22.3573 15.408 22.6333 15.704 22.9773 15.92C23.3293 16.136 23.7213 16.244 24.1533 16.244ZM30.3034 17L28.0954 10.568H29.1154L30.9394 16.196H30.5794L32.2954 10.568H33.1954L34.9114 16.196H34.5514L36.3874 10.568H37.3954L35.1874 17H34.2874L32.6194 11.492H32.8714L31.2034 17H30.3034ZM41.2607 17.144C40.6607 17.144 40.1167 17 39.6287 16.712C39.1487 16.416 38.7687 16.012 38.4887 15.5C38.2087 14.988 38.0687 14.408 38.0687 13.76C38.0687 13.112 38.2047 12.54 38.4767 12.044C38.7487 11.54 39.1167 11.144 39.5807 10.856C40.0527 10.568 40.5807 10.424 41.1647 10.424C41.6287 10.424 42.0407 10.512 42.4007 10.688C42.7687 10.856 43.0807 11.088 43.3367 11.384C43.5927 11.672 43.7887 12 43.9247 12.368C44.0607 12.728 44.1287 13.1 44.1287 13.484C44.1287 13.564 44.1247 13.656 44.1167 13.76C44.1087 13.856 44.0967 13.956 44.0807 14.06H38.6447V13.22H43.5647L43.1327 13.58C43.2047 13.14 43.1527 12.748 42.9767 12.404C42.8087 12.052 42.5647 11.776 42.2447 11.576C41.9247 11.368 41.5647 11.264 41.1647 11.264C40.7647 11.264 40.3927 11.368 40.0487 11.576C39.7127 11.784 39.4487 12.076 39.2567 12.452C39.0647 12.82 38.9887 13.26 39.0287 13.772C38.9887 14.284 39.0687 14.732 39.2687 15.116C39.4767 15.492 39.7567 15.784 40.1087 15.992C40.4687 16.2 40.8527 16.304 41.2607 16.304C41.7327 16.304 42.1287 16.192 42.4487 15.968C42.7687 15.744 43.0287 15.464 43.2287 15.128L43.9967 15.536C43.8687 15.824 43.6727 16.092 43.4087 16.34C43.1447 16.58 42.8287 16.776 42.4607 16.928C42.1007 17.072 41.7007 17.144 41.2607 17.144ZM45.7155 17V10.568H46.6155V11.624L46.4955 11.468C46.6475 11.164 46.8755 10.924 47.1795 10.748C47.4915 10.572 47.8675 10.484 48.3075 10.484H48.7155V11.384H48.1515C47.6875 11.384 47.3155 11.528 47.0355 11.816C46.7555 12.104 46.6155 12.512 46.6155 13.04V17H45.7155ZM52.6982 17.144C52.0982 17.144 51.5542 17 51.0662 16.712C50.5862 16.416 50.2062 16.012 49.9262 15.5C49.6462 14.988 49.5062 14.408 49.5062 13.76C49.5062 13.112 49.6422 12.54 49.9142 12.044C50.1862 11.54 50.5542 11.144 51.0182 10.856C51.4902 10.568 52.0182 10.424 52.6022 10.424C53.0662 10.424 53.4782 10.512 53.8382 10.688C54.2062 10.856 54.5182 11.088 54.7742 11.384C55.0302 11.672 55.2262 12 55.3622 12.368C55.4982 12.728 55.5662 13.1 55.5662 13.484C55.5662 13.564 55.5622 13.656 55.5542 13.76C55.5462 13.856 55.5342 13.956 55.5182 14.06H50.0822V13.22H55.0022L54.5702 13.58C54.6422 13.14 54.5902 12.748 54.4142 12.404C54.2462 12.052 54.0022 11.776 53.6822 11.576C53.3622 11.368 53.0022 11.264 52.6022 11.264C52.2022 11.264 51.8302 11.368 51.4862 11.576C51.1502 11.784 50.8862 12.076 50.6942 12.452C50.5022 12.82 50.4262 13.26 50.4662 13.772C50.4262 14.284 50.5062 14.732 50.7062 15.116C50.9142 15.492 51.1942 15.784 51.5462 15.992C51.9062 16.2 52.2902 16.304 52.6982 16.304C53.1702 16.304 53.5662 16.192 53.8862 15.968C54.2062 15.744 54.4662 15.464 54.6662 15.128L55.4342 15.536C55.3062 15.824 55.1102 16.092 54.8462 16.34C54.5822 16.58 54.2662 16.776 53.8982 16.928C53.5382 17.072 53.1382 17.144 52.6982 17.144ZM60.057 17.144C59.457 17.144 58.917 17 58.437 16.712C57.957 16.416 57.577 16.016 57.297 15.512C57.025 15 56.889 14.424 56.889 13.784C56.889 13.136 57.025 12.56 57.297 12.056C57.577 11.552 57.953 11.156 58.425 10.868C58.905 10.572 59.449 10.424 60.057 10.424C60.609 10.424 61.101 10.544 61.533 10.784C61.965 11.024 62.305 11.348 62.553 11.756L62.409 12.008V7.916H63.309V17H62.409V15.56L62.553 15.692C62.329 16.156 61.993 16.516 61.545 16.772C61.105 17.02 60.609 17.144 60.057 17.144ZM60.105 16.244C60.537 16.244 60.925 16.136 61.269 15.92C61.621 15.704 61.897 15.412 62.097 15.044C62.305 14.668 62.409 14.248 62.409 13.784C62.409 13.32 62.305 12.904 62.097 12.536C61.897 12.16 61.621 11.864 61.269 11.648C60.925 11.432 60.537 11.324 60.105 11.324C59.681 11.324 59.297 11.432 58.953 11.648C58.609 11.864 58.337 12.156 58.137 12.524C57.945 12.892 57.849 13.312 57.849 13.784C57.849 14.248 57.945 14.668 58.137 15.044C58.337 15.412 58.605 15.704 58.941 15.92C59.285 16.136 59.673 16.244 60.105 16.244ZM70.448 17.144C69.896 17.144 69.396 17.02 68.948 16.772C68.508 16.516 68.176 16.156 67.952 15.692L68.096 15.56V17H67.196V7.916H68.096V12.008L67.952 11.756C68.208 11.348 68.548 11.024 68.972 10.784C69.404 10.544 69.896 10.424 70.448 10.424C71.056 10.424 71.596 10.572 72.068 10.868C72.548 11.156 72.924 11.552 73.196 12.056C73.476 12.56 73.616 13.136 73.616 13.784C73.616 14.424 73.476 15 73.196 15.512C72.924 16.016 72.548 16.416 72.068 16.712C71.596 17 71.056 17.144 70.448 17.144ZM70.4 16.244C70.832 16.244 71.216 16.136 71.552 15.92C71.896 15.704 72.164 15.412 72.356 15.044C72.556 14.668 72.656 14.248 72.656 13.784C72.656 13.312 72.556 12.892 72.356 12.524C72.164 12.156 71.896 11.864 71.552 11.648C71.216 11.432 70.832 11.324 70.4 11.324C69.968 11.324 69.576 11.432 69.224 11.648C68.88 11.864 68.604 12.16 68.396 12.536C68.196 12.904 68.096 13.32 68.096 13.784C68.096 14.248 68.196 14.668 68.396 15.044C68.604 15.412 68.88 15.704 69.224 15.92C69.576 16.136 69.968 16.244 70.4 16.244ZM75.2147 19.64C75.0867 19.64 74.9547 19.628 74.8187 19.604C74.6907 19.588 74.5627 19.556 74.4347 19.508V18.668C74.5147 18.676 74.6147 18.688 74.7347 18.704C74.8627 18.728 74.9907 18.74 75.1187 18.74C75.5107 18.74 75.8107 18.656 76.0187 18.488C76.2267 18.328 76.4307 18.016 76.6307 17.552L77.0387 16.592L77.0147 17.384L74.2907 10.568H75.2627L77.4947 16.196H77.2427L79.4627 10.568H80.4587L77.5187 17.816C77.3907 18.128 77.2267 18.424 77.0267 18.704C76.8347 18.984 76.5907 19.208 76.2947 19.376C75.9987 19.552 75.6387 19.64 75.2147 19.64Z" fill="black"/>
<g clip-path="url(#clip0_1337_63648)">
<path fill-rule="evenodd" clip-rule="evenodd" d="M89.6427 15.3499C89.6427 16.4584 90.2397 17.0126 91.5454 17.0126C92.851 17.0126 93.3158 16.4584 93.3158 15.3499V4.8241C93.3158 4.42414 93.4698 4.24805 93.8473 4.24805H95.7718C96.1697 4.24805 96.3033 4.4255 96.3033 4.8241V15.8837C96.3033 17.7442 95.2852 19.4956 91.5467 19.4956C87.8301 19.4956 86.7002 17.7442 86.7002 15.8837V14.5528C86.7002 14.1528 86.8556 13.9986 87.2535 13.9986H89.1126C89.5105 13.9986 89.6441 14.1528 89.6441 14.5528V15.3499H89.6427ZM100.441 18.7626C100.441 19.1611 100.308 19.3168 99.9096 19.3168H98.0288C97.6308 19.3168 97.4754 19.1611 97.4754 18.7626V16.9689C97.4754 16.5703 97.6294 16.4133 98.0288 16.4133H99.9096C100.308 16.4133 100.441 16.5703 100.441 16.9689V18.7626Z" fill="#BD343A"/>
<path d="M104.071 19.3168C103.716 19.3168 103.606 19.1188 103.606 18.7421V4.8241C103.606 4.42414 103.74 4.24805 104.137 4.24805H108.961C112.965 4.24805 114.361 5.9994 114.361 7.86132V15.7062C114.361 17.5681 112.966 19.3181 108.961 19.3181H104.071V19.3168ZM106.593 6.72833V16.8337H108.961C110.466 16.8337 111.373 16.2809 111.373 15.1725V8.39232C111.373 7.2839 110.466 6.7297 108.961 6.7297H106.593V6.72833Z" fill="#BD343A"/>
<path fill-rule="evenodd" clip-rule="evenodd" d="M118.365 18.7628C118.365 19.1614 118.233 19.317 117.833 19.317H115.952C115.554 19.317 115.4 19.1614 115.4 18.7628V16.9691C115.4 16.5706 115.554 16.4136 115.952 16.4136H117.833C118.231 16.4136 118.365 16.5706 118.365 16.9691V18.7628Z" fill="#BD343A"/>
<path d="M127.667 13.9756V18.7423C127.667 19.1409 127.533 19.317 127.135 19.317H125.209C124.811 19.317 124.678 19.1409 124.678 18.7423V4.8243C124.678 4.42435 124.811 4.24826 125.209 4.24826H129.857C133.862 4.24826 135.212 5.99961 135.212 7.86153V10.3664C135.212 12.2269 133.862 13.9783 129.857 13.9783H127.667V13.9756ZM127.667 6.72854V11.4939H129.857C131.34 11.4939 132.246 10.9397 132.246 9.85449V8.39253C132.246 7.28411 131.34 6.72991 129.857 6.72991H127.667V6.72854ZM137.491 7.68271C137.491 5.82079 138.863 4.0708 142.867 4.0708C146.873 4.0708 148.244 5.82215 148.244 7.68271V15.8839C148.244 17.7444 146.873 19.4958 142.867 19.4958C138.863 19.4958 137.491 17.7444 137.491 15.8839V7.68271ZM145.258 8.21371C145.258 7.10529 144.35 6.55108 142.869 6.55108C141.386 6.55108 140.5 7.10529 140.5 8.21371V15.3502C140.5 16.4586 141.386 17.0128 142.869 17.0128C144.351 17.0128 145.258 16.4586 145.258 15.3502V8.21371Z" fill="#BD343A"/>
<path fill-rule="evenodd" clip-rule="evenodd" d="M162.627 12.3377C162.804 13.0898 162.959 14.3306 162.981 14.5313C163.003 14.3743 163.134 13.3342 163.379 12.3595L165.282 4.80128C165.372 4.44637 165.547 4.24707 165.924 4.24707H167.605C168.003 4.24707 168.115 4.44637 168.025 4.80128L164.506 18.7629C164.419 19.1411 164.197 19.3171 163.821 19.3171H161.94C161.609 19.3171 161.408 19.1179 161.321 18.7629L159.373 11.0504C159.24 10.5631 159.086 9.27862 159.064 9.03291C159.042 9.25541 158.864 10.6068 158.753 11.0504L156.806 18.7629C156.717 19.1411 156.518 19.3171 156.119 19.3171H154.239C153.908 19.3171 153.708 19.1179 153.619 18.7629L150.103 4.80128C150.016 4.44637 150.125 4.24707 150.523 4.24707H152.492C152.87 4.24707 153.045 4.44637 153.134 4.80128L154.992 12.3595C155.191 13.1799 155.345 14.2201 155.345 14.2201C155.345 14.2201 155.455 13.4884 155.743 12.3595L157.647 4.80128C157.735 4.44637 157.912 4.24707 158.31 4.24707H160.103C160.501 4.24707 160.678 4.44637 160.765 4.80128L162.627 12.3377ZM170.638 19.3171C170.239 19.3171 170.106 19.1411 170.106 18.7425V4.82448C170.106 4.42453 170.239 4.24707 170.638 4.24707H178.205C178.582 4.24707 178.76 4.38084 178.76 4.77944V6.17588C178.76 6.57447 178.582 6.73008 178.205 6.73008H173.094V10.3201H177.83C178.228 10.3201 178.405 10.4526 178.405 10.8525V12.1821C178.405 12.5588 178.228 12.7144 177.83 12.7144H173.093V16.8369H178.426C178.824 16.8369 178.978 16.9706 178.978 17.3692V18.7643C178.978 19.1629 178.824 19.3171 178.426 19.3171H170.638Z" fill="#BD343A"/>
<path d="M184.423 13.5768V18.7421C184.423 19.1407 184.289 19.3168 183.891 19.3168H181.968C181.569 19.3168 181.437 19.1407 181.437 18.7421V4.8241C181.437 4.42414 181.569 4.24805 181.968 4.24805H186.613C190.618 4.24805 191.969 5.9994 191.969 7.86132V9.96485C191.969 11.2726 191.304 12.5134 189.534 13.1563L191.924 18.7421C192.08 19.0956 191.814 19.3168 191.414 19.3168H189.467C189.156 19.3168 189.069 19.0956 188.913 18.7421L186.745 13.5768H186.613H184.423ZM184.423 6.72833V11.0937H186.613C188.096 11.0937 189.003 10.5409 189.003 9.43248V8.39095C189.003 7.28254 188.096 6.72833 186.613 6.72833H184.423Z" fill="#BD343A"/>
</g>
<defs>
<clipPath id="clip0_1337_63648">
<rect width="105.333" height="16" fill="white" transform="translate(86.6665 4)"/>
</clipPath>
</defs>
</svg>
