<svg width="92" height="92" viewBox="0 0 92 92" fill="none" xmlns="http://www.w3.org/2000/svg">
<path d="M59.2254 77.0531V49.1656L57.7879 48.0156H49.4504L12.3629 48.5906L11.2129 49.1656V78.4906L13.2254 79.9281L57.7879 78.4906L59.2254 77.0531Z" fill="#FFC000"/>
<path d="M67.8496 27.8875L72.7371 32.2L73.3121 33.0625L72.7371 36.225L72.1621 35.3625V33.6375L67.5621 29.0375L66.1246 28.75L65.2621 30.1875L71.2996 36.8V37.6625L64.6871 43.4125L61.2371 41.6875L58.3621 45.425L56.0621 46.575L52.0371 50.3125H49.1621L49.7371 48.0125L58.3621 39.675L58.9371 38.525L58.3621 36.225L60.0871 31.625L63.8246 28.4625L66.4121 27.3125L67.8496 27.8875Z" fill="#FFC000"/>
<path d="M75.0371 35.6484L73.3121 36.5109L74.7496 37.0859L76.1871 36.7984H78.7746L83.3746 38.2359L83.9496 39.0984L83.3746 39.3859L79.3496 39.0984L76.1871 38.5234L73.3121 37.6609L71.8746 39.3859L69.2871 54.0484V57.4984L69.8621 58.3609L75.0371 61.2359H80.4996L82.7996 60.3734L86.8246 42.5484L86.5371 39.3859L85.0996 37.6609L77.6246 35.6484H75.0371Z" fill="#FFC000"/>
<path d="M54.2419 6.32739C54.2419 6.44239 54.4911 7.15156 54.7977 7.91823C55.1044 8.66573 57.0786 13.6682 59.1869 19.0157L63.0011 28.7332L61.8894 29.6341C59.7427 31.3591 58.2286 33.7549 57.8261 36.1124C57.6344 37.2049 57.6536 37.3966 58.0752 38.2207L58.5161 39.1407L57.0977 40.4057C56.3119 41.1149 54.6061 42.7249 53.2836 44.0091C51.9611 45.3124 50.5044 46.6732 50.0636 47.0374L49.2202 47.7274H44.4861C41.8794 47.7274 37.6819 47.7849 35.1519 47.8616L30.5711 47.9766L30.6286 46.8074C30.6861 45.8299 30.6477 45.5999 30.3794 45.5041C29.8811 45.3124 29.1144 46.1941 28.9994 47.0949L28.9036 47.8807L23.9202 48.0149C21.1986 48.0916 18.9369 48.1299 18.8986 48.0916C18.8602 48.0532 17.1352 43.8366 15.0844 38.7191C13.0336 33.6016 10.9444 28.4841 10.4652 27.3149C9.9669 26.1649 9.6219 25.1107 9.66023 24.9957C9.71773 24.8616 10.0819 24.6507 10.4844 24.5166C11.0977 24.3249 27.3702 17.7507 48.8752 9.01073C52.2869 7.63073 53.9736 6.84489 54.0119 6.63406C54.0502 6.46156 53.9544 6.32739 53.7627 6.32739C53.6094 6.32739 51.1369 7.26656 48.3002 8.41656L43.1444 10.5057L40.6911 10.7166C39.3494 10.8316 34.9986 11.1957 31.0502 11.5216C19.6269 12.4607 17.5377 12.6907 17.5377 13.0357C17.5377 13.3999 17.7486 13.3807 27.9836 12.5374C32.3536 12.1732 36.4936 11.8474 37.1836 11.7899C37.9311 11.7324 34.5577 12.5757 28.8461 13.8982C16.4261 16.7349 12.8036 17.6166 12.4969 17.8082C12.2669 17.9424 12.3052 18.2299 12.6502 19.4757C12.8802 20.3191 13.2252 21.3541 13.4169 21.7757L13.7619 22.5807L11.3277 23.5774C10.0052 24.1332 8.89357 24.6124 8.85523 24.6316C8.83607 24.6507 8.89357 24.8807 8.9894 25.1299C9.1044 25.3791 9.9669 27.6216 10.9061 30.0941C11.8452 32.5666 13.7811 37.5691 15.2186 41.1916C16.6561 44.8141 17.8252 47.8424 17.8252 47.9191C17.8252 47.9957 16.4836 48.1107 14.8544 48.1682C12.5736 48.2449 11.7494 48.3407 11.4044 48.5707L10.9252 48.8774V63.6357V78.3941L11.7111 79.2566L12.5161 80.1191H19.7611H27.0252V80.5791C27.0252 80.8474 27.1019 81.0966 27.1977 81.1732C27.2936 81.2307 28.1369 81.0966 29.0569 80.8857C29.9769 80.6749 30.7436 80.5216 30.7627 80.5407C30.8011 80.5791 31.0886 81.2882 31.4336 82.1316C32.2194 84.0674 32.4494 84.3357 32.9286 83.8949C33.1202 83.7224 33.3502 83.5691 33.4077 83.5691C33.4844 83.5691 35.8227 82.6682 38.6019 81.5757L43.6427 79.5824L50.4277 79.3716C59.4744 79.0841 59.5511 79.0841 60.0111 78.3174C60.2794 77.8766 60.3752 77.3591 60.3752 76.3241V74.9441H61.0077C61.9277 74.9441 70.9552 73.8516 71.3769 73.6791C71.7027 73.5641 71.7219 73.3916 71.6069 72.2607L71.4919 70.9766L72.6994 70.6507C74.3669 70.1907 74.4052 70.1716 74.2902 69.9799C74.1752 69.8074 71.8177 70.2674 65.2819 71.7624C63.1927 72.2416 61.4294 72.6441 61.3527 72.6249C61.2952 72.6249 64.0361 71.4941 67.4669 70.1332C70.8786 68.7724 73.7919 67.6991 73.9069 67.7374C74.0219 67.7757 74.1944 68.2166 74.2519 68.6766C74.4052 69.6349 74.7119 70.0374 75.1144 69.7691C75.3444 69.6349 75.3252 69.4241 75.0761 68.4274L74.7886 67.2391L75.6702 66.8557C78.6602 65.5716 78.6027 65.6099 78.4686 65.0349C78.3919 64.7474 78.1427 63.9424 77.8936 63.2716C77.6444 62.6007 77.4336 62.0257 77.4336 61.9874C77.4336 61.9491 78.3152 61.9107 79.4077 61.8916C82.1869 61.8916 82.5511 61.7191 83.3177 60.1474C84.6594 57.3491 85.4261 54.5891 86.2502 49.5482C87.1127 44.3541 87.2086 43.5682 87.2086 42.0541C87.2086 39.9266 86.8444 38.9299 85.6369 37.8566C85.1002 37.3774 84.5827 36.9941 84.4486 36.9749C83.9502 36.9366 83.3752 36.8216 81.6311 36.3807L79.7719 35.9207L80.1744 35.1732C80.4236 34.6941 80.5961 33.8891 80.6536 33.0074C80.7302 31.7424 80.6919 31.5124 80.1361 30.3816C79.4269 28.9632 78.5452 28.1391 77.0886 27.6024C75.0952 26.8549 73.0444 27.3532 71.3961 28.9441L70.6294 29.7107L69.5752 28.8482C69.0002 28.3691 68.3869 27.9282 68.2144 27.8899C67.9652 27.8132 67.8502 27.3149 67.6777 25.6282C67.2944 22.0632 66.1252 11.8474 65.9911 11.0616C65.8377 10.1032 65.3586 9.91156 63.3269 10.0074L61.7552 10.0649L61.4486 8.64656C61.2952 7.87989 61.1994 7.15156 61.2569 7.07489C61.5061 6.67239 60.6436 6.7299 58.1711 7.28573C56.7336 7.63073 55.5261 7.86073 55.4877 7.8224C55.4686 7.78406 55.2577 7.40073 55.0277 6.94073C54.6444 6.19323 54.2419 5.86739 54.2419 6.32739ZM61.0077 9.2599C61.1994 10.2182 62.1769 14.7224 63.1736 19.2457C64.1702 23.7691 64.9561 27.4874 64.9369 27.5066C64.8986 27.5066 64.6302 27.6791 64.3427 27.8707C64.0361 28.0624 63.7677 28.1774 63.7486 28.1391C63.7102 28.1007 63.4611 27.4682 63.1736 26.7399C62.8861 25.9924 61.0844 21.6224 59.1869 17.0032C57.2894 12.3841 55.7752 8.58906 55.7944 8.55073C55.9094 8.47406 60.0494 7.51572 60.3752 7.49656C60.5861 7.47739 60.7586 7.93739 61.0077 9.2599ZM65.3586 10.9082C65.3586 11.4449 66.2594 21.8716 66.5661 24.7657L66.8152 27.2191H66.2977C65.7802 27.2191 65.7611 27.1616 65.2819 25.0532C65.0136 23.8841 64.1511 20.1657 63.3844 16.8307L61.9852 10.7549L63.0394 10.6782C65.4544 10.5249 65.3586 10.5249 65.3586 10.9082ZM39.0427 11.6174C38.9852 11.6749 38.8127 11.6941 38.6786 11.6366C38.5252 11.5791 38.5827 11.5216 38.7936 11.5216C39.0044 11.5024 39.1194 11.5599 39.0427 11.6174ZM26.2011 17.4441C19.7802 20.0891 14.4711 22.2357 14.4136 22.2357C14.2602 22.2357 13.1294 18.2299 13.2444 18.1341C13.2827 18.1149 17.3269 17.1949 22.2336 16.1024C27.1402 15.0099 32.5261 13.8024 34.2127 13.3999C35.8994 13.0166 37.4136 12.6907 37.5669 12.6716C37.7202 12.6716 32.6027 14.8182 26.2011 17.4441ZM68.4636 28.6757C69.1727 29.1549 70.3994 30.1899 71.1852 30.9949L72.6419 32.4707L72.6227 33.5249C72.6036 34.1191 72.5461 34.3682 72.5077 34.0807C72.4119 33.4291 71.8752 32.7774 69.6711 30.5732C67.7161 28.5991 66.8536 28.1007 65.8186 28.2924C65.0327 28.4457 64.0169 29.2124 64.0169 29.6724C64.0169 29.8641 64.7261 30.5924 65.5694 31.3207C66.4127 32.0299 67.7544 33.4099 68.5594 34.3874C69.3644 35.3457 70.2652 36.3424 70.5719 36.6107L71.1277 37.0899L68.8661 39.3132C66.2402 41.8816 65.0902 42.6482 64.1319 42.4757C62.6369 42.1882 59.7427 39.7157 58.8419 37.9524C58.4969 37.2816 58.4394 36.9366 58.5544 36.1316C58.6886 34.9241 59.5894 32.9882 60.4902 31.8766C61.3336 30.8607 63.9019 28.8099 65.2052 28.1199C66.4319 27.4874 66.7386 27.5449 68.4636 28.6757ZM77.3761 28.5416C79.0819 29.4041 80.3086 31.6849 80.0402 33.4291C79.8869 34.3682 79.2161 35.8441 78.9286 35.8441C78.7177 35.8441 78.7561 35.6716 79.2544 34.3107C79.9636 32.4132 79.1394 30.1516 77.3569 29.0399C76.5519 28.5416 76.2261 28.4649 75.1527 28.4649C73.7536 28.4841 72.9486 28.8099 71.9519 29.7491C71.6069 30.0557 71.3002 30.2282 71.2236 30.1324C71.0702 29.8832 72.6994 28.4074 73.2552 28.2924C73.5044 28.2349 73.8686 28.1582 74.0794 28.1007C74.8461 27.9091 76.6286 28.1391 77.3761 28.5416ZM67.0836 29.6532C67.0836 29.9599 67.1411 30.5349 67.1986 30.9566L67.2944 31.7232L66.9302 31.3016C66.4319 30.7457 66.2019 29.5191 66.5469 29.3082C66.9686 29.0399 67.0836 29.1166 67.0836 29.6532ZM76.9544 29.7107C77.3377 29.9407 77.8744 30.4391 78.1619 30.8224C78.6219 31.4166 78.6794 31.6657 78.6794 32.9499C78.6794 34.1382 78.6027 34.5216 78.2577 35.0007L77.8361 35.5949L76.5136 35.4224C75.4977 35.2882 75.0186 35.3074 74.3669 35.5374C73.9069 35.6907 73.5044 35.8057 73.4661 35.7674C73.4469 35.7482 73.5044 35.4224 73.6002 35.0582C73.7152 34.7132 73.7919 34.1382 73.7919 33.8316C73.7919 33.1991 72.9869 31.7807 72.2777 31.1674L71.8752 30.8032L72.2969 30.3241C73.4277 29.0974 75.5361 28.8291 76.9544 29.7107ZM69.7669 32.7007C69.7669 33.3716 69.8436 34.1382 69.9586 34.4449L70.1502 34.9816L69.8052 34.5024C69.6327 34.2532 69.2302 33.7549 68.9427 33.4099C68.6552 33.0841 68.3677 32.4899 68.3102 32.1257C68.2719 31.7424 68.1952 31.1291 68.1569 30.7649L68.0611 30.0941L68.9236 30.8032C69.7477 31.5124 69.7669 31.5316 69.7669 32.7007ZM70.9552 34.8857C71.3194 35.7482 72.5844 36.8791 73.5044 37.1857C73.9836 37.3391 74.7886 37.3966 75.7852 37.3199L77.3377 37.2241L76.4752 37.5116C73.5811 38.4316 70.2844 36.0166 70.3611 33.0266L70.3994 32.1066L70.5336 33.1607C70.6102 33.7357 70.8019 34.5216 70.9552 34.8857ZM71.7794 34.1382C71.6261 34.5791 71.6261 34.5791 71.4727 34.2149C71.3961 34.0041 71.3194 33.6591 71.3194 33.4482C71.3002 33.1032 71.3194 33.1032 71.6069 33.3907C71.8177 33.6016 71.8752 33.8316 71.7794 34.1382ZM81.4586 37.0707C84.7552 37.9332 84.8319 37.9524 85.6177 38.7957C86.0586 39.2557 86.4802 39.8691 86.5569 40.1566C86.6336 40.4824 86.4419 42.0157 86.0777 44.0091C85.3877 47.8232 82.8577 57.9241 82.2252 59.3807C81.8611 60.2432 81.7077 60.3774 81.0944 60.5116C79.8677 60.7607 76.2644 60.6457 74.8652 60.3007C73.3319 59.9366 70.2652 58.3841 69.7477 57.7132C69.0194 56.7932 69.4794 53.0941 71.5111 43.6832C72.4694 39.1791 72.4886 39.1599 73.2744 39.2557C73.6194 39.2941 74.4627 39.1982 75.1527 39.0257C76.3411 38.7574 76.4752 38.7574 77.6252 39.1216C79.8102 39.7924 81.3819 40.0799 82.6277 40.0224C83.8352 39.9649 83.8352 39.9649 83.9694 39.3324C84.0652 38.8916 84.0077 38.6041 83.7777 38.3357C83.1261 37.5307 78.2194 36.4766 76.0344 36.6491C75.3827 36.7066 74.5969 36.6874 74.2711 36.6107L73.6961 36.4766L74.1752 36.2466C75.1144 35.8249 77.8552 36.1316 81.4586 37.0707ZM81.5544 37.9907C83.2027 38.4316 83.5669 38.6232 83.5669 39.0257C83.5669 39.1982 83.3369 39.2941 82.8961 39.2941C82.2061 39.2941 77.2802 38.3932 76.9927 38.2016C76.8969 38.1441 77.1461 37.9332 77.5486 37.7416C78.4111 37.3391 79.2352 37.3774 81.5544 37.9907ZM72.0094 38.8341C71.7602 39.4666 71.3194 40.9424 71.0319 42.1116C70.7252 43.2999 70.4186 44.2774 70.3419 44.2774C70.1694 44.2774 69.1919 41.8049 69.1919 41.3641C69.1919 41.1916 69.6327 40.6741 70.1694 40.2141C70.7061 39.7732 71.3961 38.9874 71.7219 38.4891C72.0477 37.9907 72.3544 37.6074 72.3927 37.6457C72.4311 37.6841 72.2586 38.2207 72.0094 38.8341ZM58.8419 40.6741C58.5927 40.8657 57.4427 41.9199 56.2736 43.0124C55.1044 44.1049 53.4944 45.5807 52.7086 46.3091C51.1561 47.7274 51.0027 47.9191 51.4052 47.9191C51.5394 47.9191 53.2069 46.4816 55.1044 44.7374C57.0019 42.9932 58.7844 41.4024 59.0719 41.1916L59.6086 40.8082L59.8002 41.3257C59.9919 41.8049 59.9344 41.9391 58.9761 42.9166C58.4202 43.5107 57.6727 44.3541 57.3277 44.7949C56.8869 45.3699 56.5611 45.6191 56.2352 45.6191C55.6027 45.6191 55.0086 45.9449 55.0086 46.2707C55.0086 46.4241 54.6636 46.6732 54.2419 46.8457C53.6861 47.0566 53.2452 47.4782 52.6511 48.2832C51.9611 49.2799 51.7119 49.4716 50.8494 49.7207C50.3127 49.8932 49.8144 50.0274 49.7377 50.0274C49.6802 50.0274 49.6802 49.6249 49.7569 49.1457C49.8527 48.4366 50.0252 48.1107 50.5811 47.6507C50.9644 47.3441 52.4786 45.8874 53.9544 44.4499C55.4302 43.0124 57.1169 41.4216 57.6919 40.9041C58.2669 40.4057 58.7844 39.9074 58.8227 39.8116C58.8611 39.7157 58.9761 39.7732 59.0911 39.9649C59.2444 40.2524 59.1869 40.3866 58.8419 40.6741ZM68.9619 45.0441L69.5752 47.8232L69.1727 49.9316C68.9619 51.0816 68.7319 53.0749 68.6744 54.3591C68.5402 57.0999 68.8277 58.3266 69.8244 59.1507C70.7252 59.8982 73.9836 61.4316 75.2677 61.6999L76.4177 61.9491L77.0119 63.4057C77.3377 64.2107 77.5869 64.9007 77.5486 64.9391C77.5102 64.9582 76.6286 65.3224 75.5936 65.7249C74.5394 66.1274 70.6869 67.6799 67.0261 69.1749C63.3461 70.6891 60.2794 71.8582 60.2219 71.7816C60.1452 71.7049 60.0877 66.8174 60.0877 60.8949C60.0686 48.9541 60.0302 48.4366 58.9952 48.0341C58.7077 47.9191 58.4586 47.7657 58.4586 47.6891C58.4586 47.6124 57.8836 47.5357 57.1936 47.5357C56.0819 47.5357 55.9477 47.4974 56.1586 47.2482C56.2927 47.0949 56.6377 46.9607 56.9252 46.9607C57.3277 46.9607 57.9027 46.5007 59.4744 44.9482L61.5061 42.9357L62.8286 43.3766C64.6302 43.9899 65.4736 43.8749 66.9686 42.8399C67.6011 42.3991 68.1952 42.0732 68.2527 42.1499C68.3102 42.2074 68.6361 43.5107 68.9619 45.0441ZM58.0944 48.3024C58.4394 48.4941 58.4586 48.7432 58.4586 52.1932C58.4586 54.2249 58.5927 60.0132 58.7461 65.0732C59.1294 77.6274 59.1294 77.1866 58.6119 77.4549C58.3052 77.6274 56.2927 77.7424 52.3252 77.8382C36.5127 78.2407 29.6511 78.4324 21.5627 78.6816C16.7136 78.8157 12.6119 78.9307 12.4202 78.9307C12.2477 78.9116 12.0177 78.7199 11.9219 78.4899C11.8069 78.2599 11.7111 72.4332 11.6727 63.7507L11.5961 49.4141L12.0177 49.0882C12.3819 48.7816 13.4552 48.7432 25.5302 48.6282C32.7177 48.5516 40.9594 48.4366 43.8344 48.3599L49.0477 48.2449L48.9327 49.2224C48.7794 50.6216 48.9711 50.7941 50.7152 50.7941C51.9611 50.7941 52.2102 50.7366 52.9961 50.1999C53.4944 49.8741 53.9927 49.3757 54.1077 49.1074C54.2227 48.8391 54.5869 48.5132 54.9127 48.3791C55.6027 48.0724 57.5769 48.0341 58.0944 48.3024ZM70.8402 71.5707C70.8977 71.8199 70.9169 72.2991 70.8786 72.6632L70.8211 73.2957L66.1636 73.8132C63.6144 74.1007 61.2761 74.3691 60.9694 74.4266C60.5094 74.5224 60.3944 74.4649 60.2986 74.1199C60.2411 73.9091 60.2411 73.6791 60.2794 73.6407C60.3369 73.5832 70.0352 71.2257 70.5719 71.1299C70.6486 71.1299 70.7636 71.3216 70.8402 71.5707ZM39.4836 80.3491C38.6977 80.6749 36.8769 81.4416 35.4202 82.0357L32.8136 83.1282L32.3344 81.8632C32.0661 81.1732 31.8169 80.4449 31.7594 80.2724C31.6252 79.9082 32.2769 79.8699 38.3336 79.7741L40.9211 79.7549L39.4836 80.3491ZM28.4627 80.1191C28.2519 80.2149 27.9452 80.2916 27.7919 80.2916C27.6194 80.2916 27.6386 80.2149 27.8877 80.1191C28.0986 80.0232 28.4052 79.9466 28.5586 79.9466C28.7311 79.9466 28.7119 80.0232 28.4627 80.1191Z" fill="#356799"/>
<path d="M63.8637 32.9153C63.9979 33.2412 67.6587 36.672 67.7545 36.5762C67.927 36.4037 66.2404 34.257 65.3587 33.4903C64.6304 32.877 63.672 32.5128 63.8637 32.9153Z" fill="#356799"/>
<path d="M63.3656 34.6551C63.2506 34.8468 65.5122 36.8401 65.7614 36.7635C65.8764 36.7251 65.5314 36.2076 64.9756 35.5943C64.0364 34.5785 63.5956 34.3101 63.3656 34.6551Z" fill="#356799"/>
<path d="M66.5089 37.3382C66.6239 37.5874 66.7773 37.7407 66.8539 37.6832C66.9114 37.6066 66.8156 37.4149 66.6239 37.2232C66.2789 36.9166 66.2789 36.9166 66.5089 37.3382Z" fill="#356799"/>
<path d="M75.5169 39.6809C75.5169 40.0067 77.7786 40.9842 79.2544 41.2909C79.9828 41.4442 81.3436 41.6359 82.2828 41.6934L83.9503 41.8276V42.4217C83.9311 43.3801 83.1261 45.5267 82.8003 45.5076C80.5578 45.2967 74.3669 43.8592 74.3669 43.5526C74.3669 43.3417 75.0953 40.3901 75.2294 40.0067C75.4211 39.5467 74.8269 39.5659 74.5778 40.0259C74.2519 40.6392 73.9261 42.8434 74.0603 43.5526C74.1369 44.0126 74.3286 44.3001 74.6544 44.4342C76.2453 45.1626 82.8003 46.2742 82.9536 45.8526C82.9919 45.7184 83.1069 45.6609 83.1836 45.7184C83.7011 46.0251 84.7169 43.8784 84.7169 42.5176C84.7169 41.8659 84.3911 41.1567 84.1611 41.2909C83.8544 41.4826 78.4686 40.4667 77.1844 39.9876C75.7469 39.4317 75.5169 39.3934 75.5169 39.6809Z" fill="#356799"/>
<path d="M73.1407 45.2183C72.6807 45.7167 72.0674 48.1125 72.0674 49.3583C72.0674 51.0258 72.8915 51.6392 76.2265 52.4633C77.7407 52.8275 78.8332 52.9617 80.309 52.9808L82.3215 53L82.6474 52.3292C82.839 51.9458 83.1265 50.7767 83.3182 49.7033C83.759 47.1733 83.6632 46.9433 82.0149 46.5983C80.6732 46.33 78.6224 45.8508 76.054 45.2567C74.214 44.8158 73.984 44.7775 73.984 45.0075C73.984 45.3142 79.0824 46.8283 81.0182 47.0775C82.6665 47.2883 82.724 47.3842 82.4749 49.3775C82.3407 50.3167 82.149 51.4092 82.034 51.8117L81.8232 52.54L80.1557 52.4058C77.3382 52.2142 74.7507 51.4283 73.294 50.3358L72.5082 49.7608L72.6807 48.7833C72.7765 48.2658 73.0257 47.2308 73.2365 46.5217C73.6774 45.0267 73.6582 44.6625 73.1407 45.2183Z" fill="#356799"/>
<path d="M71.7024 52.558C71.2041 53.6314 70.9741 56.123 71.2999 56.928C71.8174 58.1547 74.9991 59.1514 78.6791 59.2472L80.5957 59.3047L81.1132 58.2697C81.6882 57.0622 82.0907 55.2414 81.9182 54.5705C81.8224 54.1489 81.5924 54.0339 80.3466 53.6889C79.5224 53.478 77.7591 53.1139 76.3791 52.8839C75.0182 52.6539 73.5616 52.3089 73.1782 52.1172C72.7757 51.9064 72.3924 51.753 72.2774 51.753C72.1816 51.753 71.9324 52.1172 71.7024 52.558ZM73.1782 52.9797C73.5999 53.133 75.5166 53.5739 77.4524 53.9572C79.3882 54.3405 80.9791 54.6664 80.9982 54.6855C81.0749 54.7814 80.1741 58.4614 80.0591 58.5955C79.6949 58.9405 72.9482 57.7522 72.0091 57.1772C71.7024 56.9855 72.0282 52.7114 72.3541 52.7114C72.3732 52.7114 72.7566 52.8264 73.1782 52.9797Z" fill="#356799"/>
<path d="M34.5002 52.6521C32.2002 52.7479 18.9177 53.2846 15.4869 53.3996C12.6502 53.5146 12.0752 53.5721 12.0752 53.8213C12.0752 54.2238 39.3302 54.0513 45.521 53.5913C47.8402 53.4188 51.4627 53.2271 53.571 53.1504C55.6794 53.0546 57.4044 52.9204 57.4044 52.8246C57.4044 52.6521 37.701 52.5179 34.5002 52.6521Z" fill="#356799"/>
<path d="M17.8256 55.3958C15.2381 55.4533 13.0914 55.53 13.0531 55.5492C13.0147 55.5683 13.0147 59.0758 13.0722 63.3308C13.1297 69.4642 13.1872 71.1317 13.3981 71.3808C13.6281 71.6492 14.2414 71.6875 18.4773 71.6875C21.1223 71.6875 23.8823 71.63 24.5914 71.5533L25.8948 71.4383L25.7606 63.465C25.7031 59.0758 25.6264 55.4725 25.6073 55.4725C25.4923 55.3575 21.6398 55.3192 17.8256 55.3958ZM25.1473 63.2925C25.1856 67.4325 25.2239 70.8442 25.2048 70.8442C25.2048 70.8633 22.5981 70.94 19.4164 71.0167L13.6089 71.1508V69.8092V68.4675L14.4331 68.3333C14.8739 68.2567 15.3723 68.1225 15.5447 68.0267C15.7747 67.9117 15.9856 68.0075 16.3114 68.3717C16.9439 69.0425 18.2089 69.9625 18.5348 69.9625C18.9756 69.9625 18.4964 69.2917 17.3656 68.3717L16.3306 67.5283L16.7139 66.9342L17.0973 66.3208L17.6148 66.685C18.2473 67.145 19.1673 67.3942 19.1673 67.1258C19.1673 67.03 18.7648 66.6083 18.2856 66.225C17.3273 65.4392 16.8481 64.5192 16.5031 62.8517L16.2731 61.7975L17.0973 60.9158L17.9214 60.015L18.4006 60.3792C19.0906 60.9158 20.5089 61.2033 21.1414 60.9733C21.6589 60.7817 21.8889 60.3217 21.4289 60.4175C20.8156 60.5325 19.3206 60.13 18.6498 59.67L17.9406 59.1908L17.1164 60.1108L16.2923 61.05V59.9767C16.2923 58.5775 16.5414 58.3667 18.9181 57.6958C20.6623 57.1975 20.7964 57.1975 20.9306 57.5042C21.0839 57.945 21.5631 58.1175 22.1956 57.945L22.6939 57.83L22.3681 58.3283C22.1956 58.6158 21.9081 59.0567 21.7356 59.325C21.2373 60.0917 21.6014 60.13 22.3489 59.4017C23.1156 58.6733 23.5756 57.9067 23.5756 57.3317C23.5756 56.7758 23.2881 56.6992 22.5023 57.025C21.6398 57.3892 21.6781 57.3892 21.8123 56.8908C21.9081 56.5075 21.8698 56.4883 20.6814 56.6033C18.9373 56.7758 16.9056 57.4467 16.2731 58.06C15.8131 58.52 15.7556 58.7308 15.7364 59.8808C15.7173 60.8775 15.6406 61.2608 15.4106 61.4333C14.9314 61.7783 15.1614 63.235 15.7747 63.7333C16.4456 64.2892 16.7139 65.5733 16.3114 66.3592C16.0623 66.8575 15.7556 67.0683 14.8164 67.4133L13.6089 67.835V64.5192C13.6089 62.6983 13.5514 60.0342 13.4747 58.5967L13.3597 55.9708L18.8031 55.9133C21.7931 55.8942 24.4381 55.8558 24.6681 55.8175L25.0706 55.7792L25.1473 63.2925ZM16.0814 63.0625C16.0814 63.5033 16.0623 63.5033 15.9089 63.1583C15.8131 62.9475 15.7364 62.5642 15.7364 62.2958C15.7364 61.855 15.7556 61.855 15.9089 62.2C16.0048 62.4108 16.0814 62.7942 16.0814 63.0625Z" fill="#356799"/>
<path d="M22.7896 59.2281C22.4062 59.5348 22.3871 59.6306 22.5979 59.784C22.8087 59.9181 22.7704 60.0523 22.3296 60.4548C21.8504 60.8956 21.8312 60.9531 22.1762 60.9531C22.7512 60.9531 23.5754 60.0331 23.5754 59.4006C23.5754 58.749 23.4029 58.7106 22.7896 59.2281Z" fill="#356799"/>
<path d="M22.6168 61.3396C22.406 61.4737 22.4251 61.5696 22.6935 61.8379C22.9618 62.0871 23.0001 62.3554 22.9043 63.0071C22.751 64.0037 23.0768 64.1187 23.3835 63.1604C23.7668 62.0104 23.3068 60.9179 22.6168 61.3396Z" fill="#356799"/>
<path d="M22.1377 62.1399C22.0994 62.2741 22.0227 62.8107 21.9461 63.3474C21.7544 64.7849 21.1602 65.8774 20.2402 66.4716C19.6461 66.8549 19.5311 66.9891 19.7994 67.0466C19.9719 67.0849 20.4127 66.9507 20.7386 66.7591L21.3519 66.3949L21.6969 67.0657L22.0419 67.7366L20.7961 69.0016C19.6844 70.1132 19.3011 70.7266 19.6844 70.7266C19.8761 70.7266 21.1219 69.7682 21.9844 68.9441L22.7894 68.1774L23.6711 68.4266C24.1502 68.5607 24.6102 68.6182 24.6869 68.5416C24.8977 68.3116 23.9969 67.6791 23.3069 67.5449C22.8277 67.4682 22.5594 67.2574 22.2527 66.7016L21.8502 65.9732L22.2336 65.1491C22.6361 64.2291 22.7702 61.9099 22.4252 61.9099C22.3102 61.9099 22.1952 62.0249 22.1377 62.1399Z" fill="#356799"/>
<path d="M30.494 56.1617C28.2899 56.3533 27.4082 56.5067 27.4082 56.7175C27.4082 56.8133 27.6574 56.9283 27.9832 56.9858C28.6157 57.12 40.6332 56.6025 40.7865 56.4492C40.844 56.3917 40.8249 56.2958 40.7482 56.2192C40.5374 56.0083 32.6599 55.97 30.494 56.1617Z" fill="#356799"/>
<path d="M30.7625 59.4574C28.1558 59.649 27.1783 59.8407 27.0825 60.1282C27.025 60.2624 27.2741 60.4157 27.6383 60.4732C28.6158 60.6649 37.375 60.0132 38.3333 59.6874C39.5983 59.2465 35.075 59.1124 30.7625 59.4574Z" fill="#356799"/>
<path d="M48.5307 62.4859C46.6715 62.7351 45.9432 62.9267 45.8474 63.2526C45.7707 63.4634 46.2499 63.4826 48.7032 63.3676C51.6357 63.2526 53.9932 62.9842 54.204 62.7926C54.2615 62.7351 54.2615 62.6201 54.1849 62.5626C53.9932 62.3517 50.0065 62.3134 48.5307 62.4859Z" fill="#356799"/>
<path d="M34.2125 63.0764C32.8517 63.1339 31.7017 63.2105 31.6825 63.2297C31.6442 63.2297 31.625 63.383 31.625 63.5364C31.625 64.0155 32.5067 64.073 35.535 63.8239C38.3525 63.5939 39.3683 63.4022 38.7167 63.1722C38.1608 62.9997 36.6658 62.9614 34.2125 63.0764Z" fill="#356799"/>
<path d="M42.7802 63.2925C42.876 63.58 44.256 63.6375 44.3327 63.35C44.3519 63.235 43.9877 63.1392 43.5277 63.1009C42.9144 63.0625 42.7227 63.1009 42.7802 63.2925Z" fill="#356799"/>
<path d="M27.159 63.3873C26.8332 63.694 27.1015 63.8281 27.9832 63.8281C28.5198 63.8281 28.9415 63.7515 28.9415 63.6556C28.9415 63.349 27.4273 63.0998 27.159 63.3873Z" fill="#356799"/>
<path d="M47.2461 64.573C46.9011 64.6496 46.6519 64.8413 46.6136 65.0521C46.5369 65.3971 46.6519 65.4163 49.5269 65.2821C53.0727 65.1288 54.8169 64.9755 54.8169 64.7838C54.8169 64.7071 54.4144 64.5921 53.9352 64.5155C52.8236 64.3621 48.0127 64.4005 47.2461 64.573Z" fill="#356799"/>
<path d="M43.2786 64.7279C43.0869 64.7662 42.9336 64.9387 42.9336 65.0921C42.9336 65.4179 43.8153 65.4562 44.6011 65.1496C45.0228 64.9962 45.0611 64.9196 44.8503 64.7854C44.5628 64.5938 43.8536 64.5746 43.2786 64.7279Z" fill="#356799"/>
<path d="M31.2424 65.1692C30.6674 65.5525 31.4532 65.7633 32.9674 65.6483C34.8074 65.5142 35.459 65.38 35.459 65.15C35.459 64.92 31.6065 64.9392 31.2424 65.1692Z" fill="#356799"/>
<path d="M27.0254 65.5346C27.0254 65.7838 27.3896 65.8796 28.0221 65.7838C28.8271 65.6688 28.6737 65.3621 27.7921 65.3621C27.3704 65.3621 27.0254 65.4388 27.0254 65.5346Z" fill="#356799"/>
<path d="M27.159 70.6502C26.7949 71.0144 27.1399 71.1294 28.424 71.0719C29.1715 71.0336 29.804 70.9186 29.804 70.8227C29.804 70.6119 27.3699 70.4586 27.159 70.6502Z" fill="#356799"/>
<path d="M31.625 70.8027C31.625 70.9752 31.7592 71.1094 31.9317 71.1094C32.1042 71.1094 32.2 71.0135 32.1617 70.8794C32.0467 70.5344 31.625 70.4769 31.625 70.8027Z" fill="#356799"/>
<path d="M16.3304 73.7212C15.5062 74.5837 15.4487 74.5646 15.8512 73.4912C16.0045 73.0696 15.5062 72.9929 15.1037 73.3571C14.452 73.9321 13.9537 74.7371 14.107 74.9671C14.2029 75.1204 14.3562 75.0437 14.6054 74.7371L14.9504 74.2771L14.8354 75.0821C14.7204 75.7912 14.7587 75.9062 15.0654 75.9062C15.257 75.9062 15.6595 75.6762 15.947 75.3887C16.3495 75.0054 16.4837 74.9479 16.4837 75.1779C16.4837 75.3504 16.6179 75.5804 16.7712 75.7146C17.212 76.0788 17.5379 75.6954 17.8254 74.4879C18.2662 72.6096 17.6912 72.3221 16.3304 73.7212Z" fill="#356799"/>
<path d="M21.4281 73.7933C21.1406 74.0042 20.7956 74.1192 20.6231 74.0617C20.4698 74.0042 20.0481 74.1 19.7031 74.2917C19.3581 74.4642 18.9556 74.675 18.8023 74.7517C18.3614 74.9433 18.3423 75.2692 18.7831 75.3842C19.0323 75.4417 19.3773 75.3267 19.7223 75.02C20.0289 74.7708 20.4889 74.56 20.7573 74.56C21.0064 74.56 21.3323 74.4258 21.4664 74.2725C21.8114 73.8508 22.0414 73.9275 22.0414 74.4642C22.0414 74.8092 22.1373 74.9433 22.3864 74.9433C22.8464 74.9433 24.9548 74.215 25.1848 73.985C25.4723 73.6975 23.9964 73.755 23.1531 74.0617C22.4823 74.2917 22.4439 74.2917 22.3864 73.9275C22.3098 73.3717 22.0031 73.3333 21.4281 73.7933Z" fill="#356799"/>
<path d="M40.3465 73.8113C37.6056 73.9838 31.1656 74.6546 29.0381 75.0188C28.2715 75.1338 27.7348 75.3063 27.7923 75.4213C27.9265 75.6705 30.0156 75.6705 36.609 75.3638C39.6181 75.2296 45.0423 75.0571 48.684 74.9613C52.3256 74.8846 55.4498 74.7313 55.6415 74.6546C56.2548 74.4055 55.8715 74.0988 54.6065 73.8496C53.2073 73.6005 44.3906 73.5621 40.3465 73.8113Z" fill="#356799"/>
<path d="M16.8476 13.4541C16.7901 14.0291 16.9051 16.3866 16.9817 16.4824C17.0392 16.5208 17.1542 16.4441 17.2692 16.2908C17.5376 15.8691 17.4034 13.3774 17.1159 13.2624C16.9817 13.2241 16.8667 13.3008 16.8476 13.4541Z" fill="#356799"/>
<path d="M44.8503 15.9911C41.8986 16.9302 35.6503 19.3452 31.7211 21.0702C30.2453 21.7219 28.2903 22.5844 27.3703 22.9677C26.3544 23.3702 25.6836 23.7727 25.6836 23.9261C25.6836 24.4244 27.1403 24.0794 29.9961 22.9486C40.0778 18.9427 47.9169 15.6077 47.9169 15.3202C47.9169 15.0519 47.5911 15.1094 44.8503 15.9911Z" fill="#356799"/>
<path d="M42.0326 19.6298C35.9951 21.6615 27.2168 25.5331 27.2168 26.1656C27.2168 26.319 27.2935 26.4531 27.3893 26.4531C27.6001 26.4531 31.5293 24.8431 35.0751 23.2906C36.6085 22.6198 39.4643 21.4123 41.4576 20.6073C43.4318 19.7831 45.0993 19.0548 45.1568 18.959C45.3485 18.614 44.5243 18.8056 42.0326 19.6298Z" fill="#356799"/>
<path d="M23.0579 20.6832C21.8504 21.4307 20.4896 23.654 19.3588 26.759C18.9563 27.9282 18.9371 27.9282 18.4196 27.7365C16.5988 27.0465 17.0396 29.3082 18.8988 30.1899C19.9529 30.6882 20.4129 30.4007 20.8538 28.9057L21.2179 27.6982L21.7929 28.9632C22.3679 30.209 22.6938 30.6307 22.8663 30.3432C23.0196 30.1132 22.0613 27.2957 21.7546 27.0274C21.5246 26.8357 21.5629 26.5865 22.0613 25.2449C22.3871 24.3824 22.9429 22.9832 23.3071 22.1399C24.1696 20.089 24.1696 20.0124 23.0579 20.6832Z" fill="#356799"/>
<path d="M52.6132 25.4943C48.8949 26.4527 43.7774 28.3501 39.6949 30.3051C35.6891 32.2218 28.9424 35.8443 28.9424 36.0743C28.9424 36.5726 30.7824 35.921 34.9224 33.9276C41.0749 30.9568 45.7516 28.906 50.6007 27.0276C52.8624 26.146 54.7982 25.3793 54.8749 25.3027C55.2966 24.9385 54.5491 24.996 52.6132 25.4943Z" fill="#356799"/>
<path d="M16.9631 26.377C16.2347 26.6453 15.4681 26.8753 15.2956 26.8753C14.7972 26.8561 14.8547 27.3161 15.6022 29.2136C16.3306 31.0536 16.7714 31.8203 17.0972 31.8203C17.4997 31.8203 17.0206 29.9995 15.9856 27.6803C15.9281 27.5461 16.4264 27.2011 17.1356 26.8753C17.8256 26.5495 18.4006 26.1853 18.4006 26.0895C18.4006 25.8211 18.5347 25.802 16.9631 26.377Z" fill="#356799"/>
<path d="M43.3165 31.8032C39.3106 33.4323 35.3431 35.234 32.8323 36.5565C30.8965 37.5723 30.5131 37.8598 30.7431 38.0898C30.9156 38.2623 32.334 37.6682 38.3331 34.889C45.2331 31.669 46.7665 30.9215 46.7665 30.6723C46.7665 30.404 46.7665 30.404 43.3165 31.8032Z" fill="#356799"/>
<path d="M20.1252 31.0334C18.6685 31.4934 17.8252 31.9726 17.8252 32.2984C17.8252 32.4709 17.9977 32.5859 18.266 32.5859C18.726 32.5859 21.1027 31.4934 21.7544 30.9759C22.1377 30.6884 22.1377 30.6884 21.6585 30.6884C21.3902 30.6884 20.7002 30.8418 20.1252 31.0334Z" fill="#356799"/>
<path d="M25.5493 34.541C24.9743 35.4993 23.7668 38.796 23.7668 39.4285C23.7668 39.6393 23.6518 39.6968 23.3452 39.601C22.2143 39.2752 21.9077 39.2752 21.6777 39.5627C21.5435 39.716 21.486 40.0227 21.5627 40.2527C21.7352 40.8085 23.6135 42.1693 24.1885 42.1693C24.8018 42.1693 25.281 41.6327 25.4343 40.751C25.4918 40.3677 25.5877 40.061 25.6643 40.061C25.7218 40.0802 25.971 40.5018 26.2202 41.0193C26.4693 41.556 26.8335 42.0735 27.0443 42.1693C27.351 42.3418 27.4085 42.3035 27.4085 41.8818C27.4085 41.211 26.5077 39.486 26.1627 39.486C26.0093 39.486 25.8752 39.5818 25.8752 39.716C25.8752 39.831 25.8177 39.8885 25.7602 39.831C25.7027 39.7735 25.8368 38.8343 26.0477 37.7418C26.6418 34.5793 26.7377 33.5443 26.4118 33.5443C26.2777 33.5443 25.8752 34.0043 25.5493 34.541Z" fill="#356799"/>
<path d="M39.2157 36.4364C36.8965 37.3755 32.7565 39.4839 32.8715 39.6755C32.929 39.7714 33.1015 39.8672 33.2357 39.8672C33.5232 39.8672 39.829 36.743 40.3465 36.3405C40.8832 35.9189 40.3848 35.9572 39.2157 36.4364Z" fill="#356799"/>
<path d="M21.0454 38.2971C19.3779 39.1596 19.3779 39.1596 20.6046 41.6704C21.8504 44.1621 22.0421 44.4688 22.3104 44.4688C22.7321 44.4688 25.5879 42.9929 25.9521 42.5713C26.3163 42.1688 26.3163 42.1688 25.9138 42.1688C25.7029 42.1688 24.8021 42.4371 23.9204 42.7438C23.0388 43.0696 22.2721 43.3379 22.1763 43.3763C22.0996 43.3954 21.8121 42.7821 21.5438 41.9963C21.2946 41.2296 20.9304 40.3288 20.7771 40.0221C20.6046 39.7154 20.5088 39.4279 20.5471 39.4088C20.5854 39.3896 20.9304 39.1979 21.3329 39.0063C21.7354 38.7954 22.3488 38.3929 22.6746 38.1054C23.2304 37.6263 23.2496 37.5879 22.8663 37.5688C22.6363 37.5688 21.8121 37.8946 21.0454 38.2971Z" fill="#356799"/>
<path d="M53.8583 38.2593C51.2324 39.0452 47.6483 40.521 43.6808 42.476C39.8091 44.3735 35.2666 46.9227 35.2666 47.191C35.2666 47.5168 35.8991 47.306 38.4674 46.0793C45.3099 42.8018 48.6449 41.2493 51.5583 39.9652C55.6791 38.1635 55.7749 38.106 55.7749 37.9143C55.7749 37.7035 55.7174 37.7227 53.8583 38.2593Z" fill="#356799"/>
<path d="M47.0356 44.2968C44.8506 45.1018 42.6656 46.2518 42.589 46.6351C42.5506 46.8076 42.6081 46.9609 42.7231 46.9609C43.1065 46.9609 48.8756 44.0859 48.8756 43.8943C48.8756 43.6259 48.799 43.6451 47.0356 44.2968Z" fill="#356799"/>
<path fill-rule="evenodd" clip-rule="evenodd" d="M76.7348 21.4536C77.0404 21.3679 77.2219 21.0501 77.1402 20.7437C76.884 19.7825 76.5444 18.2303 76.3615 16.7144C76.2701 15.9565 76.2194 15.22 76.2349 14.5775C76.2507 13.9229 76.3346 13.4193 76.4762 13.0947C76.6039 12.8022 76.4727 12.4637 76.1833 12.3388C75.8939 12.2138 75.5558 12.3496 75.4282 12.6421C75.1959 13.1745 75.1068 13.8578 75.0898 14.5629C75.0724 15.2802 75.129 16.0762 75.2244 16.8662C75.415 18.4465 75.7667 20.0526 76.0336 21.054C76.1153 21.3604 76.4292 21.5393 76.7348 21.4536Z" fill="#FFC000"/>
<path fill-rule="evenodd" clip-rule="evenodd" d="M80.0912 22.7272C80.3563 22.7626 80.6372 22.5476 80.7187 22.2469C80.9471 21.4037 82.3171 18.8325 85.9628 16.4557C86.2181 16.2893 86.3372 15.9493 86.2289 15.6965C86.1206 15.4436 85.8258 15.3736 85.5705 15.54C81.7304 18.0435 80.0965 20.872 79.7587 22.1187C79.6772 22.4193 79.8261 22.6917 80.0912 22.7272Z" fill="#FFC000"/>
<path fill-rule="evenodd" clip-rule="evenodd" d="M81.352 24.4713C81.4907 24.7433 81.824 24.8408 82.0966 24.6891C82.7282 24.3374 83.7118 23.7721 84.6132 23.2173C85.0636 22.9402 85.498 22.6627 85.8596 22.4141C86.2083 22.1744 86.5288 21.935 86.7206 21.7365C86.9392 21.5103 86.9431 21.1533 86.7292 20.939C86.5153 20.7248 86.1648 20.7345 85.9462 20.9607C85.8461 21.0643 85.6162 21.2447 85.2645 21.4865C84.9255 21.7196 84.5094 21.9856 84.0674 22.2576C83.1839 22.8014 82.2154 23.358 81.5943 23.7038C81.3218 23.8556 81.2133 24.1992 81.352 24.4713Z" fill="#FFC000"/>
</svg>
