<svg width="133" height="277" viewBox="0 0 133 277" fill="none" xmlns="http://www.w3.org/2000/svg">
<path d="M56 178.5C63.2986 180.337 67.571 181.081 76 180.5L75 170C81.4582 172.626 84.7065 171.677 94 169.5C94 173.21 95 176.79 95 180.5C102 177 106 175 112.5 169.5L105.5 133.5L104.5 124.5L103.5 124L101.5 115.5C109.638 106.004 114.448 100.731 118.5 92C120.982 91.6229 122.267 90.4859 124 87L125 82C115.213 82.8846 113 81.5 108.5 76L104.5 78.5L105.5 82C94.3437 93.7237 89.1902 98.6368 87.5 95.5L85 97.5V107.5L80.5 115.5L75 112L70 107V98.5L67.5 98L65.5 102.5C56.5 112.5 50.5 118.152 39.5 125L43 132C44 148 38.6251 148.441 31.5 145C35.5 155 42 155 50 142.5L57 135C59 141.5 57.7663 164.245 56 178.5Z" fill="#60CEF5"/>
<path d="M56 178.5C63.2986 180.337 67.571 181.081 76 180.5L75 170C81.4582 172.626 84.7065 171.677 94 169.5C94 173.21 95 176.79 95 180.5C102 177 106 175 112.5 169.5L105.5 133.5L104.5 124.5L103.5 124L101.5 115.5C109.638 106.004 114.448 100.731 118.5 92C120.982 91.6229 122.267 90.4859 124 87L125 82C115.213 82.8846 113 81.5 108.5 76L104.5 78.5L105.5 82C94.3437 93.7237 89.1902 98.6368 87.5 95.5L85 97.5V107.5L80.5 115.5L75 112L70 107V98.5L67.5 98L65.5 102.5C56.5 112.5 50.5 118.152 39.5 125L43 132C44 148 38.6251 148.441 31.5 145C35.5 155 42 155 50 142.5L57 135C59 141.5 57.7663 164.245 56 178.5Z" fill="#FFCB30"/>
<path d="M75.9154 80.4636C75.7047 80.3517 75.4833 80.6116 75.653 80.7934C77.1575 82.3918 81.7697 83.0345 81.9563 80.1422C82.0442 78.7641 80.6395 76.109 80.045 74.9029C78.934 72.6486 77.9037 70.2486 77.3501 67.6921C77.3561 67.6825 77.3669 67.6777 77.3693 67.6668C77.8219 66.3429 78.7378 65.2127 79.6694 64.1993C81.0777 62.6683 82.9697 62.6478 84.479 64.056C84.597 64.1668 84.8245 64.0199 84.7174 63.8779C83.5234 62.2795 81.996 61.9906 80.193 62.7537C78.5296 63.4554 76.4498 65.8939 76.7122 67.721C76.723 67.7992 76.7699 67.839 76.8253 67.8606C77.3164 70.263 78.2444 72.5559 79.1519 74.8536C79.6803 76.1908 80.205 77.5232 80.6058 78.9097C81.3569 81.5035 77.4488 81.2688 75.9154 80.4636Z" fill="#0D4680"/>
<path d="M77.4637 92.7151C76.0075 92.5225 74.7596 91.7606 73.6332 90.8495C71.5657 89.1777 69.6896 86.5068 68.5355 83.9937C70.9929 85.621 73.8895 86.3841 76.8571 86.4503C79.2892 86.5044 83.0259 85.757 84.0993 83.2282C84.1643 83.0742 83.9513 82.9105 83.8177 83.0056C81.524 84.6039 78.8127 85.3911 76.0292 85.4802C74.6453 85.5235 72.9701 85.3971 71.6548 84.9073C71.0398 84.6774 69.059 84.2212 68.3731 83.6194C68.349 83.5628 68.3225 83.5075 68.2997 83.4509C68.55 83.2836 68.8243 83.1319 69.0843 83.0645C69.26 83.0188 69.2203 82.7672 69.047 82.7564C68.5259 82.7215 67.8857 82.8972 67.4091 83.0898C66.9278 83.2848 66.7677 83.8818 66.7472 84.3452C66.7388 84.5522 67.0337 84.6376 67.136 84.4571C67.3285 84.1165 67.6029 83.9805 67.8965 83.7434C67.9266 83.7181 67.9615 83.6952 67.9928 83.6699C69.2167 87.6298 72.4189 91.5849 76.1267 93.3241C77.1484 93.8031 78.3229 93.7068 79.3013 93.2434C80.8766 92.4996 81.0101 89.4725 81.0823 87.8729C81.3339 87.6106 81.5288 87.2952 81.6154 86.8788C81.6528 86.6994 81.4494 86.5586 81.3038 86.6922C78.5804 89.2318 72.8064 87.5588 70.0338 85.7871C69.8701 85.6836 69.7341 85.9279 69.8809 86.0399C70.7522 86.7054 73.6236 87.956 76.3156 88.4747C76.6658 88.6168 76.8367 88.9321 77.1171 89.1512C77.5178 89.4641 77.8548 89.8312 78.128 90.2609C78.4264 90.7291 78.643 91.1841 78.7898 91.7197C78.8584 91.9736 78.8813 92.2047 78.9463 92.4298C78.5804 92.6765 78.1063 92.8005 77.4637 92.7151Z" fill="#0D4680"/>
<path d="M63.8381 74.2649C63.879 74.2565 63.9199 74.2432 63.9585 74.2288C64.0391 74.1987 64.0764 74.1289 64.074 74.0603C64.872 73.1864 65.5942 72.569 66.7641 72.1369C67.5344 71.8529 69.7057 71.2294 70.4086 72.0093C70.5277 72.1405 70.7336 72.0695 70.7865 71.9166C71.351 70.2773 68.6814 70.6673 67.8618 70.8478C66.0612 71.245 64.4218 72.2849 63.6154 73.9664C63.542 74.1204 63.6551 74.3106 63.8381 74.2649Z" fill="#0D4680"/>
<path d="M69.3376 65.86C69.5783 65.7854 69.6072 65.4941 69.4122 65.3533C66.946 63.5671 60.9881 65.5519 60.3984 68.6837C60.3671 68.8522 60.6006 68.9268 60.6572 68.7583C61.2951 66.8999 63.9611 65.8046 65.7159 65.6241C66.94 65.4965 68.1833 66.2139 69.3376 65.86Z" fill="#0D4680"/>
<path d="M85.6271 68.5605C85.6499 68.6989 85.8882 68.7061 85.9111 68.5641C86.1037 67.3617 84.0648 67.4375 83.4293 67.4231C81.802 67.3822 80.0507 67.9045 79.6861 69.6341C79.656 69.7798 79.7835 69.9808 79.9557 69.911C80.1952 69.8159 80.4371 69.7268 80.6188 69.533C81.1617 68.9577 81.7382 68.717 82.4893 68.4859C82.943 68.3451 85.5043 67.7938 85.6271 68.5605Z" fill="#0D4680"/>
<path d="M92.885 64.8166C92.9355 64.9947 93.2099 64.9682 93.2111 64.7793C93.2243 63.3422 92.317 61.7871 91.5973 60.5979C90.9547 59.5364 89.9956 58.4531 88.8403 57.8922C88.0797 53.5015 85.496 48.9663 82.4249 46.5205C82.2949 46.417 82.1301 46.6325 82.2468 46.7432C86.7452 51.0774 88.0918 56.9438 88.4287 62.9474C88.4396 63.1424 88.7344 63.211 88.7849 63.0003C89.1195 61.6138 89.1532 60.0948 88.9486 58.5422C90.9042 60.1731 92.1653 62.3167 92.885 64.8166Z" fill="#0D4680"/>
<path d="M93.9156 62.6219C94.5884 59.0051 94.4139 55.7204 92.8143 52.3407C92.0476 50.7182 91.4386 49.0585 90.2675 47.6611C89.0145 46.165 87.4907 45.0769 85.9537 43.895C85.8069 43.7818 85.6167 44.025 85.7527 44.1465C86.9648 45.2478 88.2647 46.2095 89.3587 47.436C90.7116 48.9465 91.1906 50.8723 91.9224 52.7006C93.2259 55.9563 93.0358 59.2169 93.4763 62.6159C93.504 62.8374 93.8759 62.8386 93.9156 62.6219Z" fill="#0D4680"/>
<path d="M51.9002 56.1594C52.0552 56.0605 51.9234 55.8205 51.7581 55.9093C49.0276 57.3813 46.7739 59.1413 45.9001 62.2411C45.8411 62.45 46.163 62.6053 46.2586 62.3987C47.5132 59.624 49.3605 57.786 51.9002 56.1594Z" fill="#0D4680"/>
<path d="M52.945 57.4721C53.1196 57.372 52.9726 57.1242 52.7945 57.2048C46.6157 59.9923 48.0545 69.7036 51.8198 73.7784C51.9648 73.9331 52.249 73.7308 52.1228 73.5495C49.1315 69.3062 47.3819 60.6907 52.945 57.4721Z" fill="#0D4680"/>
<path d="M53.5594 72.4402C56.1059 68.7341 55.3492 63.7313 53.6554 59.8756C53.5882 59.7236 53.3225 59.8297 53.3837 59.9853C55.0084 64.149 54.8157 68.1456 53.2117 72.2874C53.1317 72.5004 53.4438 72.6104 53.5594 72.4402Z" fill="#0D4680"/>
<path d="M48.2862 71.1212C48.4029 71.3089 48.6846 71.1488 48.5871 70.9502C48.0346 69.8381 47.3654 68.921 47.0898 67.6812C46.7877 66.3188 46.636 65.0116 47.0176 63.6443C47.0718 63.4518 46.7877 63.3723 46.7227 63.5577C46.2641 64.8853 46.4098 66.0082 46.5999 67.3611C46.8118 68.8692 47.5026 69.8489 48.2862 71.1212Z" fill="#0D4680"/>
<path d="M51.4957 53.8186C51.858 47.4732 54.473 42.8995 59.8908 39.5005C64.6936 36.4855 71.7276 34.4935 77.3944 34.8221C77.5954 34.8329 77.6508 34.4983 77.4474 34.4658C71.1006 33.4343 64.0377 35.673 58.6994 39.0865C53.5211 42.3988 50.811 47.732 51.1263 53.8126C51.1395 54.0485 51.4813 54.0581 51.4957 53.8186Z" fill="#0D4680"/>
<path d="M79.2173 34.7778C81.0624 34.8825 82.9244 34.8501 84.6925 34.2639C85.7529 33.9124 86.4979 33.2601 87.2418 32.5644C86.8349 34.6454 86.2801 36.9094 84.4783 38.1335C84.3158 38.2442 84.4049 38.5247 84.6131 38.4669C87.3104 37.7255 87.7328 33.8872 88.1914 31.6148C88.2648 31.2489 87.8592 30.9732 87.5667 31.238C86.5473 32.1588 85.7168 33.0832 84.4674 33.7066C82.8811 34.501 80.9457 34.3999 79.2209 34.5022C79.0452 34.5118 79.038 34.767 79.2173 34.7778Z" fill="#0D4680"/>
<path d="M95.8411 55.044C96.5031 51.8495 93.7915 45.56 90.3513 44.667C90.1536 44.6154 90.0873 44.886 90.2639 44.9616C93.9166 46.5444 94.5343 51.7517 95.4664 55.0381C95.5163 55.2127 95.8003 55.2413 95.8411 55.044Z" fill="#0D4680"/>
<path d="M54.9759 50.9876C56.6631 44.7782 64.5214 40.2201 70.3929 38.8384C70.5951 38.7902 70.512 38.4953 70.3123 38.529C66.6034 39.1405 63.4745 40.9266 60.5273 43.199C57.8112 45.2945 55.473 47.4718 54.6871 50.9033C54.6438 51.0911 54.9254 51.1753 54.9759 50.9876Z" fill="#0D4680"/>
<path d="M56.4138 53.4695C58.1756 48.9815 62.5188 46.9106 67.0886 46.5391C67.291 46.5224 67.3016 46.2272 67.0933 46.2202C62.3635 46.0559 57.5594 48.6564 56.1136 53.3808C56.0535 53.5773 56.3415 53.6523 56.4138 53.4695Z" fill="#0D4680"/>
<path d="M70.7074 43.7662C70.5498 43.7845 70.5822 44.0559 70.7411 44.0428C74.3908 43.7232 77.3895 44.2069 80.6934 45.881C80.8966 45.9843 81.0724 45.7004 80.8783 45.5769C77.6866 43.5181 74.3429 43.328 70.7074 43.7662Z" fill="#0D4680"/>
<path d="M54.6969 52.8506C54.8033 52.7139 54.5819 52.548 54.464 52.6643C53.9968 53.1261 53.8379 53.8276 53.8979 54.4669C53.917 54.6563 54.1689 54.66 54.1939 54.4709C54.2689 53.9092 54.3388 53.3113 54.6969 52.8506Z" fill="#0D4680"/>
<path d="M100.828 48.8861C100.992 48.7994 100.912 48.5623 100.742 48.5515C99.8143 48.4853 98.9178 48.2686 98.0597 47.9256C94.7299 43.0197 90.4614 39.3354 84.4359 38.4749C81.3527 38.0343 77.8111 38.2835 74.7797 38.9972C71.2248 39.8325 68.3582 41.0109 65.0657 42.4805C64.9044 42.5515 65.0404 42.779 65.1981 42.714C67.9118 41.5982 70.3174 40.4572 73.2164 39.8554C76.3236 39.2091 79.4224 38.972 82.5922 39.0574C88.7357 39.2259 93.4037 43.0197 97.1632 47.5128C96.0079 46.917 94.8358 46.1178 93.6071 45.7218C93.4519 45.6712 93.3484 45.9047 93.4916 45.9842C95.3316 46.9976 98.5531 50.0861 100.828 48.8861Z" fill="#0D4680"/>
<path d="M39.5532 146.689C44.4018 144.66 44.4235 137.29 43.5558 133.027C42.8759 129.688 41.0491 126.793 39.1128 124.053C36.8816 120.896 35.2029 118.493 32.8983 114.076C32.6155 113.535 32.1871 113.753 32.5096 114.4C33.8153 117.011 34.2221 117.936 35.5049 119.958C37.0766 122.43 38.6747 124.896 40.2079 127.395C43.6918 133.074 43.9962 141.271 39.2464 146.277C39.0309 146.502 39.2897 146.8 39.5532 146.689Z" fill="#0D4680"/>
<path d="M33.2861 148.317C33.2332 148.707 33.5064 149.472 33.6159 149.721C34.0094 150.608 34.7687 151.375 36.4932 151.893C36.681 151.949 36.8121 151.735 36.6437 151.625C36.1154 151.28 35.0142 150.818 34.4679 150.039C34.2585 149.741 34.0732 149.201 34.0214 148.864C34.1851 148.967 34.3499 149.063 34.5112 149.134C37.6581 150.519 40.5187 150.049 42.8172 147.445C42.964 147.28 42.7462 147.053 42.5777 147.199C40.4067 149.081 38.4753 149.742 35.6785 148.739C34.214 148.214 32.6279 146.849 32.037 145.089C33.5978 146.757 35.8999 148.354 38.1624 147.36C38.3742 147.267 38.2827 146.884 38.048 146.91C34.6761 147.28 32.191 143.641 30.8889 141.077C29.2306 137.813 28.7721 134.402 27.9333 130.898C27.2691 128.129 26.8996 125.172 26.4351 122.345C26.1066 120.35 25.8911 118.663 25.6553 116.659C25.4134 114.595 25.34 113.779 25.2257 112.402C25.4314 112.537 25.6384 112.672 25.8418 112.805C26.399 113.173 26.7227 113.296 27.3148 113.623C27.7456 113.708 28.0284 113.522 27.5302 113.191C25.5422 112.063 24.0932 110.86 22.3062 109.47C19.9282 107.619 16.9798 104.73 16.2217 101.623C15.7921 97.4366 17.2422 91.7977 21.3097 90.1884C22.0595 89.967 23.3327 90.3329 22.4181 91.1622C22.0811 91.4691 21.7538 91.7916 21.4132 92.0925C20.7249 92.7016 20.0967 93.4081 19.5503 94.1459C18.9462 94.9631 17.815 96.4893 18.6466 97.4414C18.7717 97.5846 18.8379 96.9527 18.8776 96.7312C19.1989 94.9583 20.1653 94.2157 21.4469 92.9254C22.1028 92.2647 23.0427 91.6087 23.4314 90.7409C23.9885 89.4976 22.4975 88.6538 19.9631 89.9922C16.2313 91.5365 14.5465 97.5569 15.6344 101.457C15.2903 104.279 17.9522 106.81 19.9017 108.552C21.3579 109.851 23.009 110.953 24.6528 112.028C24.9549 116.847 25.2726 118.774 25.5421 121.523C25.9393 125.542 26.6914 129.536 27.3413 133.498C27.9057 136.952 28.9719 141.076 31.1332 143.981C31.2114 145.741 32.1754 147.332 33.2861 148.317Z" fill="#0D4680"/>
<path d="M58.7215 128.539C58.8487 125.57 58.3663 122.477 57.9952 119.536C57.9761 119.385 57.723 119.418 57.73 119.569C57.8631 122.547 57.8274 125.555 58.0423 128.529C58.0732 128.962 58.7029 128.984 58.7215 128.539Z" fill="#0D4680"/>
<path fill-rule="evenodd" clip-rule="evenodd" d="M110.92 171.467C106.504 174.053 102.608 176.778 95.9997 182L93.4997 170C87.7591 172.382 84.0923 172.208 76.9997 171.5L77.9997 182C71.0102 181.926 67.0878 181.779 59.4997 180H58.3277C58.3611 179.775 58.3941 179.549 58.4267 179.323C57.6457 179.132 56.8658 178.931 56.0908 178.712C56.0812 178.711 56.0788 178.701 56.0704 178.698C55.9019 178.675 55.7262 178.586 55.7142 178.462C55.5901 177.088 55.8767 173.914 56.1084 171.348C56.1374 171.026 56.1655 170.714 56.1919 170.417C56.2416 169.856 56.293 169.298 56.3442 168.74C56.6046 165.909 56.8626 163.103 56.8887 160.239C56.9234 156.306 57.3634 152.386 57.8033 148.468C58.0808 145.995 58.3583 143.524 58.5338 141.05C57.565 139.321 57.1703 137.114 57.0343 134.962C56.3112 135.941 55.379 136.904 54.4543 137.859C53.4955 138.849 52.5448 139.831 51.844 140.814C50.8283 142.241 49.5431 143.721 47.9726 144.575C46.8691 148.932 42.887 153.609 38.0793 152.247C37.8711 152.189 37.9217 151.873 38.1371 151.873C44.2492 151.905 47.7415 145.205 47.1952 139.851C46.9762 137.689 46.5357 135.608 46.0315 133.5C45.715 132.18 44.8762 130.048 43.8341 128.879C43.1698 128.159 43.3864 127.695 44.0928 128.467C44.1 128.443 44.7896 129.177 45.141 129.89C45.3029 130.219 45.4689 130.541 45.6336 130.861C46.1445 131.852 46.6431 132.819 46.9726 133.908C47.8884 136.937 48.5502 139.879 48.247 143.067C48.2145 143.405 48.1567 143.752 48.0845 144.101C49.1828 143.237 49.9695 142.088 50.7543 140.943C51.1501 140.365 51.5454 139.788 51.98 139.248C53.258 137.66 55.3495 135.564 56.997 134.26C56.9417 132.842 56.985 131.478 57.0355 130.323C56.9705 130.228 56.9681 130.087 57.0933 129.998C57.7102 129.566 59.9975 129.153 61.4057 128.898C61.7968 128.828 62.12 128.769 62.3209 128.726C62.8001 128.623 63.2875 128.496 63.7761 128.369C64.4853 128.184 65.197 127.999 65.8903 127.886C66.0593 127.858 66.311 127.781 66.603 127.691C67.4666 127.425 68.682 127.052 69.1479 127.538C69.8153 128.233 69.7716 129.557 69.7358 130.642C69.7259 130.942 69.7166 131.224 69.7231 131.469C69.7845 133.82 69.6257 136.334 68.9084 138.585C68.8326 138.822 68.5089 138.714 68.5474 138.479C68.7255 137.403 69.5559 127.815 68.3549 128.067C67.8072 128.181 67.2606 128.31 66.7136 128.44C66.0261 128.603 65.3381 128.766 64.6471 128.898C64.2459 128.976 63.6337 129.067 62.9259 129.173C60.9866 129.461 58.3291 129.856 57.3231 130.387C57.3725 133.488 57.4435 137.041 59.0248 139.816C59.9791 141.493 61.2535 143.131 63.3932 142.983C65.3355 142.848 66.7928 141.99 67.9674 140.454C68.1599 140.203 68.5606 140.353 68.4836 140.68C67.6593 144.161 62.7108 145.037 60.1319 142.984C59.7191 142.655 59.3605 142.273 59.0452 141.848C59.0719 142.582 58.9106 143.651 58.795 144.417C58.7542 144.688 58.719 144.921 58.6998 145.088C58.6118 145.859 58.5848 146.636 58.5579 147.413C58.5288 148.25 58.4997 149.087 58.3942 149.914C57.9646 153.287 57.7756 156.856 57.8153 160.253C57.8851 166.129 57.7082 172.645 56.4073 178.409C57.0208 178.692 60.2182 179.099 60.6106 179.149L60.647 179.154C61.5943 179.274 62.5345 179.443 63.4746 179.611C64.5433 179.803 65.6118 179.994 66.6905 180.115C68.1951 180.285 69.6885 180.331 71.1896 180.378C71.7284 180.395 72.2682 180.412 72.8099 180.434C73.1896 180.45 73.5782 180.433 73.968 180.416C74.5207 180.392 75.0758 180.368 75.6115 180.436C75.0302 177.004 74.7835 173.547 74.5958 170.084L74.5955 170.081C74.5952 170.079 74.595 170.077 74.5958 170.075C74.5679 169.565 74.541 169.055 74.5142 168.545C74.3622 165.66 74.2102 162.774 73.8809 159.901C73.3869 155.591 73.2093 151.222 73.032 146.858C72.922 144.153 72.8121 141.45 72.627 138.764C72.5773 138.045 72.528 137.326 72.4786 136.606C72.0181 129.895 71.5553 123.152 70.8315 116.473C70.7172 115.421 70.6028 114.355 70.4921 113.286C69.3128 112.476 68.2261 111.606 67.1105 110.658C66.8705 110.453 66.551 110.23 66.2057 109.989C65.2644 109.331 64.1319 108.54 63.8986 107.638C63.618 106.555 64.2478 105.188 64.7467 104.104C64.8384 103.905 64.9257 103.716 65.0021 103.539C64.8558 103.707 64.7095 103.874 64.5633 104.041C60.8947 108.234 57.2425 112.408 52.9247 115.987C52.5184 116.324 52.1117 116.663 51.7038 117.004C49.6216 118.741 47.5103 120.503 45.2854 122.023C44.8491 122.321 44.376 122.748 43.878 123.197C42.8336 124.138 41.6797 125.179 40.5259 125.336C40.3032 125.368 40.0481 125.078 40.2804 124.9C41.2131 124.184 42.1426 123.452 43.0739 122.718C44.1397 121.878 45.2078 121.037 46.2854 120.217C46.7539 119.86 47.2249 119.504 47.6965 119.148C49.7907 117.568 51.8952 115.98 53.8272 114.214C56.2749 111.98 58.5479 109.599 60.8205 107.219C62.3535 105.613 63.8865 104.008 65.4727 102.448C65.6163 102.114 65.7612 101.779 65.9061 101.445C66.3854 100.339 66.8649 99.2327 67.2983 98.1292C67.4066 97.8536 67.8121 97.9643 67.7423 98.258C67.61 98.8236 67.2507 99.6861 66.8384 100.676C65.7355 103.323 64.2534 106.881 65.7242 108.099C66.0938 108.405 66.4644 108.706 66.8335 109.006C68.0639 110.005 69.2763 110.989 70.3706 112.121C69.9193 107.604 69.5811 102.988 69.7809 98.536C69.7893 98.3374 70.0781 98.3447 70.0878 98.5408C70.2165 101.404 70.4163 104.264 70.6462 107.123C70.6965 107.189 70.7465 107.254 70.7962 107.32C71.9825 108.879 73.008 110.226 74.6644 111.425C75.4036 111.959 76.17 112.448 76.9367 112.936C77.7589 113.46 78.5813 113.984 79.3709 114.564C79.673 114.787 79.9991 114.856 80.3373 114.829C81.8075 114.339 82.7315 110.737 83.3073 108.492C83.51 107.701 83.6696 107.079 83.7947 106.82C84.0466 106.297 80.4979 104.144 78.9325 103.195C78.5987 102.992 78.3551 102.844 78.2578 102.779C76.2336 101.413 74.3804 100.035 72.5873 98.3796C72.3972 98.2042 72.176 98.0164 71.9419 97.8176C71.395 97.3532 70.7779 96.8291 70.3236 96.266C70.2541 96.2262 70.1846 96.1863 70.1151 96.1465C68.92 95.462 67.7375 94.7847 66.5991 93.9611C65.8116 93.3921 65.11 92.6674 64.4163 91.9507C64.052 91.5744 63.6898 91.2003 63.3186 90.8522C61.4424 89.0937 59.4219 86.8201 58.2678 84.372C57.8851 85.3698 56.9188 86.2665 55.9886 86.3712C53.1088 86.6985 50.2242 85.3481 48.8607 82.7339C47.8775 80.8478 48.3745 78.4911 49.7813 76.9421C48.4333 76.4393 47.4536 74.9127 46.6244 73.6207C46.4195 73.3013 46.2237 72.9963 46.0339 72.7247C44.6476 70.7411 44.1409 67.8741 44.1433 65.485C44.1457 60.969 45.6235 55.5805 50.3566 54.1939C50.5455 54.1374 50.6093 54.4178 50.4324 54.484C46.3287 56.0282 44.7751 61.3987 45.088 65.4994C45.4033 69.6206 47.0568 73.8332 50.4817 76.3295C51.7706 75.4821 53.5372 76.0069 54.6263 76.9951C54.6134 76.9255 54.6009 76.8558 54.5884 76.7864C54.553 76.5894 54.518 76.3946 54.4771 76.2103C54.317 75.4833 54.1533 74.7335 54.1004 73.9872C53.9945 73.9499 53.9271 73.8464 53.956 73.7152C54.1196 72.9386 54.4964 72.2593 54.8772 71.5728C55.1686 71.0474 55.4624 70.5178 55.6648 69.9371C56.1835 68.4482 56.5325 66.815 56.4964 65.2322C56.4507 63.2631 56.3905 61.8428 55.4386 60.0471C55.3338 59.8495 55.1669 59.6604 54.9989 59.47C54.7636 59.2035 54.526 58.9343 54.453 58.6352C54.4367 58.6376 54.4198 58.6413 54.4029 58.645C54.3688 58.6526 54.3344 58.6601 54.3038 58.6569C54.1209 58.6388 54.1281 58.3921 54.3086 58.3753C54.3519 58.3704 54.4049 58.3464 54.4662 58.3103C54.4807 58.2898 54.4987 58.2802 54.5192 58.2717C54.7618 58.1056 55.1012 57.7538 55.4083 57.4354C55.6619 57.1725 55.8935 56.9324 56.0307 56.8382C57.1655 56.0631 58.4086 55.5095 59.6734 54.9799C61.8504 54.0699 64.3523 53.4344 66.7038 53.2238C71.6883 52.7785 77.0929 54.6368 80.3192 58.5486C79.2686 53.3923 76.7511 48.7729 71.6125 46.7833C71.4416 46.7183 71.5162 46.4451 71.6943 46.5065C73.9423 47.2997 75.9604 48.7392 77.5441 50.5675C77.5826 50.5253 77.6332 50.4964 77.7018 50.5229C82.3686 52.2778 85.0968 55.217 87.3267 59.6029C87.4314 59.8075 87.1498 59.958 87.0222 59.7751C86.6359 59.2207 86.2777 58.6511 85.9207 58.0833C85.0242 56.6577 84.135 55.2436 82.8259 54.1109C81.7657 53.1926 80.6249 52.5668 79.4698 51.9332C78.9716 51.66 78.4708 51.3853 77.9725 51.085C79.9462 53.5849 81.1231 56.7251 80.9931 59.9544C80.9835 60.1819 80.6165 60.2445 80.5804 60.0037C80.5346 59.7004 80.4817 59.4007 80.4275 59.0998C80.3866 59.1107 80.3409 59.1034 80.2951 59.0673C75.727 55.4854 70.8351 53.4573 64.9745 54.3456C62.2884 54.7512 59.2221 55.3843 56.8995 56.8575C56.7214 56.9698 56.4699 57.1949 56.1865 57.4487C55.7346 57.8533 55.2013 58.3308 54.7538 58.5401C54.8818 58.8124 55.2323 59.2705 55.5476 59.6826C55.7955 60.0066 56.0215 60.3021 56.1005 60.4563C56.1283 60.5103 56.1563 60.5644 56.1844 60.6186C56.4734 61.1765 56.7683 61.7456 56.8911 62.3676C57.21 63.9949 57.216 65.7064 57.0524 67.3542C56.9104 68.7756 56.2533 73.1207 54.5842 73.8934C54.6694 74.493 54.8126 75.0825 54.9554 75.6707C55.0101 75.8959 55.0648 76.121 55.1161 76.3463C55.1516 76.5017 55.2011 76.6683 55.2522 76.8399C55.376 77.2559 55.5086 77.7015 55.4711 78.0891C55.4482 78.3263 55.1269 78.443 54.9981 78.2083C54.8922 78.0169 54.8212 77.8027 54.7611 77.5848C53.7574 76.6496 52.2219 76.2115 51.0377 76.7543C50.4733 76.989 49.9715 77.6354 49.7849 78.0157C48.9185 79.779 48.874 81.6506 50.2471 83.1985C51.4493 84.5549 53.9452 86.0017 55.8622 85.3144C56.9513 84.9244 57.423 83.6101 57.7504 82.5918C57.8117 82.4029 58.0416 82.3957 58.1451 82.5461C58.4086 82.9228 58.476 83.3646 58.4134 83.8111C60.8491 88.4967 65.6712 92.6311 70.1997 95.0143C75.0121 97.5491 81.3566 99.9755 85.9897 95.5511C85.9934 95.548 85.998 95.5468 86.0028 95.5456C86.0073 95.5444 86.0121 95.5432 86.0162 95.5403C87.8574 93.7541 89.3857 91.1796 89.9321 89.1347C90.7588 86.045 91.4773 83.1166 91.8564 79.9042C92.2947 76.2019 91.8608 72.5429 91.4263 68.8793C91.1464 66.5187 90.8662 64.1562 90.819 61.7791C90.8154 61.5973 91.079 61.6093 91.0946 61.7827C91.3112 64.2078 91.6962 66.6268 92.081 69.0449C92.3612 70.8057 92.6414 72.5661 92.8564 74.3279C93.28 77.7894 92.913 81.3846 92.2631 84.7981C91.6458 88.049 90.6915 91.0809 88.7672 93.7878C87.7587 95.2056 86.8899 96.4141 85.6431 97.1507C85.7491 97.4824 85.8631 97.8112 85.9771 98.1403C86.2656 98.9731 86.5548 99.8076 86.7178 100.695C86.8551 101.44 87.0086 102.182 87.162 102.924C87.3648 103.905 87.5677 104.886 87.7335 105.874C87.9974 107.447 88.2916 109.012 88.5858 110.577C88.6484 110.91 88.7109 111.243 88.7732 111.576C88.8279 111.501 88.8833 111.427 88.9383 111.353C89.13 111.096 89.3178 110.845 89.4628 110.599C89.5772 110.405 89.9563 109.868 90.4205 109.212C91.4553 107.748 92.9127 105.686 92.8022 105.488C92.6196 105.166 92.5137 104.794 92.4055 104.414C92.28 103.973 92.1514 103.521 91.8961 103.124C91.6624 102.762 91.4386 102.383 91.2137 102.003C90.796 101.298 90.3748 100.586 89.8803 99.9575C89.3346 99.2638 88.8831 98.5333 88.4302 97.8004C88.1381 97.3277 87.8454 96.8541 87.5265 96.3888C87.4001 96.2046 87.6721 96.041 87.8189 96.1697C87.9248 96.2612 88.0319 96.3671 88.1378 96.4743C88.613 96.074 89.2629 95.9197 89.9146 95.765C90.4759 95.6317 91.0384 95.4981 91.4917 95.2069C93.16 94.1356 94.6715 92.7539 96.1448 91.4073C96.3252 91.2424 96.505 91.078 96.6845 90.9148C99.4764 88.3752 102.164 85.3999 104.596 82.5184C104.737 82.3547 105.048 82.5389 104.964 82.7423C104.519 83.7995 103.812 84.5871 103.077 85.4048C102.822 85.6894 102.563 85.9776 102.31 86.2821C101.004 87.8624 99.5378 89.5174 97.9926 90.8703C97.7622 91.0719 97.5311 91.2759 97.2989 91.4809C95.9579 92.6647 94.5804 93.8807 93.0971 94.8554C92.4811 95.2599 91.7288 95.5611 90.9771 95.8622C90.1339 96.1998 89.2915 96.5372 88.6432 97.0195C89.4604 97.9812 90.251 99.2161 90.8455 100.157C91.2032 100.723 91.58 101.276 91.9567 101.828C92.3075 102.342 92.6582 102.857 92.9936 103.382C93.0923 103.535 93.1981 103.855 93.3058 104.182C93.4359 104.575 93.5688 104.978 93.6952 105.104C94.314 105.722 93.3013 106.859 92.6606 107.578C92.4864 107.773 92.3397 107.938 92.2607 108.053C91.9834 108.457 91.6874 108.874 91.3852 109.299C90.5568 110.466 89.6821 111.697 89.0199 112.919C89.3484 114.704 89.6613 116.493 89.9104 118.293C90.7062 124.064 91.3048 129.869 91.9028 135.668C92.088 137.464 92.2732 139.26 92.4641 141.053C92.6803 143.08 92.9238 145.116 93.1679 147.157C93.8411 152.785 94.5189 158.45 94.6399 164.071C94.7145 167.491 95.0153 171.108 95.392 174.505L95.4099 174.665C95.603 176.396 95.7976 178.139 95.5653 179.852C96.4292 179.431 97.2618 178.931 98.0941 178.431C99.1283 177.81 100.162 177.189 101.255 176.721C103.189 175.893 105.351 174.467 107.092 173.267C107.2 173.192 107.341 173.098 107.507 172.987C108.881 172.067 111.951 170.012 111.951 168.801C111.951 167.239 111.651 165.751 111.35 164.256C111.185 163.437 111.02 162.616 110.903 161.78C110.291 157.39 109.428 153.004 108.568 148.637C108.306 147.301 108.043 145.968 107.788 144.637C107.668 144.005 107.556 143.371 107.445 142.737C107.106 140.804 106.766 138.869 106.159 136.999C106.059 136.69 105.896 136.309 105.721 135.9C105.612 135.645 105.498 135.379 105.392 135.112C105.15 135.782 104.759 136.392 104.036 136.929C102.155 138.326 101.111 138.443 98.9264 137.742C95.1164 136.522 94.2355 131.758 93.9563 128.358C93.9286 128.026 94.416 128.006 94.5087 128.292C94.6788 128.817 94.8372 129.371 94.9986 129.936C95.9061 133.109 96.9095 136.619 100.63 137.265C103.48 137.759 104.782 135.039 105.06 132.838C105.099 132.53 105.087 132.276 105.074 132.015C105.068 131.883 105.061 131.751 105.061 131.609C105.062 131.033 104.966 130.445 104.871 129.859C104.814 129.506 104.757 129.155 104.721 128.808C104.714 128.742 104.705 128.633 104.693 128.491C104.601 127.384 104.343 124.292 103.711 124.226C103.049 124.156 102.389 124.216 101.728 124.276C101.235 124.322 100.741 124.367 100.243 124.358C99.2935 124.341 94.2632 124.671 94.2151 125.088C94.1922 125.284 93.9371 125.275 93.9142 125.084C93.9082 125.027 93.901 124.968 93.8937 124.911C93.8853 124.835 93.9563 124.767 94.0213 124.747C95.7819 124.241 97.7495 123.788 99.5847 123.756C99.8894 123.751 100.352 123.675 100.875 123.59C101.44 123.497 102.076 123.393 102.658 123.354C101.671 120.182 100.771 116.943 99.876 113.719C99.5475 112.535 99.2195 111.354 98.8879 110.179C98.3259 108.188 97.5431 106.199 96.7849 104.273L96.7266 104.124C96.4786 103.493 96.1589 102.887 95.8401 102.282C95.438 101.519 95.0373 100.759 94.7843 99.9563C94.7337 99.7974 94.984 99.6951 95.055 99.8456C95.4276 100.637 95.8337 101.404 96.2405 102.173C96.7574 103.15 97.2754 104.129 97.7266 105.161C98.5449 107.029 99.2273 108.952 99.8988 110.875C100.044 111.292 100.193 111.713 100.343 112.137C100.641 112.982 100.944 113.84 101.239 114.711C101.731 114.079 102.313 113.5 102.887 112.929C103.182 112.636 103.475 112.344 103.752 112.049C105.811 109.858 107.732 107.547 109.615 105.206C112.963 101.044 116.076 96.798 118.323 91.9391C115.071 91.3445 110.773 88.5124 109.595 87.3052C109.442 87.1487 109.286 86.9902 109.129 86.8296C107.145 84.8106 104.84 82.4648 104.266 79.6562C103.99 78.3034 105.052 77.2502 106.129 76.9481C106.56 76.9481 106.603 77.379 106.112 77.5439C104.579 78.3708 105.138 80.0944 105.768 81.4677C105.816 81.5335 105.865 81.5993 105.913 81.6651C106.01 81.7967 106.107 81.9282 106.205 82.0598C106.355 82.2675 106.501 82.4765 106.646 82.685C106.993 83.1822 107.338 83.6762 107.737 84.1409C108.865 85.4588 110.201 86.7768 111.679 87.6867C111.839 87.7851 112.017 87.897 112.211 88.0185C114.793 89.64 120.119 92.9846 121.789 89.1732C121.876 88.9746 122.203 88.9818 122.193 89.2333C122.109 91.4528 120.826 92.1569 119.1 92.0414C117.344 96.3561 114.244 100.381 111.388 104.088C111.171 104.37 110.956 104.649 110.743 104.927C110.04 105.842 109.345 106.804 108.641 107.776C106.525 110.702 104.335 113.731 101.639 115.917C102.407 118.291 103.063 120.765 103.36 123.351C103.734 123.374 104.055 123.442 104.267 123.599C105.069 124.189 105.19 125.772 105.285 127.02C105.315 127.411 105.342 127.77 105.388 128.055C105.434 128.348 105.496 128.672 105.561 129.012C105.768 130.096 106.006 131.347 105.885 132.332C105.86 132.528 105.838 132.721 105.817 132.911C105.76 133.408 105.706 133.882 105.614 134.334C105.657 134.415 105.7 134.495 105.744 134.576C105.9 134.865 106.051 135.145 106.132 135.378C106.266 135.767 106.405 136.153 106.545 136.539C106.876 137.457 107.207 138.374 107.455 139.32C107.937 141.163 108.313 143.027 108.689 144.891C108.956 146.213 109.223 147.536 109.527 148.85C110.929 154.903 112.188 161.026 113.085 167.171C113.26 168.383 113.339 169.741 112.264 170.478C111.802 170.794 111.357 171.127 110.92 171.467ZM78.212 169.923C80.2903 170.148 82.3999 170.094 84.477 169.835C84.8757 169.786 85.2899 169.737 85.7149 169.687C88.3655 169.375 91.4379 169.014 93.789 168.043C93.647 166.422 93.5291 164.799 93.4906 163.176C93.4353 160.812 93.1417 158.464 92.8483 156.118C92.7009 154.939 92.5535 153.76 92.4364 152.58C92.2823 151.032 92.1419 149.481 92.0014 147.931C91.7931 145.631 91.5847 143.33 91.3317 141.035C90.9808 137.855 90.6815 134.666 90.382 131.478C89.9153 126.507 89.4485 121.535 88.7864 116.59C88.4728 114.244 88.0566 111.918 87.6404 109.591C87.5152 108.892 87.3901 108.192 87.2677 107.492C86.5276 109.637 85.5095 111.767 83.8922 113.372C83.6757 113.586 83.4401 113.872 83.1871 114.179C82.3235 115.227 81.2568 116.521 80.0533 116.069C79.4335 115.837 78.872 115.329 78.3249 114.835C77.9924 114.534 77.6652 114.238 77.3335 114.012C77.1032 113.855 76.8762 113.703 76.6516 113.552C75.8743 113.029 75.125 112.525 74.3575 111.932C72.7967 110.724 71.7509 109.414 70.7027 107.859C71.0914 112.55 71.58 117.236 72.0687 121.923C72.6541 127.538 73.2396 133.154 73.6535 138.78C74.1286 145.248 74.4525 151.725 74.7763 158.202C74.9701 162.078 75.1639 165.954 75.39 169.827C76.2986 169.763 77.4683 169.843 78.212 169.923Z" fill="#0D4680"/>
<path d="M122.644 47.8192C122.623 47.6591 122.347 47.6928 122.362 47.8529C122.592 50.508 123.19 53.1102 123.216 55.781C123.244 58.7034 123.345 61.6931 123.616 64.6035C123.852 67.1515 123.755 69.7693 124.068 72.2993C124.404 75.0038 124.454 79.0768 123.501 81.6273C123.496 81.6393 123.504 81.649 123.5 81.6622C121.05 82.1966 118.968 81.9872 116.359 81.46C114.787 81.1434 113.261 80.2167 111.868 79.4403C111.476 79.2225 107.361 76.453 109.181 74.8353C109.318 75.4263 109.553 75.9788 109.945 76.4446C110.075 76.601 110.374 76.4421 110.299 76.2472C109.256 73.5932 110.816 69.4492 111.501 66.8362C112.223 64.0883 113.021 61.3561 113.708 58.5987C114.694 54.6388 115.777 50.5754 116.49 46.512C117.052 47.1812 117.814 47.6663 118.831 47.8264C119.033 47.8589 119.216 47.5652 118.991 47.4629C115.229 45.7538 115.477 39.8874 117.8 37.0685C117.939 36.9012 117.732 36.6749 117.56 36.8218C115.381 38.6934 114.503 43.379 116.122 46.0125C114.998 51.0123 113.53 55.9579 112.083 60.8651C111.196 63.8753 110.343 66.8987 109.563 69.9378C109.222 71.2702 108.883 72.9457 109.105 74.4237C108.521 74.6259 107.963 75.3421 107.898 75.7838C107.669 77.328 110.504 79.3103 111.538 79.9856C115.329 82.459 119.825 83.4724 124.139 82.3422C124.071 83.1583 123.824 83.9719 123.788 84.7976C123.669 87.4527 121.823 88.3169 119.461 88.1003C115.961 87.7789 112.908 85.9374 110.253 83.7324C110.039 83.5555 109.746 83.8227 109.938 84.0381C111.406 85.6895 113.117 87.3179 115.242 88.0846C116.696 88.6094 119.297 89.6626 120.895 89.1534C122.364 88.6852 123.279 88.4614 124.065 87.0291C124.809 85.669 125.022 83.3352 124.983 81.8223C124.977 81.5984 124.794 81.4155 124.572 81.4167C125.246 80.1481 125.089 77.606 125.216 76.5505C125.587 73.5041 125.155 70.27 124.917 67.2165C124.409 60.6917 123.518 54.2753 122.644 47.8192Z" fill="#0D4680"/>
<path d="M116.378 21.5865C113.526 21.8417 112.733 23.3594 113.877 24.0997C114.674 24.6172 115.819 24.6569 116.729 24.8555C118.505 25.2407 119.721 25.3394 120.953 26.6525C121.107 26.8174 121.505 27.3121 121.533 27.1243C121.715 25.8726 119.935 25.2058 118.984 24.8483C118.125 24.5257 117.213 24.2742 116.304 24.1382C115.855 24.0696 115.405 23.9757 114.955 23.9023C113.736 23.7037 114.609 22.7023 115.358 22.482C119.608 21.6323 123.847 25.4958 125.786 29.2126C126.899 32.2445 125.999 36.3271 124.998 39.2097C124.253 41.3486 123.454 43.6222 122.398 45.649C122.159 46.1967 121.758 47.4412 122.353 46.5855C122.462 46.506 122.839 45.8248 122.942 45.7369C123.261 45.1411 123.574 44.5417 123.842 43.9315C124.816 41.7181 125.876 39.4685 126.516 37.1311C127.207 34.6096 128.066 31.0397 126.244 28.8575C125.037 24.9915 120.35 20.8511 116.378 21.5865Z" fill="#0D4680"/>
<path d="M114.185 26.0496C115.414 25.9172 117.26 26.3241 118.408 26.696C119.017 26.8922 121.941 27.9874 122.875 28.842C123.011 28.966 123.152 29.0334 123.164 28.8456L123.174 28.6735C123.178 28.6205 123.143 28.57 123.1 28.5375C120.605 26.7381 119.097 25.9208 115.911 25.295C114.939 25.106 112.097 25.0555 111.535 26.2266C111.108 27.116 111.932 27.9766 112.837 28.2414C115.69 29.0803 118.695 29.025 121.297 30.5836C121.462 30.6823 121.654 30.4512 121.51 30.3152C119.42 28.3557 116.404 27.9754 113.7 27.4639C111.685 27.0823 112.569 26.223 114.185 26.0496Z" fill="#0D4680"/>
<path d="M113.659 38.4529C114.262 38.1122 114.586 37.23 114.995 36.7149C115.32 36.3056 115.612 35.8735 116.037 35.5582C116.386 35.2994 117.611 35.8206 118.023 35.965C118.181 36.0192 118.276 35.7857 118.139 35.7026C117.579 35.3644 116.7 34.6097 115.985 34.9395C115.157 35.3211 114.546 36.2202 114.049 36.9592C113.892 37.4527 113.117 37.7957 113.105 37.1566C113.08 36.8509 113.146 36.5367 113.204 36.2394C113.319 35.6388 113.422 35.0936 113.708 34.546C114.746 32.5504 117.345 33.4242 119.047 33.8033C119.242 33.8467 119.376 33.5819 119.192 33.4723C117.623 32.5431 115.741 32.1448 114.098 33.092C113.78 33.2749 113.525 33.5157 113.318 33.7913C113.335 33.4447 113.364 33.0992 113.452 32.7622C113.717 31.7476 114.583 31.3853 115.507 31.1349C117.099 30.7052 118.45 30.7895 120.476 30.9183C120.644 30.9303 120.576 30.698 120.443 30.6475C118.45 29.8844 115.99 29.8278 113.981 30.7811C112.244 31.6055 112.362 33.4964 112.703 35.0852C112.556 35.5871 112.472 36.113 112.408 36.6041C112.335 37.159 112.626 39.0366 113.659 38.4529Z" fill="#0D4680"/>
<path d="M132.257 9.49647C130.127 8.58775 128.149 7.93419 126.221 6.87983C126.37 5.55827 126.386 3.79137 126.834 2.57452C126.889 2.42166 126.806 2.22066 126.666 2.14483C121.585 -0.63189 115.109 -0.429683 109.72 1.14945C109.567 1.19519 109.468 1.34925 109.509 1.50813C109.774 2.52277 110.116 3.7348 110.692 4.61343C110.803 4.78435 111.047 4.64353 110.964 4.46058C110.621 3.7023 110.407 2.81163 110.172 2.01605C109.968 1.32036 111.478 1.35286 111.939 1.21565C114.436 0.471819 117.934 0.172121 120.433 0.96891C121.333 1.25537 122.315 1.44794 123.232 1.70191C123.986 1.91133 124.787 2.52036 125.559 2.57934C126.222 2.62989 125.494 5.29949 125.444 6.42246C125.091 6.20701 124.74 5.97592 124.388 5.72075C124.469 4.99257 124.528 4.26198 124.589 3.53139C124.59 3.49889 124.574 3.46158 124.543 3.44594L123.833 3.00301C123.589 2.87061 123.33 2.7671 123.079 2.64915C122.825 2.5324 122.557 2.45657 122.297 2.35908C122.038 2.25557 121.764 2.20502 121.496 2.134C120.958 1.99799 120.412 1.8993 119.865 1.83671C119.316 1.7657 118.765 1.73922 118.215 1.71033C117.112 1.67302 116.014 1.71996 114.913 1.76088C113.813 1.81625 112.71 1.96068 111.652 2.33982C111.604 2.35667 111.578 2.40842 111.592 2.45777C111.792 3.14744 112.103 3.78656 112.412 4.42086C110.553 5.11775 108.717 5.9687 106.869 6.68003C104.978 7.40581 102.52 8.60821 101.052 10.0092C100.973 10.0826 100.942 10.1994 100.969 10.3017C101.183 11.0973 101.91 11.5823 102.433 12.2094C102.591 12.3972 102.741 12.6054 102.895 12.804C102.514 12.9689 102.124 13.206 101.735 13.4937C101.108 12.8834 100.522 12.0662 99.9878 11.4656C99.6532 11.0888 99.3524 10.7554 98.9456 10.4714C97.8397 9.69627 99.2477 9.39778 99.8518 9.07882C102.924 7.45756 106.332 4.90832 109.769 4.23911C109.92 4.20902 109.929 3.96108 109.774 3.93099C108.305 3.64573 106.69 4.69769 105.44 5.36689C102.883 6.74141 100.324 8.36147 97.617 9.42305C97.4101 9.5049 97.2584 9.73238 97.3932 9.95143C97.8469 10.6929 98.6002 11.2573 99.2898 11.8507C98.1261 12.5296 97.0695 13.3131 96.0731 14.2062C95.1886 14.9982 93.6602 15.9249 93.5122 17.2008C93.4905 17.3933 93.7156 17.5017 93.8877 17.5895C94.6687 17.9903 95.966 19.1061 96.3763 19.4768C97.4943 20.483 98.8951 22.1416 100.095 23.1406C99.4679 23.9374 98.8421 24.7354 98.2079 25.5237C98.1129 25.6417 98.0635 25.8354 98.2007 25.9522C99.0214 26.6467 100.015 27.1763 100.914 27.7805C102.816 29.0647 104.432 30.704 106.054 32.3145C107.398 33.6493 108.366 35.4667 109.525 36.9784C110.123 37.7584 110.525 38.5046 111.042 39.3652C111.344 39.8695 111.904 40.9612 112.205 41.5076C112.425 41.906 112.743 42.0649 113.053 41.6352C113.542 40.9612 114.808 40.032 115.47 39.3086C115.618 39.1486 115.4 38.9235 115.234 39.0655C114.595 39.6156 113.653 40.0368 112.934 40.6061C112.58 39.5385 111.644 38.3289 111.192 37.626C109.849 35.5425 108.438 33.4687 106.811 31.5791C105.155 29.6545 102.899 27.9791 100.727 26.6912C100.407 26.501 98.711 25.8439 99.2922 25.1037C100.192 23.9566 100.97 22.7614 101.803 21.5663C101.918 21.4026 101.653 21.1883 101.526 21.346C101.343 21.5711 101.165 21.801 100.983 22.0272C100.332 21.0439 99.6147 20.1027 98.853 19.2024C98.4618 18.7462 98.0768 18.2828 97.6544 17.8495C97.2596 17.4499 96.8685 17.0491 96.3968 16.7121C96.9552 16.1464 97.5123 15.5855 98.0948 15.0463C98.392 14.7526 98.7122 14.4878 99.019 14.2074C99.3283 13.9294 99.6653 13.685 99.9902 13.4226C99.6532 13.667 99.3006 13.892 98.9757 14.1544C98.6544 14.4192 98.315 14.666 98.007 14.9464C97.3764 15.494 96.771 16.0682 96.1669 16.6435L96.1549 16.6579C96.1212 16.7049 96.1308 16.7687 96.1778 16.8012L96.185 16.8072C96.6495 17.1442 97.0671 17.5895 97.4726 18.0216L98.6761 19.354C99.4438 20.2459 100.225 21.1257 100.978 22.032C100.768 22.298 100.556 22.5616 100.345 22.8276C99.4414 21.5542 97.9155 20.0569 96.8649 19.0026C96.3162 18.4501 95.1416 17.4728 94.4954 17.0852C94.2595 16.9432 95.2656 16.132 95.5905 15.8106C96.8902 14.5239 98.3451 13.4455 99.6821 12.2178C99.8024 12.3322 99.9312 12.4405 100.041 12.5621C100.267 12.8136 100.914 13.3239 101.383 13.756C100.393 14.5516 99.4414 15.5663 98.7398 16.2319C98.0406 16.8938 98.6472 17.2272 99.2754 17.8086C104.322 22.4882 107.318 28.6314 111.354 34.1139C111.465 34.2643 111.768 34.1885 111.689 33.9791C110.794 31.6224 108.255 28.3727 106.84 26.2856C105.613 24.4766 105.082 23.6581 103.56 21.6397C102.271 19.9293 100.769 17.9819 99.0238 16.7121C98.9408 16.6495 102.215 13.8126 103.132 13.1097C103.354 13.407 103.57 13.7115 103.781 14.022C103.297 14.3795 102.811 14.7358 102.342 15.1137C102.072 15.328 101.801 15.5434 101.544 15.7745C101.286 16.0128 101.024 16.2198 100.799 16.5352C100.774 16.5713 100.776 16.6206 100.806 16.6555L100.815 16.664L102.428 18.4609C102.959 19.0664 103.498 19.667 103.986 20.3097C104.972 21.5855 105.865 22.9287 106.744 24.2816C107.625 25.6344 108.561 26.9524 109.461 28.286C109.889 28.9648 110.346 29.6292 110.741 30.3309C111.157 31.0206 111.544 31.7271 111.935 32.4336C111.939 32.4396 111.946 32.4408 111.952 32.4396C111.958 32.436 111.962 32.4288 111.958 32.4216C111.622 31.6874 111.278 30.9556 110.877 30.2527C110.507 29.5341 110.072 28.8493 109.667 28.1488C109.232 27.4651 108.773 26.808 108.317 26.1351L106.939 24.1492C106.01 22.8288 105.051 21.5277 104.052 20.2591C103.568 19.6116 103.069 18.9785 102.568 18.3442C102.09 17.7304 101.561 17.161 101.038 16.5869C101.21 16.3558 101.451 16.1356 101.677 15.9225L102.445 15.2377L103.805 14.0569C104.579 15.198 105.278 16.4112 105.827 17.6112C106.543 19.1807 107.295 20.7334 108.011 22.3041C108.561 23.5113 108.83 25.1518 109.797 26.1219C109.942 26.2663 110.163 26.0906 110.075 25.9137C107.583 20.8453 106.069 15.6433 102.374 11.2176C101.228 9.84311 103.14 9.35806 104.266 8.71051C105.602 7.94261 107.055 7.37692 108.46 6.76067C109.485 6.31173 110.566 6.03369 111.594 5.59317C111.802 5.5029 113.473 4.75666 113.44 4.59779C113.541 5.06599 113.641 5.15747 113.91 5.52697C114.038 5.7039 114.308 5.56067 114.21 5.35847C114.126 5.02627 114.04 4.69408 113.956 4.36068C113.999 4.15727 113.827 3.91655 113.597 3.99358C113.212 4.11875 112.828 4.26559 112.446 4.40882L112.106 3.45436C111.993 3.14022 111.903 2.82006 111.814 2.5011C112.294 2.33982 112.804 2.25436 113.305 2.15085C113.843 2.06179 114.382 1.97272 114.926 1.90772C115.47 1.83671 116.017 1.80421 116.565 1.78736C117.114 1.78736 117.661 1.81023 118.207 1.84754C118.751 1.89809 119.295 1.95467 119.833 2.04975C120.371 2.14243 120.908 2.23992 121.431 2.38796C121.957 2.52518 122.474 2.69488 122.978 2.89348C123.463 3.09328 123.926 3.33159 124.382 3.59398C124.364 4.29207 124.346 4.99257 124.347 5.69307C124.324 5.67622 124.3 5.66178 124.278 5.64613C122.079 4.02607 119.359 3.133 116.607 3.1342C116.506 3.1342 116.455 3.2004 116.437 3.27502C116.408 3.29669 116.387 3.32678 116.381 3.37131C116.292 4.08385 116.198 4.79518 116.105 5.50651C114.537 5.74723 113.276 6.14924 111.689 6.44051C110.208 6.71253 108.022 7.65736 106.686 8.32536C106.466 8.4373 106.419 8.71774 106.521 8.91994C106.549 8.97651 106.572 9.03429 106.599 9.08965C106.152 9.25816 105.705 9.42546 105.262 9.60479C104.691 9.807 104.16 10.138 103.609 10.416L103.602 10.422C103.552 10.4509 103.538 10.5147 103.568 10.5629L103.58 10.5809C103.9 11.0985 104.227 11.6136 104.566 12.1191C104.909 12.6259 105.243 13.1362 105.52 13.6826L106.351 15.3195C106.62 15.8684 106.906 16.4076 107.16 16.9637C107.666 18.0782 108.185 19.1831 108.721 20.282C109.004 20.8236 109.207 21.3977 109.455 21.9562C109.689 22.5195 109.934 23.0804 110.19 23.6401C110.193 23.6461 110.2 23.6509 110.206 23.6485C110.213 23.6461 110.217 23.6389 110.214 23.6316C110.023 23.0527 109.821 22.4726 109.608 21.8984C109.389 21.3255 109.212 20.7334 108.957 20.1749C108.442 19.0627 107.911 17.9578 107.367 16.8601C107.086 16.3173 106.771 15.7901 106.477 15.2533L105.588 13.6453C105.32 13.0941 105.005 12.5693 104.703 12.0349C104.422 11.5366 104.13 11.0455 103.834 10.5568L104.521 10.1717C104.775 10.0152 105.057 9.89848 105.332 9.76849C105.767 9.56748 106.195 9.35565 106.625 9.14381C108.613 13.2228 109.68 17.6521 110.745 22.0537C110.768 22.1488 110.985 22.6062 111.083 22.605C111.121 22.6038 111.157 22.6038 111.194 22.6026C111.361 22.6014 111.465 22.1187 111.43 21.9562C111.134 20.5384 110.68 18.6656 110.326 17.4186C109.716 15.2581 109.207 13.1145 108.41 11.0094C107.615 8.90791 106.93 8.91994 109.207 7.97391C111.347 7.08685 113.832 6.38515 116.067 5.81102C116 6.31293 115.939 6.81363 115.878 7.31433C114.825 7.52015 113.785 7.79698 112.762 8.11714C111.673 8.46016 110.598 8.86939 109.595 9.43509C109.575 9.44592 109.566 9.4712 109.572 9.49286C109.892 10.4738 110.169 11.468 110.46 12.4561L111.284 15.4351C111.562 16.4256 111.803 17.4246 112.06 18.42C112.175 18.9207 112.305 19.4202 112.407 19.9233C112.496 20.43 112.604 20.9344 112.71 21.4399C112.71 21.4459 112.718 21.4519 112.724 21.4507C112.731 21.4507 112.736 21.4435 112.736 21.4363C112.639 20.4084 112.478 19.3865 112.277 18.3719C112.081 17.3572 111.825 16.3546 111.539 15.3629C111.26 14.3687 110.94 13.3865 110.607 12.4104C110.295 11.4427 109.947 10.4858 109.68 9.5061C110.176 9.26177 110.693 9.06077 111.218 8.87902L112.829 8.32657C113.839 7.99196 114.854 7.67662 115.87 7.36247C115.653 9.12095 115.462 10.8854 115.381 12.6632C115.278 14.879 114.826 17.6786 115.714 19.7524C115.799 19.9522 116.07 19.803 116.043 19.62C115.23 14.2941 116.471 8.83449 116.643 3.51454C122.379 3.92136 126.456 8.75505 131.944 10.1476C130.752 12.4321 129.861 15.0102 128.817 17.3705C127.698 19.9005 126.134 22.3113 125.746 25.088C125.717 25.295 126.035 25.3684 126.13 25.1987C127.45 22.8132 128.535 20.2242 129.597 17.7123C130.635 15.2545 131.969 12.7342 132.41 10.0766C132.551 9.91171 132.526 9.61081 132.257 9.49647Z" fill="#0D4680"/>
<path d="M122.163 14.29C122.099 14.4333 122.034 14.5753 121.971 14.7197C121.261 15.6116 120.358 14.7245 120.517 13.9747C120.529 13.8218 120.563 13.6894 120.589 13.5486C121.137 13.8555 121.736 14.1179 122.163 14.29ZM123.326 13.9795C123.801 13.2477 124.785 13.4307 124.998 14.2961C125.051 14.5103 125.055 14.7282 125.034 14.9436C124.478 14.5584 123.867 14.2202 123.373 14.0228C123.354 14.0144 123.335 14.006 123.316 13.9976L123.326 13.9795ZM121.274 11.0969C120.861 11.3243 120.462 11.8756 120.177 12.534C119.956 12.4449 119.742 12.3534 119.505 12.2764C119.412 12.2475 119.279 12.3835 119.333 12.4955C119.436 12.7109 119.67 12.93 119.957 13.143C119.566 14.4561 119.681 15.9077 120.984 16.0497C122.028 16.1629 122.491 15.407 122.957 14.597C123.554 14.8244 124.163 15.0676 124.68 15.4106C124.766 15.4672 124.838 15.5165 124.913 15.5683C124.904 15.5972 124.897 15.6272 124.89 15.6573C124.837 15.8415 124.406 16.9235 124.223 16.9512C124.116 16.9681 124.102 17.1618 124.209 17.1871C124.668 17.2991 125.298 16.282 125.481 15.9739C125.49 15.9594 125.495 15.9426 125.504 15.9269C125.663 16.0052 125.832 16.0738 126.053 16.1231C126.154 16.146 126.258 16.0232 126.174 15.9233C126.044 15.7717 125.883 15.6176 125.707 15.4648C126.007 14.5849 125.891 13.5426 125.287 12.8517C124.501 11.9526 123.401 12.351 122.757 13.1803C122.652 13.3151 122.572 13.4692 122.489 13.622C121.947 13.356 121.395 13.0648 120.802 12.7927C120.989 12.3089 121.236 11.8575 121.486 11.358C121.563 11.2052 121.433 11.0066 121.274 11.0969Z" fill="#0D4680"/>
<path d="M125.21 23.9604C125.322 23.3947 125.491 22.8447 125.693 22.3043C125.891 21.7638 126.101 21.227 126.322 20.695C126.766 19.6311 127.24 18.5791 127.713 17.5259C128.192 16.4752 128.653 15.416 129.088 14.3448C129.52 13.2724 129.945 12.1928 130.227 11.0566L130.229 11.0493C130.241 10.9855 130.198 10.9242 130.133 10.9109C129.586 10.7918 129.047 10.6341 128.52 10.4367C127.996 10.2321 127.482 9.99978 126.973 9.75425C125.96 9.25716 124.983 8.67822 124.008 8.09568C123.036 7.51313 122.067 6.91734 121.062 6.38294C120.559 6.11935 120.048 5.8678 119.527 5.63671C119.005 5.40802 118.463 5.22868 117.908 5.08425L117.894 5.08305C117.86 5.08184 117.831 5.10953 117.831 5.14202C117.608 7.58053 117.221 10.0118 117.046 12.4624C116.954 13.6888 116.878 14.9153 116.849 16.1442C116.821 17.3707 116.849 18.6104 117.041 19.8224C117.041 19.8284 117.049 19.8345 117.056 19.8345C117.062 19.8333 117.067 19.8272 117.066 19.8212C116.93 18.5972 116.962 17.3731 116.996 16.149C117.045 14.9237 117.143 13.7033 117.257 12.4816L117.612 8.82025C117.729 7.62386 117.869 6.43109 117.95 5.22868C119.024 5.48024 120.052 5.92437 121.019 6.46358C122.012 7.01002 122.97 7.61905 123.933 8.21965C124.895 8.82265 125.863 9.42446 126.875 9.94923C127.382 10.2128 127.904 10.4475 128.437 10.657C128.931 10.8459 129.44 10.994 129.958 11.1143C129.677 12.1807 129.273 13.2194 128.854 14.2497L127.505 17.4357C127.056 18.4997 126.606 19.5637 126.186 20.6409C125.978 21.1789 125.77 21.7193 125.598 22.2718C125.418 22.823 125.273 23.3839 125.185 23.9568C125.184 23.964 125.189 23.9713 125.196 23.9725C125.203 23.9737 125.209 23.9677 125.21 23.9604Z" fill="#0D4680"/>
<path d="M102.841 22.7217C102.836 22.7157 102.828 22.7169 102.822 22.7229C102.102 23.4956 101.412 24.2985 100.742 25.1253L100.735 25.1374C100.706 25.1843 100.722 25.2457 100.769 25.2746L100.777 25.2806C101.343 25.6236 101.895 25.9919 102.431 26.3867C102.972 26.7743 103.506 27.1799 104.015 27.612C105.028 28.4834 105.952 29.4535 106.845 30.4441C107.737 31.4371 108.602 32.4541 109.425 33.5024C109.838 34.0248 110.243 34.5532 110.633 35.096C111.014 35.6425 111.382 36.1997 111.742 36.7642C111.744 36.7714 111.753 36.7726 111.759 36.7702C111.765 36.7666 111.767 36.7582 111.763 36.7522L111.298 35.8603L110.773 35.0009C110.407 34.4389 110.035 33.8804 109.631 33.3436C108.82 32.2736 107.938 31.2589 107 30.2996C106.532 29.8182 106.046 29.3584 105.561 28.8962L104.075 27.5422C103.114 26.672 102.13 25.803 100.984 25.1578C101.613 24.3622 102.225 23.551 102.842 22.7386C102.846 22.7338 102.846 22.7253 102.841 22.7217Z" fill="#0D4680"/>
<path d="M118.268 12.2597C118.26 12.2573 118.253 12.2609 118.252 12.2681C118.252 12.2681 118.079 12.6545 118.005 13.3887C117.945 14.1169 118.026 15.1965 118.541 16.3604C118.798 16.9381 119.179 17.5327 119.731 18.0153C120.269 18.5076 120.972 18.8819 121.747 19.042C122.522 19.2081 123.351 19.1552 124.15 18.9734C124.959 18.7929 125.717 18.3463 126.282 17.7144C127.432 16.4338 127.669 14.5453 127.239 13.0288C127.035 12.2573 126.648 11.564 126.154 11.0188C125.648 10.4651 125.013 10.151 124.432 9.91506C123.249 9.45167 122.151 9.42759 121.436 9.5961C121.075 9.67193 120.812 9.7971 120.634 9.87774C120.464 9.97403 120.372 10.0258 120.372 10.0258C120.368 10.0282 120.364 10.0366 120.368 10.0426C120.371 10.0487 120.38 10.0511 120.386 10.0475C120.386 10.0475 120.478 10.0029 120.653 9.91867C120.833 9.85006 121.098 9.74414 121.454 9.69118C122.158 9.56962 123.222 9.61776 124.352 10.1076C124.914 10.352 125.495 10.6938 125.966 11.1933C126.434 11.7012 126.805 12.3572 127.002 13.0926C127.205 13.8256 127.262 14.6308 127.125 15.4192C127.001 16.2039 126.696 16.9923 126.167 17.6157C125.643 18.2392 124.913 18.6894 124.13 18.8867C123.345 19.0962 122.521 19.0817 121.778 18.9072C121.031 18.7267 120.37 18.3511 119.869 17.8649C119.365 17.381 118.999 16.8202 118.726 16.2749C118.192 15.1652 118.092 14.1084 118.116 13.3947C118.133 12.6749 118.277 12.2765 118.277 12.2765C118.277 12.2693 118.274 12.2597 118.268 12.2597Z" fill="#0D4680"/>
<path d="M32.1716 113.35C35.7873 110.104 31.1142 103.946 27.2579 103.425C27.034 103.393 26.9821 103.695 27.192 103.76C30.6723 104.863 34.068 109.653 31.8389 113.132C31.7064 113.342 32.0198 113.486 32.1716 113.35Z" fill="#0D4680"/>
<path d="M20.4033 100.109C20.3552 100.302 20.6428 100.391 20.7283 100.218C22.0643 97.4956 24.6171 95.908 26.5562 93.6549C27.1736 92.9387 27.3975 91.7688 26.5549 91.2561C25.4464 90.5761 23.0874 92.1636 22.376 92.8533C20.0398 95.1076 19.219 96.6158 18.102 99.4816C18.0828 99.5321 18.0803 99.5923 18.1128 99.6356L18.2152 99.7752C18.3271 99.9257 18.4089 99.7921 18.4559 99.6152C18.776 98.3899 20.6356 95.8804 21.04 95.3833C21.8019 94.4481 23.1307 93.1036 24.2344 92.5464C25.6847 91.8134 26.8944 92.0565 25.4103 93.4695C23.4183 95.3688 21.093 97.3271 20.4033 100.109Z" fill="#0D4680"/>
<path d="M30.275 101.63C29.4567 101.281 28.4554 100.858 27.5517 100.989C26.7731 101.1 26.4457 102.21 26.1605 102.8C26.0895 102.943 26.2965 103.088 26.3988 102.957C26.666 102.613 27.4109 101.506 27.8453 101.536C28.3724 101.57 28.8538 101.772 29.3484 101.94C29.9717 102.15 30.7227 102.714 31.4146 102.673C32.5988 102.603 31.8214 100.867 31.4592 100.441C31.1391 100.063 30.7816 99.6685 30.3869 99.3267C29.8081 97.8065 28.8802 96.1563 26.9752 96.4079C24.7706 96.7004 22.7368 98.0857 21.4792 99.8081C21.395 99.9224 21.4636 100.155 21.5996 100.054C23.2278 98.8452 24.3169 98.0388 25.8861 97.5357C26.7971 97.242 27.7226 97.0759 28.4964 97.7836C28.7527 98.0171 28.9645 98.2928 29.1667 98.5756C28.8429 98.4564 28.5 98.3927 28.1317 98.4119C26.2387 98.5082 24.8753 99.8671 24.0642 101.5C23.9691 101.692 24.2242 101.841 24.365 101.699C25.5865 100.456 27.2941 98.3096 29.2497 99.4193C29.7876 99.725 30.1703 100.127 30.5927 100.568C30.8033 100.787 31.0295 101.014 31.1752 101.284C31.5109 101.828 30.6745 101.959 30.275 101.63Z" fill="#0D4680"/>
<path d="M7.23705 93.2134C5.07813 91.7991 2.93003 90.1201 0.686862 88.8503C4.53659 84.699 5.33325 78.4258 9.92669 74.9667C12.9605 79.3382 16.9715 83.2463 19.1834 88.1582C19.2592 88.3279 19.5673 88.3063 19.5299 88.0908C19.1497 85.8665 17.2483 83.7614 15.9582 81.9584C14.9233 80.5105 13.8053 79.1348 12.6645 77.7747C13.691 77.487 14.7139 77.1994 15.7428 76.9334L17.3963 76.5205C17.9354 76.3869 18.4782 76.275 19.0269 76.21C19.3362 77.1777 19.5648 78.1695 19.8272 79.1504C20.0787 80.1518 20.3435 81.152 20.6503 82.1378C20.95 83.1247 21.2785 84.1069 21.666 85.0637C22.0475 86.0242 22.4687 86.9702 22.9464 87.8838C22.9489 87.891 22.9573 87.8946 22.9633 87.891C22.9693 87.8874 22.9717 87.8802 22.9693 87.8742C22.7816 87.3927 22.5999 86.9113 22.4001 86.4371C22.2112 85.9592 22.0499 85.4693 21.8742 84.9867C21.5481 84.0106 21.2063 83.0417 20.9018 82.0583L19.9764 79.1095C19.6828 78.1225 19.3771 77.1392 19.1112 76.1402C19.1051 76.1185 19.0835 76.1029 19.0606 76.1053C17.9114 76.1763 16.7862 76.4146 15.685 76.7179C14.6537 77.0068 13.6296 77.3402 12.6344 77.7386C12.3107 77.3522 11.9857 76.9659 11.6596 76.5807C13.8462 75.8465 16.3132 75.0858 18.5925 74.6682C21.0174 74.224 20.4361 74.5851 20.9103 76.7817C21.3856 78.9819 22.1245 81.0581 22.784 83.2042C23.1655 84.4427 23.8021 86.2613 24.3231 87.6106C24.3833 87.7682 24.7323 88.1161 24.8731 88.027C24.9044 88.0078 24.9369 87.9873 24.9682 87.9692C25.0512 87.9151 24.985 87.4132 24.9525 87.3205C23.4543 83.0489 21.944 78.7484 21.3964 74.2445C21.8706 74.1891 22.3459 74.1338 22.8201 74.0664C23.1221 74.0279 23.4218 73.9713 23.7202 73.9653L24.5061 73.9147C24.5229 74.4852 24.5446 75.0569 24.5807 75.6274C24.6168 76.2401 24.6372 76.8527 24.7119 77.4605L24.8394 79.2936C24.8839 79.9039 24.9068 80.5165 24.9658 81.1255C25.1054 82.3436 25.2606 83.5592 25.4327 84.7725C25.5218 85.3791 25.695 85.9725 25.8226 86.5731C25.955 87.1725 26.1006 87.7682 26.2558 88.358C26.257 88.3652 26.2643 88.37 26.2715 88.3676C26.2775 88.3652 26.2811 88.358 26.2799 88.3508C26.1909 87.7418 26.0922 87.1375 25.9815 86.5394C25.8864 85.9351 25.7456 85.343 25.689 84.7339C25.5398 83.5195 25.3761 82.3099 25.1968 81.1015C25.1066 80.496 25.0548 79.8882 24.9814 79.2804L24.7889 77.4545C24.7251 76.8455 24.7275 76.2353 24.7407 75.6238C24.7504 75.0148 24.7443 74.4046 24.7335 73.7968L24.7323 73.7751C24.7311 73.7185 24.6842 73.6728 24.6276 73.674H24.618C24.0054 73.7402 23.3797 73.7498 22.79 73.8918C22.3207 73.9809 21.8537 74.0832 21.388 74.1855C21.3796 74.1241 21.3688 74.064 21.3615 74.0014C21.3363 73.7763 21.1449 73.5657 20.8994 73.5921C19.4156 73.757 17.0666 74.1518 15.6766 74.7284C14.1844 75.3446 12.9075 75.6949 11.461 76.3436C10.9965 75.7984 10.5308 75.2519 10.0699 74.7031C10.041 74.6694 10.0049 74.6549 9.96881 74.6525C9.91345 74.5996 9.83643 74.5707 9.75099 74.6273C7.43923 76.1209 5.64253 78.3488 4.67618 80.9029C4.66656 80.9317 4.65452 80.9546 4.64369 80.9823C4.26341 80.3937 3.86749 79.8148 3.47397 79.2395C3.71345 78.7713 3.97339 78.3187 4.27184 77.8878C4.58713 77.4461 4.9289 77.0248 5.29594 76.6228C5.65336 76.2136 6.05289 75.8393 6.45363 75.471C6.85316 75.0979 7.27797 74.7548 7.70759 74.4154C8.14684 74.0868 8.5933 73.7715 9.05421 73.473C9.52354 73.1901 10.0001 72.9193 10.4959 72.6834C10.9869 72.4427 11.4887 72.2261 11.9881 72.007C12.4647 71.8204 12.9388 71.6158 13.4298 71.4894C13.5285 71.806 13.6272 72.1237 13.703 72.4499L13.9365 73.4345C13.5369 73.5235 13.135 73.6078 12.7439 73.7125C12.5104 73.7727 12.496 74.0688 12.6428 74.2168C12.7523 74.5394 12.8618 74.8656 12.9713 75.1893C12.999 75.4156 13.3035 75.3867 13.3155 75.1701C13.3396 74.7127 13.3757 74.5827 13.2048 74.1326C13.2614 74.2842 15.0713 74.0026 15.2951 73.9665C16.3975 73.7787 17.4553 73.4236 18.56 73.2419C20.0739 72.9964 21.601 72.6798 23.1402 72.5992C24.4363 72.5294 26.3052 71.8987 26.0898 73.6764C25.3954 79.3984 26.9502 84.5883 27.6109 90.1971C27.635 90.3933 27.9153 90.421 27.9587 90.2224C28.2427 88.8816 27.5784 87.3578 27.3834 86.0447C27.1295 84.338 26.9177 82.6264 26.6674 80.9185C26.4749 79.6126 26.4027 78.2152 26.4327 76.8383L28.2162 77.0886L29.2331 77.2463C29.5376 77.3017 29.8589 77.357 30.1284 77.4557C30.0021 78.2224 29.8685 78.9879 29.7999 79.7618C29.7253 80.5671 29.6507 81.3699 29.5965 82.1763C29.4473 83.7843 29.3486 85.3995 29.2848 87.0124L29.2078 89.4268C29.191 90.2392 29.1621 91.0421 29.1705 91.8521C29.209 92.6609 29.2174 93.4721 29.2957 94.2761C29.3426 95.085 29.4509 95.8854 29.5676 96.6846C29.5688 96.693 29.5749 96.6966 29.5821 96.6966C29.5893 96.6954 29.5941 96.6882 29.5929 96.6822C29.5375 95.8757 29.4786 95.0729 29.4521 94.2677C29.404 93.4637 29.4256 92.6585 29.416 91.8557C29.4473 90.2465 29.5171 88.6312 29.5207 87.0172C29.5243 85.4044 29.5436 83.7903 29.6784 82.1835C29.7385 81.3795 29.8637 80.5827 29.9804 79.7859L30.3595 77.3992L30.3619 77.3883C30.3679 77.3414 30.3426 77.2993 30.3017 77.2836C29.9419 77.1404 29.6098 77.1091 29.2632 77.0489C28.9226 76.996 28.5784 76.961 28.2355 76.9285C27.6362 76.866 27.0344 76.8311 26.4339 76.7937C26.4412 76.4182 26.4568 76.0463 26.4833 75.6756C27.6337 75.7671 31.9251 76.3689 31.8878 76.4664C31.1128 78.4812 30.9119 80.9317 30.759 83.0694C30.5773 85.5909 30.5773 86.5658 30.5292 88.7528C30.475 91.2731 30.1092 95.3811 30.6411 97.8448C30.688 98.0627 30.9816 97.9628 30.9937 97.7762C31.404 90.9807 30.5797 84.1959 32.2729 77.5243C32.4835 76.6938 32.812 76.0848 31.865 75.9091C30.9155 75.7322 29.564 75.3964 28.3028 75.2676C28.4593 74.6489 28.7264 73.8702 28.7806 73.5344C28.8059 73.3743 28.842 73.2118 28.8817 73.0505C30.6748 73.3562 32.4859 73.4706 34.2814 73.8437C34.7291 73.9364 36.0131 74.0712 35.8928 74.3179C35.5606 74.9944 35.1058 76.4531 34.9457 77.2162C34.6364 78.6726 34.1683 80.7596 34.1021 82.3183C33.782 82.21 33.4595 82.1029 33.1382 81.9945C33.279 80.8234 33.4547 79.6607 33.6159 78.4956L33.9023 76.7239C34.0082 76.1378 34.1165 75.5384 34.3235 75.004L34.3271 74.9944C34.3476 74.9414 34.3211 74.8836 34.2682 74.862L34.2501 74.8559C33.4306 74.7019 32.6099 74.549 31.7831 74.4323C31.3716 74.3649 30.954 74.3396 30.5388 74.2926C30.1248 74.2505 29.7048 74.2529 29.2909 74.2301C29.7048 74.2746 30.1212 74.2951 30.5316 74.3613C30.9431 74.4311 31.3547 74.4792 31.7627 74.5635C32.5437 74.6995 33.3187 74.8692 34.0925 75.0377C33.8807 75.5781 33.77 76.1281 33.6568 76.6782C33.5377 77.2692 33.4643 77.8674 33.3849 78.4644C33.2356 79.6343 33.1442 80.8126 33.1322 81.9933C32.8566 81.9019 32.5834 81.8056 32.3066 81.7153C32.1129 81.6539 32.0082 81.9753 32.1935 82.0523C33.5413 82.6048 34.8434 83.1825 36.2225 83.6567C37.1131 83.9624 36.048 85.4344 35.882 85.769C34.7592 88.0306 33.7736 90.6629 33.4294 93.1797C33.0924 95.6495 33.0335 98.1566 33.0395 100.636C33.0407 101.471 32.9131 102.996 33.1947 104.084C32.2825 103.998 31.2645 104.158 30.4281 104.042C30.2115 104.015 30.1513 104.32 30.3619 104.373C31.3114 104.621 32.8782 104.713 33.6556 105.014C34.149 105.205 34.3283 104.898 34.2971 104.445C34.2525 103.822 34.1298 102.603 34.1105 102.015C34.0756 101.012 34.0082 100.167 34.0865 99.1869C34.2381 97.2876 34.0624 95.2378 34.4655 93.3855C34.9517 91.1516 35.4174 88.896 36.3164 86.7861C36.7412 85.7895 37.2888 84.805 37.6004 83.7759C37.6522 83.6038 37.5054 83.4665 37.3622 83.4196C36.4006 83.1031 35.4415 82.7733 34.4824 82.4471C34.9469 80.9534 35.2213 78.799 35.6136 77.3474C35.7568 76.8142 36.2394 75.1725 36.6762 74.4106C36.7737 74.2445 36.9037 74.0303 36.7809 73.881C35.9626 72.8904 34.1767 72.9434 33.0046 72.7593C31.682 72.551 30.3691 72.468 29.0237 72.5306C29.28 71.6592 29.6049 70.7745 29.5833 69.9055C29.5773 69.6491 29.327 69.5396 29.1091 69.5841C26.2594 70.1631 23.2317 70.1956 20.3374 70.4315C18.9234 70.5482 16.998 70.5422 15.9197 71.5809C15.8066 71.6904 15.9486 71.8951 16.0906 71.8373C19.341 70.5314 23.5855 70.819 27.0453 70.5097C27.7252 70.4483 29.0706 69.9344 28.5628 71.1849C28.3751 71.6459 28.3041 72.0876 28.2282 72.5859C28.1067 73.3803 28.0586 74.3853 27.8648 75.2375C27.3798 75.2074 26.9249 75.2218 26.5158 75.2892C26.5374 75.0389 26.5495 74.7837 26.5796 74.5394C26.6782 73.7294 27.026 72.9278 26.7721 72.143C26.7396 72.0407 26.6481 71.9625 26.5435 71.942C24.5506 71.5641 21.8321 71.8902 19.8525 72.3091C17.9138 72.7171 15.9101 73.0012 13.9714 73.4273C13.8871 72.7268 13.7993 72.0202 13.5935 71.333C13.5779 71.2836 13.5273 71.2547 13.4768 71.2668C12.3841 71.5231 11.3792 72.001 10.4261 72.5522C9.48022 73.1179 8.53193 73.6752 7.62816 74.3047C7.1817 74.6273 6.73403 74.9498 6.31042 75.3085C5.88441 75.6587 5.48007 76.0367 5.1034 76.4435C4.91687 76.6493 4.71469 76.8407 4.55464 77.0694C4.38857 77.2908 4.20324 77.5015 4.05402 77.7362C3.90841 77.9733 3.74594 78.2008 3.61357 78.4451L3.25856 79.201C3.24051 79.2323 3.24773 79.2732 3.26578 79.2985C3.71466 79.8798 4.16112 80.4611 4.62444 81.028C4.46799 81.4324 4.29831 81.8176 4.12021 82.1907C3.46675 81.2748 1.4053 79.4296 1.9336 79.0264C2.55095 78.557 2.89152 77.611 3.4114 77.026C4.04198 76.3147 4.76283 75.6178 5.36213 74.8884C7.02766 72.8616 10.1265 71.2114 12.6272 70.4796C13.0881 70.3448 14.3384 69.4951 14.5442 70.1908C14.7801 70.9851 15.0845 71.8493 15.2085 72.6738C15.2374 72.8724 15.5202 72.8579 15.5202 72.6533C15.5262 71.6026 15.1543 70.4002 14.8246 69.4048C14.7728 69.2483 14.6068 69.1713 14.4539 69.2182C9.07226 70.8202 3.52572 74.1711 0.769897 79.2635C0.692879 79.4032 0.732591 79.6174 0.86256 79.7161C1.8975 80.4936 2.87106 81.9705 3.71466 82.9995C2.67009 84.9313 1.36318 86.555 0.0707129 88.4736C-0.0917483 88.7167 0.0490511 88.9815 0.257242 89.0453C2.0732 91.0348 4.56066 92.425 6.76892 93.9247C9.02533 95.4569 11.3431 97.0408 13.7475 98.3239C13.9184 98.4142 14.1459 98.1819 14.0087 98.023C12.1735 95.9034 9.55122 94.7287 7.23705 93.2134Z" fill="#0D4680"/>
<path d="M10.7488 86.7055C10.62 86.6153 10.4924 86.525 10.3624 86.4347C9.62341 85.5693 10.6633 84.8508 11.3711 85.1493C11.5179 85.1902 11.6431 85.2492 11.7755 85.3021C11.3698 85.7788 10.9979 86.3204 10.7488 86.7055ZM10.8306 87.9055C11.4613 88.511 11.0942 89.4425 10.2036 89.4883C9.98329 89.4991 9.76905 89.4618 9.56083 89.3992C10.0459 88.9262 10.4936 88.3906 10.7789 87.9453C10.7909 87.9272 10.8054 87.9116 10.8162 87.8923C10.821 87.8971 10.827 87.9019 10.8306 87.9055ZM13.0489 84.2682C12.8166 84.3284 12.5566 84.5162 12.2954 84.7593C11.0798 84.1238 9.63304 83.9613 9.24428 85.2131C8.93495 86.2181 9.59092 86.8151 10.2962 87.4265C9.95922 87.9693 9.60295 88.5206 9.16965 88.9635C9.09744 89.0369 9.03605 89.0971 8.97106 89.1609C8.94338 89.1477 8.91569 89.1356 8.88921 89.1224C8.7183 89.0345 7.73616 88.4062 7.74338 88.2221C7.74819 88.1138 7.56043 88.062 7.51469 88.1631C7.3185 88.5916 8.19473 89.4052 8.46434 89.6423C8.47638 89.6532 8.49202 89.6628 8.50526 89.6736C8.39934 89.8157 8.29945 89.9685 8.20917 90.1755C8.16825 90.2694 8.26815 90.397 8.38129 90.3332C8.55461 90.2345 8.73756 90.1045 8.92171 89.9613C9.72813 90.4223 10.7741 90.5065 11.5672 90.0456C12.5987 89.445 12.417 88.2895 11.7249 87.4987C11.613 87.3723 11.4758 87.2616 11.3422 87.1509C11.7069 86.6706 12.098 86.1832 12.4772 85.6536C12.9177 85.9292 13.3137 86.2566 13.7542 86.5984C13.8902 86.7031 14.1093 86.6129 14.0539 86.4395C13.9083 85.9918 13.4413 85.4947 12.8515 85.0891C12.9803 84.8893 13.1103 84.6967 13.2306 84.4777C13.2776 84.3934 13.168 84.2369 13.0489 84.2682Z" fill="#0D4680"/>
<path d="M16.4979 85.7628C17.1934 86.7715 17.8842 87.7825 18.4341 88.8826C18.4378 88.8886 18.445 88.891 18.451 88.8886C18.457 88.885 18.4594 88.8766 18.457 88.8705C17.9588 87.7476 17.309 86.692 16.6194 85.6786C15.9274 84.6627 15.197 83.6746 14.4532 82.696C12.9755 80.733 11.3292 78.9023 9.81649 76.9765C9.79844 76.95 9.75993 76.9428 9.73225 76.9621L9.72142 76.9705C9.33271 77.3917 8.9753 77.8371 8.66121 78.3149C8.34952 78.7903 8.05709 79.279 7.7791 79.7737C7.22433 80.7691 6.73574 81.7957 6.23633 82.814C5.7345 83.8322 5.22907 84.8493 4.64902 85.8182C4.35418 86.3008 4.04972 86.7751 3.71998 87.2312C3.38543 87.6838 3.01839 88.1087 2.62367 88.5071C2.57674 88.5516 2.57433 88.6274 2.61886 88.6744L2.62488 88.6804C3.4793 89.4784 4.42278 90.1536 5.36746 90.8204C6.31455 91.4836 7.27728 92.1227 8.24964 92.745C9.21959 93.3696 10.1883 93.9967 11.1402 94.6479C11.6156 94.974 12.0825 95.3111 12.5422 95.6565C13.0055 96.0007 13.446 96.3702 13.8479 96.7843C13.8527 96.7891 13.8612 96.7903 13.866 96.7867C13.8708 96.7807 13.872 96.7722 13.8672 96.7674C13.4833 96.3353 13.0537 95.9417 12.6048 95.577C12.1607 95.2087 11.6914 94.8669 11.2245 94.5275C10.2858 93.8511 9.33031 93.2047 8.3748 92.556L5.51187 90.6134C4.59968 89.9743 3.69351 89.3231 2.8788 88.5793C3.24704 88.1953 3.59724 87.7969 3.91133 87.3709C4.24467 86.9051 4.55395 86.4248 4.83675 85.9289C5.40236 84.9372 5.88734 83.9057 6.36629 82.8778C6.84886 81.8487 7.32181 80.8172 7.85853 79.8182C8.376 78.8397 9.00057 77.9117 9.76474 77.1161C10.4856 78.0802 11.251 79.007 11.9983 79.9446L14.2872 82.826C15.0453 83.7877 15.7914 84.7614 16.4979 85.7628Z" fill="#0D4680"/>
<path d="M33.0211 90.2477C32.8646 90.8988 32.7069 91.5512 32.5745 92.2072C32.3097 93.5227 32.1196 94.8539 32.0209 96.1923C31.9727 96.8639 31.9655 97.5355 31.9631 98.2047L31.9896 99.2122L32.0835 100.215C32.0835 100.222 32.0907 100.227 32.0967 100.226C32.1039 100.226 32.1087 100.22 32.1087 100.212C32.1039 99.5431 32.1099 98.8763 32.1316 98.2095C32.1641 97.5439 32.2171 96.8784 32.2809 96.214C32.4012 94.8864 32.5745 93.5648 32.784 92.2457C32.9958 90.9277 33.2437 89.6122 33.6217 88.3291C33.8142 87.69 34.0405 87.0605 34.2849 86.4407C34.5208 85.8172 34.7844 85.2082 35.0708 84.6124L35.0756 84.604C35.0997 84.5534 35.078 84.4944 35.0287 84.4692L35.0167 84.4643C34.0056 84.1334 32.9898 83.8337 31.9655 83.5773C31.9583 83.5749 31.9499 83.5797 31.9475 83.5869C31.9462 83.5929 31.9511 83.6002 31.9559 83.6026C32.9176 83.948 33.8732 84.2958 34.8313 84.6232C34.2199 85.7859 33.866 87.0509 33.5326 88.3051L33.0211 90.2477Z" fill="#0D4680"/>
<path d="M15.3129 86.7826C15.112 85.5248 14.5933 84.574 14.1468 83.9974C13.6871 83.4197 13.3321 83.1886 13.3321 83.1886C13.3261 83.185 13.3177 83.185 13.3129 83.191C13.308 83.1946 13.3104 83.203 13.3141 83.2091C13.3141 83.2091 13.651 83.4654 14.059 84.0612C14.4657 84.6474 14.9567 85.5874 15.1108 86.8091C15.1769 87.4169 15.1745 88.0861 15.0145 88.7661C14.8592 89.4462 14.5078 90.1214 13.9795 90.6774C13.45 91.2275 12.7653 91.6885 11.9927 91.94C11.2285 92.2 10.3717 92.2193 9.5931 91.9797C8.80847 91.7438 8.12613 91.2492 7.59422 90.657C7.05148 90.0684 6.66158 89.3631 6.43413 88.6373C6.20067 87.9116 6.15494 87.1605 6.27167 86.4805C6.39562 85.8052 6.69768 85.2022 7.03704 84.6919C7.71817 83.6652 8.58584 83.0466 9.2429 82.7673C9.57023 82.6181 9.84942 82.5615 10.0384 82.5206C10.2309 82.4965 10.3332 82.4845 10.3332 82.4845C10.3404 82.4845 10.3464 82.4785 10.3464 82.4712C10.3452 82.464 10.3392 82.4592 10.332 82.458C10.332 82.458 10.2273 82.4652 10.0323 82.4773C9.8398 82.5062 9.54977 82.5447 9.2056 82.6771C8.51484 82.925 7.60626 83.5401 6.86495 84.5727C6.50633 85.0867 6.1429 85.6945 6.01895 86.4347C5.89981 87.1605 5.95276 87.9549 6.20067 88.712C6.66398 90.2189 7.88906 91.6752 9.54977 92.1254C10.3669 92.3493 11.2478 92.3107 12.024 92.0231C12.793 91.7426 13.5186 91.3358 14.0782 90.7737C14.6426 90.2189 15.0289 89.522 15.213 88.8167C15.414 88.1114 15.4104 87.406 15.3129 86.7826Z" fill="#0D4680"/>
<path fill-rule="evenodd" clip-rule="evenodd" d="M102.895 176.737C100.897 178.187 98.6701 179.89 96 182L93.5 170C87.7594 172.382 84.0926 172.208 77 171.5L78 182C71.0105 181.926 67.0881 181.779 59.5 180H58.9205C58.8602 181.569 58.7877 183.138 58.7151 184.706C58.5955 187.292 58.4758 189.879 58.4113 192.468C58.351 194.909 58.2665 197.334 58.1822 199.749C57.9376 206.763 57.6956 213.702 58.0574 220.771C57.4143 225.596 56.9935 231.165 56.6094 236.248C56.527 237.338 56.4463 238.406 56.3655 239.439C56.1519 242.174 55.957 244.705 55.762 247.237L55.7619 247.238C55.5203 250.374 55.2785 253.513 55.0007 257.049C55.0002 257.056 55.0031 257.06 55.0059 257.064C55.0082 257.068 55.0105 257.071 55.0109 257.076C55.0127 257.131 55.0285 257.176 55.0581 257.22L55.064 257.227C55.0666 257.23 55.0691 257.233 55.0718 257.236C55.0741 257.238 55.0766 257.241 55.0795 257.243C55.0866 257.251 55.0925 257.26 55.0984 257.269C55.1102 257.287 55.1221 257.305 55.1443 257.315C55.7344 257.603 56.3743 257.824 57.0416 258H56.3826C56.6906 258.047 57.0071 258.093 57.33 258.137C56.1422 261.319 55.3324 264.198 54.8098 267.608C53.4023 267.943 52.1376 268.418 50.8405 269.411C50.837 269.414 50.8359 269.417 50.8348 269.421L50.8344 269.422L50.8336 269.425C50.8328 269.426 50.8318 269.428 50.8303 269.43C50.5523 269.614 50.2771 269.806 49.9964 270.015C48.538 271.105 47.5688 272.7 48.1924 274.442C48.1931 274.446 48.1929 274.45 48.1928 274.454C48.1926 274.46 48.1924 274.466 48.1951 274.472C48.1985 274.482 48.2031 274.49 48.2077 274.499C48.2119 274.507 48.2161 274.515 48.2192 274.523C48.2269 274.543 48.2334 274.562 48.2395 274.581L48.2513 274.62L48.2517 274.621C48.2644 274.663 48.2772 274.705 48.2971 274.748C48.3047 274.765 48.3168 274.78 48.3313 274.795C48.3431 274.807 48.3565 274.819 48.3703 274.83C49.5513 277.025 53.0655 277.005 55.7596 276.99L55.7754 276.989C56.0187 276.988 56.2558 276.987 56.4832 276.987C56.644 276.987 56.8002 276.988 56.951 276.991C60.584 277.052 65.7523 276.817 68.5014 275.751C68.5375 275.737 68.557 275.706 68.5691 275.666C68.6172 275.651 68.6599 275.631 68.6951 275.596C69.3121 274.975 69.0648 270.461 68.8609 268.556C68.4449 264.67 67.7853 261.61 67.0369 258.138L67.0115 258.021L67.035 258.015C67.0537 258.01 67.0723 258.005 67.091 258H67.7496C68.153 257.938 68.5417 257.875 68.911 257.812C69.1028 257.781 69.1908 257.631 69.1825 257.491C69.6068 252.616 69.907 248.866 69.92 243.741C69.9244 241.889 70.1589 239.653 70.3985 237.368C70.6699 234.781 70.9478 232.132 70.9049 229.908C74.3282 219.987 76.6867 209.852 79.052 199.688C79.9848 195.679 80.919 191.665 81.9198 187.658C82.1303 189.576 82.262 190.544 82.4332 191.802L82.4859 192.19C82.5892 192.951 82.6996 193.711 82.8099 194.47C83.0022 195.795 83.1946 197.119 83.3494 198.448C83.8192 202.475 84.4631 206.495 85.1877 210.484C85.5012 212.209 85.7917 213.965 86.0845 215.734C86.9865 221.186 87.9095 226.764 89.5897 231.945C88.3713 237.004 86.3227 253.771 86.5442 255.985C86.5646 256.188 86.7249 256.319 86.8935 256.344C88.1999 257.34 90.1577 257.569 91.8209 257.594L91.8053 257.725C91.5541 259.834 90.1472 271.649 92.3972 272.616L92.3981 272.617C92.4704 272.648 92.5464 272.666 92.6261 272.675C95.9477 273.47 118.499 276.852 119.931 272.837C119.931 272.836 119.931 272.835 119.931 272.834C119.932 272.833 119.933 272.833 119.934 272.832C119.935 272.83 119.936 272.829 119.937 272.826C119.937 272.825 119.938 272.823 119.938 272.821C119.938 272.819 119.939 272.816 119.939 272.813C119.939 272.809 119.94 272.805 119.941 272.8C119.998 272.62 120.016 272.427 119.987 272.219C119.869 270.439 117.309 268.914 115.949 268.169C113.937 267.069 111.734 265.878 109.466 265.52C109.445 265.517 109.426 265.519 109.408 265.521L109.396 265.522C109.391 265.522 109.386 265.522 109.381 265.522C108.308 263.946 106.888 262.577 105.508 261.246C105.278 261.024 105.049 260.804 104.823 260.583C104.053 259.832 103.321 259.047 102.588 258.261L102.459 258.122C102.289 257.94 102.082 257.758 101.872 257.574C101.682 257.407 101.488 257.238 101.316 257.062C101.34 257.02 101.357 256.973 101.357 256.917C101.362 250.883 101.573 244.804 101.91 238.782C102.101 235.385 102.214 231.963 102.218 228.56C102.218 228.108 102.236 227.639 102.255 227.161C102.27 226.756 102.286 226.345 102.292 225.934C102.292 225.932 102.293 225.93 102.293 225.929L102.294 225.926C102.294 225.926 102.294 225.925 102.294 225.924C102.295 225.924 102.295 225.923 102.295 225.923C103.044 209.558 103.211 193.133 102.895 176.737ZM92.9062 270.6C93.0568 271.074 93.2067 271.547 93.2895 272.029C96.8974 272.132 101.744 272.675 105.112 273.14C106.138 273.282 117.138 274.719 119.098 272.753C116.871 269.571 112.962 267.304 109.255 266.336C109.182 266.318 109.125 266.285 109.079 266.246L109.073 266.243C109.07 266.242 109.066 266.241 109.063 266.24C109.054 266.237 109.046 266.234 109.037 266.228C107.601 265.28 106.402 263.932 105.222 262.607C104.711 262.033 104.204 261.463 103.683 260.932C103.122 260.361 102.61 259.734 102.1 259.111C101.89 258.854 101.68 258.598 101.468 258.346C101.365 258.224 101.258 258.11 101.152 257.999C100.807 257.636 100.488 257.3 100.454 256.771C100.454 256.769 100.454 256.768 100.455 256.767C100.455 256.766 100.455 256.765 100.455 256.765C100.455 256.764 100.455 256.764 100.455 256.764C97.8231 257.458 95.3798 257.572 92.6298 257.596C92.5137 259.438 92.4644 261.276 92.415 263.118C92.4001 263.673 92.3852 264.229 92.3685 264.785C92.3633 264.958 92.3579 265.122 92.3527 265.281C92.3081 266.647 92.2783 267.561 92.4991 269.035C92.5795 269.569 92.7433 270.086 92.9062 270.6ZM66.3398 258.177C66.3649 258.613 66.5017 259.051 66.6369 259.484C66.7207 259.753 66.8039 260.019 66.8596 260.282C67.1951 261.859 67.4234 263.848 67.6279 265.629L67.628 265.631C67.6889 266.161 67.7477 266.673 67.8065 267.15C68.2091 270.415 68.0924 271.923 67.9494 273.772C67.9252 274.084 67.9002 274.407 67.8769 274.749C67.0579 275.531 62.6725 275.74 59.8623 275.857C59.3264 275.879 58.7186 275.928 58.0688 275.981L58.0678 275.981C55.0089 276.228 51.0217 276.549 49.2458 274.524C49.0605 273.976 48.9503 273.5 49.0439 272.999C49.2378 271.96 50.3932 271.129 51.184 270.561L51.2259 270.531C52.1886 269.838 53.2754 269.258 54.3697 268.767C54.9024 268.596 55.4333 268.443 55.9541 268.35C57.6293 268.053 59.4676 267.797 61.1724 268.169C61.4948 268.24 61.6144 267.803 61.3142 267.683C59.9911 267.146 58.0629 266.981 56.6879 267.228C56.3441 267.289 56.0143 267.352 55.69 267.416C56.1532 266.189 56.4517 265.036 56.7824 263.759L56.926 263.205C57.1746 262.257 57.3328 261.364 57.4903 260.475C57.6222 259.731 57.7537 258.989 57.9378 258.217C60.6063 258.552 63.6704 258.72 66.3398 258.177Z" fill="#0D4680"/>
</svg>
