<svg width="154" height="8" viewBox="0 0 154 8" fill="none" xmlns="http://www.w3.org/2000/svg">
<path d="M129.304 5.6956L129.445 5.82196C129.358 5.86644 129.273 5.92381 129.181 5.94642C129.148 5.95466 129.095 5.87467 129.05 5.83529C129.136 5.78825 129.221 5.74122 129.304 5.6956ZM130.684 5.72752C130.737 5.67642 130.78 5.63342 130.824 5.59103C130.868 5.67197 130.928 5.74916 130.95 5.83476C130.957 5.86503 130.87 5.91793 130.826 5.96031C130.779 5.88206 130.731 5.8032 130.684 5.72752ZM100.308 6.00804C100.36 5.95694 100.403 5.91458 100.447 5.87222C100.491 5.95251 100.551 6.02969 100.572 6.1153C100.579 6.14557 100.493 6.19846 100.45 6.24082C100.402 6.16259 100.354 6.08372 100.308 6.00804ZM101.488 5.59948C101.54 5.54838 101.584 5.50602 101.627 5.46301C101.672 5.54393 101.731 5.62049 101.752 5.70674C101.76 5.73701 101.673 5.78991 101.63 5.83227C101.582 5.75339 101.534 5.67516 101.488 5.59948ZM145.462 3.57001C145.379 3.52996 145.294 3.48936 145.207 3.44749C145.251 3.40511 145.304 3.32221 145.336 3.32825C145.429 3.34393 145.514 3.39623 145.602 3.43416C145.559 3.47652 145.515 3.51953 145.462 3.57001ZM101.465 2.64674C101.517 2.59564 101.56 2.55328 101.604 2.51092C101.649 2.59119 101.708 2.66775 101.729 2.754C101.737 2.78425 101.651 2.83714 101.607 2.87952C101.559 2.8013 101.511 2.72242 101.465 2.64674ZM11.8013 3.91522C11.7489 3.96632 11.7056 4.00868 11.6622 4.05104C11.6179 3.97075 11.5583 3.89356 11.5368 3.80731C11.5296 3.77704 11.6159 3.72415 11.6592 3.68179C11.7071 3.76066 11.7556 3.83887 11.8013 3.91522ZM15.8599 3.77882C15.9044 3.70008 15.9516 3.61799 15.9981 3.53658C16.0421 3.57598 16.1292 3.62303 16.1225 3.65376C16.1024 3.74142 16.0441 3.82194 16.0011 3.90518C15.9571 3.86577 15.913 3.82636 15.8599 3.77882ZM17.0431 3.73887C17.0883 3.6601 17.1348 3.57869 17.1813 3.49662C17.2253 3.53603 17.3124 3.58307 17.3057 3.61381C17.2856 3.70147 17.2273 3.78198 17.1843 3.86588C17.1403 3.82647 17.0962 3.78641 17.0431 3.73887ZM18.621 3.68624C18.6654 3.60749 18.7126 3.52541 18.7591 3.44399C18.8032 3.4834 18.8903 3.53044 18.8836 3.56118C18.8635 3.64884 18.8052 3.72936 18.7621 3.8126L18.621 3.68624ZM13.1798 3.57786L13.0386 3.45086C13.1257 3.40702 13.2098 3.34901 13.3019 3.32642C13.3345 3.31883 13.3885 3.39815 13.4326 3.4382C13.3476 3.48456 13.2619 3.53225 13.1798 3.57786ZM46.562 1.95733C46.6053 1.91497 46.6588 1.83203 46.6907 1.83744C46.7838 1.85377 46.8689 1.90607 46.9566 1.94401C46.9133 1.98636 46.8605 2.06929 46.8279 2.0639C46.7348 2.04757 46.6504 1.99524 46.562 1.95733ZM18.6915 2.02275C18.7743 2.06279 18.86 2.10404 18.9464 2.14526C18.903 2.18827 18.8503 2.27119 18.8176 2.26516C18.7245 2.24882 18.6394 2.19717 18.5517 2.15859C18.5951 2.11623 18.6385 2.07387 18.6915 2.02275ZM109.387 6.9783C109.39 6.9003 109.393 6.82296 109.396 6.74495C109.571 6.71698 109.746 6.68056 109.922 6.66812C109.965 6.66537 110.057 6.75313 110.049 6.78132C110.023 6.86919 109.964 7.01397 109.91 7.01904C109.738 7.03396 109.562 6.99641 109.387 6.9783ZM118.313 5.78628C119.879 5.55554 119.879 5.55554 119.923 5.88577C119.747 5.91508 119.567 5.97633 119.394 5.96791C119.087 5.9536 118.756 6.10562 118.313 5.78628ZM17.5668 2.0049C17.8977 2.35464 17.8882 2.71912 17.6328 3.05101C17.4 2.91152 17.1636 2.7702 16.928 2.62886C17.2109 2.35251 17.3878 2.17971 17.5668 2.0049ZM14.2321 4.68544C14.2286 4.24351 14.2149 3.84021 14.2331 3.43714C14.2354 3.37734 14.3841 3.31974 14.4662 3.25985C14.6326 3.50349 15.0147 3.57887 15.0168 3.92608C14.9469 4.28935 14.7066 4.50519 14.2321 4.68544ZM12.2518 1.63585C12.5395 1.26523 12.9525 1.38565 13.2725 1.48649C13.6647 1.61021 13.9978 1.88134 14.3691 2.06808C14.4694 2.11857 14.6142 2.09291 14.7662 2.10401C14.9995 1.95462 15.1591 1.61623 15.6117 1.73012C15.6666 1.82694 15.7468 1.96833 15.9072 2.25048C15.6421 2.40419 15.3659 2.56346 15.089 2.72276C15.0596 2.69779 14.9179 2.58054 14.7761 2.46264C13.991 2.48915 13.2114 2.51742 12.4325 2.53593C12.386 2.5375 12.3396 2.45858 12.267 2.39352C12.3735 2.26854 12.4827 2.14087 12.6058 1.9965C12.4952 1.88404 12.3749 1.76152 12.2518 1.63585ZM112.088 6.22109C112.091 6.52738 112.093 6.83498 112.096 7.14258C112.5 7.53723 112.772 7.24177 113.062 6.94118C113.699 6.92033 114.351 6.8983 115.028 6.87546C115.201 6.99228 115.398 7.12391 115.662 7.30065C115.878 7.12717 116.063 6.97942 116.248 6.831C116.343 6.9148 116.436 6.99862 116.53 7.08309C116.647 7.11093 116.765 7.16343 116.883 7.16205C117.337 7.15774 117.793 7.13586 118.185 7.12263C118.384 6.95817 118.529 6.83969 118.734 6.66982C118.941 6.77643 119.152 6.88485 119.48 7.05358C119.725 7.04531 120.111 7.03291 120.564 7.01762C120.657 6.93918 120.801 6.81877 120.958 6.68821C121.216 6.59055 121.411 6.68847 121.623 6.85984C121.745 6.95892 121.98 6.92567 122.141 6.99617C122.361 7.09197 122.451 7.394 122.881 7.32432C123.002 7.23521 123.197 7.09228 123.466 6.89495C123.648 6.97905 123.865 7.07819 124.245 7.2536L126.14 7.18962C126.258 7.07462 126.35 6.98452 126.511 6.82719L128.878 6.74726L129.238 6.39628L130.441 6.35565C130.557 6.57568 130.687 6.82251 130.826 7.08526C131.063 6.84227 131.287 6.61336 131.543 6.35024C132.225 6.32787 132.928 6.30412 133.619 6.2808C133.772 6.39313 133.919 6.5011 134.062 6.606C134.423 6.45942 134.752 6.25813 135.102 6.20477C135.443 6.15234 135.743 6.1221 135.909 5.77829C136.078 5.91412 136.216 6.02629 136.36 6.14344C140.688 5.99796 145.026 5.8528 149.358 5.70717C149.497 5.58171 149.635 5.45892 149.772 5.3368C149.874 5.42813 149.968 5.51195 150.121 5.64894C150.236 5.56326 150.36 5.47079 150.591 5.29876L152.136 5.24661C152.233 5.13491 152.31 5.05506 152.306 5.05003C152.125 4.87632 151.937 4.71002 151.749 4.54237C151.438 4.53472 151.127 4.52769 150.616 4.51637C151.047 4.12532 151.516 4.12052 151.745 3.80447C151.838 3.88897 151.932 3.97212 152.071 4.09789L153.01 4.06618C153.156 3.60559 153.137 3.14989 153.013 2.67113C152.539 2.90978 152.129 3.19625 151.548 2.92635C151.544 2.42731 151.54 1.88995 151.536 1.32277C151.302 1.27291 151.124 1.23475 150.958 1.19946C150.794 1.34911 150.653 1.47786 150.512 1.60661L149.74 1.63269C149.594 1.51559 149.455 1.40471 149.318 1.29381C149.214 1.39534 149.122 1.48544 148.989 1.61453C148.815 1.5172 148.629 1.41443 148.359 1.26388C148.187 1.37159 147.981 1.49992 147.741 1.65019C147.645 1.5762 147.509 1.47174 147.354 1.35299L146.586 1.37892C146.455 1.49564 146.314 1.62177 146.179 1.74319C146.035 1.62601 145.891 1.50884 145.688 1.34238C145.487 1.44394 145.27 1.55318 144.865 1.75834C144.568 1.76837 144.055 1.78505 143.43 1.80615C143.371 1.76531 143.222 1.66192 142.967 1.48487C142.379 1.50408 141.675 1.52785 141.041 1.54926C140.878 1.40223 140.784 1.31841 140.673 1.21895C140.539 1.33317 140.404 1.44873 140.268 1.56498C140.135 1.45914 139.994 1.34768 139.9 1.27362C139.503 1.48566 139.125 1.68796 138.664 1.93396C138.598 1.88881 138.469 1.80035 138.289 1.67595L137.308 1.70906C136.887 1.62529 136.783 1.16466 136.143 1.49525C135.795 1.73418 136.254 2.01924 136.541 2.27957C136.027 2.58126 135.568 2.44616 135.047 2.48776C134.984 2.1595 134.919 1.82284 134.856 1.49458C134.722 1.46339 134.605 1.4349 134.485 1.40713C134.061 1.5013 133.964 1.94858 133.516 2.10066C133.454 2.05472 133.32 1.95604 133.169 1.84558C133.044 1.95432 132.908 2.07315 132.804 2.163C132.314 1.93156 131.831 1.70381 131.327 1.46573C131.154 1.59426 131.006 1.70378 130.788 1.86563C129.246 1.91769 127.622 1.97188 126.024 2.02584C125.904 1.91758 125.811 1.83441 125.646 1.68741C124.75 1.71769 123.781 1.7504 122.885 1.77999C122.722 1.63361 122.628 1.54979 122.521 1.45281C119.646 1.54921 116.758 1.64608 113.87 1.74297C113.72 1.62016 113.576 1.50233 113.44 1.39071C113.055 1.28298 112.856 1.54806 112.646 1.77132C112.533 1.67061 112.439 1.58679 112.297 1.45918C111.381 1.49012 110.413 1.52214 109.457 1.55441C109.309 1.67561 109.165 1.79344 108.958 1.96141C108.75 1.8516 108.54 1.74116 108.256 1.5911C106.335 1.6553 104.317 1.7228 102.343 1.7888C102.207 1.92193 102.114 2.01202 102.011 2.11353C101.873 2.00265 101.735 1.89175 101.589 1.77465C99.6302 1.84015 97.6584 1.90609 95.6929 1.9718C95.5462 1.84953 95.4037 1.73036 95.2738 1.62244C94.8468 1.49146 94.7168 1.89441 94.4901 1.99035L93.6876 2.01744C93.5723 1.91358 93.4787 1.82976 93.3487 1.71406C92.0809 1.75622 90.7756 1.8003 89.3809 1.84674C89.3065 1.90638 89.161 2.02229 88.9866 2.16125C88.868 2.07243 88.7326 1.9712 88.5727 1.85196C85.4524 1.95602 82.3009 2.06244 79.1487 2.16823C79 2.04472 78.8568 1.92623 78.7094 1.80397C78.6241 1.89124 78.5346 1.98254 78.4514 2.06714C78.3262 2.11097 78.2123 2.18102 78.0958 2.18691C77.507 2.21717 76.9189 2.23119 76.3716 2.24967C76.2006 2.12042 76.0652 2.01789 75.9312 1.91726C75.8169 2.02822 75.7247 2.11897 75.6738 2.16872C75.2526 2.06675 74.8577 1.97103 74.49 1.88153C74.2875 2.05585 74.1442 2.17818 73.9802 2.31938C73.7478 2.32658 73.4878 2.33536 73.2041 2.34494C73.0805 2.24136 72.9373 2.12221 72.7906 1.99993C71.2197 2.05298 69.6426 2.10558 68.0654 2.15884C67.9718 2.07437 67.8782 1.99055 67.6993 1.83041C66.9551 1.76726 66.1119 1.90608 65.2964 1.86221C65.1491 1.75164 65.0137 1.64976 64.8804 1.5504C64.7648 1.66336 64.6725 1.75345 64.5431 1.87921C64.4161 1.78937 64.2843 1.69581 64.1266 1.58364C64.006 1.68443 63.8723 1.7967 63.7173 1.92657C62.4321 1.96932 61.1206 2.0136 59.789 2.05792C59.6626 1.95313 59.5201 1.83461 59.3825 1.72111C59.2475 1.84057 59.1111 1.96072 58.9754 2.08019C58.8699 1.98574 58.7762 1.90192 58.6756 1.81184C58.3143 1.7455 57.9429 1.62562 57.6153 1.94891C57.298 2.26211 56.9051 2.2267 56.5537 2.09511C56.1605 1.94805 55.8035 1.71928 55.3527 1.48588C55.1918 1.49132 54.9311 1.50012 54.6349 1.50947C54.5189 1.74708 54.3933 2.00448 54.2739 2.24933L53.8605 2.26329C53.6229 2.05061 53.3889 1.84106 53.1547 1.63086C52.6429 1.38849 52.2426 1.72722 51.8096 1.89308C51.716 1.80926 51.6223 1.72479 51.5112 1.62598C51.3776 1.7402 51.2425 1.85511 51.0916 1.98354C50.0631 2.01827 49.0137 2.05305 47.9068 2.09043C47.8353 1.90395 47.7552 1.69569 47.6709 1.47913C47.2534 1.24201 46.7872 1.49858 46.3275 1.36156C46.2332 1.62504 46.1552 1.84189 46.0752 2.0653C45.6473 2.26085 45.1992 2.18121 44.7191 2.17146C44.6391 1.97228 44.5548 1.76156 44.445 1.48679C43.8985 1.50525 43.3256 1.52394 42.8235 1.5409C42.66 1.39452 42.5664 1.31005 42.4028 1.16433C40.8486 1.21616 39.2229 1.2704 37.6693 1.32286C37.5058 1.17649 37.4122 1.09202 37.3025 0.993809C37.1681 1.10935 37.0324 1.22558 36.8836 1.35329L35.7184 1.39263C35.5808 1.27979 35.4377 1.16129 35.2875 1.03783L33.727 1.09052L33.3727 0.773378C33.2617 0.854373 33.1389 0.944852 32.9486 1.08435C31.9263 1.11887 30.8277 1.15596 29.7485 1.19176C29.6353 1.09042 29.5417 1.0066 29.4187 0.896505C29.2898 1.00082 29.1575 1.10785 28.9941 1.2393L27.4322 1.29204C27.3163 1.19793 27.1725 1.08141 27.0188 0.95547L25.4556 1.00826C25.3213 1.12769 25.1814 1.25185 25.043 1.37531C24.9466 1.28964 24.8536 1.20579 24.76 1.12197C24.7077 1.09193 24.6552 1.03463 24.6039 1.03636C22.9608 1.0873 21.3171 1.14345 19.6741 1.19634C19.6137 1.19837 19.5532 1.17835 19.4928 1.1687C19.3984 1.08491 19.3055 1.00041 19.1727 0.881561L18.3058 0.910834L17.9795 1.23019C17.8476 1.13338 17.7129 1.03471 17.5503 0.914273C17.1959 0.92624 16.8054 0.939425 16.3824 0.953061C16.266 1.05761 16.1241 1.18508 15.9739 1.31933C15.4621 1.33661 14.9371 1.35369 14.41 1.37149C14.2696 1.25549 14.1264 1.13634 13.9763 1.01224C13.3257 1.0342 12.6717 1.05564 12.0246 1.07749C11.9226 0.986161 11.8289 0.901691 11.6857 0.773457L10.3568 0.818327C10.3178 0.965699 10.2747 1.13333 10.2182 1.3475C10.4678 1.42086 10.6931 1.48661 10.9782 1.5698C11.0092 1.70767 11.0473 1.87451 11.0991 2.1006C11.2778 2.15234 11.5073 2.21924 11.7555 2.2907C11.7637 2.62018 11.415 2.72738 11.2621 2.95519L10.846 2.96924C10.7254 2.73573 10.6007 2.49393 10.4492 2.20174C10.2016 2.7307 9.9793 3.20493 9.75698 3.67916C9.40376 3.75275 9.04987 3.82702 8.66964 3.90607C8.98088 4.39019 9.61262 3.84502 9.85931 4.32353C9.80907 4.37326 9.76394 4.45528 9.71679 4.45752C9.06282 4.48739 8.40879 4.50688 7.70621 4.5306C7.59489 4.31755 7.46523 4.06942 7.3384 3.82704C7.1234 3.83365 6.92643 3.8403 6.72878 3.84697L6.73328 4.40442C6.55223 4.57801 6.36704 4.75433 6.16256 4.95013C6.03343 4.85063 5.89731 4.74682 5.74234 4.62742L4.57716 4.66677C4.45389 4.77869 4.31409 4.90609 4.16809 5.0389C3.00223 5.07827 1.82735 5.11794 0.671889 5.1563C0.425039 5.25746 0.363232 5.5919 0.035433 5.54845C0.0820638 5.65203 0.129366 5.75559 0.183763 5.87644C1.80045 5.8225 3.42266 5.76772 5.00674 5.71488L5.34057 5.38878C6.10417 5.363 6.88648 5.33658 7.67091 5.31075C7.82177 5.17842 7.96437 5.05482 8.10765 4.92989C8.27831 5.3571 8.52076 5.74228 8.95702 5.9872C9.36595 6.11166 9.48604 5.69151 9.78352 5.58799C10.3625 5.2997 10.688 5.91577 11.2284 5.9131C11.3525 5.81219 11.4972 5.69436 11.6447 5.57318C11.8287 5.68251 12.0232 5.79798 12.2923 5.95767C12.6306 5.67361 12.9545 5.40238 13.3914 5.03645C13.6046 5.32395 13.8248 5.6203 14.0738 5.95658C14.4024 5.7501 14.6067 5.62182 14.8469 5.47155C14.9432 5.54554 15.0793 5.65 15.2336 5.76942C17.308 5.69937 19.4074 5.62913 21.5089 5.55882C21.6542 5.67985 21.7966 5.79837 21.9391 5.91754L22.2262 5.63652C22.6386 5.4298 23.0904 5.53269 23.5329 5.52034L23.8711 5.8231C23.9863 5.73742 24.1097 5.64497 24.2601 5.53279C24.6748 5.43829 25.1248 5.3121 25.4806 5.82133C28.2444 5.72866 31.0498 5.63457 33.788 5.54277C33.9487 5.68599 34.0423 5.76981 34.15 5.86679C36.1009 5.80156 38.0672 5.73582 40.0361 5.66933C40.1856 5.79022 40.3287 5.90677 40.4845 6.03199C41.5172 5.99777 42.5658 5.96236 43.6096 5.92776C43.7591 6.05059 43.9022 6.16909 44.0475 6.28882C46.5401 6.2053 49.0349 6.12171 51.5275 6.03755C51.6232 6.12324 51.7169 6.20706 51.8797 6.35281C52.5108 6.3315 53.2155 6.30836 53.8514 6.28688C54.0143 6.43263 54.1079 6.51645 54.247 6.64093C55.8241 6.58833 57.447 6.53353 59.0699 6.47938C59.1629 6.38926 59.2551 6.29981 59.3866 6.17074C59.5122 6.25932 59.6426 6.35099 59.8729 6.51393C61.1275 6.47157 62.489 6.42624 63.7797 6.38266L64.143 6.70794C65.8325 6.65089 67.5359 6.59402 69.242 6.53641C69.3901 6.65799 69.534 6.77517 69.6876 6.89981C70.3284 6.87817 70.9838 6.85604 71.6441 6.83439C71.7791 6.71429 71.9182 6.5908 72.0574 6.46667C72.1524 6.55174 72.246 6.63491 72.339 6.7194C72.3913 6.74945 72.4431 6.80677 72.4951 6.80566C73.6721 6.77111 74.849 6.73072 76.0052 6.69168C76.3351 7.16868 76.7886 7.05276 77.2346 6.96694C77.3269 6.87619 77.4191 6.78609 77.5423 6.66639C77.6721 6.76067 77.8054 6.85744 77.9715 6.97841C79.3711 6.9318 80.8102 6.8832 82.2528 6.83514C82.4043 6.95531 82.5489 7.07052 82.7081 7.19821L84.6611 7.13226C84.7458 7.05605 84.8409 6.9717 84.9552 6.86917C85.3514 6.62211 85.8147 6.77524 86.2555 6.72206C86.3491 6.80588 86.4427 6.88905 86.6133 7.04233C86.9747 7.047 87.4167 7.05285 87.8413 7.05798C87.997 7.17736 88.1422 7.2893 88.3488 7.4485C88.5525 7.33451 88.7639 7.21638 89.0401 7.06229C89.1127 7.11372 89.2446 7.20858 89.4148 7.33006L91.3706 7.26402C91.4761 7.17348 91.6187 7.04988 91.7702 6.91883C91.9022 7.02602 92.0412 7.14012 92.1844 7.25732C93.0964 7.22652 94.0153 7.19549 94.9343 7.16511C95.0279 7.24894 95.1216 7.33276 95.2292 7.42909C95.6441 7.60852 96.0946 7.47516 96.5219 7.45944C96.6741 7.32837 96.8174 7.20604 96.9249 7.11413C97.3773 6.94761 97.4877 7.39242 97.9058 7.45425C98.0943 7.34403 98.3547 7.19243 98.6978 6.99259C98.8665 7.09465 99.0694 7.21698 99.2904 7.35038C99.3978 7.25392 99.5349 7.1318 99.6761 7.00565L100.259 6.98598C100.224 6.62559 100.494 6.61581 100.903 6.58706C101.075 6.80197 101.304 7.08829 101.477 7.30444L102.79 7.26011C102.936 7.38049 103.077 7.49773 103.227 7.62119C103.867 7.60025 104.519 7.57823 105.182 7.55585C105.313 7.43456 105.453 7.30586 105.594 7.17581L106.368 7.1497C106.511 7.01893 106.651 6.89023 106.783 6.76827C107.355 6.68341 107.528 7.16698 107.93 7.42994C108.706 7.40374 109.537 7.37633 110.335 7.3494C110.544 7.15733 110.733 6.98543 110.906 6.82638L110.903 6.42208C110.646 6.3191 110.385 6.21367 110.114 6.10532C110.391 5.77597 110.745 5.95422 111.085 5.87653C111.211 6.1105 111.341 6.35342 111.464 6.58231C111.677 6.45827 111.883 6.33902 112.088 6.22109C112.13 6.11646 112.172 6.01377 112.22 5.89465C112.693 5.8352 113.174 5.72093 113.785 5.98982C113.161 6.2991 112.606 6.14777 112.088 6.22109Z" fill="#FFC000"/>
</svg>
