<svg width="643" height="17" viewBox="0 0 643 17" fill="none" xmlns="http://www.w3.org/2000/svg">
<path d="M542.2 10.9467L542.792 11.0893C542.427 11.1395 542.074 11.2043 541.685 11.2298C541.549 11.2391 541.325 11.1488 541.137 11.1044C541.496 11.0513 541.856 10.9982 542.2 10.9467ZM547.99 10.9827C548.21 10.925 548.391 10.8764 548.576 10.8286C548.762 10.92 549.012 11.0071 549.102 11.1038C549.132 11.1379 548.77 11.1977 548.586 11.2455C548.388 11.1572 548.185 11.0681 547.99 10.9827ZM420.614 11.2994C420.833 11.2417 421.015 11.1939 421.197 11.1461C421.383 11.2367 421.633 11.3239 421.723 11.4205C421.753 11.4547 421.391 11.5144 421.209 11.5622C421.009 11.4739 420.808 11.3848 420.614 11.2994ZM425.563 10.8381C425.782 10.7804 425.964 10.7326 426.146 10.6841C426.335 10.7754 426.581 10.8618 426.672 10.9592C426.702 10.9934 426.34 11.0531 426.158 11.101C425.958 11.0119 425.757 10.9236 425.563 10.8381ZM609.958 8.54679C609.61 8.50157 609.251 8.45574 608.889 8.40846C609.074 8.36061 609.292 8.26701 609.429 8.27383C609.819 8.29154 610.176 8.35059 610.544 8.39342C610.362 8.44124 610.18 8.4898 609.958 8.54679ZM425.465 7.50439C425.685 7.44669 425.867 7.39887 426.048 7.35104C426.237 7.44167 426.484 7.5281 426.574 7.62549C426.608 7.65964 426.246 7.71936 426.061 7.76721C425.86 7.67889 425.66 7.58983 425.465 7.50439ZM49.4855 8.93654C49.2661 8.99424 49.0844 9.04206 48.9025 9.08989C48.7165 8.99923 48.4667 8.91209 48.3764 8.81471C48.3464 8.78053 48.7082 8.72081 48.89 8.67299C49.0905 8.76204 49.2938 8.85034 49.4855 8.93654ZM66.5045 8.78254C66.6909 8.69364 66.8888 8.60096 67.0839 8.50904C67.2685 8.55353 67.6338 8.60665 67.6057 8.64135C67.5214 8.74032 67.2768 8.83122 67.0964 8.92521C66.9118 8.88071 66.7272 8.83622 66.5045 8.78254ZM71.4659 8.73744C71.6552 8.6485 71.8503 8.55658 72.0453 8.46393C72.23 8.50843 72.5952 8.56154 72.5671 8.59624C72.4828 8.69521 72.2383 8.78611 72.0579 8.88083C71.8733 8.83634 71.6886 8.79111 71.4659 8.73744ZM78.0822 8.67802C78.2686 8.58911 78.4665 8.49643 78.6616 8.40451C78.8462 8.44901 79.2114 8.50212 79.1833 8.53682C79.099 8.63579 78.8545 8.7267 78.674 8.82068L78.0822 8.67802ZM55.2659 8.55566L54.674 8.41226C55.039 8.36277 55.392 8.29727 55.7781 8.27177C55.9146 8.2632 56.1413 8.35275 56.3259 8.39798C55.9697 8.45032 55.6106 8.50415 55.2659 8.55566ZM195.245 6.72602C195.427 6.6782 195.651 6.58455 195.785 6.59066C196.176 6.6091 196.532 6.66815 196.9 6.71098C196.718 6.7588 196.497 6.85242 196.36 6.84634C195.97 6.8279 195.616 6.76882 195.245 6.72602ZM78.3778 6.79988C78.7253 6.84509 79.0845 6.89166 79.4466 6.9382C79.2648 6.98676 79.0436 7.08038 78.9067 7.07357C78.5163 7.05513 78.1597 6.99681 77.7919 6.95325C77.9737 6.90542 78.1555 6.8576 78.3778 6.79988ZM458.685 12.3949C458.697 12.3068 458.709 12.2195 458.724 12.1314C459.456 12.0998 460.19 12.0587 460.929 12.0447C461.109 12.0416 461.496 12.1406 461.462 12.1725C461.352 12.2717 461.106 12.4351 460.88 12.4409C460.156 12.4577 459.419 12.4153 458.685 12.3949ZM496.116 11.049C502.682 10.7885 502.682 10.7885 502.865 11.1614C502.127 11.1945 501.373 11.2636 500.645 11.2541C499.359 11.2379 497.974 11.4096 496.116 11.049ZM73.6617 6.77973C75.0494 7.17459 75.0094 7.58611 73.9385 7.96082C72.9622 7.80333 71.9712 7.64378 70.9832 7.4842C72.1694 7.1722 72.9112 6.9771 73.6617 6.77973ZM59.6787 9.80615C59.6637 9.30719 59.6064 8.85186 59.6829 8.39677C59.6925 8.32926 60.316 8.26423 60.6601 8.1966C61.3578 8.47169 62.9603 8.55679 62.9692 8.9488C62.6761 9.35895 61.6681 9.60264 59.6787 9.80615ZM51.3748 6.36306C52.581 5.94461 54.3131 6.08057 55.6546 6.19443C57.2995 6.33412 58.6964 6.64022 60.2532 6.85106C60.6738 6.90807 61.2809 6.8791 61.9183 6.89162C62.8965 6.72296 63.5658 6.34091 65.4634 6.4695C65.6936 6.5788 66.03 6.73845 66.7029 7.057C65.591 7.23054 64.4328 7.41036 63.2717 7.59022C63.1487 7.56202 62.5542 7.42964 61.9596 7.29653C58.6675 7.32646 55.3987 7.35838 52.1325 7.37928C51.9377 7.38105 51.743 7.29195 51.4382 7.2185C51.8849 7.07739 52.3431 6.93324 52.859 6.77025C52.3955 6.64327 51.891 6.50495 51.3748 6.36306ZM470.01 11.54C470.024 11.8858 470.034 12.233 470.044 12.5803C471.739 13.0259 472.881 12.6923 474.096 12.353C476.765 12.3294 479.502 12.3045 482.338 12.2788C483.066 12.4106 483.891 12.5593 484.996 12.7588C485.904 12.5629 486.678 12.3961 487.456 12.2286C487.852 12.3232 488.244 12.4178 488.637 12.5132C489.129 12.5446 489.623 12.6039 490.117 12.6023C492.023 12.5975 493.933 12.5728 495.576 12.5578C496.411 12.3721 497.018 12.2384 497.879 12.0466C498.747 12.1669 499.632 12.2894 501.008 12.4799C502.035 12.4705 503.654 12.4565 505.554 12.4393C505.944 12.3507 506.547 12.2148 507.203 12.0673C508.288 11.9571 509.106 12.0676 509.993 12.2611C510.506 12.373 511.491 12.3354 512.168 12.415C513.087 12.5232 513.467 12.8642 515.268 12.7855C515.774 12.6849 516.596 12.5236 517.724 12.3008C518.486 12.3957 519.394 12.5076 520.988 12.7057L528.933 12.6334C529.43 12.5036 529.817 12.4019 530.492 12.2243L540.418 12.134L541.924 11.7377L546.97 11.6919C547.458 11.9403 548.001 12.219 548.583 12.5156C549.578 12.2413 550.516 11.9828 551.592 11.6858C554.451 11.6605 557.4 11.6337 560.297 11.6074C560.938 11.7342 561.555 11.8561 562.152 11.9745C563.668 11.809 565.046 11.5818 566.514 11.5215C567.946 11.4623 569.202 11.4282 569.9 11.04C570.605 11.1934 571.185 11.32 571.791 11.4523C589.939 11.288 608.127 11.1241 626.292 10.9597C626.878 10.8181 627.456 10.6794 628.03 10.5416C628.458 10.6447 628.851 10.7393 629.492 10.894C629.975 10.7972 630.496 10.6928 631.465 10.4986L637.941 10.4397C638.35 10.3136 638.674 10.2235 638.653 10.2178C637.897 10.0217 637.106 9.8339 636.32 9.64462C635.014 9.63598 633.71 9.62804 631.569 9.61526C633.377 9.17375 635.343 9.16834 636.301 8.81151C636.691 8.9069 637.086 9.00078 637.67 9.14279L641.607 9.10699C642.217 8.58696 642.138 8.07246 641.618 7.53192C639.631 7.80137 637.912 8.1248 635.477 7.82008C635.46 7.25664 635.445 6.64995 635.426 6.00959C634.444 5.95329 633.701 5.91021 633.004 5.87037C632.317 6.03932 631.725 6.18468 631.133 6.33004L627.893 6.3595C627.281 6.22728 626.701 6.1021 626.125 5.97689C625.689 6.09151 625.302 6.19324 624.748 6.33899C624.017 6.2291 623.237 6.11307 622.103 5.94309C621.383 6.0647 620.52 6.2096 619.513 6.37925C619.109 6.29571 618.538 6.17778 617.888 6.04371L614.669 6.07298C614.12 6.20475 613.531 6.34716 612.962 6.48425C612.359 6.35195 611.755 6.21966 610.903 6.03172C610.06 6.14639 609.15 6.26972 607.453 6.50136C606.208 6.51268 604.056 6.53151 601.436 6.55533C601.187 6.50922 600.564 6.3925 599.496 6.1926C597.03 6.21429 594.078 6.24112 591.42 6.26529C590.734 6.0993 590.342 6.00466 589.876 5.89237C589.315 6.02132 588.749 6.15179 588.177 6.28305C587.618 6.16354 587.029 6.03771 586.634 5.95409C584.968 6.19349 583.384 6.4219 581.452 6.69964C581.174 6.64866 580.633 6.54878 579.878 6.40833L575.766 6.44572C573.997 6.35113 573.563 5.83107 570.88 6.20431C569.422 6.47408 571.346 6.79591 572.551 7.08984C570.394 7.43046 568.469 7.27793 566.286 7.32489C566.019 6.95428 565.748 6.57417 565.481 6.20356C564.922 6.16834 564.429 6.13618 563.928 6.10482C562.148 6.21115 561.741 6.71614 559.864 6.88785C559.604 6.83598 559.042 6.72456 558.41 6.59985C557.884 6.72263 557.315 6.85679 556.879 6.95823C554.826 6.69693 552.799 6.43979 550.685 6.17099C549.959 6.3161 549.337 6.43975 548.424 6.62249C541.959 6.68126 535.148 6.74245 528.447 6.80337C527.946 6.68114 527.553 6.58724 526.865 6.42127C523.104 6.45546 519.042 6.49239 515.287 6.52579C514.601 6.36053 514.209 6.2659 513.757 6.1564C501.706 6.26524 489.596 6.37461 477.483 6.484C476.853 6.34534 476.25 6.21231 475.682 6.08629C474.067 5.96466 473.232 6.26394 472.35 6.51601C471.878 6.40231 471.485 6.30767 470.887 6.1636C467.046 6.19852 462.989 6.23467 458.981 6.27111C458.36 6.40795 457.753 6.54099 456.886 6.73062C456.012 6.60665 455.136 6.48196 453.941 6.31254C445.888 6.38502 437.425 6.46123 429.148 6.53574C428.577 6.68605 428.19 6.78777 427.757 6.90237C427.177 6.77719 426.601 6.65198 425.989 6.51976C417.773 6.59373 409.505 6.66816 401.263 6.74236C400.648 6.60431 400.05 6.46976 399.506 6.34792C397.715 6.20004 397.17 6.65498 396.219 6.7633L392.854 6.79389C392.371 6.67663 391.978 6.58199 391.433 6.45136C386.117 6.49896 380.644 6.54872 374.795 6.60116C374.483 6.6685 373.873 6.79936 373.142 6.95625C372.644 6.85598 372.077 6.74168 371.406 6.60706C358.322 6.72455 345.107 6.84469 331.889 6.96413C331.265 6.82469 330.665 6.6909 330.047 6.55288C329.689 6.6514 329.314 6.75449 328.965 6.85C328.44 6.89948 327.963 6.97858 327.474 6.98522C325.005 7.01939 322.539 7.03522 320.244 7.05608C319.527 6.91016 318.959 6.7944 318.397 6.68078C317.918 6.80606 317.532 6.90851 317.318 6.96469C315.552 6.84956 313.896 6.74149 312.354 6.64044C311.505 6.83725 310.904 6.97537 310.216 7.13479C309.242 7.14292 308.152 7.15283 306.962 7.16364C306.444 7.0467 305.843 6.91218 305.228 6.77412C298.641 6.83401 292.028 6.8934 285.414 6.95353C285.022 6.85816 284.629 6.76352 283.879 6.58272C280.758 6.51142 277.223 6.66816 273.803 6.61863C273.186 6.49379 272.618 6.37876 272.059 6.26658C271.574 6.39411 271.187 6.49584 270.645 6.63782C270.112 6.53639 269.559 6.43076 268.898 6.30411C268.392 6.41791 267.832 6.54467 267.182 6.69129C261.793 6.73955 256.293 6.78955 250.709 6.83959C250.179 6.72128 249.582 6.58746 249.005 6.45932C248.439 6.59419 247.867 6.72985 247.298 6.86474C246.855 6.7581 246.463 6.66346 246.041 6.56176C244.526 6.48685 242.968 6.35151 241.595 6.71651C240.264 7.07013 238.616 7.03015 237.143 6.88158C235.494 6.71554 233.997 6.45725 232.107 6.19374C231.432 6.19988 230.339 6.20982 229.097 6.22038C228.611 6.48864 228.084 6.77925 227.583 7.0557L225.85 7.07146C224.854 6.83134 223.872 6.59475 222.89 6.35742C220.744 6.08378 219.065 6.46622 217.25 6.65349C216.857 6.55885 216.465 6.46348 215.999 6.35192C215.438 6.48087 214.872 6.61061 214.239 6.75561C209.926 6.79482 205.526 6.8341 200.885 6.87629C200.585 6.66575 200.249 6.43062 199.895 6.18612C198.145 5.91841 196.19 6.20808 194.262 6.05338C193.867 6.35086 193.54 6.59568 193.204 6.84792C191.41 7.0687 189.531 6.97879 187.518 6.96777C187.182 6.7429 186.829 6.50499 186.369 6.19477C184.077 6.2156 181.675 6.23671 179.569 6.25585C178.883 6.09059 178.491 5.99522 177.805 5.83069C171.288 5.88921 164.471 5.95046 157.956 6.00968C157.271 5.84442 156.878 5.74905 156.418 5.63817C155.855 5.76862 155.286 5.89985 154.662 6.04404L149.776 6.08846C149.199 5.96105 148.598 5.82726 147.969 5.68787L141.425 5.74737L139.94 5.3893C139.474 5.48075 138.959 5.5829 138.161 5.7404C133.874 5.77937 129.268 5.82125 124.743 5.86166C124.268 5.74725 123.875 5.65261 123.36 5.52831C122.819 5.64609 122.264 5.76693 121.579 5.91534L115.03 5.97488C114.544 5.86864 113.941 5.73707 113.296 5.59489L106.741 5.65448C106.178 5.78933 105.592 5.92951 105.011 6.0689C104.607 5.97217 104.217 5.87751 103.824 5.78287C103.605 5.74895 103.385 5.68426 103.17 5.68622C96.2801 5.74373 89.3877 5.80713 82.498 5.86683C82.245 5.86913 81.9912 5.84652 81.7378 5.83563C81.3422 5.74102 80.9525 5.64563 80.3958 5.51144L76.7605 5.54449L75.3924 5.90505C74.8393 5.79575 74.2745 5.68436 73.5926 5.54838C72.1066 5.56189 70.4692 5.57677 68.6952 5.59217C68.2071 5.7102 67.6121 5.85413 66.9825 6.0057C64.8362 6.02521 62.6347 6.04449 60.4245 6.06459C59.8358 5.93362 59.2354 5.7991 58.6058 5.65898C55.8779 5.68378 53.1354 5.70798 50.422 5.73265C49.9942 5.62954 49.6015 5.53417 49.0009 5.38939L43.4287 5.44005C43.265 5.60644 43.0844 5.7957 42.8473 6.03751C43.8942 6.12033 44.8389 6.19456 46.0344 6.28849C46.1642 6.44415 46.3241 6.63251 46.5411 6.88778C47.2906 6.94619 48.2528 7.02173 49.2937 7.10241C49.3282 7.4744 47.8657 7.59543 47.2247 7.85264L45.4797 7.8685C44.9743 7.60486 44.4513 7.33186 43.8159 7.00197C42.7779 7.59918 41.8456 8.1346 40.9133 8.67002C39.4322 8.75311 37.9482 8.83696 36.3539 8.92621C37.659 9.4728 40.308 8.85728 41.3424 9.39754C41.1318 9.45369 40.9426 9.54629 40.7448 9.54882C38.0026 9.58254 35.2601 9.60455 32.3141 9.63133C31.8472 9.39079 31.3036 9.11064 30.7717 8.83698C29.8701 8.84444 29.0442 8.85195 28.2153 8.85949L28.2342 9.48886C27.4751 9.68485 26.6985 9.88393 25.8412 10.105C25.2997 9.99265 24.7289 9.87545 24.079 9.74065L19.1932 9.78507C18.6762 9.91142 18.0901 10.0553 17.4779 10.2052C12.5892 10.2497 7.6626 10.2944 2.81744 10.3378C1.78236 10.452 1.52319 10.8296 0.148657 10.7805C0.344169 10.8975 0.542549 11.0144 0.770636 11.1508C7.54974 11.0899 14.3521 11.0281 20.9945 10.9684L22.3943 10.6002C25.5963 10.5711 28.8768 10.5413 32.166 10.5121C32.7985 10.3627 33.3965 10.2232 33.9974 10.0821C34.7129 10.5645 35.7296 10.9994 37.559 11.2759C39.2737 11.4164 39.7772 10.942 41.0246 10.8252C43.4526 10.4997 44.8175 11.1952 47.0835 11.1922C47.6037 11.0783 48.2106 10.9452 48.829 10.8084C49.6007 10.9319 50.4163 11.0622 51.5446 11.2425C52.9632 10.9218 54.3213 10.6156 56.1532 10.2024C57.0473 10.527 57.9708 10.8616 59.0149 11.2413C60.3925 11.0082 61.2493 10.8633 62.2566 10.6937C62.6605 10.7772 63.2313 10.8952 63.8782 11.03C72.5767 10.9509 81.3799 10.8716 90.1919 10.7922C90.8011 10.9289 91.3985 11.0627 91.996 11.1972L93.1996 10.8799C94.9292 10.6466 96.8236 10.7627 98.6791 10.7488L100.097 11.0906C100.58 10.9939 101.098 10.8895 101.728 10.7628C103.468 10.6561 105.354 10.5137 106.846 11.0886C118.436 10.984 130.199 10.8778 141.681 10.7741C142.355 10.9358 142.748 11.0304 143.199 11.1399C151.38 11.0663 159.625 10.9921 167.881 10.917C168.508 11.0535 169.108 11.1851 169.761 11.3264C174.091 11.2878 178.489 11.2478 182.865 11.2088C183.492 11.3474 184.092 11.4812 184.702 11.6164C195.154 11.5221 205.615 11.4277 216.067 11.3327C216.468 11.4295 216.861 11.5241 217.544 11.6887C220.19 11.6646 223.145 11.6385 225.812 11.6142C226.495 11.7788 226.887 11.8734 227.47 12.014C234.084 11.9546 240.889 11.8927 247.694 11.8316C248.084 11.7298 248.471 11.6288 249.022 11.4831C249.549 11.5831 250.096 11.6866 251.061 11.8706C256.322 11.8227 262.031 11.7716 267.443 11.7224L268.967 12.0896C276.051 12.0252 283.194 11.961 290.348 11.896C290.969 12.0332 291.572 12.1655 292.216 12.3062C294.904 12.2818 297.652 12.2568 300.421 12.2324C300.987 12.0968 301.57 11.9574 302.154 11.8172C302.552 11.9133 302.945 12.0072 303.334 12.1026C303.554 12.1365 303.771 12.2012 303.989 12.1999C308.924 12.1609 313.86 12.1153 318.708 12.0713C320.091 12.6098 321.993 12.4789 323.863 12.382C324.25 12.2796 324.637 12.1779 325.153 12.0427C325.698 12.1492 326.256 12.2584 326.953 12.395C332.822 12.3424 338.856 12.2875 344.905 12.2332C345.541 12.3689 346.147 12.499 346.814 12.6431L355.004 12.5687C355.359 12.4826 355.758 12.3874 356.237 12.2717C357.899 11.9927 359.841 12.1656 361.69 12.1056C362.082 12.2002 362.475 12.2941 363.19 12.4672C364.706 12.4724 366.559 12.479 368.339 12.4848C368.992 12.6196 369.601 12.746 370.467 12.9257C371.322 12.797 372.208 12.6637 373.366 12.4897C373.67 12.5478 374.224 12.6549 374.937 12.792L383.139 12.7175C383.581 12.6152 384.179 12.4757 384.814 12.3277C385.368 12.4487 385.95 12.5776 386.551 12.7099C390.375 12.6751 394.228 12.6401 398.082 12.6058C398.474 12.7004 398.867 12.7951 399.318 12.9038C401.058 13.1064 402.947 12.9558 404.739 12.9381C405.377 12.7901 405.978 12.652 406.429 12.5482C408.326 12.3602 408.789 12.8624 410.542 12.9322C411.333 12.8078 412.424 12.6366 413.863 12.411C414.571 12.5262 415.421 12.6643 416.348 12.8149C416.799 12.706 417.373 12.5682 417.965 12.4257L420.408 12.4035C420.262 11.9966 421.396 11.9856 423.112 11.9531C423.832 12.1958 424.793 12.519 425.519 12.7631L431.024 12.713C431.633 12.8489 432.228 12.9813 432.857 13.1207C435.539 13.0971 438.272 13.0722 441.053 13.0469C441.604 12.91 442.19 12.7647 442.782 12.6179L446.025 12.5884C446.626 12.4407 447.212 12.2954 447.766 12.1577C450.163 12.0619 450.892 12.6079 452.577 12.9048C455.831 12.8752 459.315 12.8442 462.66 12.8138C463.537 12.597 464.329 12.4029 465.056 12.2233L465.043 11.7669C463.966 11.6506 462.871 11.5316 461.736 11.4092C462.894 11.0374 464.378 11.2386 465.804 11.1509C466.332 11.4151 466.879 11.6893 467.393 11.9478C468.287 11.8077 469.15 11.6731 470.01 11.54C470.187 11.4218 470.364 11.3059 470.566 11.1714C472.548 11.1043 474.566 10.9752 477.127 11.2788C474.51 11.628 472.184 11.4572 470.01 11.54Z" fill="#FFC000"/>
</svg>
