<svg width="22" height="22" viewBox="0 0 22 22" fill="none" xmlns="http://www.w3.org/2000/svg">
<path fill-rule="evenodd" clip-rule="evenodd" d="M20.8951 9.69211C21.0459 9.4872 21.0409 9.20654 20.8828 9.00697L19.752 7.57697C19.599 7.38337 19.3378 7.31109 19.1071 7.39909L11.7239 10.2182L10.4878 9.31843C10.3913 9.24803 10.2747 9.21 10.155 9.21H8.54491V8.67697H8.92551C9.2376 8.67697 9.49091 8.42397 9.49091 8.11189V7.19009C9.49091 6.878 9.2376 6.625 8.92551 6.625H6.71765C6.40525 6.625 6.15225 6.878 6.15225 7.19009V8.11189C6.15225 8.42397 6.40525 8.67697 6.71765 8.67697H7.14445V9.21H4.82942V9.02834C4.82942 8.8008 4.69334 8.59557 4.4834 8.50726L1.87105 7.40631C1.72962 7.3466 1.56934 7.34723 1.42791 7.4082C1.28648 7.46917 1.17617 7.58483 1.12211 7.72909L0.136824 10.3584C0.0362526 10.6255 0.151281 10.9257 0.404281 11.058L3.69862 12.7778V14.5962C3.69862 14.9086 3.95162 15.1616 4.26402 15.1616H12.8755C13.0163 15.1616 13.1527 15.1088 13.2567 15.0136L19.2731 9.51737L20.2376 9.88603C20.4755 9.97654 20.7445 9.89734 20.8951 9.69211ZM1.37071 10.2871L1.97445 8.67697L3.69862 9.40329V11.5021L1.37071 10.2871ZM12.6558 14.0308H4.82942V10.3408H9.97082L11.3062 11.3132C11.4609 11.4257 11.6617 11.4524 11.8405 11.3842L18.2193 8.94883L12.6558 14.0308Z" fill="#EB2F00"/>
<path fill-rule="evenodd" clip-rule="evenodd" d="M20.7059 10.8974C20.7059 10.8974 19.6961 12.6637 19.6961 13.164C19.6961 13.6647 20.148 14.0711 20.7059 14.0711C21.2634 14.0711 21.7157 13.6647 21.7157 13.164C21.7157 12.6637 20.7059 10.8974 20.7059 10.8974Z" fill="#EB2F00"/>
<path fill-rule="evenodd" clip-rule="evenodd" d="M4.41174 14.5921V9.90646H10.1839L11.745 10.7242L16.4772 11.339L12.8846 14.5921H4.41174Z" fill="#EB2F00"/>
</svg>
