<svg width="92" height="92" viewBox="0 0 92 92" fill="none" xmlns="http://www.w3.org/2000/svg">
<path d="M25.502 24.3319L26.1654 23.6684L63.763 19.6875H65.09L65.6798 22.9312L67.8177 44.4577L48.6503 59.423L45.3328 57.6537L42.2366 59.423L27.4924 47.7014L25.502 24.3319Z" fill="#FFC000"/>
<path d="M41.8531 17.2943C39.7889 18.9015 37.5183 20.6708 36.7811 21.2458L35.4541 22.2779L31.2521 22.7497C28.9372 23.0151 26.8878 23.2215 26.6814 23.2215C25.8557 23.2215 25.2659 24.0324 25.4429 24.9318C25.5608 25.5953 25.7525 25.5658 25.9442 24.8728C26.2095 23.8702 26.3275 23.826 29.7187 23.5016C31.4142 23.3394 33.4932 23.1478 34.3483 23.0741C35.2035 23.0003 39.1107 22.617 43.0474 22.2041C46.9841 21.7913 50.965 21.3932 51.8939 21.3048C52.8228 21.2163 54.0908 21.0836 54.6953 21.0099C55.2998 20.9214 57.6883 20.656 60.0032 20.4201C62.318 20.1695 64.3232 19.9483 64.4559 19.9188C64.913 19.8156 65.1194 20.4201 65.2078 22.1894C65.2521 23.1183 65.429 25.1825 65.5912 26.7601C65.7534 28.3377 65.9156 29.9596 65.9451 30.3724C66.004 31.1391 67.3163 43.0082 67.4342 43.8043C67.4932 44.2319 67.4047 44.3351 66.0778 45.3525C62.2 48.2866 54.135 54.5086 51.4368 56.617L48.4142 59.0056L46.9546 58.1357C45.5686 57.3247 45.0526 57.1331 44.9346 57.3985C44.9199 57.4722 44.3006 57.8703 43.5929 58.2979C42.6935 58.8434 42.2512 59.0351 42.1185 58.9319C42.0153 58.8581 38.7568 56.2926 34.8644 53.2406L27.8019 47.6821L27.8314 47.1365C27.8756 46.532 26.991 35.6066 26.5339 30.9622C26.0326 25.9492 25.9589 25.4626 25.6345 25.669C25.5461 25.7133 25.5313 26.5537 25.5903 27.8512L25.6935 29.9448L23.3492 31.7731C21.3587 33.3212 15.3873 38.0394 15.1957 38.2163C14.9598 38.408 14.9008 45.4262 14.9892 60.0377C15.063 75.1652 15.1072 76.7428 15.3136 76.8018C16.213 77.0672 37.2382 77.421 60.6961 77.5832C73.6415 77.6569 76.1038 77.6422 76.3102 77.4653C76.5314 77.2883 76.5461 76.4479 76.4576 66.7168C76.3249 53.5502 76.089 39.7792 75.9563 38.6734L75.8531 37.8477L71.3562 34.2501C66.8739 30.6673 66.8592 30.6526 66.756 30.0038C66.697 29.6352 66.4758 27.8512 66.2694 26.0229C65.9156 22.9266 65.547 20.4054 65.37 19.7861C65.3258 19.6534 65.1046 19.4322 64.8982 19.329C64.5444 19.1374 63.8514 19.1816 59.1333 19.6976L53.7664 20.2727L51.5695 18.5329C47.3232 15.2007 46.2174 14.3897 45.9077 14.375C45.7308 14.375 44.0647 15.5693 41.8531 17.2943ZM47.9424 16.4687C49.0335 17.3828 50.5374 18.6361 51.2894 19.2406C52.0413 19.8451 52.6016 20.3611 52.5279 20.3759C52.3215 20.4348 37.5183 22.042 37.1645 22.042C36.9433 22.042 38.2555 20.9067 41.3076 18.4444C43.7698 16.4687 45.8193 14.8468 45.8635 14.8321C45.9225 14.8173 46.8514 15.5693 47.9424 16.4687ZM25.9294 33.3212C26.0326 34.6187 26.298 38.1278 26.5487 41.1209C26.7993 44.0992 26.9762 46.65 26.9468 46.7679C26.9173 46.9006 25.4429 45.8243 22.8479 43.7749C20.6215 42.0203 18.1887 40.1183 17.4368 39.558L16.0803 38.5259L17.3631 37.5381C18.0708 36.9778 20.2382 35.2675 22.1844 33.7193C24.1306 32.1712 25.723 30.9179 25.7377 30.9327C25.7525 30.9474 25.8409 32.0238 25.9294 33.3212ZM71.253 35.2822L75.1749 38.4227L72.4915 40.4427C71.017 41.5632 69.4394 42.7575 68.9971 43.1114L68.1862 43.7601L68.1419 43.3325C68.1124 43.0966 67.8618 40.7081 67.5817 38.0394C67.3015 35.3559 67.0361 32.8789 66.9919 32.5251C66.9034 31.9943 66.9329 31.9058 67.1098 32.009C67.2278 32.0827 69.0856 33.5572 71.253 35.2822ZM20.3856 42.4331C22.8479 44.3941 25.9147 46.8416 27.2122 47.859C34.9971 54.022 41.3813 59.1088 41.5435 59.271C41.7057 59.4184 39.9658 60.5832 31.8123 65.7584C21.5651 72.2753 16.8765 75.3421 16.5374 75.7549C16.154 76.1973 16.6553 76.1678 17.5105 75.696C19.3683 74.6491 40.5704 61.2467 44.1237 58.8876L45.4064 58.0325L47.3674 59.3005C48.429 60.0082 51.3336 61.8512 53.8106 63.3993C56.2876 64.9622 60.7699 67.7783 63.7629 69.6656C71.2087 74.369 74.6146 76.4479 74.8505 76.4479C74.9537 76.4479 75.0422 76.33 75.0422 76.1825C75.0422 76.0203 74.3345 75.4748 73.0075 74.6196C70.501 72.9683 49.8444 59.8902 49.4021 59.6543C49.1072 59.4921 49.2399 59.3447 51.6285 57.5312C54.6068 55.2753 70.5895 42.8607 73.2729 40.7081C74.2903 39.9119 75.1896 39.1894 75.2634 39.1304C75.3666 39.0567 75.4256 42.3594 75.455 48.9206C75.4698 54.3759 75.5583 62.8391 75.632 67.7341C75.7057 72.6439 75.7499 76.6691 75.7204 76.6986C75.6909 76.7281 72.1966 76.6838 67.9503 76.5954C63.7039 76.5069 50.1836 76.4184 37.9164 76.4037L15.6085 76.3742L15.6527 57.5459C15.6822 47.1955 15.7412 38.7618 15.8002 38.7913C15.8444 38.8208 17.9086 40.4574 20.3856 42.4331Z" fill="#356799" stroke="#356799" stroke-width="0.75"/>
<path d="M49.6817 28.9115C44.4476 29.4717 37.3261 30.8577 32.6965 32.2289C31.7971 32.4943 31.5169 32.7302 31.7823 32.9808C31.8266 33.0251 32.4311 32.9366 33.1388 32.7744C38.948 31.4769 42.5161 30.8429 50.1978 29.7814C55.7416 29.0147 55.7268 29.0147 55.7268 28.823C55.7268 28.6166 51.9081 28.6608 49.6817 28.9115Z" fill="#356799" stroke="#356799" stroke-width="0.75"/>
<path d="M50.3454 33.059C46.1875 33.4277 39.5084 34.7694 34.982 36.1406C33.2422 36.6566 32.7556 36.922 32.9325 37.2169C33.1095 37.4823 33.596 37.4086 37.4 36.5092C42.7816 35.2117 50.596 33.6783 53.5596 33.3244C55.0045 33.1623 54.4885 32.9558 52.675 32.9853C51.7166 33.0001 50.6698 33.0296 50.3454 33.059Z" fill="#356799" stroke="#356799" stroke-width="0.75"/>
<path d="M40.614 39.7317C38.4466 40.0561 34.8638 40.867 34.3035 41.1619C33.8317 41.3978 33.9054 41.6484 34.4509 41.6484C34.7458 41.6484 41.2038 40.174 42.575 39.7907C42.9583 39.6875 43.0173 39.4368 42.6487 39.4516C42.5012 39.4516 41.5871 39.5843 40.614 39.7317Z" fill="#356799" stroke="#356799" stroke-width="0.75"/>
<path d="M58.4545 40.7683C52.2619 41.2254 46.2316 42.3902 39.7147 44.3659C36.2793 45.4127 35.3799 45.7519 35.3799 46.0173C35.3799 46.3859 36.1466 46.2532 40.3929 45.1916C48.9003 43.0537 53.7658 42.1838 61.3296 41.4171C64.0278 41.1517 64.2489 41.1075 64.0425 40.9158C63.8361 40.7241 60.4302 40.6356 58.4545 40.7683Z" fill="#356799" stroke="#356799" stroke-width="0.75"/>
<path d="M53.3677 46.961C51.0529 47.1232 47.6765 47.6245 45.5976 48.1405C43.4744 48.6565 40.1127 49.8213 39.8031 50.1457C39.5967 50.3669 39.6557 50.3816 40.5403 50.2931C41.0711 50.2489 42.9584 49.8508 44.7424 49.4085C48.8413 48.4059 49.7997 48.2142 53.4857 47.6392C57.5551 47.0052 57.4961 46.6956 53.3677 46.961Z" fill="#356799" stroke="#356799" stroke-width="0.75"/>
<path fill-rule="evenodd" clip-rule="evenodd" d="M25.9329 17.4023C25.5711 17.3008 25.3562 16.9246 25.4529 16.5619C25.7562 15.4238 26.1583 13.5861 26.3748 11.7915C26.4831 10.8941 26.5431 10.0221 26.5247 9.26153C26.506 8.48649 26.4066 7.89024 26.239 7.50599C26.0879 7.15966 26.2431 6.75895 26.5858 6.61099C26.9284 6.46302 27.3287 6.62382 27.4798 6.97015C27.7548 7.60045 27.8603 8.40946 27.8805 9.24422C27.901 10.0934 27.8339 11.0358 27.7211 11.9712C27.4954 13.8421 27.0791 15.7436 26.763 16.9292C26.6663 17.2919 26.2947 17.5037 25.9329 17.4023Z" fill="#FFC000"/>
<path fill-rule="evenodd" clip-rule="evenodd" d="M21.9621 18.9114C21.6483 18.9533 21.3157 18.6987 21.2192 18.3428C20.9487 17.3445 19.3267 14.3003 15.0106 11.4864C14.7083 11.2894 14.5673 10.8869 14.6955 10.5876C14.8237 10.2882 15.1727 10.2052 15.475 10.4023C20.0213 13.3663 21.9558 16.715 22.3557 18.1909C22.4522 18.5469 22.2759 18.8694 21.9621 18.9114Z" fill="#FFC000"/>
<path fill-rule="evenodd" clip-rule="evenodd" d="M20.468 20.9705C20.3038 21.2926 19.9091 21.408 19.5864 21.2284C18.8386 20.8119 17.6741 20.1427 16.6069 19.4859C16.0737 19.1577 15.5593 18.8293 15.1313 18.535C14.7184 18.2511 14.339 17.9677 14.1119 17.7327C13.8531 17.4649 13.8485 17.0422 14.1017 16.7886C14.3549 16.535 14.77 16.5464 15.0287 16.8142C15.1472 16.9368 15.4194 17.1505 15.8359 17.4368C16.2371 17.7127 16.7298 18.0276 17.2531 18.3497C18.2991 18.9935 19.4457 19.6525 20.181 20.0619C20.5037 20.2416 20.6322 20.6483 20.468 20.9705Z" fill="#FFC000"/>
</svg>
