<svg width="22" height="22" viewBox="0 0 22 22" fill="none" xmlns="http://www.w3.org/2000/svg">
<path fill-rule="evenodd" clip-rule="evenodd" d="M0 9.39216V4.07812H0.927367L2.69409 6.47787L4.42283 4.07812H5.35019V9.39216H4.37289V5.78007L2.73217 7.96557H2.61803L0.970169 5.7149V9.39216H0ZM5.93214 9.39216L7.76547 4.07812H9.02098L10.8543 9.39216H9.79855L9.42047 8.25089H7.36599L6.98078 9.39216H5.93214ZM9.14226 7.39494L8.39323 5.1541L7.6442 7.39494H9.14226ZM11.4458 4.07812V9.39216H12.416V4.07812H11.4458ZM13.4382 9.39216V4.07812H14.1943L16.7268 7.48732V4.07812H17.6969V9.39216H16.9336L14.4084 5.91708V9.39216H13.4382ZM19.6673 4.93408V9.39216H20.6446V4.93408H22V4.07812H18.2905V4.93408H19.6673ZM12.6218 18.1372C12.2318 18.1372 11.868 18.0682 11.5303 17.9303C11.1927 17.7924 10.8978 17.5999 10.6458 17.3526C10.3937 17.1053 10.1964 16.8152 10.0537 16.4824C9.91577 16.1447 9.84681 15.781 9.84681 15.391C9.84681 14.9963 9.91577 14.6326 10.0537 14.2997C10.1916 13.9668 10.3866 13.6767 10.6386 13.4295C10.8907 13.1822 11.1855 12.992 11.5232 12.8588C11.8609 12.7209 12.2271 12.652 12.6218 12.652C13.0165 12.652 13.3827 12.7209 13.7204 12.8588C14.058 12.9967 14.3529 13.1893 14.6049 13.4366C14.857 13.6791 15.052 13.9668 15.1899 14.2997C15.3325 14.6326 15.4039 14.9963 15.4039 15.391C15.4039 15.781 15.3325 16.1447 15.1899 16.4824C15.0472 16.8152 14.8498 17.1053 14.5978 17.3526C14.4887 17.4595 14.3717 17.5563 14.2466 17.6428L14.8831 18.6936H13.8488L13.4482 18.0237C13.1897 18.0994 12.9142 18.1372 12.6218 18.1372ZM13.913 16.7249C13.8676 16.7715 13.8201 16.8154 13.7703 16.8564L13.2067 15.926H12.1938L12.9699 17.2239C12.8584 17.2431 12.7424 17.2527 12.6218 17.2527C12.365 17.2527 12.1272 17.2075 11.9084 17.1172C11.6897 17.0221 11.497 16.8913 11.3306 16.7249C11.1689 16.5584 11.0429 16.3611 10.9525 16.1328C10.8622 15.9046 10.817 15.6573 10.817 15.391C10.817 15.1247 10.8622 14.8798 10.9525 14.6563C11.0429 14.4281 11.1689 14.2307 11.3306 14.0643C11.497 13.8931 11.6897 13.7623 11.9084 13.672C12.1272 13.5816 12.365 13.5365 12.6218 13.5365C12.8833 13.5365 13.1235 13.5816 13.3423 13.672C13.561 13.7623 13.7513 13.8931 13.913 14.0643C14.0794 14.2307 14.2054 14.4281 14.291 14.6563C14.3814 14.8798 14.4266 15.1247 14.4266 15.391C14.4266 15.6573 14.3814 15.9046 14.291 16.1328C14.2054 16.3611 14.0794 16.5584 13.913 16.7249ZM1.04496 12.7376V18.0516H2.01513V16.09H2.92895L4.0268 18.0516H5.12537L3.90553 15.9189C4.20039 15.7952 4.43342 15.605 4.60462 15.3482C4.78058 15.0914 4.86857 14.78 4.86857 14.4138C4.86857 14.0572 4.7901 13.7552 4.63316 13.5079C4.47622 13.2559 4.25745 13.0657 3.97687 12.9373C3.70103 12.8041 3.3824 12.7376 3.02097 12.7376H1.04496ZM3.03523 15.2341H2.01513V13.5935H3.03523C3.21119 13.5935 3.36338 13.6292 3.49178 13.7005C3.62019 13.7671 3.72006 13.8622 3.79139 13.9858C3.86273 14.1047 3.8984 14.2474 3.8984 14.4138C3.8984 14.5755 3.86273 14.7181 3.79139 14.8418C3.72006 14.9654 3.62019 15.0629 3.49178 15.1342C3.36338 15.2008 3.21119 15.2341 3.03523 15.2341ZM5.76121 12.7376V18.0516H9.29234V17.1957H6.73138V15.8119H9.14967V14.9559H6.73138V13.5935H9.29234V12.7376H5.76121ZM16.2665 12.7376V18.0516H18C18.5612 18.0516 19.0486 17.9399 19.4624 17.7164C19.8809 17.4881 20.2043 17.1743 20.4326 16.7748C20.6608 16.3706 20.775 15.9093 20.775 15.391C20.775 14.8679 20.6608 14.4091 20.4326 14.0144C20.2043 13.6149 19.8809 13.3034 19.4624 13.0799C19.0486 12.8517 18.5612 12.7376 18 12.7376H16.2665ZM18.0214 17.1957H17.2367V13.5935H18.0214C18.3828 13.5935 18.6943 13.6672 18.9559 13.8146C19.2222 13.9621 19.4291 14.1689 19.5765 14.4352C19.724 14.7015 19.7977 15.0201 19.7977 15.391C19.7977 15.7572 19.724 16.0758 19.5765 16.3468C19.4291 16.6131 19.2222 16.8224 18.9559 16.9745C18.6943 17.1219 18.3828 17.1957 18.0214 17.1957Z" fill="#FFC000"/>
</svg>
