<svg width="315" height="17" viewBox="0 0 315 17" fill="none" xmlns="http://www.w3.org/2000/svg">
<path d="M265.247 10.9467L265.536 11.0893C265.358 11.1395 265.185 11.2043 264.995 11.2298C264.928 11.2391 264.819 11.1488 264.727 11.1044C264.903 11.0513 265.078 10.9982 265.247 10.9467ZM268.079 10.9827C268.187 10.925 268.276 10.8764 268.366 10.8286C268.457 10.92 268.579 11.0071 268.623 11.1038C268.638 11.1379 268.461 11.1977 268.371 11.2455C268.274 11.1572 268.175 11.0681 268.079 10.9827ZM205.766 11.2994C205.873 11.2417 205.962 11.1939 206.051 11.1461C206.142 11.2367 206.265 11.3239 206.309 11.4205C206.323 11.4547 206.146 11.5144 206.057 11.5622C205.959 11.4739 205.861 11.3848 205.766 11.2994ZM208.187 10.8381C208.295 10.7804 208.383 10.7326 208.472 10.6841C208.565 10.7754 208.686 10.8618 208.73 10.9592C208.745 10.9934 208.567 11.0531 208.479 11.101C208.38 11.0119 208.282 10.9236 208.187 10.8381ZM298.394 8.54679C298.224 8.50157 298.049 8.45574 297.871 8.40846C297.962 8.36061 298.069 8.26701 298.135 8.27383C298.326 8.29154 298.501 8.35059 298.681 8.39342C298.592 8.44124 298.503 8.4898 298.394 8.54679ZM208.14 7.50439C208.247 7.44669 208.336 7.39887 208.425 7.35104C208.517 7.44167 208.638 7.5281 208.682 7.62549C208.698 7.65964 208.521 7.71936 208.431 7.76721C208.333 7.67889 208.235 7.58983 208.14 7.50439ZM24.2084 8.93654C24.1011 8.99424 24.0121 9.04206 23.9232 9.08989C23.8322 8.99923 23.71 8.91209 23.6658 8.81471C23.6511 8.78053 23.8281 8.72081 23.9171 8.67299C24.0151 8.76204 24.1146 8.85034 24.2084 8.93654ZM32.5342 8.78255C32.6254 8.69364 32.7222 8.60096 32.8176 8.50904C32.9079 8.55353 33.0866 8.60665 33.0729 8.64135C33.0316 8.74032 32.912 8.83122 32.8237 8.92521C32.7334 8.88071 32.6431 8.83622 32.5342 8.78255ZM34.9613 8.73744C35.0539 8.6485 35.1494 8.55658 35.2448 8.46393C35.3351 8.50843 35.5137 8.56154 35.5 8.59624C35.4588 8.69521 35.3392 8.78611 35.2509 8.88083C35.1606 8.83634 35.0703 8.79111 34.9613 8.73744ZM38.198 8.67802C38.2892 8.58911 38.386 8.49643 38.4815 8.40451C38.5718 8.44901 38.7504 8.50212 38.7367 8.53682C38.6955 8.63579 38.5758 8.7267 38.4876 8.82068L38.198 8.67802ZM27.0362 8.55566L26.7466 8.41226C26.9252 8.36277 27.0979 8.29727 27.2868 8.27177C27.3535 8.2632 27.4644 8.35275 27.5548 8.39798C27.3805 8.45032 27.2048 8.50415 27.0362 8.55566ZM95.5149 6.72602C95.6038 6.6782 95.7134 6.58455 95.779 6.59066C95.97 6.6091 96.1445 6.66815 96.3244 6.71098C96.2354 6.7588 96.1272 6.85242 96.0603 6.84634C95.8693 6.8279 95.6962 6.76882 95.5149 6.72602ZM38.3426 6.79988C38.5126 6.84509 38.6884 6.89166 38.8655 6.9382C38.7766 6.98676 38.6684 7.08038 38.6014 7.07357C38.4104 7.05513 38.2359 6.99681 38.056 6.95325C38.1449 6.90542 38.2339 6.8576 38.3426 6.79988ZM224.391 12.3949C224.397 12.3068 224.402 12.2195 224.41 12.1314C224.768 12.0998 225.127 12.0587 225.489 12.0447C225.577 12.0416 225.766 12.1406 225.749 12.1725C225.695 12.2717 225.575 12.4351 225.465 12.4409C225.11 12.4577 224.75 12.4153 224.391 12.3949ZM242.702 11.049C245.914 10.7885 245.914 10.7885 246.004 11.1614C245.643 11.1945 245.274 11.2636 244.918 11.2541C244.289 11.2379 243.611 11.4096 242.702 11.049ZM36.0355 6.77973C36.7144 7.17459 36.6948 7.58611 36.1709 7.96082C35.6933 7.80333 35.2085 7.64378 34.7252 7.4842C35.3055 7.1722 35.6684 6.9771 36.0355 6.77973ZM29.1949 9.80615C29.1876 9.30719 29.1596 8.85186 29.197 8.39677C29.2017 8.32926 29.5067 8.26423 29.6751 8.1966C30.0164 8.47169 30.8003 8.55679 30.8047 8.9488C30.6613 9.35895 30.1682 9.60264 29.1949 9.80615ZM25.1326 6.36306C25.7228 5.94461 26.5701 6.08057 27.2264 6.19443C28.031 6.33412 28.7144 6.64022 29.476 6.85106C29.6818 6.90807 29.9787 6.8791 30.2906 6.89162C30.7691 6.72296 31.0965 6.34091 32.0249 6.4695C32.1375 6.5788 32.302 6.73845 32.6312 7.057C32.0873 7.23054 31.5207 7.41036 30.9526 7.59022C30.8925 7.56202 30.6016 7.42964 30.3108 7.29653C28.7003 7.32646 27.1012 7.35838 25.5033 7.37928C25.408 7.38105 25.3128 7.29195 25.1637 7.2185C25.3822 7.07739 25.6063 6.93324 25.8587 6.77025C25.632 6.64327 25.3852 6.50495 25.1326 6.36306ZM229.931 11.54C229.938 11.8858 229.943 12.233 229.948 12.5803C230.777 13.0259 231.336 12.6923 231.93 12.353C233.236 12.3294 234.575 12.3045 235.962 12.2788C236.318 12.4106 236.722 12.5593 237.262 12.7588C237.706 12.5629 238.085 12.3961 238.466 12.2286C238.659 12.3232 238.851 12.4178 239.043 12.5132C239.284 12.5446 239.526 12.6039 239.768 12.6023C240.7 12.5975 241.634 12.5728 242.438 12.5578C242.847 12.3721 243.144 12.2384 243.565 12.0466C243.989 12.1669 244.422 12.2894 245.095 12.4799C245.598 12.4705 246.39 12.4565 247.319 12.4393C247.51 12.3507 247.805 12.2148 248.126 12.0673C248.657 11.9571 249.057 12.0676 249.491 12.2611C249.742 12.373 250.224 12.3354 250.555 12.415C251.005 12.5232 251.191 12.8642 252.072 12.7855C252.319 12.6849 252.721 12.5236 253.273 12.3008C253.646 12.3957 254.09 12.5076 254.87 12.7057L258.757 12.6334C259 12.5036 259.189 12.4019 259.519 12.2243L264.375 12.134L265.112 11.7377L267.58 11.6919C267.819 11.9403 268.085 12.219 268.369 12.5156C268.856 12.2413 269.315 11.9828 269.842 11.6858C271.24 11.6605 272.683 11.6337 274.1 11.6074C274.413 11.7342 274.715 11.8561 275.007 11.9745C275.749 11.809 276.423 11.5818 277.141 11.5215C277.842 11.4623 278.456 11.4282 278.798 11.04C279.143 11.1934 279.427 11.32 279.723 11.4523C288.601 11.288 297.499 11.1241 306.385 10.9597C306.672 10.8181 306.954 10.6794 307.235 10.5416C307.445 10.6447 307.637 10.7393 307.951 10.894C308.187 10.7972 308.442 10.6928 308.915 10.4986L312.084 10.4397C312.284 10.3136 312.442 10.2235 312.432 10.2178C312.062 10.0217 311.675 9.8339 311.291 9.64462C310.652 9.63598 310.014 9.62804 308.967 9.61526C309.851 9.17375 310.813 9.16834 311.282 8.81151C311.472 8.9069 311.666 9.00078 311.951 9.14279L313.877 9.10699C314.176 8.58696 314.137 8.07246 313.883 7.53192C312.91 7.80137 312.07 8.1248 310.878 7.82008C310.87 7.25664 310.863 6.64995 310.853 6.00958C310.373 5.95329 310.009 5.91021 309.669 5.87037C309.332 6.03931 309.043 6.18468 308.753 6.33004L307.168 6.3595C306.869 6.22728 306.585 6.10209 306.303 5.97689C306.09 6.09151 305.901 6.19324 305.63 6.33899C305.272 6.2291 304.891 6.11307 304.336 5.94309C303.983 6.0647 303.561 6.2096 303.069 6.37925C302.871 6.29571 302.592 6.17778 302.274 6.04371L300.699 6.07298C300.43 6.20475 300.142 6.34716 299.864 6.48425C299.569 6.35195 299.274 6.21966 298.857 6.03172C298.444 6.14639 297.999 6.26972 297.169 6.50136C296.56 6.51268 295.507 6.53151 294.225 6.55533C294.104 6.50922 293.799 6.3925 293.276 6.1926C292.07 6.21429 290.626 6.24112 289.325 6.26529C288.99 6.0993 288.798 6.00466 288.57 5.89237C288.296 6.02132 288.019 6.15179 287.739 6.28305C287.465 6.16354 287.177 6.03771 286.984 5.95409C286.169 6.19349 285.394 6.4219 284.449 6.69964C284.313 6.64866 284.048 6.54878 283.679 6.40833L281.667 6.44572C280.802 6.35113 280.59 5.83107 279.277 6.20431C278.564 6.47408 279.505 6.79591 280.094 7.08984C279.039 7.43046 278.098 7.27793 277.03 7.32489C276.899 6.95428 276.767 6.57417 276.636 6.20356C276.362 6.16834 276.121 6.13618 275.876 6.10482C275.005 6.21115 274.806 6.71614 273.888 6.88785C273.761 6.83598 273.486 6.72456 273.177 6.59985C272.919 6.72263 272.641 6.85679 272.428 6.95823C271.423 6.69693 270.432 6.43979 269.398 6.17099C269.043 6.3161 268.738 6.43975 268.291 6.62248C265.129 6.68126 261.797 6.74245 258.519 6.80337C258.274 6.68114 258.082 6.58724 257.745 6.42127C255.905 6.45546 253.918 6.49239 252.081 6.52579C251.745 6.36053 251.553 6.2659 251.333 6.1564C245.437 6.26524 239.513 6.37461 233.587 6.484C233.279 6.34534 232.984 6.21231 232.706 6.08629C231.916 5.96466 231.507 6.26394 231.076 6.51601C230.845 6.40231 230.653 6.30767 230.36 6.1636C228.481 6.19852 226.496 6.23467 224.536 6.27111C224.232 6.40795 223.935 6.54099 223.511 6.73062C223.083 6.60665 222.655 6.48196 222.07 6.31254C218.131 6.38502 213.99 6.46123 209.941 6.53574C209.662 6.68605 209.473 6.78777 209.261 6.90237C208.977 6.77719 208.695 6.65198 208.396 6.51976C204.376 6.59373 200.332 6.66816 196.3 6.74236C195.999 6.60431 195.706 6.46976 195.44 6.34792C194.564 6.20004 194.297 6.65498 193.832 6.7633L192.186 6.79389C191.95 6.67663 191.758 6.58199 191.491 6.45136C188.89 6.49896 186.213 6.54872 183.352 6.60116C183.199 6.6685 182.9 6.79936 182.543 6.95625C182.299 6.85597 182.022 6.74168 181.694 6.60706C175.293 6.72455 168.828 6.84469 162.362 6.96413C162.057 6.82469 161.763 6.6909 161.461 6.55288C161.286 6.6514 161.102 6.75449 160.931 6.85C160.674 6.89948 160.441 6.97858 160.202 6.98522C158.994 7.01939 157.787 7.03522 156.665 7.05608C156.314 6.91016 156.036 6.7944 155.761 6.68078C155.527 6.80606 155.338 6.90851 155.233 6.96469C154.369 6.84956 153.559 6.74149 152.805 6.64044C152.39 6.83725 152.096 6.97537 151.759 7.13479C151.283 7.14292 150.749 7.15283 150.167 7.16365C149.914 7.0467 149.62 6.91218 149.319 6.77412C146.097 6.83401 142.861 6.8934 139.626 6.95353C139.434 6.85816 139.242 6.76352 138.875 6.58272C137.348 6.51142 135.619 6.66816 133.946 6.61863C133.644 6.49379 133.366 6.37876 133.092 6.26658C132.855 6.39412 132.666 6.49584 132.401 6.63782C132.14 6.53639 131.87 6.43076 131.546 6.30411C131.299 6.41791 131.024 6.54467 130.706 6.69129C128.07 6.73955 125.38 6.78955 122.648 6.83959C122.389 6.72128 122.096 6.58746 121.814 6.45932C121.537 6.59419 121.258 6.72985 120.979 6.86474C120.763 6.7581 120.571 6.66346 120.364 6.56176C119.623 6.48685 118.861 6.35151 118.189 6.71651C117.538 7.07013 116.732 7.03015 116.011 6.88158C115.205 6.71554 114.472 6.45725 113.548 6.19374C113.218 6.19988 112.683 6.20982 112.075 6.22038C111.837 6.48864 111.58 6.77925 111.335 7.0557L110.487 7.07146C109.999 6.83134 109.519 6.59475 109.039 6.35742C107.989 6.08378 107.168 6.46622 106.28 6.65349C106.088 6.55885 105.895 6.46348 105.668 6.35192C105.393 6.48087 105.116 6.61061 104.807 6.75561C102.697 6.79482 100.544 6.8341 98.2736 6.87629C98.1268 6.66575 97.9626 6.43062 97.7896 6.18612C96.9332 5.91841 95.9769 6.20808 95.034 6.05338C94.8405 6.35086 94.6804 6.59568 94.5162 6.84792C93.6386 7.0687 92.7193 6.97879 91.7344 6.96777C91.5703 6.7429 91.3974 6.50499 91.1723 6.19477C90.0512 6.2156 88.876 6.23671 87.846 6.25585C87.5105 6.09059 87.3184 5.99522 86.983 5.83069C83.7947 5.88921 80.4598 5.95046 77.2729 6.00968C76.9375 5.84442 76.7454 5.74905 76.5203 5.63817C76.2447 5.76862 75.9663 5.89985 75.661 6.04404L73.2709 6.08846C72.9887 5.96105 72.695 5.82726 72.3869 5.68787L69.1858 5.74737L68.459 5.3893C68.2313 5.48075 67.9795 5.5829 67.589 5.7404C65.4919 5.77937 63.2383 5.82125 61.0246 5.86166C60.7923 5.74725 60.6002 5.65261 60.348 5.52831C60.0836 5.64609 59.8121 5.76693 59.477 5.91534L56.273 5.97488C56.0352 5.86864 55.7401 5.73707 55.425 5.59489L52.2182 5.65448C51.9426 5.78933 51.6558 5.92951 51.3718 6.0689C51.174 5.97217 50.9833 5.87751 50.7913 5.78287C50.684 5.74896 50.5763 5.68426 50.4711 5.68622C47.1006 5.74373 43.7287 5.80713 40.3583 5.86683C40.2345 5.86913 40.1103 5.84652 39.9864 5.83563C39.7929 5.74102 39.6022 5.64563 39.3298 5.51144L37.5514 5.54449L36.8822 5.90505C36.6116 5.79575 36.3353 5.68436 36.0017 5.54838C35.2747 5.56189 34.4737 5.57677 33.6058 5.59217C33.3671 5.7102 33.076 5.85413 32.768 6.0057C31.718 6.02521 30.6411 6.04449 29.5598 6.06459C29.2718 5.93362 28.9781 5.7991 28.6701 5.65898C27.3356 5.68378 25.9939 5.70798 24.6665 5.73265C24.4572 5.62954 24.2652 5.53417 23.9713 5.38939L21.2454 5.44005C21.1653 5.60644 21.0769 5.7957 20.961 6.03751C21.4731 6.12033 21.9353 6.19456 22.5201 6.28849C22.5836 6.44415 22.6618 6.63251 22.768 6.88778C23.1346 6.9462 23.6053 7.02173 24.1146 7.10241C24.1314 7.4744 23.4159 7.59543 23.1024 7.85264L22.2487 7.8685C22.0015 7.60486 21.7456 7.33186 21.4348 7.00197C20.927 7.59918 20.4709 8.1346 20.0148 8.67002C19.2903 8.75311 18.5643 8.83696 17.7843 8.92621C18.4228 9.4728 19.7187 8.85728 20.2248 9.39754C20.1217 9.45369 20.0291 9.54629 19.9324 9.54882C18.5909 9.58254 17.2492 9.60455 15.808 9.63133C15.5796 9.39079 15.3137 9.11064 15.0535 8.83698C14.6125 8.84444 14.2084 8.85195 13.8029 8.85949L13.8122 9.48886C13.4408 9.68485 13.0609 9.88393 12.6415 10.105C12.3765 9.99265 12.0973 9.87545 11.7794 9.74065L9.38923 9.78507C9.13635 9.91142 8.84958 10.0553 8.55008 10.2052C6.15849 10.2497 3.7484 10.2944 1.37814 10.3378C0.871772 10.452 0.744974 10.8296 0.0725464 10.7805C0.16819 10.8975 0.265243 11.0144 0.376827 11.1508C3.6932 11.0899 7.02093 11.0281 10.2704 10.9684L10.9552 10.6002C12.5216 10.5711 14.1265 10.5413 15.7356 10.5121C16.045 10.3627 16.3376 10.2232 16.6315 10.0821C16.9816 10.5645 17.4789 10.9994 18.3739 11.2759C19.2127 11.4164 19.4591 10.942 20.0693 10.8252C21.2571 10.4997 21.9247 11.1952 23.0333 11.1922C23.2878 11.0783 23.5847 10.9452 23.8872 10.8084C24.2647 10.9319 24.6637 11.0622 25.2157 11.2425C25.9097 10.9218 26.5741 10.6156 27.4703 10.2024C27.9076 10.527 28.3594 10.8616 28.8702 11.2413C29.5442 11.0082 29.9633 10.8633 30.456 10.6937C30.6537 10.7772 30.9329 10.8952 31.2494 11.03C35.5047 10.9509 39.8113 10.8716 44.1222 10.7922C44.4202 10.9289 44.7124 11.0627 45.0047 11.1972L45.5935 10.8799C46.4397 10.6466 47.3664 10.7627 48.2741 10.7488L48.968 11.0906C49.2042 10.9939 49.4574 10.8895 49.7658 10.7628C50.6166 10.6561 51.5396 10.5137 52.2695 11.0886C57.9391 10.984 63.694 10.8778 69.3109 10.7741C69.6406 10.9358 69.8327 11.0304 70.0534 11.1399C74.0556 11.0663 78.089 10.9921 82.1281 10.917C82.4346 11.0535 82.7283 11.1851 83.0477 11.3264C85.1662 11.2878 87.3173 11.2478 89.4585 11.2088C89.7651 11.3474 90.0588 11.4812 90.3568 11.6164C95.4701 11.5221 100.588 11.4277 105.701 11.3327C105.897 11.4295 106.089 11.5241 106.423 11.6887C107.718 11.6646 109.163 11.6385 110.468 11.6142C110.802 11.7788 110.994 11.8734 111.279 12.014C114.515 11.9546 117.844 11.8927 121.173 11.8316C121.364 11.7298 121.553 11.6288 121.823 11.4831C122.08 11.5831 122.348 11.6866 122.82 11.8706C125.394 11.8227 128.187 11.7716 130.834 11.7224L131.58 12.0896C135.046 12.0252 138.54 11.961 142.04 11.896C142.343 12.0332 142.638 12.1655 142.954 12.3062C144.268 12.2818 145.613 12.2568 146.967 12.2324C147.244 12.0968 147.529 11.9574 147.815 11.8172C148.01 11.9133 148.202 12.0072 148.393 12.1026C148.5 12.1365 148.606 12.2012 148.713 12.1999C151.127 12.1609 153.542 12.1153 155.913 12.0713C156.59 12.6098 157.52 12.4789 158.435 12.382C158.624 12.2796 158.814 12.1779 159.066 12.0427C159.333 12.1492 159.606 12.2584 159.947 12.395C162.818 12.3424 165.77 12.2875 168.729 12.2332C169.04 12.3689 169.337 12.499 169.663 12.6431L173.67 12.5687C173.843 12.4826 174.038 12.3874 174.273 12.2717C175.086 11.9927 176.036 12.1656 176.94 12.1056C177.132 12.2002 177.324 12.2941 177.674 12.4672C178.416 12.4724 179.322 12.479 180.193 12.4848C180.513 12.6196 180.81 12.746 181.234 12.9257C181.652 12.797 182.086 12.6637 182.652 12.4897C182.801 12.5478 183.072 12.6549 183.421 12.792L187.433 12.7175C187.649 12.6152 187.942 12.4757 188.253 12.3277C188.524 12.4487 188.809 12.5776 189.102 12.7099C190.973 12.6751 192.858 12.6401 194.743 12.6058C194.936 12.7004 195.128 12.7951 195.348 12.9038C196.2 13.1064 197.124 12.9558 198 12.9381C198.312 12.7901 198.606 12.652 198.827 12.5482C199.755 12.3602 199.981 12.8624 200.839 12.9322C201.226 12.8078 201.76 12.6366 202.464 12.411C202.81 12.5262 203.226 12.6643 203.679 12.8149C203.9 12.706 204.181 12.5682 204.471 12.4257L205.666 12.4035C205.594 11.9966 206.149 11.9856 206.988 11.9531C207.34 12.1958 207.811 12.519 208.166 12.7631L210.859 12.713C211.157 12.8489 211.448 12.9813 211.756 13.1207C213.067 13.0971 214.405 13.0722 215.765 13.0469C216.035 12.91 216.322 12.7647 216.611 12.6179L218.197 12.5884C218.491 12.4407 218.778 12.2954 219.049 12.1577C220.222 12.0619 220.579 12.6079 221.403 12.9048C222.995 12.8752 224.699 12.8442 226.335 12.8138C226.765 12.597 227.152 12.4029 227.508 12.2233L227.501 11.7669C226.974 11.6506 226.439 11.5316 225.883 11.4092C226.45 11.0374 227.176 11.2386 227.873 11.1509C228.132 11.4151 228.399 11.6893 228.651 11.9478C229.088 11.8077 229.511 11.6731 229.931 11.54C230.018 11.4218 230.104 11.3059 230.203 11.1714C231.173 11.1043 232.16 10.9752 233.413 11.2788C232.133 11.628 230.994 11.4572 229.931 11.54Z" fill="#FFC000"/>
</svg>
