<svg width="44" height="44" viewBox="0 0 44 44" fill="none" xmlns="http://www.w3.org/2000/svg">
<circle cx="22" cy="22" r="22" fill="#C1ECFB"/>
<path d="M14.7666 15.5156C14.7666 15.7145 14.6876 15.9053 14.5469 16.046C14.4063 16.1866 14.2155 16.2656 14.0166 16.2656C13.8177 16.2656 13.6269 16.1866 13.4863 16.046C13.3456 15.9053 13.2666 15.7145 13.2666 15.5156C13.2666 15.3167 13.3456 15.1259 13.4863 14.9853C13.6269 14.8446 13.8177 14.7656 14.0166 14.7656C14.2155 14.7656 14.4063 14.8446 14.5469 14.9853C14.6876 15.1259 14.7666 15.3167 14.7666 15.5156ZM17.0166 15.5156C17.0166 15.7145 16.9376 15.9053 16.7969 16.046C16.6563 16.1866 16.4655 16.2656 16.2666 16.2656C16.0677 16.2656 15.8769 16.1866 15.7363 16.046C15.5956 15.9053 15.5166 15.7145 15.5166 15.5156C15.5166 15.3167 15.5956 15.1259 15.7363 14.9853C15.8769 14.8446 16.0677 14.7656 16.2666 14.7656C16.4655 14.7656 16.6563 14.8446 16.7969 14.9853C16.9376 15.1259 17.0166 15.3167 17.0166 15.5156ZM18.5166 16.2656C18.7155 16.2656 18.9063 16.1866 19.0469 16.046C19.1876 15.9053 19.2666 15.7145 19.2666 15.5156C19.2666 15.3167 19.1876 15.1259 19.0469 14.9853C18.9063 14.8446 18.7155 14.7656 18.5166 14.7656C18.3177 14.7656 18.1269 14.8446 17.9863 14.9853C17.8456 15.1259 17.7666 15.3167 17.7666 15.5156C17.7666 15.7145 17.8456 15.9053 17.9863 16.046C18.1269 16.1866 18.3177 16.2656 18.5166 16.2656Z" fill="#356799"/>
<path d="M11.0166 11.7656C10.8177 11.7656 10.6269 11.8446 10.4863 11.9853C10.3456 12.1259 10.2666 12.3167 10.2666 12.5156V32.0156C10.2666 32.2145 10.3456 32.4053 10.4863 32.546C10.6269 32.6866 10.8177 32.7656 11.0166 32.7656H33.5166C33.7155 32.7656 33.9063 32.6866 34.0469 32.546C34.1876 32.4053 34.2666 32.2145 34.2666 32.0156V12.5156C34.2666 12.3167 34.1876 12.1259 34.0469 11.9853C33.9063 11.8446 33.7155 11.7656 33.5166 11.7656H11.0166ZM11.7666 17.7656V13.2656H32.7666V17.7656H11.7666ZM11.7666 19.2656H32.7666V31.2656H11.7666V19.2656Z" fill="#356799"/>
</svg>
