<svg width="44" height="44" viewBox="0 0 44 44" fill="none" xmlns="http://www.w3.org/2000/svg">
<circle cx="22" cy="22" r="22" fill="#C1ECFB"/>
<path d="M16 29.5H13C12.6023 29.4996 12.221 29.3414 11.9398 29.0602C11.6586 28.779 11.5004 28.3977 11.5 28V25H13V28H16V29.5ZM11.5 19H13V22H11.5V19ZM29.5 16H28V13H25V11.5H28C28.3977 11.5004 28.779 11.6586 29.0602 11.9398C29.3414 12.221 29.4996 12.6023 29.5 13V16ZM19 11.5H22V13H19V11.5ZM13 16H11.5V13C11.5004 12.6023 11.6586 12.221 11.9398 11.9398C12.221 11.6586 12.6023 11.5004 13 11.5H16V13H13V16ZM30.25 34C30.1515 34.0001 30.0539 33.9807 29.963 33.943C29.872 33.9053 29.7893 33.85 29.7197 33.7803L25.1163 29.1768L22.624 32.9163C22.545 33.0347 22.434 33.1282 22.3038 33.1859C22.1736 33.2436 22.0297 33.263 21.8889 33.2419C21.7481 33.2208 21.6163 33.1601 21.5087 33.0668C21.4011 32.9736 21.3223 32.8516 21.2815 32.7153L16.7815 17.7153C16.7426 17.5856 16.7396 17.4478 16.7727 17.3165C16.8058 17.1852 16.8739 17.0653 16.9696 16.9696C17.0653 16.8739 17.1852 16.8058 17.3165 16.7727C17.4478 16.7396 17.5856 16.7426 17.7153 16.7815L32.7153 21.2815C32.8516 21.3223 32.9736 21.4011 33.0668 21.5087C33.1601 21.6163 33.2208 21.7481 33.2419 21.8889C33.263 22.0297 33.2436 22.1736 33.1859 22.3038C33.1282 22.434 33.0347 22.545 32.9163 22.624L29.1768 25.1163L33.7803 29.7197C33.9209 29.8604 33.9998 30.0511 33.9998 30.25C33.9998 30.4489 33.9209 30.6396 33.7803 30.7803L30.7803 33.7803C30.7107 33.85 30.628 33.9053 30.537 33.943C30.4461 33.9807 30.3485 34.0001 30.25 34ZM30.25 32.1895L32.1895 30.25L26.8232 24.8837L30.7577 22.2603L18.619 18.619L22.2603 30.7577L24.8837 26.8232L30.25 32.1895Z" fill="#356799"/>
</svg>
