<svg width="44" height="44" viewBox="0 0 44 44" fill="none" xmlns="http://www.w3.org/2000/svg">
<circle cx="22" cy="22" r="22" fill="#C1ECFB"/>
<path d="M32.5321 12.8865C32.3399 12.827 32.136 12.7969 31.92 12.7969H12.08C11.864 12.7969 11.66 12.827 11.4678 12.8865C10.6124 13.1441 10 13.9305 10 14.8769V29.1169C10 29.6925 10.2266 30.2087 10.5965 30.583C10.6095 30.6023 10.6237 30.6206 10.64 30.6369C10.7438 30.7303 10.8558 30.8127 10.9737 30.8839C11.267 31.0662 11.6102 31.1775 11.9808 31.1944C12.0138 31.196 12.0469 31.1969 12.0799 31.1969H31.9199C31.953 31.1969 31.9861 31.196 32.0191 31.1944C33.132 31.1437 34 30.2436 34 29.1169V14.8769C34 13.9305 33.3875 13.1441 32.5321 12.8865ZM24.3654 22.3519L33.0433 14.2524C33.1434 14.436 33.2 14.6483 33.2 14.8769V29.1169C33.2 29.3712 33.1299 29.6054 33.0077 29.8022L24.3654 22.3519ZM31.92 13.5969C31.9435 13.5969 31.9664 13.5975 31.9889 13.5987C32.0001 13.5992 32.0111 13.6003 32.0222 13.6011C32.0343 13.602 32.0464 13.6028 32.0583 13.604C32.064 13.6046 32.0696 13.6055 32.0754 13.6061C32.2071 13.622 32.3237 13.6587 32.44 13.7169L23.6298 21.955C23.5778 21.9735 23.5271 22.0016 23.48 22.0369L23.16 22.3169C22.48 22.9569 21.44 22.9569 20.76 22.3169L20.7167 22.2791L11.56 13.7169C11.6763 13.6587 11.7929 13.622 11.9246 13.6061C11.9304 13.6054 11.936 13.6046 11.9418 13.604C11.9536 13.6027 11.9657 13.602 11.9778 13.6011C11.989 13.6002 12 13.5992 12.0112 13.5986C12.0336 13.5975 12.0565 13.5968 12.08 13.5968H31.92V13.5969ZM10.9653 29.7565C10.86 29.5695 10.8 29.3518 10.8 29.1169V14.8769C10.8 14.6483 10.8566 14.436 10.9567 14.2525L19.5963 22.3161L10.9653 29.7565ZM12.08 30.3969C11.9502 30.3969 11.8205 30.3705 11.6907 30.3392C11.6625 30.3306 11.6349 30.3208 11.6077 30.3103L20.2177 22.8961L20.24 22.917C20.4048 23.0564 20.5777 23.1756 20.7573 23.2736C21.7023 23.8152 22.9465 23.6965 23.7601 22.917L23.8015 22.8782L32.3924 30.3103C32.3651 30.3208 32.3376 30.3306 32.3094 30.3393C32.1796 30.3705 32.0499 30.3969 31.9201 30.3969H12.08V30.3969Z" fill="#356799"/>
</svg>
