<svg width="252" height="40" viewBox="0 0 252 40" fill="none" xmlns="http://www.w3.org/2000/svg">
<path d="M8.89701 31.312C7.66634 31.312 6.53967 31.0867 5.51701 30.636C4.49434 30.168 3.62767 29.5353 2.91701 28.738C2.20634 27.9407 1.69501 27.048 1.38301 26.06L3.59301 25.15C4.06101 26.398 4.75434 27.36 5.67301 28.036C6.60901 28.6947 7.70101 29.024 8.94901 29.024C9.71168 29.024 10.379 28.9027 10.951 28.66C11.523 28.4173 11.965 28.0793 12.277 27.646C12.6063 27.1953 12.771 26.6753 12.771 26.086C12.771 25.2713 12.537 24.63 12.069 24.162C11.6183 23.6767 10.951 23.3127 10.067 23.07L6.50501 21.978C5.10101 21.5447 4.02634 20.86 3.28101 19.924C2.53567 18.988 2.16301 17.9133 2.16301 16.7C2.16301 15.6427 2.41434 14.7153 2.91701 13.918C3.43701 13.1033 4.14767 12.4707 5.04901 12.02C5.96767 11.552 7.00767 11.318 8.16901 11.318C9.33034 11.318 10.379 11.526 11.315 11.942C12.2683 12.358 13.0743 12.9213 13.733 13.632C14.3917 14.3253 14.877 15.1227 15.189 16.024L13.005 16.934C12.589 15.842 11.965 15.0187 11.133 14.464C10.301 13.892 9.32167 13.606 8.19501 13.606C7.50167 13.606 6.88634 13.7273 6.34901 13.97C5.82901 14.1953 5.42167 14.5333 5.12701 14.984C4.84967 15.4173 4.71101 15.9373 4.71101 16.544C4.71101 17.2547 4.93634 17.8873 5.38701 18.442C5.83767 18.9967 6.52234 19.4213 7.44101 19.716L10.691 20.678C12.2163 21.146 13.369 21.8133 14.149 22.68C14.929 23.5467 15.319 24.6213 15.319 25.904C15.319 26.9613 15.0417 27.8973 14.487 28.712C13.9497 29.5267 13.1957 30.168 12.225 30.636C11.2717 31.0867 10.1623 31.312 8.89701 31.312ZM25.2116 31.312C23.8596 31.312 22.6549 30.9913 21.5976 30.35C20.5403 29.7087 19.7083 28.8333 19.1016 27.724C18.4949 26.5973 18.1916 25.3407 18.1916 23.954C18.1916 22.55 18.4863 21.302 19.0756 20.21C19.6823 19.118 20.4969 18.26 21.5196 17.636C22.5596 16.9947 23.7209 16.674 25.0036 16.674C26.0436 16.674 26.9623 16.8647 27.7596 17.246C28.5743 17.61 29.2589 18.1127 29.8136 18.754C30.3856 19.378 30.8189 20.0973 31.1136 20.912C31.4256 21.7093 31.5816 22.5413 31.5816 23.408C31.5816 23.5987 31.5643 23.8153 31.5296 24.058C31.5123 24.2833 31.4863 24.5 31.4516 24.708H19.9596V22.628H30.0476L28.9036 23.564C29.0596 22.6627 28.9729 21.8567 28.6436 21.146C28.3143 20.4353 27.8289 19.872 27.1876 19.456C26.5463 19.04 25.8183 18.832 25.0036 18.832C24.1889 18.832 23.4436 19.04 22.7676 19.456C22.0916 19.872 21.5629 20.47 21.1816 21.25C20.8176 22.0127 20.6703 22.9227 20.7396 23.98C20.6703 25.0027 20.8263 25.904 21.2076 26.684C21.6063 27.4467 22.1609 28.0447 22.8716 28.478C23.5996 28.894 24.3883 29.102 25.2376 29.102C26.1736 29.102 26.9623 28.8853 27.6036 28.452C28.2449 28.0187 28.7649 27.464 29.1636 26.788L31.1916 27.828C30.9143 28.4693 30.4809 29.0587 29.8916 29.596C29.3196 30.116 28.6349 30.532 27.8376 30.844C27.0576 31.156 26.1823 31.312 25.2116 31.312ZM34.7343 31V11.318H37.1523V31H34.7343ZM40.9042 31V11.318H43.3222V31H40.9042ZM47.0741 31V16.986H49.4921V31H47.0741ZM47.0741 14.75V11.63H49.4921V14.75H47.0741ZM53.2441 31V16.986H55.6101V19.716L55.2201 19.482C55.5667 18.598 56.1214 17.9133 56.8841 17.428C57.6641 16.9253 58.5741 16.674 59.6141 16.674C60.6194 16.674 61.5121 16.8993 62.2921 17.35C63.0894 17.8007 63.7134 18.4247 64.1641 19.222C64.6321 20.0193 64.8661 20.9207 64.8661 21.926V31H62.4221V22.706C62.4221 21.926 62.2834 21.2673 62.0061 20.73C61.7287 20.1927 61.3301 19.7767 60.8101 19.482C60.3074 19.17 59.7267 19.014 59.0681 19.014C58.4094 19.014 57.8201 19.17 57.3001 19.482C56.7974 19.7767 56.3987 20.2013 56.1041 20.756C55.8094 21.2933 55.6621 21.9433 55.6621 22.706V31H53.2441ZM75.0081 36.72C74.0201 36.72 73.1014 36.564 72.2521 36.252C71.4201 35.94 70.7008 35.5067 70.0941 34.952C69.5048 34.4147 69.0541 33.782 68.7421 33.054L71.0041 32.014C71.2468 32.6727 71.7061 33.2273 72.3821 33.678C73.0754 34.146 73.9421 34.38 74.9821 34.38C75.7794 34.38 76.4988 34.224 77.1401 33.912C77.7988 33.6173 78.3188 33.1667 78.7001 32.56C79.0814 31.9707 79.2721 31.2513 79.2721 30.402V27.256L79.7141 27.724C79.2288 28.6773 78.5268 29.4053 77.6081 29.908C76.7068 30.4107 75.7101 30.662 74.6181 30.662C73.3008 30.662 72.1221 30.3587 71.0821 29.752C70.0421 29.128 69.2274 28.2873 68.6381 27.23C68.0488 26.1553 67.7541 24.968 67.7541 23.668C67.7541 22.3507 68.0488 21.1633 68.6381 20.106C69.2274 19.0487 70.0334 18.2167 71.0561 17.61C72.0961 16.986 73.2748 16.674 74.5921 16.674C75.6841 16.674 76.6721 16.9253 77.5561 17.428C78.4574 17.9133 79.1768 18.5893 79.7141 19.456L79.3501 20.106V16.986H81.7161V30.402C81.7161 31.6153 81.4301 32.6987 80.8581 33.652C80.2861 34.6053 79.4888 35.3507 78.4661 35.888C77.4608 36.4427 76.3081 36.72 75.0081 36.72ZM74.8261 28.322C75.6581 28.322 76.4034 28.114 77.0621 27.698C77.7381 27.282 78.2754 26.7273 78.6741 26.034C79.0728 25.3233 79.2721 24.5347 79.2721 23.668C79.2721 22.8187 79.0728 22.0387 78.6741 21.328C78.2754 20.6173 77.7381 20.054 77.0621 19.638C76.4034 19.222 75.6581 19.014 74.8261 19.014C73.9768 19.014 73.2054 19.222 72.5121 19.638C71.8188 20.054 71.2728 20.6173 70.8741 21.328C70.4928 22.0213 70.3021 22.8013 70.3021 23.668C70.3021 24.5347 70.4928 25.3233 70.8741 26.034C71.2728 26.7273 71.8101 27.282 72.4861 27.698C73.1794 28.114 73.9594 28.322 74.8261 28.322ZM95.6529 31.156C94.2836 31.156 93.2262 30.766 92.4809 29.986C91.7529 29.206 91.3889 28.1053 91.3889 26.684V19.3H88.8409V16.986H89.3609C89.9849 16.986 90.4789 16.7953 90.8429 16.414C91.2069 16.0327 91.3889 15.53 91.3889 14.906V13.762H93.8069V16.986H96.9529V19.3H93.8069V26.606C93.8069 27.074 93.8762 27.4813 94.0149 27.828C94.1709 28.1747 94.4222 28.452 94.7689 28.66C95.1156 28.8507 95.5749 28.946 96.1469 28.946C96.2682 28.946 96.4156 28.9373 96.5889 28.92C96.7796 28.9027 96.9529 28.8853 97.1089 28.868V31C96.8836 31.052 96.6322 31.0867 96.3549 31.104C96.0776 31.1387 95.8436 31.156 95.6529 31.156ZM106.543 31.312C105.191 31.312 103.969 31 102.877 30.376C101.785 29.7347 100.918 28.8593 100.277 27.75C99.6353 26.6407 99.3146 25.384 99.3146 23.98C99.3146 22.576 99.6266 21.328 100.251 20.236C100.892 19.144 101.759 18.2773 102.851 17.636C103.943 16.9947 105.173 16.674 106.543 16.674C107.895 16.674 109.117 16.9947 110.209 17.636C111.301 18.26 112.159 19.118 112.783 20.21C113.424 21.302 113.745 22.5587 113.745 23.98C113.745 25.4013 113.415 26.6667 112.757 27.776C112.098 28.868 111.223 29.7347 110.131 30.376C109.056 31 107.86 31.312 106.543 31.312ZM106.543 28.972C107.409 28.972 108.189 28.7553 108.883 28.322C109.593 27.8887 110.148 27.2907 110.547 26.528C110.963 25.7653 111.171 24.916 111.171 23.98C111.171 23.0267 110.963 22.186 110.547 21.458C110.148 20.7127 109.593 20.1233 108.883 19.69C108.189 19.2393 107.409 19.014 106.543 19.014C105.659 19.014 104.861 19.2393 104.151 19.69C103.457 20.1233 102.903 20.7127 102.487 21.458C102.071 22.186 101.863 23.0267 101.863 23.98C101.863 24.916 102.071 25.7653 102.487 26.528C102.903 27.2907 103.457 27.8887 104.151 28.322C104.861 28.7553 105.659 28.972 106.543 28.972Z" fill="white"/>
<g clip-path="url(#clip0_2880_127124)">
<path d="M123.055 5H133.847V23.0747C133.883 23.538 134.099 23.9688 134.448 24.2753C134.798 24.5818 135.253 24.7397 135.717 24.7154C136.184 24.7379 136.641 24.5801 136.995 24.2747C137.349 23.9693 137.571 23.5396 137.617 23.0747V5H148.927V23.0747C148.961 23.5439 149.181 23.9804 149.537 24.2881C149.893 24.5958 150.356 24.7495 150.825 24.7154C151.052 24.7369 151.28 24.7102 151.496 24.637C151.711 24.5638 151.908 24.4458 152.075 24.2907C152.241 24.1357 152.373 23.9472 152.461 23.7376C152.549 23.5279 152.592 23.302 152.586 23.0747V5H163.44V24.1833C163.693 29.8001 158.649 35.0804 152.586 35.0804C145.938 34.7872 143.272 30.8364 143.272 30.8364C143.272 30.8364 140.656 35.3735 133.567 35.0804C124.179 35.0314 123.107 26.1331 123.055 24.1833V5Z" fill="white"/>
<path d="M168.718 16.9375H173.163V23.9132C173.163 23.9132 174.113 21.6155 176.473 21.8034C179.614 21.8973 179.708 24.8964 179.708 25.5545C179.708 28.6511 179.783 34.2168 179.783 34.2168H174.962C174.962 34.2168 175.03 29.5718 175.051 27.477C175.014 27.2602 175.16 25.9921 174.285 25.9452C173.3 26.0076 173.163 27.0532 173.163 27.7428V34.2168H168.716L168.718 16.9375Z" fill="white"/>
<path d="M187.756 21.4219H182.688V34.9352H187.756V21.4219Z" fill="white"/>
<path d="M185.222 20.2937C186.621 20.2937 187.756 19.1594 187.756 17.7601C187.756 16.3609 186.621 15.2266 185.222 15.2266C183.823 15.2266 182.688 16.3609 182.688 17.7601C182.688 19.1594 183.823 20.2937 185.222 20.2937Z" fill="white"/>
<path d="M233.645 20.2937C235.044 20.2937 236.178 19.1594 236.178 17.7601C236.178 16.3609 235.044 15.2266 233.645 15.2266C232.246 15.2266 231.111 16.3609 231.111 17.7601C231.111 19.1594 232.246 20.2937 233.645 20.2937Z" fill="#FFC000"/>
<path d="M194.895 40.0009H190.571V28.1769H190.577C190.571 28.0711 190.571 27.9838 190.571 27.8951C190.561 26.0433 191.271 24.26 192.55 22.9213C193.164 22.2702 193.904 21.7514 194.726 21.3969C195.548 21.0423 196.433 20.8594 197.328 20.8594C198.223 20.8594 199.108 21.0423 199.93 21.3969C200.751 21.7514 201.492 22.2702 202.105 22.9213C203.386 24.2605 204.096 26.0449 204.085 27.8977C204.096 29.7506 203.386 31.5352 202.105 32.8745C201.398 33.6254 200.523 34.199 199.552 34.5487C198.581 34.8984 197.541 35.0144 196.517 34.8873V30.3579C196.693 30.4053 196.875 30.4291 197.058 30.4287C197.643 30.4159 198.199 30.1717 198.604 29.7496C199.01 29.3276 199.231 28.762 199.22 28.1769C199.231 27.5917 199.01 27.0261 198.604 26.6039C198.199 26.1817 197.643 25.9374 197.058 25.9246C196.473 25.9374 195.917 26.1817 195.511 26.6039C195.106 27.0261 194.884 27.5917 194.895 28.1769V40.0004V40.0009Z" fill="white"/>
<path d="M242.756 40.0009H238.432V28.1769H238.437C238.432 28.0711 238.432 27.9838 238.432 27.8951C238.422 26.0433 239.131 24.26 240.411 22.9213C241.024 22.2702 241.765 21.7514 242.586 21.3969C243.408 21.0423 244.293 20.8594 245.188 20.8594C246.083 20.8594 246.968 21.0423 247.79 21.3969C248.612 21.7514 249.352 22.2702 249.966 22.9213C251.246 24.2605 251.956 26.0449 251.945 27.8977C251.956 29.7506 251.246 31.5352 249.966 32.8745C249.258 33.6254 248.383 34.199 247.412 34.5487C246.441 34.8984 245.401 35.0144 244.377 34.8873V30.3579C244.554 30.4053 244.736 30.4291 244.918 30.4287C245.503 30.4159 246.059 30.1717 246.465 29.7496C246.87 29.3276 247.092 28.762 247.081 28.1769C247.092 27.5917 246.87 27.0261 246.465 26.6039C246.059 26.1817 245.503 25.9374 244.918 25.9246C244.333 25.9374 243.777 26.1817 243.372 26.6039C242.966 27.0261 242.745 27.5917 242.756 28.1769V40.0004V40.0009Z" fill="#FFC000"/>
<path d="M207.575 34.2153H216.021V24.6854H220.075V15.6767H216.021V13.0961C216.021 8.91566 220.526 9.14378 220.526 9.14378V0.0014264C220.526 0.0014264 214.651 -0.185406 211.065 3.71741C207.479 7.62023 207.601 12.9666 207.575 14.2047C207.549 15.4429 207.575 34.2153 207.575 34.2153Z" fill="#FFC000"/>
<path d="M228.296 16.9141H223.229V34.9319H228.296V16.9141Z" fill="#FFC000"/>
<path d="M236.179 21.4219H231.111V34.9352H236.179V21.4219Z" fill="#FFC000"/>
</g>
<defs>
<clipPath id="clip0_2880_127124">
<rect width="128.89" height="40" fill="white" transform="translate(123.055)"/>
</clipPath>
</defs>
</svg>
