<svg width="49" height="48" viewBox="0 0 49 48" fill="none" xmlns="http://www.w3.org/2000/svg">
<path d="M41.219 23.9966C41.219 33.5949 37.1431 41.3758 32.1156 41.3758C27.0881 41.3758 23.0122 33.5949 23.0122 23.9966C23.0122 14.3982 27.088 6.61719 32.1155 6.61719C37.1431 6.61719 41.219 14.3982 41.219 23.9966Z" fill="#AEC8E3"/>
<path d="M24.1158 13.3203C22.91 16.2682 22.1851 19.9675 22.1851 23.9978C22.1851 28.0273 22.91 31.7275 24.1158 34.6753C25.8992 32.9175 27.1506 28.7986 27.1506 23.9978C27.1505 19.197 25.8992 15.0781 24.1158 13.3203Z" fill="white"/>
<path d="M31.3313 47.9669C23.4692 47.3107 17.2193 36.8317 17.2193 24C17.2193 11.1617 23.4758 0.710906 31.3445 0.0347812C31.0524 0.012375 30.7569 0 30.4607 0H18.8745C9.73294 0 2.32275 10.7453 2.32275 24C2.32275 37.2554 9.73294 48 18.8745 48H30.4607C31.1939 48 31.9148 47.9239 32.6231 47.7898C32.1969 47.8701 31.7675 47.9338 31.3313 47.9669Z" fill="#D1E0EF"/>
<path d="M32.1157 41.3758C27.0881 41.3758 23.0123 33.5949 23.0123 23.9966C23.0123 14.3982 27.0882 6.61719 32.1157 6.61719C37.1433 6.61719 41.2191 14.3982 41.2191 23.9965C41.2191 33.5948 37.1434 41.3758 32.1157 41.3758ZM47.0098 23.8476C46.956 11.0911 40.0407 0.695 31.3453 0.03125C23.4766 0.707375 17.2192 11.1573 17.2192 23.9965C17.2192 36.8274 23.4692 47.3063 31.3312 47.9634C38.9516 47.3907 45.2074 39.3457 46.6821 28.7849C46.8841 27.2373 46.9974 25.636 47.0107 23.9966C47.0106 23.946 47.0098 23.898 47.0098 23.8476Z" fill="#4381C0"/>
<path d="M15.933 6.48395C16.2111 6.67013 16.5728 6.67013 16.8508 6.48395L18.9339 5.09523L21.8147 6.53523C21.8411 6.54845 21.8701 6.5476 21.8975 6.55754C22.1937 6.1082 22.5008 5.6762 22.8194 5.26567C22.7483 5.18129 22.6605 5.1076 22.5554 5.05463L19.2451 3.39948C18.9794 3.2671 18.6624 3.28688 18.4159 3.4516L16.3925 4.80057L14.3682 3.4516C14.1663 3.31754 13.9155 3.27863 13.6822 3.34398L9.07998 4.65901C8.56276 5.21017 8.06954 5.80435 7.60107 6.43745C7.74592 6.55332 7.92545 6.62279 8.11586 6.62279C8.19114 6.62279 8.26811 6.61201 8.34423 6.59138L13.7691 5.04132L15.933 6.48395Z" fill="#4381C0"/>
<path d="M12.6223 12.2735C12.9004 12.4597 13.2621 12.4597 13.5401 12.2735L15.6232 10.8848L18.504 12.3248C18.6232 12.3845 18.7498 12.4126 18.874 12.4126C18.9451 12.4126 19.0155 12.4018 19.0841 12.3836C19.2314 11.9566 19.3854 11.5362 19.5476 11.1248C19.4706 11.0115 19.3754 10.9105 19.2446 10.8442L15.9343 9.18908C15.6686 9.0567 15.3517 9.07648 15.1051 9.2412L13.0817 10.5902L11.0575 9.2412C10.7794 9.05502 10.4177 9.05502 10.1396 9.2412L8.11614 10.5903L6.0918 9.2413C6.02393 9.19573 5.94949 9.17511 5.87496 9.15195C5.62089 9.61873 5.37508 10.0954 5.14502 10.5895C5.15664 10.5978 5.16236 10.6102 5.17399 10.6185L7.65677 12.2736C7.93483 12.4598 8.29652 12.4598 8.57458 12.2736L10.5988 10.9247L12.6223 12.2735Z" fill="#4381C0"/>
<path d="M12.4966 18.7942C12.8202 19.1178 13.3433 19.1178 13.6668 18.7942L15.5645 16.8965L16.6345 17.9666C16.9225 18.2546 17.3612 18.2712 17.6839 18.0468C17.7443 17.6653 17.8113 17.2879 17.8825 16.9139C17.8553 16.875 17.8395 16.8311 17.8047 16.7963L16.1496 15.1412C15.8259 14.8175 15.3029 14.8175 14.9794 15.1412L13.0817 17.0388L11.184 15.1412C10.8604 14.8175 10.3373 14.8175 10.0138 15.1412L8.11613 17.0388L6.21844 15.1412C6.06207 14.9848 5.84025 14.9061 5.62838 14.8987C5.40741 14.9004 5.19554 14.9897 5.0416 15.1478L2.9925 17.2449C2.88572 17.7729 2.79141 18.3092 2.70947 18.8521C2.8576 18.9671 3.02972 19.0367 3.20766 19.0367C3.42282 19.0367 3.63797 18.953 3.80025 18.7876L5.64 16.9039L7.53104 18.7941C7.85466 19.1177 8.37769 19.1177 8.70122 18.7941L10.5989 16.8964L12.4966 18.7942Z" fill="#4381C0"/>
<path d="M17.2193 23.9987C17.2193 23.9531 17.221 23.9077 17.2218 23.8621L13.5076 21.6342C13.1815 21.4389 12.7653 21.4911 12.4963 21.7583L10.5986 23.656L8.70094 21.7583C8.37732 21.4347 7.85429 21.4347 7.53075 21.7583L5.47004 23.8191L2.69269 22.4303C2.5876 22.3782 2.47669 22.3517 2.36579 22.346C2.3401 22.893 2.32275 23.4426 2.32275 23.9987C2.32275 24.0318 2.32444 24.064 2.32444 24.0971L5.26322 25.5669C5.58263 25.7275 5.96747 25.6638 6.21825 25.4113L8.11594 23.5136L10.0136 25.4113C10.3373 25.7349 10.8603 25.7349 11.1838 25.4113L13.2098 23.3854L16.7932 25.5354C16.9264 25.6157 17.0738 25.6538 17.2185 25.6538C17.2317 25.6538 17.2449 25.6496 17.2583 25.6488C17.235 25.1027 17.2193 24.554 17.2193 23.9987Z" fill="#4381C0"/>
<path d="M17.5916 29.3254L16.0233 28.2801C15.694 28.06 15.2578 28.1047 14.9797 28.3835L13.082 30.2812L11.1843 28.3835C10.8607 28.0599 10.3369 28.0599 10.0142 28.3835L8.11656 30.2811L6.21887 28.3834C6.04347 28.208 5.80009 28.1211 5.55184 28.1451C5.30519 28.1691 5.08262 28.3032 4.94519 28.5093L3.29003 30.992C3.17247 31.1683 3.13937 31.3719 3.16675 31.5655C3.175 31.6019 3.18334 31.6384 3.19244 31.6747C3.24372 31.8576 3.34881 32.0265 3.51934 32.1398C3.66006 32.2334 3.81972 32.2789 3.97778 32.2789C4.24506 32.2789 4.50747 32.1498 4.66712 31.9106L5.76203 30.267L7.53137 32.0363C7.85415 32.3599 8.37803 32.3599 8.70156 32.0363L10.5992 30.1386L12.4969 32.0363C12.8197 32.3599 13.3436 32.3599 13.6671 32.0363L15.6699 30.0335L17.5882 31.3122C17.7008 31.3866 17.8258 31.4214 17.9523 31.4355C17.8126 30.7455 17.6926 30.0411 17.5916 29.3254Z" fill="#4381C0"/>
<path d="M20.0141 37.9972C19.7394 37.3815 19.482 36.7443 19.2429 36.0863L16.7618 34.845C16.3877 34.6597 15.9341 34.7797 15.7025 35.1263L14.6076 36.77L12.8382 35.0006C12.5154 34.677 11.9916 34.677 11.668 35.0006L9.77036 36.8982L7.87267 35.0005C7.54989 34.6769 7.02601 34.6769 6.70248 35.0005L5.04732 36.6557C4.98442 36.7186 4.94467 36.793 4.90576 36.8684C5.08042 37.2648 5.26164 37.653 5.45036 38.0328C5.71848 38.094 6.00901 38.0345 6.21751 37.8259L7.28757 36.7558L9.18526 38.6535C9.50889 38.9771 10.0327 38.9771 10.3554 38.6535L12.2531 36.7558L14.1508 38.6535C14.3072 38.8091 14.5175 38.8959 14.7359 38.8959C14.7632 38.8959 14.7906 38.8943 14.8179 38.8918C15.0645 38.8678 15.2871 38.7338 15.4245 38.5277L16.6749 36.6524L19.3315 37.9807C19.5549 38.0924 19.8007 38.085 20.0141 37.9972Z" fill="#4381C0"/>
<path d="M20.1606 44.5547L22.6434 42.8995C22.7096 42.8557 22.756 42.7953 22.8048 42.7374C22.4895 42.3294 22.1849 41.9015 21.8911 41.4546C21.8357 41.4761 21.7769 41.4877 21.7255 41.5225L19.7013 42.8714L17.6779 41.5225C17.3998 41.3363 17.0381 41.3363 16.7601 41.5225L14.7358 42.8714L12.7124 41.5225C12.4343 41.3363 12.0726 41.3363 11.7946 41.5225L9.3118 43.1776C9.22902 43.233 9.16536 43.3043 9.10986 43.3795C9.48889 43.7817 9.87871 44.1649 10.2809 44.5199L12.253 43.2057L14.2773 44.5547C14.5553 44.7409 14.917 44.7409 15.1951 44.5547L17.2185 43.2057L19.2427 44.5547C19.5209 44.7409 19.8826 44.7409 20.1606 44.5547Z" fill="#4381C0"/>
</svg>
