<svg width="64" height="64" viewBox="0 0 64 64" fill="none" xmlns="http://www.w3.org/2000/svg">
<path d="M52.2958 12.1016C48.5458 11.7266 44.8758 10.3466 41.3608 9.13206C38.1758 8.02706 35.0408 6.67656 32.1113 4.97656C29.1808 6.67656 26.0458 8.02706 22.8608 9.13206C19.3458 10.3466 15.6758 11.7266 11.9258 12.1016C12.0108 14.1766 12.0308 17.3821 12.0108 19.4621C12.0058 19.5471 11.9908 19.6121 11.9708 19.6721C12.7858 20.2021 13.4958 20.6766 14.2108 21.1621L14.2908 14.4666C19.0008 13.8416 27.2508 10.9666 32.0858 8.21656C35.2908 10.1721 43.6258 13.4221 49.9158 14.5071L49.9958 20.9316C50.6908 20.4716 51.3908 20.0071 52.2058 19.4766C52.1908 17.3966 52.2158 14.1566 52.2958 12.1016Z" fill="#FFC000"/>
<path d="M32.7859 24.9409C29.8509 24.9409 27.4659 22.5909 27.4659 19.6909C27.4659 16.7909 29.8509 14.4409 32.7859 14.4409C35.7259 14.4409 38.1059 16.7909 38.1059 19.6909C38.1059 22.5909 35.7259 24.9409 32.7859 24.9409ZM49.9159 14.5009C43.6259 13.4159 35.2909 10.1659 32.0859 8.21094C27.2509 10.9609 19.0009 13.8359 14.2909 14.4609L14.2109 21.1564C14.8709 21.6009 15.5409 22.0554 16.3159 22.5764C19.1359 24.4759 21.8159 26.2559 24.6159 28.3559C25.3759 27.8109 27.5909 27.3264 28.6009 27.2654C29.9409 27.1859 31.1459 27.4009 32.0954 27.8214C32.9809 27.4209 34.0704 27.1909 35.2754 27.2654C36.2859 27.3264 38.5009 27.8109 39.2604 28.3559C42.0609 26.2559 44.7409 24.4759 47.5609 22.5764C48.4654 21.9659 49.2259 21.4464 49.9959 20.9259L49.9159 14.5009Z" fill="#FFC000"/>
<path d="M32.7858 24.9453C29.8508 24.9453 27.4658 22.5953 27.4658 19.6953C27.4658 16.7953 29.8508 14.4453 32.7858 14.4453C35.7258 14.4453 38.1058 16.7953 38.1058 19.6953C38.1058 22.5953 35.7258 24.9453 32.7858 24.9453Z" fill="#FFC000"/>
<path d="M49.8804 35.2266C49.2454 44.6266 46.8404 45.6116 42.9154 48.9661C40.5454 50.9911 34.5004 54.4216 32.0854 55.6716C29.1254 54.2966 25.8754 52.4366 21.0404 48.8411C16.0754 45.1466 14.9104 42.4261 14.3604 35.3766C16.2654 36.5616 17.9654 37.7116 20.3854 39.2661C20.2304 39.4511 20.0804 39.6361 19.9354 39.8316C18.2454 42.1716 19.1254 44.7011 21.9504 44.5216C21.8604 45.4216 22.0254 46.3616 22.7354 46.9016C23.2054 47.2566 24.1104 47.3366 24.7704 47.2116C24.9654 47.1761 25.1654 47.1361 25.3454 47.0866C25.4054 47.9416 25.7854 48.5666 26.4254 48.9416C27.0304 49.2966 28.2004 49.2516 28.9109 48.8461C29.1404 49.5511 29.8104 49.9016 30.5204 49.9966C30.9154 50.0466 31.8554 49.9911 32.4954 49.7316C33.1204 49.9416 33.9354 49.9816 34.2954 49.9311C34.7154 49.8766 35.6954 49.5816 36.0904 48.8816C36.8104 49.1961 37.8354 49.2066 38.3909 48.8816C39.0654 48.4766 39.5204 47.8861 39.5004 47.0216C39.6704 47.0711 39.8554 47.1161 40.0454 47.1516C40.7009 47.2766 41.5759 47.1466 42.0759 46.8366C42.9054 46.3316 43.0604 45.3516 42.8954 44.4511C45.6904 44.6066 46.5604 42.0961 44.8754 39.7661C44.6609 39.4661 44.4204 39.1811 44.1754 38.9061C46.3909 37.4711 48.0304 36.3661 49.8804 35.2266Z" fill="#FFC000"/>
<path d="M52.2902 33.7266C52.2752 34.0416 52.2252 35.2366 52.2202 35.3116C51.9252 39.2161 51.3202 43.5016 49.3402 46.2916C46.0097 50.9816 37.3602 55.7716 32.1252 58.7716C26.4852 55.5816 18.2102 50.9816 14.8802 46.2916C12.6752 43.1916 12.1152 37.9966 11.8652 33.8211C12.3302 34.1166 12.7952 34.4116 13.2602 34.6916C13.6402 34.9216 14.0052 35.1466 14.3602 35.3716C14.9102 42.4216 16.0752 45.1416 21.0402 48.8366C25.8752 52.4316 29.1252 54.2916 32.0852 55.6666C34.5002 54.4166 40.5452 50.9866 42.9152 48.9616C46.8402 45.6066 49.2452 44.6216 49.8802 35.2216C50.1602 35.0416 50.4452 34.8666 50.7402 34.6916C51.2552 34.3816 51.7702 34.0566 52.2902 33.7266Z" fill="#FFC000"/>
<path d="M52.2189 35.3163C51.9259 39.2198 51.3219 43.5058 49.3399 46.2943C46.0089 50.9828 37.3629 55.7733 32.1249 58.7733C26.4879 55.5858 18.2129 50.9828 14.8814 46.2943C12.6774 43.1928 12.1149 38.0003 11.8644 33.8233C12.3304 34.1203 12.7949 34.4138 13.2594 34.6943C15.6469 36.1368 17.5114 37.4158 20.3854 39.2643C20.2299 39.4468 20.0784 39.6323 19.9374 39.8268C18.2434 42.1673 19.1274 44.6988 21.9524 44.5173C21.8589 45.4208 22.0264 46.3568 22.7379 46.8983C23.2074 47.2553 24.1129 47.3358 24.7694 47.2108C24.9664 47.1733 25.1644 47.1358 25.3449 47.0823C25.4034 47.9393 25.7839 48.5613 26.4254 48.9398C27.0294 49.2958 28.1999 49.2503 28.9109 48.8418C29.1404 49.5508 29.8084 49.8983 30.5194 49.9923C30.9144 50.0438 31.8534 49.9913 32.4949 49.7298C33.1209 49.9363 33.9339 49.9768 34.2944 49.9298C34.7169 49.8738 35.6969 49.5783 36.0929 48.8773C36.8089 49.1948 37.8369 49.2048 38.3884 48.8773C39.0664 48.4738 39.5194 47.8863 39.4984 47.0193C39.6719 47.0703 39.8549 47.1123 40.0444 47.1483C40.7009 47.2733 41.5734 47.1438 42.0759 46.8358C42.9039 46.3278 43.0619 45.3508 42.8954 44.4483C45.6879 44.6023 46.5619 42.0933 44.8759 39.7643C44.6589 39.4643 44.4219 39.1798 44.1764 38.9023C46.7329 37.2478 48.5169 36.0383 50.7419 34.6943C51.2564 34.3838 51.7709 34.0568 52.2889 33.7263C52.2734 34.0463 52.2249 35.2383 52.2189 35.3163ZM33.0769 45.2473C33.8249 45.7063 35.2379 46.7318 35.4879 47.8773C35.7284 48.9788 34.6929 49.3353 33.8364 49.2383C32.5944 49.0973 31.8289 47.4923 31.6359 47.1193C31.1874 46.2533 31.9489 44.5558 33.0769 45.2473ZM34.6229 43.1103C35.4059 42.1653 36.9154 43.5963 37.4049 44.0858C37.8989 44.5793 38.3159 45.1738 38.5654 45.8358C39.0919 47.2318 38.6399 48.0278 38.0759 48.2943C37.6354 48.5023 37.0994 48.5328 36.6384 48.3983C36.5379 48.3688 36.4044 48.3113 36.2664 48.2508C36.2709 47.9833 36.2019 47.6783 36.0304 47.3308C35.7854 46.8333 35.4904 46.3943 35.1504 46.0008C34.9384 45.7078 34.7474 45.4108 34.5679 45.0878C34.4564 44.8868 34.3619 44.6088 34.3119 44.3153C34.2764 43.8808 34.3364 43.4553 34.6229 43.1103ZM37.3934 41.0778C37.7689 40.0468 38.9304 40.4353 39.6754 40.9813C40.8154 41.8168 41.8964 43.1218 42.1339 44.1898C42.3424 45.1273 42.2794 45.7943 41.7589 46.2313C41.2804 46.6338 40.6599 46.5918 40.1069 46.4923C39.8354 46.4433 39.6189 46.3473 39.3759 46.2703C39.2629 45.8743 39.0714 45.4338 38.7794 44.9398C38.5674 44.5808 38.3024 44.2243 38.0184 43.8913C37.7779 43.3463 37.4789 42.8623 37.3439 42.2613C37.2519 41.8523 37.3454 41.4793 37.3934 41.0778ZM40.4229 37.7583C40.9039 37.4573 41.3834 37.5113 41.8399 37.7233C43.1164 38.9363 45.2489 40.7113 44.9829 42.1863C44.8659 42.8408 44.4899 43.7243 42.7329 43.8393C42.4584 43.0333 41.9879 42.3233 41.6544 41.9398C41.0919 41.2928 40.6319 40.7633 40.1054 40.3588C39.9099 39.4608 39.4664 38.3573 40.4229 37.7583ZM32.0934 27.8223C31.1444 27.4023 29.9419 27.1873 28.6009 27.2693C27.5889 27.3308 25.3754 27.8113 24.6164 28.3588C21.8144 26.2608 19.1334 24.4783 16.3164 22.5798C14.6979 21.4893 13.5349 20.6883 11.9694 19.6698C11.9909 19.6103 12.0069 19.5418 12.0129 19.4588C12.0289 17.3813 12.0084 14.1718 11.9274 12.0993C15.6769 11.7243 19.3444 10.3438 22.8614 9.12781C26.0474 8.02531 29.1814 6.67331 32.1109 4.97431C35.0404 6.67331 38.1739 8.02531 41.3599 9.12781C44.8769 10.3438 48.5444 11.7243 52.2939 12.0993C52.2134 14.1553 52.1929 17.3943 52.2079 19.4738C50.4844 20.5898 49.2814 21.4198 47.5599 22.5798C44.7429 24.4783 42.0619 26.2608 39.2599 28.3588C38.5004 27.8113 36.2874 27.3308 35.2754 27.2693C34.0714 27.1953 32.9789 27.4218 32.0934 27.8223ZM56.1754 30.4298C53.8954 31.8233 51.8874 33.0758 49.6209 34.5173C47.6889 35.7453 45.5369 37.2978 43.8324 38.5273C43.3834 38.0618 42.8994 37.6278 42.3824 37.2323C41.6349 36.6603 40.4814 36.9113 40.0874 37.2123C39.8279 37.4108 39.6454 37.6478 39.5149 37.9033C39.4604 37.9118 39.4049 37.9388 39.2904 37.9793C39.0999 38.0463 38.9774 38.2048 38.8874 38.3768C38.6779 38.7758 38.6619 39.2668 38.7934 39.7023C37.7789 39.4773 37.0944 40.0658 36.8054 40.9013C36.5229 40.9733 36.2869 41.2143 36.2309 41.5098C36.1824 41.7698 36.1474 42.1093 36.2234 42.3983C35.3569 42.0293 34.5589 42.1823 33.9694 42.9233C33.8999 43.0103 33.8489 43.1013 33.8044 43.1943C33.5634 43.3008 33.3499 43.5178 33.2294 43.7303C33.1029 43.9543 33.0909 44.2173 33.1184 44.4753C32.2884 44.2708 31.1724 44.7813 30.9304 45.6138C29.6999 45.8598 30.6404 48.4428 31.7224 49.1933C31.4719 49.2533 31.2144 49.2868 30.9774 49.3008C30.2114 49.3463 29.6469 49.2523 29.2489 48.5768C29.2789 48.5443 29.3169 48.5168 29.3424 48.4818C29.4459 48.3358 29.3139 48.1163 29.1754 48.1068C28.9549 48.0923 28.4469 48.3823 28.1754 48.4608C27.7149 48.5953 27.1779 48.5648 26.7379 48.3568C26.0789 48.0453 25.8624 47.5318 25.8124 46.8543C25.9109 46.7733 25.9879 46.6743 26.0299 46.5438C26.0854 46.3683 25.8224 46.2373 25.6679 46.2703C25.3204 46.3463 25.0609 46.4908 24.7069 46.5548C24.1539 46.6543 23.4519 46.6208 22.9734 46.2188C22.4919 45.8143 22.4419 45.0883 22.4184 44.4663C22.4354 44.4638 22.4504 44.4638 22.4674 44.4608C22.9674 44.3773 22.9254 43.9193 22.4674 43.9193C20.3689 43.9193 19.9564 42.9498 19.8304 42.2488C19.5414 40.6393 22.1089 38.6708 23.3019 37.4673C24.5729 36.1838 26.0434 35.0818 27.4539 33.9333C28.5279 33.8843 29.5079 33.8498 30.5939 34.0763C31.9064 34.3498 33.2369 34.9578 34.4939 35.4213C35.5719 35.8183 37.8724 36.0388 38.1949 34.5488C38.2959 34.4858 38.3944 34.4158 38.4879 34.3358C39.5739 33.4078 39.1799 32.3128 38.1519 31.7988C36.8899 31.1673 35.8994 30.8888 33.2589 28.5438C33.1334 28.4323 32.9969 28.3273 32.8504 28.2283C35.1139 27.5698 37.7829 28.3298 39.2009 28.8888C39.2664 28.9233 39.3389 28.9333 39.3944 28.8983C41.0504 27.8358 41.6914 27.3748 42.8004 26.6483C44.6129 25.4608 46.0234 24.5888 47.5819 23.6173C49.9274 22.1543 54.2379 19.3673 54.8749 18.4558C54.9869 18.2953 54.8224 18.0528 54.6169 18.1108C54.1234 18.2498 53.6184 18.5703 53.1924 18.8418C53.1004 18.9003 53.0194 18.9528 52.9299 19.0098C52.9254 16.8048 52.9139 13.8668 52.7944 12.0078C52.7924 11.8818 52.7529 11.8058 52.6984 11.7628C52.6664 11.7248 52.6249 11.6908 52.5649 11.6678C48.5434 11.0438 44.5234 9.76831 40.7544 8.35681C38.3864 7.47031 36.0799 6.37931 33.7814 5.32681C33.3544 5.13181 32.9334 4.89131 32.5139 4.64281C32.1479 4.40031 32.0799 4.40031 31.7079 4.64281C31.2884 4.89131 30.8674 5.13181 30.4399 5.32681C28.1419 6.37931 25.8349 7.47031 23.4669 8.35681C19.6979 9.76831 15.6779 11.0438 11.6564 11.6678C11.5959 11.6908 11.5554 11.7248 11.5234 11.7628C11.4689 11.8058 11.4289 11.8818 11.4269 12.0078C11.3024 13.9503 11.2954 17.0018 11.2914 19.2303C11.0939 19.1033 10.8969 18.9773 10.6839 18.8418C10.2579 18.5703 9.7529 18.2498 9.2594 18.1108C9.0539 18.0528 8.8894 18.2953 9.0014 18.4558C9.6384 19.3673 13.9489 22.1543 16.2944 23.6173C17.8529 24.5888 19.2634 25.4608 21.0759 26.6483C22.1849 27.3748 22.8259 27.8358 24.4819 28.8983C24.5369 28.9333 24.6099 28.9238 24.6754 28.8893C26.3749 28.2193 29.8764 27.2538 32.3169 28.8013C33.2504 29.4538 34.0179 30.3213 35.0249 30.8963C35.7034 31.2843 37.0859 31.9068 37.8329 32.3268C38.9299 32.9693 38.1669 33.9828 37.2539 34.1678C36.4254 34.3358 35.0059 34.0288 34.2174 33.7943C33.1519 33.5508 31.2644 32.5898 30.1754 32.7108C29.0504 32.8358 28.8319 32.9923 26.9349 33.0063C26.8189 33.0073 26.7664 33.1348 26.7834 33.2473C25.5154 34.2268 24.2109 35.1028 22.7904 35.8678C21.4959 36.5633 19.8454 37.2433 18.3769 37.1928C18.3574 37.1923 18.3419 37.1988 18.3279 37.2063C17.0439 36.2928 15.6629 35.3328 14.3804 34.5173C12.1139 33.0758 10.1059 31.8233 7.8259 30.4298C7.2634 30.0858 7.1384 30.6798 7.3884 30.8673C7.8659 31.2253 8.3699 31.6198 9.3259 32.2108C9.9734 32.6113 10.6054 33.0178 11.2314 33.4193C11.2769 37.7318 11.7059 43.0628 13.8839 46.2943C17.3629 51.4568 26.4489 56.7978 31.6729 59.4013C32.0319 59.5953 32.1874 59.5953 32.5484 59.4013C37.7724 56.7978 46.8584 51.4568 50.3379 46.2943C52.3189 43.3553 52.8064 39.2938 52.9189 35.2528C52.9214 35.1733 52.9689 33.6198 52.9784 33.2858C53.5364 32.9278 54.0994 32.5668 54.6754 32.2108C55.6314 31.6198 56.1354 31.2253 56.6129 30.8673C56.8629 30.6798 56.7379 30.0858 56.1754 30.4298Z" fill="#356799"/>
<path d="M49.5498 36.3795C49.2518 39.364 48.7758 42.415 47.2538 44.5555C44.4768 48.465 37.5133 52.4425 32.9053 55.0745L32.1193 55.524L31.6648 55.2675C26.6618 52.44 19.8088 48.5675 16.9573 44.5555C15.5433 42.565 15.0553 39.705 14.7163 36.7125C14.6568 36.123 14.1468 36.244 14.1923 36.5905C14.4813 40.119 15.1893 42.6855 16.3343 44.3845C19.8863 49.6555 29.8328 54.7895 31.7958 55.7675C31.9403 55.846 32.0273 55.876 32.1053 55.876C32.1838 55.876 32.2703 55.846 32.4208 55.765C34.3788 54.7895 44.3253 49.6555 47.8778 44.3845C49.3938 42.1355 49.8758 39.162 50.0413 36.316C50.0573 35.9315 49.5933 35.9645 49.5498 36.3795Z" fill="#356799"/>
<path d="M40.1723 12.0536C43.2398 13.1146 46.4383 14.3186 49.7083 14.6456C49.7108 16.7971 49.7318 17.7236 49.7453 19.5356C49.7908 20.1541 50.2723 20.0136 50.2638 19.5011C50.2598 17.5466 50.2558 16.3011 50.1448 14.5651C50.1428 14.4561 50.1088 14.3896 50.0608 14.3521C50.0328 14.3191 49.9968 14.2896 49.9448 14.2696C46.4373 13.7251 42.9318 12.6126 39.6443 11.3816C37.5788 10.6081 35.5673 9.65713 33.5628 8.73963C33.1903 8.56913 32.8233 8.35913 32.4573 8.14263C32.1388 7.93163 32.0788 7.93163 31.7548 8.14263C31.3888 8.35913 31.0213 8.56913 30.6493 8.73963C28.6443 9.65713 26.6328 10.6081 24.5678 11.3816C21.2803 12.6126 17.7748 13.7251 14.2673 14.2696C14.2148 14.2896 14.1793 14.3191 14.1513 14.3521C14.1038 14.3896 14.0688 14.4561 14.0673 14.5651C13.9563 16.3011 13.9523 17.9656 13.9483 19.9196C13.9393 20.4326 14.5333 20.5906 14.5783 19.9726C14.5923 18.1611 14.5743 16.4531 14.5033 14.6456C17.7738 14.3186 20.9723 13.1146 24.0393 12.0536C26.8183 11.0926 29.5513 9.91363 32.1058 8.43213C34.6613 9.91363 37.3938 11.0926 40.1723 12.0536Z" fill="#356799"/>
<path d="M35.9519 24.3109C36.0809 24.2334 36.1844 24.1234 36.3044 24.0339C36.6539 23.7754 36.9354 23.4404 37.2069 23.1044C37.3659 22.8799 37.5249 22.6524 37.6374 22.4004C37.7449 22.1689 37.8689 21.9419 37.9344 21.6934C37.9804 21.5089 38.0729 21.3379 38.1014 21.1484C38.2029 20.7399 38.2664 20.3239 38.3204 19.9079C38.3324 19.7174 38.2904 19.5294 38.2794 19.3399C38.2724 19.1884 38.2454 19.0389 38.2139 18.8904C38.1074 18.5204 37.9989 18.1484 37.8464 17.7939C38.0799 17.5284 38.2994 17.2744 38.5344 17.0184C39.0744 16.4309 39.5214 15.9649 39.9959 15.3149C40.0904 15.1854 39.8894 15.0134 39.7704 15.1344C39.0814 15.8344 38.2734 16.4864 37.5454 17.1384C37.5079 17.0719 37.4724 17.0049 37.4344 16.9389C37.3329 16.7859 37.2409 16.6249 37.1169 16.4889C36.9974 16.3449 36.9364 16.2504 36.7934 16.1284C36.6814 16.0299 36.5774 15.9109 36.4374 15.8539C36.2394 15.8354 36.8169 16.3329 37.3269 17.3334C36.6139 17.9859 35.8834 18.5644 35.0594 19.3074C34.6264 19.6974 33.5604 20.5624 32.5614 21.4189C32.4744 21.3474 32.3409 21.2474 32.2529 21.1774C31.7129 20.7519 31.4734 20.5319 31.0389 20.1139C30.6199 19.7119 30.0544 19.1924 29.6669 18.7589C29.5089 18.5824 29.0474 18.1734 28.8674 18.0174C28.7909 17.9509 28.6864 17.9244 28.6314 18.0134C28.6119 18.0459 28.5984 18.0779 28.5859 18.1129C28.5649 18.1699 28.5934 18.2324 28.6269 18.2794C29.2654 19.1769 29.7319 19.8144 30.3079 20.5319C30.9084 21.2799 31.4784 21.9814 32.2144 22.5944C32.5109 22.8409 32.9184 22.6914 33.1084 22.5049C34.5354 21.1009 35.5639 20.0964 36.6784 19.0264C37.0569 18.6624 37.3594 18.3389 37.6329 18.0334C37.7074 18.2364 37.7749 18.4529 37.8309 18.6834C38.0864 19.7319 37.9549 20.8364 37.4904 21.9359C37.3804 22.1964 36.7469 23.1434 35.7639 23.8544C35.6489 23.9399 35.5144 23.9944 35.3944 24.0729C35.1709 24.2174 34.9204 24.3094 34.6769 24.4129C34.2859 24.5674 33.8679 24.6399 33.4539 24.7019C33.1494 24.7614 32.8384 24.8064 32.5279 24.7774C32.0959 24.7664 31.6784 24.6424 31.2624 24.5389C30.7379 24.3574 30.2124 24.1444 29.7734 23.7979C29.3774 23.4969 29.0059 23.1584 28.7069 22.7599C28.4949 22.4959 28.3504 22.1874 28.1994 21.8854C28.0429 21.5214 27.9489 21.1354 27.8634 20.7499C27.7979 20.4979 27.7789 20.2369 27.7479 19.9784C27.7524 19.8214 27.7604 19.6649 27.7749 19.5079C27.7779 19.0009 27.9009 18.5009 28.0714 18.0264C28.1884 17.7839 28.2694 17.5264 28.3999 17.2919C28.6239 16.8629 29.5614 15.0289 32.3334 14.6879C34.8114 14.6259 36.0964 15.7254 36.0159 15.4859C35.9724 15.3539 35.7254 15.1919 35.5604 15.0689C35.2439 14.8944 34.9179 14.7324 34.5734 14.6219C34.1164 14.4724 33.6429 14.3604 33.1599 14.3544C32.8974 14.3289 32.6314 14.3309 32.3689 14.3539C32.1064 14.3594 31.8444 14.3964 31.5894 14.4619C31.2089 14.5449 30.8334 14.6559 30.4764 14.8134C30.1844 14.9299 29.9284 15.1159 29.6619 15.2794C29.3979 15.4509 29.1219 15.6154 28.9099 15.8534C28.6689 16.0469 28.4969 16.3084 28.2964 16.5409C28.1389 16.7499 27.9994 16.9744 27.8924 17.2149C27.7049 17.6179 27.5084 18.0254 27.4289 18.4669C27.3609 18.7919 27.2944 19.1209 27.2924 19.4549C27.2679 19.8219 27.2689 20.1949 27.3489 20.5554C27.4004 20.7999 27.4369 21.0484 27.5044 21.2889C27.6704 21.9784 27.9824 22.6374 28.4419 23.1799C28.7624 23.5664 29.1219 23.9229 29.5244 24.2234C29.7684 24.3889 30.0299 24.5274 30.2994 24.6474C30.7024 24.8524 31.1314 25.0039 31.5709 25.1074C32.0269 25.2089 32.4959 25.2349 32.9619 25.2354C33.2389 25.2314 33.5124 25.1784 33.7869 25.1454C34.0259 25.0864 34.2669 25.0299 34.5039 24.9639C35.0084 24.8004 35.4969 24.5839 35.9519 24.3109Z" fill="#356799"/>
</svg>
