<svg width="92" height="92" viewBox="0 0 92 92" fill="none" xmlns="http://www.w3.org/2000/svg">
<circle cx="46" cy="45.75" r="40" fill="#FFF7E6"/>
<g clip-path="url(#clip0_1995_223901)">
<path d="M27.1762 75.2868C27.0395 76.0224 26.8467 76.8656 26.1649 77.2941C25.0278 78.1552 23.0791 76.9687 23.44 75.5403C23.6352 74.6834 24.0679 73.7439 24.9336 73.394C26.129 72.7413 27.3197 74.1475 27.1762 75.2868ZM44.2135 46.7362C44.1842 47.4984 44.2808 48.3261 43.8143 48.9899C42.6413 50.99 40.2509 51.8356 38.0418 51.9657C37.2007 51.9525 36.2815 51.8404 35.6153 51.2818C35.1264 50.7349 35.0702 49.9025 35.4021 49.2614C35.5908 48.8978 35.6356 48.3461 36.0952 48.225C37.2993 47.8082 38.5462 47.5187 39.7686 47.1554C40.9796 46.7852 42.2959 46.7317 43.4196 46.1035C43.8995 45.8299 44.4264 45.6415 44.8928 45.3431C45.4939 44.8165 45.9313 44.1279 46.3395 43.4464C47.3756 41.7531 45.9582 39.378 44.1127 39.0527C44.2428 39.526 44.8145 39.6516 45.0364 40.0711C45.3683 40.6853 45.6712 41.385 45.5635 42.0982C45.252 43.3343 44.6261 44.644 43.404 45.1998C41.0804 46.3008 38.452 46.7269 35.8979 46.5027C35.1847 46.3998 34.7945 45.6618 34.7831 44.998C34.6734 43.935 35.0343 42.8296 35.7657 42.0512C36.8735 41.3898 38.1046 40.9613 39.2618 40.3938C40.0512 39.9722 40.9976 39.9656 41.7532 39.4743C39.8111 39.6313 37.8669 39.9677 36.0435 40.6695C34.9649 40.5197 33.7943 39.7102 33.8033 38.5145C33.6576 37.528 33.7808 36.2001 34.8169 35.745C36.4651 35.007 38.0576 34.1458 39.7821 33.6034C37.7392 33.6593 35.7164 34.1659 33.7967 34.8503C32.5226 34.6126 31.7556 33.2425 32.0047 32.0091C32.1368 30.5083 33.5273 29.6899 34.3525 28.591C33.117 29.0124 32.1796 29.9994 31.0673 30.6539C30.8092 30.6429 30.5539 30.616 30.3003 30.5735C30.399 29.4881 30.5311 28.4071 30.6433 27.3217C30.9417 23.9129 30.1029 20.4997 28.6566 17.4273C27.9432 15.7992 25.972 14.7409 24.2363 15.2427C23.3506 15.7809 23.3144 16.9608 23.1263 17.8806C23.0342 20.3493 22.9804 22.8251 22.9804 25.2989C22.9759 26.8687 22.7469 28.4227 22.6305 29.9859C22.4691 33.4913 21.5251 36.9246 20.2196 40.1674C18.078 45.8502 16.0507 51.6628 15.4138 57.7316C15.9341 56.8321 16.127 55.7984 16.5058 54.8431C17.3176 52.4169 18.0891 49.9787 18.8606 47.5411C20.1882 43.4886 21.8905 39.5506 22.8055 35.3748C23.6083 33.1232 23.6376 30.7126 24.0165 28.3778C24.3867 25.864 24.2004 23.3233 24.1959 20.796C24.189 19.1921 23.7991 17.5843 24.0592 15.9875C25.4248 15.7429 26.8939 16.4133 27.5194 17.6695C28.9658 20.4055 29.4302 23.5652 29.3763 26.631C29.3091 28.257 29.4167 29.8828 29.3336 31.5088C30.7264 32.5401 31.3433 34.2158 31.7963 35.8233C32.4511 37.6243 32.5943 39.5482 32.7806 41.4388C32.7627 42.4594 32.6595 43.4955 32.3432 44.4688C31.6169 46.3122 30.3517 47.8662 29.3763 49.5753C29.0175 50.1943 28.4996 50.6966 28.1091 51.2929C29.4481 50.2816 30.834 49.2904 31.8857 47.9625C32.6506 49.4539 33.3616 51.1245 32.8996 52.8295C32.5339 53.9771 32.3007 55.4193 31.1166 56.0182C29.4771 56.9712 27.4477 57.3189 25.6043 56.8052C24.9605 56.6037 24.3729 56.2538 23.7228 56.0741C24.0679 57.0564 25.0505 57.5522 25.5415 58.4313C26.1245 59.3977 26.6179 60.4137 27.0509 61.4564C25.0212 60.853 22.958 60.3644 20.9576 59.6713C19.6817 59.2296 18.3382 59.0634 17.0082 58.8643C15.8958 58.6176 14.8083 58.2653 13.696 58.0234C13.1846 59.7389 12.5567 61.4612 12.5612 63.2777C13.4313 62.1023 13.5145 60.5773 13.9696 59.2296C15.1244 59.6578 16.3491 59.8307 17.5377 60.1357C19.5492 60.7657 21.5696 61.396 23.4848 62.2886C26.1515 63.374 28.8336 64.5378 31.1301 66.3053C30.715 67.507 30.2351 68.7004 30.0557 69.9673C25.7499 68.2178 21.247 67.0453 16.8311 65.6187C14.7972 64.9818 12.781 64.2645 10.6977 63.8046C9.7065 67.2134 8.96166 70.6846 8.1902 74.1496C7.59157 76.2849 7.23065 78.4734 6.83595 80.6532C6.34019 83.3668 5.54391 86.0154 5.01017 88.7221C4.9384 89.801 4.48988 90.8526 4.62474 91.9401C8.13458 91.9691 12.7227 91.9494 15.4114 91.9401C18.4034 91.9222 21.3938 92.0819 24.3843 91.9401C25.8761 91.8696 26.574 91.9691 28.2281 91.9401C28.9727 88.5786 29.6096 85.253 30.2755 81.8756C30.9148 78.2491 31.6704 74.6409 32.1682 70.9947C31.8253 70.795 31.4709 70.6176 31.1097 70.4586C31.2311 68.8439 32.0968 67.3682 32.1303 65.7578C31.5023 65.0649 30.6412 64.6278 29.8856 64.0892C30.3969 62.0443 30.7398 59.9697 30.9527 57.873C31.9712 57.4356 32.9666 56.9467 33.8774 56.3119C35.2496 55.5207 36.2026 54.2217 37.349 53.1587C39.8607 53.5155 42.8186 52.7619 44.209 50.4835C44.9894 49.3956 44.947 47.8327 44.2135 46.7362Z" fill="#356799"/>
<path d="M39.4179 25.1924C40.5302 25.3404 41.8196 25.3649 42.6514 26.2306C43.3783 27.139 43.1765 28.4307 42.7124 29.4127C42.3333 29.886 41.7412 30.1217 41.3127 30.5475C42.0866 30.644 42.9657 30.3591 43.6495 30.8528C44.3944 31.3778 45.0289 32.1669 45.1769 33.0843C45.0468 34.0439 44.8471 34.9995 44.6432 35.9501C45.0358 35.553 45.4795 35.2124 45.8676 34.8108C46.5338 34.0935 46.704 32.9518 46.2265 32.0883C45.742 31.1129 44.8429 30.4377 43.9031 29.9378C44.2595 28.951 44.6318 27.8791 44.2978 26.8316C44.0266 25.5961 42.8536 24.7549 41.6422 24.6024C39.9157 24.4434 38.191 24.7032 36.5091 25.0644C36.2154 25.1206 35.9553 25.2686 35.7041 25.4167C36.9465 25.4143 38.1686 25.0127 39.4179 25.1924Z" fill="#356799"/>
<path d="M63.531 74.1273C63.9319 73.5942 64.4903 73.1901 64.8301 72.6091C63.37 73.2585 61.9692 74.1863 60.3243 74.2601C59.0991 74.2803 57.748 74.1974 56.7281 73.4501C56.2346 72.552 55.8336 71.5041 56.0717 70.4671C56.3398 68.9563 56.8814 67.4786 57.7 66.1759C58.4838 64.901 59.7477 64.0563 60.7792 63.0028C61.0064 64.702 61.3317 66.4064 62.0024 67.9932C62.2558 68.5706 62.4662 69.2108 62.9765 69.6241C62.958 69.0264 62.74 68.4581 62.7306 67.8641C62.751 65.4788 62.945 63.0158 63.9967 60.8352C64.4863 59.7354 65.2886 58.8223 66.0907 57.9405C66.815 57.1159 67.9514 56.7081 68.4672 55.6934C68.924 54.5663 69.3415 53.4205 69.8959 52.3394C70.8646 50.8749 71.6403 49.2108 73.1025 48.1479C73.8563 47.4506 74.9637 47.1997 75.9575 47.4324C76.4494 47.6592 77.0962 48.2512 76.7579 48.8418C76.0943 50.2233 75.0795 51.4003 74.4164 52.7825C73.4904 54.4519 72.986 56.3005 72.5846 58.1527C72.2337 59.3851 72.0249 60.6598 72.0861 61.9458C72.1671 63.5914 71.9969 65.2589 71.4685 66.827C70.9974 68.3716 70.0014 69.6664 69.3893 71.1499C69.7407 71.0004 70.0955 70.8525 70.4521 70.7052C70.5132 70.9246 70.5795 71.144 70.6499 71.3656C68.3415 72.4337 66.1129 73.8415 63.531 74.1273ZM84.9949 86.1558C83.6514 82.992 82.0083 79.9479 80.018 77.142C79.122 75.8728 77.6006 75.0792 76.041 75.0903C75.028 73.6218 74.0488 72.1274 72.9601 70.7143C72.5239 70.1185 71.8732 70.672 71.4262 70.9413C71.2596 70.7123 71.0918 70.4875 70.9272 70.2624C72.5092 68.3029 73.0488 65.6999 73.0303 63.2335C73.0466 61.9327 72.6812 60.6155 73.0118 59.3317C73.0875 58.3943 73.655 57.6027 73.9026 56.7081C74.5032 54.83 75.4014 53.0737 76.2645 51.308C76.6803 50.4137 77.4715 49.6902 77.5582 48.6573C77.7724 47.8899 77.2588 47.0779 76.5102 46.8639C75.5458 46.6056 74.5219 46.8196 73.6087 47.1758C72.5572 47.4747 71.7756 48.2901 71.1157 49.1163C69.6502 50.8914 68.8442 53.0811 67.5505 54.9665C67.1957 55.2322 66.7152 55.2674 66.3031 55.4019C65.66 55.642 65.0447 55.1087 64.6896 54.6254C64.0982 53.2766 63.3535 51.9909 62.4775 50.8065C62.5384 51.1272 62.6421 51.4394 62.8065 51.7252C63.5847 53.0958 64.0115 54.7931 63.5329 56.3354C63.4422 56.7137 63.0226 56.8707 62.6939 56.9831C61.8548 57.0308 60.8953 56.8963 60.3465 56.1918C59.347 55.0108 58.4523 53.7396 57.6556 52.415C57.0992 51.5316 57.0551 50.4614 57.0182 49.4487C57.4097 49.1001 57.7833 48.7218 58.2231 48.4269C58.8646 47.9782 59.7053 48.1755 60.3891 48.419C60.862 48.742 61.1821 49.244 61.6572 49.5741C61.1853 48.6406 60.5717 47.5908 59.4799 47.3214C58.6721 47.0614 57.8274 47.4599 57.2399 47.9986C56.3048 48.7124 56.6059 50.0262 56.5303 51.0463C55.5434 50.3416 54.1164 49.8654 53.0188 50.6033C52.25 51.0594 51.8602 51.9077 51.7729 52.7694C52.4644 52.1791 53.1558 51.5075 54.0353 51.2158C54.948 51.1533 55.8428 51.5388 56.6357 51.9574C57.5095 53.7251 58.5706 55.4019 59.6536 57.0532C60.0304 57.6637 60.0602 58.4145 60.0582 59.1121C59.7088 59.649 59.1839 60.1358 58.5686 60.3538C57.5374 60.5474 56.373 60.4054 55.5877 59.6545C54.3344 58.5126 53.3552 57.0643 52.7399 55.487C52.4976 54.8984 52.4257 54.2416 52.0575 53.7101C52.0137 54.0163 51.9802 54.3226 51.9545 54.6308C51.1244 54.3818 50.1707 54.2453 49.4036 54.7471C48.5946 55.1272 48.332 56.0275 48.0917 56.8114C48.6774 56.0368 49.6143 55.6622 50.5238 55.413C51.1391 55.3744 51.7769 55.5994 52.3015 55.9057C53.1095 57.5439 53.8303 59.3204 55.2252 60.5638C56.0608 61.2669 55.9443 62.5565 55.5414 63.464C55.1607 64.2814 54.1496 64.6225 53.3219 64.3202C52.4294 64.0081 51.7268 63.3329 51.0522 62.6985C49.7661 61.3498 48.5776 59.7467 48.3487 57.8462C47.9234 58.4093 48.3559 59.2134 48.43 59.8537C47.1435 59.5622 45.9311 60.6839 45.9442 61.9551C45.8498 62.9031 46.4693 63.6854 46.9698 64.4253C46.6834 63.4015 46.6519 62.2574 47.0661 61.2669C47.3342 60.6617 48.038 60.6064 48.6109 60.7205C49.5421 62.455 50.6884 64.1945 52.4607 65.1649C52.6248 65.2904 52.9762 65.3698 52.8892 65.652C52.8303 66.2812 52.7547 67.211 51.9856 67.3475C51.0817 67.4767 50.1577 67.1869 49.3672 66.7663C48.672 66.4084 48.2876 65.6928 47.6758 65.2333C47.9328 66.0765 48.6279 66.678 49.2134 67.2993C49.7644 67.8789 50.5847 68.0077 51.2665 68.3548C52.1963 70.0095 53.4086 71.5041 54.7358 72.86C55.9872 74.1642 57.7241 74.9907 59.539 75.0497C59.8123 75.6216 60.0934 76.1881 60.4204 76.7325C60.1284 77.0682 59.8219 77.4776 59.9954 77.9481C60.4244 79.4904 61.5958 80.6876 62.0283 82.2339C61.6976 82.8166 61.5404 83.4938 61.7309 84.1525C62.1426 85.8183 62.8045 87.4142 63.5494 88.9583C63.943 89.8086 64.4038 90.766 65.4013 90.9893C65.1869 90.519 64.9225 90.0706 64.786 89.5688C64.2347 87.6816 63.2444 85.962 62.651 84.0895C62.5512 83.6819 62.6752 83.2613 62.7047 82.8537C62.997 82.8884 63.2944 82.9258 63.5938 82.9661C62.9063 82.3795 62.5349 81.5326 62.2168 80.7098C61.7826 79.6102 61.1321 78.612 60.6903 77.5164C61.2262 77.1438 61.8105 76.8542 62.4167 76.6124C63.8156 75.9407 65.1425 75.1218 66.5488 74.4576C68.5818 73.5204 70.6258 72.6017 72.6124 71.5686C73.1116 72.3213 73.5737 73.0996 74.0727 73.8545C74.5069 74.5277 75.0837 75.0977 75.4736 75.8024C75.2409 76.3431 74.893 76.8171 74.4773 77.2284C73.3517 75.9483 72.487 74.463 71.354 73.1918C71.526 73.8434 71.9656 74.3747 72.1896 75.0054C72.5683 76.0277 73.1432 76.9612 73.7196 77.8837C73.2689 78.3668 72.7716 78.8041 72.278 79.2395C71.4779 78.2101 70.8086 77.0864 70.0159 76.0514C69.5209 75.4482 69.2562 74.6456 68.6187 74.1733C68.7666 74.6456 69.0236 75.0721 69.2841 75.4908C70.1768 76.8542 70.6943 78.4204 71.6312 79.7615C70.9641 80.1988 70.2971 80.6414 69.5911 81.0123C69.2767 80.5568 68.9514 80.1101 68.5818 79.6988C67.4657 78.5365 66.7524 77.0294 65.5232 75.9721C65.8778 76.8855 66.6765 77.5349 67.0776 78.4275C67.5653 79.4774 68.1826 80.4606 68.8422 81.4108C68.1086 81.706 67.3694 81.981 66.621 82.2262C65.8948 81.3407 65.2497 80.3944 64.525 79.5069C63.9262 78.7358 63.4459 77.8741 62.7789 77.1605C62.8861 77.4721 63.0152 77.7818 63.1926 78.0645C64.1221 79.4774 64.9207 80.9717 65.7246 82.4587C65.3421 82.5344 64.9097 82.5106 64.6287 82.8257C66.1624 82.9494 67.6764 82.4791 69.0901 81.9256C70.6297 81.2669 72.2448 80.6805 73.5217 79.5566C74.7639 78.5016 76.2626 77.4906 76.6692 75.81C77.6322 76.1992 78.5414 76.7785 79.1348 77.6529C80.345 79.4388 81.4556 81.2967 82.4154 83.2301C83.0915 84.5193 83.6775 85.8626 84.4646 87.0932C84.9638 87.8661 86.0986 89.8657 86.3277 89.9747C86.3792 89.8677 86.4628 89.2399 86.119 88.5278C85.7642 87.7751 85.2149 86.9715 84.9949 86.1558Z" fill="#356799"/>
<path fill-rule="evenodd" clip-rule="evenodd" d="M25.6631 10.9603C25.3059 10.8601 25.0937 10.4886 25.1891 10.1305C25.4886 9.00689 25.8857 7.19242 26.0994 5.42049C26.2063 4.53446 26.2656 3.67351 26.2474 2.92254C26.229 2.15731 26.1309 1.56861 25.9653 1.18921C25.8161 0.847265 25.9694 0.45163 26.3077 0.305535C26.646 0.159441 27.0412 0.318209 27.1904 0.660156C27.462 1.28248 27.5661 2.08125 27.586 2.90545C27.6063 3.74393 27.5401 4.67438 27.4287 5.59793C27.2058 7.44516 26.7948 9.32257 26.4827 10.4932C26.3873 10.8513 26.0203 11.0604 25.6631 10.9603Z" fill="#FFC000"/>
<path fill-rule="evenodd" clip-rule="evenodd" d="M75.6016 42.7572C75.9588 42.657 76.171 42.2855 76.0755 41.9274C75.776 40.8038 75.379 38.9893 75.1652 37.2174C75.0583 36.3313 74.9991 35.4704 75.0172 34.7194C75.0357 33.9542 75.1338 33.3655 75.2993 32.9861C75.4485 32.6441 75.2952 32.2485 74.9569 32.1024C74.6186 31.9563 74.2234 32.1151 74.0742 32.457C73.8027 33.0794 73.6985 33.8781 73.6786 34.7023C73.6584 35.5408 73.7245 36.4713 73.836 37.3948C74.0588 39.242 74.4699 41.1194 74.7819 42.2901C74.8774 42.6482 75.2443 42.8573 75.6016 42.7572Z" fill="#FFC000"/>
<path fill-rule="evenodd" clip-rule="evenodd" d="M21.7424 12.4521C21.4325 12.4936 21.1041 12.2422 21.0089 11.8908C20.7418 10.9051 19.1404 7.89947 14.8788 5.12114C14.5804 4.92658 14.4411 4.52924 14.5677 4.23366C14.6943 3.93807 15.0389 3.85617 15.3373 4.05073C19.8262 6.97725 21.7362 10.2836 22.131 11.7408C22.2263 12.0923 22.0523 12.4107 21.7424 12.4521Z" fill="#FFC000"/>
<path fill-rule="evenodd" clip-rule="evenodd" d="M79.5232 44.249C79.8331 44.2904 80.1615 44.0391 80.2567 43.6877C80.5238 42.702 82.1252 39.6963 86.3868 36.918C86.6852 36.7235 86.8245 36.3261 86.6979 36.0305C86.5713 35.7349 86.2267 35.653 85.9283 35.8476C81.4394 38.7741 79.5294 42.0805 79.1346 43.5377C79.0393 43.8892 79.2134 44.2076 79.5232 44.249Z" fill="#FFC000"/>
<path fill-rule="evenodd" clip-rule="evenodd" d="M20.267 14.4927C20.1049 14.8107 19.7152 14.9247 19.3966 14.7473C18.6582 14.3362 17.5084 13.6754 16.4548 13.0269C15.9283 12.7029 15.4204 12.3786 14.9978 12.088C14.5901 11.8078 14.2155 11.5279 13.9913 11.2959C13.7358 11.0315 13.7313 10.6141 13.9813 10.3637C14.2313 10.1133 14.641 10.1246 14.8966 10.389C15.0135 10.5101 15.2823 10.721 15.6935 11.0037C16.0897 11.2761 16.5761 11.5871 17.0928 11.9051C18.1256 12.5407 19.2577 13.1914 19.9837 13.5956C20.3023 13.773 20.4291 14.1747 20.267 14.4927Z" fill="#FFC000"/>
<path fill-rule="evenodd" clip-rule="evenodd" d="M80.9977 46.2817C81.1598 46.5998 81.5495 46.7138 81.8681 46.5364C82.6064 46.1252 83.7562 45.4645 84.8099 44.816C85.3363 44.492 85.8442 44.1677 86.2669 43.8771C86.6745 43.5968 87.0491 43.317 87.2734 43.0849C87.5289 42.8205 87.5334 42.4032 87.2834 42.1528C87.0334 41.9024 86.6236 41.9137 86.3681 42.1781C86.2511 42.2992 85.9824 42.5101 85.5712 42.7928C85.175 43.0652 84.6885 43.3761 84.1718 43.6941C83.1391 44.3298 82.007 44.9804 81.281 45.3847C80.9624 45.5621 80.8356 45.9637 80.9977 46.2817Z" fill="#FFC000"/>
</g>
<defs>
<clipPath id="clip0_1995_223901">
<rect width="92" height="92" fill="white"/>
</clipPath>
</defs>
</svg>
