<svg width="48" height="48" viewBox="0 0 48 48" fill="none" xmlns="http://www.w3.org/2000/svg">
<path d="M40.5525 23.9966C40.5525 33.5949 36.4766 41.3758 31.4491 41.3758C26.4216 41.3758 22.3457 33.5949 22.3457 23.9966C22.3457 14.3982 26.4215 6.61719 31.449 6.61719C36.4765 6.61719 40.5525 14.3982 40.5525 23.9966Z" fill="#AEC8E3"/>
<path d="M23.4493 13.3203C22.2435 16.2682 21.5186 19.9675 21.5186 23.9978C21.5186 28.0273 22.2435 31.7275 23.4493 34.6753C25.2327 32.9175 26.4841 28.7986 26.4841 23.9978C26.484 19.197 25.2327 15.0781 23.4493 13.3203Z" fill="white"/>
<path d="M30.6647 47.9669C22.8027 47.3107 16.5527 36.8317 16.5527 24C16.5527 11.1617 22.8093 0.710906 30.678 0.0347812C30.3859 0.012375 30.0904 0 29.7942 0H18.208C9.06644 0 1.65625 10.7453 1.65625 24C1.65625 37.2554 9.06644 48 18.208 48H29.7942C30.5274 48 31.2482 47.9239 31.9566 47.7898C31.5304 47.8701 31.101 47.9338 30.6647 47.9669Z" fill="#D1E0EF"/>
<path d="M31.4492 41.3758C26.4216 41.3758 22.3458 33.5949 22.3458 23.9966C22.3458 14.3982 26.4217 6.61719 31.4492 6.61719C36.4768 6.61719 40.5526 14.3982 40.5526 23.9965C40.5526 33.5948 36.4769 41.3758 31.4492 41.3758ZM46.3433 23.8476C46.2895 11.0911 39.3742 0.695 30.6788 0.03125C22.8101 0.707375 16.5527 11.1573 16.5527 23.9965C16.5527 36.8274 22.8027 47.3063 30.6647 47.9634C38.2851 47.3907 44.5409 39.3457 46.0156 28.7849C46.2176 27.2373 46.3309 25.636 46.3442 23.9966C46.3441 23.946 46.3433 23.898 46.3433 23.8476Z" fill="#4381C0"/>
</svg>
