<svg width="324" height="142" viewBox="0 0 324 142" fill="none" xmlns="http://www.w3.org/2000/svg">
<path d="M174.798 38.5616C175.35 40.8772 175.16 43.1615 174.817 45.3822C173.96 50.0355 173.371 54.8201 172.072 59.3628C170.74 61.826 168.507 60.0255 167.769 58.1209C165.14 54.0168 163.149 49.5094 160.164 45.67C155.692 50.0456 151.23 54.3887 146.739 58.7381C146.184 59.2741 145.582 59.7728 144.952 60.2177C143.49 61.4373 141.207 59.8634 141.919 58.0835C144.013 52.2262 147.264 46.876 149.148 40.935C145.05 38.5297 140.945 36.3025 136.842 33.9261C134.474 32.8506 132.123 29.832 135.3 28.1284C139.339 26.5051 143.897 26.6363 148.133 25.7489C150.985 25.2094 151.187 24.9239 151.792 22.1175C152.688 18.7269 153.141 15.11 154.68 11.9397C156.472 8.96109 159.211 11.3001 160.061 13.6914C161.584 16.6976 162.993 19.7649 164.594 22.7288C166.364 26.0077 166.502 26.0237 170.226 25.5416C173.458 25.5624 187.408 21.8126 188.146 25.1157C189.279 27.4076 184.313 30.2036 182.907 31.7794C180.256 34.036 177.567 36.2496 174.798 38.5616Z" fill="#FFC000"/>
<path d="M221.339 34.2853C216.501 32.4211 211.66 30.7983 206.76 29.1498C203.638 28.238 201.16 30.3657 202.593 33.5548C204.312 36.9155 205.897 40.3307 207.173 43.8918C209.081 48.1442 200.778 50.1371 200.128 54.9177C199.681 56.9351 201.078 58.5327 202.968 58.3697C208.042 58.2282 213.015 56.6079 218.095 57.3335C219.992 57.7722 221.032 58.7105 221.616 60.6537C223.06 64.5035 226.158 76.174 231.61 74.422C234.842 73.2656 233.685 68.9176 234.271 66.2439C234.88 62.4131 234.721 58.3581 235.98 54.6781C236.342 53.8729 236.95 53.5738 237.91 53.6461C240.511 53.8428 243.123 53.9127 245.732 54.0083C248.699 54.3368 250.672 50.5201 248.563 48.3771C247.312 46.9725 246.071 45.4521 244.526 44.4379C240.935 42.0804 239.89 38.2312 238.469 34.6413C238.175 31.4234 239.265 27.6466 238.875 24.3037C238.637 20.7824 235.578 19.387 232.821 21.6275C230.926 23.1663 229.416 25.1782 227.744 26.9884C225.489 29.4017 223.503 31.6973 221.339 34.2853Z" fill="#FFC000"/>
<path d="M296.566 51.337C298.93 52.7677 300.667 54.7932 302.228 56.8943C305.386 61.4125 308.87 65.8135 311.579 70.6105C312.539 73.7361 309.24 74.1304 307.066 73.1898C301.539 72.033 296.196 70.0125 290.599 69.3693C290.6 76.6797 290.582 83.9553 290.546 91.2608C290.54 92.1621 290.466 93.0722 290.324 93.9621C290.15 96.1797 286.998 96.8006 286.101 94.7518C282.947 88.2169 281.151 81.1292 277.758 74.7017C272.448 76.1591 267.28 77.7684 261.99 79.2536C259.182 80.3526 254.779 79.8505 255.941 75.8045C257.868 71.1045 261.668 67.4043 264.365 63.1405C266.227 60.3178 266.155 59.9158 264.321 57.1176C262.24 53.5983 259.612 50.2652 258.234 46.3892C257.219 42.4587 261.374 42.0818 264.042 43.3257C267.764 44.5097 271.444 45.8391 275.194 46.924C279.343 48.1243 279.468 48.0219 282.084 44.5178C284.719 41.8345 292.912 27.119 296.244 29.201C299.059 30.1274 297.352 36.5604 297.518 39.0221C297.239 43.0806 296.894 47.1353 296.566 51.337Z" fill="#FFC000"/>
<path d="M248.75 37.7119C250.193 41.3794 254.253 40.1603 252.165 37.4014C251.03 36.2222 249.938 35.1502 248.75 36.9913C248.75 37.2315 248.75 37.4717 248.75 37.7119Z" fill="#FFE391"/>
<path d="M197.594 26.4076C199.363 29.7789 204.338 28.6582 201.779 26.1222C200.388 25.0382 199.05 24.0528 197.594 25.7452C197.594 25.966 197.594 26.1868 197.594 26.4076Z" fill="#FFE391"/>
<path d="M251.43 85C249.718 85.6828 248.309 88.3497 247.05 89.793C246.543 90.4915 246.726 91.332 247.246 91.7394C247.763 92.1437 248.623 92.0977 249.133 91.4592C250.303 89.9937 251.445 88.4978 252.494 86.9385C253.094 86.0455 252.6 85.0656 251.43 85Z" fill="#FFE391"/>
<path d="M195.975 57.9258C193.876 58.7029 192.15 61.7381 190.606 63.3807C189.986 64.1756 190.209 65.1321 190.847 65.5958C191.481 66.056 192.535 66.0036 193.159 65.277C194.593 63.6091 195.993 61.9066 197.278 60.132C198.014 59.1156 197.409 58.0004 195.975 57.9258Z" fill="#FFE391"/>
<path d="M286.732 107.946C286.274 106.753 286.545 102.746 284.623 103.013C282.856 103.694 284.307 106.619 284.37 108.11C284.968 110.6 286.962 110.715 286.732 107.946Z" fill="#FFE391"/>
<path d="M236.791 83.1644C236.23 81.8065 236.562 77.2456 234.207 77.5497C232.041 78.3248 233.82 81.6534 233.897 83.3505C234.629 86.1847 237.074 86.315 236.791 83.1644Z" fill="#FFE391"/>
<path d="M294.75 26.3597C294.774 27.9115 296.763 28.7117 297.336 27.1686C297.842 25.7173 298.307 24.2421 298.675 22.7446C299.203 21.1685 296.785 20.2343 296.262 21.8221C295.701 23.3094 295.247 24.8445 294.75 26.3597Z" fill="#FFE391"/>
<path d="M238.652 16.9822C238.678 18.6124 240.811 19.4531 241.425 17.832C241.968 16.3073 242.466 14.7576 242.861 13.1844C243.427 11.5286 240.834 10.5471 240.273 12.2152C239.672 13.7777 239.185 15.3904 238.652 16.9822Z" fill="#FFE391"/>
<path d="M322.259 78C326.226 75.8512 321.263 74.5445 319.108 74.0008C317.795 73.9586 317.331 75.5671 318.176 76.2723C319.414 76.944 320.793 77.4028 322.259 78Z" fill="#FFE391"/>
<path d="M104.823 34.7423C109.661 32.8781 114.502 31.2554 119.402 29.6069C122.524 28.695 125.002 30.8227 123.57 34.0118C121.851 37.3725 120.265 40.7878 118.989 44.3489C117.082 48.6012 125.384 50.5941 126.034 55.3747C126.481 57.3922 125.084 58.9898 123.194 58.8268C118.12 58.6852 113.147 57.0649 108.067 57.7905C106.17 58.2293 105.13 59.1675 104.546 61.1107C103.103 64.9605 100.004 76.631 94.5524 74.879C91.3204 73.7226 92.4774 69.3746 91.8916 66.7009C91.2818 62.8702 91.4412 58.8151 90.1818 55.1351C89.8203 54.3299 89.2123 54.0308 88.2521 54.1031C85.6506 54.2999 83.0388 54.3697 80.43 54.4653C77.4633 54.7938 75.4901 50.9771 77.5988 48.8341C78.8502 47.4295 80.0911 45.9091 81.636 44.8949C85.2272 42.5374 86.272 38.6883 87.6932 35.0984C87.9867 31.8804 86.8971 28.1036 87.2875 24.7607C87.5246 21.2394 90.5844 19.844 93.3415 22.0845C95.2358 23.6233 96.7464 25.6352 98.4181 27.4455C100.673 29.8587 102.659 32.1544 104.823 34.7423Z" fill="#FFC000"/>
<path d="M128.344 26.4076C126.575 29.7789 121.599 28.6582 124.159 26.1222C125.55 25.0382 126.888 24.0528 128.344 25.7452C128.344 25.966 128.344 26.1868 128.344 26.4076Z" fill="#FFE391"/>
<path d="M129.963 57.9258C132.061 58.7029 133.787 61.7381 135.331 63.3807C135.952 64.1756 135.728 65.1321 135.09 65.5958C134.457 66.056 133.403 66.0036 132.778 65.277C131.344 63.6091 129.944 61.9066 128.659 60.132C127.923 59.1156 128.529 58.0004 129.963 57.9258Z" fill="#FFE391"/>
<path d="M89.1467 83.1644C89.7074 81.8065 89.3754 77.2456 91.7304 77.5497C93.8968 78.3248 92.1178 81.6534 92.0407 83.3505C91.3081 86.1847 88.8638 86.315 89.1467 83.1644Z" fill="#FFE391"/>
<path d="M87.2858 17.9822C87.26 19.6124 85.1269 20.4531 84.5125 18.832C83.9696 17.3073 83.4713 15.7576 83.0764 14.1844C82.5102 12.5286 85.1031 11.5471 85.6642 13.2152C86.2659 14.7777 86.7526 16.3904 87.2858 17.9822Z" fill="#FFE391"/>
<path d="M27.4341 51.337C25.0698 52.7677 23.3328 54.7932 21.7723 56.8943C18.614 61.4125 15.1297 65.8135 12.421 70.6105C11.4608 73.7361 14.7599 74.1304 16.9336 73.1898C22.461 72.033 27.8044 70.0125 33.4008 69.3693C33.3998 76.6797 33.4176 83.9553 33.4543 91.2608C33.4597 92.1621 33.5342 93.0722 33.6761 93.9621C33.8505 96.1797 37.0023 96.8006 37.8994 94.7518C41.0528 88.2169 42.8487 81.1292 46.2418 74.7017C51.5516 76.1591 56.72 77.7684 62.0099 79.2536C64.8179 80.3526 69.2214 79.8505 68.0587 75.8045C66.1317 71.1045 62.3316 67.4043 59.6354 63.1405C57.7726 60.3178 57.8455 59.9158 59.6791 57.1176C61.76 53.5983 64.3882 50.2652 65.7663 46.3892C66.7811 42.4587 62.6264 42.0818 59.9582 43.3257C56.2359 44.5097 52.5556 45.8391 48.8057 46.924C44.6575 48.1243 44.5322 48.0219 41.9159 44.5178C39.2807 41.8345 31.0884 27.119 27.7558 29.201C24.9408 30.1274 26.6481 36.5604 26.4819 39.0221C26.761 43.0806 27.1059 47.1353 27.4341 51.337Z" fill="#FFC000"/>
<path d="M75.25 37.7119C73.8067 41.3794 69.747 40.1603 71.8355 37.4014C72.97 36.2222 74.0617 35.1502 75.25 36.9913C75.25 37.2315 75.25 37.4717 75.25 37.7119Z" fill="#FFE391"/>
<path d="M72.5702 85C74.2822 85.6828 75.6907 88.3497 76.9502 89.793C77.4568 90.4915 77.2744 91.332 76.7536 91.7394C76.2366 92.1437 75.377 92.0977 74.8672 91.4592C73.6973 89.9937 72.5551 88.4978 71.5065 86.9385C70.906 86.0455 71.4 85.0656 72.5702 85Z" fill="#FFE391"/>
<path d="M37.2685 107.946C37.726 106.753 37.4551 102.746 39.3765 103.013C41.1441 103.694 39.6926 106.619 39.6297 108.11C39.032 110.6 37.0377 110.715 37.2685 107.946Z" fill="#FFE391"/>
<path d="M29.25 26.3597C29.2259 27.9115 27.2369 28.7117 26.664 27.1686C26.1578 25.7173 25.6931 24.2421 25.3249 22.7446C24.7969 21.1685 27.2147 20.2343 27.7379 21.8221C28.299 23.3094 28.7527 24.8445 29.25 26.3597Z" fill="#FFE391"/>
<path d="M1.74122 78C-2.22558 75.8512 2.73726 74.5445 4.89245 74.0008C6.20497 73.9586 6.66884 75.5671 5.824 76.2723C4.58573 76.944 3.20656 77.4028 1.74122 78Z" fill="#FFE391"/>
</svg>
