<svg width="60" height="61" viewBox="0 0 60 61" fill="none" xmlns="http://www.w3.org/2000/svg">
<rect y="0.5" width="60" height="60" rx="30" fill="#C1ECFB"/>
<g clip-path="url(#clip0_2067_300961)">
<path fill-rule="evenodd" clip-rule="evenodd" d="M30 15.7573C30.2072 15.7573 30.4059 15.675 30.5524 15.5284C30.6989 15.3819 30.7812 15.1832 30.7812 14.976V11.2812C30.7812 11.074 30.6989 10.8753 30.5524 10.7288C30.4059 10.5823 30.2072 10.5 30 10.5C29.7928 10.5 29.5941 10.5823 29.4476 10.7288C29.3011 10.8753 29.2188 11.074 29.2188 11.2812V14.976C29.2188 15.1832 29.3011 15.3819 29.4476 15.5284C29.5941 15.675 29.7928 15.7573 30 15.7573ZM30.0004 18.0582C23.14 18.0582 17.5586 23.6396 17.5586 30.5C17.5586 37.3604 23.14 42.9418 30.0004 42.9418C36.8608 42.9418 42.4422 37.3604 42.4422 30.5C42.4422 23.6396 36.8608 18.0582 30.0004 18.0582ZM30.0004 41.3793C24.0015 41.3793 19.1211 36.4989 19.1211 30.5C19.1211 24.5011 24.0015 19.6207 30.0004 19.6207C35.9993 19.6207 40.8797 24.5011 40.8797 30.5C40.8797 36.4989 35.9993 41.3793 30.0004 41.3793ZM29.4476 45.4716C29.5941 45.325 29.7928 45.2427 30 45.2427C30.2072 45.2427 30.4059 45.325 30.5524 45.4716C30.6989 45.6181 30.7812 45.8168 30.7812 46.024V49.7188C30.7812 49.926 30.6989 50.1247 30.5524 50.2712C30.4059 50.4177 30.2072 50.5 30 50.5C29.7928 50.5 29.5941 50.4177 29.4476 50.2712C29.3011 50.1247 29.2188 49.926 29.2188 49.7188V46.024C29.2188 45.8168 29.3011 45.6181 29.4476 45.4716ZM21.5616 17.4465C21.6652 17.6259 21.8358 17.7569 22.0359 17.8105C22.2361 17.8641 22.4493 17.836 22.6288 17.7324C22.8082 17.6288 22.9392 17.4582 22.9928 17.2581C23.0464 17.0579 23.0184 16.8447 22.9148 16.6652L21.0673 13.4655C21.0164 13.3759 20.9483 13.2973 20.8668 13.2342C20.7854 13.171 20.6923 13.1246 20.5929 13.0976C20.4934 13.0706 20.3897 13.0636 20.2875 13.0769C20.1853 13.0901 20.0868 13.1235 19.9976 13.175C19.9083 13.2265 19.8302 13.2952 19.7676 13.377C19.705 13.4589 19.6592 13.5523 19.6329 13.6519C19.6066 13.7515 19.6002 13.8553 19.6141 13.9574C19.6281 14.0595 19.6621 14.1578 19.7142 14.2467L21.5616 17.4465ZM37.9643 43.1895C38.1644 43.2431 38.3351 43.3741 38.4387 43.5535L40.286 46.7533C40.3381 46.8422 40.3721 46.9405 40.3861 47.0425C40.4 47.1446 40.3937 47.2485 40.3673 47.3481C40.341 47.4477 40.2952 47.5411 40.2326 47.6229C40.1701 47.7048 40.0919 47.7734 40.0027 47.825C39.9134 47.8765 39.8149 47.9098 39.7127 47.9231C39.6106 47.9364 39.5068 47.9293 39.4073 47.9023C39.3079 47.8753 39.2148 47.829 39.1334 47.7658C39.0519 47.7027 38.9838 47.6241 38.9329 47.5345L37.0855 44.3348C36.9819 44.1553 36.9538 43.9421 37.0074 43.7419C37.0611 43.5418 37.192 43.3711 37.3714 43.2675C37.5509 43.1639 37.7641 43.1359 37.9643 43.1895ZM16.9461 22.0614L13.7464 20.2141C13.6575 20.162 13.5592 20.1279 13.4571 20.114C13.355 20.1 13.2512 20.1064 13.1515 20.1327C13.0519 20.1591 12.9585 20.2048 12.8767 20.2674C12.7948 20.33 12.7262 20.4082 12.6747 20.4974C12.6231 20.5866 12.5898 20.6852 12.5765 20.7873C12.5632 20.8895 12.5703 20.9933 12.5973 21.0927C12.6243 21.1922 12.6707 21.2853 12.7338 21.3667C12.7969 21.4481 12.8755 21.5163 12.9651 21.5672L16.1649 23.4146C16.3443 23.5182 16.5576 23.5463 16.7577 23.4926C16.9579 23.439 17.1285 23.3081 17.2321 23.1286C17.3357 22.9492 17.3638 22.7359 17.3101 22.5358C17.2565 22.3356 17.1256 22.165 16.9461 22.0614ZM43.8347 37.5854L47.0344 39.4328C47.124 39.4837 47.2026 39.5519 47.2657 39.6333C47.3288 39.7147 47.3752 39.8078 47.4022 39.9073C47.4292 40.0067 47.4363 40.1105 47.423 40.2127C47.4097 40.3148 47.3764 40.4134 47.3249 40.5026C47.2733 40.5918 47.2047 40.67 47.1228 40.7326C47.041 40.7951 46.9476 40.8409 46.848 40.8673C46.7484 40.8936 46.6445 40.9 46.5424 40.886C46.4404 40.8721 46.3421 40.838 46.2532 40.7859L43.0534 38.9386C42.874 38.835 42.743 38.6643 42.6894 38.4642C42.6358 38.2641 42.6638 38.0508 42.7674 37.8714C42.871 37.6919 43.0417 37.561 43.2418 37.5073C43.442 37.4537 43.6552 37.4818 43.8347 37.5854ZM15.2573 30.5C15.2573 30.2928 15.175 30.0941 15.0284 29.9476C14.8819 29.8011 14.6832 29.7188 14.476 29.7188H10.7812C10.574 29.7188 10.3753 29.8011 10.2288 29.9476C10.0823 30.0941 10 30.2928 10 30.5C10 30.7072 10.0823 30.9059 10.2288 31.0524C10.3753 31.1989 10.574 31.2812 10.7812 31.2812H14.476C14.6832 31.2812 14.8819 31.1989 15.0284 31.0524C15.175 30.9059 15.2573 30.7072 15.2573 30.5ZM45.5241 29.7188H49.2189C49.4261 29.7188 49.6248 29.8011 49.7713 29.9476C49.9178 30.0941 50.0001 30.2928 50.0001 30.5C50.0001 30.7072 49.9178 30.9059 49.7713 31.0524C49.6248 31.1989 49.4261 31.2812 49.2189 31.2812H45.5241C45.3169 31.2812 45.1182 31.1989 44.9717 31.0524C44.8251 30.9059 44.7428 30.7072 44.7428 30.5C44.7428 30.2928 44.8251 30.0941 44.9717 29.9476C45.1182 29.8011 45.3169 29.7188 45.5241 29.7188ZM16.1649 37.5854L12.9651 39.4328C12.8755 39.4837 12.7969 39.5519 12.7338 39.6333C12.6707 39.7147 12.6243 39.8078 12.5973 39.9073C12.5703 40.0067 12.5632 40.1105 12.5765 40.2127C12.5898 40.3148 12.6231 40.4134 12.6747 40.5026C12.7262 40.5918 12.7948 40.67 12.8767 40.7326C12.9585 40.7951 13.0519 40.8409 13.1515 40.8673C13.2512 40.8936 13.355 40.9 13.4571 40.886C13.5592 40.8721 13.6575 40.838 13.7464 40.7859L16.9461 38.9386C17.1256 38.835 17.2565 38.6643 17.3101 38.4642C17.3638 38.2641 17.3357 38.0508 17.2321 37.8714C17.1285 37.6919 16.9579 37.561 16.7577 37.5073C16.5576 37.4537 16.3443 37.4818 16.1649 37.5854ZM43.8349 23.4146C43.7164 23.4832 43.5819 23.5194 43.445 23.5194C43.2729 23.5196 43.1056 23.463 42.969 23.3584C42.8323 23.2537 42.7341 23.1069 42.6895 22.9407C42.6449 22.7745 42.6564 22.5982 42.7222 22.4392C42.7881 22.2802 42.9046 22.1474 43.0536 22.0614L46.2534 20.2141C46.3423 20.162 46.4406 20.1279 46.5427 20.114C46.6447 20.1 46.7486 20.1064 46.8482 20.1327C46.9478 20.1591 47.0412 20.2048 47.1231 20.2674C47.2049 20.33 47.2736 20.4082 47.3251 20.4974C47.3766 20.5866 47.41 20.6852 47.4232 20.7873C47.4365 20.8895 47.4295 20.9933 47.4025 21.0927C47.3755 21.1922 47.3291 21.2853 47.2659 21.3667C47.2028 21.4481 47.1242 21.5163 47.0346 21.5672L43.8349 23.4146ZM22.6287 43.2676C22.4493 43.164 22.2361 43.1359 22.0359 43.1895C21.8358 43.2432 21.6652 43.3741 21.5616 43.5535L19.7142 46.7533C19.6621 46.8422 19.6281 46.9405 19.6141 47.0426C19.6002 47.1446 19.6066 47.2485 19.6329 47.3481C19.6592 47.4477 19.705 47.5411 19.7676 47.623C19.8302 47.7048 19.9083 47.7735 19.9976 47.825C20.0868 47.8765 20.1853 47.9098 20.2875 47.9231C20.3897 47.9364 20.4934 47.9293 20.5929 47.9024C20.6923 47.8754 20.7854 47.829 20.8668 47.7658C20.9483 47.7027 21.0164 47.6241 21.0673 47.5345L22.9148 44.3348C23.0183 44.1553 23.0464 43.9421 22.9928 43.7419C22.9391 43.5418 22.8082 43.3712 22.6287 43.2676ZM37.9643 17.8105C37.7641 17.8641 37.5509 17.836 37.3715 17.7324C37.192 17.6288 37.0611 17.4582 37.0074 17.2581C36.9538 17.0579 36.9819 16.8447 37.0854 16.6652L38.9329 13.4655C38.9838 13.3759 39.0519 13.2973 39.1334 13.2342C39.2148 13.171 39.3079 13.1246 39.4073 13.0976C39.5068 13.0706 39.6105 13.0636 39.7127 13.0769C39.8149 13.0901 39.9134 13.1235 40.0026 13.175C40.0919 13.2265 40.17 13.2952 40.2326 13.377C40.2952 13.4589 40.341 13.5523 40.3673 13.6519C40.3937 13.7515 40.4 13.8553 40.3861 13.9574C40.3721 14.0595 40.3381 14.1578 40.286 14.2467L38.4386 17.4465C38.335 17.6259 38.1644 17.7568 37.9643 17.8105Z" fill="#356799"/>
</g>
<defs>
<clipPath id="clip0_2067_300961">
<rect width="40" height="40" fill="white" transform="translate(10 10.5)"/>
</clipPath>
</defs>
</svg>
