<svg width="22" height="22" viewBox="0 0 22 22" fill="none" xmlns="http://www.w3.org/2000/svg">
<path fill-rule="evenodd" clip-rule="evenodd" d="M11.0003 0C17.0655 0 22 4.93616 22 11.0047C22 13.2699 21.317 15.4461 20.0248 17.2975C18.9039 18.9036 17.3974 20.1663 15.6392 20.9847L16.087 22L12.7283 21.729L14.6584 18.7552L15.1309 19.8293C18.5111 18.2391 20.7385 14.775 20.7385 11.0047C20.7385 5.63261 16.3699 1.26152 11.0003 1.26152C5.63008 1.26152 1.26096 5.63261 1.26096 11.0047C1.26096 15.002 3.76474 18.6552 7.49047 20.0964C7.81519 20.2218 7.97727 20.5873 7.8509 20.9122C7.7553 21.1623 7.51575 21.3156 7.26301 21.3156C7.18718 21.3156 7.11081 21.3019 7.03609 21.2728C4.98724 20.4807 3.23728 19.1059 1.97468 17.2975C0.68295 15.4467 0 13.2699 0 11.0047C0 4.93616 4.93504 0 11.0003 0ZM11.2738 3.3C11.4733 3.3 11.6573 3.40689 11.7571 3.5802L18.0499 14.5203C18.1129 14.6109 18.15 14.7213 18.15 14.8403C18.15 15.1407 17.914 15.3861 17.6179 15.3993L17.604 15.3998L4.96786 15.4C4.91479 15.4003 4.86384 15.3947 4.81254 15.3808C4.74708 15.3631 4.68623 15.3336 4.6321 15.2945C4.56594 15.2469 4.51322 15.1869 4.47465 15.1198C4.43609 15.053 4.41132 14.977 4.40283 14.8964C4.40071 14.8776 4.4 14.8584 4.4 14.8396C4.4 14.7913 4.40637 14.743 4.41911 14.6951C4.43255 14.6443 4.45342 14.596 4.47961 14.5519L10.7908 3.5802C10.8906 3.40689 11.0749 3.3 11.2738 3.3ZM11.2738 4.97941L5.92385 14.2803H16.6237L11.2738 4.97941ZM11.2746 12.1C11.5782 12.1 11.825 12.3461 11.825 12.65C11.825 12.9536 11.5782 13.2 11.2746 13.2C10.9711 13.2 10.725 12.9536 10.725 12.65C10.725 12.3461 10.9711 12.1 11.2746 12.1ZM11.2746 6.6C11.5788 6.6 11.825 6.81074 11.825 7.0705V11.0795C11.825 11.3396 11.5788 11.55 11.2746 11.55C10.9712 11.55 10.725 11.3396 10.725 11.0795V7.0705C10.725 6.81074 10.9712 6.6 11.2746 6.6Z" fill="#FFC000"/>
</svg>
