<svg width="22" height="22" viewBox="0 0 22 22" fill="none" xmlns="http://www.w3.org/2000/svg">
<path fill-rule="evenodd" clip-rule="evenodd" d="M18.4217 18.9098C18.7772 18.9098 19.0657 19.1978 19.0657 19.5533C19.0657 19.9093 18.7772 20.1973 18.4217 20.1973C18.2147 20.1973 18.1352 20.2643 17.9157 20.4748C17.6517 20.7283 17.2527 21.1108 16.5172 21.1108C15.7822 21.1108 15.3832 20.7283 15.1197 20.4748C14.9002 20.2643 14.8207 20.1973 14.6127 20.1973C14.4062 20.1973 14.3267 20.2643 14.1077 20.4748C13.8437 20.7283 13.4447 21.1108 12.7102 21.1108C11.9752 21.1108 11.5762 20.7283 11.3122 20.4748C11.0927 20.2643 11.0137 20.1973 10.8067 20.1973C10.5997 20.1973 10.5207 20.2643 10.3012 20.4748C10.0377 20.7278 9.63873 21.1108 8.90373 21.1108C8.16923 21.1108 7.77023 20.7278 7.50623 20.4748C7.28723 20.2643 7.20773 20.1973 7.00173 20.1973C6.79473 20.1973 6.71523 20.2643 6.49673 20.4748C6.23273 20.7278 5.83373 21.1108 5.09923 21.1108C4.36423 21.1108 3.96573 20.7278 3.70173 20.4748C3.48223 20.2643 3.40323 20.1973 3.19573 20.1973C2.84073 20.1973 2.55223 19.9093 2.55223 19.5533C2.55223 19.1978 2.84073 18.9098 3.19573 18.9098C3.93123 18.9098 4.32973 19.2923 4.59323 19.5458C4.81323 19.7563 4.89223 19.8228 5.09923 19.8228C5.30573 19.8228 5.38473 19.7563 5.60423 19.5458C5.86773 19.2923 6.26673 18.9098 7.00173 18.9098C7.73623 18.9098 8.13473 19.2923 8.39873 19.5458C8.61773 19.7563 8.69723 19.8228 8.90373 19.8228C9.11073 19.8228 9.19023 19.7563 9.40923 19.5458C9.67323 19.2923 10.0717 18.9098 10.8067 18.9098C11.5417 18.9098 11.9402 19.2923 12.2047 19.5458C12.4242 19.7563 12.5032 19.8228 12.7102 19.8228C12.9167 19.8228 12.9962 19.7563 13.2157 19.5458C13.4792 19.2923 13.8787 18.9098 14.6127 18.9098C15.3482 18.9098 15.7472 19.2918 16.0112 19.5453C16.2312 19.7563 16.3102 19.8228 16.5172 19.8228C16.7247 19.8228 16.8037 19.7563 17.0237 19.5453C17.2877 19.2918 17.6867 18.9098 18.4217 18.9098ZM10.8092 0.445312C11.3162 0.445312 11.7292 0.858312 11.7292 1.36531V3.68081H14.2092C14.6972 3.68081 15.0942 4.07831 15.0942 4.56631C15.0942 5.05431 14.6972 5.45181 14.2092 5.45181H11.7292V6.92381H14.2092C14.6972 6.92381 15.0942 7.32081 15.0942 7.80931C15.0942 8.29731 14.6972 8.69481 14.2092 8.69481H11.7292V10.1663H14.2092C14.6972 10.1663 15.0942 10.5638 15.0942 11.0523C15.0942 11.5403 14.6972 11.9373 14.2092 11.9373H11.7292V13.1068C12.7642 13.4838 13.5077 14.4758 13.5077 15.6403C13.5077 17.1283 12.2972 18.3388 10.8092 18.3388C9.32123 18.3388 8.11023 17.1283 8.11023 15.6403C8.11023 14.4758 8.85323 13.4838 9.88923 13.1068V1.36531C9.88923 0.858312 10.3017 0.445312 10.8092 0.445312ZM18.9632 14.5098C19.7287 14.5098 20.1462 14.9108 20.4227 15.1758C20.6597 15.4038 20.7542 15.4828 20.9897 15.4828C21.3452 15.4828 21.6337 15.7708 21.6337 16.1263C21.6337 16.4828 21.3452 16.7708 20.9897 16.7708C20.2242 16.7708 19.8062 16.3703 19.5302 16.1048C19.2927 15.8768 19.1982 15.7983 18.9632 15.7983C18.7272 15.7983 18.6327 15.8768 18.3957 16.1048C18.1192 16.3703 17.7017 16.7708 16.9362 16.7708C16.1707 16.7708 15.7532 16.3698 15.4767 16.1048C15.2397 15.8768 15.1457 15.7983 14.9102 15.7983C14.5547 15.7983 14.2662 15.5098 14.2662 15.1538C14.2662 14.7983 14.5547 14.5098 14.9102 14.5098C15.6757 14.5098 16.0927 14.9108 16.3692 15.1758C16.6067 15.4038 16.7007 15.4828 16.9362 15.4828C17.1717 15.4828 17.2657 15.4038 17.5037 15.1758C17.7797 14.9108 18.1967 14.5098 18.9632 14.5098ZM4.74973 14.5098C5.51523 14.5098 5.93223 14.9108 6.20873 15.1758C6.44623 15.4038 6.54073 15.4828 6.77673 15.4828C7.13173 15.4828 7.42073 15.7708 7.42073 16.1263C7.42073 16.4828 7.13173 16.7708 6.77673 16.7708C6.01023 16.7708 5.59273 16.3703 5.31723 16.1048C5.07923 15.8768 4.98523 15.7983 4.74973 15.7983C4.51373 15.7983 4.41973 15.8768 4.18223 16.1048C3.90573 16.3703 3.48823 16.7708 2.72223 16.7708C1.95673 16.7708 1.53973 16.3698 1.26323 16.1048C1.02623 15.8768 0.932234 15.7983 0.696734 15.7983C0.341734 15.7983 0.0527344 15.5098 0.0527344 15.1538C0.0527344 14.7983 0.341734 14.5098 0.696734 14.5098C1.46273 14.5098 1.87973 14.9108 2.15573 15.1758C2.39323 15.4038 2.48723 15.4828 2.72223 15.4828C2.95823 15.4828 3.05223 15.4038 3.28973 15.1758C3.56623 14.9108 3.98373 14.5098 4.74973 14.5098Z" fill="#EB2F00"/>
</svg>
