<svg width="22" height="22" viewBox="0 0 22 22" fill="none" xmlns="http://www.w3.org/2000/svg">
<path fill-rule="evenodd" clip-rule="evenodd" d="M19.9459 7.20406C22.2789 7.84111 22.6007 9.3548 20.7006 10.9426C22.6007 12.5319 22.2789 14.0451 19.9459 14.6821C21.1143 16.7985 20.2721 18.0381 17.887 17.7354C18.1893 20.1205 16.9496 20.9627 14.8333 19.7943C14.1968 22.1272 12.6831 22.4491 11.0948 20.5495C9.50597 22.4491 7.99275 22.1272 7.35571 19.7943C5.2394 20.9627 3.99927 20.1205 4.30201 17.7354C1.9174 18.0381 1.07471 16.7985 2.2431 14.6821C-0.0898558 14.0451 -0.411247 12.5319 1.4884 10.9426C-0.411247 9.3548 -0.0898558 7.84111 2.2431 7.20406C1.07471 5.08776 1.9174 3.84811 4.30201 4.15037C3.99927 1.76576 5.2394 0.923063 7.35571 2.09193C7.99275 -0.241024 9.50597 -0.562894 11.0948 1.33724C12.6831 -0.562894 14.1968 -0.241024 14.8333 2.09193C16.9496 0.923063 18.1893 1.76576 17.887 4.15037C20.2721 3.84811 21.1143 5.08776 19.9459 7.20406ZM2.19767 10.9431C2.19767 15.8568 6.1811 19.8402 11.0948 19.8402C16.0084 19.8402 19.9918 15.8568 19.9918 10.9431C19.9918 6.02945 16.0084 2.0465 11.0948 2.0465C6.1811 2.0465 2.19767 6.02945 2.19767 10.9431ZM12.3858 15.1764C12.3858 16.1841 11.5655 17.0043 10.5569 17.0043C9.5492 17.0043 8.72898 16.1841 8.72898 15.1764C8.72898 14.3868 9.23259 13.7149 9.93372 13.4595V5.50361C9.93372 5.16022 10.2135 4.88043 10.5569 4.88043C10.9008 4.88043 11.181 5.16022 11.181 5.50361V7.0723H12.8607C13.1916 7.0723 13.4609 7.34157 13.4609 7.67252C13.4609 8.00348 13.1916 8.27226 12.8607 8.27226H11.181V9.26943H12.8607C13.1916 9.26943 13.4609 9.5387 13.4609 9.86965C13.4609 10.2006 13.1916 10.4699 12.8607 10.4699H11.181V11.467H12.8607C13.1916 11.467 13.4609 11.7363 13.4609 12.0673C13.4609 12.3977 13.1916 12.667 12.8607 12.667H11.181V13.4595C11.8826 13.7149 12.3858 14.3868 12.3858 15.1764Z" fill="#EB2F00"/>
</svg>
