<svg width="309" height="91" viewBox="0 0 309 91" fill="none" xmlns="http://www.w3.org/2000/svg">
<path d="M55.2657 63.6328C48.4748 63.6328 41.9738 63.6209 35.7992 63.6094L8.76349 63.5457L-11.6091 63.4567C-11.6091 63.4567 -19.0044 63.4623 -17.8846 63.415C-16.6344 63.3621 -11.1195 63.3711 -11.1195 63.3711L9.5333 63.2824L36.5795 63.2188C42.8613 63.2072 49.4807 63.1953 56.3594 63.1953C59.4024 63.1953 62.4966 63.1975 65.6341 63.2035C66.1608 63.2035 66.3318 63.3174 66.3318 63.3573C66.3318 63.4321 66.0203 63.622 65.2841 63.6232C61.8799 63.6299 58.5392 63.6328 55.2657 63.6328Z" fill="#4381C0"/>
<path d="M63.9672 55.6257C58.6215 55.6257 53.4998 55.6146 48.6333 55.6041L26.9631 55.5446L10.7731 55.4623C10.7731 55.4623 5.3616 55.4757 5.78592 55.4232C6.21098 55.3707 11.1619 55.3822 11.1619 55.3822L27.5749 55.2996L49.4763 55.24C54.3253 55.2299 59.4249 55.2188 64.7157 55.2188H65.9883C66.2214 55.2188 66.3304 55.3111 66.3312 55.3774C66.3319 55.4686 66.1373 55.6164 65.611 55.6254L63.9672 55.6257Z" fill="#4381C0"/>
<path d="M69.3128 47.6365C62.4663 47.6365 55.9108 47.625 49.6775 47.6138L21.9 47.5513L1.20204 47.4656C1.20204 47.4656 -5.41366 47.447 -5.17535 47.425C-4.19338 47.3338 1.69882 47.3819 1.69882 47.3819L22.6829 47.2962L50.6677 47.2337C56.9372 47.2229 63.5293 47.2109 70.3766 47.2109C74.1181 47.2109 77.9366 47.2147 81.8177 47.2236L83.2117 47.2247C83.5718 47.2247 83.732 47.3145 83.7328 47.3785C83.7343 47.4731 83.4459 47.6157 82.8229 47.6228L80.7951 47.6243C76.8836 47.6328 73.0551 47.6365 69.3128 47.6365Z" fill="#4381C0"/>
<path d="M89.8471 39.6883C84.6635 39.6883 79.7058 39.6738 75.0066 39.66L55.2944 39.587L40.192 39.4835C40.192 39.4835 34.7182 39.4899 35.5395 39.4348C35.9497 39.4076 40.5551 39.3841 40.5551 39.3841L55.8655 39.2806L76.296 39.2058C80.8406 39.1931 85.6204 39.1797 90.5815 39.1797L93.7649 39.1815C94.0029 39.1897 94.1302 39.2869 94.1306 39.3785C94.131 39.4861 93.9565 39.6652 93.4863 39.6857C92.2649 39.6876 91.0502 39.6883 89.8471 39.6883Z" fill="#4381C0"/>
<path d="M241.471 33.1259C241.238 33.7567 241.019 34.3972 240.774 35.0205C240.529 35.6442 240.305 36.2768 240.023 36.8841L239.617 37.802L239.165 38.696C239.022 38.9984 238.849 39.2836 238.68 39.5703C238.507 39.8548 238.353 40.1523 238.155 40.4185C237.962 40.6881 237.786 40.9719 237.579 41.2299C237.366 41.482 237.163 41.7445 236.941 41.9888C236.704 42.217 236.482 42.4617 236.234 42.6765L235.85 42.9848C235.723 43.0895 235.596 43.1922 235.454 43.2738C235.176 43.4477 234.907 43.635 234.605 43.763C234.457 43.8323 234.313 43.9112 234.162 43.9727L233.699 44.1376C233.547 44.1983 233.39 44.2445 233.229 44.2799L232.751 44.4001C232.425 44.4538 232.102 44.5204 231.772 44.5524C231.109 44.6239 230.455 44.6548 229.774 44.6552C229.429 44.6668 229.124 44.6396 228.801 44.6102L228.332 44.5167C228.18 44.4735 228.034 44.4132 227.884 44.364C227.306 44.1317 226.789 43.7068 226.498 43.2C226.411 43.0921 226.358 42.9197 226.296 42.7651L226.25 42.6471L226.228 42.5912L226.225 42.5801L226.216 42.5495L226.146 42.3068L225.865 41.3368L225.865 41.3364C225.851 41.2925 225.826 41.2489 225.789 41.2165C225.683 41.1234 225.522 41.1331 225.429 41.2381L224.806 41.9389L224.494 42.2889C224.392 42.4114 224.283 42.506 224.177 42.6136C224.068 42.7156 223.972 42.831 223.851 42.9219L223.496 43.2C223.381 43.298 223.25 43.3739 223.122 43.4544L222.737 43.6953C222.462 43.8234 222.201 43.982 221.916 44.087L221.492 44.2519C221.352 44.313 221.202 44.3395 221.057 44.3853C220.911 44.4236 220.765 44.4746 220.62 44.5025L220.182 44.5804C220.04 44.6128 219.886 44.6262 219.728 44.6321L219.267 44.6612C218.77 44.6489 218.27 44.6548 217.778 44.6098C217.53 44.5968 217.283 44.5748 217.04 44.5353C216.795 44.5048 216.551 44.4698 216.317 44.4065C216.199 44.3778 216.08 44.3532 215.963 44.3216L215.626 44.1987L215.458 44.1376C215.405 44.1127 215.355 44.0822 215.303 44.0546C215.203 43.9969 215.096 43.944 214.999 43.8841C214.834 43.7429 214.655 43.6301 214.502 43.4082L214.383 43.2619C214.38 43.2492 214.334 43.1721 214.311 43.1312C214.249 43.0351 214.209 42.9249 214.164 42.818C213.994 42.3838 213.931 41.8994 213.919 41.4146C213.911 40.9283 213.942 40.4357 214.016 39.946C214.082 39.456 214.181 38.9678 214.293 38.483C214.408 37.9982 214.537 37.5157 214.68 37.0372C214.964 36.0795 215.301 35.1356 215.643 34.1868L216.66 31.3431L218.652 25.7786H223.778L221.119 33.0891L220.435 34.9807C220.209 35.614 219.982 36.247 219.798 36.9054C219.707 37.2353 219.626 37.5719 219.596 37.9312C219.582 38.1107 219.581 38.2957 219.611 38.4853C219.628 38.5806 219.646 38.6714 219.684 38.7712L219.743 38.9187L219.805 39.0285C220.021 39.399 220.398 39.5994 220.76 39.6861C220.942 39.7349 221.124 39.7494 221.308 39.761C221.471 39.7703 221.663 39.7565 221.835 39.7483C222.188 39.7099 222.553 39.6496 222.884 39.4809C223.216 39.3212 223.513 39.0915 223.752 38.8219C224.219 38.2741 224.515 37.6423 224.778 37.0178C225.036 36.3904 225.261 35.7552 225.487 35.1248L226.164 33.2309L228.83 25.7786H233.958C233.056 28.2097 232.163 30.6442 231.282 33.0828L230.595 34.9736C230.368 35.6058 230.139 36.2385 229.953 36.8983C229.862 37.2286 229.78 37.5663 229.751 37.9278C229.737 38.1088 229.735 38.2957 229.767 38.4871C229.783 38.5843 229.804 38.6759 229.841 38.7776L229.904 38.928L229.965 39.0375C230.18 39.4106 230.565 39.6221 230.931 39.7081C231.115 39.7576 231.298 39.7725 231.484 39.7844C231.646 39.793 231.84 39.78 232.013 39.7718C232.368 39.7338 232.736 39.6723 233.071 39.5029C233.405 39.3417 233.705 39.1093 233.945 38.8383C234.416 38.2868 234.713 37.6527 234.975 37.0279C235.234 36.3993 235.459 35.7637 235.684 35.1337L236.361 33.2395C237.254 30.7566 238.134 28.2686 239.007 25.7786H244.14L241.471 33.1259ZM244.406 25.4063H238.875C238.798 25.4063 238.726 25.4535 238.699 25.5295L238.698 25.5314C237.766 28.0459 236.841 30.563 235.93 33.085L235.243 34.9751C235.013 35.6058 234.787 36.2336 234.532 36.8435C234.276 37.4501 233.986 38.0444 233.578 38.5136C233.372 38.7437 233.129 38.9265 232.859 39.0561C232.591 39.1927 232.282 39.2415 231.973 39.2739C231.81 39.2795 231.668 39.2918 231.495 39.2843C231.346 39.2747 231.191 39.2631 231.05 39.2251C230.767 39.1603 230.522 39.0122 230.395 38.7951C230.101 38.3237 230.257 37.646 230.418 37.0245C230.592 36.3923 230.816 35.7619 231.038 35.1315L231.715 33.238C232.621 30.7142 233.517 28.1866 234.401 25.6554L234.402 25.6516C234.409 25.6323 234.413 25.6111 234.413 25.5898C234.412 25.4874 234.328 25.4055 234.226 25.4063H228.698C228.621 25.4063 228.549 25.4535 228.522 25.5295L228.521 25.531L225.775 33.0913L225.088 34.9814C224.858 35.6125 224.632 36.2403 224.377 36.8514C224.121 37.4587 223.829 38.0545 223.419 38.5277C223.211 38.7597 222.966 38.9448 222.693 39.0758C222.421 39.2147 222.109 39.2635 221.798 39.297C221.634 39.3026 221.491 39.3149 221.318 39.3074C221.167 39.2974 221.011 39.2858 220.868 39.2471C220.582 39.1823 220.326 39.0278 220.198 38.8103C219.901 38.3244 220.064 37.6437 220.225 37.0215C220.399 36.3882 220.623 35.757 220.845 35.1266L221.522 33.2336L224.22 25.6554C224.227 25.6356 224.232 25.6125 224.232 25.5909C224.231 25.4882 224.147 25.4059 224.045 25.4063H218.521C218.445 25.4063 218.373 25.4535 218.345 25.5295L218.345 25.5302L216.284 31.2083L215.253 34.0475C214.909 34.9911 214.563 35.9432 214.271 36.9154C214.123 37.3998 213.991 37.8899 213.87 38.384C213.754 38.8785 213.65 39.3778 213.579 39.885C213.501 40.3906 213.465 40.9063 213.472 41.425C213.483 41.9433 213.546 42.4736 213.74 42.9807C213.792 43.1062 213.839 43.2339 213.912 43.3512C213.952 43.419 213.965 43.4532 214.028 43.5478L214.147 43.6949C214.235 43.7917 214.283 43.8945 214.406 43.9857L214.736 44.2609C214.851 44.335 214.971 44.3957 215.089 44.4627C215.149 44.4947 215.207 44.5305 215.268 44.5591L215.455 44.6288L215.829 44.7665C215.955 44.8012 216.083 44.8284 216.21 44.8596C216.464 44.9289 216.719 44.9669 216.975 45C217.231 45.0425 217.487 45.0663 217.742 45.0808C218.255 45.13 218.763 45.1262 219.273 45.1408L219.287 45.1404L219.756 45.1125C219.911 45.1073 220.069 45.0946 220.234 45.0603L220.721 44.9769C220.883 44.946 221.034 44.8939 221.191 44.8533C221.345 44.8056 221.505 44.777 221.653 44.7129L222.105 44.5398C222.408 44.4288 222.687 44.2627 222.978 44.1265L223.391 43.8718C223.527 43.7865 223.668 43.7053 223.792 43.6007L224.176 43.3024C224.306 43.2049 224.413 43.079 224.533 42.9692C224.647 42.8549 224.773 42.7409 224.872 42.624L225.184 42.2744L225.504 41.918L225.659 42.4479L225.73 42.6903L225.74 42.7204L225.757 42.7718L225.78 42.8307L225.826 42.9483C225.891 43.1055 225.935 43.2592 226.05 43.4249C226.433 44.0885 227.028 44.5454 227.697 44.819C227.867 44.8764 228.035 44.9427 228.207 44.9903L228.733 45.0927C229.08 45.1266 229.451 45.1519 229.781 45.1389C230.451 45.1355 231.148 45.1009 231.827 45.0235C232.169 44.9888 232.509 44.9185 232.849 44.8608L233.353 44.7319C233.522 44.6936 233.688 44.6444 233.85 44.5796L234.34 44.4013C234.501 44.3354 234.654 44.2516 234.811 44.1771C235.132 44.0382 235.418 43.839 235.712 43.6528C235.862 43.5646 235.997 43.4555 236.13 43.3445L236.534 43.0172C236.794 42.7897 237.026 42.5339 237.273 42.2926C237.503 42.0372 237.712 41.7642 237.933 41.501C238.146 41.2325 238.325 40.9406 238.523 40.6617C238.727 40.3854 238.883 40.0823 239.058 39.7896C239.23 39.4955 239.405 39.2028 239.549 38.8952L240.005 37.9837L240.413 37.0517C240.696 36.4347 240.919 35.7957 241.164 35.165C241.409 34.5327 241.624 33.8971 241.855 33.2637L244.582 25.6554C244.589 25.636 244.593 25.6133 244.593 25.5917C244.593 25.4889 244.509 25.4059 244.406 25.4063Z" fill="#4381C0"/>
<path d="M274.687 79.1281C272.765 82.5326 267.298 83.7852 264.625 81.8866C262.119 80.1063 261.649 76.2353 264.239 73.379C266.51 70.8741 268.726 69.8755 271.836 70.4768C275.069 71.5805 276.689 75.5807 274.687 79.1281ZM272.941 70.4072C269.99 68.7621 264.926 70.6891 262.892 74.2331C260.939 77.6376 261.834 81.7361 265.256 82.8007C268.959 83.9531 273.668 82.5635 275.502 78.1488C277.11 74.2797 274.761 71.423 272.941 70.4072Z" fill="#4381C0"/>
<path d="M163.94 79.1281C162.018 82.5326 156.552 83.7852 153.878 81.8866C151.372 80.1063 150.903 76.2353 153.493 73.379C155.763 70.8741 157.98 69.8755 161.089 70.4768C164.323 71.5805 165.943 75.5807 163.94 79.1281ZM162.194 70.4072C159.243 68.7621 154.18 70.6891 152.146 74.2331C150.192 77.6376 151.087 81.7361 154.51 82.8007C158.213 83.9531 162.921 82.5635 164.756 78.1488C166.364 74.2797 164.015 71.423 162.194 70.4072Z" fill="#4381C0"/>
<path d="M126.3 41.7284C126.633 41.7284 126.99 41.7649 127.355 41.8356C128.313 42.1652 129.078 42.9185 129.454 43.903C129.872 44.9973 129.76 46.2525 129.146 47.3465C128.377 48.716 126.584 49.6726 124.787 49.6726C123.987 49.6726 123.292 49.4775 122.777 49.1085C122.046 48.585 121.569 47.7457 121.467 46.807C121.347 45.7029 121.73 44.5967 122.545 43.6915C123.769 42.3339 124.926 41.7284 126.3 41.7284ZM121.625 44.1979C120.925 45.4252 120.773 46.8334 121.219 47.9661C121.565 48.8426 122.249 49.4809 123.146 49.7624C123.675 49.9281 124.231 50.0126 124.798 50.0126H124.798C126.531 50.0126 128.738 49.155 129.734 46.7489C130.823 44.1178 129.135 42.3108 128.091 41.7232C127.634 41.4663 127.092 41.3359 126.481 41.3359C124.614 41.3359 122.571 42.5398 121.625 44.1979Z" fill="#4381C0"/>
<path d="M152.16 43.9541C152.238 43.6071 152.32 43.2612 152.401 42.9145C152.606 42.0484 152.818 41.1529 152.965 40.2633C153.144 39.1764 153.34 38.0899 153.535 37.003L153.735 35.8919C153.884 35.0567 154.014 34.2014 154.139 33.374C154.389 31.717 154.648 30.0034 155.081 28.3412L155.081 28.2951L155.07 28.2805C155.055 28.2608 155.029 28.25 154.999 28.25C154.956 28.25 154.902 28.2731 154.887 28.323C154.345 30.1319 154.035 32.0097 153.736 33.8257C153.606 34.6206 153.47 35.4421 153.318 36.2408C153.063 37.5775 152.826 38.9366 152.597 40.251L152.532 40.6241C152.437 41.1685 152.302 41.7271 152.171 42.267C152.037 42.8214 151.898 43.3941 151.804 43.9511C150.512 43.9411 149.218 43.9314 147.923 43.9314C146.402 43.9314 145.066 43.9452 143.84 43.9724C143.15 43.9876 142.462 43.9929 141.774 43.9929C141.068 43.9929 140.363 43.9873 139.659 43.9817C138.953 43.9765 138.249 43.9709 137.543 43.9709C136.542 43.9709 135.713 43.9821 134.934 44.0063C134.857 44.0085 134.81 44.0703 134.81 44.1291C134.809 44.1846 134.849 44.2256 134.907 44.2282C136.826 44.3168 138.882 44.3578 141.375 44.3578C143.191 44.3578 145.043 44.3358 146.833 44.3146C148.622 44.293 150.471 44.2714 152.283 44.2714C152.761 44.2714 153.239 44.2725 153.716 44.2758L154.287 44.2803C155.999 44.293 157.774 44.306 159.535 44.306C160.911 44.306 162.119 44.2982 163.227 44.2814C163.92 44.2714 164.601 44.2684 165.276 44.2684C165.791 44.2684 166.301 44.2703 166.812 44.2721C167.32 44.2736 167.828 44.2751 168.338 44.2751C169.563 44.2751 170.513 44.2647 171.418 44.2405C171.5 44.2382 171.549 44.169 171.548 44.106C171.548 44.0487 171.506 44.0089 171.445 44.0089C171.235 44.0107 170.816 44.0115 170.815 44.0115C169.668 44.0115 168.511 43.9858 167.391 43.9612C166.272 43.9359 165.114 43.9106 163.967 43.9106C163.537 43.9106 163.107 43.9143 162.675 43.9225C160.822 43.959 158.867 43.9765 156.698 43.9765C155.566 43.9765 154.438 43.9716 153.324 43.9631L152.16 43.9541Z" fill="#4381C0"/>
<path d="M176.492 24.491C176.543 24.6608 176.62 24.8589 176.704 25.0726C176.828 25.3887 176.968 25.7473 177.052 26.0728C177.015 26.1927 176.89 26.266 176.247 26.3814L175.573 26.4217C175.228 26.4295 174.884 26.438 174.538 26.4567C173.566 26.5114 172.829 26.5356 172.148 26.5356L171.997 26.5352C171.496 26.5322 170.992 26.5244 170.486 26.5162C169.858 26.5066 169.228 26.4965 168.597 26.4965C167.633 26.4965 166.842 26.52 166.106 26.5713C164.937 26.6521 163.802 26.6629 162.846 26.6629C162.468 26.6629 162.091 26.6611 161.713 26.6592L160.807 26.6555C160.394 26.6547 159.982 26.6231 159.584 26.5926C159.185 26.5617 158.772 26.53 158.357 26.5293L158.266 26.5289C157.899 26.5289 157.292 26.5289 156.835 26.4533C156.987 25.6795 157.052 24.9989 157.121 24.2791C157.183 23.6394 157.246 22.9785 157.377 22.2449C157.555 21.237 157.729 20.1545 157.922 18.8375C157.948 18.6573 157.974 18.4555 158.002 18.2406C158.135 17.207 158.301 15.9212 158.698 15.3254C159.405 15.0812 162.081 14.9378 162.363 14.9289C162.567 14.9229 162.769 14.9199 162.971 14.9199C163.698 14.9199 164.429 14.9568 165.136 14.9918L165.519 15.0108C167.586 15.1132 170.159 15.2413 171.73 16.3219C173.543 17.5693 174.531 19.6537 175.387 21.6816L175.611 22.2066C175.928 22.945 176.256 23.7083 176.492 24.491ZM167.447 26.9627C169.092 26.9567 170.775 26.8908 172.402 26.8271C173.219 26.7951 174.036 26.7635 174.852 26.7382C174.852 26.7382 175.27 26.7423 175.386 26.7423C176.688 26.7423 177.355 26.5229 177.423 26.0806C177.446 26.0258 177.456 25.9495 177.452 25.8404C177.01 23.8732 176.109 21.9683 175.373 20.528L175.151 20.0901C174.216 18.2414 173.333 16.495 171.292 15.5083C170.571 15.159 169.822 15.0704 169.028 14.9762C168.747 14.9427 168.462 14.9091 168.174 14.863C167.116 14.6924 166.051 14.6027 165.009 14.5971L164.426 14.5919C164.107 14.5889 163.79 14.5859 163.473 14.5859C162.768 14.5859 161.924 14.599 161.021 14.6928C160.866 14.7088 160.684 14.7233 160.491 14.7382C159.761 14.7952 158.854 14.8663 158.543 15.1065L158.517 15.1359L158.513 15.1456C158.039 15.8073 157.908 16.5769 157.782 17.3213C157.749 17.5164 157.716 17.71 157.678 17.8999C157.533 18.6104 157.403 19.3208 157.272 20.0316C157.16 20.6449 157.048 21.2578 156.926 21.8711C156.821 22.3969 156.767 22.929 156.715 23.4435C156.666 23.9194 156.616 24.4117 156.526 24.895C156.384 25.6587 156.367 25.8721 156.39 26.6507C156.395 26.829 156.533 26.9113 156.657 26.9113H156.665C156.866 26.9362 157.087 26.9385 157.283 26.9407C157.446 26.9422 157.595 26.9437 157.71 26.9582C158.518 27.0591 159.405 27.1124 160.276 27.1124H160.312C161.519 27.1101 162.749 27.0733 163.939 27.0375C165.09 27.0029 166.28 26.9668 167.447 26.9627Z" fill="#4381C0"/>
<path d="M146.868 26.4964C145.873 26.4964 145.068 26.5236 144.336 26.5821C143.307 26.664 142.297 26.6748 141.443 26.6748C141.085 26.6748 140.728 26.6729 140.371 26.6707C140.043 26.6684 139.716 26.6662 139.39 26.6662H139.298C138.531 26.6662 135.977 26.6498 135.346 26.4536C134.985 25.9383 135.532 24.7229 136.194 23.8121C136.432 23.4837 136.664 23.1508 136.896 22.8175C137.418 22.0669 137.959 21.2909 138.568 20.5841L138.965 20.1202C139.726 19.2269 140.444 18.3831 141.391 17.634C142.356 16.871 143.034 16.5094 144.186 15.9878C144.827 15.783 145.14 15.6977 145.737 15.5968C146.7 15.4341 147.424 15.3827 148.263 15.3235C148.566 15.3026 148.883 15.2799 149.23 15.2509C150.424 15.1511 151.43 15.0852 152.462 15.0852C152.585 15.0852 153.037 15.0897 153.037 15.0897C153.179 15.0897 153.326 15.0878 153.474 15.0856C153.628 15.0841 153.783 15.0822 153.938 15.0822C154.794 15.0822 155.635 15.1436 155.988 15.5771C156.114 15.9766 155.924 16.976 155.785 17.7055C155.746 17.9151 155.709 18.1072 155.684 18.2644C155.632 18.5816 155.585 18.8974 155.537 19.2124C155.433 19.902 155.325 20.6147 155.181 21.3229C155.002 22.1972 154.785 23.2286 154.535 24.2481C154.507 24.3628 154.479 24.4928 154.45 24.632C154.33 25.1891 154.181 25.8824 153.887 26.276C153.637 26.413 153.242 26.4767 152.645 26.4767C152.415 26.4767 152.186 26.4677 151.98 26.4592C151.809 26.4525 151.653 26.4461 151.525 26.4461C151.474 26.4461 151.427 26.4473 151.386 26.4495C150.663 26.4886 150.013 26.5202 149.373 26.5202L149.192 26.5195L148.395 26.5098C147.888 26.5035 147.378 26.4964 146.868 26.4964ZM156.256 15.513C156.099 15.0762 155.692 14.826 155.046 14.7698C154.38 14.7117 153.539 14.6797 152.678 14.6797C151.729 14.6797 150.818 14.7184 150.113 14.7899C149.548 14.8469 148.971 14.8804 148.414 14.9128C146.602 15.0182 144.891 15.1172 143.408 15.9706C142.363 16.4618 141.38 17.1276 140.219 18.1296C138.854 19.3088 137.682 20.8746 136.813 22.1071L136.702 22.2642C135.987 23.2681 134.09 25.9345 134.96 26.7615C135.157 26.9902 135.709 27.1063 136.601 27.1063C136.77 27.1063 136.918 27.1022 137.023 27.0993L137.213 27.0963C137.826 27.0963 138.443 27.1056 139.061 27.1145C139.683 27.1238 140.308 27.1331 140.933 27.1331C142.099 27.1331 143.045 27.0993 143.91 27.027C145.337 26.9075 146.785 26.8825 148.185 26.8591C148.885 26.8468 149.585 26.8349 150.284 26.8118C150.554 26.8029 150.856 26.8003 151.173 26.8003L152.51 26.8051C153.003 26.8051 153.355 26.7991 153.67 26.7828C153.686 26.7839 153.703 26.785 153.733 26.785C153.744 26.785 153.757 26.7846 153.772 26.7846C154.081 26.7105 154.159 26.6364 154.4 26.4067C154.854 25.6471 155.04 24.3297 155.164 23.458C155.21 23.1281 155.251 22.8432 155.293 22.6719C155.563 21.5884 155.702 20.5119 155.836 19.4708C155.888 19.0727 155.939 18.674 155.998 18.2714C156.031 18.0428 156.085 17.7926 156.14 17.5349C156.279 16.8818 156.423 16.206 156.304 15.6761C156.289 15.6095 156.273 15.5555 156.256 15.513Z" fill="#4381C0"/>
<path d="M162.76 30.9608C162.437 31.0126 162.114 31.042 161.799 31.0487L161.64 31.0584C161.452 31.0699 161.262 31.0815 161.075 31.0815C160.96 31.0815 160.846 31.077 160.735 31.0655C160.534 31.045 160.328 31.0387 160.122 31.032C159.791 31.0223 159.448 31.0119 159.135 30.9378C158.941 30.8972 158.754 30.8491 158.585 30.7966C158.486 30.7479 158.371 30.6708 158.385 30.5792C158.41 30.4094 158.836 30.2314 159.105 30.1882C159.623 30.1242 160.264 30.0892 160.913 30.0892C161.86 30.0892 162.678 30.1625 163.049 30.2813C163.226 30.3375 163.339 30.4474 163.336 30.5606C163.332 30.7169 163.121 30.8629 162.76 30.9608ZM161.629 29.827C161.522 29.827 161.01 29.8322 161.01 29.8322L160.648 29.827C160.494 29.8237 160.33 29.8203 160.162 29.8203C159.704 29.8203 159.118 29.8427 158.647 30.0188C158.072 30.234 158.002 30.4969 158.011 30.6343C158.027 30.873 158.286 31.0778 158.686 31.1697C159.237 31.296 160.092 31.4471 161.036 31.4471C161.936 31.4471 162.709 31.3086 163.335 31.0357C163.652 30.8972 163.716 30.7311 163.713 30.616C163.707 30.3759 163.421 30.1595 163.126 30.0422C162.648 29.8531 162.124 29.827 161.629 29.827Z" fill="#4381C0"/>
<path d="M140.049 30.9608C139.726 31.0126 139.403 31.042 139.088 31.0487L138.93 31.0584C138.741 31.0699 138.551 31.0815 138.364 31.0815C138.249 31.0815 138.136 31.077 138.024 31.0655C137.824 31.045 137.618 31.0387 137.412 31.032C137.08 31.0223 136.738 31.0119 136.425 30.9378C136.232 30.8975 136.045 30.8495 135.874 30.7966C135.776 30.7479 135.661 30.6708 135.674 30.5792C135.7 30.4094 136.126 30.231 136.395 30.1882C136.912 30.1242 137.554 30.0892 138.202 30.0892C139.149 30.0892 139.968 30.1625 140.339 30.2813C140.516 30.3375 140.628 30.4474 140.626 30.5606C140.622 30.7169 140.411 30.8629 140.049 30.9608ZM138.325 31.4471C139.225 31.4471 139.999 31.3086 140.624 31.0357C140.941 30.8972 141.005 30.7311 141.002 30.616C140.997 30.3762 140.711 30.1595 140.416 30.0422C139.938 29.8531 139.414 29.827 138.919 29.827C138.811 29.827 138.3 29.8322 138.3 29.8322L137.938 29.827C137.783 29.8237 137.62 29.8203 137.451 29.8203C136.994 29.8203 136.408 29.8427 135.937 30.0188C135.362 30.234 135.291 30.4969 135.301 30.6343C135.317 30.873 135.575 31.0778 135.975 31.1697C136.526 31.296 137.381 31.4471 138.325 31.4471Z" fill="#4381C0"/>
<path d="M270.724 36.5736C270.79 36.2277 270.846 35.8821 270.902 35.5355C270.955 35.2056 271.009 34.8749 271.071 34.5442C271.233 33.6834 271.425 32.8094 271.611 31.9634C271.804 31.0903 272.002 30.1877 272.167 29.3004C272.443 27.8173 272.832 26.1271 273.323 24.2765L273.403 23.9652C273.602 23.1874 273.828 22.3056 274.331 21.6749C274.572 21.374 275.064 20.9153 275.653 20.6163C277.302 20.0961 279.056 20.0358 280.232 20.0358H280.269C282.346 20.0358 284.439 19.997 286.404 19.9576C286.689 19.9516 286.97 19.9494 287.249 19.9494C288.515 19.9494 289.804 20.0063 291.43 20.1348C291.632 20.1508 291.825 20.162 292.013 20.1724C292.546 20.2029 293.048 20.232 293.596 20.3645C294.634 20.6148 295.379 21.0601 295.937 21.7601C296.226 22.3097 296.611 23.4007 296.685 23.6938C296.774 24.046 296.838 24.3551 296.908 24.6951C296.973 25.0149 297.045 25.3627 297.149 25.7998C297.356 26.6704 297.533 27.5685 297.709 28.6271C297.761 28.9462 297.81 29.3756 297.876 29.9699C297.924 30.391 297.98 30.8877 298.052 31.4723C298.188 32.5682 298.21 33.165 298.235 33.8554C298.249 34.2519 298.265 34.6813 298.304 35.2558C298.362 36.116 298.402 37.0048 298.3 37.678C298.286 37.7718 298.274 37.8642 298.262 37.9547C298.181 38.575 298.117 39.065 297.521 39.262C296.544 39.2665 295.525 39.3078 294.539 39.3469C293.484 39.3893 292.392 39.4333 291.347 39.4333H291.21C290.036 39.4284 288.864 39.4132 287.692 39.3979C286.318 39.38 284.897 39.3614 283.496 39.3614C279.67 39.361 275.669 39.3246 271.919 39.2851C271.539 39.2516 271.238 39.093 271.026 38.8133C270.473 38.0846 270.678 36.8197 270.724 36.5736ZM298.309 30.5831C298.205 29.9259 298.159 29.4932 298.118 29.1116C298.087 28.8144 298.057 28.5385 298.006 28.1971C297.911 27.56 297.766 26.9452 297.626 26.3505C297.536 25.9678 297.446 25.5835 297.367 25.1903C297.16 24.151 296.944 23.3978 296.666 22.7491C296.642 22.6914 296.612 22.5991 296.577 22.4877C296.469 22.1474 296.305 21.6335 296.038 21.3762C295.135 20.1944 293.728 19.9795 292.244 19.8488C290.639 19.7081 288.927 19.5703 287.186 19.5703C287.054 19.5703 286.922 19.5711 286.79 19.5729C286.305 19.5781 285.82 19.5889 285.335 19.599C284.602 19.6143 283.869 19.6299 283.138 19.6299H283.035C282.704 19.6291 282.365 19.615 282.021 19.6008C281.661 19.5863 281.297 19.5711 280.934 19.5711C280.48 19.5711 280.105 19.5941 279.756 19.6444C279.333 19.7047 278.903 19.7215 278.449 19.7394C277.547 19.7744 276.615 19.8101 275.754 20.2145C275.474 20.2912 274.79 20.735 274.659 20.8475C274.001 21.4161 273.478 22.233 273.327 22.9282C273.095 23.9909 272.821 25.0726 272.555 26.1193C272.292 27.1586 272.02 28.2332 271.789 29.2896C271.688 29.7516 271.576 30.2108 271.465 30.6695C271.302 31.3424 271.133 32.0383 271.002 32.7309L270.899 33.2775C270.744 34.097 270.578 34.9695 270.437 35.7592L270.383 36.056C270.289 36.5654 270.233 36.8726 270.227 37.2386L270.222 37.4207C270.211 37.8917 270.202 38.2317 270.483 38.7314L270.563 38.8774C270.757 39.2356 270.924 39.545 271.384 39.5681C271.713 39.6686 272.619 39.6835 273.144 39.6835C273.626 39.6835 274.135 39.6746 274.645 39.6656C275.154 39.6563 275.663 39.6474 276.158 39.6474H276.158C277.372 39.6478 278.6 39.679 279.787 39.7092C280.977 39.7397 282.209 39.771 283.458 39.771C284.612 39.771 285.763 39.7848 286.914 39.7986C288.065 39.812 289.216 39.8257 290.369 39.8257H290.371C290.749 39.8257 291.127 39.8243 291.506 39.8209C291.999 39.8164 292.496 39.7971 292.992 39.7777C293.523 39.7572 294.073 39.736 294.61 39.7338C294.923 39.733 295.225 39.714 295.518 39.6954C295.773 39.6794 296.029 39.663 296.297 39.6578L296.671 39.6574C296.966 39.6574 297.273 39.6507 297.518 39.6046C297.691 39.59 298.276 39.4843 298.511 38.7277C298.719 38.0585 298.718 37.3719 298.717 36.7076L298.716 36.6038C298.715 34.3156 298.577 32.29 298.309 30.5831Z" fill="#4381C0"/>
<path d="M280.445 66.3613C278.552 64.5197 274.848 62.7573 269.581 63.1036C267.818 63.219 263.035 64.2095 259.286 67.8493C257.707 69.3822 256.48 71.387 255.945 73.4514C255.88 73.7005 255.817 73.9444 255.754 74.1856L255.234 74.1849C255.015 74.1849 254.794 74.1916 254.573 74.1987C254.355 74.2054 254.137 74.2124 253.924 74.2124L253.84 74.2121C253.639 74.2102 253.437 74.1998 253.233 74.1886C253.009 74.1767 252.783 74.1648 252.557 74.1648C252.428 74.1648 252.299 74.1685 252.17 74.1786C252.245 73.7977 252.32 73.3884 252.393 73.0001C252.439 72.7517 252.483 72.5119 252.524 72.2926C252.651 71.6275 252.761 70.9532 252.868 70.3016C252.92 69.9799 252.973 69.6582 253.028 69.3361C253.149 68.62 253.422 67.1261 253.738 65.3962C253.946 64.2605 254.171 63.0291 254.361 61.8908C254.404 61.87 254.431 61.8387 254.434 61.8022C254.437 61.7754 254.427 61.7493 254.406 61.7277C254.575 60.789 254.733 59.8991 254.864 59.1413C255.222 59.1473 255.623 59.1547 256.005 59.1931C256.144 59.2069 256.283 59.2125 256.419 59.2125C256.676 59.2125 256.935 59.1927 257.184 59.1737C257.437 59.1547 257.699 59.135 257.971 59.135C258.662 59.135 259.365 59.1097 260.046 59.0851C260.529 59.0676 261.012 59.0501 261.495 59.0412C262.428 59.024 263.385 58.9816 264.312 58.9403C265.527 58.8866 266.784 58.8308 268.004 58.8308C268.292 58.8308 268.579 58.8341 268.865 58.8408L269.45 58.8546C271.861 58.9094 274.354 58.9667 276.678 59.4731C277.946 59.7498 278.93 59.9981 279.92 60.3805C280.374 60.5555 280.644 60.6989 280.986 60.8802C281.106 60.9439 281.235 61.0128 281.385 61.0891C281.447 61.1212 281.528 61.1733 281.618 61.2314L281.712 61.2917C283.194 62.3153 284.557 63.9336 285.761 66.1033C286.475 67.3887 286.898 68.7183 287.218 69.8496C287.557 71.0485 287.704 73.0514 287.562 74.5249L287.223 74.5245C285.687 74.5245 284.017 74.5353 282.944 74.5584C283.189 71.4496 282.59 68.4484 280.445 66.3613ZM281.852 77.6579C280.384 85.1854 271.967 89.5837 265.315 89.599C260.953 89.609 257.616 87.2889 256.261 83.4752C255.177 80.4267 255.598 77.3812 256.461 74.0106C257.634 69.4385 261.493 66.1688 265.932 64.6202C270.555 63.0071 275.003 64.1834 275.259 64.265C276.87 64.7818 279.12 65.7205 280.214 67.0163C281.495 68.5329 282.515 70.2282 282.52 72.4467C282.524 74.1897 282.196 75.8873 281.852 77.6579ZM154.422 89.6019C150.082 89.6138 146.797 87.3213 145.491 83.5664C144.451 80.5797 144.886 77.5931 145.757 74.2903C146.937 69.8172 150.741 66.571 155.123 64.9795C159.714 63.3128 164.156 64.3755 164.413 64.4504C166.031 64.9266 168.299 65.8087 169.407 67.0673C170.709 68.5448 171.752 70.2093 171.764 72.4129C171.775 74.1473 171.447 75.8426 171.102 77.6121C169.629 85.156 161.097 89.5826 154.422 89.6019ZM109.986 43.8122L110.032 43.4435C110.244 41.7125 110.599 38.8148 112.114 38.1576C112.472 38.0019 112.785 37.923 113.045 37.923C113.345 37.923 113.582 38.0299 113.749 38.2406C114.446 39.1171 113.869 41.5661 113.523 43.0295C113.454 43.3244 113.394 43.5772 113.357 43.7656L113.206 43.7649C113 43.7649 112.793 43.7686 112.586 43.7783C112.188 43.7954 111.675 43.7969 111.178 43.7984C110.748 43.7999 110.325 43.801 109.986 43.8122ZM140.332 16.0456C139.917 16.489 139.53 16.8439 139.121 17.2189C138.871 17.4482 138.615 17.6825 138.345 17.945C138.121 18.162 137.883 18.4283 137.68 18.6588C137.591 18.7515 137.509 18.8449 137.446 18.9157C137.408 18.9585 137.377 18.9935 137.357 19.0144C137.056 19.3275 136.765 19.6451 136.473 19.9657C135.836 20.6632 135.223 21.3974 134.63 22.1075L134.4 22.3831C134.079 22.7666 133.747 23.1404 133.415 23.5143C133.063 23.9105 132.699 24.3208 132.355 24.7356C132.278 24.8287 132.199 24.9266 132.119 25.0264C131.675 25.5757 131.172 26.1979 130.584 26.524C130.3 26.616 129.941 26.7221 129.778 26.7508C129.552 26.791 129.333 26.8279 129.118 26.8644C128.681 26.9385 128.255 27.01 127.796 27.1038C127.454 27.1738 127.146 27.2349 126.859 27.2922C126.134 27.4367 125.553 27.5521 124.893 27.71C124.972 27.6169 125.048 27.5208 125.123 27.4278C125.214 27.3142 125.302 27.204 125.387 27.1083C125.605 26.8603 125.832 26.6194 126.058 26.3781C126.292 26.129 126.525 25.8802 126.75 25.6241C127.639 24.6094 128.594 23.5523 129.667 22.3924C130.648 21.333 131.713 20.2227 132.848 19.2813L133.002 19.1536C133.964 18.3564 134.958 17.532 135.972 16.7538C136.349 16.4697 136.809 16.1521 137.262 15.8635C137.879 15.6352 138.735 15.4461 139.331 15.3448C139.542 15.3098 139.771 15.2893 139.96 15.2893C140.322 15.2893 140.543 15.3575 140.6 15.487C140.653 15.6088 140.56 15.8021 140.332 16.0456ZM174.775 15.8363C174.723 15.7566 174.71 15.693 174.738 15.6419C174.785 15.557 174.967 15.4554 175.573 15.4554C176.134 15.4554 176.768 15.5459 176.807 15.5541C177.316 15.6591 177.79 15.8251 178.207 16.043C178.356 16.1748 178.503 16.3096 178.645 16.4526C179.9 17.7178 180.773 19.16 181.696 20.6874C181.895 21.0158 182.095 21.3461 182.3 21.6767C182.565 22.1049 182.814 22.5551 183.054 22.9896C183.284 23.4063 183.521 23.8364 183.774 24.2475C184.085 24.7539 184.325 25.2979 184.557 25.8236C184.696 26.1368 184.839 26.4596 184.995 26.7728C184.494 26.6972 183.977 26.6231 183.343 26.5382C182.723 26.4548 181.657 26.3848 181.016 26.3848L180.969 26.4027C180.907 26.2988 180.86 26.2165 180.814 26.1338C180.749 26.0206 180.686 25.9074 180.582 25.7406C180.131 25.0145 179.778 24.3659 179.369 23.6148L179.332 23.5482C178.957 22.8601 178.548 22.1772 178.154 21.517C177.695 20.7503 177.221 19.9575 176.796 19.1518C176.195 18.0112 175.526 16.9873 174.818 15.903L174.775 15.8363ZM171.958 76.438C172.026 76.0657 172.079 75.6918 172.125 75.3191C175.691 75.3682 180.5 75.3924 185.507 75.3924C190.431 75.3924 195.517 75.3697 200.435 75.3481C205.033 75.3273 209.376 75.3079 213.337 75.3076C215.998 75.3076 218.663 75.3001 221.328 75.2919C224.018 75.2845 226.707 75.2763 229.395 75.2763C231.387 75.2763 233.378 75.2807 235.366 75.2923L236.13 75.2968C238.946 75.3128 241.376 75.3262 244.196 75.4289C244.987 75.4576 245.942 75.4803 246.959 75.5001C246.8 76.1327 246.667 76.8163 246.529 77.707C246.47 78.0853 246.359 78.5418 246.251 78.9827C246.184 79.2564 246.119 79.5275 246.065 79.7788L245.995 79.7777C245.906 79.7777 245.881 79.7833 245.883 79.787C245.857 79.787 245.322 79.803 245.29 79.803C245.29 79.803 244.638 79.7989 244.638 79.7989C244.266 79.7918 243.9 79.7874 243.533 79.7874C243.24 79.7874 242.946 79.7903 242.647 79.7978C242.398 79.8037 242.152 79.806 241.909 79.806C241.298 79.806 240.702 79.7904 240.104 79.7743C239.534 79.7594 238.962 79.7446 238.376 79.7431C236.82 79.739 235.247 79.711 233.726 79.6835C232.188 79.6563 230.597 79.628 229.024 79.6243C225.129 79.615 221.231 79.6127 217.334 79.6127L208.765 79.6139C207.296 79.6139 205.828 79.6161 204.361 79.6183C202.896 79.6202 201.433 79.6224 199.97 79.6224C196.462 79.6224 192.307 79.6116 188.077 79.5312C185.808 79.4884 183.43 79.4671 180.805 79.4671C178.288 79.4671 174.418 79.4865 171.121 79.5271C171.502 78.5042 171.774 77.4601 171.958 76.438ZM144.969 74.8306C141.084 74.8298 136.362 74.8183 132.118 74.7416L130.345 74.7088C126.829 74.6433 124.288 74.5964 121.229 74.5964C119.77 74.5964 118.242 74.6075 116.561 74.6302C116.623 74.3543 116.683 74.0803 116.736 73.8017L117.109 71.8137C117.226 71.1871 117.346 70.655 117.461 70.1407C117.582 69.6038 117.706 69.0486 117.827 68.3903C118.199 66.3758 118.667 63.8885 119.113 61.562C124.495 61.6398 140.784 61.6793 167.532 61.6793C181.42 61.6793 195.294 61.6689 204.924 61.6618C209.933 61.6581 213.792 61.6551 215.91 61.6547C218.572 61.6547 221.237 61.6473 223.902 61.6391C226.592 61.6317 229.282 61.6235 231.97 61.6235C233.962 61.6235 235.951 61.6279 237.939 61.6395L238.705 61.6439C241.52 61.66 243.95 61.6734 246.769 61.7761C248.663 61.8446 251.516 61.8815 253.821 61.9109C253.223 65.1139 252.622 68.5255 252.45 69.6913C252.314 70.6114 252.14 71.5464 251.971 72.4505L251.938 72.627C251.893 72.8679 251.839 73.1144 251.785 73.3627C251.666 73.9026 251.543 74.4608 251.509 74.9933C251.44 74.9907 251.364 74.9881 251.303 74.9881C251.202 74.9881 251.182 74.9951 251.185 74.997C251.16 74.997 250.6 75.013 250.566 75.013C250.566 75.013 249.884 75.0093 249.884 75.0093C249.496 75.0022 249.113 74.9978 248.73 74.9978C248.423 74.9978 248.115 75.0007 247.803 75.0082C247.544 75.0138 247.287 75.0164 247.032 75.0164C246.394 75.0164 245.771 75.0007 245.145 74.9851C244.549 74.9698 243.952 74.9549 243.338 74.9534C241.711 74.949 240.067 74.921 238.476 74.8939C236.868 74.8667 235.206 74.8384 233.562 74.8347C229.485 74.8246 225.405 74.8231 221.326 74.8231L212.392 74.8242C210.855 74.8242 209.32 74.8261 207.786 74.8283C206.253 74.8306 204.722 74.8328 203.191 74.8328C199.526 74.8328 195.182 74.822 190.76 74.7416C188.352 74.6976 185.83 74.6764 183.05 74.6764C180.073 74.6764 176.175 74.7006 172.184 74.7539C172.473 71.5695 171.879 68.4972 169.64 66.4161C167.724 64.6358 164 62.9796 158.745 63.4268C156.995 63.5754 152.267 64.6351 148.565 68.2447C147.008 69.7621 145.794 71.7318 145.256 73.7507C145.158 74.1205 145.062 74.4776 144.969 74.8306ZM174.889 53.7079C175.141 53.8431 175.46 53.9712 175.82 54.0836C175.124 54.0847 174.574 54.0873 174.025 54.0896C173.232 54.0929 172.434 54.0967 171.178 54.0967H171.102C169.566 54.0967 168.03 54.0985 166.496 54.1007C164.964 54.103 163.432 54.1052 161.902 54.1052C158.236 54.1052 153.893 54.0944 149.47 54.014C146.894 53.9671 135.445 53.9555 127.125 53.9533C128.109 53.6472 128.923 53.2939 129.802 52.599L130.08 52.3812C130.895 51.7441 131.817 51.0225 132.6 49.9266C133.908 49.9616 135.391 49.9784 137.133 49.9784C138.72 49.9784 140.308 49.965 141.819 49.952L141.924 49.9508C142.751 49.9438 143.617 49.9412 144.506 49.9412C145.492 49.9412 146.507 49.9445 147.529 49.9475C148.564 49.9505 149.606 49.9538 150.633 49.9538C152.402 49.9538 153.787 49.9441 154.99 49.9233C157.8 49.8764 159.85 49.8559 161.844 49.8559C163.213 49.8559 164.544 49.8656 165.914 49.8861C167.651 49.9117 169.241 49.9233 171.071 49.9233H171.329C171.506 49.9233 171.67 49.914 171.832 49.905C171.973 49.8965 172.114 49.889 172.261 49.8872C172.388 50.2845 172.551 50.6922 172.772 51.1673C173.368 52.4445 174.04 53.2518 174.889 53.7079ZM185.074 43.8397C184.876 44.0941 184.678 44.3495 184.475 44.5982C184.043 45.127 183.586 45.6557 183.145 46.167C182.507 46.9065 181.847 47.6713 181.245 48.4514C180.99 48.7828 180.638 49.1972 180.231 49.6608C179.518 49.6295 178.896 49.447 178.43 49.1134C177.699 48.5895 177.222 47.7506 177.12 46.8115C177 45.7075 177.383 44.6016 178.198 43.6964C179.421 42.3384 180.579 41.7329 181.953 41.7329C182.286 41.7329 182.643 41.7694 183.008 41.8402C183.947 42.1634 184.689 42.8887 185.074 43.8397ZM188.236 39.6846C188.245 39.6961 188.265 39.7189 188.287 39.7457C188.167 39.8868 188.049 40.0268 187.928 40.1687C187.253 40.9588 186.623 41.797 186.014 42.6076C185.798 42.8951 185.578 43.187 185.355 43.4782C185.003 42.7487 184.417 42.1064 183.744 41.7281C183.287 41.4708 182.745 41.3408 182.134 41.3408C180.267 41.3408 178.224 42.5443 177.278 44.2024C176.577 45.4297 176.426 46.8383 176.872 47.9706C177.218 48.8479 177.902 49.4858 178.799 49.7673C179.164 49.8816 179.547 49.9549 179.941 49.9903C179.615 50.3578 179.264 50.7484 178.905 51.148C178.08 52.0643 177.232 53.0075 176.636 53.7481C174.924 53.1985 173.616 51.9794 172.948 50.2785C172.16 48.2723 172.455 46.2139 172.891 44.2884C173.502 41.5922 175.737 39.3111 178.869 38.1862C179.939 37.8027 181.113 37.608 182.36 37.608C183.898 37.608 184.963 37.9073 184.973 37.9103C185.861 38.1874 187.465 38.7869 188.236 39.6846ZM132.582 39.6846C133.287 40.5053 134.097 41.6451 134.105 43.1929C134.111 44.3275 133.892 45.4561 133.68 46.5475C132.887 50.63 128.71 53.3516 124.731 53.9529H124.037C123.293 53.9529 122.538 53.9529 121.776 53.9533C119.697 53.5597 118.068 52.2494 117.294 50.2785C116.506 48.2723 116.801 46.2139 117.237 44.2884C117.848 41.5922 120.083 39.3111 123.215 38.1862C124.284 37.8027 125.459 37.608 126.706 37.608C128.244 37.608 129.309 37.9073 129.319 37.9103C130.207 38.1874 131.811 38.7865 132.582 39.6846ZM81.5222 58.8803L81.5054 58.833L81.4878 58.8248C81.2032 58.6878 80.8304 58.6264 80.47 58.5668C80.3326 58.5444 80.1985 58.5221 80.0752 58.4968C79.6774 58.4141 79.3991 58.3653 79.156 58.3356C79.1986 57.9163 79.1762 57.5547 79.1478 57.0993L79.147 57.0882C80.2384 57.2837 81.4546 57.4605 82.5288 57.6162L82.7447 57.6474C85.7736 58.0876 88.5051 58.4893 91.2702 58.9511C92.0452 59.0803 92.8177 59.2158 93.5894 59.3536C92.8154 59.9251 92.0673 60.5518 91.343 61.1588C90.8504 61.5713 90.3413 61.9981 89.8284 62.4035C89.0881 62.9885 88.2335 63.6167 87.4794 64.1704L87.0204 64.5107C86.3958 64.7181 85.5043 64.892 84.3706 65.0275L84.0741 65.0625C83.5194 65.1273 82.946 65.194 82.391 65.3064C81.4957 65.487 80.5832 65.6367 79.7006 65.7812C78.8841 65.9152 78.0396 66.0538 77.21 66.2165C76.5574 66.3446 75.8892 66.4473 75.2427 66.5471L74.821 66.6123C74.8512 66.5613 74.8804 66.5099 74.9091 66.46C74.9648 66.3621 75.0182 66.2682 75.0723 66.1889L75.2868 65.8754C75.58 65.4476 75.8833 65.0052 76.1641 64.5587C76.3957 64.192 77.0819 63.117 77.6253 62.2982L77.6257 62.2989C77.6791 62.2989 77.737 62.2967 77.796 62.2948C77.8561 62.2926 77.917 62.2903 77.9746 62.2903L78.0407 62.2915C78.1453 62.2956 78.2495 62.2982 78.3645 62.2982C78.5602 62.2982 78.787 62.2907 79.1134 62.2717C79.1511 62.2717 79.184 62.2565 79.2087 62.2282C79.8227 61.5322 80.0737 61.1692 80.3382 60.7663C80.4917 60.5321 80.6325 60.3396 80.7714 60.1501C81.0153 59.8175 81.2454 59.5033 81.5297 58.9913C81.5547 58.9466 81.5483 58.8997 81.5222 58.8803ZM88.4573 67.2148C88.0486 67.2978 87.6628 67.3756 87.2336 67.4389C86.9255 67.4836 86.6166 67.5242 86.3069 67.5644C85.7149 67.6419 85.1027 67.7219 84.5036 67.8347C82.685 68.1766 80.8342 68.4823 79.2015 68.7518C78.5214 68.8643 77.8416 68.9693 77.1614 69.0743C75.8993 69.2694 74.5939 69.4712 73.3105 69.7177C71.9442 69.9799 70.5065 70.2204 69.1166 70.4528L67.9998 70.6404C68.203 70.3303 68.5874 69.8611 68.9927 69.3666C69.3819 68.8922 69.7841 68.4015 70.0594 68.0004L70.4456 67.9081C71.1172 67.7476 71.8116 67.5812 72.4828 67.4683C73.0789 67.3678 73.6743 67.2632 74.2641 67.1589C74.2831 67.1585 74.3029 67.1552 74.3182 67.15C75.4978 66.9426 76.4047 66.7754 77.2578 66.6093C78.5307 66.3613 79.5112 66.1971 80.6467 66.0068C81.3758 65.8847 82.1613 65.7529 83.1167 65.5835C83.435 65.5269 83.7895 65.4822 84.1323 65.4382C84.5391 65.3869 84.9597 65.3332 85.3362 65.2591C85.5719 65.213 85.7986 65.1772 86.0107 65.1441C86.3379 65.0931 86.6207 65.0488 86.8777 64.968C87.0794 64.8995 87.4917 64.6652 87.9579 64.2966C88.2279 64.0832 88.5376 63.8613 88.8367 63.6476C89.183 63.3996 89.5408 63.1434 89.8505 62.8913C91.2538 61.7463 92.6208 60.6188 93.9113 59.4113C95.0053 59.6079 96.0979 59.8093 97.1908 60.0108L98.6565 60.2807C98.4888 60.4077 98.3479 60.5183 98.1899 60.6419C97.9105 60.8612 97.5789 61.1212 96.9573 61.5847C96.5524 61.8867 96.0956 62.2129 95.6355 62.5421C95.1077 62.9196 94.562 63.3095 94.0932 63.664C93.5438 64.0799 93.0235 64.4537 92.502 64.828C91.9952 65.1917 91.4876 65.5559 90.9527 65.9595C90.5572 66.2582 90.2677 66.4645 89.4452 67.0237C89.0754 67.0896 88.7568 67.1541 88.4573 67.2148ZM256.965 25.3947C256.874 25.8158 256.746 26.5144 256.623 27.1906C256.517 27.7644 256.415 28.3218 256.342 28.6785C255.989 30.3884 255.657 32.1019 255.373 33.5742C255.212 34.4117 255.047 35.248 254.882 36.0839C254.479 38.1296 254.063 40.2446 253.709 42.3261C253.539 42.9911 253.431 43.5005 253.326 43.9931C253.247 44.3651 253.171 44.723 253.073 45.1229C252.836 46.0903 252.65 47.0744 252.47 48.0265L252.324 48.7887C252.183 49.5211 251.941 50.7119 251.66 52.0926C251.031 55.1884 250.17 59.4228 249.869 61.358L249.588 61.3591C248.952 61.3591 248.329 61.3446 247.705 61.3297C247.113 61.3159 246.519 61.3021 245.911 61.3006C244.284 61.2962 242.639 61.2682 241.049 61.2411C239.441 61.2139 237.779 61.1856 236.135 61.1818C232.057 61.1718 227.977 61.1703 223.898 61.1703L214.965 61.1714C213.428 61.1714 211.893 61.1733 210.358 61.1755C208.826 61.1778 207.294 61.18 205.764 61.18C202.098 61.18 197.755 61.1692 193.332 61.0888C190.418 61.0355 176.147 61.0277 167.899 61.0277C148.582 61.0277 123.039 61.0713 119.057 61.1271C119.018 61.1282 118.985 61.132 118.96 61.1372L116.36 61.1401C115.239 61.1416 114.079 61.1435 112.911 61.1435C109.679 61.1435 107.346 61.1293 105.352 61.0981C104.495 60.9439 103.693 60.7905 102.668 60.5861C102.236 60.4997 101.806 60.4088 101.376 60.318C100.56 60.1452 99.715 59.9665 98.8705 59.8239C97.7245 59.6314 96.5696 59.4079 95.4528 59.192C94.0357 58.9183 92.5704 58.6349 91.1066 58.4108L82.9285 57.1589C82.5501 57.1008 82.1781 57.045 81.8064 56.9895C80.9104 56.8551 79.9833 56.7162 79.0081 56.5494C78.6936 56.4957 78.3768 56.4507 78.0601 56.4053C77.7564 56.3621 77.4528 56.3185 77.1517 56.2679C76.4671 56.1524 75.7465 55.9845 75.1104 55.8356L74.9155 55.7901C75.0107 55.4334 75.1045 54.9955 75.1941 54.4865C80.5159 54.5647 96.8139 54.6045 123.637 54.6045C137.532 54.6045 151.416 54.5941 161.053 54.587C166.065 54.5833 169.929 54.5803 172.048 54.58C173.219 54.58 173.829 54.5748 174.494 54.5688C175.041 54.5636 175.625 54.5587 176.59 54.5558L176.609 54.5409L176.621 54.5275C176.669 54.5159 176.694 54.5051 176.708 54.4884C177.889 53.1382 180.345 50.1925 181.587 48.6755C182.092 48.0578 182.624 47.4426 183.14 46.848C183.635 46.2761 184.147 45.6848 184.635 45.0908C185.179 44.4295 185.699 43.7347 186.203 43.0634C186.797 42.2706 187.412 41.4507 188.068 40.6795C188.203 40.5217 188.341 40.3645 188.48 40.2063C188.879 39.752 189.292 39.2825 189.626 38.7861C189.865 38.4316 190.159 38.1162 190.444 37.8105C190.652 37.5882 190.866 37.3574 191.06 37.112C193.38 34.1693 196.157 31.3654 198.315 29.2516C198.713 28.8628 199.09 28.4841 199.463 28.1107C200.227 27.3443 200.948 26.6201 201.781 25.865C202.246 25.4435 202.854 24.8659 203.6 24.1421L204.354 23.4257C207.282 20.6408 210.048 18.0101 213.306 15.7067C216.986 13.1054 220.621 10.8307 224.11 8.94623C227.893 6.90199 231.804 5.07298 235.735 3.50983C239.539 1.99657 242.966 0.722742 246.38 0.463582C247.079 0.484434 247.829 0.494487 248.672 0.494487C249.701 0.494487 250.734 0.479595 251.767 0.464701C252.777 0.450179 253.787 0.435656 254.794 0.434912L256.625 0.43156C257.494 0.43156 258.521 0.437517 259.542 0.479221C259.85 0.492253 260.158 0.508265 260.465 0.524276C260.849 0.544011 261.233 0.564118 261.617 0.577523C261.667 0.579384 261.708 0.58013 261.744 0.58013C261.795 0.58013 261.931 0.57529 261.979 0.57529C261.755 1.63204 260.714 6.6622 260.6 7.21961C260.056 9.86148 259.496 12.446 259.07 14.4027C258.605 16.5352 258.209 18.7064 257.825 20.8061L257.606 22.0018C257.533 22.4009 257.45 22.805 257.366 23.2105C257.221 23.9142 257.072 24.6422 256.973 25.3511L257.01 25.3563L256.965 25.3947ZM306.119 32.3049C306.242 33.2246 306.334 34.1689 306.423 35.0819C306.536 36.2422 306.652 37.4423 306.835 38.6051C306.912 39.09 306.983 39.5532 307.05 40.0186L306.778 39.9899C305.868 39.895 304.928 39.7971 304.23 39.3886C303.709 38.3747 303.508 37.1567 303.314 35.9789C303.248 35.5842 303.184 35.1921 303.107 34.8116C302.957 34.0587 302.748 33.3166 302.546 32.599C302.325 31.8163 302.097 31.0065 301.946 30.1828C301.768 29.2099 301.57 28.2287 301.378 27.2799C301.223 26.5099 301.068 25.7399 300.92 24.9657C300.773 24.1857 300.582 23.3899 300.3 22.3849C300.259 22.2364 300.213 22.083 300.166 21.9266C300.009 21.3993 299.846 20.8549 299.793 20.3247C300.342 20.3884 300.969 20.4193 301.706 20.4193C302.398 20.4193 303.108 20.3925 303.737 20.3679C303.975 20.913 304.181 21.4794 304.381 22.0271L304.488 22.3194C304.535 22.541 304.619 22.8563 304.7 23.1613C304.779 23.4558 304.856 23.7411 304.892 23.9209C305.076 24.8328 305.126 25.2286 305.194 25.7771C305.215 25.9469 305.238 26.1316 305.267 26.3509C305.33 26.8227 305.425 27.2926 305.516 27.7472C305.618 28.2503 305.723 28.7712 305.785 29.2962C305.833 29.7043 305.875 30.1147 305.917 30.525C305.977 31.1107 306.039 31.7166 306.119 32.3049ZM253.139 61.3602C253.138 61.3602 252.456 61.3565 252.456 61.3565C252.069 61.3494 251.687 61.3446 251.303 61.3446C250.996 61.3446 250.689 61.3479 250.376 61.3554L250.202 61.3565C250.518 59.4474 251.207 56.1874 251.816 53.3088C252.137 51.7895 252.436 50.3764 252.645 49.3238C252.855 49.3476 253.124 49.3592 253.467 49.3592C253.711 49.3592 253.956 49.3532 254.175 49.3484C254.333 49.3446 254.478 49.3413 254.599 49.3405L254.967 49.3398C255.389 49.3394 255.825 49.3387 256.258 49.3137C256.13 49.9486 256.001 50.5712 255.867 51.1651C255.402 53.2425 254.962 55.204 254.706 57.3563C254.516 58.2618 254.247 59.6377 253.928 61.336L253.873 61.3353C253.774 61.3353 253.754 61.3423 253.758 61.3442C253.731 61.3442 253.172 61.3602 253.139 61.3602ZM305.681 53.4339C304.494 53.4339 303.656 53.6483 303.117 54.09C302.749 54.3916 302.621 55.0592 302.536 55.5012L302.506 55.6535C302.35 56.4179 302.178 57.1686 301.993 57.8843C301.479 59.8816 301.1 61.9143 300.728 63.903C300.651 64.3122 300.61 64.577 300.548 64.9661C300.512 65.1951 300.469 65.468 300.408 65.8385C300.382 65.9972 300.353 66.1576 300.325 66.3185C300.29 66.5136 300.255 66.7102 300.224 66.9061C299.78 66.9128 299.439 66.9455 299.155 67.0081L299.08 67.0234C298.844 67.0636 298.49 67.2055 298.297 67.3898C298.038 67.6381 297.911 67.8359 297.804 68.1538C297.09 70.2997 296.647 72.5413 296.446 73.6863C296.395 73.9708 296.343 74.2437 296.289 74.5107L295.559 74.5092C294.709 74.5092 293.857 74.5144 293.005 74.52C292.153 74.5256 291.301 74.5308 290.45 74.5308L288.088 74.5256C288.34 73.4957 288.157 71.9865 287.968 70.7812C287.705 69.1056 287.154 67.5428 286.331 66.1364L286.28 66.0497C285.272 64.3286 284.129 62.3779 282.399 61.2526C281.873 60.8043 281.226 60.4878 280.72 60.2621L280.684 60.2461C280.247 60.0506 279.751 59.8291 279.302 59.6712C278.331 59.3297 277.462 59.1775 276.455 59.0006L276.232 58.9615C273.615 58.4998 270.959 58.394 268.939 58.3534C268.699 58.3482 268.458 58.3464 268.216 58.3464C267.368 58.3464 266.43 58.3732 265.263 58.4301C264.605 58.4622 263.941 58.4715 263.299 58.4804C262.724 58.4882 262.148 58.4964 261.57 58.5199C260.995 58.5433 260.407 58.5523 259.819 58.5619C259.119 58.5727 258.396 58.5839 257.701 58.6204C257.354 58.6387 256.996 58.6472 256.607 58.6472C256.197 58.6472 255.801 58.6379 255.4 58.6279L254.954 58.6178C254.989 58.4067 255.022 58.2101 255.052 58.0306C255.224 57.2297 255.325 56.6086 255.423 56.0076C255.483 55.6397 255.541 55.283 255.613 54.9036C255.776 54.0389 255.925 53.3728 256.068 52.729C256.215 52.0733 256.367 51.396 256.536 50.4975C256.665 49.8153 256.806 49.1145 256.949 48.4041C257.256 46.8819 257.574 45.3076 257.788 43.8058C258.115 42.6783 258.298 41.5002 258.476 40.3608C258.561 39.8164 258.645 39.2769 258.743 38.7485C258.91 37.8582 259.064 36.9672 259.218 36.075C259.496 34.469 259.783 32.8083 260.139 31.1811C260.666 28.7634 261.117 26.4082 261.479 24.1812C261.551 23.7344 261.658 23.1684 261.797 22.5015C262.09 21.5401 262.494 20.6166 262.814 19.9203C263.117 19.2601 263.611 18.6413 264.089 18.0429C264.266 17.8225 264.44 17.6039 264.603 17.3861C265.354 16.3814 266.479 16.186 267.567 15.9968L267.734 15.9677C267.852 15.9469 267.98 15.9387 268.115 15.9301C268.251 15.9212 268.391 15.9119 268.529 15.8903C269.135 15.8572 269.546 15.8549 269.943 15.8527C270.28 15.8512 270.604 15.8493 271.023 15.8285C271.488 15.8058 271.915 15.8021 272.329 15.7987C272.904 15.7935 273.448 15.789 274.079 15.7369C274.973 15.6632 275.93 15.6285 277.092 15.6285C277.862 15.6285 278.63 15.6434 279.397 15.658C280.162 15.6728 280.926 15.6877 281.688 15.6877L283.317 15.6862C285.492 15.6862 287.832 15.6959 290.21 15.7641C291.587 15.8039 293.148 15.849 294.676 15.9223C294.884 15.9324 295.093 15.9439 295.302 15.9555C295.911 15.989 296.54 16.0232 297.165 16.0232C297.268 16.0232 297.37 16.0225 297.469 16.0203C297.949 16.0661 298.534 16.1569 298.925 16.2466C300.158 16.53 300.603 16.8301 301.579 17.4885C302.396 18.0403 303.044 18.8706 303.613 20.0983C303.424 20.0886 303.234 20.0782 303.043 20.0678C302.428 20.0335 301.792 19.9981 301.162 19.9981C300.595 19.9981 300.095 20.0268 299.635 20.0864C299.573 20.0946 299.528 20.1501 299.52 20.1981C299.515 20.2331 299.527 20.264 299.538 20.264C299.539 20.264 299.541 20.2633 299.542 20.2621C299.554 20.9179 299.736 21.5743 299.912 22.2088L300 22.5283C300.213 23.3166 300.358 24.1372 300.497 24.93C300.544 25.1977 300.591 25.4658 300.641 25.7343C300.965 27.4743 301.317 29.2862 301.689 31.1182C301.815 31.7344 301.994 32.3339 302.168 32.9141L302.247 33.1792C302.442 33.8349 302.559 34.5353 302.671 35.213C302.73 35.5663 302.789 35.9197 302.859 36.2686C302.9 36.4753 302.936 36.7117 302.973 36.9627C303.117 37.926 303.298 39.125 303.957 39.6883C304.157 39.9639 304.58 40.0309 304.955 40.0897L305.135 40.1191L305.397 40.1664C305.896 40.2577 306.412 40.3519 306.938 40.3519C306.991 40.3519 307.044 40.3511 307.096 40.3493C307.304 41.8335 307.46 43.2939 307.617 45.2212L307.616 45.4088C307.61 45.6974 307.61 45.9871 307.61 46.2779C307.609 47.2285 307.608 48.2112 307.42 49.1789C307.168 50.4736 306.921 51.8774 306.665 53.4692C306.385 53.4532 306.043 53.4339 305.681 53.4339ZM303.966 66.8968C303.593 66.8968 303.215 66.9024 302.835 66.9079C302.451 66.9131 302.064 66.9191 301.678 66.9191H301.587C301.408 66.9184 301.222 66.915 301.034 66.9117C300.906 66.9094 300.778 66.9068 300.649 66.9053C300.877 65.8657 301.05 64.7762 301.216 63.7224C301.375 62.7197 301.539 61.6834 301.752 60.6807C302.142 60.7164 302.627 60.7339 303.232 60.7339C303.398 60.7339 303.56 60.7328 303.712 60.7305C304.226 60.7238 304.773 60.7149 305.327 60.6866C305.27 61.0031 305.217 61.3248 305.174 61.6402C305.02 62.761 304.858 63.6193 304.701 64.4485C304.561 65.1884 304.417 65.9525 304.279 66.8983L303.966 66.8968ZM304.91 67.2904C304.936 67.328 304.952 67.4009 304.969 67.4728L304.98 67.503C304.93 67.713 304.718 68.8315 304.45 70.2476C303.951 72.885 303.268 76.4972 302.947 77.8381C302.876 78.1348 302.684 78.2976 302.33 78.3378L302.333 78.375L302.28 78.3415C302.251 78.3434 302.221 78.3452 302.163 78.3486C301.852 78.3639 301.492 78.3713 301.031 78.3713C300.738 78.3713 300.443 78.3683 300.161 78.3653C299.92 78.3631 299.689 78.3609 299.461 78.3609C299.148 78.3609 298.808 78.3776 298.447 78.3951C298.09 78.413 297.721 78.4316 297.385 78.4316C297.14 78.4316 296.938 78.4219 296.748 78.3992C296.562 78.3668 296.402 78.3385 296.231 78.2127C296.122 78.1319 296.101 78.0362 296.102 77.8906C296.129 77.5387 296.245 77.0591 296.357 76.5955C296.426 76.3066 296.496 76.0199 296.543 75.7674L297.09 72.8444C297.475 70.7961 297.731 69.7799 298.161 68.2771C298.215 68.0943 298.279 67.9152 298.462 67.7327C298.734 67.4613 298.994 67.3324 299.36 67.2937C299.666 67.2848 299.951 67.2818 300.223 67.2818C300.498 67.2818 300.761 67.2848 301.022 67.2878C301.282 67.2907 301.541 67.2941 301.809 67.2941L301.899 67.2937C302.282 67.293 302.636 67.268 303.011 67.2416C303.405 67.2144 303.813 67.1857 304.267 67.1857C304.442 67.1857 304.623 67.1902 304.799 67.1958C304.871 67.2337 304.898 67.2717 304.91 67.2904ZM306.076 56.905C305.983 57.417 305.894 57.898 305.817 58.2771L305.71 58.7839C305.614 59.2292 305.498 59.7714 305.39 60.3426C305.03 60.3541 304.591 60.3612 304.224 60.3612C303.889 60.3612 303.648 60.3552 303.545 60.344C303.325 60.3202 303.061 60.3087 302.739 60.3087C302.435 60.3087 302.121 60.3191 301.831 60.3299L301.849 60.2465C301.875 60.1288 301.901 60.0108 301.93 59.8942L301.952 59.8041C302.264 58.54 302.586 57.2334 302.808 55.954L302.847 55.7138C302.905 55.3511 302.965 54.9758 303.121 54.6314C303.42 53.9745 304.156 53.8978 304.718 53.8394C304.889 53.8219 306.092 53.7727 306.618 53.7641C306.539 54.2616 306.461 54.7673 306.385 55.2781C306.28 55.7991 306.175 56.3688 306.076 56.905ZM144.188 79.1294C143.933 79.1317 143.426 79.1361 143.28 79.1402C143.068 79.1469 142.858 79.1533 142.637 79.1533C142.555 79.1533 142.464 79.1484 142.369 79.1432C142.264 79.1376 142.155 79.1313 142.045 79.1313C141.967 79.1313 141.889 79.1346 141.843 79.1533C141.592 78.8978 141.348 78.6733 141.113 78.4558C140.949 78.3046 140.79 78.1583 140.638 78.0097C140.355 77.7335 140.055 77.4676 139.764 77.2103C139.526 76.9992 139.287 76.7884 139.056 76.5702L138.805 76.3315C138.466 76.008 138.116 75.674 137.732 75.3623C139.851 75.3552 142.573 75.3466 144.837 75.3366C144.512 76.6037 144.257 77.8124 144.188 79.1294ZM308.03 45.7953C308.094 43.9079 307.638 40.3042 307.335 38.4752C307.166 37.4512 307.072 36.3848 306.982 35.3534C306.89 34.3029 306.795 33.2175 306.619 32.1757C306.539 31.6994 306.495 31.2012 306.452 30.719C306.397 30.1046 306.341 29.469 306.209 28.8658C306.16 28.6442 306.108 28.4212 306.056 28.1974C305.907 27.5607 305.753 26.902 305.677 26.2485C305.58 25.4245 305.458 24.5498 305.229 23.7403L305.143 23.4409C305.045 23.0976 304.932 22.7007 304.839 22.344C304.834 22.3287 304.824 22.303 304.812 22.2773C304.349 20.4438 303.659 18.4179 302.055 17.2967C301.37 16.8178 300.631 16.4507 299.659 16.1055C299.269 15.9666 298.543 15.709 297.252 15.6844C296.891 15.6699 296.501 15.6617 296.107 15.6535C295.522 15.6416 294.917 15.6293 294.382 15.5943C292.812 15.4926 291.347 15.4301 289.902 15.4029L288.817 15.3828C286.423 15.3377 283.948 15.2908 281.502 15.2901C280.962 15.2897 280.422 15.2875 279.883 15.2852C279.326 15.283 278.768 15.2804 278.211 15.2804C276.937 15.2804 275.424 15.2908 273.859 15.3668C273.233 15.3969 272.558 15.3992 271.905 15.4014C271.31 15.4029 270.696 15.4051 270.124 15.4286C269.927 15.4364 269.725 15.4409 269.52 15.4457C268.788 15.4621 268.031 15.4792 267.31 15.6531C266.297 15.8255 265.448 16.0247 264.499 16.8759C263.647 17.6393 262.87 18.8993 262.359 19.7807C262.075 20.2711 261.877 20.773 261.735 21.3587L261.704 21.4507C261.596 21.775 261.473 22.1429 261.43 22.3727C261.345 22.8169 261.268 23.2603 261.191 23.7038C261.094 24.2583 260.998 24.8127 260.887 25.3675C260.673 26.4403 260.444 27.5127 260.216 28.5854C259.981 29.6861 259.746 30.7868 259.528 31.8875C259.212 33.48 258.915 35.1002 258.628 36.6667C258.479 37.4777 258.331 38.2883 258.179 39.0989C258.015 39.9721 257.885 40.859 257.758 41.7162C257.668 42.3231 257.579 42.9301 257.478 43.534C257.123 44.9776 256.812 46.5393 256.512 48.0492L256.329 48.9689C255.88 48.9406 255.421 48.9406 255.015 48.9406H254.655C254.537 48.9403 254.398 48.9373 254.245 48.9347C254.047 48.9306 253.826 48.9269 253.604 48.9269C253.237 48.9269 252.947 48.9384 252.717 48.9626C252.753 48.7775 252.785 48.6066 252.814 48.4521C252.9 47.9841 252.991 47.5149 253.082 47.0453C253.237 46.2541 253.397 45.4356 253.527 44.6321C253.577 44.3223 253.657 43.9682 253.751 43.5582C253.878 42.9986 254.023 42.3637 254.127 41.6708C254.732 38.9265 255.222 36.6242 255.649 34.3067C255.767 33.6677 255.903 32.9807 256.041 32.2851C256.232 31.3304 256.428 30.3433 256.579 29.4586C256.648 29.0535 256.765 28.4819 256.878 27.9289C256.993 27.3715 257.111 26.7955 257.181 26.3867L257.236 26.0675C257.313 25.6661 257.383 25.3381 257.448 25.0309C257.498 24.7974 257.545 24.5759 257.591 24.3435C257.701 23.7913 257.809 23.2931 257.915 22.8009C258.05 22.1779 258.177 21.59 258.306 20.9052L258.524 19.7449C258.897 17.7577 259.282 15.7026 259.715 13.6815C260.115 11.8167 260.632 9.35694 261.08 6.87556C261.168 6.38889 261.288 5.88658 261.404 5.4014C261.554 4.76988 261.71 4.11714 261.799 3.48339C261.842 3.17955 261.931 2.74278 262.016 2.31978C262.088 1.96679 262.158 1.62198 262.198 1.36841C262.232 1.16063 262.248 1.03999 262.262 0.934986C262.282 0.784554 262.297 0.666518 262.353 0.371612C262.364 0.316876 262.356 0.274053 262.332 0.244637C262.311 0.219317 262.278 0.205913 262.231 0.205913C262.231 0.205913 262.142 0.209635 262.142 0.209635C261.971 0.1899 261.886 0.188784 261.755 0.186922C261.676 0.185805 261.58 0.184315 261.437 0.178729C261.056 0.16309 260.677 0.138888 260.299 0.11543C260.067 0.100908 259.835 0.0863859 259.603 0.0737258C258.676 0.0230854 257.676 0 256.361 0C255.818 0 255.274 0.00409446 254.73 0.00781803L254.516 0.00930947C253.868 0.0134054 253.204 0.0390965 252.562 0.063672C251.857 0.090854 251.127 0.119526 250.416 0.119526C250.095 0.119526 249.776 0.11394 249.458 0.100163C248.929 0.0770767 248.382 0.0647885 247.877 0.0647885C247.392 0.0647885 246.942 0.0755889 246.544 0.0971856L246.437 0.0960663C244.904 0.122504 243.284 0.571194 241.718 1.00499C241.454 1.07797 241.192 1.15021 240.934 1.22021C239.436 1.62384 237.951 2.22259 236.515 2.80198C236.235 2.91443 235.956 3.02725 235.676 3.13896C231.621 4.75387 227.787 6.53001 224.281 8.41786C220.561 10.42 216.891 12.6966 213.373 15.1839C209.783 17.7215 206.75 20.5872 204.258 23.0533C204.169 23.1282 204.08 23.2071 203.982 23.3024C203.736 23.5437 203.478 23.7757 203.221 24.0077C202.866 24.3268 202.5 24.6571 202.168 25.0082C201.342 25.8802 200.444 26.7244 199.576 27.5406C199.158 27.9342 198.74 28.327 198.329 28.7236C198.054 28.9894 197.777 29.2579 197.5 29.5286C196.618 29.1272 195.703 28.8055 194.774 28.578C192.615 28.0496 190.245 27.5938 187.091 27.0997L186.632 27.0271C186.129 26.9478 185.693 26.8797 185.287 26.8346C185.134 26.4954 184.991 26.1558 184.849 25.8181C184.563 25.1396 184.267 24.4377 183.901 23.7649C183.652 23.3061 183.391 22.8541 183.131 22.4024C182.827 21.877 182.514 21.3334 182.224 20.7879C181.175 18.8088 180.225 17.4456 179.14 16.3524C178.95 16.1033 178.694 15.8732 178.351 15.6453C175.205 13.1077 171.402 12.5979 166.286 12.5979C165.974 12.5979 165.658 12.5998 165.337 12.6031C164.846 12.5976 164.187 12.5953 163.42 12.5953C159.277 12.5953 151.796 12.6672 150.746 12.7517C149.822 12.8262 148.885 12.8701 147.978 12.9126C146.505 12.9818 144.982 13.0529 143.472 13.2555C141.29 13.5486 139.23 13.8252 135.624 16.5803C135.607 16.5933 135.596 16.6071 135.592 16.6145C135.102 16.9861 134.633 17.3723 134.18 17.745C133.839 18.025 133.498 18.305 133.144 18.5836C132.343 19.2143 131.605 19.9099 130.892 20.5827C130.544 20.9104 130.196 21.2388 129.837 21.5635C128.757 22.5413 127.791 23.674 126.814 24.8458C126.534 25.1798 126.246 25.5019 125.958 25.8225C125.384 26.4622 124.791 27.1235 124.33 27.8455C123.947 27.9386 123.558 28.0295 123.169 28.12C121.821 28.4346 120.427 28.7597 119.279 29.1689C118.155 29.5684 117.247 29.9319 116.189 30.5057L116 30.6077C115.318 30.9759 114.469 31.4336 113.916 31.994C113.269 32.6486 112.86 33.2667 112.454 34.1991C112.338 34.4675 111.308 36.8495 111.112 37.885C111.104 37.9249 111.113 37.9617 111.136 37.99C111.162 38.0205 111.202 38.038 111.246 38.038C111.315 38.038 111.375 37.996 111.4 37.9319C111.58 37.4639 112.506 35.0745 113.033 34.0218C113.571 32.9502 114.179 32.2878 115.278 31.578C116.7 30.6598 117.787 30.2521 119.162 29.7364C119.424 29.6381 119.696 29.5357 119.985 29.4251C121.299 28.9202 122.855 28.5437 124.351 28.197L124.752 28.1043C125.087 28.0269 125.415 27.9513 125.729 27.8768C126.534 27.6854 127.321 27.5625 128.082 27.4434C128.947 27.3086 129.842 27.1686 130.763 26.9284C130.785 26.9221 130.811 26.9068 130.833 26.886C130.905 26.8495 130.985 26.7959 131.095 26.7125C131.317 26.5442 131.533 26.2787 131.742 26.0221C131.852 25.8884 131.957 25.7592 132.057 25.6527C132.824 24.8321 133.609 23.9243 134.459 22.8772L134.926 22.2993C135.571 21.5002 136.238 20.6736 136.928 19.8857C137.013 19.7878 137.124 19.6779 137.256 19.5472C137.467 19.3379 137.729 19.0777 138.025 18.7321C138.197 18.5672 138.352 18.4119 138.509 18.2559C138.785 17.98 139.072 17.6951 139.453 17.3473C139.518 17.2878 139.596 17.2204 139.68 17.147C140.245 16.6551 141.1 15.9119 140.933 15.293C140.86 15.0216 140.566 14.8842 140.059 14.8842C139.565 14.8842 138.961 15.0149 138.515 15.1337C138.525 15.1285 138.536 15.1232 138.546 15.118C139.401 14.6891 140.079 14.447 140.684 14.2493C141.668 13.9272 142.746 13.8051 143.788 13.6874C144.156 13.6461 144.52 13.6048 144.873 13.5556C145.673 13.4447 146.344 13.4108 147.055 13.3747C147.467 13.3542 147.892 13.3326 148.363 13.295C149.336 13.2179 150.328 13.1639 151.287 13.1118L151.828 13.082C154.414 12.939 156.954 12.9115 159.314 12.9029H159.508C160.164 12.9029 160.819 12.9137 161.476 12.9245C162.134 12.9357 162.793 12.9465 163.452 12.9465C164.137 12.9465 164.74 12.9345 165.293 12.9088L165.548 12.917C169.556 13.0384 173.697 13.1639 176.85 15.0551C176.551 14.9933 176.253 14.9616 175.962 14.9616C175.694 14.9616 175.436 14.9888 175.194 15.0428C174.671 15.159 174.416 15.2942 174.341 15.496C174.257 15.7227 174.422 16.0124 174.697 16.3777C175.523 17.4784 176.191 18.7358 176.837 19.9516C177.209 20.6527 177.595 21.3777 178.005 22.0632C178.162 22.3242 178.32 22.5841 178.479 22.8437C178.858 23.4651 179.251 24.1075 179.606 24.7609C179.95 25.3943 180.267 25.9033 180.777 26.6372C180.805 26.6771 180.859 26.702 180.919 26.702C180.928 26.702 180.938 26.7013 180.947 26.6998L180.947 26.7013L180.967 26.7024C184.703 26.9236 188.655 27.5588 193.783 28.7619C195.084 29.068 196.195 29.4232 197.18 29.8417C195.092 31.8871 192.978 34.0591 191.143 36.3148C190.344 37.2967 189.491 38.3229 188.603 39.3729C188.55 39.3156 188.498 39.2579 188.44 39.2028C187.768 38.5597 185.815 37.0636 182.197 37.0636C181.881 37.0636 181.555 37.0759 181.231 37.0997C179.814 37.2029 176.81 37.9855 174.541 40.2636C173.509 41.2999 172.775 42.5968 172.473 43.9142L172.42 44.1477C172.14 45.3671 171.899 46.4205 171.906 47.6422C171.91 48.3199 171.993 48.9317 172.165 49.5632L172.109 49.5614C171.453 49.558 170.799 49.5472 170.144 49.536L169.488 49.5256C169.221 49.5211 168.97 49.52 168.732 49.52C168.186 49.52 167.705 49.5286 167.221 49.5371C166.735 49.5461 166.247 49.5547 165.69 49.5547C165.481 49.5547 165.262 49.5535 165.029 49.5509C163.486 49.5308 161.945 49.5208 160.449 49.5208C158.207 49.5208 155.997 49.5435 153.879 49.5878C152.728 49.612 151.407 49.6239 149.841 49.6239C148.495 49.6239 147.125 49.6153 145.778 49.6072C144.473 49.599 143.189 49.5911 141.967 49.5911L141.377 49.5919C140.228 49.5919 139.008 49.5647 137.827 49.5379C136.621 49.5107 135.373 49.4828 134.17 49.4828C133.747 49.4828 133.328 49.4861 132.914 49.4943L132.936 49.4619C132.977 49.402 133.017 49.3424 133.056 49.2776C133.642 48.3106 134.061 47.144 134.302 45.8095C134.664 43.8036 134.695 41.0292 132.786 39.2028C132.114 38.5597 130.161 37.0636 126.543 37.0636C126.227 37.0636 125.902 37.0759 125.577 37.0997C124.16 37.2029 121.156 37.9855 118.888 40.2636C117.855 41.2995 117.121 42.5964 116.82 43.9142L116.751 44.2136C116.475 45.4103 116.238 46.4444 116.252 47.6422C116.261 48.2741 116.323 48.8606 116.437 49.386C115.691 49.3577 114.776 49.3502 113.891 49.3428C113.254 49.3376 112.641 49.3327 112.134 49.3201C112.106 49.3193 112.048 49.3189 111.967 49.3189L111.201 49.3219C110.747 49.3242 110.198 49.3268 109.713 49.3268H109.712C109.227 49.3268 108.93 49.3238 108.754 49.3238C108.59 49.3238 108.53 49.3264 108.521 49.3357C108.675 48.8327 108.766 48.2682 108.853 47.7223C108.885 47.5205 108.916 47.325 108.949 47.1414C109.134 46.1241 109.31 45.1329 109.478 44.1179C109.966 44.09 111.064 44.0285 112.061 44.0285C112.363 44.0285 112.654 44.0341 112.918 44.0479C113.213 44.0635 113.482 44.0695 113.748 44.0695C114.087 44.0695 114.423 44.0598 114.801 44.0494C115.183 44.0386 115.609 44.0267 116.13 44.0214C116.184 44.0211 116.225 43.976 116.224 43.9172C116.224 43.8606 116.187 43.82 116.133 43.82C116.011 43.8226 115.889 43.8241 115.767 43.8241C115.341 43.8241 114.917 43.8092 114.493 43.7947C114.254 43.7861 114.016 43.7779 113.777 43.772C113.805 43.645 113.845 43.4785 113.893 43.2823C114.246 41.8108 114.982 38.75 114.152 37.7014C113.962 37.4609 113.698 37.3388 113.368 37.3388C113.165 37.3388 112.932 37.3853 112.677 37.4776C109.974 38.4521 109.736 41.8074 109.601 43.8334C109.529 43.8394 109.468 43.8464 109.405 43.8535C109.355 43.8535 109.298 43.8837 109.284 43.9507C109.187 44.4072 109.086 44.857 108.984 45.3061C108.836 45.9622 108.682 46.641 108.549 47.3209C108.521 47.468 108.48 47.6586 108.434 47.8675C108.313 48.4234 108.164 49.1112 108.157 49.428H108.154C108.143 49.4802 108.153 49.5304 108.183 49.5695C108.214 49.6086 108.261 49.6317 108.314 49.6336L108.847 49.6511C110.406 49.7017 112.172 49.7591 113.873 49.7591C114.874 49.7591 115.738 49.7397 116.513 49.6999C116.677 50.3061 116.885 50.7093 117.023 50.9782C117.06 51.0497 117.092 51.1122 117.118 51.1673C117.714 52.4449 118.387 53.2518 119.235 53.7079C119.385 53.7883 119.575 53.8717 119.785 53.9537C101.159 53.9593 78.8908 54.0006 75.1945 54.0523C74.9088 54.0609 74.8516 54.2039 74.8497 54.2966L74.8423 54.294C74.7862 54.4668 74.7635 54.6165 74.7392 54.7755C74.7269 54.8559 74.7145 54.9371 74.697 55.0238C74.6816 55.0998 74.6615 55.1854 74.6402 55.2752C74.5528 55.6471 74.462 56.0318 74.6129 56.1185C74.6256 56.126 74.6439 56.1342 74.672 56.1461C75.4003 56.3636 76.6867 56.6142 78.0493 56.8789L78.7679 57.0178C78.7638 57.1839 78.7563 57.3343 78.7492 57.4784C78.7335 57.802 78.7186 58.1073 78.7511 58.4838L78.7668 58.5303C78.7903 58.5783 78.8419 58.6063 78.9076 58.6063H78.9125C79.218 58.6893 79.4634 58.7411 79.6994 58.7917C79.8832 58.8304 80.061 58.8684 80.2567 58.9187C80.4906 58.979 80.7374 59.0192 80.9765 59.0587L81.0602 59.0728C80.9806 59.1808 80.9037 59.2918 80.8342 59.3912C80.7752 59.4765 80.7214 59.5539 80.6766 59.6142L80.5249 59.8201C80.4032 59.9858 80.2747 60.1601 80.16 60.3124C79.9923 60.5347 79.8746 60.7 79.7536 60.8698C79.5698 61.1275 79.3801 61.3937 79.0212 61.8793L78.9397 61.8837C78.7451 61.8938 78.5502 61.9042 78.3597 61.9042L78.2745 61.9035C78.2263 61.9027 78.1718 61.9009 78.1139 61.8986C78.0298 61.8953 77.9387 61.8916 77.8517 61.8916C77.709 61.8916 77.6085 61.9009 77.5361 61.9191C77.5099 61.9191 77.4707 61.928 77.4326 61.969C76.9889 62.4572 76.6157 63.0634 76.2549 63.6495C76.1085 63.8866 75.9647 64.1205 75.819 64.3413C75.7073 64.5103 75.5945 64.6853 75.4795 64.863C75.0664 65.5008 74.6394 66.161 74.195 66.7121C73.4987 66.8275 72.9384 66.9381 72.4327 67.0599L71.7992 67.2144C71.1807 67.3659 70.5409 67.5223 69.8839 67.669C69.7994 67.7498 69.6967 67.8921 69.6594 67.9785C69.5073 68.1624 69.3546 68.3579 69.1988 68.5571C69.036 68.7656 68.8701 68.9779 68.6979 69.1864C68.4929 69.4336 68.3013 69.6887 68.1097 69.9434C68.0204 70.0618 67.9311 70.1802 67.8407 70.2979C67.7982 70.3537 67.7589 70.4014 67.716 70.4535C67.6611 70.5198 67.6009 70.5932 67.5236 70.6948C67.4441 70.7734 67.3798 70.9052 67.4172 70.9957C67.4291 71.024 67.4612 71.0713 67.5464 71.0713L67.6185 71.0638C67.6364 71.0612 67.6555 71.056 67.6693 71.0523C69.151 70.8706 70.449 70.6296 71.7047 70.3966C72.2512 70.2949 72.7965 70.194 73.3557 70.0975C74.5106 69.8983 75.6644 69.7129 76.8185 69.5275C77.5073 69.4169 78.1957 69.3059 78.8848 69.1927L79.2486 69.1324C80.8846 68.8632 82.5759 68.5847 84.2373 68.2711C84.873 68.1509 85.5211 68.0611 86.1478 67.9751C86.422 67.9368 86.6961 67.8992 86.9699 67.8586C87.5784 67.7692 88.1275 67.662 88.709 67.5484C89.0022 67.4914 89.2992 67.4333 89.6039 67.3775C89.6682 67.3753 89.7085 67.3667 89.7347 67.351C90.2247 67.0602 90.6842 66.7091 91.1283 66.3691C91.3389 66.2079 91.5496 66.0463 91.7651 65.8903L92.5233 65.3437C93.2666 64.8082 94.0357 64.2553 94.7753 63.6848C95.0251 63.4923 95.2631 63.3061 95.4999 63.1211C96.1128 62.6422 96.6914 62.1898 97.444 61.6447L97.4997 61.6045C98.2105 61.0895 98.6397 60.779 99.2347 60.3869L99.3217 60.4029C99.8681 60.5023 100.411 60.6088 100.955 60.7153C101.676 60.8572 102.421 61.0035 103.162 61.129C103.537 61.1926 103.898 61.2805 104.247 61.3658C104.911 61.5281 105.538 61.6812 106.254 61.6812L106.364 61.6797C110.277 61.6756 114.318 61.6592 118.639 61.6406C118.286 63.162 117.986 64.7896 117.695 66.3647C117.575 67.017 117.456 67.6605 117.336 68.2849C117.227 68.8513 117.123 69.3409 117.02 69.8272C116.908 70.3575 116.796 70.8836 116.679 71.5002L116.309 73.4577C116.263 73.7023 116.211 73.9242 116.159 74.1518C116.102 74.3949 116.044 74.6451 115.989 74.9367C115.982 74.9754 115.981 75.0108 115.986 75.0398C115.985 75.1095 116.005 75.1683 116.045 75.2096C116.083 75.2491 116.138 75.2707 116.204 75.2718C120.697 75.3418 125.406 75.3742 131.023 75.3742C132.926 75.3742 134.854 75.3705 136.802 75.3552C137.059 75.5868 137.341 75.856 137.639 76.1554C137.873 76.3896 138.135 76.6089 138.389 76.8212C138.588 76.9884 138.788 77.1556 138.976 77.3313C139.966 78.2551 140.773 78.9682 141.439 79.507C141.455 79.5241 141.474 79.5394 141.512 79.5684C141.534 79.5855 141.557 79.596 141.583 79.6075C141.625 79.6265 141.664 79.6369 141.697 79.6384C141.776 79.6559 141.87 79.6645 141.983 79.6645C142.096 79.6645 142.212 79.6559 142.32 79.6485C142.411 79.6418 142.496 79.6355 142.57 79.6355C142.737 79.6358 142.888 79.6388 143.034 79.6414C143.174 79.644 143.805 79.6466 143.945 79.6466C144.016 79.6466 144.092 79.6444 144.167 79.6425C144.113 82.8433 144.989 84.2337 145.273 84.9155C145.934 86.492 146.86 88.0496 148.377 88.8997C150.169 89.9043 154.571 90.9975 159.168 89.7177C161.26 89.135 163.008 88.6092 164.878 87.1198C166.46 85.8594 168.456 84.4273 170.012 81.8528C170.35 81.2943 170.634 80.7145 170.883 80.1251C174.041 80.1635 178.831 80.1821 183.073 80.1821C187.781 80.1821 192.643 80.1597 197.344 80.1374C201.738 80.1169 205.887 80.0979 209.672 80.0975C212.218 80.0975 214.768 80.0897 217.317 80.0819C219.89 80.0741 222.464 80.0663 225.034 80.0663C226.941 80.0663 228.845 80.0704 230.747 80.0823L231.482 80.0864C234.174 80.1024 236.498 80.1158 239.193 80.2186C240.68 80.2752 243.565 80.3697 246.174 80.3697C246.255 80.3697 246.313 80.3478 246.34 80.3109C246.386 80.2878 246.417 80.258 246.434 80.2234H246.441L246.445 80.191C246.542 79.4616 246.716 78.6658 246.885 77.8962C247.06 77.099 247.24 76.2753 247.34 75.5071C248.71 75.5313 250.172 75.55 251.491 75.5671L251.661 75.5693C251.756 75.5693 251.826 75.5388 251.846 75.4952C251.864 75.4766 251.878 75.4557 251.884 75.4334C251.935 75.2629 251.994 75.0197 252.069 74.6693C252.082 74.6697 252.095 74.6701 252.108 74.6701C252.168 74.6701 252.229 74.666 252.29 74.6615C252.347 74.6571 252.403 74.6533 252.457 74.6529C252.896 74.6515 253.831 74.6462 253.831 74.6462C254.021 74.6462 254.209 74.6541 254.396 74.6619C254.584 74.6693 254.771 74.6772 254.96 74.6772C255.036 74.6772 255.113 74.676 255.19 74.6727L255.629 74.6719C255.233 76.2209 254.912 77.6579 254.879 79.2754C254.81 82.6802 255.749 84.1365 256.05 84.8447C256.735 86.4462 257.685 88.0261 259.228 88.887C261.043 89.9013 265.469 91.0001 270.052 89.7174C272.128 89.1365 273.859 88.613 275.707 87.1291C277.268 85.8754 279.234 84.4534 280.769 81.8912C281.786 80.1932 282.367 78.3069 282.695 76.4898C282.783 76.0061 282.851 75.5217 282.902 75.038C283.308 75.0465 284.045 75.0499 284.398 75.0499C285.359 75.0499 286.367 75.0238 287.341 74.9985C288.274 74.9743 289.156 74.9512 289.999 74.9493L290.3 74.949C291.003 74.949 291.707 74.9546 292.406 74.9598C293.097 74.9646 293.783 74.9695 294.459 74.9695C295.048 74.9695 295.628 74.9657 296.197 74.9549L296.126 75.2912C296.017 75.8106 295.904 76.3475 295.802 76.9195C295.791 76.9832 295.779 77.0491 295.765 77.1161C295.704 77.4248 295.635 77.7744 295.705 78.0555C295.719 78.2022 295.752 78.3222 295.807 78.4234C295.875 78.5485 295.955 78.6085 296.051 78.6796C296.172 78.7693 296.416 78.8297 296.678 78.8297H296.683C296.768 78.8438 296.864 78.8498 297.015 78.8498L299.164 78.8464C299.386 78.8464 299.637 78.8494 299.902 78.852C300.198 78.8554 300.512 78.8587 300.82 78.8587C301.33 78.8587 302.058 78.8505 302.491 78.7813C303.225 78.769 303.325 78.2521 303.49 77.3954C303.522 77.2278 303.557 77.045 303.6 76.8487C303.833 75.7793 303.964 75.1415 304.168 73.9615C304.255 73.4625 304.36 72.9472 304.465 72.4307C304.568 71.9243 304.672 71.4179 304.758 70.9272C304.96 69.7725 305.101 68.6461 305.2 67.7975C305.303 67.3577 305.223 67.141 305.138 67.0364C305.058 66.9385 304.947 66.8927 304.787 66.8927C304.766 66.8927 304.745 66.8938 304.722 66.8953C304.708 66.896 304.692 66.8994 304.684 66.9046L304.598 66.9027C304.636 66.6957 304.679 66.5062 304.722 66.3196C304.776 66.0813 304.828 65.849 304.869 65.5946C304.905 65.3668 304.959 65.0826 305.013 64.7941C305.081 64.4426 305.149 64.0836 305.188 63.8073C305.276 63.1941 305.374 62.6899 305.478 62.1559C305.529 61.8986 305.581 61.632 305.635 61.339C305.736 60.7924 305.84 60.2457 305.944 59.6988C306.182 58.4432 306.429 57.1451 306.63 55.8724C306.833 55.035 306.987 54.1909 307.135 53.375C307.195 53.0481 307.254 52.7201 307.318 52.3901C307.375 52.0915 307.439 51.7858 307.504 51.4775C307.687 50.6058 307.876 49.7047 307.928 48.8606C307.942 48.6454 307.958 48.426 307.975 48.2052C308.034 47.4006 308.096 46.5684 308.03 45.7953Z" fill="#4381C0"/>
<path d="M275.525 43.9217C275.421 43.9195 275.313 43.918 275.204 43.918C274.773 43.918 274.413 43.9377 274.101 43.9776C273.526 44.0513 272.95 44.0897 272.433 44.0897C272.163 44.0897 271.907 44.0792 271.672 44.0584L271.668 44.058L271.664 44.0584C271.616 44.0643 271.571 44.0673 271.528 44.0673C271.355 44.0673 271.222 44.0204 271.132 43.9288C271.024 43.8178 270.973 43.6358 270.97 43.4138L271.707 42.8628C271.931 42.8244 272.155 42.805 272.374 42.805L272.482 42.8058C272.817 42.7607 273.133 42.76 273.467 42.7592L274.402 42.7604C274.88 42.7604 275.392 42.7537 275.878 42.7045C275.94 42.725 276.015 42.7384 276.093 42.7522C276.276 42.7853 276.466 42.8192 276.548 42.9503C276.602 43.0359 276.606 43.1569 276.563 43.31C276.309 43.7251 276.011 43.9351 275.679 43.9351C275.63 43.9351 275.581 43.9307 275.525 43.9217ZM276.178 42.4141C276.088 42.4141 275.995 42.4286 275.899 42.4573C275.868 42.4669 275.842 42.4856 275.851 42.4993C275.667 42.5016 275.425 42.5023 275.161 42.5023C274.558 42.5023 273.839 42.4978 273.424 42.4949L273.064 42.493C272.356 42.493 271.722 42.5187 271.127 42.8359C270.823 42.9979 270.518 43.565 270.647 43.8603C270.842 44.306 271.37 44.3283 271.837 44.3481L271.904 44.3507C272.371 44.3715 272.838 44.382 273.293 44.382C273.767 44.382 274.243 44.3708 274.709 44.3485C274.762 44.3458 274.818 44.3451 274.877 44.3451L275.303 44.3492C275.754 44.3492 276.217 44.3108 276.54 44.0319C276.885 43.7348 277.015 43.2921 276.87 42.9041C276.755 42.5973 276.497 42.4141 276.178 42.4141Z" fill="#4381C0"/>
</svg>
