<svg width="50" height="56" viewBox="0 0 50 56" fill="none" xmlns="http://www.w3.org/2000/svg">
<path d="M45.2958 8.09473C41.5458 7.71973 37.8758 6.33973 34.3608 5.12523C31.1758 4.02023 28.0408 2.66973 25.1113 0.969727C22.1808 2.66973 19.0458 4.02023 15.8608 5.12523C12.3458 6.33973 8.67578 7.71973 4.92578 8.09473C5.01078 10.1697 5.03078 13.3752 5.01078 15.4552C5.00578 15.5402 4.99078 15.6052 4.97078 15.6652C5.78578 16.1952 6.49578 16.6697 7.21078 17.1552L7.29078 10.4597C12.0008 9.83473 20.2508 6.95973 25.0858 4.20973C28.2908 6.16523 36.6258 9.41523 42.9158 10.5002L42.9958 16.9247C43.6908 16.4647 44.3908 16.0002 45.2058 15.4697C45.1908 13.3897 45.2158 10.1497 45.2958 8.09473Z" fill="#FFC000"/>
<path d="M25.7859 20.94C22.8509 20.94 20.4659 18.59 20.4659 15.69C20.4659 12.79 22.8509 10.44 25.7859 10.44C28.7259 10.44 31.1059 12.79 31.1059 15.69C31.1059 18.59 28.7259 20.94 25.7859 20.94ZM42.9159 10.5C36.6259 9.41496 28.2909 6.16496 25.0859 4.20996C20.2509 6.95996 12.0009 9.83496 7.29094 10.46L7.21094 17.1555C7.87094 17.6 8.54094 18.0545 9.31594 18.5755C12.1359 20.475 14.8159 22.255 17.6159 24.355C18.3759 23.81 20.5909 23.3255 21.6009 23.2645C22.9409 23.185 24.1459 23.4 25.0954 23.8205C25.9809 23.42 27.0704 23.19 28.2754 23.2645C29.2859 23.3255 31.5009 23.81 32.2604 24.355C35.0609 22.255 37.7409 20.475 40.5609 18.5755C41.4654 17.965 42.2259 17.4455 42.9959 16.925L42.9159 10.5Z" fill="#FFC000"/>
<path d="M25.7858 20.9399C22.8508 20.9399 20.4658 18.5899 20.4658 15.6899C20.4658 12.7899 22.8508 10.4399 25.7858 10.4399C28.7258 10.4399 31.1058 12.7899 31.1058 15.6899C31.1058 18.5899 28.7258 20.9399 25.7858 20.9399Z" fill="#FFC000"/>
<path d="M42.8804 31.2197C42.2454 40.6197 39.8404 41.6047 35.9154 44.9592C33.5454 46.9842 27.5004 50.4147 25.0854 51.6647C22.1254 50.2897 18.8754 48.4297 14.0404 44.8342C9.07535 41.1397 7.91035 38.4192 7.36035 31.3697C9.26535 32.5547 10.9654 33.7047 13.3854 35.2592C13.2304 35.4442 13.0804 35.6292 12.9354 35.8247C11.2454 38.1647 12.1254 40.6942 14.9504 40.5147C14.8604 41.4147 15.0254 42.3547 15.7354 42.8947C16.2054 43.2497 17.1104 43.3297 17.7704 43.2047C17.9654 43.1692 18.1654 43.1292 18.3454 43.0797C18.4054 43.9347 18.7854 44.5597 19.4254 44.9347C20.0304 45.2897 21.2004 45.2447 21.9109 44.8392C22.1404 45.5442 22.8104 45.8947 23.5204 45.9897C23.9154 46.0397 24.8554 45.9842 25.4954 45.7247C26.1204 45.9347 26.9354 45.9747 27.2954 45.9242C27.7154 45.8697 28.6954 45.5747 29.0904 44.8747C29.8104 45.1892 30.8354 45.1997 31.3909 44.8747C32.0654 44.4697 32.5204 43.8792 32.5004 43.0147C32.6704 43.0642 32.8554 43.1092 33.0454 43.1447C33.7009 43.2697 34.5759 43.1397 35.0759 42.8297C35.9054 42.3247 36.0604 41.3447 35.8954 40.4442C38.6904 40.5997 39.5604 38.0892 37.8754 35.7592C37.6609 35.4592 37.4204 35.1742 37.1754 34.8992C39.3909 33.4642 41.0304 32.3592 42.8804 31.2197Z" fill="#FFC000"/>
<path d="M45.2902 29.7251C45.2752 30.0401 45.2252 31.2351 45.2202 31.3101C44.9252 35.2146 44.3202 39.5001 42.3402 42.2901C39.0097 46.9801 30.3602 51.7701 25.1252 54.7701C19.4852 51.5801 11.2102 46.9801 7.88023 42.2901C5.67523 39.1901 5.11523 33.9951 4.86523 29.8196C5.33023 30.1151 5.79523 30.4101 6.26023 30.6901C6.64023 30.9201 7.00523 31.1451 7.36023 31.3701C7.91023 38.4201 9.07523 41.1401 14.0402 44.8351C18.8752 48.4301 22.1252 50.2901 25.0852 51.6651C27.5002 50.4151 33.5452 46.9851 35.9152 44.9601C39.8402 41.6051 42.2452 40.6201 42.8802 31.2201C43.1602 31.0401 43.4452 30.8651 43.7402 30.6901C44.2552 30.3801 44.7702 30.0551 45.2902 29.7251Z" fill="#FFC000"/>
<path d="M45.2189 31.3124C44.9259 35.2159 44.3219 39.5019 42.3399 42.2904C39.0089 46.9789 30.3629 51.7694 25.1249 54.7694C19.4879 51.5819 11.2129 46.9789 7.8814 42.2904C5.6774 39.1889 5.1149 33.9964 4.8644 29.8194C5.3304 30.1164 5.7949 30.4099 6.2594 30.6904C8.6469 32.1329 10.5114 33.4119 13.3854 35.2604C13.2299 35.4429 13.0784 35.6284 12.9374 35.8229C11.2434 38.1634 12.1274 40.6949 14.9524 40.5134C14.8589 41.4169 15.0264 42.3529 15.7379 42.8944C16.2074 43.2514 17.1129 43.3319 17.7694 43.2069C17.9664 43.1694 18.1644 43.1319 18.3449 43.0784C18.4034 43.9354 18.7839 44.5574 19.4254 44.9359C20.0294 45.2919 21.1999 45.2464 21.9109 44.8379C22.1404 45.5469 22.8084 45.8944 23.5194 45.9884C23.9144 46.0399 24.8534 45.9874 25.4949 45.7259C26.1209 45.9324 26.9339 45.9729 27.2944 45.9259C27.7169 45.8699 28.6969 45.5744 29.0929 44.8734C29.8089 45.1909 30.8369 45.2009 31.3884 44.8734C32.0664 44.4699 32.5194 43.8824 32.4984 43.0154C32.6719 43.0664 32.8549 43.1084 33.0444 43.1444C33.7009 43.2694 34.5734 43.1399 35.0759 42.8319C35.9039 42.3239 36.0619 41.3469 35.8954 40.4444C38.6879 40.5984 39.5619 38.0894 37.8759 35.7604C37.6589 35.4604 37.4219 35.1759 37.1764 34.8984C39.7329 33.2439 41.5169 32.0344 43.7419 30.6904C44.2564 30.3799 44.7709 30.0529 45.2889 29.7224C45.2734 30.0424 45.2249 31.2344 45.2189 31.3124ZM26.0769 41.2434C26.8249 41.7024 28.2379 42.7279 28.4879 43.8734C28.7284 44.9749 27.6929 45.3314 26.8364 45.2344C25.5944 45.0934 24.8289 43.4884 24.6359 43.1154C24.1874 42.2494 24.9489 40.5519 26.0769 41.2434ZM27.6229 39.1064C28.4059 38.1614 29.9154 39.5924 30.4049 40.0819C30.8989 40.5754 31.3159 41.1699 31.5654 41.8319C32.0919 43.2279 31.6399 44.0239 31.0759 44.2904C30.6354 44.4984 30.0994 44.5289 29.6384 44.3944C29.5379 44.3649 29.4044 44.3074 29.2664 44.2469C29.2709 43.9794 29.2019 43.6744 29.0304 43.3269C28.7854 42.8294 28.4904 42.3904 28.1504 41.9969C27.9384 41.7039 27.7474 41.4069 27.5679 41.0839C27.4564 40.8829 27.3619 40.6049 27.3119 40.3114C27.2764 39.8769 27.3364 39.4514 27.6229 39.1064ZM30.3934 37.0739C30.7689 36.0429 31.9304 36.4314 32.6754 36.9774C33.8154 37.8129 34.8964 39.1179 35.1339 40.1859C35.3424 41.1234 35.2794 41.7904 34.7589 42.2274C34.2804 42.6299 33.6599 42.5879 33.1069 42.4884C32.8354 42.4394 32.6189 42.3434 32.3759 42.2664C32.2629 41.8704 32.0714 41.4299 31.7794 40.9359C31.5674 40.5769 31.3024 40.2204 31.0184 39.8874C30.7779 39.3424 30.4789 38.8584 30.3439 38.2574C30.2519 37.8484 30.3454 37.4754 30.3934 37.0739ZM33.4229 33.7544C33.9039 33.4534 34.3834 33.5074 34.8399 33.7194C36.1164 34.9324 38.2489 36.7074 37.9829 38.1824C37.8659 38.8369 37.4899 39.7204 35.7329 39.8354C35.4584 39.0294 34.9879 38.3194 34.6544 37.9359C34.0919 37.2889 33.6319 36.7594 33.1054 36.3549C32.9099 35.4569 32.4664 34.3534 33.4229 33.7544ZM25.0934 23.8184C24.1444 23.3984 22.9419 23.1834 21.6009 23.2654C20.5889 23.3269 18.3754 23.8074 17.6164 24.3549C14.8144 22.2569 12.1334 20.4744 9.3164 18.5759C7.6979 17.4854 6.5349 16.6844 4.9694 15.6659C4.9909 15.6064 5.0069 15.5379 5.0129 15.4549C5.0289 13.3774 5.0084 10.1679 4.9274 8.09541C8.6769 7.72041 12.3444 6.33991 15.8614 5.12391C19.0474 4.02141 22.1814 2.66941 25.1109 0.970407C28.0404 2.66941 31.1739 4.02141 34.3599 5.12391C37.8769 6.33991 41.5444 7.72041 45.2939 8.09541C45.2134 10.1514 45.1929 13.3904 45.2079 15.4699C43.4844 16.5859 42.2814 17.4159 40.5599 18.5759C37.7429 20.4744 35.0619 22.2569 32.2599 24.3549C31.5004 23.8074 29.2874 23.3269 28.2754 23.2654C27.0714 23.1914 25.9789 23.4179 25.0934 23.8184ZM49.1754 26.4259C46.8954 27.8194 44.8874 29.0719 42.6209 30.5134C40.6889 31.7414 38.5369 33.2939 36.8324 34.5234C36.3834 34.0579 35.8994 33.6239 35.3824 33.2284C34.6349 32.6564 33.4814 32.9074 33.0874 33.2084C32.8279 33.4069 32.6454 33.6439 32.5149 33.8994C32.4604 33.9079 32.4049 33.9349 32.2904 33.9754C32.0999 34.0424 31.9774 34.2009 31.8874 34.3729C31.6779 34.7719 31.6619 35.2629 31.7934 35.6984C30.7789 35.4734 30.0944 36.0619 29.8054 36.8974C29.5229 36.9694 29.2869 37.2104 29.2309 37.5059C29.1824 37.7659 29.1474 38.1054 29.2234 38.3944C28.3569 38.0254 27.5589 38.1784 26.9694 38.9194C26.8999 39.0064 26.8489 39.0974 26.8044 39.1904C26.5634 39.2969 26.3499 39.5139 26.2294 39.7264C26.1029 39.9504 26.0909 40.2134 26.1184 40.4714C25.2884 40.2669 24.1724 40.7774 23.9304 41.6099C22.6999 41.8559 23.6404 44.4389 24.7224 45.1894C24.4719 45.2494 24.2144 45.2829 23.9774 45.2969C23.2114 45.3424 22.6469 45.2484 22.2489 44.5729C22.2789 44.5404 22.3169 44.5129 22.3424 44.4779C22.4459 44.3319 22.3139 44.1124 22.1754 44.1029C21.9549 44.0884 21.4469 44.3784 21.1754 44.4569C20.7149 44.5914 20.1779 44.5609 19.7379 44.3529C19.0789 44.0414 18.8624 43.5279 18.8124 42.8504C18.9109 42.7694 18.9879 42.6704 19.0299 42.5399C19.0854 42.3644 18.8224 42.2334 18.6679 42.2664C18.3204 42.3424 18.0609 42.4869 17.7069 42.5509C17.1539 42.6504 16.4519 42.6169 15.9734 42.2149C15.4919 41.8104 15.4419 41.0844 15.4184 40.4624C15.4354 40.4599 15.4504 40.4599 15.4674 40.4569C15.9674 40.3734 15.9254 39.9154 15.4674 39.9154C13.3689 39.9154 12.9564 38.9459 12.8304 38.2449C12.5414 36.6354 15.1089 34.6669 16.3019 33.4634C17.5729 32.1799 19.0434 31.0779 20.4539 29.9294C21.5279 29.8804 22.5079 29.8459 23.5939 30.0724C24.9064 30.3459 26.2369 30.9539 27.4939 31.4174C28.5719 31.8144 30.8724 32.0349 31.1949 30.5449C31.2959 30.4819 31.3944 30.4119 31.4879 30.3319C32.5739 29.4039 32.1799 28.3089 31.1519 27.7949C29.8899 27.1634 28.8994 26.8849 26.2589 24.5399C26.1334 24.4284 25.9969 24.3234 25.8504 24.2244C28.1139 23.5659 30.7829 24.3259 32.2009 24.8849C32.2664 24.9194 32.3389 24.9294 32.3944 24.8944C34.0504 23.8319 34.6914 23.3709 35.8004 22.6444C37.6129 21.4569 39.0234 20.5849 40.5819 19.6134C42.9274 18.1504 47.2379 15.3634 47.8749 14.4519C47.9869 14.2914 47.8224 14.0489 47.6169 14.1069C47.1234 14.2459 46.6184 14.5664 46.1924 14.8379C46.1004 14.8964 46.0194 14.9489 45.9299 15.0059C45.9254 12.8009 45.9139 9.86291 45.7944 8.00391C45.7924 7.87791 45.7529 7.80191 45.6984 7.75891C45.6664 7.72091 45.6249 7.68691 45.5649 7.66391C41.5434 7.03991 37.5234 5.76441 33.7544 4.35291C31.3864 3.46641 29.0799 2.37541 26.7814 1.32291C26.3544 1.12791 25.9334 0.887406 25.5139 0.638906C25.1479 0.396406 25.0799 0.396406 24.7079 0.638906C24.2884 0.887406 23.8674 1.12791 23.4399 1.32291C21.1419 2.37541 18.8349 3.46641 16.4669 4.35291C12.6979 5.76441 8.6779 7.03991 4.6564 7.66391C4.5959 7.68691 4.5554 7.72091 4.5234 7.75891C4.4689 7.80191 4.4289 7.87791 4.4269 8.00391C4.3024 9.94641 4.2954 12.9979 4.2914 15.2264C4.0939 15.0994 3.8969 14.9734 3.6839 14.8379C3.2579 14.5664 2.7529 14.2459 2.2594 14.1069C2.0539 14.0489 1.8894 14.2914 2.0014 14.4519C2.6384 15.3634 6.9489 18.1504 9.2944 19.6134C10.8529 20.5849 12.2634 21.4569 14.0759 22.6444C15.1849 23.3709 15.8259 23.8319 17.4819 24.8944C17.5369 24.9294 17.6099 24.9199 17.6754 24.8854C19.3749 24.2154 22.8764 23.2499 25.3169 24.7974C26.2504 25.4499 27.0179 26.3174 28.0249 26.8924C28.7034 27.2804 30.0859 27.9029 30.8329 28.3229C31.9299 28.9654 31.1669 29.9789 30.2539 30.1639C29.4254 30.3319 28.0059 30.0249 27.2174 29.7904C26.1519 29.5469 24.2644 28.5859 23.1754 28.7069C22.0504 28.8319 21.8319 28.9884 19.9349 29.0024C19.8189 29.0034 19.7664 29.1309 19.7834 29.2434C18.5154 30.2229 17.2109 31.0989 15.7904 31.8639C14.4959 32.5594 12.8454 33.2394 11.3769 33.1889C11.3574 33.1884 11.3419 33.1949 11.3279 33.2024C10.0439 32.2889 8.6629 31.3289 7.3804 30.5134C5.1139 29.0719 3.1059 27.8194 0.825902 26.4259C0.263402 26.0819 0.138402 26.6759 0.388402 26.8634C0.865902 27.2214 1.3699 27.6159 2.3259 28.2069C2.9734 28.6074 3.6054 29.0139 4.2314 29.4154C4.2769 33.7279 4.7059 39.0589 6.8839 42.2904C10.3629 47.4529 19.4489 52.7939 24.6729 55.3974C25.0319 55.5914 25.1874 55.5914 25.5484 55.3974C30.7724 52.7939 39.8584 47.4529 43.3379 42.2904C45.3189 39.3514 45.8064 35.2899 45.9189 31.2489C45.9214 31.1694 45.9689 29.6159 45.9784 29.2819C46.5364 28.9239 47.0994 28.5629 47.6754 28.2069C48.6314 27.6159 49.1354 27.2214 49.6129 26.8634C49.8629 26.6759 49.7379 26.0819 49.1754 26.4259Z" fill="#356799"/>
<path d="M42.5498 32.3737C42.2518 35.3582 41.7758 38.4092 40.2538 40.5497C37.4768 44.4592 30.5133 48.4367 25.9053 51.0687L25.1193 51.5182L24.6648 51.2617C19.6618 48.4342 12.8088 44.5617 9.95732 40.5497C8.54332 38.5592 8.05532 35.6992 7.71632 32.7067C7.65682 32.1172 7.14682 32.2382 7.19232 32.5847C7.48132 36.1132 8.18932 38.6797 9.33432 40.3787C12.8863 45.6497 22.8328 50.7837 24.7958 51.7617C24.9403 51.8402 25.0273 51.8702 25.1053 51.8702C25.1838 51.8702 25.2703 51.8402 25.4208 51.7592C27.3788 50.7837 37.3253 45.6497 40.8778 40.3787C42.3938 38.1297 42.8758 35.1562 43.0413 32.3102C43.0573 31.9257 42.5933 31.9587 42.5498 32.3737Z" fill="#356799"/>
<path d="M33.1723 8.04874C36.2398 9.10974 39.4383 10.3137 42.7083 10.6407C42.7108 12.7922 42.7318 13.7187 42.7453 15.5307C42.7908 16.1492 43.2723 16.0087 43.2638 15.4962C43.2598 13.5417 43.2558 12.2962 43.1448 10.5602C43.1428 10.4512 43.1088 10.3847 43.0608 10.3472C43.0328 10.3142 42.9968 10.2847 42.9448 10.2647C39.4373 9.72024 35.9318 8.60774 32.6443 7.37674C30.5788 6.60324 28.5673 5.65224 26.5628 4.73474C26.1903 4.56424 25.8233 4.35424 25.4573 4.13774C25.1388 3.92674 25.0788 3.92674 24.7548 4.13774C24.3888 4.35424 24.0213 4.56424 23.6493 4.73474C21.6443 5.65224 19.6328 6.60324 17.5678 7.37674C14.2803 8.60774 10.7748 9.72024 7.26734 10.2647C7.21484 10.2847 7.17934 10.3142 7.15134 10.3472C7.10384 10.3847 7.06884 10.4512 7.06734 10.5602C6.95634 12.2962 6.95234 13.9607 6.94834 15.9147C6.93934 16.4277 7.53334 16.5857 7.57834 15.9677C7.59234 14.1562 7.57434 12.4482 7.50334 10.6407C10.7738 10.3137 13.9723 9.10974 17.0393 8.04874C19.8183 7.08774 22.5513 5.90874 25.1058 4.42724C27.6613 5.90874 30.3938 7.08774 33.1723 8.04874Z" fill="#356799"/>
<path d="M28.9519 20.305C29.0809 20.2275 29.1844 20.1175 29.3044 20.028C29.6539 19.7695 29.9354 19.4345 30.2069 19.0985C30.3659 18.874 30.5249 18.6465 30.6374 18.3945C30.7449 18.163 30.8689 17.936 30.9344 17.6875C30.9804 17.503 31.0729 17.332 31.1014 17.1425C31.2029 16.734 31.2664 16.318 31.3204 15.902C31.3324 15.7115 31.2904 15.5235 31.2794 15.334C31.2724 15.1825 31.2454 15.033 31.2139 14.8845C31.1074 14.5145 30.9989 14.1425 30.8464 13.788C31.0799 13.5225 31.2994 13.2685 31.5344 13.0125C32.0744 12.425 32.5214 11.959 32.9959 11.309C33.0904 11.1795 32.8894 11.0075 32.7704 11.1285C32.0814 11.8285 31.2734 12.4805 30.5454 13.1325C30.5079 13.066 30.4724 12.999 30.4344 12.933C30.3329 12.78 30.2409 12.619 30.1169 12.483C29.9974 12.339 29.9364 12.2445 29.7934 12.1225C29.6814 12.024 29.5774 11.905 29.4374 11.848C29.2394 11.8295 29.8169 12.327 30.3269 13.3275C29.6139 13.98 28.8834 14.5585 28.0594 15.3015C27.6264 15.6915 26.5604 16.5565 25.5614 17.413C25.4744 17.3415 25.3409 17.2415 25.2529 17.1715C24.7129 16.746 24.4734 16.526 24.0389 16.108C23.6199 15.706 23.0544 15.1865 22.6669 14.753C22.5089 14.5765 22.0474 14.1675 21.8674 14.0115C21.7909 13.945 21.6864 13.9185 21.6314 14.0075C21.6119 14.04 21.5984 14.072 21.5859 14.107C21.5649 14.164 21.5934 14.2265 21.6269 14.2735C22.2654 15.171 22.7319 15.8085 23.3079 16.526C23.9084 17.274 24.4784 17.9755 25.2144 18.5885C25.5109 18.835 25.9184 18.6855 26.1084 18.499C27.5354 17.095 28.5639 16.0905 29.6784 15.0205C30.0569 14.6565 30.3594 14.333 30.6329 14.0275C30.7074 14.2305 30.7749 14.447 30.8309 14.6775C31.0864 15.726 30.9549 16.8305 30.4904 17.93C30.3804 18.1905 29.7469 19.1375 28.7639 19.8485C28.6489 19.934 28.5144 19.9885 28.3944 20.067C28.1709 20.2115 27.9204 20.3035 27.6769 20.407C27.2859 20.5615 26.8679 20.634 26.4539 20.696C26.1494 20.7555 25.8384 20.8005 25.5279 20.7715C25.0959 20.7605 24.6784 20.6365 24.2624 20.533C23.7379 20.3515 23.2124 20.1385 22.7734 19.792C22.3774 19.491 22.0059 19.1525 21.7069 18.754C21.4949 18.49 21.3504 18.1815 21.1994 17.8795C21.0429 17.5155 20.9489 17.1295 20.8634 16.744C20.7979 16.492 20.7789 16.231 20.7479 15.9725C20.7524 15.8155 20.7604 15.659 20.7749 15.502C20.7779 14.995 20.9009 14.495 21.0714 14.0205C21.1884 13.778 21.2694 13.5205 21.3999 13.286C21.6239 12.857 22.5614 11.023 25.3334 10.682C27.8114 10.62 29.0964 11.7195 29.0159 11.48C28.9724 11.348 28.7254 11.186 28.5604 11.063C28.2439 10.8885 27.9179 10.7265 27.5734 10.616C27.1164 10.4665 26.6429 10.3545 26.1599 10.3485C25.8974 10.323 25.6314 10.325 25.3689 10.348C25.1064 10.3535 24.8444 10.3905 24.5894 10.456C24.2089 10.539 23.8334 10.65 23.4764 10.8075C23.1844 10.924 22.9284 11.11 22.6619 11.2735C22.3979 11.445 22.1219 11.6095 21.9099 11.8475C21.6689 12.041 21.4969 12.3025 21.2964 12.535C21.1389 12.744 20.9994 12.9685 20.8924 13.209C20.7049 13.612 20.5084 14.0195 20.4289 14.461C20.3609 14.786 20.2944 15.115 20.2924 15.449C20.2679 15.816 20.2689 16.189 20.3489 16.5495C20.4004 16.794 20.4369 17.0425 20.5044 17.283C20.6704 17.9725 20.9824 18.6315 21.4419 19.174C21.7624 19.5605 22.1219 19.917 22.5244 20.2175C22.7684 20.383 23.0299 20.5215 23.2994 20.6415C23.7024 20.8465 24.1314 20.998 24.5709 21.1015C25.0269 21.203 25.4959 21.229 25.9619 21.2295C26.2389 21.2255 26.5124 21.1725 26.7869 21.1395C27.0259 21.0805 27.2669 21.024 27.5039 20.958C28.0084 20.7945 28.4969 20.578 28.9519 20.305Z" fill="#356799"/>
</svg>
