<svg width="58" height="40" viewBox="0 0 58 40" fill="none" xmlns="http://www.w3.org/2000/svg">
<path d="M55.5001 27.4998L55.0001 28.4998C53.0001 22.9998 49.5001 26.9998 50.0001 31.4998L37.5001 32.4998C37.0001 21.4998 31.0001 24.9999 31.5001 33.4999H1.00009C0.602893 32.0635 0.569267 31.2063 1.00009 29.4998H1.50008V19.9998C2.15631 16.6153 3.12344 14.9823 7.00009 12.9998V9.99985C7.53107 9.50856 7.9691 9.51609 8.50009 9.99985L9.50008 4.49985C11.9323 1.95477 13.3533 1.44976 16.0001 1.49985H35.5001L37.0001 2.99985L37.5001 22.4998L57.0001 21.4998L57.5001 24.9998H55.0001L55.5001 27.4998Z" fill="#FFC000"/>
<path d="M15.7321 22.7856C13.9701 22.6821 12.2601 22.6786 10.4941 22.7266C8.68712 22.7751 6.83712 22.6571 5.03962 22.8061C4.95112 22.8136 4.97912 22.9091 5.05212 22.9191C6.82612 23.1536 8.68012 23.0851 10.4726 23.0971C12.2341 23.1086 14.0126 23.1391 15.7481 22.9311C15.8566 22.9186 15.8341 22.7916 15.7321 22.7856Z" fill="#356799"/>
<path d="M15.7321 24.4521C13.9701 24.3486 12.2601 24.3451 10.4941 24.3931C8.68712 24.4416 6.83712 24.3236 5.03962 24.4726C4.95112 24.4801 4.97912 24.5756 5.05212 24.5856C6.82612 24.8201 8.68012 24.7516 10.4726 24.7636C12.2341 24.7751 14.0126 24.8056 15.7481 24.5976C15.8566 24.5851 15.8341 24.4581 15.7321 24.4521Z" fill="#356799"/>
<path d="M15.4114 26.1186C13.7554 26.0151 12.1489 26.0116 10.4894 26.0596C8.79144 26.1081 7.05244 25.9901 5.36344 26.1391C5.27994 26.1466 5.30694 26.2421 5.37544 26.2521C7.04244 26.4866 8.78444 26.4181 10.4689 26.4301C12.1244 26.4416 13.7954 26.4721 15.4264 26.2641C15.5279 26.2516 15.5069 26.1246 15.4114 26.1186Z" fill="#356799"/>
<path d="M10.4762 27.7261C9.03872 27.7751 7.56672 27.6566 6.13672 27.8056C6.06622 27.8131 6.08872 27.9086 6.14672 27.9186C7.55822 28.1531 9.03272 28.0846 10.4587 28.0966C11.8602 28.1086 13.2747 28.1386 14.6557 27.9306C14.7417 27.9181 14.7242 27.7911 14.6427 27.7851C13.2407 27.6816 11.8812 27.6781 10.4762 27.7261Z" fill="#356799"/>
<path d="M12.7159 3.35788C14.7324 2.97838 16.5109 3.09538 19.4949 3.09538H24.8074C25.2449 3.09538 26.0159 3.07488 26.6579 3.06938C26.7734 3.06838 26.7794 2.86688 26.6614 2.84538C26.2034 2.76238 25.0529 2.78088 24.2784 2.80188C23.1529 2.83288 22.0419 2.85488 20.9139 2.84238C18.2484 2.81338 14.4969 2.58488 12.6604 3.18138C11.1054 3.59138 10.2074 6.59488 9.97035 7.86688C9.69985 9.31738 9.74485 11.4499 9.78585 12.3734C9.79385 12.5599 10.0069 12.5989 10.0159 12.4084C10.0784 11.0749 10.0784 10.6789 10.1619 9.32488C10.2524 7.85188 10.8534 3.96988 12.7159 3.35788Z" fill="#356799"/>
<path d="M35.5836 29.7945C35.6156 29.86 35.7306 29.815 35.7031 29.7455C35.4656 29.138 35.0481 28.9635 34.5451 29.3835C33.5856 30.185 33.5731 32.081 33.7606 33.171C33.8626 33.762 34.3531 35.7595 35.2006 35.7725C36.1541 35.787 36.2326 33.457 36.2161 32.9505C36.2126 32.8515 36.0766 32.8535 36.0646 32.949C35.9641 33.733 35.8486 34.992 35.4161 35.2945C35.1611 35.367 34.9361 35.169 34.8011 34.9795C34.4006 34.5015 34.2216 34.0325 34.0791 33.4405C33.8791 32.61 33.9151 31.674 34.0661 30.8415C34.1586 30.3305 35.0156 28.6435 35.5836 29.7945Z" fill="#356799"/>
<path d="M53.6496 28.6429C53.6726 28.6949 53.7551 28.6584 53.7351 28.6029C53.5646 28.1144 53.2656 27.9744 52.9061 28.3124C52.2191 28.9559 52.2096 30.4794 52.3441 31.3554C52.4171 31.8299 52.7686 33.4354 53.3756 33.4449C54.0576 33.4574 54.1146 31.5854 54.1026 31.1779C54.1001 31.0989 54.0031 31.0999 53.9941 31.1764C53.9221 31.8064 53.8701 32.8704 53.5301 33.0614C53.4116 33.1104 53.1861 32.9604 53.0896 32.8079C52.8026 32.4239 52.6751 32.0469 52.5726 31.5714C52.4291 30.9044 52.4546 30.1524 52.5631 29.4834C52.6291 29.0729 53.2431 27.7174 53.6496 28.6429Z" fill="#356799"/>
<path d="M42.3977 20.0057C42.6437 19.9042 42.6897 19.6827 42.7122 19.4707C42.7422 19.1837 42.6067 19.3247 42.5892 19.3962C42.4457 19.9807 41.9847 19.8872 41.8382 19.5342C41.7032 19.1932 41.6827 18.8122 41.6802 18.4512C41.6792 18.2902 41.7162 18.1322 41.7577 17.9777C41.7922 17.8497 41.8487 17.7292 41.9342 17.6277C42.2417 17.2627 42.4907 18.0582 42.5082 18.1552C42.5227 18.2352 42.6602 18.2197 42.6512 18.1382C42.6097 17.7797 42.3882 17.3112 41.9582 17.3822C41.6147 17.4382 41.5212 18.0487 41.4857 18.3077C41.4287 18.7287 41.4602 19.6862 41.8642 19.9737C42.0402 20.0992 42.2007 20.0867 42.3977 20.0057Z" fill="#356799"/>
<path d="M52.5259 19.7724C52.6834 19.7239 52.7824 19.4709 52.8044 19.2414C52.8279 18.9914 52.7239 19.0224 52.7029 19.1724C52.6494 19.5569 52.2759 19.7519 52.0844 19.3004C51.9734 18.9844 51.9559 18.6309 51.9539 18.2959C51.9529 18.1469 51.9834 18.0004 52.0179 17.8574C52.0459 17.7389 52.0929 17.6269 52.1629 17.5329C52.4169 17.1939 52.6214 17.9319 52.6364 18.0214C52.6484 18.0954 52.7619 18.0814 52.7544 18.0059C52.7204 17.6734 52.5379 17.2394 52.1829 17.3044C51.8999 17.3569 51.8234 17.9229 51.7934 18.1629C51.7464 18.5534 51.7724 19.4414 52.1054 19.7074C52.2509 19.8244 52.3549 19.8244 52.5259 19.7724Z" fill="#356799"/>
<path d="M44.3034 4.39294C44.2189 4.38544 44.1974 4.51644 44.2814 4.53044C44.8929 4.63444 44.7034 6.98294 44.7474 7.89144C44.7944 8.86994 44.7454 9.85794 44.7159 10.8379C44.7034 11.2629 44.7619 11.3509 44.3224 11.3944C43.7239 11.4544 43.1709 11.4834 42.5934 11.4939C42.5859 11.3789 42.5624 11.2604 42.5139 11.1409C42.2204 10.4179 41.1914 10.3459 40.5579 10.7439C40.5154 10.3874 40.5409 10.0014 40.5404 9.78244C40.5359 8.15144 41.1984 4.69194 43.3324 4.33994C43.4379 4.32244 43.3949 4.17744 43.2914 4.19194C41.0304 4.50094 40.2854 8.04744 40.2804 9.77844C40.2789 10.1864 40.2594 10.5919 40.3194 10.9324C40.1869 11.0709 40.0924 11.2409 40.0579 11.4389C40.0429 11.5254 40.1679 11.5664 40.1914 11.4779C40.3864 10.7519 41.5559 10.4779 42.0749 11.0194C42.4764 11.4384 42.2364 12.0149 41.7459 12.1964C41.3294 12.3504 40.7339 12.3594 40.2534 12.0084C40.1769 11.9524 40.0699 12.0699 40.1454 12.1444C40.3534 12.3514 40.6804 12.5604 40.9999 12.5779C41.3404 12.5964 41.6889 12.6274 42.0009 12.4644C42.3059 12.3049 42.5014 12.0594 42.5689 11.7754C43.3664 11.7489 44.1754 11.6629 44.6584 11.5774C44.8649 11.5409 45.0114 11.3799 44.9934 10.9249C44.9384 9.53444 44.9434 7.76244 44.8684 6.17194C44.8464 5.70344 44.9839 4.44994 44.3034 4.39294Z" fill="#356799"/>
<path d="M47.7857 5.93366C48.6232 7.31266 49.1137 8.68466 49.2712 10.4342C49.3172 10.9457 49.2307 11.3127 48.7917 11.3637C48.5962 11.3862 47.1682 11.3497 46.9402 11.3247C45.8732 11.2072 45.8657 11.1357 45.7737 10.3402C45.6892 9.61316 45.6922 8.47316 45.6452 7.74916C45.5882 6.87266 45.5747 6.28666 45.5692 5.51266C45.5627 4.36916 45.8267 4.50066 46.5467 4.73066C46.6177 4.75316 46.6452 4.62766 46.5777 4.59516C46.2127 4.41666 45.8932 4.11166 45.5327 4.42916C45.2552 4.67366 45.4042 6.45916 45.4042 7.09916C45.4042 8.18416 45.4647 9.63766 45.5522 10.3992C45.6372 11.1382 45.5777 11.4237 46.2552 11.5262C46.8292 11.6127 47.3107 11.6537 47.8957 11.6537C48.1507 11.6537 48.7757 11.6702 49.0357 11.5907C49.3952 11.4807 49.4677 11.2642 49.5082 11.0052C49.7677 9.35166 48.8417 6.79866 47.8647 5.81066C47.8027 5.74866 47.7457 5.86766 47.7857 5.93366Z" fill="#356799"/>
<path d="M51.636 21.5052C51.6775 21.5552 51.7495 21.6217 51.834 21.6862C51.416 21.7037 50.998 21.7217 50.58 21.7362C50.0495 21.4507 49.753 20.8612 49.606 20.0037C49.9975 19.9757 50.328 19.9457 50.48 19.9177C50.571 19.9362 50.6575 19.8762 50.661 19.7837C50.68 19.2427 50.5765 18.6627 50.5685 18.1082C50.562 17.5817 50.4325 16.6427 50.9895 15.8857C51.088 15.7517 50.983 15.6912 50.9165 15.7597C50.5625 16.1212 50.4485 16.6432 50.406 17.0632C50.3445 17.6687 50.4065 19.3072 50.3305 19.6282C48.378 19.7422 46.3675 20.0012 43.526 19.9747C43.646 19.1757 43.5885 18.3302 43.471 17.5717C43.299 16.4612 42.719 15.0272 41.407 15.5812C40.068 16.1462 40.288 18.7142 40.4195 19.3537C40.438 19.4427 40.571 19.4487 40.5625 19.3557C40.491 18.6202 40.489 17.6532 40.679 16.9242C40.781 16.5327 41.02 16.1452 41.341 15.9022C42.5465 14.9907 42.9575 16.7087 43.128 17.2907C43.448 18.3802 43.376 19.5132 43.057 20.5877C42.7885 21.4907 41.895 22.3612 41.1875 21.2307C40.976 20.8922 40.875 20.6057 40.714 20.0957C40.6825 19.9947 40.548 20.0722 40.5585 20.1587C40.6425 20.8582 40.808 21.3907 41.2935 21.9117C41.34 21.9612 41.4165 22.0262 41.507 22.0902C41.0255 22.1037 40.54 22.1172 40.0475 22.1287C40.0435 22.1262 40.0435 22.1237 40.039 22.1212C39.4915 21.8582 39.0055 21.2377 38.9225 20.6287C39.045 20.6232 39.168 20.6187 39.2925 20.6152C39.609 20.6057 40.031 20.6212 40.0925 20.4357C40.222 20.0447 40.0685 19.5147 40.0515 19.0977C40.0135 18.1642 39.9915 17.0737 40.3435 16.1997C40.3725 16.1282 40.251 16.0752 40.2195 16.1452C39.734 17.2252 39.8525 18.4677 39.8395 19.6272C39.835 20.0287 39.966 20.2807 39.455 20.3147C38.639 20.3697 38.23 20.3857 37.571 20.3872C37.566 20.2347 37.5625 20.0872 37.5585 19.9462C37.504 17.8402 37.409 15.7337 37.401 13.6282C37.3995 13.3007 37.3975 12.9922 37.395 12.6927C37.9475 12.3712 38.538 12.0737 39.132 11.8462C39.2205 11.8122 39.296 11.7442 39.2935 11.6407C39.27 10.5002 39.4315 9.36723 39.5815 8.23873C39.7925 6.64823 40.759 3.74573 42.595 3.39073C42.6695 3.37623 42.656 3.24973 42.579 3.25623C40.7405 3.41923 39.6525 6.34123 39.3575 7.84773C39.145 8.93373 39.0525 10.0132 38.9055 11.1027C38.815 11.7672 37.92 11.8787 37.3915 12.3397C37.357 9.54573 37.251 7.84923 37.114 5.16173C37.1395 4.79023 37.1535 4.41973 37.156 4.04923C38.3585 4.02673 39.474 4.02173 40.7495 3.92423C40.8345 3.91773 40.8225 3.77173 40.7305 3.76973C39.6525 3.74473 38.1325 3.87823 37.158 3.89723C37.156 3.62423 37.147 3.35123 37.123 3.07873C40.3705 2.96873 43.022 2.44123 46 3.49623C47.843 4.15023 49.0555 5.96023 49.6405 7.71523C50.0445 8.92873 50.6405 10.6212 50.8 11.8212C50.8145 11.9322 50.8895 12.0457 51.012 12.0397C51.021 12.0392 51.029 12.0392 51.0375 12.0387C52.304 12.2212 53.2755 12.5397 53.8215 13.8747C54.1715 14.7307 54.373 15.6777 54.4515 16.6257C54.515 17.3892 54.594 18.3612 54.475 19.1372C54.1475 19.1867 53.842 19.2292 53.5155 19.2902C53.5535 18.6782 53.509 18.0527 53.43 17.4802C53.2885 16.4512 52.8105 15.1212 51.7295 15.6347C50.6255 16.1587 50.7755 18.4182 50.911 19.0957C50.9275 19.1777 51.0355 19.1832 51.0285 19.0972C50.953 18.1372 50.9725 17.5562 51.1285 16.8802C51.213 16.5167 51.4095 16.1577 51.6745 15.9327C52.668 15.0872 53.0065 16.6807 53.147 17.2202C53.4115 18.2302 53.352 19.2807 53.0885 20.2772C52.8675 21.1142 52.1295 21.8937 51.5465 20.8457C51.3725 20.5322 51.2615 20.3562 51.161 19.8872C51.1295 19.7417 51.0215 19.7992 51.0295 19.8792C51.099 20.5282 51.338 21.1477 51.636 21.5052ZM47.961 21.8387C46.8915 21.8907 45.8485 21.9357 44.809 21.9767C44.9995 21.8557 45.1205 21.6607 45.219 21.4147C45.307 21.1957 45.3875 20.9747 45.4195 20.7422C45.452 20.5087 45.483 20.3592 45.442 20.1927C46.233 20.1617 46.9735 20.1257 47.763 20.1002C48.17 20.0872 48.8395 20.0552 49.4235 20.0157C49.5015 20.8107 49.7235 21.3002 49.9685 21.6057C50.012 21.6597 50.061 21.7092 50.1125 21.7532C49.3955 21.7787 48.678 21.8042 47.961 21.8387ZM43.38 20.6102C43.4245 21.1307 43.6295 21.7682 44.0375 22.0067C43.5425 22.0247 43.047 22.0417 42.5485 22.0577C42.962 21.6487 43.221 21.1492 43.38 20.6102ZM43.96 20.2367C43.9775 20.4612 44.091 20.8387 44.303 20.9582C44.542 21.0932 44.6795 20.8157 44.756 20.6237C44.7885 20.5437 44.671 20.5067 44.6265 20.5667C44.5595 20.6582 44.451 20.8882 44.3265 20.7582C44.204 20.6307 44.105 20.4112 44.084 20.2347C44.4905 20.2262 44.8735 20.2137 45.243 20.2007C45.2215 20.6822 45.069 21.4347 44.7345 21.7827C44.3405 22.1922 43.8365 21.5552 43.7135 21.2257C43.6045 20.9322 43.516 20.5637 43.5315 20.2442C43.678 20.2422 43.8195 20.2397 43.96 20.2367ZM37.6295 22.1782C37.6135 21.6537 37.596 21.1507 37.581 20.6847C37.9945 20.6727 38.3755 20.6527 38.751 20.6362C38.7845 21.0932 38.9955 21.5882 39.242 21.8872C39.3185 21.9802 39.393 22.0712 39.4735 22.1412C38.871 22.1552 38.258 22.1672 37.6295 22.1782ZM1.7985 25.7097C1.798 25.4032 1.793 25.0942 1.787 24.7842C2.71 25.1282 3.7185 25.6887 4.264 26.4662C4.813 27.2472 4.90901 28.3667 5.00101 29.3077C3.93201 29.3252 2.852 29.3622 1.757 29.4212C1.9565 28.2262 1.801 26.9102 1.7985 25.7097ZM8.392 29.8792C10.8655 29.7917 13.338 29.9502 15.8125 29.9557C17.879 29.9607 19.945 29.9592 22.0135 29.9587C21.9975 30.5587 21.9915 31.1597 21.982 31.7597C21.976 32.1502 21.94 32.5372 21.929 32.9277C21.924 33.1022 21.9615 33.2287 21.995 33.3637C20.214 33.3662 18.433 33.3687 16.652 33.3712C15.3615 33.3737 3.2105 33.7782 1.2325 33.4497C0.835504 33.1002 0.877503 32.2672 0.873003 32.1202C0.839503 31.0722 0.871502 30.3182 0.840502 29.8507C3.465 30.0047 5.7565 29.9722 8.392 29.8792ZM16.0365 29.3107C16.107 27.7322 16.4835 26.7282 17.7655 25.7527C18.3825 25.2837 19.0365 25.0582 19.695 24.8362C19.9295 24.7572 20.1485 24.7157 20.371 24.6407C20.3795 26.2017 20.4215 29.3667 20.5845 29.3412C20.5735 29.3432 20.5655 29.3492 20.5555 29.3522C19.046 29.3522 17.5365 29.3522 16.0265 29.3547C16.029 29.3397 16.036 29.3282 16.0365 29.3107ZM14.625 36.1252C14.064 35.9077 13.8715 35.2247 13.7265 34.6767C13.7185 34.6457 13.7645 34.6262 13.773 34.6572C13.9105 35.1722 14.364 36.0172 15.0635 35.9152C15.5525 35.8442 15.9205 35.3252 16.0595 34.8662C16.069 34.8347 16.113 34.8517 16.1065 34.8837C15.9585 35.6252 15.4215 36.4347 14.625 36.1252ZM39.274 33.1617C39.306 33.4447 39.582 33.8442 39.9585 33.7917C40.287 33.7462 40.305 33.4357 40.4955 33.2037C40.4985 33.2012 40.505 33.2027 40.5055 33.2067C40.556 33.5822 40.2585 34.0537 39.8325 33.9997C39.4335 33.9492 39.2645 33.5252 39.2255 33.1717C39.222 33.1402 39.271 33.1297 39.274 33.1617ZM57.4145 23.3707C57.3865 22.5897 57.3705 22.1882 57.3075 21.6572C57.309 21.6197 57.3045 21.5842 57.295 21.5522V21.5512C57.295 21.5512 57.2945 21.5512 57.2945 21.5507C57.28 21.4997 57.254 21.4612 57.216 21.4607C56.4615 21.4492 55.118 21.4897 53.727 21.5852C53.3665 21.6102 53.006 21.6282 52.6455 21.6467C53.1435 21.1007 53.3905 20.3882 53.4805 19.6282C53.6255 19.6292 53.8215 19.6137 54.0615 19.6017C54.285 19.5907 54.578 19.5642 54.693 19.5292C54.797 19.4972 54.842 19.4192 54.8445 19.3392C55.0455 18.9257 54.9675 17.9927 54.953 17.6527C54.8905 16.1837 54.7395 15.4142 54.4625 14.5292C53.9025 12.7402 53.023 11.9252 51.1865 11.7727C51.1735 11.7077 50.991 10.8992 50.9685 10.8087C50.828 10.2462 50.3905 8.75023 50.058 7.75323C49.5685 6.28623 48.8175 4.86723 47.5335 3.94073C44.584 1.81123 40.451 2.57973 37.058 2.59873C37.045 2.51623 37.049 2.43123 37.023 2.35123C36.5835 0.999732 34.0385 0.948232 33.003 0.949232C31.102 0.951232 29.216 0.997732 27.318 1.05373C23.277 1.17273 19.3965 1.09573 15.3635 1.23923C15.298 1.21723 13.9615 1.37123 13.728 1.42823C13.1025 1.57973 12.4995 1.85473 11.909 2.09273C10.726 2.56973 9.898 3.55473 9.423 4.63523C8.8605 5.91473 8.794 7.17823 8.519 8.50923C8.2415 9.85423 8.176 11.4362 8.2015 12.5857C7.9635 12.6777 7.586 12.8407 7.295 12.9692C7.219 12.2692 7.168 11.5857 7.1415 10.8782C7.136 10.7332 7.1425 10.0067 7.213 9.90373C7.333 9.72923 7.6605 9.62123 7.794 9.95823C7.8255 10.0377 7.965 10.0407 7.958 9.93873C7.927 9.49623 7.0985 9.36973 6.9275 9.77273C6.501 10.7777 6.698 12.1387 6.808 13.1832C6.8085 13.1862 6.81 13.1882 6.8105 13.1907C5.9585 13.6017 5.203 14.0567 4.378 14.5217C3.0615 15.2642 2.1745 16.5067 1.727 17.9222C1.166 19.6977 1.137 21.5372 1.132 23.3912C1.126 25.3572 0.954502 27.4107 1.1255 29.3652C1.128 29.3952 1.135 29.4257 1.1435 29.4552C1.0115 29.4632 0.882502 29.4682 0.750502 29.4767C0.609502 29.4867 0.553005 29.6222 0.578505 29.7267C0.576005 29.7302 0.573004 29.7322 0.572504 29.7372C0.503004 30.3257 0.499505 30.9312 0.480005 31.5227C0.473005 31.7552 0.536504 33.5537 0.739004 33.7627C0.875004 33.9027 1.0385 33.9152 1.2065 33.8927C2.6955 34.1097 4.743 34.0382 6.7135 34.0162C6.78 34.3567 6.85 34.6637 6.927 35.0022C7.0485 35.5407 7.3075 36.0287 7.57 36.4977C7.92 37.1232 8.8075 37.8642 9.5625 38.0327C9.568 38.0347 9.57 38.0387 9.5765 38.0407C10.304 38.2392 12.145 38.1367 13.322 38.1172C12.229 37.5207 11.5145 36.0907 11.553 34.2712C11.5535 34.2392 11.5985 34.2532 11.601 34.2852C11.7195 35.8512 12.327 37.1822 13.408 37.7872C13.9375 38.0837 14.6885 38.0817 14.9375 38.0127C15.7505 37.8587 16.601 37.0012 16.8875 36.3937C17.2525 35.6197 17.3945 34.7817 17.4575 33.9427C20.0485 33.9452 22.6395 33.9517 25.2305 33.9542C25.7705 33.9547 26.35 33.9472 26.9345 33.9322C26.9385 34.3352 27.037 34.7882 27.0915 35.1582C27.18 35.7642 27.405 36.3322 27.642 36.9002C27.986 37.7237 29.198 38.7662 29.6445 38.9022C29.6525 38.9062 29.655 38.9132 29.6655 38.9157C29.6845 38.9202 29.706 38.9227 29.7255 38.9272C29.727 38.9272 29.7295 38.9292 29.731 38.9292C29.732 38.9292 29.7325 38.9287 29.7335 38.9287C30.849 39.1717 32.3815 39.0992 33.5175 39.1062C33.893 39.1087 34.5235 39.0917 34.9845 38.9407C35.7685 38.7802 36.589 37.7857 36.95 36.9582C37.1435 36.5147 37.2855 36.1342 37.375 35.6562C37.951 35.7107 38.656 35.6832 39.237 35.6387C39.142 35.5707 39.0505 35.4972 38.971 35.4132C38.4035 34.8182 37.8705 33.9987 38.0125 32.9347C38.017 32.9027 38.064 32.9057 38.0625 32.9377C38.0195 33.6622 38.4235 34.5027 38.9985 34.9712C39.428 35.3212 40 35.5002 40.356 35.4027C40.3665 35.3952 40.3815 35.3912 40.391 35.3837C40.8685 35.1302 41.3075 34.5377 41.5155 34.0347C41.767 33.4262 41.9155 32.7632 41.9685 32.0937C43.1985 32.0277 44.3885 31.9607 45.673 31.8672C46.15 31.8322 46.671 31.7977 47.197 31.7627C47.1635 32.1097 47.1585 32.5852 47.205 32.9522C47.29 33.6237 47.3695 33.8567 47.528 34.3227C47.7575 34.9962 48.323 35.6502 48.828 35.9302C48.8485 35.9462 48.87 35.9602 48.888 35.9657C49.372 36.1167 51.413 36.0402 52.275 36.0462C52.499 36.0477 52.799 36.0497 53.063 35.9942C53.6945 35.9952 54.401 35.0432 54.627 34.3977C55.0115 33.3017 55.058 32.0717 55.073 30.9037C55.086 29.8962 55.0175 28.9412 54.731 27.9847C54.5055 27.2302 54.1265 26.4652 53.413 26.2577C52.736 26.0612 52.074 27.0982 51.8005 27.6187C51.2495 28.6692 51.1175 30.0867 51.218 31.2802C51.2885 32.1112 51.3075 33.0667 51.934 34.4957C51.9615 34.5597 52.0285 34.4842 52.005 34.4182C51.651 33.4267 51.5885 32.7397 51.4835 31.9822C51.3375 30.9292 51.381 30.0322 51.5365 28.9952C51.667 28.1212 52.6565 25.5852 53.8705 26.7272C54.353 27.1817 54.69 28.3957 54.747 29.0602C54.8695 30.4932 54.892 31.6012 54.68 32.8152C54.553 33.5442 54.467 34.3772 54.026 34.9602C53.918 35.1032 53.641 35.5247 53.2365 35.6462C53.1775 35.6537 53.1095 35.6612 53.035 35.6692C52.75 35.6417 52.54 35.3697 52.461 35.2507C52.401 35.1597 52.277 35.2317 52.3225 35.3387C52.39 35.4972 52.4655 35.6157 52.545 35.7132C51.3645 35.8062 49.419 35.7652 48.947 35.6832C48.923 35.6797 48.899 35.6727 48.875 35.6662C48.451 35.2222 48.168 34.7552 47.9245 34.1582C47.725 33.6662 47.6325 33.1242 47.56 32.5947C47.521 32.3157 47.529 32.0497 47.5505 31.7387C48.2285 31.6932 48.906 31.6457 49.5155 31.5952C50.0315 31.5517 50.209 31.5237 50.1985 31.3947C50.199 31.3912 50.203 31.3907 50.203 31.3872C50.1615 30.1577 49.8225 27.5832 51.613 26.2617C51.6845 26.2087 51.6235 26.0882 51.5425 26.1377C50.8085 26.5897 50.446 27.0222 50.182 27.8247C49.8725 28.7657 49.8005 29.9822 49.9575 31.2332C48.5485 31.1732 38.959 32.0082 37.5735 32.2057C37.5655 31.0987 37.452 30.0377 37.095 28.9752C36.7795 28.0367 36.251 27.0847 35.253 26.8267C34.3085 26.5822 33.3835 27.8717 33.002 28.5192C32.232 29.8277 32.047 31.5922 32.188 33.0777C32.286 34.1117 32.3805 35.7747 33.203 37.0587C33.2515 37.1352 33.3405 37.0432 33.3025 36.9622C32.787 35.8687 32.716 34.7167 32.559 33.9512C32.292 32.6502 32.4165 31.5237 32.633 30.2337C32.8155 29.1462 34.197 25.9897 35.893 27.4112C36.567 27.9757 37.1 29.4842 37.117 30.3142C37.1485 31.8372 37.319 33.4772 37.0235 34.9887C36.801 36.1252 36.5085 37.3782 35.6875 38.0432C35.359 38.3087 35.228 38.4032 34.95 38.5292C34.609 38.6837 34.0545 38.1937 33.925 38.0197C33.8405 37.9057 33.667 37.9962 33.7305 38.1292C33.8355 38.3507 33.953 38.5182 34.078 38.6467C32.6295 38.7452 30.2405 38.6502 29.625 38.5832C28.816 37.9157 28.6085 37.6122 28.191 36.8382C27.8615 36.2262 27.6605 35.6577 27.524 34.7132C27.487 34.4572 27.481 34.1777 27.4835 33.9147C29.337 33.8492 31.132 33.7002 31.7655 33.4497C31.7845 33.4422 31.795 33.4272 31.807 33.4132C31.837 33.3972 31.8615 33.3717 31.859 33.3247C31.7605 31.5452 31.652 31.2992 31.8435 29.9652C32.0855 28.2747 33.11 24.4562 35.7315 26.1927C35.793 26.2337 35.8665 26.1422 35.8125 26.0917C34.334 24.7157 32.775 26.0847 32.133 27.5192C31.2735 29.4397 31.253 31.2187 31.623 33.2412C29.309 33.2972 27.5775 33.3562 25.2395 33.3587C24.2885 33.3597 23.337 33.3617 22.386 33.3632C22.354 32.8307 22.307 32.3042 22.2985 31.7647C22.2895 31.1627 22.283 30.5602 22.2675 29.9587C22.695 29.9587 23.1215 29.9592 23.55 29.9592H27.1835C28.024 29.9592 30.2715 30.0362 31.04 29.6737C31.1755 29.6097 31.0995 29.4262 30.974 29.4137C28.87 29.2107 25.196 29.3507 23.0815 29.3507C22.3975 29.3507 21.7165 29.3517 21.0335 29.3517C21.0965 27.9597 20.917 26.5862 20.9335 25.1867C20.953 23.5712 20.973 21.9732 21.036 20.3627C21.107 18.5437 21.7795 16.7547 22.953 15.4017C23.7475 14.4872 25.0585 13.4487 26.134 12.8697C26.2945 12.7832 26.3175 12.7282 26.339 12.6442C26.4475 12.4327 26.403 11.6742 26.4005 11.1182C26.3965 10.0037 26.448 8.65623 26.5985 7.49123C26.882 5.30173 27.6625 3.34623 29.5415 1.95823C29.5995 1.91523 29.524 1.82023 29.464 1.86023C25.9325 4.24273 26.045 8.68873 25.991 12.3547C25.1845 12.3162 23.765 12.3142 22.828 12.3247C21.5785 12.3387 20.508 12.2967 19.259 12.3222C16.608 12.3762 13.9575 12.4537 11.3065 12.5032C11.217 12.5052 11.2145 12.6442 11.3045 12.6457C13.797 12.6897 16.291 12.7242 18.784 12.7342C20.033 12.7392 21.282 12.7387 22.532 12.7377C23.693 12.7367 24.2505 12.7207 25.942 12.6477C25.728 12.8282 25.198 13.1082 25.078 13.1997C24.484 13.6517 23.8235 14.0587 23.242 14.5472C21.951 15.6322 21.2225 17.0237 20.795 18.6517C20.3515 20.3402 20.3755 22.1187 20.3685 23.8507C20.3685 23.9327 20.3685 24.0987 20.369 24.3187C19.9225 24.3327 19.4815 24.4082 19.0495 24.5357C18.2965 24.7572 17.3095 25.2357 16.992 25.4847C15.837 26.3902 15.3445 27.8072 15.4105 29.3007C15.4115 29.3212 15.4195 29.3362 15.423 29.3552H15.416C12.038 29.3632 8.846 29.2642 5.5925 29.3002C5.4795 28.1372 5.286 26.9292 4.5725 25.9732C4.0175 25.2302 2.755 24.6602 1.782 24.5162C1.751 23.0162 1.7075 21.4922 1.9365 20.0247C2.2225 18.1922 2.6365 16.6752 4.0945 15.4142C4.7445 14.8517 5.5945 14.3152 6.3455 13.9087C6.613 13.7647 6.89051 13.5897 7.17451 13.4172C7.20901 13.4067 7.2385 13.3887 7.2625 13.3642C7.69 13.1072 8.131 12.8617 8.5725 12.7402C8.621 12.7267 8.667 12.6787 8.663 12.6252C8.662 12.6167 8.6615 12.6087 8.66101 12.5997C8.722 11.4772 8.719 10.4522 8.8905 9.24623C9.03601 8.22323 9.2995 7.04873 9.541 6.04673C10.1925 3.34173 12.203 1.86623 15.703 1.50173C15.7035 1.50173 15.705 1.50173 15.7055 1.50123C19.469 1.62173 23.0745 1.53123 26.8515 1.56673C28.755 1.58473 30.663 1.51823 32.5695 1.48423C36.4165 1.41673 36.587 2.53623 36.677 2.92623C36.84 3.63673 36.829 4.41673 36.8415 5.17473C36.782 8.24373 36.9525 10.0127 36.9335 13.6217C36.922 15.7257 37.019 17.8337 37.0625 19.9387C37.105 22.0302 36.9485 25.4082 37.195 27.4857C37.2205 27.7022 37.524 27.7122 37.5505 27.4917C37.709 26.1607 37.6895 24.2967 37.6415 22.5797C39.229 22.6417 40.43 22.5872 41.824 22.5752C43.864 22.5572 45.915 22.4942 47.9525 22.3842C50.034 22.2717 52.1185 22.2402 54.1985 22.0972C55.1995 22.0282 56.402 21.9597 57.0065 21.8737C57.0075 22.1887 57.013 22.4847 57.04 23.0307C57.0645 23.5417 57.1015 24.1917 57.106 24.7462C56.06 24.7867 54.979 24.8852 53.832 24.9382C52.173 25.0152 50.491 25.1457 48.8395 25.3327C46.974 25.5442 45.106 25.6617 43.232 25.7882C41.513 25.9047 40.474 25.9497 38.0165 26.1937C37.927 26.2027 37.929 26.3302 38.0145 26.3302C40.3075 26.3247 41.5165 26.2027 43.2265 26.1417C45.2575 26.0707 47.2725 25.9917 49.2935 25.7847C50.91 25.6197 52.5595 25.5162 54.183 25.4452C54.4635 25.4327 54.7705 25.4137 55.0845 25.3902C55.04 26.1442 55.07 26.9267 55.163 27.6632C55.173 27.7442 55.306 27.7777 55.339 27.7132C55.453 27.4912 55.5035 27.2242 55.474 26.8457C55.423 26.2047 55.389 25.8072 55.3385 25.3697C55.672 25.3402 56.012 25.3052 56.3425 25.2587C56.7495 25.2022 57.129 25.1917 57.329 25.1217C57.4235 25.1197 57.514 25.0482 57.5185 24.8907C57.5335 24.3572 57.4315 23.8472 57.4145 23.3707Z" fill="#356799"/>
<path d="M28.8891 12.5941C30.2546 12.6056 31.4731 12.5631 33.1206 12.5331C33.6436 12.5237 34.7536 12.5796 35.0046 12.4776C35.1346 12.4536 35.2426 12.3561 35.2426 12.2046C35.2426 9.39165 35.3831 6.04865 35.0746 3.23665C35.0641 3.13665 34.9176 3.12765 34.9146 3.23415C34.8746 4.57665 34.9766 6.02165 34.9326 7.36665C34.8861 8.78065 34.9491 10.7351 34.8156 12.1066C34.7861 12.1056 34.7536 12.1071 34.7171 12.1141C34.5091 12.1531 32.9776 12.1346 32.5416 12.1586C31.2461 12.2301 29.9716 12.2811 28.8906 12.3061C28.8901 11.6836 28.8836 11.0611 28.9101 10.4396C28.9331 9.89465 28.7791 9.63965 28.2886 9.47015C28.0361 9.38315 27.8331 9.37715 27.6626 9.42165C27.6996 8.63615 27.7911 7.98565 28.0161 6.99165C28.2961 5.75315 28.8916 4.14365 30.0681 3.53515C31.2651 2.91615 32.6201 2.89365 33.9311 2.85415C34.0301 2.85115 34.0326 2.70515 33.9331 2.69965C31.6486 2.58115 29.0576 2.80415 28.0406 5.71165C27.5821 7.02115 27.3311 8.28465 27.2981 9.65265C26.7646 10.2781 26.9391 11.8606 26.9721 12.4361C26.9791 12.5526 27.1471 12.5567 27.1536 12.4391C27.1846 11.8967 27.2081 11.3566 27.2481 10.8146C27.3391 9.57465 28.6801 9.38515 28.6346 10.8106C28.6016 11.8411 28.6556 12.8751 28.5856 13.9046C28.5481 14.4562 28.4701 14.8641 28.4586 15.4171C28.4471 15.9771 27.3051 15.7666 27.2726 15.3776C27.2101 14.6331 27.1726 14.2491 27.0836 13.5001C27.0726 13.4057 26.9466 13.4011 26.9351 13.4976C26.8371 14.3206 26.7276 16.0426 27.5236 16.2161C29.2086 16.5836 28.7946 14.7962 28.8526 13.9081C28.8811 13.4711 28.8876 13.0326 28.8891 12.5941Z" fill="#356799"/>
</svg>
