<svg width="120" height="120" viewBox="0 0 120 120" fill="none" xmlns="http://www.w3.org/2000/svg">
<g clip-path="url(#clip0_1959_231943)">
<circle cx="60.0005" cy="59.9975" r="59.0366" fill="white" stroke="#356799"/>
<mask id="mask0_1959_231943" style="mask-type:alpha" maskUnits="userSpaceOnUse" x="1" y="1" width="118" height="118">
<circle cx="60.0005" cy="59.9975" r="58.5366" fill="white"/>
</mask>
<g mask="url(#mask0_1959_231943)">
<path d="M50.4882 134.628C69.9794 145.72 81.0573 144.202 100.976 133.165C96.0433 109.689 92.6194 96.6709 81.2199 74.6282L95.854 68.7746L86.3418 51.9453L65.1223 62.1892L64.3906 61.4575H62.9272L58.537 74.6282C55.1254 73.5938 53.1962 72.1 49.7565 68.7746V71.7014C41.1664 76.2645 35.8709 80.4938 24.8784 92.9209C26.5721 99.6608 28.7379 102.783 38.0492 105.36L48.2931 95.116C50.3784 112.263 50.6143 120.83 50.4882 134.628Z" fill="#FFCB30"/>
<path d="M50.4882 134.628C69.9794 145.72 81.0573 144.202 100.976 133.165C96.0433 109.689 92.6194 96.6709 81.2199 74.6282L95.854 68.7746L86.3418 51.9453L65.1223 62.1892L64.3906 61.4575H62.9272L58.537 74.6282C55.1254 73.5938 53.1962 72.1 49.7565 68.7746V71.7014C41.1664 76.2645 35.8709 80.4938 24.8784 92.9209C26.5721 99.6608 28.7379 102.783 38.0492 105.36L48.2931 95.116C50.3784 112.263 50.6143 120.83 50.4882 134.628Z" fill="#60CEF5"/>
<path d="M103.054 225.884C103.531 227.056 103.956 228.187 104.923 229.04C105.021 229.127 105.147 229.1 105.225 229.026C106.83 229.607 108.718 229.584 110.161 230.421C112.021 231.501 116.124 234.148 114.902 236.073C113.7 237.309 110.417 237.563 109.899 237.598C108.821 237.672 107.738 237.748 106.659 237.687C104.194 237.547 101.677 237.217 99.2485 236.75C95.4344 236.016 92.6455 235.184 89.1855 233.931C88.434 231.359 88.9618 227.782 89.7601 225.625C90.1205 224.658 91.3967 222.973 91.8361 221.65C93.0382 222.141 94.3305 222.461 95.0031 222.564C97.5201 222.962 99.1809 222.531 101.336 221.657C101.584 221.515 101.759 221.486 101.719 221.953C101.893 223.319 102.541 224.618 103.054 225.884ZM45.4256 221.777C45.4288 221.763 45.6541 221.858 45.6525 221.847C47.7204 222.759 49.3522 223.224 51.8386 222.922C52.5853 222.831 54.0804 222.505 55.3952 221.974C55.9697 223.239 56.9562 224.711 57.2635 225.529C58.0312 227.601 58.5735 231.015 57.9491 233.562C54.407 234.885 51.5763 235.965 47.6979 236.712C45.2711 237.178 42.7525 237.507 40.2871 237.648C39.2089 237.708 38.1258 237.635 37.0476 237.56C36.568 237.528 33.895 237.251 32.5866 236.401C31.4971 233.649 34.9072 231.576 36.9011 230.421C38.3463 229.584 40.2324 229.607 41.8401 229.026C41.9173 229.1 42.0412 229.127 42.1394 229.04C43.1082 228.187 43.533 227.056 44.0094 225.884C44.5228 224.618 45.1681 223.319 45.3451 221.953C45.3676 221.966 45.4256 221.777 45.4256 221.777ZM50.2663 132.783C49.7674 131.518 48.9869 130.366 47.9119 129.563C47.9087 129.541 47.9264 129.523 47.9184 129.494C47.2569 127.259 45.5801 125.035 44.5034 122.946C42.8298 119.692 41.1593 116.43 39.4245 113.208C38.3012 111.121 37.1683 109.146 35.419 107.521C35.3144 107.426 35.1679 107.321 34.9957 107.216C35.0971 107.08 35.2436 106.888 35.4817 106.597C35.6555 106.388 35.9146 106.159 36.0997 105.937C36.4747 105.985 36.8545 106.006 37.2407 105.998C37.3018 106.043 37.3775 106.064 37.4435 105.998L37.4998 105.943C37.5078 105.937 37.5111 105.931 37.5159 105.924C39.5307 103.882 40.5446 102.783 41.9302 101.256C43.9659 99.0123 45.9808 97.139 47.8282 94.7669C47.8942 95.0276 47.9699 95.3061 48.0294 95.5603C49.0738 100.028 49.4311 105.017 49.6966 109.627C49.9702 114.376 50.0813 119.141 50.1086 123.898C50.1183 125.965 50.3017 128.025 50.2358 130.089C50.2148 130.735 50.3243 131.889 50.2663 132.783ZM96.4531 65.6145C96.4531 65.6339 96.4547 65.6499 96.4547 65.666C96.4451 65.658 96.429 65.658 96.4177 65.6499C96.429 65.6371 96.4435 65.6258 96.4531 65.6145ZM115.98 171.5C113.586 166.299 111.061 161.15 108.668 155.943C107.393 153.168 105.837 150.539 104.183 147.978C103.355 146.694 102.515 145.421 101.682 144.142C100.937 142.994 99.3563 141.203 99.1085 139.864C98.8091 138.242 98.8815 136.443 97.8967 135.431C99.0264 134.779 100.098 134.05 101.085 133.215C101.146 133.184 101.194 133.142 101.246 133.089C101.278 133.062 101.312 133.039 101.344 133.01C101.341 132.999 101.336 132.988 101.333 132.978C101.363 132.909 101.392 132.836 101.379 132.75C101.238 131.515 100.887 130.408 100.583 129.14C99.8857 126.237 99.3579 123.334 98.5468 120.453C97.084 115.245 95.4296 110.105 93.9346 104.914C92.4331 99.7139 90.4118 94.5706 88.3358 89.5802C86.3532 84.807 84.7809 79.4529 81.6444 75.2768C86.6284 73.1927 91.6832 70.5454 96.6462 69.2451C96.7428 69.2178 96.8297 69.1389 96.8796 69.0375C97.615 68.2667 97.0679 65.6483 96.9037 65.0819C96.9037 65.0819 96.9037 65.0851 96.9005 65.0851C96.8796 65.0513 96.8055 65.0207 96.6559 64.937C94.8213 64.039 93.9877 62.985 93.1669 61.9196C91.7749 60.114 90.7337 58.561 89.7584 56.8085C88.9973 55.4374 88.2151 53.3694 88.0864 52.7032C88.1073 52.6887 88.1298 52.6678 88.1475 52.6533C88.6593 52.2944 89.1823 51.8679 89.7327 51.5557C90.4698 52.3041 91.2132 53.0443 91.9921 53.7508C93.315 54.9546 94.8857 56.1696 96.7412 56.0022C96.9826 55.9813 97.0115 55.616 96.7653 55.5725C94.1953 55.1171 91.9374 52.4248 90.1543 50.6754C88.2682 48.8167 86.4417 46.8823 84.62 44.9608C81.1696 41.327 78.0379 37.1783 74.1209 34.045C74.1 34.0015 74.0662 33.9613 74.0083 33.9533C73.9278 33.8889 73.8506 33.9001 73.7814 33.9356C72.9671 33.8374 72.1495 33.8551 71.3336 33.7907C70.0639 33.6925 67.6548 32.7447 67.3361 31.2979C67.2798 31.0388 66.9 31.145 66.9435 31.3993C67.1398 32.595 68.5383 33.4544 69.5393 33.9565C70.8235 34.597 72.3909 34.5728 73.783 34.3507C78.0138 38.4625 81.5253 43.0007 85.6226 47.2541C86.807 48.4852 87.9657 49.734 89.1517 50.9635C89.1292 50.9587 89.1115 50.9458 89.089 50.9442C89.0214 50.912 88.9361 50.8814 88.809 50.8428C88.1331 50.6433 87.5843 50.5853 87.1948 50.7253C87.1256 50.7221 87.0548 50.7398 86.9937 50.7945C84.3367 53.1859 81.0168 54.5281 77.9575 56.3015C75.1444 57.9334 68.8971 59.422 66.4591 61.6396C66.3191 61.7715 66.4945 62.0145 66.657 61.9148C67.481 61.3998 68.5608 60.888 69.7565 60.3795C68.424 65.2911 71.464 72.4122 75.0575 75.6034C75.2426 75.7692 75.5017 75.523 75.3359 75.3315C71.958 71.408 69.3477 65.4536 70.1637 60.2105C73.2422 58.9344 76.9597 57.6904 79.0856 56.477C80.8252 55.4872 82.5375 54.4863 84.3078 53.5641C85.0754 53.1602 85.8833 52.7193 86.5559 52.1335C86.5624 52.2509 86.5576 52.3604 86.5737 52.4972C87.0066 56.1004 88.7542 59.5813 90.1527 62.8659C91.0845 65.0529 93.1685 67.7388 95.3347 68.8814C94.3707 69.4704 92.8982 69.7504 91.9487 70.0514C90.3732 70.5503 88.7285 71.2728 87.2206 71.931C83.5675 73.5258 79.9289 75.5922 76.1663 76.8748C76.1068 76.8957 76.0746 76.9392 76.0569 76.9907C75.9282 77.0711 75.9217 77.1403 76.1052 77.1966C76.1422 77.2337 76.1921 77.2562 76.2597 77.2369C77.869 77.5153 80.7705 77.8452 82.5021 77.8709C84.6345 81.6801 86.0603 85.8514 87.7291 89.8908C89.9097 95.1677 91.9407 100.66 93.4968 106.159C94.8615 110.99 96.3694 115.791 97.7454 120.628C98.83 124.439 100.05 128.498 100.695 132.492C93.9748 136.718 86.2116 139.097 78.4193 140.357C73.1489 141.211 68.2293 140.416 63.0457 139.436C60.6061 138.974 58.3627 138.427 56.0936 137.37C54.568 136.66 51.6664 135.445 50.6896 133.807C51.5538 132.227 51.1402 128.681 51.0501 127.08C50.7556 122.072 50.8521 117.033 50.5624 112.019C50.3098 107.579 49.6886 103.262 49.1994 98.861C48.9708 96.7818 48.509 95.1387 47.9779 93.1126C47.7478 92.5654 47.3615 92.3385 47.4517 93.288C47.5434 93.6292 47.6174 93.9494 47.7059 94.2825C45.424 96.3167 43.319 98.317 41.375 100.683C40.0087 102.345 39.4165 103.116 37.2825 105.533C34.1927 104.64 31.4923 103.09 29.2441 100.791C28.1192 99.6399 27.0909 98.375 26.2154 97.028C25.7825 96.3634 24.9779 94.8281 24.7413 93.2848C28.388 89.0395 35.213 82.3915 39.4309 78.9637C40.8101 77.842 42.9923 76.3244 44.8832 75.0547C43.7712 77.0261 44.4825 80.4732 44.7143 82.3915C45.0699 85.3493 45.4722 88.193 46.7388 90.9433C47.0493 91.6143 47.3278 91.2732 47.2489 91.0639C46.4233 88.8286 46.0258 86.4678 45.5865 84.1391C45.1359 81.7638 44.1285 76.7589 45.7088 74.5461C45.7201 74.5284 45.712 74.5123 45.7185 74.4979C47.3406 73.4212 48.5782 72.6279 48.6055 72.6102C49.2203 72.0421 48.7568 71.68 48.3062 71.931C45.984 73.2619 43.6473 74.5461 41.5182 76.1989C36.531 80.0709 27.8199 87.3642 24.3534 92.9452C24.2762 93.0305 24.2231 93.1126 24.1957 93.1882C24.1877 93.2043 24.1748 93.2188 24.1652 93.2333C24.17 93.2413 24.1716 93.2462 24.1748 93.2542C24.1748 93.2622 24.1635 93.2751 24.1652 93.2816C24.4339 94.4451 24.7735 95.43 25.15 96.2926C23.3525 99.3727 20.2385 101.507 19.3308 105.102C18.5069 108.351 22.7876 112.376 24.3937 114.647C29.2602 121.528 35.2757 127.07 42.0863 131.922C42.2826 132.061 42.5176 131.76 42.3454 131.596C37.2729 126.739 31.9139 122.571 27.5141 116.999C25.1694 114.027 22.3965 111.053 20.5587 107.735C19.0669 105.042 20.9836 102.398 22.9598 100.002C23.1577 101.19 24.2746 102.458 25.134 103.081C25.5572 103.388 27.2148 104.996 30.686 105.974C30.641 105.981 30.5782 105.979 30.5396 105.992C29.9361 106.199 29.8637 106.462 29.9747 106.43C30.4398 106.294 30.6683 106.336 30.8083 106.354C32.8328 106.607 34.0543 107.065 35.5606 108.549C37.3437 110.3 38.3672 112.88 39.5243 115.051C42.0686 119.816 44.04 124.906 47.1008 129.356C47.0751 129.428 47.0735 129.51 47.1411 129.581C47.9699 130.421 48.855 131.275 49.3329 132.376C49.6741 133.157 49.9783 133.961 50.2889 134.76C47.8685 135.279 48.1549 137.762 47.759 139.903C47.5096 141.24 45.9341 143.033 45.1858 144.18C44.5582 145.143 43.9321 146.103 43.3045 147.067C42.8346 147.475 42.0605 147.32 41.5327 147.167C40.2291 146.791 39.0865 146.075 38.1821 145.061C37.7299 144.554 36.8979 143.968 37.7074 143.221C38.4235 142.565 39.1413 142.565 40.065 142.534C40.1149 142.534 41.214 142.425 41.1915 142.357C41.4104 143.006 41.037 143.447 40.551 143.836C40.2742 143.791 39.999 143.741 39.7222 143.775C39.1445 143.841 39.3746 144.554 39.7496 144.507C40.5108 144.599 41.1899 144.805 41.9495 144.567C42.5337 144.382 42.965 143.965 43.3029 143.471C43.4236 143.298 43.1967 143.067 43.0213 143.179C42.553 143.477 42.0798 143.706 41.5423 143.849C41.3717 143.899 41.1996 143.902 41.0322 143.892C41.6952 143.361 41.8867 142.779 41.7532 141.882C41.7306 141.728 41.5665 141.631 41.4249 141.625C40.0328 141.538 38.1113 141.478 37.0781 142.573C35.7988 143.928 36.7708 144.839 37.8281 146.025C38.9803 147.32 40.7956 147.973 42.4242 148.432C40.8696 150.864 39.4052 153.358 38.2014 155.98C35.8084 161.189 33.2834 166.336 30.8872 171.538C28.9705 175.703 27.0056 180.351 27.049 184.973C27.0297 185.002 27.0072 185.024 27.0056 185.069C26.9138 187.583 28.7323 189.41 30.0681 191.452C32.2696 194.822 34.1042 198.507 35.9549 202.084C37.5996 205.271 38.9578 208.58 40.3128 211.9C41.6308 215.123 43.2852 218.05 44.8494 221.102C44.8237 221.145 44.7899 221.174 44.7802 221.233C44.5871 222.638 44.0174 223.865 43.4848 225.162C43.0213 226.29 42.5675 227.468 41.9398 228.525C39.2604 229.08 36.1287 229.365 34.0334 231.317C32.7636 232.505 29.7044 235.347 32.3758 236.914C32.4031 236.932 32.4273 236.927 32.4514 236.932C33.4862 237.592 35.2065 237.875 36.4811 238.115C39.1139 238.609 41.869 238.422 44.6547 238.062C49.8222 237.399 54.5551 236.705 58.9002 233.741C58.9259 233.722 58.9292 233.696 58.9469 233.673C58.9549 233.678 58.9662 233.675 58.9726 233.68L58.9823 233.623C59 233.583 59.0032 233.545 59 233.501C59.2848 231.84 59.0998 229.724 58.9549 228.976C58.5896 227.093 58.036 225.344 57.2314 223.607C56.998 223.103 56.4492 222.382 56.0196 221.695C56.1724 221.621 56.3237 221.549 56.4653 221.467C56.5023 221.447 56.5281 221.433 56.5635 221.415C56.6407 221.407 56.7148 221.369 56.7695 221.301C56.7856 221.291 56.8194 221.275 56.8162 221.272C56.8146 221.27 56.8113 221.267 56.8113 221.266C56.8451 221.206 56.8677 221.137 56.858 221.064C56.4605 217.796 55.3678 215.961 54.4891 212.783C53.4543 209.045 52.6899 205.224 51.7453 201.46C50.733 197.405 49.7514 191.302 45.432 189.326C54.4231 177.655 61.1468 164.261 71.2483 153.418C71.2548 153.41 71.2499 153.402 71.2564 153.398C72.79 153.526 74.3881 153.64 75.9426 153.561C85.9702 164.379 92.6777 177.707 101.63 189.326C97.3125 191.302 96.3292 197.405 95.3137 201.46C94.3723 205.224 93.6063 209.045 92.5715 212.783C91.8731 215.319 90.7337 217.859 90.0964 220.443C90.09 220.459 90.0835 220.48 90.0787 220.504C90.0771 220.522 90.0706 220.541 90.0658 220.556C90.0706 220.561 90.0787 220.57 90.0851 220.578C90.0851 220.62 90.0787 220.656 90.0948 220.727C90.4263 220.968 90.8206 221.19 91.2438 221.391C90.8093 222.185 90.0739 223.099 89.7922 223.704C88.9876 225.44 88.434 227.191 88.0687 229.072C87.9239 229.826 87.7404 231.971 88.0349 233.638C87.9303 233.741 87.9158 233.95 88.0606 234.051C92.409 237.013 97.1242 237.439 102.292 238.104C106.654 238.662 111.23 239.039 114.645 236.922C114.659 236.916 114.674 236.924 114.686 236.914C114.733 236.887 114.764 236.857 114.807 236.829C114.867 236.791 114.933 236.768 114.991 236.726C115.02 236.704 115.036 236.676 115.058 236.651C117.03 235.046 114.231 232.441 113.029 231.317C110.934 229.365 107.799 229.08 105.119 228.525C104.496 227.468 104.041 226.29 103.577 225.162C103.045 223.865 102.477 222.638 102.282 221.233C102.266 221.132 102.222 221.061 102.166 221.016C103.729 217.996 105.444 215.091 106.749 211.9C108.104 208.58 109.463 205.271 111.111 202.084C112.958 198.507 114.794 194.822 116.994 191.452C118.167 189.653 119.294 188.199 119.484 186.164C119.63 186.188 119.791 186.109 119.807 185.913C120.173 180.969 118.035 175.959 115.98 171.5Z" fill="#356799"/>
<path d="M52.9148 77.9971C52.2131 76.7532 51.5517 75.6379 51.0303 74.4503C50.4332 73.0968 49.9054 71.7193 49.4725 70.2999C49.4178 70.1196 49.1007 70.1373 49.1265 70.3433C49.5111 73.6714 51.3956 77.4966 53.3461 80.1729C53.4539 80.3258 53.647 80.4626 53.8482 80.3869C54.0204 80.3242 54.1765 80.2292 54.3197 80.123C54.6335 80.3306 55.0728 80.395 55.2595 80.1616C55.8662 79.394 56.6306 78.3624 57.1376 77.5256C57.4031 77.0895 57.6429 76.6373 57.865 76.1754C58.0001 75.8922 58.3123 75.1986 58.5731 74.7657C59.1862 75.0795 59.8991 75.2581 60.5493 75.4593C61.4118 75.7216 62.6961 76.1835 63.8837 76.4924C64.138 76.56 64.4245 76.1593 64.4212 75.7972C64.6868 75.7827 64.9459 75.7506 65.1969 75.6862C66.5471 75.3386 65.9935 72.878 65.9678 71.943C65.8905 68.9288 65.699 65.9306 65.5172 62.9196C65.456 61.901 65.3691 60.5298 64.1782 60.4767C64.0221 60.4703 63.8612 60.6457 63.9207 60.805C64.9088 63.3686 64.6401 67.4434 64.6562 70.1808C64.6626 71.5712 64.8348 72.9729 64.8815 74.365C64.9088 75.1921 63.1515 74.9395 61.4633 74.5194C61.1383 74.41 60.8293 74.3151 60.5702 74.2652C60.4575 74.241 60.3497 74.2121 60.2403 74.1912C59.8058 74.064 59.4195 73.9449 59.1154 73.8532C59.9828 72.4418 60.3433 70.382 60.8711 69.0028C61.4135 67.5898 61.7273 66.098 62.2535 64.6738C62.5963 63.7468 63.0469 62.976 62.997 61.9846C62.9825 61.7304 62.6703 61.7014 62.5754 61.9203C61.2718 64.9602 60.3771 68.0565 59.2522 71.1641C58.7742 72.4917 58.4347 74.373 56.6467 73.7808C54.994 73.232 53.2286 71.4554 52.0763 70.2098C51.9025 70.0247 51.6354 70.2918 51.7947 70.4817C52.4947 71.3073 55.3496 74.4422 57.276 74.888C56.6371 75.7988 56.0674 76.5504 55.311 77.4757C54.4629 78.5073 54.1121 80.1246 52.9148 77.9971Z" fill="#356799"/>
<path d="M34.3628 43.2956C34.873 43.9426 34.873 45.6774 34.9856 46.4676C35.2029 48.0318 35.6776 49.5944 36.0252 51.1377C36.4452 53.0029 36.5482 55.8675 37.7793 57.443C40.2448 60.5843 42.4881 55.8739 43.2654 53.8816C43.3443 53.6804 43.0401 53.4905 42.9017 53.6595C42.287 54.4062 39.3388 59.1601 38.0867 55.5118C37.472 53.7158 37.0841 51.8346 36.6078 49.9984C36.1153 48.1203 35.6937 46.2149 35.1498 44.3546C35.0403 43.9715 34.9502 43.4646 34.6621 43.1476C34.6863 43.0977 34.6943 43.0414 34.6557 42.9802C32.7921 40.0642 26.7235 36.8601 25.016 41.5817C24.9388 41.8006 25.2687 41.8843 25.354 41.6815C27.1676 37.5006 32.2611 41.2518 34.3355 43.2136C34.3419 43.2425 34.3451 43.2715 34.3628 43.2956Z" fill="#356799"/>
<path d="M35.6361 46.6819C35.678 45.6278 34.1427 42.7214 32.7635 43.2718C32.5527 43.2267 32.3499 43.2734 32.1955 43.5035C31.7674 44.1457 32.1118 45.1611 32.3274 45.8193C32.5978 46.6497 33.2431 47.5429 34.0864 47.8422C34.9683 48.156 35.6056 47.5332 35.6361 46.6819Z" fill="#356799"/>
<path d="M42.6602 35.8456C44.0642 35.7007 46.1789 34.8452 46.2666 33.221C46.2774 33.0314 46.0566 32.8946 45.9013 33.0247C43.5228 35.0002 39.8846 36.536 37.3647 33.7384C37.2224 33.5787 36.9881 33.7709 37.1081 33.9447C38.4583 35.8953 40.417 36.0756 42.6602 35.8456Z" fill="#356799"/>
<path d="M46.7583 40.4988C46.8839 40.5615 47.0126 40.5985 47.1462 40.6227C47.1623 40.6243 47.1768 40.6372 47.1945 40.6388C47.1945 40.6388 47.1945 40.6372 47.1961 40.6388C47.2138 40.642 47.225 40.65 47.2427 40.6549C47.2733 40.6597 47.2926 40.6517 47.3232 40.6565C47.349 40.6581 47.3731 40.6597 47.3988 40.6597C47.8913 40.6935 48.1536 40.5116 48.2405 40.1994C48.2582 40.1705 48.2727 40.1415 48.2888 40.1109C48.3274 40.0401 48.358 39.9645 48.3789 39.8824C48.3886 39.8422 48.3998 39.8052 48.4079 39.7665C48.4079 39.7601 48.4079 39.7521 48.4095 39.7456C48.4288 39.6475 48.4449 39.5477 48.4449 39.4592C48.4433 38.9667 48.2341 38.3665 47.9074 37.8354C47.6982 37.4314 47.4214 37.0549 47.0786 36.7475C47.0432 36.7121 47.0078 36.6751 46.9708 36.6429C46.9161 36.5978 46.8581 36.5624 46.8002 36.5222C46.7423 36.4836 46.6875 36.4433 46.6248 36.4144C46.5427 36.3661 46.4671 36.3066 46.3802 36.2631C45.8507 36.0217 45.3052 36.3259 45.2118 36.8972C45.1555 37.2576 45.2086 37.6149 45.3132 37.9609C45.3148 37.9818 45.3164 38.0044 45.318 38.0269C45.3502 38.2699 45.4001 38.5065 45.4548 38.6883C45.6495 39.332 45.9086 39.9291 46.4687 40.3411C46.533 40.3893 46.6039 40.4151 46.6731 40.4537C46.7004 40.4698 46.7294 40.4843 46.7583 40.4988Z" fill="#356799"/>
<path d="M43.2985 56.944C43.1746 56.7782 42.8945 56.9247 43.0104 57.1081C43.3081 57.5764 44.5071 60.2816 45.5177 59.5027C45.6046 59.4368 45.6786 59.3531 45.7559 59.2791C46.0439 59.4303 46.4092 59.4979 46.67 59.58C47.5502 59.8536 48.0105 60.449 48.4064 61.2424C48.4949 61.4226 48.7636 61.376 48.8184 61.1973C49.0421 60.4522 48.4579 59.8922 47.9059 59.4786C47.5872 59.2453 47.2107 59.123 46.8293 59.0361C46.6265 58.9878 46.3803 58.9652 46.1485 58.9137C46.8035 58.2201 47.3619 57.3704 47.988 56.6833C49.8853 54.6073 52.5165 53.6755 55.2507 53.6546C55.2716 53.8493 55.2797 54.0472 55.2459 54.1824C55.2073 54.3417 55.3408 54.4656 55.4969 54.4367C55.9813 54.3562 56.0055 53.7914 55.8751 53.1798C55.8751 53.0994 55.859 53.0221 55.8188 52.9545C55.6514 52.3446 55.3634 51.7379 55.2234 51.5496C55.0608 51.334 54.7036 51.5126 54.8436 51.7636C55.0125 52.0662 55.0656 52.3897 55.1091 52.718C53.0428 52.446 50.8219 53.286 49.1756 54.5493C47.9976 55.4457 47.1624 56.5384 46.2354 57.6762C44.9979 59.197 44.2801 58.307 43.2985 56.944Z" fill="#356799"/>
</g>
<path d="M20.9376 34.7887C20.9425 34.6841 20.9505 34.5843 20.9521 34.4781C25.7993 34.5618 30.3424 31.6506 34.5523 29.5424C38.5369 27.5452 43.03 24.3411 46.0636 20.8715C47.0533 24.5874 49.0456 26.982 51.8393 29.6486C53.1284 30.8781 56.2955 33.1649 58.3811 32.2524C58.8784 33.0603 59.4143 33.8537 59.9196 34.6615C60.4812 35.5628 60.7323 36.6329 61.3132 37.5245C61.4742 37.7723 61.8604 37.6259 61.796 37.3298C61.7896 37.3024 61.7783 37.2783 61.7751 37.2557C61.7864 37.2348 61.8041 37.2187 61.8073 37.1914C62.0342 34.6648 64.6123 31.7535 67.3835 34.6358C68.856 36.1646 68.8834 38.2374 68.8222 40.2152C68.7627 42.2027 66.8444 44.5088 65.0951 45.1783C64.0233 45.5903 63.4552 44.9981 62.509 45.2057C62.4285 45.225 62.3448 45.2974 62.3303 45.3827C62.2193 45.8976 62.4285 46.2034 62.7922 46.3724C62.5637 47.6099 62.5669 48.9167 62.3512 50.1639C62.0036 52.2077 61.2795 54.2241 60.5215 56.1424C59.9743 57.5296 58.0238 60.8287 57.9176 61.0814C57.2079 62.1886 56.5513 63.4261 55.4168 64.8712C49.147 72.8485 37.029 63.4148 32.0949 58.7318C25.6207 52.5859 21.8726 43.6559 20.9811 34.8675C20.9779 34.8337 20.9553 34.8144 20.9376 34.7887ZM17.2572 31.4301C17.2185 31.5025 17.1043 31.4558 17.1413 31.385C17.5324 30.6142 17.7528 29.8015 18.6701 29.8111C19.3444 29.8176 20.1555 30.0219 20.8282 29.9962C22.4294 29.935 22.5678 29.3203 22.872 28.2372C23.144 27.2781 25.4646 27.5517 26.1871 27.5935C29.9899 27.8011 30.1283 23.8503 33.0379 22.2828C33.3614 22.1058 33.6752 22.2587 33.8152 22.579C34.5523 24.251 36.2436 22.027 37.0081 21.2625C37.5568 20.7106 38.0686 20.1039 38.6479 19.5824C39.9659 18.3996 41.2743 18.0665 43.0027 17.7141C43.0815 17.698 43.1105 17.8042 43.0365 17.8315C40.4214 18.8438 37.6373 22.307 35.3939 24.1673C34.8983 24.5793 34.4589 24.7161 33.878 24.4618C33.5947 24.3379 33.3646 24.0595 33.2359 23.7859C32.6179 22.4937 31.4512 25.4934 30.978 26.2498C30.315 27.3055 29.5023 27.9975 28.4418 28.6122C27.1109 29.3798 23.4272 28.1246 23.1295 29.2591C22.3924 32.0915 18.5993 28.7973 17.2572 31.4301ZM66.2264 17.9587C66.8186 18.2483 67.3578 18.6378 67.892 19.0369C67.7971 19.2139 67.7054 19.3877 67.6136 19.5985C67.5251 19.7997 67.464 20.0025 67.3916 20.2036C67.0375 19.885 66.6835 19.5615 66.2988 19.2751C65.9947 19.0498 65.6632 18.8969 65.3655 18.6571C65.2785 18.5863 65.0404 18.4881 64.8215 18.4093C64.6831 18.0375 64.5286 17.6722 64.3661 17.3101C64.9824 17.537 65.6374 17.6738 66.2264 17.9587ZM66.8573 22.6385C66.5032 22.1605 66.0961 21.7019 65.6471 21.3173C65.4942 20.5947 65.3075 19.8898 65.0886 19.2043C65.2206 19.296 65.3397 19.3829 65.4186 19.436C65.6889 19.6195 65.9416 19.7981 66.1765 20.0234C66.4936 20.3195 66.838 20.6108 67.1534 20.9182C66.9941 21.4846 66.9023 22.0559 66.8573 22.6385ZM21.311 39.8885C23.0748 48.619 27.6468 56.6461 34.6086 62.364C38.3631 65.4442 42.8595 67.8211 47.5747 68.9347C48.9812 69.2662 50.5342 69.16 51.9117 68.6676C51.9713 68.674 52.0276 68.6547 52.0694 68.6129C52.0888 68.6032 52.1081 68.5919 52.129 68.5871C52.2577 69.0409 55.0869 70.4941 55.6469 70.5038C56.8571 70.5215 57.6264 68.5276 58.0158 67.7567C59.5897 64.6459 60.2302 60.9928 60.8723 57.5876C60.9077 57.4991 60.9399 57.4105 60.9753 57.3236C61.0381 57.7501 61.1797 58.1701 61.2811 58.6256C61.4758 59.4753 61.685 60.2349 62.134 61.0025C62.2322 61.1683 62.5218 61.1119 62.5138 60.9059C62.4575 59.419 61.574 58.0559 61.347 56.5818C61.3422 56.5415 61.3181 56.5142 61.2923 56.4916C61.9457 54.7504 62.4784 52.9866 62.7986 51.1246C63.0625 49.5701 63.0609 48.0348 63.1961 46.4947C64.2502 46.6862 65.9046 46.2436 66.2924 46.0039C68.9011 44.4107 70.1 41.4174 69.7057 38.4241C69.4949 36.8373 68.2976 33.4047 66.3053 32.6145C66.434 31.2386 66.1846 28.2839 66.1878 28.2067C66.2232 27.0866 66.2023 26.0019 66.1331 24.9446C67.0906 25.2649 68.3072 26.393 68.7241 27.2121C69.0057 27.7689 69.276 28.3322 69.5657 28.8826C69.8168 29.3605 70.2143 29.6309 70.5184 30.0638C70.6295 30.2247 70.9127 30.1893 70.9111 29.9656C70.8998 29.4008 70.4878 28.9904 70.2143 28.5173C69.8361 27.8671 69.5899 27.0399 69.0797 26.4751C68.3668 25.6865 67.1791 24.6726 66.0961 24.494C66.0397 23.8085 65.9657 23.1342 65.8643 22.4776C65.8853 22.5081 65.9126 22.5387 65.9319 22.5709C66.1894 22.9861 66.4405 23.4206 66.8347 23.7183C66.8396 23.9372 66.8363 24.1545 66.8573 24.3781C66.8814 24.6324 67.221 24.6389 67.2532 24.3846C67.4382 22.97 67.6458 21.5812 68.1013 20.2278C68.4859 19.0707 69.1296 18.258 69.7701 17.2828C70.4235 17.9056 70.8499 18.7681 70.6777 19.9735C70.5023 21.2175 70.5039 22.4953 70.6021 23.8406C70.7646 26.0711 72.0971 30.9875 74.6157 29.6566C74.7991 29.5585 74.7026 29.2012 74.4982 29.2543C70.9368 30.133 71.0398 22.0994 71.2523 20.1891C71.3923 18.9275 71.4067 18.2451 70.6504 17.1653C68.8222 14.5679 65.7549 15.5512 63.4102 14.3249C63.2106 14.2187 63.1205 14.5293 63.2669 14.6612C64.5624 15.7813 65.3976 15.7636 66.9361 15.9969C67.7376 16.1192 68.7369 16.4379 69.5078 17.0398C68.9606 17.5402 68.5583 17.9764 68.2123 18.4978C67.6667 18.1276 67.1148 17.7688 66.5209 17.4727C65.7597 17.0896 64.8666 17.043 64.0861 16.7211C63.5582 15.6558 62.937 14.6419 62.1823 13.6924C61.5466 12.1105 62.9032 11.7902 63.7916 12.31C64.7169 12.5772 65.6455 12.825 66.566 13.1147C68.8818 13.8469 70.8869 14.5341 72.6942 16.2448C75.673 19.0643 76.7174 24.5761 78.0419 28.337C78.0435 28.3515 78.0451 28.3644 78.0499 28.3772C78.0515 28.3885 78.0612 28.3917 78.0628 28.4014C78.0773 28.4416 78.0918 28.4851 78.103 28.5253C78.169 28.7007 78.4217 28.778 78.552 28.6605C79.5739 29.7387 84.5032 32.5485 85.2982 33.07C89.2039 35.6239 93.372 37.716 97.2327 40.3488C101.037 42.9462 104.57 46.3273 107.099 50.1945C109.304 53.5643 108.219 55.716 105.855 58.2796C104.09 60.1866 99.946 63.1107 97.693 64.3724C97.4967 64.4834 97.6656 64.8117 97.8716 64.7232C101.251 63.299 108.34 58.9957 109.563 55.1962C110.954 50.8913 106.303 46.6894 103.47 44.0711C99.365 40.2699 94.6917 37.4456 89.8171 34.771C87.5222 33.5109 85.3239 32.1414 83.0886 30.7767C81.9509 30.0799 79.8636 28.7281 78.6598 27.9669C78.7934 25.3695 77.2002 21.9481 76.1123 19.7884C74.8474 17.2828 73.1866 14.5148 70.3832 13.4816C68.613 12.8282 66.7398 12.3503 64.91 11.8884C64.4771 11.7806 62.7986 11.1224 62.2836 11.4298C61.7751 11.7355 61.4436 12.236 61.3712 12.7462C60.1014 11.3638 58.5501 10.123 56.6753 9.03673C49.6748 4.9813 43.0606 6.69359 36.1213 9.49538C30.8654 9.14455 22.9299 7.25041 20.8378 1.60822C20.7493 1.362 20.4918 1.44407 20.4404 1.7096C20.3486 2.19239 19.7451 12.2038 22.6145 15.7942C21.1195 15.4401 19.7017 14.9589 18.2066 14.2315C17.1896 13.7375 16.1918 12.928 15.3244 12.2231C14.6002 11.6357 13.4914 10.8665 12.8413 9.57101C12.7721 9.43261 12.447 9.39399 12.484 10.0908C12.4856 10.1198 13.1261 16.9577 14.185 19.7225C14.9092 21.6118 15.7026 23.2935 17.1332 24.4618C14.0096 23.7956 10.7846 23.8278 8.60076 21.0356C8.4511 20.8457 8.38029 21.092 8.3996 21.4573C8.83089 27.925 14.2751 38.5206 21.2981 39.8901C21.3029 39.8934 21.3078 39.8869 21.311 39.8885Z" fill="#356799"/>
<path d="M63.9858 83.3359L66.6108 82.5209L68.1164 86.5757C68.1639 86.6769 68.2523 86.7573 68.3628 86.7996C68.4733 86.842 68.5972 86.843 68.7081 86.8025C68.8235 86.7723 68.9216 86.7024 68.9822 86.6071C69.0427 86.5119 69.0611 86.3987 69.0334 86.291L67.5278 82.2361L70.279 81.3819L71.7846 85.4367C71.832 85.5394 71.9216 85.6208 72.0339 85.6629C72.1461 85.7051 72.2716 85.7045 72.3829 85.6614C72.4398 85.6492 72.4931 85.6259 72.5394 85.5932C72.5857 85.5606 72.6239 85.5192 72.6514 85.4718C72.679 85.4245 72.6953 85.3723 72.6993 85.3186C72.7033 85.2649 72.6949 85.211 72.6746 85.1604L71.169 81.1055L73.8089 80.2858L75.4068 84.5894C75.9364 85.8303 75.1492 87.3959 73.6747 87.8537C72.0331 88.2901 71.0556 87.6051 71.0556 87.6051C71.0556 87.6051 70.7972 88.8206 69.0484 89.2902C66.7609 89.9882 65.7589 88.073 65.5838 87.6395L63.9858 83.3359Z" fill="#4381C0"/>
</g>
<defs>
<clipPath id="clip0_1959_231943">
<rect width="120" height="120" fill="white"/>
</clipPath>
</defs>
</svg>
