<svg width="60" height="60" viewBox="0 0 60 60" fill="none" xmlns="http://www.w3.org/2000/svg">
<circle cx="30" cy="30" r="30" fill="#C1ECFB"/>
<path d="M20 21C20 21.2652 19.8946 21.5196 19.7071 21.7071C19.5196 21.8946 19.2652 22 19 22C18.7348 22 18.4804 21.8946 18.2929 21.7071C18.1054 21.5196 18 21.2652 18 21C18 20.7348 18.1054 20.4804 18.2929 20.2929C18.4804 20.1054 18.7348 20 19 20C19.2652 20 19.5196 20.1054 19.7071 20.2929C19.8946 20.4804 20 20.7348 20 21ZM23 21C23 21.2652 22.8946 21.5196 22.7071 21.7071C22.5196 21.8946 22.2652 22 22 22C21.7348 22 21.4804 21.8946 21.2929 21.7071C21.1054 21.5196 21 21.2652 21 21C21 20.7348 21.1054 20.4804 21.2929 20.2929C21.4804 20.1054 21.7348 20 22 20C22.2652 20 22.5196 20.1054 22.7071 20.2929C22.8946 20.4804 23 20.7348 23 21ZM25 22C25.2652 22 25.5196 21.8946 25.7071 21.7071C25.8946 21.5196 26 21.2652 26 21C26 20.7348 25.8946 20.4804 25.7071 20.2929C25.5196 20.1054 25.2652 20 25 20C24.7348 20 24.4804 20.1054 24.2929 20.2929C24.1054 20.4804 24 20.7348 24 21C24 21.2652 24.1054 21.5196 24.2929 21.7071C24.4804 21.8946 24.7348 22 25 22Z" fill="#356799" stroke="#C1ECFB" stroke-width="0.75"/>
<path d="M15 16C14.7348 16 14.4804 16.1054 14.2929 16.2929C14.1054 16.4804 14 16.7348 14 17V43C14 43.2652 14.1054 43.5196 14.2929 43.7071C14.4804 43.8946 14.7348 44 15 44H45C45.2652 44 45.5196 43.8946 45.7071 43.7071C45.8946 43.5196 46 43.2652 46 43V17C46 16.7348 45.8946 16.4804 45.7071 16.2929C45.5196 16.1054 45.2652 16 45 16H15ZM16 24V18H44V24H16ZM16 26H44V42H16V26Z" fill="#356799" stroke="#C1ECFB" stroke-width="0.75"/>
</svg>
