<svg width="195" height="161" viewBox="0 0 195 161" fill="none" xmlns="http://www.w3.org/2000/svg">
<rect x="51" y="17" width="128" height="128" rx="64" fill="#FFF7E6"/>
<path d="M147.386 92.3826C147.453 89.8595 147.519 87.3891 147.519 84.3468C147.519 80.8339 147.571 77.516 147.625 74.0237C147.718 68.0798 147.819 61.6304 147.686 52.8535C147.635 49.5072 147.559 46.248 147.483 43.0127C147.345 37.0619 147.208 31.192 147.234 25.01C147.25 23.1171 146.073 22.5243 144.995 22.5C138.177 22.5557 132.536 22.7196 126.76 22.8873C125.272 22.9306 123.775 22.9741 122.247 23.016C116.756 23.1658 111.268 23.0992 105.778 23.0325C101.738 22.9835 97.6966 22.9344 93.6512 22.9716C91.8717 23.1813 91.4441 24.708 91.1618 25.7159C91.1158 25.8801 91.0736 26.0306 91.0301 26.1593C90.8948 32.4555 91.0712 36.1742 91.2439 39.8179C91.3451 41.9518 91.4451 44.06 91.4805 46.6451C91.4908 47.3735 91.4857 48.4955 91.4793 49.9025C91.4649 53.0421 91.4441 57.6004 91.5738 62.3695C95.2502 65.7634 93.5273 71.678 91.9949 75.8237C91.9973 75.8336 92.0029 75.8399 92.0085 75.8461C92.015 75.8533 92.0214 75.8605 92.0229 75.8735C92.1083 76.51 92.0955 77.6473 92.0807 78.9716C92.075 79.4864 92.0689 80.0295 92.0682 80.5824C92.9889 81.7384 93.6738 83.145 93.891 84.0423C94.7625 87.6531 94.5466 91.8014 93.1422 95.4176C93.3617 99.009 93.4239 103.351 93.4847 107.592C93.578 114.108 93.6679 120.382 94.3201 123.319C94.5813 124.494 95.7872 125.099 96.7226 125.167C103.761 125.682 110.815 125.493 117.874 125.305C120.672 125.23 123.471 125.155 126.27 125.124C127.626 125.109 128.926 125.089 130.206 125.07C132.904 125.029 135.512 124.99 138.366 124.992C140.505 124.995 143.531 124.902 145.78 124.703C146.698 124.796 147.205 123.812 147.248 122.923C147.274 122.449 147.303 121.966 147.333 121.479C147.433 119.82 147.537 118.107 147.519 116.514C147.497 114.408 147.443 112.251 147.389 110.088C147.325 107.559 147.261 105.021 147.248 102.548C147.226 98.4042 147.307 95.3568 147.386 92.3826Z" fill="#FFC000"/>
<path d="M91.4472 93.9707C93.8314 88.8709 94.0172 86.386 91.1734 83.0321C91.3864 83.3394 91.6035 83.7048 91.8243 84.1339C93.2673 86.9388 92.5917 90.5536 91.4472 93.9707Z" fill="#FFC000"/>
<path d="M90.75 66.1236C93.836 71.5313 92.9365 73.1138 90.9909 75.7458C91.0633 75.4162 91.1391 75.0868 91.2149 74.7574C91.7868 72.2733 92.3579 69.7924 91.4406 67.236C91.2174 66.8224 90.9864 66.4525 90.75 66.1236Z" fill="#FFC000"/>
<path d="M147.036 83.1754C147.036 89.3254 146.744 92.9567 146.782 100.062C146.805 104.318 146.991 108.782 147.036 113.019C147.057 117.932 146.856 120.067 146.75 122.002C146.709 122.827 143.266 123.703 142.405 123.617C140.295 123.802 137.456 123.888 135.45 123.885C131.502 123.882 128.057 123.963 124.102 124.008C114.855 124.109 105.605 124.714 96.3849 124.048C95.5074 123.984 94.3761 123.423 94.1311 122.333C93.1211 117.835 93.5486 101.899 93.0261 93.4467C94.3436 90.0917 94.5461 86.2429 93.7286 82.8929C93.5249 82.0604 92.8824 80.7554 92.0186 79.6829C92.0211 77.8504 92.0874 76.1342 91.9761 75.3142C91.9736 75.2917 91.9549 75.2879 91.9499 75.2679C93.3874 71.4217 95.0036 65.9342 91.5549 62.7854C91.3786 56.3779 91.4986 50.3804 91.4674 48.1967C91.3774 41.7029 90.8436 35.4529 91.0449 26.1904C91.3361 25.3379 91.5624 23.4592 93.5036 23.2329C102.456 23.1517 111.387 23.5154 120.329 23.2742C127.326 23.0842 133.625 22.8604 141.669 22.7954C142.68 22.8179 146.784 23.3679 146.769 25.1242C146.731 33.9779 147.057 45.1417 147.192 53.9567C147.391 66.8842 147.036 74.3692 147.036 83.1754ZM161.065 110.273C159.969 103.063 157.662 95.8504 156.88 88.6342C156.4 84.2004 160.351 77.5967 158.484 73.4129C156.927 69.9267 154.677 69.4342 151.507 71.6154C151.136 71.8717 150.809 72.1617 150.476 72.4492C150.816 68.8092 150.294 65.1304 150.296 61.4717C150.301 54.5729 149.971 47.7304 149.83 40.8354C149.72 35.4792 149.922 29.9367 148.951 24.6629C148.641 22.9792 147.102 20.7004 145.434 20.6779C131.025 20.4942 108.48 20.5679 89.9261 21.3392C88.1661 21.4129 86.6374 23.6617 86.3711 25.5079C85.6861 30.2767 85.6736 34.7179 85.7661 39.5192C85.8586 44.3454 85.8424 47.0429 85.9686 51.1117C84.8836 49.6267 83.8549 48.9979 82.5986 48.4267C80.9474 47.6767 76.6486 47.4654 75.2749 48.9717C73.6949 50.7029 74.7936 52.7992 75.8586 54.5542C78.6561 59.1604 78.5149 64.5317 79.8549 69.4992C79.9711 69.9292 80.5261 69.9854 80.7649 69.6317C83.4599 65.6342 80.0174 59.4504 78.1224 55.7067C77.4236 54.3267 76.9461 53.7417 76.3711 52.3117C74.9224 48.7079 82.5186 50.4917 83.4474 51.2504C84.2399 51.8979 85.4499 53.0817 85.9924 54.0442C85.9561 55.9992 85.9949 57.8817 85.9899 60.5792C85.0624 60.7279 84.2099 61.2317 83.5724 62.2842C82.5799 63.9192 82.9399 65.8867 82.7136 67.6917C82.1924 71.8667 80.5574 75.4154 78.9299 79.2542C76.8299 84.2054 77.7961 88.4192 80.1611 92.9379C80.3749 93.3454 81.1061 93.1954 81.0674 92.7067C80.8061 89.5142 80.3424 87.6004 80.1974 84.3904C80.0724 81.6342 81.3849 79.0254 82.4249 76.5654C83.3236 74.4404 84.2961 71.7792 84.4849 69.4692C84.5324 68.8867 84.5811 68.3042 84.6286 67.7217C84.4936 64.2879 88.6249 62.1592 91.4299 67.3004C92.4449 70.0979 91.5174 72.7979 90.9374 75.5204C90.8686 75.5692 90.4174 76.6454 90.2036 77.1004C90.0511 77.4242 89.8811 77.6642 89.7649 77.9629C89.4086 77.8617 89.0461 77.8342 88.6849 77.9279C85.0111 78.8779 84.0449 86.9079 83.3086 89.7717C81.8636 95.4029 78.7649 99.9404 79.3349 105.825C79.3799 106.3 80.0761 106.337 80.0911 105.838C80.2911 99.3417 84.1149 93.6617 85.6561 87.3542C86.4786 83.9879 88.7561 77.1479 91.7899 82.9779C94.0624 87.3467 90.7336 93.8329 89.1261 98.0142C89.1236 98.0217 89.1286 98.0267 89.1261 98.0342C88.8636 98.4204 88.6136 98.8217 88.4374 99.2192C88.3261 99.4692 88.2849 99.7254 88.2699 99.9817C88.2036 99.9142 88.1536 99.8379 88.0861 99.7704C82.7711 94.4729 80.4236 111.233 79.8624 113.695C77.8661 122.459 84.4974 130.769 90.5199 136.35C92.6736 138.347 98.8161 142.529 104.61 144.713C104.01 146.322 103.717 148.168 103.279 149.71C102.41 152.76 101.577 155.789 100.594 158.814C100.156 160.16 102.187 161.067 102.867 159.814C105.305 155.329 105.062 150.085 106.106 145.234C109.752 146.389 113.101 146.578 115.019 144.697C115.385 144.337 115.277 143.562 114.712 143.457C102.656 141.202 90.6836 136.238 84.2699 125.085C81.7949 120.782 80.9261 117.443 82.0586 112.368C82.7136 109.434 83.6549 106.454 84.5586 103.59C86.4199 99.8004 88.0286 100.249 89.3849 104.938C90.3224 107.365 89.5174 111.18 88.8536 113.502C88.1486 115.968 87.0886 119.19 85.8286 121.458C85.5761 121.91 86.2336 122.308 86.5136 121.873C87.3961 120.508 88.2511 118.943 88.9911 117.28C88.9849 119.168 89.0411 121.075 89.3424 122.857C89.5411 124.033 89.8536 125.244 90.6549 126.173C91.4761 127.124 92.1749 127.182 93.1211 127.362C97.8899 127.778 113.954 128.315 124.151 127.984C129.797 127.799 135.622 127.573 141.302 127.594C144.09 127.605 148.124 126.644 149.275 123.572C150.62 122.732 149.899 103.627 149.712 98.5304C149.749 98.5892 150.557 99.6204 150.594 99.6792C150.84 100.068 151.416 99.7429 151.214 99.3304C148.945 94.6979 147.18 87.7867 147.391 82.7217C147.551 78.9117 149.524 75.5967 152.502 73.3817C158.181 69.1592 155.345 81.4717 155.116 82.3979C153.094 90.6254 157.036 99.5529 157.905 107.684C158.841 116.472 157.05 124.888 153.776 133.145C150.565 141.243 146.022 149.695 144.657 158.342C144.564 158.942 145.325 159.675 145.832 159.049C148.815 155.364 150.12 150.125 151.784 145.715C154.571 138.329 157.971 131.282 159.599 123.512C160.521 119.105 161.757 114.82 161.065 110.273Z" fill="#356799"/>
<path d="M99.9823 115.998C100.274 104.917 99.9798 45.9981 99.8211 35.0606C111.732 35.5581 124.402 35.4919 136.33 35.1494C135.637 49.6556 135.747 101.454 136.424 115.792C124.236 115.429 112.162 115.439 99.9823 115.998ZM136.925 34.4519C136.852 34.3569 136.75 34.3131 136.637 34.3256C124.385 33.9681 111.78 34.5206 99.5548 34.3844C99.4236 34.3831 99.3448 34.4494 99.2936 34.5344C99.2211 34.5844 99.1673 34.6606 99.1661 34.7769C99.0048 45.4469 98.4448 105.687 99.2773 116.338C99.2936 116.559 99.4648 116.676 99.6336 116.681C99.6436 116.682 99.6461 116.691 99.6561 116.691C106.987 117.033 114.345 116.929 121.684 116.939C126.801 116.946 129.741 116.901 136.811 116.602C137.029 116.594 137.117 116.424 137.109 116.242C137.116 116.217 137.137 116.206 137.139 116.177C137.8 102.162 137.722 49.0069 137.014 34.8006C137.035 34.6769 137.009 34.5456 136.925 34.4519Z" fill="#356799"/>
<circle r="13.5" transform="matrix(-1 0 0 1 118.5 54.25)" fill="#356799"/>
<path d="M115.644 61.75L109 55.1138L110.661 53.4548L115.644 58.4319L126.339 47.75L128 49.409L115.644 61.75Z" fill="#FFC000"/>
<path d="M128.276 103.435C125.681 103.153 121.543 103.125 117.756 103.031C114.287 102.944 110.146 103.022 107.409 103.529C104.578 104.053 103.737 106.201 104.281 107.879C105.092 110.377 108.747 110.257 111.144 110.395C115.714 110.658 118.045 110.349 122.674 110.303C124.831 110.283 128.186 110.565 130.043 109.566C133.196 107.872 131.126 103.745 128.276 103.435Z" fill="#356799"/>
<path d="M125.927 80.5228C124.742 80.4903 123.358 80.4453 121.878 80.4453C120.396 80.4691 118.816 80.4953 117.235 80.5203C110.915 80.6303 104.595 80.7391 104.595 80.7391C104.577 80.7391 104.563 80.7528 104.563 80.7703C104.563 80.7866 104.577 80.8016 104.595 80.8016C104.595 80.8016 110.915 80.9116 117.235 81.0203C118.816 81.0466 120.396 81.0716 121.878 81.0953C123.358 81.0953 124.742 81.0516 125.927 81.0178C128.297 80.9378 129.877 80.8016 129.877 80.8016C129.892 80.8003 129.905 80.7891 129.906 80.7728C129.908 80.7566 129.895 80.7403 129.877 80.7391C129.877 80.7391 128.297 80.6041 125.927 80.5228Z" fill="#356799"/>
<path d="M112.218 85.45C113.171 85.4762 114.124 85.5012 115.017 85.525C115.911 85.525 116.745 85.48 117.459 85.4475C118.889 85.3638 119.842 85.2312 119.842 85.2312C119.856 85.2287 119.868 85.2187 119.87 85.2037C119.873 85.1875 119.86 85.1712 119.842 85.1687C119.842 85.1687 118.889 85.0362 117.459 84.9525C116.745 84.9187 115.911 84.875 115.017 84.875C114.124 84.8987 113.171 84.9237 112.218 84.95C108.406 85.06 104.594 85.1687 104.594 85.1687C104.578 85.1687 104.564 85.1825 104.562 85.1988C104.562 85.2163 104.576 85.23 104.594 85.2312C104.594 85.2312 108.406 85.34 112.218 85.45Z" fill="#356799"/>
<path d="M125.927 93.8184C124.742 93.7872 123.358 93.7422 121.878 93.7422C120.396 93.7647 118.816 93.7922 117.235 93.8159C110.915 93.9259 104.595 94.0359 104.595 94.0359C104.577 94.0359 104.563 94.0509 104.563 94.0672C104.563 94.0847 104.577 94.0997 104.595 94.0997C104.595 94.0997 110.915 94.2072 117.235 94.3159C118.816 94.3434 120.396 94.3672 121.878 94.3922C123.358 94.3922 124.742 94.3484 125.927 94.3134C128.297 94.2334 129.877 94.0997 129.877 94.0997C129.892 94.0972 129.905 94.0847 129.906 94.0697C129.908 94.0522 129.895 94.0384 129.877 94.0359C129.877 94.0359 128.297 93.9009 125.927 93.8184Z" fill="#356799"/>
<path d="M123.602 87.1662C123.554 86.4925 123.483 85.8187 123.463 85.145C123.445 84.4437 123.475 83.7437 123.523 83.0437C124.882 83.145 126.242 83.185 127.603 83.1912C127.638 84.5912 127.709 85.9912 127.89 87.3912C126.46 87.195 125.032 87.1312 123.602 87.1662ZM123.102 87.4312C123.097 87.5662 123.203 87.6787 123.338 87.6837L123.362 87.685C124.882 87.7375 126.403 87.6662 127.923 87.4562C127.939 87.4537 127.952 87.4425 127.954 87.425C128.153 85.905 128.224 84.3837 128.257 82.8637V82.8575C128.257 82.6762 128.109 82.5312 127.929 82.5312H127.923C126.402 82.5312 124.882 82.5737 123.362 82.6925L123.337 82.695C123.249 82.7012 123.184 82.7775 123.19 82.8637C123.244 83.625 123.278 84.3837 123.26 85.145C123.237 85.905 123.147 86.665 123.102 87.425V87.4312Z" fill="#356799"/>
<path d="M107.801 141.999C112.64 142.965 120.553 144.515 131.123 143.34C132.968 143.34 127.431 149.716 103.271 155.42C105.285 147.031 104.445 141.329 107.801 141.999Z" fill="#356799"/>
<path d="M86.0342 121.979C87.3367 122.414 89.2479 121.459 90.2029 119.288C90.9842 117.115 89.2479 115.727 89.2479 115.727L86.0342 121.979Z" fill="#356799"/>
<path fill-rule="evenodd" clip-rule="evenodd" d="M83.1497 20.4845C82.851 20.9216 82.2563 21.0155 81.8212 20.6943C80.813 19.9497 79.2468 18.7602 77.8197 17.6069C77.1067 17.0306 76.421 16.4575 75.8543 15.9501C75.3077 15.4606 74.8097 14.9781 74.5238 14.5943C74.198 14.157 74.2704 13.5423 74.6855 13.2213C75.1006 12.9003 75.7012 12.9945 76.027 13.4318C76.1762 13.632 76.5316 13.9931 77.0829 14.4868C77.6141 14.9624 78.2707 15.5119 78.9706 16.0775C80.3694 17.2079 81.9114 18.3793 82.9028 19.1114C83.3378 19.4326 83.4484 20.0474 83.1497 20.4845Z" fill="#FFC000"/>
<path fill-rule="evenodd" clip-rule="evenodd" d="M85.7062 17.78C85.2498 17.798 84.8361 17.4136 84.7822 16.9213C84.6309 15.5407 83.0353 11.2328 77.5525 6.90477C77.1685 6.60169 77.062 6.0412 77.3145 5.65287C77.567 5.26455 78.0829 5.19544 78.4669 5.49852C84.2422 10.0574 86.2112 14.8147 86.4348 16.8559C86.4888 17.3482 86.1625 17.7619 85.7062 17.78Z" fill="#FFC000"/>
<path fill-rule="evenodd" clip-rule="evenodd" d="M93.0706 15.7632C92.631 15.5672 92.4154 15.0461 92.5889 14.5993C93.1332 13.1972 93.902 10.9171 94.4317 8.6583C94.6966 7.52882 94.8973 6.42306 94.9836 5.44565C95.0715 4.44966 95.0325 3.66793 94.8773 3.14522C94.7374 2.6741 94.9899 2.18927 95.4412 2.06234C95.8925 1.9354 96.3718 2.21442 96.5117 2.68554C96.7663 3.54296 96.7824 4.59828 96.6877 5.67101C96.5914 6.76233 96.3718 7.95696 96.0957 9.13427C95.5434 11.4891 94.7476 13.8482 94.1805 15.3089C94.007 15.7558 93.5101 15.9591 93.0706 15.7632Z" fill="#FFC000"/>
<rect x="3" y="4" width="70" height="70" rx="35" fill="#FFF7E6"/>
<path d="M37.4456 50V31.94H33.4416V29.14H40.7216V50H37.4456Z" fill="#CC9900"/>
<rect x="3" y="4" width="70" height="70" rx="35" stroke="white" stroke-width="6"/>
</svg>
