<svg width="160" height="160" viewBox="0 0 160 160" fill="none" xmlns="http://www.w3.org/2000/svg">
<g clip-path="url(#clip0_1689_172777)">
<path d="M119 49.0001L126 66.5001C90.4268 79.4093 71.4959 88.3893 39.5 107.5L37 101C45.8233 94.4368 53 78 48 75.5C43 73 26.2687 94.9298 28.5 89.5C28.652 89.13 21.8333 76 18.5 69C47.8485 46.5558 70.4483 37.8707 108.5 27C109.5 30.1667 111.731 35.5022 112 36.0001C112.786 37.4581 97.8536 41.6306 90 42.0001C88.1913 44.0376 87.7364 45.2646 87.5 47.5001C90.5743 55.2214 100.246 53.3993 119 49.0001Z" fill="#FFC000"/>
<path fill-rule="evenodd" clip-rule="evenodd" d="M117.022 97.9347C117.39 97.3955 118.124 97.2796 118.661 97.6759C119.904 98.5944 121.836 100.062 123.597 101.485C124.477 102.196 125.322 102.903 126.022 103.529C126.696 104.132 127.31 104.728 127.663 105.201C128.065 105.74 127.975 106.499 127.463 106.895C126.951 107.291 126.21 107.175 125.808 106.635C125.624 106.388 125.186 105.943 124.506 105.334C123.851 104.747 123.041 104.069 122.177 103.371C120.452 101.977 118.549 100.532 117.326 99.6287C116.79 99.2324 116.653 98.474 117.022 97.9347Z" fill="#FFC000"/>
<path fill-rule="evenodd" clip-rule="evenodd" d="M113.867 101.272C114.43 101.25 114.94 101.724 115.007 102.331C115.193 104.035 117.162 109.349 123.926 114.688C124.399 115.062 124.531 115.754 124.219 116.233C123.908 116.712 123.271 116.797 122.797 116.423C115.673 110.799 113.244 104.93 112.968 102.412C112.901 101.805 113.304 101.295 113.867 101.272Z" fill="#FFC000"/>
<path fill-rule="evenodd" clip-rule="evenodd" d="M104.782 103.765C105.324 104.006 105.59 104.649 105.376 105.2C104.705 106.93 103.756 109.743 103.103 112.529C102.776 113.923 102.528 115.287 102.422 116.493C102.314 117.721 102.362 118.686 102.553 119.33C102.726 119.912 102.414 120.51 101.858 120.666C101.301 120.823 100.71 120.479 100.537 119.898C100.223 118.84 100.203 117.538 100.32 116.215C100.439 114.868 100.71 113.395 101.05 111.942C101.731 109.037 102.713 106.127 103.413 104.325C103.627 103.774 104.24 103.523 104.782 103.765Z" fill="#FFC000"/>
<path fill-rule="evenodd" clip-rule="evenodd" d="M51.1015 38.2583C50.4723 38.0819 50.0985 37.4276 50.2666 36.7968C50.7942 34.8176 51.4935 31.6216 51.87 28.5005C52.0583 26.9398 52.1627 25.4233 52.1308 24.1006C52.0982 22.7527 51.9254 21.7157 51.6338 21.0474C51.371 20.4451 51.641 19.7482 52.2369 19.4909C52.8328 19.2336 53.5289 19.5132 53.7918 20.1155C54.2701 21.2117 54.4535 22.6187 54.4886 24.0704C54.5242 25.5473 54.4077 27.1863 54.2114 28.813C53.8189 32.0668 53.0948 35.3736 52.5452 37.4357C52.3771 38.0664 51.7307 38.4348 51.1015 38.2583Z" fill="#FFC000"/>
<path fill-rule="evenodd" clip-rule="evenodd" d="M44.1942 40.8846C43.6483 40.9575 43.0699 40.5148 42.9022 39.8958C42.4317 38.1597 39.6109 32.8654 32.1046 27.9716C31.5789 27.6289 31.3336 26.9291 31.5566 26.4084C31.7796 25.8878 32.3865 25.7435 32.9122 26.0862C40.8189 31.241 44.1832 37.0648 44.8787 39.6317C45.0465 40.2507 44.74 40.8117 44.1942 40.8846Z" fill="#FFC000"/>
<path fill-rule="evenodd" clip-rule="evenodd" d="M41.5964 44.4707C41.3108 45.0309 40.6244 45.2317 40.0633 44.9192C38.7627 44.195 36.7374 43.0311 34.8815 41.8889C33.9542 41.3182 33.0596 40.747 32.3152 40.2351C31.5971 39.7414 30.9373 39.2485 30.5423 38.8398C30.0922 38.3741 30.0843 37.639 30.5247 37.1979C30.965 36.7568 31.6868 36.7768 32.1369 37.2425C32.3429 37.4557 32.8163 37.8272 33.5405 38.3252C34.2384 38.805 35.0952 39.3527 36.0054 39.9128C37.8245 41.0324 39.8186 42.1785 41.0974 42.8906C41.6585 43.2031 41.8819 43.9105 41.5964 44.4707Z" fill="#FFC000"/>
<path d="M77.7033 117.759L77.5346 117.786C63.8081 122.122 53.5653 124.124 44.3273 124.285C40.1345 124.359 36.0837 124.065 31.1908 123.334C31.1152 123.321 31.0462 123.319 30.9823 123.318C30.5573 123.325 30.3821 123.593 30.3604 123.84C30.327 124.195 30.5772 124.654 30.9582 124.73C33.1481 125.175 35.5528 125.499 38.1116 125.69C35.4199 130.625 33.1867 135.044 31.3473 139.492C31.1256 140.996 32.3701 140.952 32.7805 140.083C32.8838 139.809 32.9672 139.526 33.0738 139.252C34.829 134.812 36.3219 131.485 37.9181 128.479C38.1542 128.033 39.0729 126.587 39.5336 125.783C41.2158 125.876 42.9519 125.906 44.6965 125.875L44.6979 125.875C55.2708 125.69 66.4761 123.358 78.001 118.937C78.2527 118.84 78.3795 118.594 78.3259 118.313C78.2732 118.04 78.0361 117.754 77.7033 117.759Z" fill="#356799"/>
<path d="M84.1972 116.066C83.9403 116.072 83.7114 115.894 83.6245 115.625C83.5395 115.352 83.6345 115.081 83.8738 114.917C84.6677 114.382 85.4641 113.854 86.259 113.331C88.3916 111.924 90.595 110.47 92.6538 108.845C93.135 108.463 93.6324 108.105 94.1246 107.746C94.9025 107.187 95.7041 106.603 96.4447 105.936C96.8461 105.574 97.0158 105.146 96.8898 104.823C96.7764 104.54 96.4499 104.375 96.0171 104.383C95.8398 104.385 95.6476 104.416 95.4427 104.473C94.4067 104.774 93.4906 105.234 92.7337 105.643C92.6399 105.694 92.5444 105.723 92.4402 105.721C92.1721 105.726 91.9141 105.553 91.8093 105.295C91.7117 105.058 91.7709 104.808 91.9623 104.627C92.8486 103.786 94.4716 102.795 96.1282 102.766C96.6545 102.755 97.1431 102.847 97.581 103.037C98.2142 103.309 98.9605 103.953 99.0965 104.713C99.1805 105.175 99.0212 105.614 98.6384 105.985C94.6516 109.819 89.8725 112.716 85.2521 115.52L84.5077 115.97C84.4084 116.032 84.3027 116.062 84.1972 116.066Z" fill="#356799"/>
<path d="M139.49 44.3723L139.326 44.3964C137.923 44.7861 136.403 44.9836 134.541 45.0161C133.288 45.0378 132.006 44.9826 130.762 44.9297C129.509 44.877 128.211 44.8229 126.935 44.843C126.572 44.8509 126.212 44.8624 125.85 44.8823C125.57 44.8957 125.281 44.9166 124.986 44.9445L124.794 44.9583L124.465 45.0056C122.353 45.2687 119.863 45.8718 117.455 46.4559C115.958 46.8189 114.468 47.1814 113.079 47.4607C112.001 47.6759 111.012 47.9081 110.058 48.1315C107.941 48.6225 105.936 49.0904 103.458 49.2803C102.959 49.312 102.51 49.3495 102.081 49.3883C101.365 49.4502 100.702 49.5059 99.9352 49.5189C99.5996 49.525 99.2413 49.5236 98.8485 49.5077C94.484 49.3994 91.1292 47.2081 90.5209 45.2404C90.2145 44.2388 90.5924 43.321 91.5344 42.6139C103.04 41.9626 112.915 37.8862 121.87 33.5829C122.106 33.4673 122.217 33.2197 122.15 32.9515C122.094 32.709 121.883 32.4674 121.596 32.4707L121.44 32.4971L119.873 33.0859C117.671 33.9163 115.477 34.7405 113.274 35.551C112.242 32.833 111.035 29.8162 109.263 26.1553C109.149 25.9316 108.939 25.8057 108.687 25.8109L108.496 25.8367C103.075 27.2142 97.8012 28.9451 89.0346 32.2226C80.6609 35.3548 72.5059 38.9984 64.1941 42.7707C61.3739 44.0489 58.5794 45.2718 55.8172 46.4803C42.0209 52.5165 28.9935 58.2184 17.4937 68.8354C17.2674 69.0454 17.2412 69.3457 17.4207 69.5733C18.8603 72.0139 19.8513 74.0489 20.8992 76.2037C21.7047 77.8552 22.5368 79.5656 23.6074 81.5174C25.6114 85.1724 26.6682 86.9275 27.9411 89.0074C28.0459 89.1757 28.1988 89.2684 28.3742 89.265C28.5714 89.2618 28.7714 89.1368 28.8992 88.9376C29.032 88.7306 29.0561 88.4867 28.9662 88.2808C27.6664 85.3178 27.2848 84.6629 26.2675 82.9143C25.9322 82.3394 25.5266 81.6463 24.9977 80.7093C24.1292 79.171 23.4528 77.9241 22.7982 76.7176C21.6569 74.6107 20.5799 72.6225 18.6561 69.4277C30.0673 60.1705 41.8513 54.9269 54.3244 49.3781C57.8294 47.818 61.4541 46.2055 65.1548 44.4677C74.6219 40.0228 82.4555 36.7352 89.8124 34.1161C92.301 33.2315 100.11 30.4062 108.454 27.2984C109.581 30.1074 110.662 32.9011 111.853 36.0599L111.394 36.2267C109.897 36.7712 108.406 37.3152 106.883 37.8206C104.445 38.6287 101.789 39.0925 99.2209 39.5414C96.3588 40.0409 93.4003 40.5567 90.7264 41.5597C89.1106 42.3296 88.3028 43.6301 88.5028 45.1256C88.8088 47.3838 91.5004 50.2369 96.6882 51.1664C98.4219 51.4757 100.331 51.6158 102.368 51.5786C106.462 51.5108 111.182 50.7479 116.784 49.2503C119.059 55.1417 121.343 60.5324 124.182 66.69C120.92 67.765 118.439 68.667 115.578 69.7101C113.962 70.2985 112.239 70.9262 110.206 71.6467C102.739 74.287 95.3834 77.4974 88.271 80.6036L87.9301 80.7557C70.4505 88.3874 55.0434 96.6449 40.8396 105.989C40.4766 105.262 40.4263 105.188 39.8253 104.303L39.6643 104.065C38.8924 102.932 38.3381 102.114 37.2317 100.627L37.4428 100.422C40.8515 97.1247 44.0719 94.0085 46.4729 88.6677C47.8038 85.7051 49.6569 78.777 48.134 75.411C47.7222 74.5032 47.0941 73.915 46.2648 73.6583C45.9944 73.5752 45.7081 73.5628 45.5155 73.5659C45.2845 73.57 45.0613 73.6007 44.9303 73.6476C43.6769 74.0861 43.2095 74.6692 41.9588 76.2253C41.6077 76.6613 41.19 77.1777 40.6767 77.7938C38.5091 80.3891 33.4996 86.0084 28.4747 90.6028C23.038 95.5783 16.8021 101.445 11.6068 108.103C6.86107 114.189 2.9131 122.907 0.134165 129.12C0.10213 129.193 0.06328 129.278 0.0289572 129.353C-0.19828 130.29 0.972536 130.808 1.42485 129.877C1.43076 129.867 1.43661 129.853 1.44113 129.844C4.87634 122.317 9.78293 112.569 16.5038 104.545C19.9056 100.484 24.0141 96.926 27.9892 93.4835C33.4945 88.7151 39.1856 83.7848 43.0932 77.4082C43.6423 76.676 44.324 75.7676 45.2308 75.7512C45.3669 75.7506 45.506 75.7675 45.5913 75.7767C47.0779 76.8625 47.3235 79.8682 46.2805 84.2401L46.2385 84.4188C45.391 88.1514 43.1883 91.3615 41.144 94.0087C38.2046 97.8162 36.9975 99.1759 34.6894 101.271C33.3379 102.317 32.7899 103.907 33.188 105.639C33.4949 106.969 34.7663 108.306 36.416 109.04C38.7056 110.301 41.555 110.884 45.1262 110.823C49.0298 110.754 53.3233 109.928 57.7455 109.017C67.3349 107.038 79.0491 102.452 89.9491 96.3824C90.3911 96.1643 90.8228 95.9436 91.5699 95.5286C92.2826 95.1394 93.0875 94.9135 93.836 94.9007C94.8891 94.8817 95.7335 95.2758 96.0414 95.9237C96.3933 96.6586 96.0771 97.6696 95.1546 98.7775C92.9522 101.411 89.4804 103.524 86.4207 105.39C85.7742 105.783 85.142 106.167 84.537 106.545C81.2274 108.625 77.699 110.485 74.288 112.285C70.9211 114.061 67.4378 115.898 64.1621 117.946C63.9111 118.103 63.8021 118.41 63.8888 118.705C63.9731 118.989 64.2113 119.176 64.4803 119.17L64.6803 119.135C69.32 117.568 73.5313 115.022 77.6029 112.561C79.0338 111.696 80.4656 110.833 81.9187 110.005L82.2383 109.818L82.014 110.079C81.5534 110.61 81.0946 111.142 80.6242 111.663C80.3051 112.021 80.0019 112.389 79.6987 112.758C79.0389 113.559 78.3558 114.387 77.516 115.041C77.2916 115.216 77.2102 115.504 77.3049 115.774C77.3939 116.026 77.6023 116.185 77.8341 116.179C77.9448 116.181 78.0545 116.14 78.1593 116.067C79.2444 115.294 80.1341 114.306 80.9921 113.348L81.3488 112.955C82.3898 111.804 84.0675 109.651 85.0389 108.201C86.2811 107.475 87.4144 106.78 88.4866 106.086C88.3877 106.261 88.292 106.437 88.1982 106.614C87.7502 107.441 87.2873 108.297 86.6118 109.138C84.9498 111.211 83.3747 112.703 80.9966 114.466C80.779 114.625 80.6946 114.901 80.7847 115.166C80.8676 115.41 81.0755 115.572 81.3051 115.568C81.4111 115.565 81.5176 115.529 81.6178 115.46C85.8857 112.443 88.6756 109.246 91.5486 103.967C93.9729 102.158 95.8835 100.369 97.3914 98.5037C97.8967 97.8733 98.4828 96.2188 98.279 94.954C98.1775 94.3384 97.9102 93.8887 97.4806 93.6098C96.7615 93.1523 95.9301 92.9257 95.0122 92.9413C94.03 92.9591 92.9493 93.2386 91.647 93.8133C91.715 93.7185 91.7787 93.6252 91.8471 93.5318C92.3606 92.8134 92.8473 92.1383 93.1367 91.2465C93.2659 90.8501 93.3156 90.4162 93.2608 90.0742C93.4256 89.9103 93.7789 89.7942 94.1242 89.7893C94.3649 89.7819 94.5646 89.8352 94.6753 89.927C94.9395 90.1485 95.0259 90.698 95.1018 91.186C95.1383 91.4167 95.1713 91.633 95.2223 91.7981C95.2999 92.0671 95.5487 92.2444 95.8352 92.2397C96.1153 92.2342 96.3411 92.0585 96.4093 91.7901C96.6953 90.6516 96.5383 89.1908 95.2308 88.5016C94.9858 88.371 94.6619 88.3081 94.2943 88.3114C93.8249 88.3204 93.3416 88.4459 92.9653 88.6521C92.638 87.9257 92.0967 87.3555 91.4304 87.033C91.186 86.9131 90.9117 86.8547 90.6173 86.859C89.3212 86.8831 87.887 88.1061 86.9366 88.9184L86.6105 89.1893C84.1454 91.2385 82.0077 93.6918 80.5922 96.1058C80.4723 96.31 80.4647 96.5341 80.571 96.7158C80.6871 96.9126 80.9163 97.0378 81.1566 97.0336C81.3644 97.0299 81.5494 96.9333 81.6794 96.7582C83.4681 94.3528 85.7679 92.1889 87.7836 90.3944C88.3972 89.8443 89.0719 89.3722 90.0388 88.8176C90.3318 88.648 90.5836 88.5608 90.7928 88.5566C91.0256 88.5535 91.2008 88.6524 91.3274 88.8658C91.7819 89.6194 91.4738 91.379 91.2099 91.8654L90.994 92.2577C90.7179 92.7715 90.4209 93.319 90.081 93.8317C89.7296 94.3561 89.3367 94.8995 89.2228 95.0582L88.5351 95.4527C85.9078 96.469 82.9374 97.7387 79.7897 99.0823C75.2455 101.019 70.0963 103.218 65.0629 105.049C63.5877 105.24 62.2833 105.343 61.0747 105.365C58.5848 105.408 56.3558 105.114 54.0605 104.44C53.2939 104.213 52.8535 104.077 52.4515 103.95C51.8809 103.769 51.3865 103.612 50.1566 103.272C50.0879 103.252 50.0216 103.244 49.9549 103.244C49.6591 103.249 49.4731 103.459 49.4412 103.662C49.4067 103.889 49.5386 104.087 49.7789 104.168L50.9446 104.564C54.6259 105.823 56.9374 106.611 60.3644 106.652C54.5518 108.491 49.7711 109.423 45.7749 109.492C41.6237 109.566 38.2781 108.672 35.8441 106.846C35.2456 106.334 34.8582 105.819 34.6292 105.229C34.2538 104.265 34.6655 103.346 34.9203 102.914C35.3994 102.423 35.8773 101.946 36.3516 101.482C36.7867 102.233 37.1199 102.788 37.4369 103.261C37.7256 103.692 37.9789 104.133 38.2359 104.585L38.492 105.034C38.9855 105.882 39.5082 106.73 39.9493 107.118C40.038 107.347 40.242 107.494 40.4711 107.489C40.5286 107.489 40.5859 107.48 40.762 107.416C57.7636 97.423 72.2118 89.8149 86.2375 83.4701C88.8445 82.2874 91.6558 81.082 95.2496 79.5592C98.0618 80.4109 101.101 81.1918 104.269 81.1379C104.792 81.1273 105.315 81.0949 105.844 81.0388C107.469 80.8637 108.097 80.1194 108.336 79.5255C108.738 78.5407 108.373 77.2263 107.363 76.0142C107.248 75.8757 107.09 75.8035 106.915 75.805C106.714 75.8096 106.508 75.9199 106.383 76.0931C106.264 76.2551 106.225 76.45 106.279 76.6341C106.519 77.4481 106.485 78.0735 106.18 78.4872C105.807 78.9929 105.036 79.2378 103.742 79.2596C103.264 79.2688 102.773 79.2466 102.312 79.2264C102.035 79.2139 101.768 79.2026 101.524 79.197C100.27 79.1758 99.0477 78.8953 97.865 78.6246L97.7029 78.5862C102.023 76.8306 106.368 75.1316 110.727 73.4246C112.596 72.6939 114.162 72.0977 115.643 71.5339C118.659 70.3864 121.264 69.3935 125.407 67.651L125.558 67.546C125.602 67.5076 125.637 67.4678 125.728 67.2936C125.782 67.1527 125.788 67.011 125.736 66.8787C123.377 60.5457 121.984 57.0184 118.462 48.7936C120.563 48.1982 122.751 47.5198 125.466 46.6127L126.816 46.7463C128.853 46.954 130.96 47.1697 133.051 47.1337C135.839 47.086 138.053 46.5768 139.821 45.576C140.077 45.4286 140.192 45.1518 140.114 44.8642C140.034 44.5698 139.777 44.369 139.49 44.3723Z" fill="#356799"/>
<path d="M143.412 30.665C148.446 32.6375 153.566 34.641 158.76 36.1834C160.039 36.4655 160.551 34.4943 159.21 33.9981C154.608 32.5141 150.085 30.8108 145.636 29.1284C133.473 24.531 120.898 19.7771 107.532 20.0081C106.997 20.0184 106.46 20.0352 105.91 20.0614C101.942 20.5657 96.5552 22.7803 91.1267 26.1371L90.1098 26.7664C87.5909 28.3199 86.2043 29.1747 83.5195 31.1977C82.9581 31.6213 81.6081 32.716 81.0202 33.3315C80.8375 33.5466 80.79 33.8032 80.8907 34.0224C80.9837 34.2241 81.193 34.3454 81.4295 34.3394C81.5776 34.3377 81.7271 34.2906 81.8834 34.1916C84.2943 32.4694 86.8747 30.7088 90.0055 28.6492C95.4664 25.0549 100.132 22.2254 106.235 21.2114C118.41 21.4159 128.33 24.858 139.118 28.9938C140.535 29.5382 141.969 30.1001 143.412 30.665Z" fill="#356799"/>
<path d="M153.88 65.8869C154.333 66.0229 154.788 66.1599 155.244 66.2963C156.405 66.5807 156.92 64.833 155.384 64.4103C154.772 64.2428 154.204 64.0891 153.731 63.9631C152.586 63.6623 151.456 63.3146 150.32 62.9688C147.771 62.1901 145.135 61.386 142.443 61.1219C143.063 60.5449 143.597 60.0082 144.076 59.4846C144.255 59.2862 144.296 59.0024 144.179 58.744C144.066 58.4967 143.838 58.3368 143.595 58.3419C143.478 58.3437 143.361 58.3825 143.254 58.4569C142.124 59.2338 141.008 60.029 139.892 60.8229C134.834 64.4232 129.605 68.1462 123.435 69.9379C123.109 70.0351 122.997 70.3235 123.032 70.5652C123.073 70.8221 123.282 71.0767 123.604 71.0707L123.746 71.051C129.816 69.5652 136.03 66.46 140.678 62.5723C144.443 63.057 149.025 64.4332 153.88 65.8869Z" fill="#356799"/>
<path d="M83.1221 48.7605C82.3629 48.9706 81.4413 49.2261 80.3853 49.5188C79.3418 49.8428 78.1784 50.2548 76.9047 50.7018C75.6401 51.1658 74.2432 51.6059 72.8204 52.2084C71.3875 52.7771 69.8954 53.4299 68.3402 54.0751C66.7884 54.7299 65.222 55.4905 63.6226 56.2408C62.0224 56.993 60.3991 57.7593 58.8105 58.5989C57.2115 59.4126 55.6129 60.2277 54.0377 61.0301C52.4885 61.8761 50.9619 62.7112 49.4864 63.5194C48.008 64.3192 46.5831 65.1037 45.2649 65.9054C43.9387 66.6929 42.6842 67.4369 41.5253 68.1215C39.2089 69.4902 37.3567 70.7541 36.0239 71.581C34.7016 72.4245 33.9455 72.9077 33.9455 72.9077C33.9281 72.9199 33.9218 72.9422 33.9332 72.9615C33.944 72.9795 33.9691 72.9847 33.987 72.9739C33.987 72.9739 34.7535 72.5072 36.0937 71.6932C37.4444 70.8957 39.3263 69.6727 41.6687 68.3569C44.0244 67.0613 46.7111 65.4467 49.7035 63.9183C51.19 63.1374 52.7266 62.3313 54.2877 61.5106C55.871 60.7364 57.4797 59.9503 59.0892 59.1624C60.6894 58.3607 62.3232 57.6294 63.9332 56.9142C65.5507 56.2118 67.1039 55.4403 68.6521 54.7929C70.1961 54.1376 71.7017 53.5328 73.1048 52.9093C74.504 52.2655 75.8759 51.7891 77.123 51.2877C78.3774 50.8118 79.5055 50.3159 80.5319 49.9468C81.5635 49.5882 82.46 49.2779 83.2001 49.0217C84.6761 48.4969 85.5237 48.1973 85.5237 48.1973C85.544 48.1888 85.5585 48.1682 85.5514 48.1475C85.5442 48.1267 85.5246 48.1149 85.5029 48.1193C85.5029 48.1193 84.6356 48.3529 83.1221 48.7605Z" fill="#356799"/>
<path d="M88.4169 56.5923C89.2534 56.3013 89.9839 56.0484 90.5853 55.8387C91.7846 55.4097 92.4707 55.1629 92.4707 55.1629C92.4886 55.1567 92.5027 55.1348 92.4965 55.1168C92.4916 55.0937 92.4693 55.0829 92.4494 55.0882C92.4494 55.0882 91.7431 55.2676 90.5077 55.579C89.2744 55.9052 87.4897 56.3168 85.4265 57.034C84.3855 57.3835 83.2634 57.7626 82.0772 58.1623C80.8887 58.569 79.6795 59.1037 78.4037 59.598C77.1372 60.106 75.8161 60.6175 74.518 61.231C73.2108 61.8229 71.8815 62.4224 70.5541 63.0228C67.9329 64.2987 65.2809 65.5079 62.8668 66.7866C60.4251 68.0127 58.1838 69.2269 56.2789 70.2983C54.3536 71.3334 52.8048 72.2878 51.7028 72.9264C50.605 73.5728 49.9777 73.9402 49.9777 73.9402C49.9584 73.9515 49.9527 73.9752 49.964 73.9945C49.9735 74.0129 49.999 74.0196 50.0169 74.0087C50.0169 74.0087 50.6546 73.6579 51.7694 73.0427C52.8861 72.4331 54.4637 71.5215 56.4122 70.5403C58.3419 69.5223 60.6117 68.3773 63.0705 67.1963C65.5043 65.9697 68.1768 64.8154 70.8135 63.5976C73.4985 62.4793 76.1588 61.3122 78.6958 60.3257C81.2212 59.3013 83.5863 58.382 85.6282 57.6257C86.6469 57.239 87.5713 56.8571 88.4169 56.5923Z" fill="#356799"/>
<path d="M76.3623 70.7876C75.5072 71.1952 74.6052 71.6282 73.6728 72.0764C71.817 72.9945 69.862 74.0151 67.9395 75.0941C64.0671 77.1997 60.199 79.3085 57.3207 80.929C54.4339 82.5386 52.5085 83.6093 52.5085 83.6093C52.4906 83.6202 52.4835 83.6443 52.493 83.6627C52.5024 83.6812 52.5271 83.6897 52.545 83.6788L68.2306 75.6533C70.1853 74.6359 72.1765 73.702 74.0345 72.8126C75.8901 71.9209 77.5606 70.9508 79.0779 70.3125C82.0668 68.931 84.0306 67.9089 84.0306 67.9089C84.0495 67.9008 84.0609 67.8798 84.0542 67.8605C84.0465 67.8383 84.0246 67.8289 84.0025 67.8365C84.0053 67.8356 81.9155 68.5387 78.8259 69.7413C78.0516 70.0419 77.2146 70.3718 76.3623 70.7876Z" fill="#356799"/>
<path d="M100.471 68.6989C101.82 68.1996 103.236 67.6319 104.704 67.1595C107.625 66.2089 110.521 65.1956 112.673 64.3658C114.824 63.5374 116.231 62.8893 116.231 62.8893C116.246 62.8826 116.258 62.863 116.254 62.8441C116.25 62.8224 116.23 62.8092 116.208 62.8136C116.208 62.8136 114.696 63.1388 112.476 63.7708C111.37 64.1057 110.064 64.4521 108.706 64.9469C107.358 65.4647 105.921 66.0164 104.484 66.5681C103.04 67.0957 101.624 67.7268 100.291 68.2796C98.9661 68.862 97.6945 69.3238 96.6822 69.8771C94.6246 70.9192 93.2529 71.6155 93.2529 71.6155C93.2354 71.6231 93.225 71.6469 93.235 71.6667C93.2445 71.6851 93.2691 71.6936 93.2889 71.6836C93.2889 71.6836 94.692 71.0601 96.8036 70.1248C97.8447 69.6235 99.1375 69.2318 100.471 68.6989Z" fill="#356799"/>
<path d="M117.429 48.1506L121.286 57.3596C124.613 55.3714 128.668 51.1238 128.668 51.1238C134.931 49.8806 139.516 47.1303 140.13 45.0898C135.674 45.8094 127.26 46.0864 125.305 45.7593C121.706 46.001 117.429 48.1506 117.429 48.1506Z" fill="#356799"/>
<path d="M121.596 32.4707C118 32.3879 114.315 33.0241 114.315 33.0241C113.332 30.1852 111.687 26.4029 111.687 26.4029L109.052 27.4216L112.797 36.699L121.596 32.4707Z" fill="#356799"/>
<path d="M54.2883 104.539C51.8074 105.204 47.5337 110.057 47.5337 110.057C43.2702 111.726 34.5971 108.739 33.8057 105.334C33.0143 101.928 36.3516 101.482 36.3516 101.482C38.0143 103.269 41.0264 106.385 41.0264 106.385C44.1212 105.103 48.4504 102.259 48.4504 102.259C50.4324 103.509 54.2883 104.539 54.2883 104.539Z" fill="#356799"/>
<path d="M123.105 54.2598C124.542 58.4102 128.053 66.8773 128.053 66.8773C125.173 68.139 118.083 70.5218 118.083 70.5218C123.663 67.6221 125.736 66.8787 125.736 66.8787L120.99 56.541L123.105 54.2598Z" fill="#356799"/>
<path d="M39.1192 125.192C39.1192 125.192 32.2483 124.533 30.3664 123.975C30.5447 126.003 36.4586 130.498 36.4586 130.498C37.0282 128.658 39.1192 125.192 39.1192 125.192Z" fill="#356799"/>
<path d="M47.7096 76.6928C49.5481 74.4911 53.5767 79.1031 47.7596 89.1513C43.5932 96.351 34.9625 102.435 34.9625 102.435C39.0746 97.964 44.6403 92.6628 46.304 87.4095C47.967 82.1541 48.0483 80.8188 47.7096 76.6928Z" fill="#356799"/>
<path d="M89.2244 44.7544C85.7312 44.8759 87.7625 51.922 95.1694 52.8936C102.137 53.8083 114.439 50.4379 119.081 47.7453C106.563 50.8541 91.5165 53.3415 89.2244 44.7544Z" fill="#356799"/>
<path d="M28.7743 89.0902C28.6578 89.1998 28.5153 89.2644 28.3742 89.2667C28.1987 89.2701 28.0458 89.1774 27.9411 89.0091C26.6681 86.9292 25.6114 85.1741 23.6074 81.5191C22.5555 79.6015 21.7338 77.9167 20.9414 76.292L20.8991 76.2054C19.8512 74.0507 18.8603 72.0156 17.4207 69.575C17.2412 69.3475 17.2674 69.0471 17.4937 68.8371C28.9934 58.2201 42.0209 52.5182 55.8172 46.482C58.5794 45.2735 61.3738 44.0507 64.1941 42.7724C72.5059 39.0001 80.6608 35.3565 89.0346 32.2243C97.8012 28.9468 103.075 27.2159 108.496 25.8385L108.687 25.8127C108.939 25.8074 109.149 25.9333 109.263 26.157C109.427 26.4958 109.586 26.829 109.741 27.157L111.687 26.4046C111.687 26.4046 113.332 30.1869 114.315 33.0258C114.315 33.0258 114.554 32.9844 114.971 32.9242C114.981 32.9503 114.99 32.9762 115 33.0019L112 36.0019L111.826 35.9885C110.646 32.8597 109.572 30.0874 108.454 27.3001C100.11 30.4079 92.3009 33.2332 89.8123 34.1178C82.4554 36.7369 74.6219 40.0246 65.1548 44.4694C61.4946 46.1882 57.9087 47.7844 54.4395 49.3286L54.3244 49.3798C41.8512 54.9286 30.0672 60.1722 18.6561 69.4294C20.5796 72.6238 21.6566 74.6119 22.7977 76.7185L22.81 76.7412C23.4608 77.9407 24.1345 79.1822 24.9977 80.711C25.4905 81.5842 25.8763 82.2455 26.198 82.7968L26.2675 82.916L26.2716 82.9231C27.2858 84.6664 27.6682 85.3235 28.9662 88.2825C29.0353 88.441 29.037 88.622 28.9735 88.7914L28.7743 89.0902Z" fill="#FFC000"/>
<path d="M49.3761 102.77C49.1023 102.921 48.9707 103.002 49 103.002C49.4 103.002 42.8333 107.002 39.5 109.002C35.6814 107.039 35.05 105.662 35 103.002L37.5 101.002H37.508C38.4059 102.219 38.925 102.982 39.5961 103.967L39.8253 104.304L39.8281 104.308C40.4264 105.19 40.4772 105.265 40.8396 105.99C55.0434 96.6466 70.4505 88.3891 87.9301 80.7574L88.2709 80.6053C95.3834 77.4991 102.739 74.2888 110.206 71.6484C112.239 70.9279 113.962 70.3002 115.578 69.7118C118.439 68.6688 120.92 67.7667 124.182 66.6917C121.343 60.5342 119.059 55.1434 116.784 49.252C116.119 49.4298 115.467 49.5972 114.826 49.7544L117 49.0019H120.5L124.434 57.8528C126.036 62.0148 128.053 66.879 128.053 66.879C126.06 67.7521 122.051 69.162 119.771 69.9477C118.354 70.5039 117.043 71.0031 115.643 71.5357C114.162 72.0994 112.596 72.6956 110.727 73.4264L110.261 73.6089L110.259 73.6094C106.058 75.2548 101.868 76.8952 97.7029 78.5879L97.7657 78.6028C97.0593 78.9087 96.1024 79.3366 95.5065 79.6384C95.4207 79.6126 95.335 79.5868 95.2496 79.561C91.6557 81.0837 88.8444 82.2891 86.2375 83.4718C74.5508 88.7586 62.5707 94.9224 49.0646 102.612C49.166 102.665 49.27 102.718 49.3761 102.77Z" fill="#FFC000"/>
<path d="M80.6427 49.4492C81.5915 49.1862 82.4253 48.9551 83.1221 48.7623L85.5029 48.1211C85.5246 48.1166 85.5442 48.1285 85.5513 48.1492C85.5585 48.17 85.5439 48.1905 85.5237 48.1991C85.5237 48.1991 84.6761 48.4986 83.2001 49.0234C82.46 49.2796 81.5635 49.5899 80.5319 49.9485C79.9715 50.15 79.3809 50.3893 78.7559 50.6425L78.7549 50.6429C78.2354 50.8534 77.6922 51.0735 77.123 51.2895C76.7278 51.4483 76.3201 51.6047 75.9029 51.7647C75.0037 52.1096 74.0606 52.4712 73.1048 52.9111C72.2066 53.3102 71.2664 53.7016 70.301 54.1036L70.3001 54.104C69.7578 54.3298 69.2073 54.559 68.6521 54.7946C67.7973 55.152 66.941 55.5473 66.0732 55.9478L66.0721 55.9484C65.3686 56.2731 64.657 56.6016 63.9331 56.9159C62.3232 57.6311 60.6894 58.3624 59.0892 59.1641C57.91 59.7414 56.7312 60.3176 55.5625 60.889L54.2876 61.5123C53.3679 61.9958 52.4566 62.4743 51.5591 62.9456L51.4976 62.9778C50.8927 63.2954 50.2941 63.6097 49.7034 63.92C47.7126 64.9369 45.857 65.9919 44.1442 66.9658C43.2826 67.4557 42.4571 67.925 41.6687 68.3586C40.1252 69.2257 38.7816 70.0524 37.6582 70.7437C37.0768 71.1015 36.5543 71.4229 36.0937 71.6949C34.7534 72.5089 33.987 72.9756 33.987 72.9756C33.9691 72.9864 33.944 72.9812 33.9331 72.9632C33.9218 72.9439 33.928 72.9216 33.9455 72.9094C33.9455 72.9094 34.7016 72.4262 36.0239 71.5827C36.479 71.3004 36.9946 70.9671 37.5686 70.5961C38.6756 69.8805 39.9999 69.0246 41.5253 68.1232C42.6841 67.4386 43.9386 66.6946 45.2649 65.9071C46.5831 65.1054 48.0079 64.321 49.4864 63.5211C50.9619 62.713 52.4885 61.8778 54.0377 61.0318L55.6867 60.1916C56.7235 59.6633 57.7669 59.1317 58.8105 58.6006C60.3991 57.7611 62.0224 56.9947 63.6226 56.2426C63.9542 56.087 64.2844 55.931 64.6133 55.7756C65.8708 55.1814 67.1101 54.5959 68.3402 54.0768C68.9103 53.8403 69.4719 53.6028 70.0252 53.3688L70.0265 53.3682L70.0276 53.3678L70.0294 53.367C70.9838 52.9633 71.9143 52.5697 72.8204 52.2101C73.7964 51.7968 74.7602 51.46 75.6776 51.1393C76.0973 50.9926 76.5077 50.8492 76.9047 50.7035L77.1851 50.605C78.3493 50.1962 79.419 49.8205 80.3853 49.5205L80.6427 49.4492Z" fill="#FFC000"/>
<path d="M88.4169 56.5941C88.802 56.46 89.1647 56.3341 89.5026 56.2168C89.8986 56.0793 90.2607 55.9536 90.5852 55.8405C91.7845 55.4114 92.4706 55.1647 92.4706 55.1647C92.4886 55.1584 92.5027 55.1365 92.4965 55.1185C92.4916 55.0954 92.4692 55.0846 92.4494 55.0899C92.4494 55.0899 91.7431 55.2693 90.5077 55.5807C90.2713 55.6432 90.0145 55.7089 89.7395 55.7793C88.5798 56.076 87.0941 56.4561 85.4264 57.0358C84.6986 57.2801 83.9311 57.5389 83.1298 57.8091L82.0772 58.164C81.3177 58.4239 80.5497 58.7361 79.7613 59.0566C79.316 59.2376 78.8642 59.4213 78.4036 59.5997C78.2243 59.6716 78.0439 59.7436 77.8627 59.8159L77.8615 59.8164C76.7628 60.2549 75.6319 60.7063 74.518 61.2327C73.7691 61.5718 73.0129 61.9134 72.254 62.2563L72.2074 62.2773C71.6571 62.5259 71.1054 62.7751 70.5541 63.0245C69.7464 63.4177 68.9358 63.8045 68.1301 64.189C66.3212 65.0522 64.5369 65.9037 62.8667 66.7883C60.4251 68.0145 58.1838 69.2286 56.2789 70.3001C54.8644 71.0605 53.6532 71.7773 52.673 72.3574C52.3191 72.5669 51.9951 72.7587 51.7027 72.9281C50.605 73.5745 49.9777 73.9419 49.9777 73.9419C49.9584 73.9532 49.9526 73.9769 49.964 73.9962C49.9734 74.0146 49.999 74.0213 50.0169 74.0104C50.0169 74.0104 50.6546 73.6596 51.7693 73.0445C52.0488 72.8919 52.357 72.7205 52.6927 72.5338L52.695 72.5325C53.7006 71.9733 54.9523 71.2772 56.4122 70.5421C58.3418 69.5241 60.6117 68.379 63.0705 67.198C64.7581 66.3475 66.5605 65.5317 68.3861 64.7054C69.1933 64.3401 70.0051 63.9727 70.8134 63.5994C71.6595 63.247 72.5031 62.8898 73.3411 62.5349L73.3455 62.533L73.3465 62.5326C75.1662 61.762 76.96 61.0024 78.6958 60.3274C81.2212 59.303 83.5862 58.3838 85.6281 57.6275C85.9009 57.5239 86.1669 57.4207 86.4264 57.32L86.4296 57.3188C87.1381 57.0439 87.7987 56.7876 88.4169 56.5941Z" fill="#FFC000"/>
<path d="M73.6728 72.0781C74.6052 71.6299 75.5072 71.1969 76.3623 70.7894C77.2145 70.3736 78.0515 70.0436 78.8259 69.743C81.9155 68.5404 84.0052 67.8373 84.0025 67.8383C84.0246 67.8306 84.0465 67.8401 84.0541 67.8622C84.0608 67.8816 84.0495 67.9025 84.0306 67.9106C84.0306 67.9106 82.0668 68.9327 79.0778 70.3143C78.1809 70.6916 77.2304 71.1848 76.2197 71.7093C75.5208 72.0721 74.7931 72.4497 74.0345 72.8143C73.7399 72.9553 73.442 73.0974 73.1414 73.2408C71.5462 74.0019 69.8752 74.7991 68.2306 75.655L52.545 83.6805C52.527 83.6914 52.5024 83.6829 52.4929 83.6645C52.4835 83.6461 52.4906 83.6219 52.5085 83.611C52.5085 83.611 54.4338 82.5403 57.3206 80.9308C60.199 79.3102 64.0671 77.2014 67.9395 75.0958C69.8619 74.0168 71.817 72.9962 73.6728 72.0781Z" fill="#FFC000"/>
<path d="M101.582 68.283L101.583 68.2826C102.592 67.9004 103.634 67.5056 104.704 67.1613C107.625 66.2106 110.521 65.1973 112.673 64.3675C114.824 63.5391 116.231 62.891 116.231 62.891C116.246 62.8843 116.258 62.8648 116.254 62.8458C116.25 62.8241 116.23 62.8109 116.208 62.8153C116.208 62.8153 114.696 63.1405 112.476 63.7725C112.189 63.8593 111.889 63.9469 111.578 64.0376C110.689 64.2969 109.712 64.5821 108.706 64.9486C107.358 65.4664 105.921 66.0181 104.484 66.5698C103.433 66.9537 102.397 67.3924 101.397 67.8158C101.023 67.9743 100.654 68.1307 100.29 68.2813C99.8518 68.4742 99.419 68.6539 98.9995 68.828C98.1522 69.1796 97.3592 69.5087 96.6822 69.8788C94.6246 70.9209 93.2529 71.6172 93.2529 71.6172C93.2354 71.6249 93.225 71.6486 93.235 71.6684C93.2444 71.6868 93.2691 71.6953 93.2889 71.6854C93.2889 71.6854 94.692 71.0618 96.8036 70.1265C97.4428 69.8187 98.177 69.5522 98.9573 69.269C99.4477 69.0909 99.9564 68.9063 100.471 68.7006C100.835 68.566 101.203 68.4264 101.576 68.285L101.582 68.283Z" fill="#FFC000"/>
<path d="M77.7033 117.759L77.5346 117.786C63.8081 122.122 53.5653 124.124 44.3273 124.285C40.1345 124.359 36.0837 124.065 31.1908 123.334C31.1152 123.321 31.0462 123.319 30.9823 123.318C30.5573 123.325 30.3821 123.593 30.3604 123.84C30.327 124.195 30.5772 124.654 30.9582 124.73C33.1481 125.175 35.5528 125.499 38.1116 125.69C35.4199 130.625 33.1867 135.044 31.3473 139.492C31.1256 140.996 32.3701 140.952 32.7805 140.083C32.8838 139.809 32.9672 139.526 33.0738 139.252C34.829 134.812 36.3219 131.485 37.9181 128.479C38.1542 128.033 39.0729 126.587 39.5336 125.783C41.2158 125.876 42.9519 125.906 44.6965 125.875L44.6979 125.875C55.2708 125.69 66.4761 123.358 78.001 118.937C78.2527 118.84 78.3795 118.594 78.3259 118.313C78.2732 118.04 78.0361 117.754 77.7033 117.759Z" fill="#356799"/>
<path d="M84.1972 116.066C83.9403 116.072 83.7114 115.894 83.6245 115.625C83.5395 115.352 83.6345 115.081 83.8738 114.917C84.6677 114.382 85.4641 113.854 86.259 113.331C88.3916 111.924 90.595 110.47 92.6538 108.845C93.135 108.463 93.6324 108.105 94.1246 107.746C94.9025 107.187 95.7041 106.603 96.4447 105.936C96.8461 105.574 97.0158 105.146 96.8898 104.823C96.7764 104.54 96.4499 104.375 96.0171 104.383C95.8398 104.385 95.6476 104.416 95.4427 104.473C94.4067 104.774 93.4906 105.234 92.7337 105.643C92.6399 105.694 92.5444 105.723 92.4402 105.721C92.1721 105.726 91.9141 105.553 91.8093 105.295C91.7117 105.058 91.7709 104.808 91.9623 104.627C92.8486 103.786 94.4716 102.795 96.1282 102.766C96.6545 102.755 97.1431 102.847 97.581 103.037C98.2142 103.309 98.9605 103.953 99.0965 104.713C99.1805 105.175 99.0212 105.614 98.6384 105.985C94.6516 109.819 89.8725 112.716 85.2521 115.52L84.5077 115.97C84.4084 116.032 84.3027 116.062 84.1972 116.066Z" fill="#356799"/>
<path d="M139.49 44.3723L139.326 44.3964C137.923 44.7861 136.403 44.9836 134.541 45.0161C133.288 45.0378 132.006 44.9826 130.762 44.9297C129.509 44.877 128.211 44.8229 126.935 44.843C126.572 44.8509 126.212 44.8624 125.85 44.8823C125.57 44.8957 125.281 44.9166 124.986 44.9445L124.794 44.9583L124.465 45.0056C122.353 45.2687 119.863 45.8718 117.455 46.4559C115.958 46.8189 114.468 47.1814 113.079 47.4607C112.001 47.6759 111.012 47.9081 110.058 48.1315C107.941 48.6225 105.936 49.0904 103.458 49.2803C102.959 49.312 102.51 49.3495 102.081 49.3883C101.365 49.4502 100.702 49.5059 99.9352 49.5189C99.5996 49.525 99.2413 49.5236 98.8485 49.5077C94.484 49.3994 91.1292 47.2081 90.5209 45.2404C90.2145 44.2388 90.5924 43.321 91.5344 42.6139C103.04 41.9626 112.915 37.8862 121.87 33.5829C122.106 33.4673 122.217 33.2197 122.15 32.9515C122.094 32.709 121.883 32.4674 121.596 32.4707L121.44 32.4971L119.873 33.0859C117.671 33.9163 115.477 34.7405 113.274 35.551C112.242 32.833 111.035 29.8162 109.263 26.1553C109.149 25.9316 108.939 25.8057 108.687 25.8109L108.496 25.8367C103.075 27.2142 97.8012 28.9451 89.0346 32.2226C80.6609 35.3548 72.5059 38.9984 64.1941 42.7707C61.3739 44.0489 58.5794 45.2718 55.8172 46.4803C42.0209 52.5165 28.9935 58.2184 17.4937 68.8354C17.2674 69.0454 17.2412 69.3457 17.4207 69.5733C18.8603 72.0139 19.8513 74.0489 20.8992 76.2037C21.7047 77.8552 22.5368 79.5656 23.6074 81.5174C25.6114 85.1724 26.6682 86.9275 27.9411 89.0074C28.0459 89.1757 28.1988 89.2684 28.3742 89.265C28.5714 89.2618 28.7714 89.1368 28.8992 88.9376C29.032 88.7306 29.0561 88.4867 28.9662 88.2808C27.6664 85.3178 27.2848 84.6629 26.2675 82.9143C25.9322 82.3394 25.5266 81.6463 24.9977 80.7093C24.1292 79.171 23.4528 77.9241 22.7982 76.7176C21.6569 74.6107 20.5799 72.6225 18.6561 69.4277C30.0673 60.1705 41.8513 54.9269 54.3244 49.3781C57.8294 47.818 61.4541 46.2055 65.1548 44.4677C74.6219 40.0228 82.4555 36.7352 89.8124 34.1161C92.301 33.2315 100.11 30.4062 108.454 27.2984C109.581 30.1074 110.662 32.9011 111.853 36.0599L111.394 36.2267C109.897 36.7712 108.406 37.3152 106.883 37.8206C104.445 38.6287 101.789 39.0925 99.2209 39.5414C96.3588 40.0409 93.4003 40.5567 90.7264 41.5597C89.1106 42.3296 88.3028 43.6301 88.5028 45.1256C88.8088 47.3838 91.5004 50.2369 96.6882 51.1664C98.4219 51.4757 100.331 51.6158 102.368 51.5786C106.462 51.5108 111.182 50.7479 116.784 49.2503C119.059 55.1417 121.343 60.5324 124.182 66.69C120.92 67.765 118.439 68.667 115.578 69.7101C113.962 70.2985 112.239 70.9262 110.206 71.6467C102.739 74.287 95.3834 77.4974 88.271 80.6036L87.9301 80.7557C70.4505 88.3874 55.0434 96.6449 40.8396 105.989C40.4766 105.262 40.4263 105.188 39.8253 104.303L39.6643 104.065C38.8924 102.932 38.3381 102.114 37.2317 100.627L37.4428 100.422C40.8515 97.1247 44.0719 94.0085 46.4729 88.6677C47.8038 85.7051 49.6569 78.777 48.134 75.411C47.7222 74.5032 47.0941 73.915 46.2648 73.6583C45.9944 73.5752 45.7081 73.5628 45.5155 73.5659C45.2845 73.57 45.0613 73.6007 44.9303 73.6476C43.6769 74.0861 43.2095 74.6692 41.9588 76.2253C41.6077 76.6613 41.19 77.1777 40.6767 77.7938C38.5091 80.3891 33.4996 86.0084 28.4747 90.6028C23.038 95.5783 16.8021 101.445 11.6068 108.103C6.86107 114.189 2.9131 122.907 0.134165 129.12C0.10213 129.193 0.06328 129.278 0.0289572 129.353C-0.19828 130.29 0.972536 130.808 1.42485 129.877C1.43076 129.867 1.43661 129.853 1.44113 129.844C4.87634 122.317 9.78293 112.569 16.5038 104.545C19.9056 100.484 24.0141 96.926 27.9892 93.4835C33.4945 88.7151 39.1856 83.7848 43.0932 77.4082C43.6423 76.676 44.324 75.7676 45.2308 75.7512C45.3669 75.7506 45.506 75.7675 45.5913 75.7767C47.0779 76.8625 47.3235 79.8682 46.2805 84.2401L46.2385 84.4188C45.391 88.1514 43.1883 91.3615 41.144 94.0087C38.2046 97.8162 36.9975 99.1759 34.6894 101.271C33.3379 102.317 32.7899 103.907 33.188 105.639C33.4949 106.969 34.7663 108.306 36.416 109.04C38.7056 110.301 41.555 110.884 45.1262 110.823C49.0298 110.754 53.3233 109.928 57.7455 109.017C67.3349 107.038 79.0491 102.452 89.9491 96.3824C90.3911 96.1643 90.8228 95.9436 91.5699 95.5286C92.2826 95.1394 93.0875 94.9135 93.836 94.9007C94.8891 94.8817 95.7335 95.2758 96.0414 95.9237C96.3933 96.6586 96.0771 97.6696 95.1546 98.7775C92.9522 101.411 89.4804 103.524 86.4207 105.39C85.7742 105.783 85.142 106.167 84.537 106.545C81.2274 108.625 77.699 110.485 74.288 112.285C70.9211 114.061 67.4378 115.898 64.1621 117.946C63.9111 118.103 63.8021 118.41 63.8888 118.705C63.9731 118.989 64.2113 119.176 64.4803 119.17L64.6803 119.135C69.32 117.568 73.5313 115.022 77.6029 112.561C79.0338 111.696 80.4656 110.833 81.9187 110.005L82.2383 109.818L82.014 110.079C81.5534 110.61 81.0946 111.142 80.6242 111.663C80.3051 112.021 80.0019 112.389 79.6987 112.758C79.0389 113.559 78.3558 114.387 77.516 115.041C77.2916 115.216 77.2102 115.504 77.3049 115.774C77.3939 116.026 77.6023 116.185 77.8341 116.179C77.9448 116.181 78.0545 116.14 78.1593 116.067C79.2444 115.294 80.1341 114.306 80.9921 113.348L81.3488 112.955C82.3898 111.804 84.0675 109.651 85.0389 108.201C86.2811 107.475 87.4144 106.78 88.4866 106.086C88.3877 106.261 88.292 106.437 88.1982 106.614C87.7502 107.441 87.2873 108.297 86.6118 109.138C84.9498 111.211 83.3747 112.703 80.9966 114.466C80.779 114.625 80.6946 114.901 80.7847 115.166C80.8676 115.41 81.0755 115.572 81.3051 115.568C81.4111 115.565 81.5176 115.529 81.6178 115.46C85.8857 112.443 88.6756 109.246 91.5486 103.967C93.9729 102.158 95.8835 100.369 97.3914 98.5037C97.8967 97.8733 98.4828 96.2188 98.279 94.954C98.1775 94.3384 97.9102 93.8887 97.4806 93.6098C96.7615 93.1523 95.9301 92.9257 95.0122 92.9413C94.03 92.9591 92.9493 93.2386 91.647 93.8133C91.715 93.7185 91.7787 93.6252 91.8471 93.5318C92.3606 92.8134 92.8473 92.1383 93.1367 91.2465C93.2659 90.8501 93.3156 90.4162 93.2608 90.0742C93.4256 89.9103 93.7789 89.7942 94.1242 89.7893C94.3649 89.7819 94.5646 89.8352 94.6753 89.927C94.9395 90.1485 95.0259 90.698 95.1018 91.186C95.1383 91.4167 95.1713 91.633 95.2223 91.7981C95.2999 92.0671 95.5487 92.2444 95.8352 92.2397C96.1153 92.2342 96.3411 92.0585 96.4093 91.7901C96.6953 90.6516 96.5383 89.1908 95.2308 88.5016C94.9858 88.371 94.6619 88.3081 94.2943 88.3114C93.8249 88.3204 93.3416 88.4459 92.9653 88.6521C92.638 87.9257 92.0967 87.3555 91.4304 87.033C91.186 86.9131 90.9117 86.8547 90.6173 86.859C89.3212 86.8831 87.887 88.1061 86.9366 88.9184L86.6105 89.1893C84.1454 91.2385 82.0077 93.6918 80.5922 96.1058C80.4723 96.31 80.4647 96.5341 80.571 96.7158C80.6871 96.9126 80.9163 97.0378 81.1566 97.0336C81.3644 97.0299 81.5494 96.9333 81.6794 96.7582C83.4681 94.3528 85.7679 92.1889 87.7836 90.3944C88.3972 89.8443 89.0719 89.3722 90.0388 88.8176C90.3318 88.648 90.5836 88.5608 90.7928 88.5566C91.0256 88.5535 91.2008 88.6524 91.3274 88.8658C91.7819 89.6194 91.4738 91.379 91.2099 91.8654L90.994 92.2577C90.7179 92.7715 90.4209 93.319 90.081 93.8317C89.7296 94.3561 89.3367 94.8995 89.2228 95.0582L88.5351 95.4527C85.9078 96.469 82.9374 97.7387 79.7897 99.0823C75.2455 101.019 70.0963 103.218 65.0629 105.049C63.5877 105.24 62.2833 105.343 61.0747 105.365C58.5848 105.408 56.3558 105.114 54.0605 104.44C53.2939 104.213 52.8535 104.077 52.4515 103.95C51.8809 103.769 51.3865 103.612 50.1566 103.272C50.0879 103.252 50.0216 103.244 49.9549 103.244C49.6591 103.249 49.4731 103.459 49.4412 103.662C49.4067 103.889 49.5386 104.087 49.7789 104.168L50.9446 104.564C54.6259 105.823 56.9374 106.611 60.3644 106.652C54.5518 108.491 49.7711 109.423 45.7749 109.492C41.6237 109.566 38.2781 108.672 35.8441 106.846C35.2456 106.334 34.8582 105.819 34.6292 105.229C34.2538 104.265 34.6655 103.346 34.9203 102.914C35.3994 102.423 35.8773 101.946 36.3516 101.482C36.7867 102.233 37.1199 102.788 37.4369 103.261C37.7256 103.692 37.9789 104.133 38.2359 104.585L38.492 105.034C38.9855 105.882 39.5082 106.73 39.9493 107.118C40.038 107.347 40.242 107.494 40.4711 107.489C40.5286 107.489 40.5859 107.48 40.762 107.416C57.7636 97.423 72.2118 89.8149 86.2375 83.4701C88.8445 82.2874 91.6558 81.082 95.2496 79.5592C98.0618 80.4109 101.101 81.1918 104.269 81.1379C104.792 81.1273 105.315 81.0949 105.844 81.0388C107.469 80.8637 108.097 80.1194 108.336 79.5255C108.738 78.5407 108.373 77.2263 107.363 76.0142C107.248 75.8757 107.09 75.8035 106.915 75.805C106.714 75.8096 106.508 75.9199 106.383 76.0931C106.264 76.2551 106.225 76.45 106.279 76.6341C106.519 77.4481 106.485 78.0735 106.18 78.4872C105.807 78.9929 105.036 79.2378 103.742 79.2596C103.264 79.2688 102.773 79.2466 102.312 79.2264C102.035 79.2139 101.768 79.2026 101.524 79.197C100.27 79.1758 99.0477 78.8953 97.865 78.6246L97.7029 78.5862C102.023 76.8306 106.368 75.1316 110.727 73.4246C112.596 72.6939 114.162 72.0977 115.643 71.5339C118.659 70.3864 121.264 69.3935 125.407 67.651L125.558 67.546C125.602 67.5076 125.637 67.4678 125.728 67.2936C125.782 67.1527 125.788 67.011 125.736 66.8787C123.377 60.5457 121.984 57.0184 118.462 48.7936C120.563 48.1982 122.751 47.5198 125.466 46.6127L126.816 46.7463C128.853 46.954 130.96 47.1697 133.051 47.1337C135.839 47.086 138.053 46.5768 139.821 45.576C140.077 45.4286 140.192 45.1518 140.114 44.8642C140.034 44.5698 139.777 44.369 139.49 44.3723Z" fill="#356799"/>
<path d="M143.412 30.665C148.446 32.6375 153.566 34.641 158.76 36.1834C160.039 36.4655 160.551 34.4943 159.21 33.9981C154.608 32.5141 150.085 30.8108 145.636 29.1284C133.473 24.531 120.898 19.7771 107.532 20.0081C106.997 20.0184 106.46 20.0352 105.91 20.0614C101.942 20.5657 96.5552 22.7803 91.1267 26.1371L90.1098 26.7664C87.5909 28.3199 86.2043 29.1747 83.5195 31.1977C82.9581 31.6213 81.6081 32.716 81.0202 33.3315C80.8375 33.5466 80.79 33.8032 80.8907 34.0224C80.9837 34.2241 81.193 34.3454 81.4295 34.3394C81.5776 34.3377 81.7271 34.2906 81.8834 34.1916C84.2943 32.4694 86.8747 30.7088 90.0055 28.6492C95.4664 25.0549 100.132 22.2254 106.235 21.2114C118.41 21.4159 128.33 24.858 139.118 28.9938C140.535 29.5382 141.969 30.1001 143.412 30.665Z" fill="#356799"/>
<path d="M153.88 65.8869C154.333 66.0229 154.788 66.1599 155.244 66.2963C156.405 66.5807 156.92 64.833 155.384 64.4103C154.772 64.2428 154.204 64.0891 153.731 63.9631C152.586 63.6623 151.456 63.3146 150.32 62.9688C147.771 62.1901 145.135 61.386 142.443 61.1219C143.063 60.5449 143.597 60.0082 144.076 59.4846C144.255 59.2862 144.296 59.0024 144.179 58.744C144.066 58.4967 143.838 58.3368 143.595 58.3419C143.478 58.3437 143.361 58.3825 143.254 58.4569C142.124 59.2338 141.008 60.029 139.892 60.8229C134.834 64.4232 129.605 68.1462 123.435 69.9379C123.109 70.0351 122.997 70.3235 123.032 70.5652C123.073 70.8221 123.282 71.0767 123.604 71.0707L123.746 71.051C129.816 69.5652 136.03 66.46 140.678 62.5723C144.443 63.057 149.025 64.4332 153.88 65.8869Z" fill="#356799"/>
<path d="M83.1221 48.7605C82.3629 48.9706 81.4413 49.2261 80.3853 49.5188C79.3418 49.8428 78.1784 50.2548 76.9047 50.7018C75.6401 51.1658 74.2432 51.6059 72.8204 52.2084C71.3875 52.7771 69.8954 53.4299 68.3402 54.0751C66.7884 54.7299 65.222 55.4905 63.6226 56.2408C62.0224 56.993 60.3991 57.7593 58.8105 58.5989C57.2115 59.4126 55.6129 60.2277 54.0377 61.0301C52.4885 61.8761 50.9619 62.7112 49.4864 63.5194C48.008 64.3192 46.5831 65.1037 45.2649 65.9054C43.9387 66.6929 42.6842 67.4369 41.5253 68.1215C39.2089 69.4902 37.3567 70.7541 36.0239 71.581C34.7016 72.4245 33.9455 72.9077 33.9455 72.9077C33.9281 72.9199 33.9218 72.9422 33.9332 72.9615C33.944 72.9795 33.9691 72.9847 33.987 72.9739C33.987 72.9739 34.7535 72.5072 36.0937 71.6932C37.4444 70.8957 39.3263 69.6727 41.6687 68.3569C44.0244 67.0613 46.7111 65.4467 49.7035 63.9183C51.19 63.1374 52.7266 62.3313 54.2877 61.5106C55.871 60.7364 57.4797 59.9503 59.0892 59.1624C60.6894 58.3607 62.3232 57.6294 63.9332 56.9142C65.5507 56.2118 67.1039 55.4403 68.6521 54.7929C70.1961 54.1376 71.7017 53.5328 73.1048 52.9093C74.504 52.2655 75.8759 51.7891 77.123 51.2877C78.3774 50.8118 79.5055 50.3159 80.5319 49.9468C81.5635 49.5882 82.46 49.2779 83.2001 49.0217C84.6761 48.4969 85.5237 48.1973 85.5237 48.1973C85.544 48.1888 85.5585 48.1682 85.5514 48.1475C85.5442 48.1267 85.5246 48.1149 85.5029 48.1193C85.5029 48.1193 84.6356 48.3529 83.1221 48.7605Z" fill="#356799"/>
<path d="M76.3623 70.7876C75.5072 71.1952 74.6052 71.6282 73.6728 72.0764C71.817 72.9945 69.862 74.0151 67.9395 75.0941C64.0671 77.1997 60.199 79.3085 57.3207 80.929C54.4339 82.5386 52.5085 83.6093 52.5085 83.6093C52.4906 83.6202 52.4835 83.6443 52.493 83.6627C52.5024 83.6812 52.5271 83.6897 52.545 83.6788L68.2306 75.6533C70.1853 74.6359 72.1765 73.702 74.0345 72.8126C75.8901 71.9209 77.5606 70.9508 79.0779 70.3125C82.0668 68.931 84.0306 67.9089 84.0306 67.9089C84.0495 67.9008 84.0609 67.8798 84.0542 67.8605C84.0465 67.8383 84.0246 67.8289 84.0025 67.8365C84.0053 67.8356 81.9155 68.5387 78.8259 69.7413C78.0516 70.0419 77.2146 70.3718 76.3623 70.7876Z" fill="#356799"/>
<path d="M100.471 68.6989C101.82 68.1996 103.236 67.6319 104.704 67.1595C107.625 66.2089 110.521 65.1956 112.673 64.3658C114.824 63.5374 116.231 62.8893 116.231 62.8893C116.246 62.8826 116.258 62.863 116.254 62.8441C116.25 62.8224 116.23 62.8092 116.208 62.8136C116.208 62.8136 114.696 63.1388 112.476 63.7708C111.37 64.1057 110.064 64.4521 108.706 64.9469C107.358 65.4647 105.921 66.0164 104.484 66.5681C103.04 67.0957 101.624 67.7268 100.291 68.2796C98.9661 68.862 97.6945 69.3238 96.6822 69.8771C94.6246 70.9192 93.2529 71.6155 93.2529 71.6155C93.2354 71.6231 93.225 71.6469 93.235 71.6667C93.2445 71.6851 93.2691 71.6936 93.2889 71.6836C93.2889 71.6836 94.692 71.0601 96.8036 70.1248C97.8447 69.6235 99.1375 69.2318 100.471 68.6989Z" fill="#356799"/>
<path d="M117.429 48.1506L121.286 57.3596C124.613 55.3714 128.668 51.1238 128.668 51.1238C134.931 49.8806 139.516 47.1303 140.13 45.0898C135.674 45.8094 127.26 46.0864 125.305 45.7593C121.706 46.001 117.429 48.1506 117.429 48.1506Z" fill="#356799"/>
<path d="M121.596 32.4707C118 32.3879 114.315 33.0241 114.315 33.0241C113.332 30.1852 111.687 26.4029 111.687 26.4029L109.052 27.4216L112.797 36.699L121.596 32.4707Z" fill="#356799"/>
<path d="M54.2883 104.539C51.8074 105.204 47.5337 110.057 47.5337 110.057C43.2702 111.726 34.5971 108.739 33.8057 105.334C33.0143 101.928 36.3516 101.482 36.3516 101.482C38.0143 103.269 41.0264 106.385 41.0264 106.385C44.1212 105.103 48.4504 102.259 48.4504 102.259C50.4324 103.509 54.2883 104.539 54.2883 104.539Z" fill="#356799"/>
<path d="M123.105 54.2598C124.542 58.4102 128.053 66.8773 128.053 66.8773C125.173 68.139 118.083 70.5218 118.083 70.5218C123.663 67.6221 125.736 66.8787 125.736 66.8787L120.99 56.541L123.105 54.2598Z" fill="#356799"/>
<path d="M39.1192 125.192C39.1192 125.192 32.2483 124.533 30.3664 123.975C30.5447 126.003 36.4586 130.498 36.4586 130.498C37.0282 128.658 39.1192 125.192 39.1192 125.192Z" fill="#356799"/>
<path d="M47.7096 76.6928C49.5481 74.4911 53.5767 79.1031 47.7596 89.1513C43.5932 96.351 34.9625 102.435 34.9625 102.435C39.0746 97.964 44.6403 92.6628 46.304 87.4095C47.967 82.1541 48.0483 80.8188 47.7096 76.6928Z" fill="#356799"/>
<path d="M89.2244 44.7544C85.7312 44.8759 87.7625 51.922 95.1694 52.8936C102.137 53.8083 114.439 50.4379 119.081 47.7453C106.563 50.8541 91.5165 53.3415 89.2244 44.7544Z" fill="#356799"/>
<path d="M91.7023 73.0742C91.524 72.7647 91.3013 72.3344 91.1247 72.0249C91.3215 71.9792 91.4414 71.969 91.558 72.0008C91.9986 72.1196 92.0903 72.6481 91.7023 73.0742ZM88.8515 70.9483C87.9516 70.9849 87.5476 70.0608 87.9664 69.3279C87.9755 69.3121 87.9859 69.2977 87.9953 69.2823C88.3144 69.8405 88.643 70.3928 88.9717 70.9391C88.9317 70.942 88.8916 70.9467 88.8515 70.9483ZM93.4486 76.0123C93.4615 75.9736 93.4491 75.9407 93.4254 75.9156C93.1712 75.5121 92.9238 75.1075 92.6803 74.7027C93.0967 74.2487 93.5046 73.756 93.6387 73.0197C93.8198 72.0293 93.1832 70.7415 92.2424 70.4243C91.5862 70.203 90.9039 70.4833 90.3358 70.6413C89.9011 69.8787 89.464 69.1176 89.0125 68.3606C89.4409 68.1255 89.918 67.9638 90.3589 67.8157C90.4272 67.7926 90.4255 67.7093 90.3799 67.6775C90.3259 67.5492 90.2735 67.4304 90.1963 67.2608C90.1281 67.1114 90.0474 66.9325 89.967 66.7874C89.9444 66.747 89.9157 66.7284 89.8869 66.7233C89.8774 66.7151 89.8692 66.7055 89.8535 66.7023C89.2849 66.5831 88.758 66.8672 88.2411 67.1392C88.0024 66.7592 87.7598 66.38 87.5092 66.003C87.4798 65.9586 87.4341 65.9607 87.4037 65.9844C87.4026 65.9847 87.4017 65.9842 87.4003 65.9848C87.0997 66.083 86.8373 66.3622 86.5736 66.5197C86.5613 66.5271 86.5508 66.5395 86.5433 66.5536C86.5244 66.5713 86.5129 66.5978 86.5275 66.6303C86.5292 66.6334 86.5308 66.6366 86.5321 66.6398C86.5342 66.6485 86.5371 66.6554 86.5429 66.6626C86.7344 67.0849 86.9964 67.4549 87.2126 67.8731C86.7346 68.2849 86.3647 68.6913 86.1995 69.4743C86.0176 70.4865 86.38 71.8806 87.78 72.5151C88.3684 72.7815 89.2052 72.5473 89.8103 72.4094C89.823 72.4062 89.8358 72.405 89.8486 72.4021C90.1264 72.8705 90.4015 73.3408 90.6749 73.8123C90.6411 73.8335 90.6069 73.853 90.5721 73.8697C90.0459 74.1192 89.501 74.1504 88.9292 74.1558C88.9247 74.156 88.9217 74.1579 88.9173 74.1583C88.897 74.1558 88.878 74.1656 88.8629 74.1833C88.8587 74.1875 88.8557 74.1922 88.8525 74.1969C88.8503 74.2009 88.8465 74.2019 88.8449 74.2069C88.8442 74.2089 88.8439 74.2108 88.8433 74.213C88.8406 74.2191 88.8392 74.2252 88.8378 74.2317C88.7751 74.4398 88.8407 74.5275 88.8729 74.7558C88.9242 75.1167 88.9458 75.4729 89.0806 75.8169C89.1036 75.8756 89.1577 75.8827 89.1958 75.8598C89.9405 76.119 90.9682 75.8115 91.6421 75.4652C91.8754 75.8564 92.1124 76.2448 92.3552 76.6287C92.3742 76.6588 92.4 76.6749 92.4266 76.6802C92.4497 76.6909 92.4768 76.6936 92.5044 76.6812C92.6751 76.6023 92.8437 76.4932 92.9993 76.3865C93.1253 76.3 93.2632 76.2151 93.3743 76.1066C93.413 76.0879 93.4416 76.0542 93.4486 76.0123Z" fill="#356799"/>
<path d="M77.7996 117.898L77.6306 117.923C63.8527 122.021 53.5872 123.835 44.3497 123.809C40.157 123.798 36.111 123.418 31.2288 122.581C31.1533 122.566 31.0844 122.563 31.0205 122.56C30.5956 122.559 30.417 122.826 30.3922 123.074C30.3542 123.433 30.5985 123.901 30.9784 123.985C33.1621 124.48 35.5621 124.856 38.1178 125.101C35.3641 130.029 33.0752 134.447 31.1798 138.901C30.9391 140.414 32.1837 140.396 32.6051 139.527C32.7119 139.252 32.7988 138.968 32.9089 138.694C34.7201 134.246 36.2549 130.916 37.8889 127.913C38.1306 127.468 39.0674 126.026 39.5382 125.224C41.2187 125.352 42.954 125.418 44.6985 125.422L44.6999 125.422C55.2724 125.451 66.5043 123.324 78.0823 119.094C78.3351 119.002 78.465 118.755 78.4149 118.471C78.3658 118.194 78.1324 117.9 77.7996 117.898Z" fill="#356799"/>
<path d="M84.3133 116.322C84.0564 116.322 83.8298 116.138 83.7464 115.864C83.6648 115.587 83.7633 115.315 84.0046 115.155C84.8051 114.631 85.6079 114.114 86.4093 113.602C88.5592 112.224 90.7805 110.801 92.8594 109.202C93.3454 108.826 93.8471 108.475 94.3438 108.122C95.1285 107.573 95.9374 107 96.6862 106.341C97.0922 105.984 97.2672 105.556 97.1454 105.226C97.0356 104.938 96.7113 104.766 96.2786 104.764C96.1013 104.763 95.9087 104.79 95.7031 104.844C94.6636 105.127 93.7419 105.572 92.98 105.97C92.8855 106.02 92.7897 106.047 92.6855 106.043C92.4175 106.042 92.1618 105.863 92.0603 105.6C91.9657 105.359 92.028 105.107 92.2217 104.929C93.1184 104.097 94.7536 103.13 96.4102 103.134C96.9365 103.134 97.4238 103.236 97.8591 103.438C98.4887 103.725 99.2266 104.39 99.3529 105.16C99.4311 105.629 99.2662 106.069 98.8788 106.436C94.8443 110.226 90.0297 113.054 85.3749 115.792L84.6249 116.231C84.5249 116.291 84.4188 116.32 84.3133 116.322Z" fill="#356799"/>
<path d="M140.502 45.0509L140.338 45.0719C138.93 45.4369 137.409 45.6054 135.547 45.6002C134.294 45.5967 133.013 45.5148 131.77 45.4361C130.518 45.3573 129.221 45.2762 127.945 45.2706C127.582 45.2711 127.222 45.2754 126.86 45.2882C126.58 45.296 126.291 45.3112 125.995 45.3334L125.803 45.3434L125.473 45.3844C123.359 45.6071 120.862 46.1654 118.447 46.7062C116.946 47.0422 115.452 47.3779 114.059 47.6317C112.979 47.827 111.987 48.0413 111.03 48.2475C108.908 48.7001 106.897 49.1318 104.418 49.2732C103.919 49.295 103.469 49.3237 103.039 49.3541C102.323 49.402 101.66 49.4448 100.893 49.4423C100.557 49.4417 100.199 49.4329 99.8067 49.4089C95.4448 49.2106 92.1187 46.9295 91.5356 44.9301C91.242 43.9124 91.6315 42.9933 92.5822 42.2984C104.092 41.8751 114.017 37.96 123.024 33.7969C123.261 33.6849 123.376 33.4371 123.313 33.1649C123.26 32.919 123.052 32.6707 122.765 32.6682L122.608 32.6916L121.034 33.2543C118.822 34.0479 116.619 34.8356 114.406 35.6091C113.409 32.8435 112.241 29.7725 110.516 26.0396C110.404 25.8114 110.196 25.68 109.944 25.6801L109.753 25.7023C104.316 26.9828 99.0211 28.6233 90.2152 31.7543C81.8038 34.7467 73.6048 38.2599 65.2473 41.8999C62.4116 43.1332 59.6023 44.3111 56.8255 45.4752C42.9561 51.2896 29.8597 56.782 18.2281 67.2689C17.9992 67.4764 17.9692 67.7791 18.1457 68.0126C19.5539 70.5064 20.5188 72.5816 21.539 74.7788C22.3233 76.4629 23.1335 78.2071 24.179 80.1997C26.136 83.9314 27.1701 85.7253 28.4163 87.8515C28.5189 88.0236 28.6706 88.1203 28.846 88.1204C29.0432 88.1212 29.2447 87.9991 29.375 87.8006C29.5104 87.5942 29.5376 87.3485 29.4503 87.1387C28.1886 84.1201 27.8154 83.451 26.8206 81.6645C26.4927 81.0772 26.096 80.369 25.5792 79.412C24.7304 77.841 24.0701 76.5681 23.431 75.3364C22.3167 73.1856 21.2653 71.1559 19.3827 67.8907C30.9084 58.7752 42.7559 53.7202 55.2962 48.3711C58.8201 46.867 62.4644 45.3126 66.1861 43.6331C75.7072 39.3375 83.5804 36.1772 90.9687 33.6822C93.4678 32.8397 101.311 30.1458 109.692 27.1774C110.783 30.0369 111.829 32.8801 112.979 36.0941L112.517 36.2532C111.014 36.7725 109.516 37.2915 107.987 37.7708C105.54 38.5372 102.879 38.9514 100.306 39.3524C97.438 39.7985 94.4737 40.2591 91.7878 41.2174C90.1627 41.962 89.3386 43.2588 89.5195 44.773C89.7967 47.0596 92.4513 49.9955 97.6259 51.0398C99.3552 51.3874 101.262 51.5679 103.299 51.5718C107.393 51.5867 112.121 50.9125 117.741 49.5143C119.94 55.5098 122.155 60.9999 124.915 67.2757C121.64 68.2947 119.148 69.1551 116.274 70.1501C114.652 70.7114 112.921 71.3101 110.88 71.9963C103.381 74.5104 95.9867 77.6025 88.8367 80.5942L88.494 80.7408C70.9221 88.0913 55.4142 96.116 41.0955 105.262C40.7418 104.521 40.6924 104.445 40.1029 103.539L39.9449 103.296C39.1877 102.136 38.6439 101.298 37.5567 99.7743L37.7703 99.5718C41.22 96.3114 44.4792 93.2302 46.9474 87.886C48.3156 84.9214 50.2563 77.9632 48.7766 74.5331C48.3764 73.608 47.756 73.0012 46.9301 72.7251C46.6608 72.6358 46.3748 72.6174 46.1823 72.6166C45.9513 72.616 45.7277 72.6425 45.5962 72.6872C44.3376 73.1044 43.8629 73.6838 42.5927 75.2296C42.2362 75.6627 41.812 76.1757 41.291 76.7874C39.091 79.364 34.0114 84.9363 28.9295 89.4734C23.4309 94.3869 17.1222 100.185 11.8437 106.802C7.02183 112.851 2.96411 121.573 0.106941 127.791C0.0739867 127.864 0.0340701 127.949 -0.00120195 128.025C-0.240288 128.966 0.923628 129.513 1.38766 128.582C1.39369 128.572 1.39972 128.558 1.40436 128.548C4.93432 121.018 9.9635 111.274 16.7846 103.308C20.2371 99.2773 24.3897 95.7677 28.4075 92.3725C33.9719 87.6694 39.7241 82.8067 43.7118 76.4472C44.27 75.719 44.9631 74.8156 45.8699 74.8175C46.0059 74.8197 46.1448 74.8396 46.2299 74.8506C47.7023 75.9774 47.9096 79.0175 46.8113 83.411L46.7671 83.5906C45.8724 87.3426 43.6295 90.5393 41.5521 93.1708C38.5651 96.9557 37.341 98.3042 35.0069 100.373C33.6425 101.402 33.0744 102.996 33.4504 104.753C33.7403 106.103 34.9944 107.478 36.6343 108.253C38.9072 109.574 41.7484 110.22 45.3195 110.231C49.2229 110.241 53.5258 109.495 57.9583 108.665C67.5703 106.862 79.3397 102.47 90.3138 96.5619C90.7585 96.3507 91.1929 96.1367 91.9451 95.7328C92.6626 95.3543 93.4701 95.1425 94.2185 95.1449C95.2716 95.1472 96.1107 95.5623 96.4103 96.2228C96.7528 96.9721 96.4238 97.9866 95.4875 99.0865C93.2522 101.701 89.7545 103.764 86.6718 105.586C86.0206 105.969 85.3837 106.345 84.7741 106.714C81.4388 108.747 77.8878 110.553 74.4548 112.301C71.0663 114.026 67.5606 115.811 64.2596 117.812C64.0067 117.965 63.8939 118.273 63.9768 118.573C64.0574 118.861 64.2933 119.055 64.5622 119.054L64.7627 119.023C69.421 117.535 73.6636 115.05 77.7653 112.648C79.2068 111.803 80.6492 110.961 82.1124 110.154L82.4344 109.972L82.2068 110.231C81.7395 110.758 81.2742 111.286 80.7972 111.802C80.4737 112.157 80.1659 112.523 79.8581 112.889C79.1882 113.685 78.4948 114.507 77.6469 115.15C77.4203 115.322 77.3353 115.612 77.4266 115.886C77.5124 116.143 77.7186 116.307 77.9505 116.306C78.0611 116.31 78.1713 116.271 78.277 116.199C79.3717 115.441 80.2736 114.462 81.1436 113.511L81.5052 113.122C82.5605 111.981 84.2652 109.841 85.2547 108.397C86.5058 107.689 87.6477 107.009 88.7284 106.331C88.6273 106.506 88.5294 106.681 88.4333 106.858C87.975 107.684 87.5014 108.539 86.8153 109.375C85.1274 111.434 83.5337 112.909 81.1339 114.641C80.9143 114.797 80.8265 115.074 80.9132 115.343C80.9929 115.591 81.1987 115.759 81.4283 115.76C81.5343 115.759 81.6413 115.724 81.7422 115.657C86.0474 112.697 88.8772 109.526 91.8165 104.253C94.2631 102.476 96.196 100.708 97.7271 98.8556C98.2403 98.2294 98.8473 96.5706 98.6596 95.2892C98.566 94.6656 98.3046 94.206 97.8786 93.9156C97.1655 93.4389 96.3372 93.1932 95.4193 93.1902C94.4371 93.1881 93.3532 93.4484 92.044 94.0022C92.1131 93.9079 92.178 93.8149 92.2475 93.722C92.7701 93.007 93.2653 92.3353 93.5658 91.4406C93.7001 91.043 93.7553 90.6058 93.7048 90.2593C93.8716 90.0972 94.2263 89.9871 94.5716 89.9892C94.8123 89.9867 95.0113 90.0445 95.1209 90.1395C95.3821 90.3686 95.4615 90.9252 95.5312 91.4196C95.5647 91.6532 95.595 91.8723 95.6439 92.0401C95.7181 92.3134 95.9645 92.4974 96.2511 92.4985C96.5311 92.4987 96.759 92.3258 96.8307 92.0562C97.1311 90.9123 96.9927 89.434 95.6943 88.7114C95.451 88.5746 95.128 88.5044 94.7605 88.5003C94.2911 88.4999 93.8064 88.6167 93.4275 88.8172C93.1095 88.0771 92.5756 87.4902 91.9136 87.151C91.6708 87.025 91.3973 86.9604 91.1029 86.9587C89.8069 86.9567 88.3575 88.1624 87.397 88.9634L87.0676 89.2303C84.5771 91.2493 82.4088 93.6832 80.963 96.092C80.8405 96.2957 80.8301 96.522 80.934 96.7076C81.0476 96.9087 81.2752 97.0397 81.5154 97.0405C81.7232 97.0409 81.9094 96.9471 82.0416 96.7729C83.8604 94.3805 86.1871 92.2421 88.225 90.4711C88.8455 89.9281 89.526 89.4651 90.4997 88.9247C90.7947 88.7595 91.0476 88.6766 91.2568 88.6766C91.4896 88.6781 91.6635 88.7816 91.7873 88.9996C92.2321 89.7699 91.9017 91.5405 91.6317 92.0263L91.4109 92.4181C91.1284 92.9313 90.8245 93.4781 90.4781 93.9889C90.1201 94.5113 89.7205 95.052 89.6045 95.21L88.9121 95.5943C86.2725 96.567 83.2868 97.7887 80.1229 99.0813C75.5552 100.945 70.3795 103.06 65.3242 104.806C63.847 104.969 62.5416 105.047 61.333 105.044C58.8432 105.038 56.6186 104.695 54.3325 103.967C53.569 103.722 53.1304 103.576 52.7302 103.439C52.162 103.246 51.6697 103.077 50.4445 102.709C50.376 102.687 50.3098 102.678 50.2432 102.676C49.9474 102.675 49.7588 102.883 49.7243 103.088C49.687 103.317 49.8163 103.519 50.0555 103.606L51.2159 104.029C54.8801 105.375 57.181 106.218 60.6066 106.329C54.7722 108.069 49.9809 108.912 45.9849 108.9C41.8339 108.89 38.5005 107.92 36.0904 106.026C35.4986 105.497 35.1178 104.969 34.8964 104.368C34.5333 103.387 34.9566 102.468 35.2168 102.037C35.7021 101.551 36.1859 101.079 36.666 100.619C37.0913 101.387 37.4174 101.954 37.7283 102.438C38.0115 102.88 38.2591 103.33 38.5103 103.791L38.7606 104.25C39.2432 105.117 39.755 105.983 40.191 106.384C40.2768 106.618 40.4789 106.77 40.708 106.769C40.7654 106.771 40.8228 106.763 40.9997 106.702C58.1238 96.9571 72.6648 89.5688 86.7674 83.4474C89.3887 82.3062 92.2146 81.1462 95.8268 79.6818C98.6274 80.599 101.655 81.4495 104.823 81.4596C105.346 81.4596 105.87 81.4375 106.399 81.3917C108.026 81.2479 108.664 80.5092 108.911 79.9143C109.324 78.928 108.976 77.5933 107.982 76.3487C107.869 76.2065 107.712 76.1304 107.537 76.1283C107.336 76.1289 107.128 76.236 107.001 76.4084C106.88 76.5696 106.838 76.7656 106.891 76.9526C107.12 77.7794 107.078 78.4103 106.768 78.8218C106.388 79.3249 105.615 79.5565 104.321 79.5522C103.843 79.5517 103.352 79.5193 102.891 79.4896C102.615 79.4712 102.348 79.4544 102.104 79.4438C100.85 79.3968 99.6323 79.0887 98.4533 78.7912L98.2918 78.7491C102.633 77.0643 106.998 75.4372 111.378 73.8023C113.256 73.1025 114.829 72.5323 116.317 71.9932C119.347 70.8958 121.963 69.9462 126.128 68.2711L126.28 68.1682C126.325 68.1302 126.359 68.0908 126.453 67.9167C126.508 67.7755 126.517 67.6325 126.467 67.4979C124.188 61.0547 122.841 57.4645 119.424 49.0872C121.532 48.5288 123.728 47.8884 126.454 47.0277L127.802 47.1901C129.835 47.4413 131.939 47.702 134.03 47.7083C136.818 47.7169 139.038 47.2478 140.818 46.2732C141.076 46.1296 141.194 45.8524 141.12 45.5604C141.044 45.2614 140.789 45.0535 140.502 45.0509Z" fill="#356799"/>
<path d="M144.597 31.2892C149.605 33.3836 154.698 35.511 159.871 37.1743C161.147 37.4853 161.684 35.5051 160.349 34.9767C155.767 33.3845 151.267 31.5723 146.84 29.7828C134.739 24.8925 122.228 19.8359 108.863 19.7969C108.328 19.7964 107.791 19.8024 107.241 19.8177C103.267 20.2461 97.8537 22.3727 92.384 25.6519L91.3594 26.2666C88.8214 27.784 87.4243 28.619 84.7145 30.6071C84.1479 31.0234 82.7843 32.1013 82.1888 32.711C82.0034 32.9244 81.9526 33.1825 82.0504 33.406C82.1409 33.6116 82.3486 33.7382 82.5851 33.737C82.7332 33.7383 82.8833 33.6938 83.0408 33.597C85.4729 31.9071 88.075 30.1817 91.2311 28.1657C96.7362 24.6475 101.437 21.8852 107.551 20.9856C119.72 21.4401 129.593 25.118 140.326 29.5141C141.736 30.0928 143.162 30.6893 144.597 31.2892Z" fill="#356799"/>
<path d="M154.615 67.0697C155.066 67.2162 155.519 67.3638 155.974 67.5108C157.131 67.8217 157.668 66.0674 156.138 65.6092C155.528 65.4276 154.962 65.2608 154.491 65.1239C153.35 64.7969 152.224 64.4227 151.093 64.0504C148.555 63.2121 145.93 62.3465 143.242 62.025C143.869 61.4549 144.41 60.9238 144.895 60.4049C145.077 60.2082 145.122 59.9224 145.008 59.6591C144.897 59.4071 144.672 59.241 144.429 59.2412C144.312 59.2406 144.195 59.2774 144.087 59.3504C142.947 60.1118 141.821 60.8921 140.695 61.671C135.593 65.2036 130.318 68.8566 124.127 70.5402C123.8 70.6317 123.684 70.9206 123.717 71.1654C123.754 71.4257 123.96 71.6871 124.282 71.6875L124.424 71.6706C130.511 70.2938 136.763 67.2848 141.459 63.4536C145.217 64.0197 149.78 65.5028 154.615 67.0697Z" fill="#356799"/>
<path d="M84.094 48.3341C83.3324 48.5308 82.4077 48.77 81.3483 49.044C80.3009 49.35 79.1326 49.7423 77.8536 50.1677C76.5834 50.6106 75.1813 51.0265 73.7512 51.6059C72.3115 52.1511 70.8115 52.7799 69.2485 53.3997C67.6888 54.0293 66.1132 54.7655 64.5047 55.4906C62.8953 56.2175 61.2628 56.9583 59.6639 57.7737C58.0549 58.5628 56.4464 59.3534 54.8615 60.1315C53.3019 60.9543 51.7651 61.7665 50.2797 62.5525C48.7915 63.3301 47.3571 64.0932 46.029 64.8759C44.6932 65.6441 43.4296 66.3699 42.2623 67.0376C39.9291 68.3726 38.0613 69.6111 36.7184 70.419C35.3857 71.2437 34.6237 71.7163 34.6237 71.7163C34.6061 71.7283 34.5996 71.7507 34.6107 71.7704C34.6213 71.7888 34.6463 71.7946 34.6643 71.784C34.6643 71.784 35.4365 71.3284 36.7868 70.5337C38.1472 69.7559 40.0442 68.5592 42.4027 67.2782C44.7742 66.0179 47.4807 64.4422 50.4917 62.9598C51.9877 62.2014 53.5342 61.4188 55.1053 60.6218C56.698 59.8723 58.3162 59.1113 59.9354 58.3484C61.5453 57.5714 63.188 56.8663 64.8066 56.1768C66.4325 55.5005 67.9952 54.753 69.5512 54.1308C71.1031 53.5006 72.616 52.9206 74.0267 52.3195C75.4337 51.6979 76.8113 51.2447 78.0644 50.7639C79.3245 50.3088 80.4586 49.8311 81.4894 49.4792C82.5253 49.1381 83.4255 48.843 84.1687 48.5994C85.651 48.0995 86.5021 47.8143 86.5021 47.8143C86.5225 47.8061 86.5373 47.7856 86.5304 47.7645C86.5235 47.7434 86.504 47.7311 86.4823 47.7351C86.4823 47.7351 85.6123 47.9533 84.094 48.3341Z" fill="#356799"/>
<path d="M89.2879 56.3505C90.1279 56.0736 90.8614 55.8332 91.4653 55.6337C92.6697 55.2249 93.3587 54.9897 93.3587 54.9897C93.3768 54.9838 93.3912 54.9619 93.3852 54.9436C93.3806 54.9202 93.3584 54.9088 93.3385 54.9138C93.3385 54.9138 92.6301 55.0805 91.3911 55.3698C90.1539 55.6741 88.3644 56.0534 86.2927 56.7356C85.2476 57.0673 84.1209 57.4273 82.93 57.8067C81.7367 58.1932 80.521 58.7085 79.2392 59.1817C77.9666 59.6689 76.6394 60.1585 75.3338 60.7516C74.0195 61.3226 72.6829 61.9009 71.3482 62.4802C68.7115 63.7153 66.0448 64.8822 63.6151 66.1243C61.1585 67.3127 58.9024 68.4932 56.9843 69.5363C55.0464 70.5423 53.4859 71.4745 52.376 72.0969C51.2704 72.7273 50.6386 73.0855 50.6386 73.0855C50.6191 73.0965 50.6131 73.1203 50.6242 73.1401C50.6334 73.1588 50.6588 73.1661 50.6769 73.1555C50.6769 73.1555 51.3189 72.8142 52.4412 72.2157C53.5653 71.6229 55.154 70.7345 57.1146 69.7834C59.0566 68.7947 61.3404 67.6847 63.8136 66.5422C66.2623 65.3531 68.9488 64.242 71.6002 63.066C74.2987 61.9914 76.9732 60.867 79.522 59.9225C82.0597 58.9395 84.4358 58.0594 86.4868 57.3373C87.5102 56.9675 88.4392 56.6007 89.2879 56.3505Z" fill="#356799"/>
<path d="M77.0561 70.4394C76.196 70.8335 75.2887 71.2524 74.3509 71.6861C72.4839 72.5753 70.5164 73.5661 68.5808 74.6166C64.6827 76.6639 60.7888 78.7146 57.8906 80.2924C54.9842 81.8589 53.0457 82.901 53.0457 82.901C53.0277 82.9115 53.0202 82.9358 53.0295 82.9546C53.0387 82.9734 53.0632 82.9825 53.0813 82.9719L68.8647 75.1872C70.8318 74.1996 72.8344 73.2971 74.7031 72.4368C76.5696 71.5742 78.2519 70.6286 79.7769 70.015C82.7826 68.6808 84.7589 67.6887 84.7589 67.6887C84.7779 67.6809 84.7895 67.6599 84.7831 67.6402C84.7757 67.6177 84.7539 67.6077 84.7317 67.615C84.7345 67.6141 82.6364 68.2816 79.5323 69.433C78.7543 69.7208 77.9134 70.0369 77.0561 70.4394Z" fill="#356799"/>
<path d="M101.185 68.8214C102.54 68.3447 103.963 67.8003 105.436 67.3532C108.369 66.4527 111.277 65.4884 113.438 64.6943C115.6 63.9016 117.015 63.2758 117.015 63.2758C117.03 63.2694 117.042 63.2499 117.039 63.2307C117.034 63.2087 117.015 63.1949 116.993 63.1989C116.993 63.1989 115.476 63.4965 113.249 64.0895C112.139 64.4051 110.83 64.7284 109.466 65.2003C108.111 65.6958 106.667 66.2236 105.223 66.7514C103.773 67.2548 102.35 67.8632 101.01 68.3943C99.6783 68.9554 98.4012 69.3958 97.3822 69.9339C95.3119 70.9444 93.9317 71.6196 93.9317 71.6196C93.9141 71.6269 93.9034 71.6507 93.9131 71.6708C93.9223 71.6896 93.9469 71.6987 93.9668 71.6891C93.9668 71.6891 95.3774 71.088 97.5004 70.1865C98.5475 69.7015 99.8449 69.3323 101.185 68.8214Z" fill="#356799"/>
<path d="M118.4 48.4169L122.138 57.7948C125.49 55.8549 129.597 51.6482 129.597 51.6482C135.875 50.5205 140.494 47.8365 141.133 45.7886C136.67 46.4245 128.254 46.5328 126.304 46.1626C122.703 46.3334 118.4 48.4169 118.4 48.4169Z" fill="#356799"/>
<path d="M122.765 32.6682C119.171 32.5113 115.478 33.0786 115.478 33.0786C114.532 30.1919 112.935 26.339 112.935 26.339L110.289 27.314L113.914 36.7587L122.765 32.6682Z" fill="#356799"/>
<path d="M54.559 104.072C52.0703 104.693 47.736 109.507 47.736 109.507C43.4524 111.106 34.8196 107.912 34.0718 104.457C33.3239 101.002 36.6663 100.62 36.6663 100.62C38.3058 102.459 41.2772 105.666 41.2772 105.666C44.3874 104.435 48.7516 101.651 48.7516 101.651C50.7172 102.954 54.559 104.072 54.559 104.072Z" fill="#356799"/>
<path d="M123.996 54.7017C125.38 58.922 128.783 67.5437 128.783 67.5437C125.887 68.7592 118.769 71.0209 118.769 71.0209C124.385 68.2064 126.467 67.4979 126.467 67.4979L121.853 56.9622L123.996 54.7017Z" fill="#356799"/>
<path d="M39.1314 124.618C39.1314 124.618 32.2708 123.814 30.3965 123.211C30.549 125.263 36.4041 129.923 36.4041 129.923C36.997 128.076 39.1314 124.618 39.1314 124.618Z" fill="#356799"/>
<path d="M48.336 75.8189C50.202 73.633 54.1709 78.3724 48.2276 88.4006C43.9708 95.586 35.2651 101.553 35.2651 101.553C39.433 97.1227 45.0645 91.883 46.7945 86.612C48.5239 81.339 48.6221 79.9923 48.336 75.8189Z" fill="#356799"/>
<path d="M90.2456 44.4129C86.7518 44.4645 88.693 51.621 96.0855 52.753C103.039 53.8186 115.381 50.6658 120.056 48.0413C107.502 50.9257 92.4279 53.1309 90.2456 44.4129Z" fill="#356799"/>
</g>
<defs>
<clipPath id="clip0_1689_172777">
<rect width="160" height="160" fill="white"/>
</clipPath>
</defs>
</svg>
