<svg width="160" height="160" viewBox="0 0 160 160" fill="none" xmlns="http://www.w3.org/2000/svg">
<path d="M71.3234 69.6505C68.9175 69.868 64.9902 70.9688 62.8136 69.395C62.4493 69.1316 62.123 69.7134 62.4585 69.9807C63.5278 70.8299 64.9745 70.9072 66.2914 70.9373C68.0199 70.978 69.9606 71.2846 71.4977 70.3332C71.7808 70.1589 71.7087 69.6151 71.3234 69.6505Z" fill="#356799"/>
<path d="M68.3757 73.386C67.389 73.3048 66.38 73.3782 65.3854 73.3782C65.2936 73.2733 65.1338 73.2353 64.9988 73.255L64.8416 73.2786C64.552 73.3244 64.5192 73.749 64.738 73.8932C64.7708 74.0176 64.835 74.1277 64.9818 74.1644C66.1074 74.4488 67.3589 74.5654 68.4688 74.167C68.8907 74.0137 68.8344 73.4214 68.3757 73.386Z" fill="#356799"/>
<path d="M78.2469 47.8885L78.2352 47.8396C78.2264 47.8032 78.2177 47.7668 78.209 47.7304C78.2257 47.7822 78.2383 47.8349 78.2469 47.8885ZM63.0873 30.6387C63.4126 31.8158 63.7431 32.9894 64.0764 34.1588C63.5344 33.6508 63.2087 33.0183 63.0681 32.352C62.9545 31.8139 62.9573 31.2282 63.0873 30.6387ZM75.0492 35.586C74.0975 31.9895 73.1315 28.3895 72.1175 24.788C74.0728 24.4585 76.1031 24.3336 78.0965 24.2178L78.1006 24.2176C78.9161 24.168 79.5357 23.6475 79.7841 22.9835C79.9449 22.5537 79.9556 22.0406 79.7626 21.573C79.6709 20.9212 79.5705 20.2799 79.4261 19.4159L79.4258 19.4144C79.4169 19.3609 79.4077 19.3064 79.3984 19.251C79.2624 18.4403 79.0926 17.4281 78.8761 16.5648L78.8749 16.5602C78.7573 16.0972 78.507 15.6758 78.1268 15.3765C78.0055 15.2451 77.8409 15.1064 77.6215 14.997C74.7616 13.567 71.6398 14.0177 68.9634 14.5792C68.383 12.7371 67.7849 10.891 67.1568 9.04286C66.9807 8.52319 66.5965 8.08375 66.0506 7.87401C65.6821 7.73244 65.3124 7.72286 64.9864 7.79083C63.9259 7.86756 62.918 8.21809 62.0823 8.54258C61.8073 8.64932 61.5545 8.75134 61.3172 8.84709C60.7295 9.08426 60.2369 9.28302 59.7387 9.42016L59.7387 9.42014L59.7314 9.42219C59.4386 9.5044 59.2011 9.64878 59.0189 9.80039C58.8298 9.93318 58.636 10.1199 58.4851 10.377C58.2643 10.7529 58.1948 11.1798 58.2579 11.5909C58.2662 11.6897 58.2833 11.7963 58.3139 11.9083C58.5288 13.1647 58.8495 14.3632 59.169 15.5049C59.2209 15.6902 59.2726 15.8737 59.3239 16.0558C59.4942 16.6599 59.66 17.2482 59.8124 17.838C57.0515 19.2468 54.6157 21.0402 52.6886 24.7338L52.678 24.7541L52.6681 24.7748C50.0689 30.1508 49.9457 38.5794 57.0083 44.2996L57.0088 44.2999C58.6665 45.6415 60.8323 46.2265 62.8486 46.519C64.5239 46.762 66.265 46.8221 67.7294 46.872C68.2626 48.7684 68.7884 50.6676 69.3088 52.5693C66.9197 52.79 64.5927 52.3116 61.9896 51.6452L61.9664 51.6392L61.943 51.634C61.895 51.6233 61.849 51.6156 61.8065 51.61C61.2551 51.4948 60.7635 51.6689 60.4394 51.8741C60.3695 51.9172 60.3141 51.9581 60.2755 51.988C60.2452 52.0088 60.212 52.0331 60.1776 52.0609C60.0663 52.1506 59.9604 52.2612 59.8691 52.3946C59.8552 52.4148 59.8428 52.434 59.8319 52.4513C59.7909 52.5117 59.7595 52.5649 59.7396 52.6005C59.3142 53.2842 59.1521 53.8765 59.0896 54.4774C59.0671 54.6936 59.0572 54.9207 59.049 55.1073C59.0474 55.1444 59.0458 55.1799 59.0443 55.2133C59.0339 55.4343 59.0208 55.6484 58.9896 55.8919L58.9894 55.8935C58.947 56.2288 58.8965 56.5779 58.8444 56.9386C58.6242 58.4622 58.3742 60.192 58.57 61.951C58.6347 62.533 58.9422 63.0801 59.4808 63.406C59.6958 63.5362 59.9222 63.6157 60.1474 63.6537C62.1463 64.8628 64.6018 65.3903 66.966 65.5422C68.9768 65.6714 71.0142 65.5347 72.8227 65.2535C73.3708 67.1449 73.9367 69.0317 74.5276 70.9104C74.6872 71.419 75.015 71.8292 75.4446 72.0868C75.8233 72.3473 76.3257 72.5052 76.8901 72.418L76.8987 72.4167L76.9074 72.4152C78.0364 72.2273 79.1656 71.8689 80.1387 71.5357L80.14 71.5353C80.2571 71.495 80.3847 71.4528 80.5202 71.4079C81.1173 71.2101 81.8676 70.9617 82.5501 70.6127C83.0462 70.4554 83.5317 70.118 83.8254 69.5703C84.2077 68.9339 84.154 68.264 83.9374 67.7595C83.3116 65.7544 82.7107 63.7506 82.1254 61.7473C84.6904 60.0933 87.363 58.011 89.083 54.4751C90.4303 51.7089 90.6382 48.2859 89.9416 45.1939C89.246 42.1065 87.5939 39.1201 84.9538 37.3867C83.1065 36.1736 81.0601 35.7477 79.1546 35.6071C77.8393 35.5101 76.4664 35.5475 75.2597 35.5803C75.1889 35.5822 75.1187 35.5841 75.0492 35.586ZM58.276 11.6887C58.276 11.6889 58.276 11.6889 58.276 11.6887L58.276 11.6887Z" fill="#356799" stroke="#356799" stroke-width="3"/>
<path d="M78.5784 49.417C78.087 47.5903 77.5353 45.0861 77.0531 43.262C78.142 43.3013 78.7802 43.4153 79.3424 43.739C81.4679 44.9551 81.1992 47.779 78.5784 49.417ZM66.7415 34.6212C62.0056 33.5624 61.2076 28.2867 64.422 25.1259C64.4915 25.0578 64.5662 24.9988 64.6369 24.9333C65.5097 28.2238 66.4401 31.4972 67.3796 34.7404C67.1673 34.6998 66.9524 34.6684 66.7415 34.6212ZM83.52 66.8284C83.6418 66.6489 83.6235 66.4642 83.5357 66.303C82.7822 63.8918 82.0654 61.4846 81.3696 59.0813C84.1778 57.3411 86.9965 55.3912 88.7341 51.819C91.0745 47.015 89.5793 39.5614 85.1305 36.6405C82.0274 34.6028 78.0804 35.089 74.9001 35.1087C73.7142 30.6153 72.5138 26.1258 71.2322 21.6376C73.7941 21.0309 76.5053 20.8658 79.0095 20.7203C79.3974 20.6968 79.5062 20.2696 79.3135 20.0442C79.2139 19.3143 79.1091 18.6355 78.9466 17.6632C78.8025 16.8061 78.6347 15.7814 78.4211 14.9296C78.3609 14.6925 78.2377 14.5575 78.0949 14.492C78.0569 14.4369 78.028 14.3766 77.9507 14.3386C75.1595 12.9431 72.0159 13.6638 68.9416 14.336C68.2353 12.0664 67.508 9.79545 66.7362 7.52451C66.6458 7.25718 66.4047 7.20477 66.2134 7.28339C66.2068 7.28339 66.2029 7.27946 66.195 7.28077C64.4915 7.36595 62.7316 8.42738 61.1368 8.86637C61.0621 8.88733 60.9901 8.93582 60.9311 8.99741C60.8079 9.06162 60.7109 9.18087 60.7411 9.36694C60.745 9.38529 60.7489 9.40364 60.7516 9.42198C60.7503 9.46916 60.7555 9.50847 60.7752 9.55302C61.1761 11.9734 62.0174 14.2246 62.5521 16.6581C59.4831 18.0982 56.9841 19.6602 55.0185 23.4277C52.6427 28.3417 52.5615 35.9578 58.9524 41.1339C61.6387 43.3079 66.3247 43.2712 69.6689 43.4049C69.7397 43.4062 69.8078 43.418 69.8786 43.4206C70.6635 46.196 71.4314 48.9767 72.1888 51.7613C71.9831 51.8229 71.7774 51.8754 71.5729 51.912C68.4817 52.4572 65.6014 51.8623 62.6176 51.0983C62.594 51.093 62.5757 51.0983 62.5521 51.0943C62.4499 51.0537 62.3372 51.0773 62.2336 51.1468C62.2061 51.1625 62.1838 51.1821 62.1603 51.2018C62.1432 51.2188 62.1223 51.2188 62.1065 51.2424C62.1 51.2516 62.0961 51.2608 62.0895 51.2713C62.0672 51.2988 62.0515 51.3276 62.0345 51.3591C61.4146 52.334 61.6322 52.8726 61.4775 54.0821C61.2351 55.9953 60.8446 57.843 61.0608 59.785C61.0975 60.1165 61.3688 60.2279 61.5994 60.1637C65.11 62.5172 70.8928 62.3704 74.8896 61.5357C75.5513 63.8551 76.2367 66.1654 76.9587 68.4612C77.0151 68.6408 77.1265 68.7587 77.2575 68.8229C77.3623 68.9094 77.4999 68.9605 77.6611 68.9356C78.661 68.7692 79.6922 68.4455 80.6528 68.1166C81.4312 67.8493 82.2685 67.6068 82.9997 67.2072C83.2277 67.1652 83.4243 67.0329 83.52 66.8284Z" fill="#FFC000"/>
<path fill-rule="evenodd" clip-rule="evenodd" d="M93.8513 76.3749C94.1499 75.9378 94.7447 75.8438 95.1797 76.1651C96.188 76.9096 97.7542 78.0992 99.1812 79.2525C99.8943 79.8288 100.58 80.4019 101.147 80.9093C101.693 81.3988 102.191 81.8813 102.477 82.2651C102.803 82.7023 102.731 83.317 102.315 83.6381C101.9 83.9591 101.3 83.8649 100.974 83.4276C100.825 83.2274 100.469 82.8663 99.9181 82.3726C99.3869 81.8969 98.7302 81.3475 98.0304 80.7819C96.6316 79.6514 95.0895 78.4801 94.0982 77.748C93.6631 77.4268 93.5526 76.812 93.8513 76.3749Z" fill="#FFC000"/>
<path fill-rule="evenodd" clip-rule="evenodd" d="M91.2948 79.0794C91.7512 79.0614 92.1649 79.4458 92.2188 79.938C92.3701 81.3186 93.9656 85.6266 99.4485 89.9546C99.8325 90.2577 99.939 90.8182 99.6865 91.2065C99.434 91.5948 98.918 91.6639 98.5341 91.3609C92.7587 86.802 90.7898 82.0446 90.5662 80.0034C90.5122 79.5112 90.8385 79.0975 91.2948 79.0794Z" fill="#FFC000"/>
<path fill-rule="evenodd" clip-rule="evenodd" d="M83.9294 81.104C84.369 81.3 84.5846 81.8211 84.4111 82.2679C83.8668 83.67 83.098 85.9501 82.5683 88.2089C82.3034 89.3384 82.1027 90.4441 82.0164 91.4215C81.9285 92.4175 81.9675 93.1993 82.1227 93.722C82.2626 94.1931 82.0101 94.6779 81.5588 94.8048C81.1075 94.9318 80.6282 94.6528 80.4883 94.1816C80.2337 93.3242 80.2176 92.2689 80.3123 91.1962C80.4086 90.1049 80.6282 88.9102 80.9043 87.7329C81.4566 85.3781 82.2524 83.019 82.8195 81.5583C82.993 81.1114 83.4899 80.9081 83.9294 81.104Z" fill="#FFC000"/>
<path fill-rule="evenodd" clip-rule="evenodd" d="M46.4481 25.8441C46.3951 26.327 45.9541 26.66 45.4631 26.5878C44.3252 26.4206 42.5433 26.134 40.8897 25.8168C40.0634 25.6582 39.2606 25.4904 38.5826 25.3244C37.9287 25.1642 37.317 24.9887 36.9197 24.8015C36.467 24.5882 36.2601 24.0593 36.4575 23.62C36.6549 23.1808 37.1819 22.9976 37.6346 23.2109C37.8418 23.3086 38.2856 23.4474 38.9452 23.6089C39.5807 23.7646 40.3498 23.9258 41.1607 24.0814C42.7816 24.3923 44.5361 24.6745 45.655 24.839C46.146 24.9111 46.5011 25.3611 46.4481 25.8441Z" fill="#FFC000"/>
<path fill-rule="evenodd" clip-rule="evenodd" d="M47.3492 22.545C46.9875 22.7568 46.4865 22.6242 46.2302 22.249C45.5113 21.1966 42.3584 18.3979 36.0496 17.2624C35.6078 17.1829 35.2794 16.7752 35.3161 16.3517C35.3528 15.9282 35.7407 15.6493 36.1825 15.7289C42.8278 16.9249 46.4771 19.9261 47.54 21.4821C47.7963 21.8573 47.7109 22.3332 47.3492 22.545Z" fill="#FFC000"/>
<path fill-rule="evenodd" clip-rule="evenodd" d="M52.4396 17.7274C51.9991 17.7586 51.5994 17.4299 51.5468 16.9932C51.3818 15.6229 51.0193 13.4447 50.4724 11.3871C50.1989 10.3582 49.8837 9.37623 49.5313 8.54761C49.1722 7.70325 48.8029 7.08718 48.4514 6.73102C48.1347 6.41001 48.1296 5.90842 48.4402 5.61067C48.7508 5.31293 49.2594 5.33179 49.5761 5.65279C50.1527 6.23701 50.6216 7.08448 51.0083 7.99391C51.4018 8.91908 51.7401 9.98116 52.0251 11.0536C52.5953 13.1987 52.9701 15.4525 53.142 16.8802C53.1945 17.3169 52.8801 17.6962 52.4396 17.7274Z" fill="#FFC000"/>
<path d="M102.24 41.4652C101.1 41.059 100.035 40.394 98.8373 39.5726L98.8175 39.5591L98.7973 39.5461C98.7654 39.5258 98.7341 39.5075 98.7042 39.4912C98.2584 39.2177 97.7783 39.2142 97.4414 39.2859C97.374 39.2997 97.3178 39.3155 97.2764 39.3284C97.2458 39.3365 97.2125 39.3464 97.1776 39.3583C97.0421 39.4044 96.9043 39.4724 96.7729 39.5672C96.7587 39.5775 96.7454 39.5874 96.7332 39.5967C96.6885 39.6293 96.6519 39.659 96.6267 39.6803C96.1564 40.0505 95.8821 40.4351 95.6818 40.8452C95.6128 40.9864 95.5492 41.1394 95.5038 41.2487C95.4953 41.2692 95.4874 41.2881 95.4802 41.3052C95.4276 41.4306 95.3792 41.5409 95.3169 41.6613L95.3161 41.6627C95.225 41.8391 95.1238 42.0266 95.0172 42.2242C94.5494 43.0913 93.9765 44.153 93.6894 45.3268C93.6893 45.3271 93.6892 45.3275 93.6892 45.3278L95.1463 45.6839M102.24 41.4652L94.4264 47.2378M102.24 41.4652C102.314 40.5651 102.387 39.6653 102.456 38.7657C101.667 38.4438 100.76 38.0606 99.916 37.6052C98.7403 36.971 97.4652 36.087 96.6894 34.7922L96.6891 34.7917C93.5442 29.5384 95.584 24.2343 98.4582 21.448L98.4747 21.432L98.4916 21.4166C100.423 19.6558 102.265 19.039 104.148 18.7613C104.169 18.5204 104.187 18.2759 104.207 18.0247C104.216 17.9034 104.225 17.7804 104.235 17.6556C104.293 16.9051 104.365 16.0996 104.514 15.2763C104.523 15.1847 104.54 15.1001 104.56 15.0228C104.638 14.6544 104.834 14.3078 105.146 14.0508C105.354 13.879 105.575 13.7789 105.775 13.7226C105.974 13.6544 106.216 13.6082 106.489 13.6292L106.497 13.6298L106.497 13.6298C106.794 13.6542 107.089 13.6444 107.477 13.6316C107.645 13.6261 107.831 13.6199 108.042 13.6158C108.613 13.6045 109.351 13.612 110.078 13.8138C110.369 13.8628 110.672 13.9875 110.938 14.219C111.35 14.579 111.542 15.0858 111.531 15.5832L102.24 41.4652ZM95.1463 45.6839C95.0955 45.8911 95.2339 46.0175 95.3865 46.0296M95.1463 45.6839C95.2359 45.3175 95.3568 44.9683 95.4975 44.6292C95.5103 44.5985 95.5232 44.5678 95.5363 44.5372L95.1463 45.6839ZM95.3865 46.0296L94.1741 46.9129C94.2549 47.0238 94.3391 47.1321 94.4264 47.2378M95.3865 46.0296L95.268 47.5249C94.9883 47.5028 94.6921 47.4119 94.4264 47.2378M95.3865 46.0296C96.9777 48.2138 100.482 49.3956 103.066 49.7721M94.4264 47.2378C95.4336 48.4584 96.8504 49.3355 98.2497 49.9516C99.3105 50.4187 100.426 50.7643 101.477 51.001M103.066 49.7721L101.57 49.6632C101.537 50.1089 101.506 50.5548 101.477 51.001M103.066 49.7721L102.849 51.2564C102.413 51.1927 101.951 51.108 101.477 51.001M103.066 49.7721C102.954 51.3102 102.858 52.848 102.787 54.3852L101.477 51.001M101.477 51.001C101.403 52.1046 101.34 53.2096 101.289 54.3155C101.267 54.782 101.412 55.2257 101.691 55.5764M101.477 51.001L101.691 55.5764M101.691 55.5764C101.933 55.9092 102.309 56.1949 102.811 56.2951L102.819 56.2969L102.828 56.2985C103.594 56.4423 104.388 56.4754 105.05 56.4891L105.052 56.4892C105.121 56.4905 105.199 56.493 105.285 56.4957C105.673 56.508 106.212 56.5251 106.736 56.4654C107.174 56.4739 107.657 56.3418 108.056 55.9908C108.566 55.5749 108.731 55.0015 108.713 54.518C108.771 53.3224 108.84 52.1312 108.917 50.9426C110.753 50.4988 112.769 49.7798 114.554 48.0572C116.076 46.5906 116.996 44.459 117.269 42.3529C117.542 40.2514 117.198 37.9418 115.886 36.1771C114.967 34.9406 113.741 34.1874 112.583 33.6647C111.896 33.3544 111.146 33.0921 110.478 32.8665C110.664 30.8402 110.843 28.8081 111.003 26.7672C112.019 26.9899 113.042 27.2943 114.07 27.6041L114.074 27.6053C114.79 27.8188 115.495 27.5656 115.922 27.0676C116.181 26.7653 116.349 26.3548 116.35 25.9151C116.434 25.5186 116.513 25.1205 116.611 24.5942L116.611 24.5927C116.618 24.5575 116.625 24.5215 116.631 24.4846C116.727 23.9723 116.851 23.307 116.913 22.7185L116.914 22.7138C116.954 22.3172 116.882 21.9001 116.668 21.5345C116.602 21.3888 116.505 21.227 116.358 21.0724C114.965 19.5968 113.066 19.0974 111.421 18.8303C111.467 17.7543 111.506 16.6726 111.531 15.5843C111.531 15.5846 111.531 15.585 111.531 15.5854L101.691 55.5764ZM110.67 14.0897L110.658 14.081C110.662 14.0834 110.664 14.0853 110.666 14.0865C110.667 14.0876 110.669 14.0889 110.67 14.0897Z" fill="#356799" stroke="#356799" stroke-width="3"/>
<path d="M31.8426 47.6548C31.3137 47.6873 30.7382 47.6608 30.077 47.6093L30.053 47.6075L30.029 47.6064C29.9999 47.605 29.9718 47.6046 29.9449 47.6049C29.4463 47.592 29.0505 47.8161 28.81 48.0299C28.7626 48.0717 28.7246 48.1102 28.6967 48.14C28.6767 48.1603 28.6558 48.1826 28.6344 48.207C28.5387 48.3162 28.4524 48.4463 28.386 48.597C28.3814 48.6075 28.3771 48.6176 28.3731 48.6272C28.3554 48.6676 28.3417 48.7028 28.3321 48.7292C28.1575 49.1702 28.1196 49.5553 28.145 49.9217C28.1534 50.0426 28.1702 50.1705 28.1801 50.2459C28.1818 50.2589 28.1833 50.2704 28.1845 50.28C28.1951 50.364 28.2019 50.4274 28.2051 50.4966L28.2051 50.4982C28.2106 50.6136 28.2141 50.7426 28.218 50.8824C28.236 51.5304 28.2605 52.4115 28.5042 53.2477L31.8426 47.6548ZM31.8426 47.6548C31.7416 47.4421 31.6405 47.2295 31.5392 47.017C31.0636 47.0775 30.5373 47.1324 30.0196 47.1474C29.1071 47.1738 27.9755 47.0912 26.9847 46.5404L26.9841 46.5401C23.1965 44.4325 22.5786 40.4534 23.3497 37.7447L23.356 37.7227L23.3629 37.7008C23.868 36.1124 24.666 35.1136 25.5742 34.3313C25.5621 34.306 25.5499 34.2805 25.5375 34.2549C25.5025 34.1818 25.4667 34.1073 25.4301 34.0308C25.2174 33.5858 24.9855 33.088 24.7909 32.5484C24.7606 32.4784 24.7371 32.4104 24.7188 32.3458C24.6118 32.0092 24.6088 31.632 24.7436 31.2715C24.8322 31.0345 24.9633 30.8494 25.0976 30.7093C25.2257 30.5644 25.3999 30.416 25.6299 30.3058L25.6367 30.3025L25.6368 30.3026C25.7871 30.2315 25.9194 30.1491 26.1194 30.0246C26.2167 29.964 26.3301 29.8934 26.4694 29.8093C26.7929 29.6139 27.2613 29.3458 27.8108 29.1996C28.067 29.1089 28.3665 29.0719 28.6856 29.1345C29.201 29.2357 29.5997 29.5647 29.8237 29.9743M31.8426 47.6548L33.482 37.1047M33.482 37.1047C33.9186 38.0257 34.3477 38.9469 34.7728 39.8669C35.1354 39.799 35.5232 39.735 35.8935 39.6981C36.7726 39.6104 37.8196 39.6323 38.8633 40.0835C40.3504 40.7263 41.3876 42.0547 41.9598 43.4289C42.5339 44.8073 42.7338 46.449 42.31 47.9217C41.8694 49.4555 41.0194 50.5456 40.1719 51.396C40.4633 51.9828 40.7585 52.5684 41.0593 53.1529C41.2886 53.5329 41.4157 54.0668 41.2037 54.6322C41.0493 55.0815 40.7398 55.4004 40.4037 55.5947C40.0923 55.821 39.7494 56.0041 39.5342 56.1191C39.4891 56.1432 39.4496 56.1643 39.4171 56.1822L39.416 56.1828C39.029 56.3957 38.5333 56.6562 38.0063 56.8414L37.998 56.8443L37.9897 56.8471C37.5399 56.9993 37.1035 56.9464 36.7536 56.7937C36.3672 56.639 36.047 56.3493 35.8505 55.9697L33.482 37.1047ZM33.482 37.1047C33.9419 36.9773 34.4198 36.8633 34.911 36.7478L34.915 36.7469C35.6006 36.5837 36.0619 36.0408 36.1766 35.4276C36.2426 35.0748 36.195 34.6791 36.0094 34.3288C35.9297 34.0852 35.8454 33.8389 35.7342 33.5233L35.7337 33.5218C35.7256 33.4988 35.7172 33.4751 35.7086 33.4506C35.5954 33.1297 35.4404 32.69 35.2729 32.3136L35.2709 32.3093C35.1267 31.988 34.8843 31.691 34.5499 31.4944C34.4292 31.4106 34.2779 31.3299 34.0939 31.2749C32.8415 30.9003 31.6256 31.1437 30.6302 31.4797C30.3666 30.9783 30.0983 30.4762 29.8237 29.9743M29.8237 29.9743C29.8241 29.9749 29.8244 29.9756 29.8248 29.9762L28.5078 30.6942L29.8237 29.9743ZM28.5045 53.2486C28.6415 53.7183 28.9837 54.1489 29.5066 54.3524C29.6502 54.4083 29.7942 54.442 29.9355 54.4569C30.9989 54.8371 32.1594 54.8623 33.1817 54.7506C33.8236 54.6805 34.4575 54.5512 35.0493 54.3884C35.3118 54.9169 35.5784 55.444 35.8501 55.969L28.5045 53.2486ZM28.4544 29.1433L28.4394 29.1416C28.4435 29.142 28.4468 29.1424 28.4489 29.1427C28.4527 29.1431 28.4578 29.1438 28.4544 29.1433Z" fill="#356799" stroke="#356799" stroke-width="3"/>
<path d="M108.982 42.3207C109.088 41.1159 109.307 39.491 109.418 38.2898C110.063 38.5525 110.421 38.7611 110.688 39.079C111.697 40.2759 110.916 41.9127 108.982 42.3207ZM105.124 30.8366C102.512 29.1608 103.192 25.8175 105.816 24.6255C105.873 24.5998 105.93 24.5808 105.987 24.557C105.789 26.7245 105.629 28.8945 105.481 31.0483C105.362 30.9773 105.24 30.9112 105.124 30.8366ZM108.126 53.8612C108.238 53.7802 108.268 53.6652 108.251 53.5491C108.328 51.9358 108.426 50.3329 108.536 48.7369C110.604 48.3087 112.725 47.7568 114.553 45.9933C117.013 43.6226 117.752 38.8185 115.722 36.0875C114.307 34.1825 111.83 33.6076 109.916 32.921C110.19 29.9623 110.455 27.0029 110.671 24.0264C112.343 24.2246 114.007 24.7209 115.543 25.1835C115.781 25.2545 115.94 25.0219 115.874 24.8442C115.975 24.3841 116.061 23.9534 116.177 23.3339C116.278 22.7876 116.403 22.1354 116.461 21.5771C116.477 21.4214 116.433 21.3133 116.362 21.2426C116.351 21.2012 116.347 21.1587 116.309 21.1189C114.939 19.6679 112.893 19.4103 110.9 19.1388C110.974 17.6209 111.036 16.0975 111.071 14.5643C111.075 14.3839 110.942 14.2995 110.81 14.3047C110.806 14.3033 110.805 14.3 110.8 14.2991C109.758 13.9761 108.468 14.227 107.414 14.1404C107.365 14.1366 107.311 14.1499 107.262 14.1739C107.174 14.1854 107.089 14.2357 107.066 14.3541C107.065 14.366 107.063 14.3779 107.061 14.3894C107.05 14.4175 107.044 14.4422 107.046 14.4733C106.755 16.0147 106.766 17.5514 106.553 19.13C104.394 19.3208 102.55 19.71 100.542 21.5406C98.0365 23.9697 96.3152 28.5252 99.0161 33.0369C100.152 34.9322 102.974 35.9393 104.953 36.7539C104.995 36.7703 105.033 36.7923 105.075 36.8094C104.937 38.6484 104.787 40.4868 104.631 42.3253C104.493 42.3171 104.358 42.3034 104.228 42.2805C102.252 41.929 100.653 40.9392 99.0288 39.8252C99.0158 39.8169 99.0036 39.816 98.9903 39.8085C98.9379 39.7616 98.865 39.751 98.7876 39.77C98.7676 39.7734 98.7499 39.7803 98.7314 39.7869C98.7175 39.7934 98.7049 39.7888 98.6902 39.7995C98.6843 39.8036 98.6799 39.8082 98.6737 39.8131C98.6543 39.8247 98.6385 39.8386 98.6214 39.8537C98.0351 40.3031 98.0474 40.6742 97.6889 41.3666C97.1232 42.4622 96.483 43.4859 96.1863 44.6996C96.1355 44.9067 96.274 45.0332 96.4266 45.0452C98.0178 47.2294 101.523 48.4113 104.106 48.7877C103.994 50.3258 103.898 51.8636 103.827 53.4008C103.822 53.521 103.863 53.6163 103.927 53.6836C103.971 53.7585 104.043 53.8194 104.145 53.8399C104.782 53.9595 105.472 53.9916 106.121 54.0051C106.647 54.0155 107.203 54.0538 107.73 53.9744C107.876 53.9993 108.024 53.963 108.126 53.8612Z" fill="#FFC000"/>
<path d="M36.7431 46.3483C36.4062 45.6247 35.995 44.6239 35.6621 43.9008C36.1176 43.838 36.3911 43.8391 36.6483 43.9328C37.6201 44.2838 37.7135 45.4771 36.7431 46.3483ZM30.7485 41.0581C28.7031 40.962 27.9883 38.8271 29.0948 37.2799C29.1187 37.2465 29.1455 37.2166 29.1701 37.1842C29.7719 38.4885 30.3963 39.7815 31.0224 41.0614C30.9312 41.0599 30.8396 41.0624 30.7485 41.0581ZM40.0617 53.2265C40.0993 53.143 40.0783 53.0675 40.0301 53.0069C39.5418 52.0594 39.069 51.1109 38.6052 50.1625C39.6461 49.2353 40.676 48.2201 41.1388 46.6091C41.7627 44.4423 40.5999 41.4528 38.5385 40.5619C37.1008 39.9403 35.4955 40.429 34.175 40.6682C33.3557 38.8866 32.5308 37.1078 31.6721 35.3354C32.6929 34.8971 33.8078 34.6316 34.8381 34.3892C34.9976 34.3512 35.0118 34.1658 34.9153 34.0861C34.8209 33.7899 34.7281 33.5154 34.5899 33.1231C34.4677 32.7773 34.3236 32.3636 34.173 32.025C34.1307 31.9308 34.0697 31.8837 34.0055 31.8668C33.9858 31.8467 33.9694 31.8237 33.9345 31.8136C32.673 31.4362 31.4187 31.9641 30.1897 32.4668C29.7313 31.5747 29.264 30.6836 28.7783 29.7958C28.7213 29.6912 28.6173 29.687 28.5434 29.7335C28.5407 29.734 28.5388 29.7327 28.5356 29.7338C27.8337 29.8929 27.1793 30.4619 26.5484 30.7602C26.5188 30.7744 26.4924 30.7997 26.4724 30.8296C26.4258 30.8653 26.3942 30.9219 26.4202 30.997C26.4232 31.0044 26.4262 31.0117 26.4286 31.0191C26.4315 31.0388 26.4365 31.0548 26.4479 31.0719C26.7904 32.0488 27.3035 32.9234 27.7025 33.896C26.5315 34.7175 25.6062 35.5483 25.0629 37.257C24.4323 39.4721 24.9517 42.6436 27.984 44.3309C29.2585 45.0394 31.2035 44.6838 32.6033 44.4965C32.6328 44.4919 32.6619 44.4918 32.6915 44.4878C33.2194 45.5844 33.7405 46.6844 34.2576 47.7868C34.1766 47.8273 34.0948 47.8641 34.0125 47.8942C32.7673 48.3453 31.5269 48.3072 30.2311 48.2064C30.221 48.2059 30.2137 48.2094 30.2036 48.2095C30.1582 48.2 30.1131 48.218 30.0751 48.2544C30.0648 48.2629 30.057 48.2727 30.0486 48.2826C30.0427 48.2909 30.034 48.2924 30.0292 48.3034C30.0271 48.3077 30.0262 48.3118 30.0242 48.3166C30.0169 48.3297 30.0125 48.3428 30.0077 48.3571C29.8209 48.8074 29.9504 49.0154 29.974 49.5294C30.0122 50.3422 29.9841 51.1386 30.215 51.9301C30.2543 52.0652 30.3752 52.0918 30.4664 52.0484C32.0965 52.7716 34.4895 52.2906 36.0901 51.6534C36.5336 52.5694 36.9863 53.4798 37.4531 54.3817C37.4896 54.4522 37.5444 54.4931 37.6036 54.5103C37.6534 54.5386 37.7143 54.5499 37.7795 54.5278C38.183 54.386 38.5882 54.1766 38.9635 53.9701C39.2676 53.8025 39.5981 53.6409 39.873 53.4217C39.9647 53.3877 40.0368 53.3184 40.0617 53.2265Z" fill="#FFC000"/>
<path d="M94.0749 139.232C96.8438 135.617 100.425 132.593 103.603 129.326C106.398 126.455 109.77 123.246 112.185 119.99C108.613 113.85 111.461 103.128 114.475 96.2134C116.373 89.8579 118 79.7337 116.165 69.7418C115.904 68.3266 113.744 64.7819 114.762 63.06C114.737 62.9749 114.709 62.8884 114.73 62.794C115.822 57.4921 123.355 61.9855 125.56 63.7336C132.655 69.3539 130.992 79.8556 129.778 87.4966C129.704 87.9565 128.992 87.8438 128.986 87.4009C128.893 81.318 130.283 77.1247 128.446 71.0732C127.214 67.0253 120.286 58.4998 115.809 63.1256C115.807 63.1308 115.809 63.1347 115.807 63.1387C115.211 63.9708 117.265 68.3082 117.578 69.329C118.618 72.7099 118.673 76.2244 118.889 79.718C119.321 86.6776 117.504 90.7438 115.366 97.2578C115.313 97.419 114.563 99.3584 114.333 100.257C112.659 106.756 112.397 113.584 113.455 120.212C113.5 120.486 108.745 127.188 106.98 129.196C103.522 133.136 99.5341 137.734 94.7537 140.083C94.1719 140.368 93.6962 139.728 94.0749 139.232Z" fill="#356799"/>
<path d="M132.397 110.533C135.322 106.338 139.658 102.46 144.229 100.895C148.319 99.4911 153.412 99.2513 157.008 101.935C157.992 97.7797 157.282 92.7582 152.5 91.3089C149.524 90.406 144.984 91.8973 142.459 93.0871C139.728 94.3779 125.405 109.294 132.397 110.533ZM136.221 83.5997C139.462 80.992 144.897 77.8313 149.317 78.9753C155.083 80.4731 156.189 84.2379 155.866 89.6578C155.834 90.1806 155.112 90.1885 155.061 89.6709C154.415 83.3232 151.204 78.1209 143.375 81.9499C140.833 83.1909 138.818 84.6192 136.477 86.269C130.839 90.2344 122.827 99.9576 130.01 102.858C132.475 98.0274 136.876 93.8734 141.396 91.3325C145.469 89.0419 151.514 88.3814 155.622 90.7454C159.533 92.9954 159.562 99.1307 157.99 102.844C160.312 105.557 159.438 109.808 158.097 113.064C158.619 113.65 159.079 114.318 159.444 115.098C161.067 118.586 157.367 122.982 155.542 125.546C152.742 129.482 148.394 132.487 144.114 134.579C142.512 135.358 139.489 136.446 137.239 136.306C136.764 136.818 135.953 138.146 135.811 138.392C134.965 139.845 133.738 141.274 132.733 142.643C131.328 144.555 130.191 147.206 128.128 148.502C127.734 148.749 127.274 148.282 127.494 147.887C129.108 144.977 131.141 142.42 132.943 139.617C133.654 138.51 134.594 137.412 135.536 136.502C135.681 136.362 135.797 136.201 135.912 136.042C135.901 136.037 135.888 136.037 135.878 136.032C135.141 135.717 135.687 134.719 136.364 134.824C139.723 135.333 144.473 132.415 147.081 130.775C151.419 128.046 154.997 123.828 157.196 119.232C161.942 109.305 145.794 112.386 141.965 114.541C139.812 115.751 137.744 117.56 136.264 119.544C134.667 121.502 134.991 125.691 139.484 124.571C141.468 124.059 143.208 122.619 144.741 121.351C145.198 120.97 145.808 121.535 145.41 121.999C143.139 124.647 140.728 126.555 137.137 126.623C134.554 126.672 133.332 124.33 133.408 122.155C133.678 114.459 144.723 110.664 150.781 110.328C153.27 110.189 155.547 110.83 157.279 112.278C158.112 109.703 158.378 107.23 156.922 104.109C155.263 100.556 149.1 101.572 146.157 102.281C141.264 103.463 126.033 116.343 132.792 120.726C133.23 121.011 132.819 121.76 132.29 121.623C128.553 120.642 129.127 116.317 130.524 113.583C130.831 112.982 131.181 112.378 131.555 111.779C129.006 111.843 127.709 109.883 128.474 106.857C128.73 105.849 129.091 104.859 129.518 103.889C126.186 103.739 124.884 100.992 125.29 97.9894C126.127 91.8331 131.737 87.2112 136.221 83.5997Z" fill="#356799"/>
<path d="M151.086 135.673C154.363 134.666 156.945 132.418 159.3 130.066C159.68 129.684 160.237 130.237 159.892 130.638C157.65 133.249 155.347 134.674 152.488 136.556C150.951 137.566 148.532 137.994 146.851 138.809C146.075 139.182 145.451 139.193 144.634 139.072C144.269 139.018 144.189 138.434 144.517 138.275C146.636 137.262 148.84 136.363 151.086 135.673Z" fill="#356799"/>
<path d="M152.501 139.16C154.059 138.514 155.406 137.737 156.655 136.589C157.073 136.202 157.692 136.787 157.292 137.208C156.003 138.556 154.504 139.647 152.612 139.893C152.161 139.95 152.146 139.306 152.501 139.16Z" fill="#356799"/>
<path d="M136.617 134.88C134.037 134.451 127.751 134.061 123.657 127.483C122.829 126.343 123.199 137.048 133.873 138.914C136.383 136.602 136.617 134.88 136.617 134.88Z" fill="#356799"/>
<path d="M126.421 97.3125C124.108 100.676 123.39 105.011 126.666 106.485C125.009 110.734 126.258 113.939 129.206 114.594C126.34 120.245 128.946 123.712 131.908 124.504C131.335 127.042 133.55 129.575 138.215 128.435C142.88 127.295 145.409 122.002 145.409 122.002C140.344 125.978 135.506 127.483 134.365 121.473C131.827 120.49 128.842 118.262 132.675 111.527C130.498 110.697 128.218 108.003 130.706 103.443C128.528 103.027 124.762 102.494 126.421 97.3125Z" fill="#356799"/>
<path d="M65.9251 139.232C63.1562 135.617 59.5748 132.593 56.3971 129.326C53.602 126.455 50.2303 123.246 47.8152 119.99C51.3874 113.85 48.5386 103.128 45.5246 96.2134C43.6271 89.8579 41.9996 79.7337 43.8355 69.7418C44.0963 68.3266 46.2558 64.7819 45.2376 63.06C45.2625 62.9749 45.2914 62.8884 45.2704 62.794C44.1775 57.4921 36.6453 61.9855 34.4398 63.7336C27.3453 69.3539 29.0082 79.8556 30.2216 87.4966C30.2963 87.9565 31.0079 87.8438 31.0144 87.4009C31.1075 81.318 29.7171 77.1247 31.5543 71.0732C32.7861 67.0253 39.7142 58.4998 44.1906 63.1256C44.1932 63.1308 44.1906 63.1347 44.1932 63.1387C44.7895 63.9708 42.7347 68.3082 42.4216 69.329C41.3824 72.7099 41.3274 76.2244 41.1111 79.718C40.6787 86.6776 42.4963 90.7438 44.6335 97.2578C44.6873 97.419 45.4368 99.3584 45.6674 100.257C47.3408 106.756 47.6029 113.584 46.5454 120.212C46.4996 120.486 51.255 127.188 53.0202 129.196C56.4783 133.136 60.4659 137.734 65.2463 140.083C65.8281 140.368 66.3038 139.728 65.9251 139.232Z" fill="#356799"/>
<path d="M27.6026 110.533C24.6778 106.338 20.3416 102.46 15.7709 100.895C11.6811 99.4911 6.58753 99.2513 2.99177 101.935C2.00765 97.7797 2.71789 92.7582 7.49958 91.3089C10.4755 90.406 15.0161 91.8973 17.5413 93.0871C20.2722 94.3779 34.5949 109.294 27.6026 110.533ZM23.7788 83.5997C20.5382 80.992 15.1026 77.8313 10.6826 78.9753C4.91676 80.4731 3.81077 84.2379 4.13444 89.6578C4.16589 90.1806 4.88793 90.1885 4.93904 89.6709C5.58507 83.3232 8.79558 78.1209 16.6253 81.9499C19.1675 83.1909 21.1816 84.6192 23.5233 86.269C29.1607 90.2344 37.1725 99.9576 29.9902 102.858C27.5253 98.0274 23.1236 93.8734 18.604 91.3325C14.5312 89.0419 8.48632 88.3814 4.37818 90.7454C0.466607 92.9954 0.437776 99.1307 2.01027 102.844C-0.311779 105.557 0.562267 109.808 1.90282 113.064C1.38127 113.65 0.921319 114.318 0.555715 115.098C-1.06657 118.586 2.63271 122.982 4.45812 125.546C7.25846 129.482 11.6064 132.487 15.8862 134.579C17.4875 135.358 20.5106 136.446 22.7606 136.306C23.2363 136.818 24.0474 138.146 24.189 138.392C25.0355 139.845 26.262 141.274 27.2671 142.643C28.6719 144.555 29.8093 147.206 31.8719 148.502C32.2663 148.749 32.7263 148.282 32.5061 147.887C30.8917 144.977 28.8593 142.42 27.0575 139.617C26.3459 138.51 25.4063 137.412 24.4642 136.502C24.3187 136.362 24.2034 136.201 24.0881 136.042C24.0986 136.037 24.1117 136.037 24.1221 136.032C24.8586 135.717 24.3135 134.719 23.636 134.824C20.2774 135.333 15.5272 132.415 12.9194 130.775C8.58067 128.046 5.00325 123.828 2.80438 119.232C-1.94193 109.305 14.2063 112.386 18.0353 114.541C20.1883 115.751 22.2561 117.56 23.7356 119.544C25.333 121.502 25.0093 125.691 20.5159 124.571C18.5319 124.059 16.7917 122.619 15.2585 121.351C14.8025 120.97 14.1918 121.535 14.5902 121.999C16.8612 124.647 19.2723 126.555 22.8628 126.623C25.4457 126.672 26.6683 124.33 26.5923 122.155C26.3223 114.459 15.2769 110.664 9.21884 110.328C6.73037 110.189 4.45287 110.83 2.72051 112.278C1.8884 109.703 1.62239 107.23 3.07825 104.109C4.73723 100.556 10.9001 101.572 13.8433 102.281C18.7364 103.463 33.9673 116.343 27.2082 120.726C26.7705 121.011 27.1806 121.76 27.71 121.623C31.4473 120.642 30.8734 116.317 29.4765 113.583C29.1685 112.982 28.8187 112.378 28.4452 111.779C30.9939 111.843 32.2912 109.883 31.526 106.857C31.2704 105.849 30.9088 104.859 30.4816 103.889C33.8139 103.739 35.1165 100.992 34.7103 97.9894C33.8729 91.8331 28.263 87.2112 23.7788 83.5997Z" fill="#356799"/>
<path d="M8.914 135.673C5.63666 134.666 3.05515 132.418 0.700343 130.066C0.320324 129.684 -0.2366 130.237 0.108038 130.638C2.35015 133.249 4.65254 134.674 7.51186 136.556C9.04897 137.566 11.468 137.994 13.1492 138.809C13.925 139.182 14.5488 139.193 15.3665 139.072C15.7308 139.018 15.8107 138.434 15.4831 138.275C13.3642 137.262 11.16 136.363 8.914 135.673Z" fill="#356799"/>
<path d="M7.49901 139.16C5.94119 138.514 4.59374 137.737 3.34531 136.589C2.92708 136.202 2.30787 136.787 2.70811 137.208C3.99661 138.556 5.49631 139.647 7.3884 139.893C7.83943 139.95 7.85407 139.306 7.49901 139.16Z" fill="#356799"/>
<path d="M23.3828 134.88C25.963 134.451 32.2491 134.061 36.3428 127.483C37.171 126.343 36.8014 137.048 26.1268 138.914C23.6174 136.602 23.3828 134.88 23.3828 134.88Z" fill="#356799"/>
<path d="M33.5787 97.3125C35.8915 100.676 36.6097 105.011 33.3336 106.485C34.9913 110.734 33.7425 113.939 30.794 114.594C33.6599 120.245 31.0535 123.712 28.092 124.504C28.6646 127.042 26.45 129.575 21.785 128.435C17.1199 127.295 14.5908 122.002 14.5908 122.002C19.6556 125.978 24.4936 127.483 25.635 121.473C28.1732 120.49 31.1583 118.262 27.3254 111.527C29.502 110.697 31.7821 108.003 29.2936 103.443C31.4715 103.027 35.2377 102.494 33.5787 97.3125Z" fill="#356799"/>
</svg>
