<svg width="161" height="161" viewBox="0 0 161 161" fill="none" xmlns="http://www.w3.org/2000/svg">
<path d="M14.2498 99.5004L15.4998 102C20.4998 88.2504 29.2498 98.2504 27.9998 109.5L59.2498 112C60.4998 84.5004 75.4998 93.2504 74.2498 114.5H150.5C151.493 110.909 151.577 108.767 150.5 104.5H149.25V80.7504C147.609 72.289 145.191 68.2066 135.5 63.2504V55.7504C134.172 54.5221 133.077 54.541 131.75 55.7504L129.25 42.0004C123.169 35.6377 119.617 34.3751 113 34.5004H64.2498L60.4998 38.2504L59.2498 87.0004L10.4998 84.5004L9.24979 93.2504H15.4998L14.2498 99.5004Z" fill="#FFC000"/>
<path d="M113.67 87.7142C118.075 87.4554 122.35 87.4467 126.765 87.5667C131.282 87.6879 135.907 87.3929 140.401 87.7654C140.622 87.7842 140.552 88.0229 140.37 88.0479C135.935 88.6341 131.3 88.4629 126.818 88.4929C122.415 88.5216 117.968 88.5979 113.63 88.0779C113.358 88.0467 113.415 87.7292 113.67 87.7142Z" fill="#356799" stroke="#356799"/>
<path d="M113.67 91.8782C118.075 91.6195 122.35 91.6107 126.765 91.7307C131.282 91.852 135.907 91.557 140.401 91.9295C140.622 91.9482 140.552 92.187 140.37 92.212C135.935 92.7982 131.3 92.627 126.818 92.657C122.415 92.6857 117.968 92.762 113.63 92.242C113.358 92.2107 113.415 91.8932 113.67 91.8782Z" fill="#356799" stroke="#356799"/>
<path d="M114.471 96.0501C118.611 95.7913 122.627 95.7826 126.776 95.9026C131.021 96.0238 135.368 95.7288 139.591 96.1013C139.8 96.1201 139.732 96.3588 139.561 96.3838C135.393 96.9701 131.038 96.7988 126.827 96.8288C122.688 96.8576 118.511 96.9338 114.433 96.4138C114.18 96.3826 114.232 96.0651 114.471 96.0501Z" fill="#356799" stroke="#356799"/>
<path d="M126.809 100.067C130.403 100.189 134.083 99.8929 137.658 100.265C137.834 100.284 137.778 100.523 137.633 100.548C134.104 101.134 130.418 100.963 126.853 100.993C123.349 101.023 119.813 101.098 116.36 100.578C116.145 100.547 116.189 100.229 116.393 100.214C119.898 99.9554 123.296 99.9467 126.809 100.067Z" fill="#356799" stroke="#356799"/>
<path d="M121.21 39.1437C116.169 38.195 111.722 38.4875 104.262 38.4875H90.9811C89.8874 38.4875 87.9599 38.4362 86.3549 38.4225C86.0661 38.42 86.0511 37.9162 86.3461 37.8625C87.4911 37.655 90.3674 37.7012 92.3036 37.7537C95.1174 37.8312 97.8949 37.8862 100.715 37.855C107.379 37.7825 116.757 37.2112 121.349 38.7025C125.236 39.7275 127.481 47.2362 128.074 50.4162C128.75 54.0425 128.637 59.3737 128.535 61.6825C128.515 62.1487 127.982 62.2462 127.96 61.77C127.804 58.4362 127.804 57.4462 127.595 54.0612C127.369 50.3787 125.866 40.6737 121.21 39.1437Z" fill="#356799" stroke="#356799"/>
<path d="M64.04 105.236C63.96 105.4 63.6725 105.287 63.7413 105.113C64.335 103.595 65.3788 103.158 66.6363 104.208C69.035 106.212 69.0663 110.952 68.5975 113.677C68.3425 115.155 67.1163 120.148 64.9975 120.181C62.6138 120.217 62.4175 114.392 62.4588 113.126C62.4675 112.878 62.8075 112.883 62.8375 113.122C63.0888 115.082 63.3775 118.23 64.4588 118.986C65.0963 119.167 65.6588 118.672 65.9963 118.198C66.9975 117.003 67.445 115.831 67.8013 114.351C68.3013 112.275 68.2113 109.935 67.8338 107.853C67.6025 106.576 65.46 102.358 64.04 105.236Z" fill="#356799" stroke="#356799"/>
<path d="M18.8754 102.36C18.8179 102.49 18.6117 102.399 18.6617 102.26C19.0879 101.039 19.8354 100.689 20.7342 101.534C22.4517 103.143 22.4754 106.951 22.1392 109.141C21.9567 110.328 21.0779 114.341 19.5604 114.365C17.8554 114.396 17.7129 109.716 17.7429 108.698C17.7492 108.5 17.9917 108.503 18.0142 108.694C18.1942 110.269 18.3242 112.929 19.1742 113.406C19.4704 113.529 20.0342 113.154 20.2754 112.773C20.9929 111.813 21.3117 110.87 21.5679 109.681C21.9267 108.014 21.8629 106.134 21.5917 104.461C21.4267 103.435 19.8917 100.046 18.8754 102.36Z" fill="#356799" stroke="#356799"/>
<path d="M47.0053 80.7643C46.3903 80.5105 46.2753 79.9568 46.219 79.4268C46.144 78.7093 46.4828 79.0618 46.5265 79.2405C46.8853 80.7018 48.0378 80.468 48.404 79.5855C48.7415 78.733 48.7928 77.7805 48.799 76.878C48.8015 76.4755 48.709 76.0805 48.6053 75.6943C48.519 75.3743 48.3778 75.073 48.164 74.8193C47.3953 73.9068 46.7728 75.8955 46.729 76.138C46.6928 76.338 46.349 76.2993 46.3715 76.0955C46.4753 75.1993 47.029 74.028 48.104 74.2055C48.9628 74.3455 49.1965 75.8718 49.2853 76.5193C49.4278 77.5718 49.349 79.9655 48.339 80.6843C47.899 80.998 47.4978 80.9668 47.0053 80.7643Z" fill="#356799" stroke="#356799"/>
<path d="M21.6843 80.1863C21.2905 80.0651 21.043 79.4326 20.988 78.8588C20.9293 78.2338 21.1893 78.3113 21.2418 78.6863C21.3755 79.6476 22.3093 80.1351 22.788 79.0063C23.0655 78.2163 23.1093 77.3326 23.1143 76.4951C23.1168 76.1226 23.0405 75.7563 22.9543 75.3988C22.8843 75.1026 22.7668 74.8226 22.5918 74.5876C21.9568 73.7401 21.4455 75.5851 21.408 75.8088C21.378 75.9938 21.0943 75.9588 21.113 75.7701C21.198 74.9388 21.6543 73.8538 22.5418 74.0163C23.2493 74.1476 23.4405 75.5626 23.5155 76.1626C23.633 77.1388 23.568 79.3588 22.7355 80.0238C22.3718 80.3163 22.1118 80.3163 21.6843 80.1863Z" fill="#356799" stroke="#356799"/>
<path d="M42.2406 41.7316C42.4518 41.7129 42.5056 42.0404 42.2956 42.0754C40.7668 42.3354 41.2406 48.2066 41.1306 50.4779C41.0131 52.9241 41.1356 55.3941 41.2093 57.8441C41.2406 58.9066 41.0943 59.1266 42.1931 59.2354C43.6893 59.3854 45.0718 59.4579 46.5156 59.4841C46.5343 59.1966 46.5931 58.9004 46.7143 58.6016C47.4481 56.7941 50.0206 56.6141 51.6043 57.6091C51.7106 56.7179 51.6468 55.7529 51.6481 55.2054C51.6593 51.1279 50.0031 42.4791 44.6681 41.5991C44.4043 41.5554 44.5118 41.1929 44.7706 41.2291C50.4231 42.0016 52.2856 50.8679 52.2981 55.1954C52.3018 56.2154 52.3506 57.2291 52.2006 58.0804C52.5318 58.4266 52.7681 58.8516 52.8543 59.3466C52.8918 59.5629 52.5793 59.6654 52.5206 59.4441C52.0331 57.6291 49.1093 56.9441 47.8118 58.2979C46.8081 59.3454 47.4081 60.7866 48.6343 61.2404C49.6756 61.6254 51.1643 61.6479 52.3656 60.7704C52.5568 60.6304 52.8243 60.9241 52.6356 61.1104C52.1156 61.6279 51.2981 62.1504 50.4993 62.1941C49.6481 62.2404 48.7768 62.3179 47.9968 61.9104C47.2343 61.5116 46.7456 60.8979 46.5768 60.1879C44.5831 60.1216 42.5606 59.9066 41.3531 59.6929C40.8368 59.6016 40.4706 59.1991 40.5156 58.0616C40.6531 54.5854 40.6406 50.1554 40.8281 46.1791C40.8831 45.0079 40.5393 41.8741 42.2406 41.7316Z" fill="#356799" stroke="#356799"/>
<path d="M33.5352 45.5832C31.4415 49.0307 30.2152 52.4607 29.8215 56.8344C29.7065 58.1132 29.9227 59.0307 31.0202 59.1582C31.509 59.2144 35.079 59.1232 35.649 59.0607C38.3165 58.7669 38.3352 58.5882 38.5652 56.5994C38.7765 54.7819 38.769 51.9319 38.8865 50.1219C39.029 47.9307 39.0627 46.4657 39.0765 44.5307C39.0927 41.6719 38.4327 42.0007 36.6327 42.5757C36.4552 42.6319 36.3865 42.3182 36.5552 42.2369C37.4677 41.7907 38.2665 41.0282 39.1677 41.8219C39.8615 42.4332 39.489 46.8969 39.489 48.4969C39.489 51.2094 39.3377 54.8432 39.119 56.7469C38.9065 58.5944 39.0552 59.3082 37.3615 59.5644C35.9265 59.7807 34.7227 59.8832 33.2602 59.8832C32.6227 59.8832 31.0602 59.9244 30.4102 59.7257C29.5115 59.4507 29.3302 58.9094 29.229 58.2619C28.5802 54.1282 30.8952 47.7457 33.3377 45.2757C33.4927 45.1207 33.6352 45.4182 33.5352 45.5832Z" fill="#356799" stroke="#356799"/>
<path d="M23.9095 84.515C23.8057 84.64 23.6257 84.8063 23.4145 84.9675C24.4595 85.0113 25.5045 85.0563 26.5495 85.0925C27.8757 84.3788 28.617 82.905 28.9845 80.7613C28.0057 80.6913 27.1795 80.6163 26.7995 80.5463C26.572 80.5925 26.3557 80.4425 26.347 80.2113C26.2995 78.8588 26.5582 77.4088 26.5782 76.0225C26.5945 74.7063 26.9182 72.3588 25.5257 70.4663C25.2795 70.1313 25.542 69.98 25.7082 70.1513C26.5932 71.055 26.8782 72.36 26.9845 73.41C27.1382 74.9238 26.9832 79.02 27.1732 79.8225C32.0545 80.1075 37.0807 80.755 44.1845 80.6888C43.8845 78.6913 44.0282 76.5775 44.322 74.6813C44.752 71.905 46.202 68.32 49.482 69.705C52.8295 71.1175 52.2795 77.5375 51.9507 79.1363C51.9045 79.3588 51.572 79.3738 51.5932 79.1413C51.772 77.3025 51.777 74.885 51.302 73.0625C51.047 72.0838 50.4495 71.115 49.647 70.5075C46.6332 68.2288 45.6057 72.5238 45.1795 73.9788C44.3795 76.7025 44.5595 79.535 45.357 82.2213C46.0282 84.4788 48.262 86.655 50.0307 83.8288C50.5595 82.9825 50.812 82.2663 51.2145 80.9913C51.2932 80.7388 51.6295 80.9325 51.6032 81.1488C51.3932 82.8975 50.9795 84.2288 49.7657 85.5313C49.6495 85.655 49.4582 85.8175 49.232 85.9775C50.4357 86.0113 51.6495 86.045 52.8807 86.0738C52.8907 86.0675 52.8907 86.0613 52.902 86.055C54.2707 85.3975 55.4857 83.8463 55.6932 82.3238C55.387 82.31 55.0795 82.2988 54.7682 82.29C53.977 82.2663 52.922 82.305 52.7682 81.8413C52.4445 80.8638 52.8282 79.5388 52.8708 78.4963C52.9657 76.1625 53.0207 73.4363 52.1407 71.2513C52.0682 71.0725 52.372 70.94 52.4507 71.115C53.6645 73.815 53.3682 76.9213 53.4007 79.82C53.412 80.8238 53.0845 81.4538 54.362 81.5388C56.402 81.6763 57.4245 81.7163 59.072 81.72C59.0845 81.3388 59.0932 80.97 59.1032 80.6175C59.2395 75.3525 59.477 70.0863 59.497 64.8225C59.5007 64.0038 59.5057 63.2325 59.512 62.4838C58.1307 61.68 56.6545 60.9363 55.1695 60.3675C54.9482 60.2825 54.7595 60.1125 54.7657 59.8538C54.8245 57.0025 54.4207 54.17 54.0457 51.3488C53.5182 47.3725 51.102 40.1163 46.512 39.2288C46.3257 39.1925 46.3595 38.8763 46.552 38.8925C51.1482 39.3 53.8682 46.605 54.6057 50.3713C55.137 53.0863 55.3682 55.785 55.7357 58.5088C55.962 60.17 58.1995 60.4488 59.5207 61.6013C59.607 54.6163 59.872 50.375 60.2145 43.6563C60.1507 42.7275 60.1157 41.8013 60.1095 40.875C57.1032 40.8188 54.3145 40.8063 51.1257 40.5625C50.9132 40.5463 50.9432 40.1813 51.1732 40.1763C53.8682 40.1138 57.6682 40.4475 60.1045 40.495C60.1095 39.8125 60.132 39.13 60.192 38.4488C52.0732 38.1738 45.4445 36.855 37.9995 39.4925C33.392 41.1275 30.3607 45.6525 28.8982 50.04C27.8882 53.0738 26.3982 57.305 25.9995 60.305C25.9632 60.5825 25.7757 60.8663 25.4695 60.8513C25.447 60.85 25.427 60.85 25.4057 60.8488C22.2395 61.305 19.8107 62.1013 18.4457 65.4388C17.5707 67.5788 17.067 69.9463 16.8707 72.3163C16.712 74.225 16.5145 76.655 16.812 78.595C17.6307 78.7188 18.3945 78.825 19.2107 78.9775C19.1157 77.4475 19.227 75.8838 19.4245 74.4525C19.7782 71.88 20.9732 68.555 23.6757 69.8388C26.4357 71.1488 26.0607 76.7975 25.722 78.4913C25.6807 78.6963 25.4107 78.71 25.4282 78.495C25.617 76.095 25.5682 74.6425 25.1782 72.9525C24.967 72.0438 24.4757 71.1463 23.8132 70.5838C21.3295 68.47 20.4832 72.4538 20.132 73.8025C19.4707 76.3275 19.6195 78.9538 20.2782 81.445C20.8307 83.5375 22.6757 85.4863 24.1332 82.8663C24.5682 82.0825 24.8457 81.6425 25.097 80.47C25.1757 80.1063 25.4457 80.25 25.4257 80.45C25.252 82.0725 24.6545 83.6213 23.9095 84.515ZM33.097 85.3488C35.7707 85.4788 38.3782 85.5913 40.977 85.6938C40.5007 85.3913 40.1982 84.9038 39.952 84.2888C39.732 83.7413 39.5307 83.1888 39.4507 82.6075C39.3695 82.0238 39.292 81.65 39.3945 81.2338C37.417 81.1563 35.5657 81.0663 33.592 81.0025C32.5745 80.97 30.9007 80.89 29.4407 80.7913C29.2457 82.7788 28.6907 84.0025 28.0782 84.7663C27.9695 84.9013 27.847 85.025 27.7182 85.135C29.5107 85.1988 31.3045 85.2625 33.097 85.3488ZM44.5495 82.2775C44.4382 83.5788 43.9257 85.1725 42.9057 85.7688C44.1432 85.8138 45.382 85.8563 46.6282 85.8963C45.5945 84.8738 44.947 83.625 44.5495 82.2775ZM43.0995 81.3438C43.0557 81.905 42.772 82.8488 42.242 83.1475C41.6445 83.485 41.3007 82.7913 41.1095 82.3113C41.0282 82.1113 41.322 82.0188 41.4332 82.1688C41.6007 82.3975 41.872 82.9725 42.1832 82.6475C42.4895 82.3288 42.737 81.78 42.7895 81.3388C41.7732 81.3175 40.8157 81.2863 39.892 81.2538C39.9457 82.4575 40.327 84.3388 41.1632 85.2088C42.1482 86.2325 43.4082 84.64 43.7157 83.8163C43.9882 83.0825 44.2095 82.1613 44.1707 81.3625C43.8045 81.3575 43.4507 81.3513 43.0995 81.3438ZM58.9257 86.1975C58.9657 84.8863 59.0095 83.6288 59.047 82.4638C58.0132 82.4338 57.0607 82.3838 56.122 82.3425C56.0382 83.485 55.5107 84.7225 54.8945 85.47C54.7032 85.7025 54.517 85.93 54.3157 86.105C55.822 86.14 57.3545 86.17 58.9257 86.1975ZM148.503 95.0263C148.505 94.26 148.517 93.4875 148.532 92.7125C146.224 93.5725 143.703 94.9738 142.34 96.9175C140.967 98.87 140.727 101.669 140.497 104.021C143.169 104.065 145.87 104.158 148.607 104.305C148.108 101.318 148.497 98.0275 148.503 95.0263ZM132.02 105.45C125.836 105.231 119.655 105.628 113.468 105.641C108.302 105.654 103.137 105.65 97.9657 105.649C98.0057 107.149 98.0207 108.651 98.0445 110.151C98.0595 111.128 98.1495 112.095 98.177 113.071C98.1895 113.508 98.0957 113.824 98.012 114.161C102.465 114.168 106.917 114.174 111.37 114.18C114.596 114.186 144.973 115.198 149.918 114.376C150.911 113.503 150.806 111.42 150.817 111.053C150.901 108.433 150.821 106.548 150.898 105.379C144.337 105.764 138.608 105.683 132.02 105.45ZM112.908 104.029C112.732 100.083 111.791 97.5725 108.586 95.1338C107.043 93.9613 105.408 93.3975 103.762 92.8425C103.176 92.645 102.628 92.5413 102.072 92.3538C102.051 96.2563 101.946 104.169 101.538 104.105C101.566 104.11 101.586 104.125 101.611 104.133C105.384 104.133 109.158 104.133 112.933 104.139C112.927 104.101 112.909 104.073 112.908 104.029ZM116.437 121.065C117.84 120.521 118.321 118.814 118.683 117.444C118.703 117.366 118.588 117.318 118.567 117.395C118.223 118.683 117.089 120.795 115.341 120.54C114.118 120.363 113.198 119.065 112.851 117.918C112.827 117.839 112.717 117.881 112.733 117.961C113.103 119.815 114.446 121.839 116.437 121.065ZM54.8145 113.656C54.7345 114.364 54.0445 115.363 53.1032 115.231C52.282 115.118 52.237 114.341 51.7607 113.761C51.7532 113.755 51.737 113.759 51.7357 113.769C51.6095 114.708 52.3532 115.886 53.4182 115.751C54.4157 115.625 54.8382 114.565 54.9357 113.681C54.9445 113.603 54.822 113.576 54.8145 113.656ZM9.46324 89.1788C9.53323 87.2263 9.57324 86.2225 9.73074 84.895C9.72699 84.8013 9.73825 84.7125 9.76199 84.6325V84.63C9.76199 84.63 9.76324 84.63 9.76324 84.6288C9.7995 84.5013 9.86449 84.405 9.95949 84.4038C11.8457 84.375 15.2045 84.4763 18.682 84.715C19.5832 84.7775 20.4845 84.8225 21.3857 84.8688C20.1407 83.5038 19.5232 81.7225 19.2982 79.8225C18.9357 79.825 18.4457 79.7863 17.8457 79.7563C17.287 79.7288 16.5545 79.6625 16.267 79.575C16.007 79.495 15.8945 79.3 15.8882 79.1C15.3857 78.0663 15.5807 75.7338 15.617 74.8838C15.7732 71.2113 16.1507 69.2875 16.8432 67.075C18.2432 62.6025 20.442 60.565 25.0332 60.1838C25.0657 60.0213 25.522 58 25.5782 57.7738C25.9295 56.3675 27.0232 52.6275 27.8545 50.135C29.0782 46.4675 30.9557 42.92 34.1657 40.6038C41.5395 35.28 51.872 37.2013 60.3545 37.2488C60.387 37.0425 60.377 36.83 60.442 36.63C61.5407 33.2513 67.9032 33.1225 70.492 33.125C75.2445 33.13 79.9595 33.2463 84.7045 33.3863C94.807 33.6838 104.508 33.4913 114.591 33.85C114.754 33.795 118.096 34.18 118.68 34.3225C120.243 34.7013 121.751 35.3888 123.227 35.9838C126.185 37.1763 128.255 39.6388 129.442 42.34C130.848 45.5388 131.015 48.6975 131.702 52.025C132.396 55.3875 132.56 59.3425 132.496 62.2163C133.091 62.4463 134.035 62.8538 134.762 63.175C134.952 61.425 135.08 59.7163 135.146 57.9475C135.16 57.585 135.143 55.7688 134.967 55.5113C134.667 55.075 133.848 54.805 133.514 55.6475C133.436 55.8463 133.087 55.8538 133.105 55.5988C133.182 54.4925 135.253 54.1763 135.681 55.1838C136.747 57.6963 136.254 61.0988 135.979 63.71C135.978 63.7175 135.975 63.7225 135.973 63.7288C138.103 64.7563 139.992 65.8938 142.055 67.0563C145.346 68.9125 147.563 72.0188 148.682 75.5575C150.085 79.9963 150.157 84.595 150.17 89.23C150.185 94.145 150.613 99.2788 150.186 104.165C150.18 104.24 150.162 104.316 150.141 104.39C150.471 104.41 150.793 104.423 151.123 104.444C151.476 104.469 151.617 104.808 151.553 105.069C151.56 105.078 151.567 105.083 151.568 105.095C151.742 106.566 151.751 108.08 151.799 109.559C151.817 110.14 151.658 114.636 151.152 115.159C150.812 115.509 150.403 115.54 149.983 115.484C146.261 116.026 141.142 115.848 136.216 115.793C136.05 116.644 135.875 117.411 135.682 118.258C135.378 119.604 134.731 120.824 134.075 121.996C133.2 123.56 130.981 125.413 129.093 125.834C129.08 125.839 129.075 125.849 129.058 125.854C127.24 126.35 122.637 126.094 119.694 126.045C122.427 124.554 124.213 120.979 124.117 116.43C124.116 116.35 124.003 116.385 123.997 116.465C123.701 120.38 122.182 123.708 119.479 125.22C118.156 125.961 116.278 125.956 115.656 125.784C113.623 125.399 111.497 123.255 110.781 121.736C109.868 119.801 109.513 117.706 109.356 115.609C102.878 115.615 96.4007 115.631 89.9232 115.638C88.5732 115.639 87.1245 115.62 85.6632 115.583C85.6532 116.59 85.407 117.723 85.2707 118.648C85.0495 120.163 84.487 121.583 83.8945 123.003C83.0345 125.061 80.0045 127.668 78.8882 128.008C78.8682 128.018 78.862 128.035 78.8357 128.041C78.7882 128.053 78.7345 128.059 78.6857 128.07C78.682 128.07 78.6758 128.075 78.672 128.075C78.6695 128.075 78.6682 128.074 78.6657 128.074C75.877 128.681 72.0457 128.5 69.2057 128.518C68.267 128.524 66.6907 128.481 65.5382 128.104C63.5782 127.703 61.527 125.216 60.6245 123.148C60.1407 122.039 59.7857 121.088 59.562 119.893C58.122 120.029 56.3595 119.96 54.907 119.849C55.1445 119.679 55.3732 119.495 55.572 119.285C56.9907 117.798 58.3232 115.749 57.9682 113.089C57.957 113.009 57.8395 113.016 57.8432 113.096C57.9507 114.908 56.9407 117.009 55.5032 118.18C54.4295 119.055 52.9995 119.503 52.1095 119.259C52.0832 119.24 52.0457 119.23 52.022 119.211C50.8282 118.578 49.7307 117.096 49.2107 115.839C48.582 114.318 48.2107 112.66 48.0782 110.986C45.0032 110.821 42.0282 110.654 38.817 110.42C37.6245 110.333 36.322 110.246 35.007 110.159C35.0907 111.026 35.1032 112.215 34.987 113.133C34.7745 114.811 34.5757 115.394 34.1795 116.559C33.6057 118.243 32.192 119.878 30.9295 120.578C30.8782 120.618 30.8245 120.653 30.7795 120.666C29.5695 121.044 24.467 120.853 22.312 120.868C21.752 120.871 21.002 120.876 20.342 120.738C18.7632 120.74 16.997 118.36 16.432 116.746C15.4707 114.006 15.3545 110.931 15.317 108.011C15.2845 105.493 15.4557 103.105 16.172 100.714C16.7357 98.8275 17.6832 96.915 19.467 96.3963C21.1595 95.905 22.8145 98.4975 23.4982 99.7988C24.8757 102.425 25.2057 105.969 24.9545 108.953C24.7782 111.03 24.7307 113.419 23.1645 116.991C23.0957 117.151 22.9282 116.963 22.987 116.798C23.872 114.319 24.0282 112.601 24.2907 110.708C24.6557 108.075 24.547 105.833 24.1582 103.24C23.832 101.055 21.3582 94.715 18.3232 97.57C17.117 98.7063 16.2745 101.741 16.132 103.403C15.8257 106.985 15.7695 109.755 16.2995 112.79C16.617 114.613 16.832 116.695 17.9345 118.153C18.2045 118.51 18.897 119.564 19.9082 119.868C20.0557 119.886 20.2257 119.905 20.412 119.925C21.1245 119.856 21.6495 119.176 21.847 118.879C21.997 118.651 22.307 118.831 22.1932 119.099C22.0245 119.495 21.8357 119.791 21.637 120.035C24.5882 120.268 29.452 120.165 30.632 119.96C30.692 119.951 30.752 119.934 30.812 119.918C31.872 118.808 32.5795 117.64 33.1882 116.148C33.687 114.918 33.9182 113.563 34.0995 112.239C34.197 111.541 34.177 110.876 34.1232 110.099C32.4282 109.985 30.7345 109.866 29.2107 109.74C27.9207 109.631 27.477 109.561 27.5032 109.239C27.502 109.23 27.492 109.229 27.492 109.22C27.5957 106.146 28.4432 99.71 23.967 96.4063C23.7882 96.2738 23.9407 95.9725 24.1432 96.0963C25.9782 97.2263 26.8845 98.3075 27.5445 100.314C28.3182 102.666 28.4982 105.708 28.1057 108.835C31.6282 108.685 55.602 110.773 59.0657 111.266C59.0857 108.499 59.3695 105.846 60.262 103.19C61.0507 100.844 62.372 98.4638 64.867 97.8188C67.2282 97.2075 69.5407 100.431 70.4945 102.05C72.4195 105.321 72.882 109.733 72.5295 113.446C72.2845 116.031 72.0482 120.189 69.992 123.399C69.8707 123.59 69.6482 123.36 69.7432 123.158C71.032 120.424 71.2095 117.544 71.602 115.63C72.2695 112.378 71.9582 109.561 71.417 106.336C70.9607 103.618 67.507 95.7263 63.267 99.28C61.582 100.691 60.2495 104.463 60.207 106.538C60.1282 110.345 59.702 114.445 60.4408 118.224C60.997 121.065 61.7282 124.198 63.7807 125.86C64.602 126.524 64.9295 126.76 65.6245 127.075C66.477 127.461 67.8632 126.236 68.187 125.801C68.3982 125.516 68.832 125.743 68.6732 126.075C68.4107 126.629 68.117 127.048 67.8045 127.369C71.4257 127.615 77.3982 127.378 78.937 127.21C80.9595 125.541 81.4782 124.783 82.522 122.848C83.3457 121.318 83.8482 119.896 84.1895 117.535C84.282 116.895 84.297 116.196 84.2907 115.539C79.657 115.375 75.1695 115.003 73.5857 114.376C73.5382 114.358 73.512 114.32 73.482 114.285C73.407 114.245 73.3457 114.181 73.352 114.064C73.5982 109.615 73.8695 109 73.3907 105.665C72.7857 101.439 70.2245 91.8925 63.6707 96.2338C63.517 96.3363 63.3332 96.1075 63.4682 95.9813C67.1645 92.5413 71.062 95.9638 72.667 99.55C74.8157 104.351 74.867 108.799 73.942 113.855C79.727 113.995 84.0557 114.143 89.9007 114.149C92.2782 114.151 94.657 114.156 97.0345 114.16C97.1145 112.829 97.232 111.513 97.2532 110.164C97.2757 108.659 97.292 107.153 97.3307 105.649C96.262 105.649 95.1957 105.65 94.1245 105.65H85.0407C82.9395 105.65 77.3207 105.843 75.3995 104.936C75.0607 104.776 75.2507 104.318 75.5645 104.286C80.8245 103.779 90.0095 104.129 95.2957 104.129C97.0057 104.129 98.7083 104.131 100.416 104.131C100.258 100.651 100.707 97.2175 100.666 93.7188C100.617 89.68 100.567 85.685 100.41 81.6588C100.232 77.1113 98.5508 72.6388 95.617 69.2563C93.6307 66.97 90.3532 64.3738 87.6645 62.9263C87.2633 62.71 87.2057 62.5725 87.152 62.3625C86.8808 61.8338 86.992 59.9375 86.9982 58.5475C87.0082 55.7613 86.8795 52.3925 86.5033 49.48C85.7945 44.0063 83.8432 39.1175 79.1457 35.6475C79.0007 35.54 79.1895 35.3025 79.3395 35.4025C88.1683 41.3588 87.887 52.4738 88.022 61.6388C90.0382 61.5425 93.587 61.5375 95.9295 61.5638C99.0532 61.5988 101.729 61.4938 104.852 61.5575C111.479 61.6925 118.106 61.8863 124.733 62.01C124.957 62.015 124.963 62.3625 124.738 62.3663C118.507 62.4763 112.272 62.5625 106.04 62.5875C102.917 62.6 99.7945 62.5988 96.6695 62.5963C93.767 62.5938 92.3732 62.5538 88.1445 62.3713C88.6795 62.8225 90.0045 63.5225 90.3045 63.7513C91.7895 64.8813 93.4407 65.8988 94.8945 67.12C98.122 69.8325 99.9432 73.3113 101.012 77.3813C102.121 81.6025 102.061 86.0488 102.078 90.3788C102.078 90.5838 102.078 90.9988 102.077 91.5488C103.193 91.5838 104.296 91.7725 105.376 92.0913C107.258 92.645 109.726 93.8413 110.52 94.4638C113.407 96.7275 114.638 100.27 114.473 104.004C114.471 104.055 114.451 104.093 114.442 104.14H114.46C122.905 104.16 130.884 103.913 139.018 104.003C139.301 101.095 139.785 98.075 141.568 95.685C142.956 93.8275 146.112 92.4025 148.545 92.0425C148.622 88.2925 148.731 84.4825 148.158 80.8138C147.443 76.2325 146.408 72.44 142.763 69.2875C141.138 67.8813 139.013 66.54 137.136 65.5238C136.467 65.1638 135.773 64.7263 135.063 64.295C134.977 64.2688 134.903 64.2238 134.843 64.1625C133.775 63.52 132.672 62.9063 131.568 62.6025C131.447 62.5688 131.332 62.4488 131.342 62.315C131.344 62.2938 131.346 62.2738 131.347 62.2513C131.194 59.445 131.202 56.8825 130.773 53.8675C130.409 51.31 129.751 48.3738 129.147 45.8688C127.518 39.1063 122.492 35.4175 113.742 34.5063C113.741 34.5063 113.737 34.5063 113.736 34.505C104.327 34.8063 95.3132 34.58 85.8708 34.6688C81.112 34.7138 76.342 34.5475 71.5757 34.4625C61.9582 34.2938 61.532 37.0925 61.307 38.0675C60.8995 39.8438 60.927 41.7938 60.8957 43.6888C61.0445 51.3613 60.6182 55.7838 60.6657 64.8063C60.6945 70.0663 60.452 75.3363 60.3432 80.5988C60.237 85.8275 60.6282 94.2725 60.012 99.4663C59.9482 100.008 59.1895 100.033 59.1232 99.4813C58.727 96.1538 58.7757 91.4938 58.8957 87.2013C54.927 87.3563 51.9245 87.22 48.4395 87.19C43.3395 87.145 38.212 86.9875 33.1182 86.7125C27.9145 86.4313 22.7032 86.3525 17.5032 85.995C15.0007 85.8225 11.9945 85.6513 10.4832 85.4363C10.4807 86.2238 10.467 86.9638 10.3995 88.3288C10.3382 89.6063 10.2457 91.2313 10.2345 92.6175C12.8495 92.7188 15.552 92.965 18.4195 93.0975C22.567 93.29 26.772 93.6163 30.9007 94.0838C35.5645 94.6125 40.2345 94.9063 44.9195 95.2225C49.217 95.5138 51.8145 95.6263 57.9582 96.2363C58.182 96.2588 58.177 96.5775 57.9632 96.5775C52.2307 96.5638 49.2082 96.2588 44.9332 96.1063C39.8557 95.9288 34.8182 95.7313 29.7657 95.2138C25.7245 94.8013 21.6007 94.5425 17.542 94.365C16.8407 94.3338 16.0732 94.2863 15.2882 94.2275C15.3995 96.1125 15.3245 98.0688 15.092 99.91C15.067 100.113 14.7345 100.196 14.652 100.035C14.367 99.48 14.2407 98.8125 14.3145 97.8663C14.442 96.2638 14.527 95.27 14.6532 94.1763C13.8195 94.1025 12.9695 94.015 12.1432 93.8988C11.1257 93.7575 10.177 93.7313 9.67699 93.5563C9.44073 93.5513 9.21449 93.3725 9.20323 92.9788C9.16574 91.645 9.42073 90.37 9.46324 89.1788Z" fill="#356799" stroke="#356799"/>
<path d="M80.7773 62.2334C77.3635 62.2622 74.3173 62.1559 70.1985 62.0809C68.891 62.0572 66.116 62.1972 65.4885 61.9422C65.1635 61.8822 64.8935 61.6384 64.8935 61.2597C64.8935 54.2272 64.5423 45.8697 65.3135 38.8397C65.3398 38.5897 65.706 38.5672 65.7135 38.8334C65.8135 42.1897 65.5585 45.8022 65.6685 49.1647C65.7848 52.6997 65.6273 57.5859 65.961 61.0147C66.0348 61.0122 66.116 61.0159 66.2073 61.0334C66.7273 61.1309 70.556 61.0847 71.646 61.1447C74.8848 61.3234 78.071 61.4509 80.7735 61.5134C80.7748 59.9572 80.791 58.4009 80.7248 56.8472C80.6673 55.4847 81.0523 54.8472 82.2785 54.4234C82.9098 54.2059 83.4173 54.1909 83.8435 54.3022C83.751 52.3384 83.5223 50.7122 82.9598 48.2272C82.2598 45.1309 80.771 41.1072 77.8298 39.5859C74.8373 38.0384 71.4498 37.9822 68.1723 37.8834C67.9248 37.8759 67.9185 37.5109 68.1673 37.4972C73.8785 37.2009 80.356 37.7584 82.8985 45.0272C84.0448 48.3009 84.6723 51.4597 84.7548 54.8797C86.0885 56.4434 85.6523 60.3997 85.5698 61.8384C85.5523 62.1297 85.1323 62.1397 85.116 61.8459C85.0385 60.4897 84.9798 59.1397 84.8798 57.7847C84.6523 54.6847 81.2998 54.2109 81.4135 57.7747C81.496 60.3509 81.361 62.9359 81.536 65.5097C81.6298 66.8884 81.8248 67.9084 81.8535 69.2909C81.8823 70.6909 84.7373 70.1647 84.8185 69.1922C84.9748 67.3309 85.0685 66.3709 85.291 64.4984C85.3185 64.2622 85.6335 64.2509 85.6623 64.4922C85.9073 66.5497 86.181 70.8547 84.191 71.2884C79.9785 72.2072 81.0135 67.7384 80.8685 65.5184C80.7973 64.4259 80.781 63.3297 80.7773 62.2334Z" fill="#356799" stroke="#356799"/>
</svg>
